<?xml version="1.0" encoding="iso-8859-1"?>
<!-- Generator: Adobe Illustrator 19.0.0, SVG Export Plug-In . SVG Version: 6.00 Build 0)  -->
<svg version="1.1" id="Capa_1" xmlns="http://www.w3.org/2000/svg" xmlns:xlink="http://www.w3.org/1999/xlink" x="0px" y="0px"
	 viewBox="0 0 512.001 512.001" style="enable-background:new 0 0 512.001 512.001;" xml:space="preserve">
<g>
	<g>
		<path d="M510.461,182.899c-12.452-42.805-35.787-82.184-67.482-113.879c-31.693-31.695-71.071-55.03-113.877-67.481
			c-11.59-3.37-23.784-1.143-33.456,6.116c-9.708,7.286-15.274,18.421-15.274,30.553c0,16.853,11.279,31.907,27.427,36.608
			c14.173,4.127,27.83,9.943,40.72,17.29c-6.161,19.593-1.506,41.881,13.993,57.382c11.092,11.092,25.662,16.637,40.231,16.637
			c5.791,0,11.578-0.891,17.15-2.643c7.348,12.891,13.165,26.547,17.29,40.72c4.702,16.148,19.754,27.427,36.608,27.427
			c12.132,0,23.267-5.567,30.553-15.274C511.604,206.684,513.833,194.49,510.461,182.899z M357.819,74.369
			c-14.071-7.959-28.973-14.257-44.428-18.756c-7.665-2.231-13.019-9.389-13.019-17.405c0-5.779,2.654-11.085,7.281-14.557
			c4.591-3.446,10.374-4.505,15.864-2.908c24.751,7.2,47.984,18.31,68.968,32.583c-10.987,1.999-21.495,7.225-29.972,15.7
			C360.813,70.726,359.259,72.517,357.819,74.369z M428.833,135.346c-14.384,14.385-37.792,14.385-52.177,0
			c-14.385-14.385-14.385-37.793,0-52.178c7.193-7.193,16.64-10.79,26.089-10.79c8.194,0,16.384,2.709,23.106,8.119
			c1.914,1.854,3.799,3.739,5.653,5.653C443.152,100.624,442.264,121.915,428.833,135.346z M488.351,204.349
			c-3.473,4.627-8.779,7.281-14.558,7.281c-8.017,0-15.173-5.354-17.404-13.018c-4.5-15.455-10.799-30.358-18.756-44.428
			c1.852-1.44,3.643-2.994,5.344-4.695c8.476-8.477,13.703-18.985,15.7-29.971c14.273,20.984,25.383,44.217,32.583,68.968
			C492.857,193.976,491.797,199.758,488.351,204.349z"/>
	</g>
</g>
<g>
	<g>
		<path d="M216.356,7.654c-9.671-7.258-21.864-9.487-33.456-6.116C140.094,13.99,100.715,37.325,69.02,69.02
			S13.99,140.094,1.539,182.899c-3.372,11.591-1.143,23.784,6.116,33.456c7.287,9.707,18.422,15.273,30.554,15.273
			c16.853,0,31.906-11.279,36.608-27.427c4.127-14.173,9.943-27.83,17.29-40.721c5.573,1.752,11.36,2.643,17.151,2.643
			c14.569,0,29.139-5.546,40.23-16.637c15.5-15.5,20.155-37.789,13.995-57.382c12.891-7.348,26.546-13.164,40.72-17.29
			c16.148-4.702,27.427-19.754,27.427-36.608C231.63,26.075,226.064,14.939,216.356,7.654z M55.613,198.61
			c-2.231,7.665-9.389,13.019-17.405,13.019c-5.779,0-11.085-2.654-14.557-7.281c-3.445-4.59-4.505-10.373-2.908-15.863
			c7.2-24.75,18.309-47.984,32.583-68.968c1.999,10.987,7.225,21.495,15.7,29.971c1.701,1.701,3.492,3.255,5.344,4.695
			C66.41,168.254,60.112,183.155,55.613,198.61z M135.346,135.346c-14.385,14.386-37.793,14.386-52.178,0
			c-13.43-13.43-14.318-34.722-2.671-49.196c1.854-1.914,3.739-3.799,5.653-5.653c6.723-5.409,14.913-8.119,23.106-8.119
			c9.449,0,18.896,3.597,26.089,10.79C149.731,97.553,149.731,120.96,135.346,135.346z M198.612,55.613
			c-15.455,4.5-30.357,10.799-44.428,18.756c-1.44-1.852-2.994-3.643-4.695-5.344c-8.477-8.476-18.985-13.702-29.972-15.7
			c20.984-14.272,44.217-25.383,68.968-32.583c5.492-1.598,11.274-0.538,15.864,2.908c4.627,3.473,7.281,8.779,7.281,14.558
			C211.63,46.225,206.276,53.382,198.612,55.613z"/>
	</g>
</g>
<g>
	<g>
		<path d="M204.202,437.186c-14.173-4.127-27.83-9.943-40.72-17.29c6.161-19.593,1.506-41.881-13.994-57.382
			c-15.5-15.499-37.789-20.154-57.382-13.993c-7.348-12.891-13.165-26.547-17.29-40.72c-4.702-16.148-19.754-27.427-36.608-27.427
			c-12.132,0-23.267,5.567-30.553,15.274c-7.259,9.671-9.488,21.865-6.116,33.456c12.452,42.805,35.787,82.184,67.482,113.879
			c31.695,31.695,71.073,55.03,113.879,67.482c3.544,1.031,7.144,1.538,10.712,1.538c8.1,0,16.03-2.615,22.744-7.654
			c9.708-7.286,15.274-18.421,15.274-30.553C231.628,456.941,220.351,441.888,204.202,437.186z M53.326,392.484
			c-14.272-20.984-25.383-44.217-32.583-68.969c-1.598-5.491-0.538-11.274,2.908-15.863c3.473-4.627,8.779-7.281,14.558-7.281
			c8.017,0,15.173,5.354,17.404,13.019c4.5,15.455,10.799,30.358,18.756,44.428c-1.852,1.44-3.643,2.994-5.344,4.695
			C60.551,370.99,55.324,381.499,53.326,392.484z M86.151,431.505c-1.914-1.854-3.799-3.739-5.653-5.653
			c-11.648-14.474-10.76-35.766,2.671-49.196c7.193-7.193,16.64-10.79,26.089-10.79s18.895,3.597,26.088,10.79
			c14.385,14.385,14.385,37.793,0,52.178C121.916,442.264,100.625,443.152,86.151,431.505z M204.349,488.351
			c-4.59,3.447-10.373,4.507-15.864,2.908c-24.751-7.2-47.984-18.31-68.968-32.583c10.987-1.999,21.495-7.225,29.972-15.7
			c1.701-1.701,3.255-3.492,4.695-5.344c14.071,7.959,28.973,14.258,44.428,18.756c7.665,2.231,13.018,9.389,13.018,17.405
			C211.629,479.572,208.976,484.879,204.349,488.351z"/>
	</g>
</g>
<g>
	<g>
		<path d="M504.346,295.646c-7.286-9.706-18.421-15.273-30.553-15.273c-16.853,0-31.906,11.279-36.608,27.427
			c-4.127,14.173-9.943,27.83-17.29,40.72c-19.593-6.161-41.881-1.506-57.382,13.993c-15.5,15.5-20.155,37.789-13.994,57.382
			c-12.891,7.348-26.546,13.164-40.721,17.29c-16.148,4.702-27.427,19.754-27.427,36.608c0,12.132,5.567,23.267,15.274,30.553
			c6.714,5.04,14.643,7.655,22.744,7.654c3.567,0,7.168-0.507,10.712-1.538c42.805-12.452,82.184-35.787,113.879-67.482
			c31.695-31.695,55.03-71.073,67.482-113.879C513.834,317.511,511.605,305.318,504.346,295.646z M323.517,491.259
			c-5.493,1.598-11.273,0.538-15.864-2.908c-4.627-3.473-7.281-8.779-7.281-14.558c0-8.017,5.354-15.173,13.018-17.404
			c15.455-4.5,30.357-10.799,44.428-18.756c1.44,1.852,2.994,3.643,4.695,5.344c8.477,8.476,18.985,13.701,29.972,15.7
			C371.501,472.949,348.268,484.059,323.517,491.259z M431.505,425.852c-1.854,1.914-3.739,3.799-5.653,5.653
			c-14.474,11.647-35.766,10.76-49.195-2.671c-14.387-14.385-14.387-37.793-0.001-52.178c7.193-7.193,16.64-10.79,26.089-10.79
			s18.896,3.597,26.089,10.79C442.265,390.086,443.152,411.378,431.505,425.852z M491.259,323.517
			c-7.2,24.75-18.309,47.984-32.583,68.969c-1.999-10.987-7.225-21.495-15.7-29.971c-1.701-1.701-3.492-3.255-5.344-4.695
			c7.959-14.071,14.258-28.973,18.756-44.428c2.231-7.665,9.389-13.019,17.405-13.019c5.779,0,11.085,2.654,14.557,7.281
			C491.797,312.242,492.857,318.025,491.259,323.517z"/>
	</g>
</g>
<g>
	<g>
		<path d="M302.581,156.152c-16.983,0-33.478,6.391-46.58,17.808c-13.103-11.418-29.596-17.808-46.58-17.808
			c-40.87,0-74.12,35.957-74.12,80.153c0,25.408,19.702,56.518,58.559,92.465c27.904,25.813,55.363,44.563,56.518,45.349
			c1.697,1.154,3.66,1.73,5.623,1.73c1.963,0,3.926-0.577,5.623-1.73c1.155-0.786,28.614-19.536,56.518-45.349
			c38.859-35.947,58.561-67.057,58.561-92.465C376.701,192.109,343.451,156.152,302.581,156.152z M255.998,353.661
			C223.367,330.434,155.3,274.142,155.3,236.304c0-33.169,24.278-60.154,54.121-60.154c14.849,0,28.706,6.566,39.017,18.487
			c1.899,2.196,4.66,3.458,7.563,3.458c2.904,0,5.664-1.262,7.563-3.458c10.312-11.922,24.167-18.487,39.017-18.487
			c29.842,0,54.121,26.985,54.121,60.154C356.702,274.102,288.628,330.422,255.998,353.661z"/>
	</g>
</g>
<g>
	<g>
		<path d="M326.703,226.305c-5.204,0-9.479,3.975-9.956,9.054c-0.721,5.399,3.021,10.398,8.427,11.21
			c0.503,0.076,1.003,0.112,1.498,0.112c4.866,0,9.132-3.558,9.877-8.516c0.138-0.921,0.154-1.503,0.154-1.86
			C336.702,230.782,332.225,226.305,326.703,226.305z"/>
	</g>
</g>
<g>
	<g>
		<path d="M313.835,260.762c-4.191-3.595-10.504-3.112-14.1,1.08c-5.981,6.973-13.299,14.49-21.748,22.34
			c-6.995,6.498-14.724,13.177-22.977,19.852c-4.294,3.473-4.959,9.77-1.486,14.063c1.976,2.443,4.866,3.711,7.781,3.711
			c2.208,0,4.432-0.729,6.283-2.226c8.606-6.961,16.684-13.941,24.012-20.749c9.001-8.363,16.845-16.427,23.316-23.971
			C318.511,270.671,318.027,264.357,313.835,260.762z"/>
	</g>
</g>
<g>
</g>
<g>
</g>
<g>
</g>
<g>
</g>
<g>
</g>
<g>
</g>
<g>
</g>
<g>
</g>
<g>
</g>
<g>
</g>
<g>
</g>
<g>
</g>
<g>
</g>
<g>
</g>
<g>
</g>
</svg>
