<?xml version="1.0" encoding="iso-8859-1"?>
<!-- Generator: Adobe Illustrator 19.0.0, SVG Export Plug-In . SVG Version: 6.00 Build 0)  -->
<svg version="1.1" id="Capa_1" xmlns="http://www.w3.org/2000/svg" xmlns:xlink="http://www.w3.org/1999/xlink" x="0px" y="0px"
	 viewBox="0 0 512 512" style="enable-background:new 0 0 512 512;" xml:space="preserve">
<g>
	<g>
		<path d="M138.569,484.85c-1.859-1.87-4.439-2.93-7.069-2.93s-5.21,1.06-7.07,2.93c-1.861,1.86-2.93,4.43-2.93,7.07
			c0,2.63,1.07,5.21,2.93,7.07s4.44,2.93,7.07,2.93s5.21-1.07,7.069-2.93c1.861-1.87,2.931-4.44,2.931-7.07
			C141.5,489.28,140.429,486.71,138.569,484.85z"/>
	</g>
</g>
<g>
	<g>
		<path d="M49.67,367.109c-3.753-4.053-10.081-4.292-14.132-0.542l-0.086,0.08c-4.052,3.753-4.295,10.08-0.542,14.132
			c1.971,2.128,4.651,3.205,7.339,3.205c2.432,0,4.869-0.881,6.793-2.663l0.086-0.08C53.18,377.488,53.423,371.161,49.67,367.109z"
			/>
	</g>
</g>
<g>
	<g>
		<path d="M477.386,350.909c-11.763-18.466-35.393-24.994-54.968-15.186l-101.28,50.753c-4.938,2.475-6.935,8.483-4.46,13.42
			c2.475,4.937,8.479,6.934,13.421,4.46l101.28-50.753c10.374-5.201,22.901-1.739,29.138,8.05c3.393,5.328,4.395,11.63,2.819,17.747
			c-1.575,6.117-5.496,11.152-11.04,14.178l-136.153,74.313c-16.81,9.175-35.816,14.024-54.967,14.024h-88.713
			c-5.522,0-10,4.477-10,10s4.478,10,10,10h88.713c22.488,0,44.809-5.695,64.549-16.468l136.153-74.313
			c10.307-5.626,17.897-15.375,20.826-26.746C485.632,373.016,483.693,360.814,477.386,350.909z"/>
	</g>
</g>
<g>
	<g>
		<path d="M282.352,387.71l-41.792-33.109C218.906,337.447,191.767,328,164.142,328H92.5c0-5.523-4.478-10-10-10H10
			c-5.522,0-10,4.477-10,10s4.478,10,10,10h62.5v154H10c-5.522,0-10,4.477-10,10s4.478,10,10,10h72.5c5.522,0,10-4.477,10-10V348
			h71.642c23.136,0,45.864,7.912,63.998,22.279l41.792,33.109c4.921,3.898,7.33,9.936,6.446,16.151
			c-0.885,6.215-4.883,11.34-10.695,13.711c-5.358,2.186-11.438,1.58-16.26-1.623l-53.391-35.458
			c-4.599-3.056-10.808-1.802-13.862,2.798c-3.056,4.601-1.803,10.807,2.798,13.862l53.391,35.458
			c6.238,4.143,13.454,6.26,20.724,6.26c4.784,0,9.592-0.918,14.155-2.779c12.468-5.086,21.044-16.081,22.941-29.413
			C298.075,409.023,292.907,396.072,282.352,387.71z"/>
	</g>
</g>
<g>
	<g>
		<path d="M502,174h-62.5V20H502c5.522,0,10-4.477,10-10s-4.478-10-10-10h-72.5c-5.522,0-10,4.477-10,10v154h-71.642
			c-23.136,0-45.864-7.912-63.998-22.279l-41.792-33.109c-4.921-3.898-7.33-9.936-6.446-16.151
			c0.885-6.215,4.883-11.34,10.695-13.711c5.358-2.186,11.438-1.579,16.26,1.623l53.391,35.458
			c4.599,3.056,10.809,1.802,13.862-2.798c3.056-4.601,1.803-10.807-2.798-13.862l-53.391-35.458
			c-10.344-6.869-23.381-8.171-34.879-3.481c-12.468,5.086-21.044,16.081-22.941,29.413c-1.896,13.332,3.272,26.283,13.827,34.645
			l41.792,33.109C293.094,174.553,320.233,184,347.858,184H419.5c0,5.523,4.478,10,10,10H502c5.522,0,10-4.477,10-10
			S507.522,174,502,174z"/>
	</g>
</g>
<g>
	<g>
		<path d="M391.069,13.01c-1.859-1.86-4.439-2.93-7.069-2.93s-5.21,1.07-7.07,2.93c-1.86,1.86-2.93,4.44-2.93,7.07
			c0,2.64,1.069,5.21,2.93,7.08c1.86,1.86,4.44,2.92,7.07,2.92s5.21-1.06,7.069-2.92c1.86-1.87,2.931-4.45,2.931-7.08
			S392.93,14.87,391.069,13.01z"/>
	</g>
</g>
<g>
	<g>
		<path d="M341,10.085h-90.176c-22.488,0-44.81,5.695-64.549,16.468L50.122,100.865c-10.307,5.626-17.897,15.375-20.826,26.746
			c-2.928,11.372-0.989,23.574,5.318,33.479c8.076,12.679,21.747,19.73,35.858,19.73c6.441,0,12.976-1.469,19.11-4.543
			l101.28-50.753c4.938-2.475,6.935-8.483,4.46-13.42c-2.475-4.938-8.482-6.935-13.421-4.46l-101.28,50.753
			c-10.376,5.199-22.902,1.739-29.138-8.05c-3.394-5.328-4.395-11.63-2.819-17.747c1.575-6.117,5.496-11.152,11.04-14.178
			l136.153-74.313c16.81-9.175,35.816-14.024,54.967-14.024H341c5.522,0,10-4.477,10-10C351,14.562,346.522,10.085,341,10.085z"/>
	</g>
</g>
<g>
	<g>
		<path d="M481.474,126.897c-3.731-4.074-10.055-4.352-14.129-0.622l-0.087,0.08c-4.072,3.73-4.351,10.055-0.621,14.128
			c1.973,2.154,4.671,3.247,7.378,3.247c2.412,0,4.831-0.868,6.751-2.625l0.087-0.08
			C484.925,137.295,485.204,130.97,481.474,126.897z"/>
	</g>
</g>
<g>
	<g>
		<path d="M283.69,197.96c-9.943,0-19.639,3.191-27.689,8.957c-8.051-5.766-17.746-8.957-27.689-8.957
			c-26.532,0-48.117,22.025-48.117,49.097c-0.002,15.801,11.895,33.748,36.368,54.865c16.818,14.511,33.391,25.046,34.088,25.487
			c1.633,1.034,3.491,1.551,5.349,1.551c1.858,0,3.716-0.517,5.349-1.551c0.697-0.441,17.27-10.977,34.088-25.487
			c24.474-21.117,36.37-39.063,36.37-54.865C331.807,219.985,310.222,197.96,283.69,197.96z M255.998,307.014
			c-24.775-16.671-55.804-44.062-55.804-59.957c-0.001-16.044,12.613-29.097,28.117-29.097c7.755,0,14.979,3.2,20.34,9.012
			c1.894,2.052,4.558,3.219,7.35,3.219c2.792,0,5.456-1.167,7.35-3.219c5.361-5.812,12.585-9.012,20.34-9.012
			c15.504,0,28.117,13.053,28.117,29.097C311.808,262.921,280.773,290.326,255.998,307.014z"/>
	</g>
</g>
<g>
</g>
<g>
</g>
<g>
</g>
<g>
</g>
<g>
</g>
<g>
</g>
<g>
</g>
<g>
</g>
<g>
</g>
<g>
</g>
<g>
</g>
<g>
</g>
<g>
</g>
<g>
</g>
<g>
</g>
</svg>
