<?xml version="1.0" encoding="iso-8859-1"?>
<!-- Generator: Adobe Illustrator 19.0.0, SVG Export Plug-In . SVG Version: 6.00 Build 0)  -->
<svg version="1.1" id="Capa_1" xmlns="http://www.w3.org/2000/svg" xmlns:xlink="http://www.w3.org/1999/xlink" x="0px" y="0px"
	 viewBox="0 0 511.999 511.999" style="enable-background:new 0 0 511.999 511.999;" xml:space="preserve">
<g>
	<g>
		<path d="M487.25,146.12c-2.367-4.986-8.332-7.108-13.319-4.74c-4.986,2.369-7.109,8.332-4.739,13.32
			c30.847,64.937,30.14,142.113-1.892,206.448c-2.46,4.942-0.449,10.943,4.494,13.405c1.432,0.713,2.951,1.051,4.448,1.051
			c3.673,0,7.209-2.032,8.957-5.543c17.15-34.448,26.399-73.102,26.744-111.783C512.287,219.632,503.747,180.849,487.25,146.12z"/>
	</g>
</g>
<g>
	<g>
		<path d="M40.637,136.623c-4.931-2.478-10.94-0.489-13.421,4.445C9.864,175.605,0.474,214.395,0.062,253.247
			c-0.412,38.806,8.13,77.751,24.703,112.625c1.711,3.602,5.297,5.708,9.036,5.708c1.438-0.001,2.898-0.313,4.284-0.972
			c4.986-2.369,7.108-8.333,4.738-13.32c-31.007-65.246-30.162-142.72,2.259-207.245C47.56,145.111,45.571,139.102,40.637,136.623z"
			/>
	</g>
</g>
<g>
	<g>
		<path d="M162.152,28.309c-2.323-5.008-8.264-7.185-13.275-4.862l-0.244,0.113c-5.008,2.323-7.186,8.267-4.861,13.276
			c1.691,3.648,5.302,5.793,9.075,5.793c1.408,0,2.839-0.299,4.2-0.931l0.244-0.113C162.298,39.261,164.476,33.317,162.152,28.309z"
			/>
	</g>
</g>
<g>
	<g>
		<path d="M365.627,24.618C309.877-1.796,246.36-7.158,186.778,9.519c-5.316,1.489-8.42,7.005-6.933,12.322
			c1.487,5.317,7.008,8.42,12.322,6.932c54.942-15.378,113.505-10.437,164.9,13.914c1.383,0.655,2.839,0.965,4.273,0.965
			c3.743,0,7.332-2.112,9.041-5.719C372.744,32.943,370.616,26.982,365.627,24.618z"/>
	</g>
</g>
<g>
	<g>
		<path d="M368.302,475.182c-2.28-5.028-8.206-7.257-13.233-4.976l-0.125,0.057c-5.028,2.28-7.257,8.205-4.976,13.233
			c1.673,3.689,5.307,5.871,9.11,5.871c1.381,0,2.784-0.288,4.123-0.895c0.005-0.002,0.122-0.056,0.127-0.058
			C368.354,486.133,370.581,480.209,368.302,475.182z"/>
	</g>
</g>
<g>
	<g>
		<path d="M336.145,488.784c-1.579-5.29-7.144-8.298-12.439-6.72c-56.695,16.923-117.18,12.121-170.306-13.527
			c-4.971-2.397-10.948-0.315-13.35,4.657c-2.399,4.972-0.315,10.948,4.656,13.349c35.009,16.899,72.955,25.456,111.138,25.456
			c24.672,0,49.444-3.574,73.58-10.777C334.716,499.642,337.725,494.074,336.145,488.784z"/>
	</g>
</g>
<g>
	<g>
		<path d="M255.999,94.032c-89.298,0-161.947,72.649-161.947,161.947s72.649,161.947,161.947,161.947
			s161.947-72.649,161.947-161.947S345.297,94.032,255.999,94.032z M180.371,135.903c-5.643,8.95-9.745,18.965-11.922,29.671
			c-5.76-1.266-11.322-3.261-16.582-5.958C160.279,150.532,169.86,142.546,180.371,135.903z M139.161,175.458
			c8.574,4.908,17.835,8.333,27.498,10.164v60.36h-52.257C116.225,219.92,125.114,195.778,139.161,175.458z M138.691,335.823
			c-13.777-20.178-22.487-44.075-24.288-69.847h52.256v57.151C156.698,325.596,147.253,329.867,138.691,335.823z M151.119,351.539
			c5.232-3.495,10.879-6.182,16.802-8.016c1.997,11.784,6.309,22.79,12.451,32.532C169.549,369.214,159.708,360.958,151.119,351.539
			z M246.002,397.164c-29.558-4.288-53.122-27.284-58.279-56.555h58.279V397.164z M246.002,320.615h-58.753
			c-0.2,0-0.398,0.01-0.598,0.011v-54.65h59.351V320.615z M246.002,245.982h-59.351v-58.786h59.351V245.982z M246.002,167.203
			h-57.419c6.559-27.278,29.27-48.326,57.419-52.41V167.203z M372.838,175.459c14.046,20.319,22.935,44.461,24.758,70.523H345.34
			v-60.359C355.003,183.792,364.265,180.368,372.838,175.459z M360.133,159.617c-5.259,2.697-10.822,4.692-16.584,5.958
			c-2.177-10.706-6.28-20.721-11.922-29.672C342.139,142.547,351.72,150.533,360.133,159.617z M265.995,114.794
			c28.148,4.083,50.86,25.132,57.419,52.41h-57.419V114.794z M265.995,397.164v-56.555h58.279
			C319.117,369.88,295.554,392.876,265.995,397.164z M325.346,320.627c-0.2-0.002-0.399-0.012-0.6-0.012h-58.751v-54.639h59.351
			V320.627z M325.346,245.982h-59.351v-58.786h59.351V245.982z M331.627,376.055c6.142-9.743,10.454-20.747,12.451-32.531
			c5.921,1.835,11.568,4.522,16.799,8.017C352.288,360.959,342.448,369.215,331.627,376.055z M373.306,335.824
			c-8.562-5.955-18.007-10.227-27.967-12.696v-57.152h52.256C395.794,291.748,387.085,315.646,373.306,335.824z"/>
	</g>
</g>
<g>
	<g>
		<path d="M82.083,28.079c-29.765,0-53.982,24.216-53.982,53.982c0,29.766,24.216,53.982,53.982,53.982
			c29.765,0,53.982-24.216,53.982-53.982C136.065,52.295,111.848,28.079,82.083,28.079z M82.083,116.05
			c-18.742,0-33.989-15.247-33.989-33.989c0-18.742,15.247-33.989,33.989-33.989c18.742,0,33.989,15.247,33.989,33.989
			C116.072,100.803,100.825,116.05,82.083,116.05z"/>
	</g>
</g>
<g>
	<g>
		<path d="M82.083,375.914c-29.765,0-53.982,24.216-53.982,53.982s24.217,53.982,53.982,53.982
			c29.765,0,53.982-24.216,53.982-53.982S111.848,375.914,82.083,375.914z M82.083,463.885c-18.742,0-33.989-15.247-33.989-33.989
			c0-18.742,15.247-33.989,33.989-33.989c18.742,0,33.989,15.247,33.989,33.989C116.072,448.638,100.825,463.885,82.083,463.885z"/>
	</g>
</g>
<g>
	<g>
		<path d="M429.916,375.914c-29.765,0-53.982,24.216-53.982,53.982s24.217,53.982,53.982,53.982
			c29.765,0,53.982-24.216,53.982-53.982S459.681,375.914,429.916,375.914z M429.916,463.885c-18.742,0-33.989-15.247-33.989-33.989
			c0-18.742,15.247-33.989,33.989-33.989c18.742,0,33.989,15.247,33.989,33.989C463.905,448.638,448.658,463.885,429.916,463.885z"
			/>
	</g>
</g>
<g>
	<g>
		<path d="M429.916,28.079c-29.765,0-53.982,24.216-53.982,53.982c0,29.766,24.217,53.982,53.982,53.982
			c29.765,0,53.982-24.216,53.982-53.982C483.898,52.295,459.681,28.079,429.916,28.079z M429.916,116.05
			c-18.742,0-33.989-15.247-33.989-33.989c0-18.742,15.247-33.989,33.989-33.989c18.742,0,33.989,15.247,33.989,33.989
			C463.905,100.803,448.658,116.05,429.916,116.05z"/>
	</g>
</g>
<g>
</g>
<g>
</g>
<g>
</g>
<g>
</g>
<g>
</g>
<g>
</g>
<g>
</g>
<g>
</g>
<g>
</g>
<g>
</g>
<g>
</g>
<g>
</g>
<g>
</g>
<g>
</g>
<g>
</g>
</svg>
