<?xml version="1.0" encoding="iso-8859-1"?>
<!-- Generator: Adobe Illustrator 19.0.0, SVG Export Plug-In . SVG Version: 6.00 Build 0)  -->
<svg version="1.1" id="Capa_1" xmlns="http://www.w3.org/2000/svg" xmlns:xlink="http://www.w3.org/1999/xlink" x="0px" y="0px"
	 viewBox="0 0 512 512" style="enable-background:new 0 0 512 512;" xml:space="preserve">
<g>
	<g>
		<path d="M437.838,239.5c-5.522,0-10,4.477-10,10v69.685c0,27.389-10.636,53.168-29.949,72.589l-33.544,33.731
			c-1.863,1.874-2.909,4.409-2.909,7.051V438H212.094v-5.442c0-3.284-1.612-6.358-4.313-8.225l-17.374-12.013
			c-29.622-20.481-53.156-48.636-68.059-81.421l-36.241-79.732c-4.329-9.524-1.205-20.726,7.428-26.635
			c9.273-6.347,21.637-4.581,28.763,4.105l46.598,56.8c4.73,5.766,12.324,7.87,19.348,5.356c7.022-2.512,11.56-8.954,11.56-16.413
			V41.045c0-11.604,9.44-21.045,21.045-21.045s21.045,9.441,21.045,21.045l-0.109,180.367c0,22.632,18.413,41.045,41.045,41.045
			c12.363,0,23.459-5.502,30.99-14.178c7.531,8.676,18.627,14.178,30.99,14.178c22.632,0,41.045-18.413,41.045-41.045l-0.109-126.37
			c0-11.604,9.441-21.045,21.046-21.045c11.605,0,21.045,9.441,21.045,21.045v80.46c-0.001,5.523,4.476,10,9.999,10
			c5.522,0,10-4.477,10-10V95.043c0-22.632-18.413-41.045-41.045-41.045c-22.633,0-41.046,18.413-41.046,41.045v51.898
			c-6.134-3.653-13.292-5.76-20.936-5.76c-12.363,0-23.459,5.502-30.99,14.178c-7.531-8.676-18.627-14.178-30.99-14.178
			c-7.644,0-14.801,2.106-20.936,5.76V41.045C261.893,18.413,243.48,0,220.848,0s-41.045,18.413-41.045,41.045v226.152
			l-42.042-51.248c-13.755-16.768-37.625-20.177-55.522-7.924c-16.665,11.407-22.695,33.03-14.338,51.415l36.241,79.733
			c16.398,36.076,42.296,67.058,74.891,89.597l13.062,9.03v1.368c-8.546,2.925-14.71,11.032-14.71,20.557V502
			c0,5.523,4.478,10,10,10h200.001c5.522,0,10-4.477,10-10v-42.274c0-9.98-6.767-18.404-15.951-20.94v-2.101l30.635-30.806
			c23.065-23.194,35.768-53.982,35.768-86.692V249.5C447.838,243.977,443.36,239.5,437.838,239.5z M323.838,180.787
			c0.745-10.933,9.853-19.606,20.972-19.606c11.604,0,21.045,9.441,21.045,21.045v39.186c0,11.604-9.44,21.045-21.045,21.045
			c-11.119,0-20.227-8.674-20.972-19.606c0.017-0.478,0.037-0.956,0.037-1.439C323.875,221.412,323.855,181.266,323.838,180.787z
			 M261.784,182.226c0-11.604,9.44-21.045,21.045-21.045c11.119,0,20.227,8.674,20.972,19.606
			c-0.017,0.478-0.037,40.625-0.037,40.625c0,0.482,0.02,0.96,0.037,1.439c-0.745,10.932-9.853,19.606-20.972,19.606
			c-11.604,0-21.045-9.441-21.045-21.045V182.226z M377.386,492h-0.001H197.384v-32.274c0-0.952,0.774-1.726,1.726-1.726h176.55
			c0.951,0,1.726,0.774,1.726,1.726V492z"/>
	</g>
</g>
<g>
	<g>
		<path d="M276.947,347.625l-0.492-2.411c-5.212-25.512-27.895-44.028-53.935-44.028c-5.522,0-10,4.477-10,10
			c0,5.523,4.478,10,10,10c16.579,0,31.021,11.789,34.34,28.033l0.493,2.412c0.968,4.735,5.135,7.999,9.786,7.999
			c0.664,0,1.338-0.066,2.014-0.205C274.564,358.319,278.053,353.035,276.947,347.625z"/>
	</g>
</g>
<g>
	<g>
		<path d="M444.907,205.93c-1.859-1.86-4.439-2.93-7.069-2.93s-5.21,1.07-7.07,2.93c-1.861,1.86-2.93,4.44-2.93,7.07
			s1.07,5.21,2.93,7.07c1.86,1.86,4.44,2.93,7.07,2.93c2.629,0,5.21-1.071,7.069-2.93c1.861-1.86,2.931-4.44,2.931-7.07
			S446.767,207.79,444.907,205.93z"/>
	</g>
</g>
<g>
</g>
<g>
</g>
<g>
</g>
<g>
</g>
<g>
</g>
<g>
</g>
<g>
</g>
<g>
</g>
<g>
</g>
<g>
</g>
<g>
</g>
<g>
</g>
<g>
</g>
<g>
</g>
<g>
</g>
</svg>
