<?xml version="1.0" encoding="iso-8859-1"?>
<!-- Generator: Adobe Illustrator 19.0.0, SVG Export Plug-In . SVG Version: 6.00 Build 0)  -->
<svg version="1.1" id="Capa_1" xmlns="http://www.w3.org/2000/svg" xmlns:xlink="http://www.w3.org/1999/xlink" x="0px" y="0px"
	 viewBox="0 0 512 512" style="enable-background:new 0 0 512 512;" xml:space="preserve">
<g>
	<g>
		<path d="M141.073,464.247c-1.859-1.86-4.439-2.93-7.069-2.93c-2.63,0-5.21,1.07-7.07,2.93s-2.93,4.44-2.93,7.07
			c0,2.63,1.069,5.21,2.93,7.07c1.861,1.86,4.44,2.93,7.07,2.93c2.63,0,5.21-1.07,7.069-2.93c1.86-1.86,2.931-4.44,2.931-7.07
			C144.005,468.687,142.934,466.107,141.073,464.247z"/>
	</g>
</g>
<g>
	<g>
		<path d="M505.039,322.137c-12.305-19.318-37.023-26.149-57.503-15.888l-107.382,53.812c-4.938,2.475-6.935,8.483-4.46,13.42
			c2.475,4.937,8.479,6.934,13.421,4.46l107.382-53.812c11.277-5.652,24.896-1.89,31.672,8.75
			c3.688,5.791,4.776,12.641,3.064,19.291c-1.712,6.649-5.974,12.121-12,15.411l-144.357,78.79
			c-17.911,9.775-38.162,14.943-58.567,14.943H172.005c-5.522,0-10,4.477-10,10c0,5.523,4.478,10,10,10h104.305
			c23.743,0,47.31-6.012,68.149-17.388l144.357-78.79c10.782-5.885,18.724-16.084,21.787-27.98
			C513.666,345.264,511.638,332.499,505.039,322.137z"/>
	</g>
</g>
<g>
	<g>
		<path d="M298.389,361.305l-44.311-35.104c-22.853-18.105-51.494-28.075-80.648-28.075h-76.56v-0.602c0-5.523-4.478-10-10-10H10
			c-5.522,0-10,4.477-10,10s4.478,10,10,10h66.868v164.483H10c-5.522,0-10,4.477-10,10c0,5.523,4.478,10,10,10h76.868
			c5.522,0,10-4.477,10-10V318.126h76.56c24.665,0,48.897,8.435,68.229,23.751l44.31,35.104c5.387,4.267,8.024,10.876,7.057,17.681
			c-0.969,6.804-5.346,12.415-11.708,15.011c-5.868,2.392-12.521,1.729-17.801-1.776l-56.608-37.595
			c-4.599-3.056-10.808-1.803-13.862,2.798c-3.056,4.601-1.803,10.807,2.798,13.862l56.608,37.595
			c6.514,4.325,14.048,6.536,21.639,6.536c4.995,0,10.016-0.958,14.779-2.902c13.02-5.31,21.976-16.792,23.957-30.712
			C314.808,383.559,309.411,370.036,298.389,361.305z"/>
	</g>
</g>
<g>
	<g>
		<path d="M51.119,339.481c-3.739-4.063-10.064-4.327-14.13-0.587l-0.092,0.084c-4.063,3.74-4.327,10.066-0.587,14.13
			c1.972,2.143,4.662,3.229,7.361,3.229c2.421-0.001,4.848-0.874,6.769-2.642l0.092-0.084
			C54.595,349.871,54.859,343.545,51.119,339.481z"/>
	</g>
</g>
<g>
	<g>
		<path d="M448.58,95.819c4.482-6.644,7.101-14.642,7.101-23.242V61.66c0-22.976-18.692-41.668-41.668-41.668
			c-22.977,0-41.668,18.692-41.668,41.668v10.916c0,8.599,2.619,16.599,7.101,23.242c-14.677,3.451-27.26,12.39-35.435,24.543
			c-8.175-12.152-20.758-21.092-35.435-24.543c4.482-6.644,7.101-14.642,7.101-23.242V61.66c0-22.976-18.692-41.668-41.668-41.668
			c-22.977,0-41.668,18.692-41.668,41.668v10.916c0,8.599,2.619,16.599,7.101,23.242c-14.677,3.451-27.26,12.39-35.435,24.543
			c-8.175-12.152-20.758-21.092-35.435-24.543c4.482-6.644,7.101-14.642,7.101-23.242V61.66c0-22.976-18.692-41.668-41.668-41.668
			S92.336,38.685,92.336,61.66v10.916c0,8.599,2.619,16.599,7.101,23.242c-26.009,6.115-45.435,29.496-45.435,57.344v82.837
			c0,5.524,4.478,10.001,10,10.001h420.013c5.522,0,10-4.477,10-10v-82.837C494.015,125.315,474.589,101.935,448.58,95.819z
			 M112.336,61.66c0-11.947,9.72-21.668,21.668-21.668c11.947,0,21.668,9.72,21.668,21.668v10.916
			c0,11.947-9.72,21.668-21.668,21.668c-11.947,0-21.668-9.72-21.668-21.668V61.66z M194.006,225.998H74.002v-72.836
			c0-21.46,17.459-38.918,38.918-38.918h11.083v36.934c0,5.523,4.478,10,10,10c5.522,0,10-4.477,10-10v-36.934h11.083
			c21.46,0,38.918,17.458,38.918,38.918V225.998z M252.341,61.66c0-11.947,9.72-21.668,21.668-21.668s21.668,9.72,21.668,21.668
			v10.916c0,11.947-9.72,21.668-21.668,21.668c-11.947,0-21.668-9.72-21.668-21.668V61.66z M334.01,225.998H214.007v-72.836
			c0-21.46,17.458-38.918,38.918-38.918h11.083v36.934c0,5.523,4.478,10,10,10c5.522,0,10-4.477,10-10v-36.934h11.083
			c21.46,0,38.918,17.458,38.918,38.918V225.998z M392.345,61.66c0-11.947,9.72-21.668,21.668-21.668
			c11.947,0,21.668,9.72,21.668,21.668v10.916c0,11.947-9.72,21.668-21.668,21.668c-11.947,0-21.668-9.72-21.668-21.668V61.66z
			 M474.015,225.998H354.011v-72.836c0-21.46,17.459-38.918,38.918-38.918h11.083v36.934c0,5.523,4.478,10,10,10s10-4.477,10-10
			v-36.934h11.083c21.46,0,38.918,17.458,38.918,38.918V225.998z"/>
	</g>
</g>
<g>
</g>
<g>
</g>
<g>
</g>
<g>
</g>
<g>
</g>
<g>
</g>
<g>
</g>
<g>
</g>
<g>
</g>
<g>
</g>
<g>
</g>
<g>
</g>
<g>
</g>
<g>
</g>
<g>
</g>
</svg>
