<?xml version="1.0" encoding="iso-8859-1"?>
<!-- Generator: Adobe Illustrator 19.0.0, SVG Export Plug-In . SVG Version: 6.00 Build 0)  -->
<svg version="1.1" id="Capa_1" xmlns="http://www.w3.org/2000/svg" xmlns:xlink="http://www.w3.org/1999/xlink" x="0px" y="0px"
	 viewBox="0 0 512 512" style="enable-background:new 0 0 512 512;" xml:space="preserve">
<g>
	<g>
		<path d="M160.668,378.692l-31.489-31.491c-30.557-30.556-47.351-71.184-47.29-114.398l0.049-34.527
			c0.004-2.657-1.05-5.207-2.929-7.085l-53.3-53.301c-3.905-3.905-10.237-3.905-14.144,0c-3.905,3.905-3.905,10.237,0,14.144
			l50.366,50.366l-0.043,30.377c-0.034,23.995,4.596,47.405,13.763,69.581c9.167,22.175,22.418,42.022,39.385,58.988l31.49,31.49
			c1.953,1.953,4.512,2.929,7.071,2.929c2.559,0,5.119-0.976,7.071-2.929C164.574,388.931,164.574,382.598,160.668,378.692z"/>
	</g>
</g>
<g>
	<g>
		<path d="M190.899,408.926c-1.86-1.87-4.44-2.93-7.07-2.93c-2.63,0-5.21,1.06-7.07,2.93c-1.86,1.86-2.93,4.43-2.93,7.07
			c0,2.63,1.07,5.21,2.93,7.07c1.86,1.86,4.44,2.93,7.07,2.93c2.63,0,5.21-1.07,7.07-2.93c1.86-1.86,2.93-4.44,2.93-7.07
			C193.829,413.357,192.759,410.787,190.899,408.926z"/>
	</g>
</g>
<g>
	<g>
		<path d="M490.208,312.877l-98.844-98.843c20.505,12.224,47.201,6.523,60.914-13.062c7.111-10.155,9.774-22.461,7.498-34.647
			c-2.276-12.188-9.2-22.702-19.498-29.607l-78.653-52.745c-30.002-20.119-64.938-30.747-101.055-30.747c-0.086,0-0.178,0-0.264,0
			l-49.272,0.07L160.668,2.929c-3.905-3.905-10.237-3.905-14.144,0c-3.905,3.905-3.905,10.237,0,14.144l53.301,53.3
			c1.875,1.876,4.419,2.929,7.071,2.929c0.004,0,0.009,0,0.014,0l53.422-0.076c0.079,0,0.156,0,0.235,0
			c32.134,0,63.223,9.458,89.917,27.358l78.654,52.743c5.796,3.887,9.694,9.806,10.975,16.668
			c1.281,6.861-0.218,13.788-4.221,19.505c-7.757,11.079-22.894,14.265-34.457,7.253l-33.998-20.61
			c-6.656-4.035-14.977-2.52-19.782,3.605c-4.805,6.125-4.297,14.567,1.208,20.073l127.198,127.198
			c9.744,9.743,9.744,25.598,0,35.341c-9.152,9.152-23.694,9.706-33.5,1.667l-75.87-75.695c-3.905-3.904-10.237-3.904-14.144,0
			c-3.905,3.905-3.905,10.237,0,14.144l74.029,74.029c0.752,0.752,1.53,1.459,2.321,2.146l21.134,21.134
			c9.744,9.743,9.744,25.598,0,35.341c-4.72,4.72-10.995,7.319-17.671,7.319s-12.951-2.599-17.671-7.319l-21.12-21.12
			c-0.694-0.797-1.407-1.581-2.161-2.335l-74.116-73.941c-3.905-3.905-10.237-3.905-14.144,0c-3.905,3.905-3.905,10.237,0,14.144
			l75.799,75.799c3.651,4.451,5.636,9.979,5.636,15.813c0,6.675-2.6,12.951-7.32,17.671c-4.72,4.72-10.995,7.319-17.671,7.319
			s-12.951-2.6-17.671-7.32l-23.619-23.619c-0.687-0.79-1.395-1.569-2.147-2.321l-39.373-39.373c-0.36-0.36-0.746-0.675-1.144-0.969
			l-7.747-7.746c-3.905-3.905-10.237-3.905-14.144,0c-3.905,3.905-3.905,10.237,0,14.143l49.943,49.943
			c3.652,4.452,5.638,9.981,5.638,15.816c0,6.675-2.599,12.951-7.319,17.671c-9.744,9.745-25.599,9.744-35.341,0l-50.641-50.641
			c-3.905-3.905-10.237-3.905-14.144,0c-3.905,3.905-3.905,10.237,0,14.144l50.641,50.641C261.298,507.615,272.82,512,284.341,512
			c11.521,0,23.043-4.385,31.814-13.157c6.503-6.503,10.589-14.521,12.271-22.927c8.421,8.1,19.448,12.562,31.165,12.562
			c12.018,0,23.316-4.68,31.813-13.178c6.412-6.412,10.647-14.419,12.342-23.126c8.277,6.831,18.443,10.252,28.61,10.252
			c11.521,0,23.043-4.385,31.814-13.157c16.519-16.519,17.477-42.79,2.885-60.448c8.486-1.654,16.585-5.758,23.145-12.318
			C507.75,358.962,507.75,330.419,490.208,312.877z"/>
	</g>
</g>
<g>
	<g>
		<path d="M205.959,206.208c-1.86-1.86-4.43-2.92-7.07-2.92c-2.63,0-5.21,1.06-7.07,2.92c-1.86,1.86-2.93,4.44-2.93,7.08
			c0,2.63,1.07,5.21,2.93,7.07c1.86,1.86,4.44,2.93,7.07,2.93c2.63,0,5.21-1.07,7.07-2.93c1.86-1.86,2.93-4.44,2.93-7.07
			C208.889,210.648,207.819,208.068,205.959,206.208z"/>
	</g>
</g>
<g>
	<g>
		<path d="M259.501,206.208c-1.86-1.86-4.44-2.92-7.07-2.92c-2.63,0-5.21,1.06-7.07,2.92c-1.86,1.87-2.93,4.44-2.93,7.08
			c0,2.63,1.07,5.2,2.93,7.07c1.86,1.86,4.44,2.93,7.07,2.93s5.21-1.07,7.07-2.93c1.86-1.87,2.93-4.44,2.93-7.07
			C262.431,210.648,261.361,208.078,259.501,206.208z"/>
	</g>
</g>
<g>
	<g>
		<path d="M249.425,243.627c-3.905-3.905-10.237-3.905-14.143,0c-2.569,2.57-5.986,3.985-9.62,3.985s-7.051-1.415-9.62-3.985
			c-3.905-3.906-10.237-3.904-14.143,0c-3.907,3.905-3.908,10.236-0.002,14.143c6.347,6.348,14.787,9.843,23.764,9.843
			c8.977,0,17.417-3.496,23.764-9.843C253.33,253.864,253.33,247.532,249.425,243.627z"/>
	</g>
</g>
<g>
	<g>
		<path d="M225.66,138.113c-49.628,0-90.004,40.376-90.004,90.004s40.376,90.004,90.004,90.004s90.004-40.376,90.004-90.004
			S275.288,138.113,225.66,138.113z M225.66,298.12c-38.6,0-70.003-31.403-70.003-70.003c0-38.6,31.403-70.003,70.003-70.003
			c38.6,0,70.003,31.403,70.003,70.003C295.663,266.717,264.26,298.12,225.66,298.12z"/>
	</g>
</g>
<g>
</g>
<g>
</g>
<g>
</g>
<g>
</g>
<g>
</g>
<g>
</g>
<g>
</g>
<g>
</g>
<g>
</g>
<g>
</g>
<g>
</g>
<g>
</g>
<g>
</g>
<g>
</g>
<g>
</g>
</svg>
