<?xml version="1.0" encoding="iso-8859-1"?>
<!-- Generator: Adobe Illustrator 19.0.0, SVG Export Plug-In . SVG Version: 6.00 Build 0)  -->
<svg version="1.1" id="Capa_1" xmlns="http://www.w3.org/2000/svg" xmlns:xlink="http://www.w3.org/1999/xlink" x="0px" y="0px"
	 viewBox="0 0 512 512" style="enable-background:new 0 0 512 512;" xml:space="preserve">
<g>
	<g>
		<path d="M99.085,494.93c-1.86-1.86-4.44-2.93-7.07-2.93s-5.21,1.07-7.07,2.93s-2.93,4.44-2.93,7.07s1.07,5.21,2.93,7.07
			c1.86,1.86,4.44,2.93,7.07,2.93s5.21-1.07,7.07-2.93c1.86-1.86,2.93-4.44,2.93-7.07S100.945,496.79,99.085,494.93z"/>
	</g>
</g>
<g>
	<g>
		<path d="M337.985,54c-29.143,0-55.161,13.624-72.029,34.833C264.28,39.565,223.685,0,174.016,0c-50.729,0-92,41.271-92,92v371.085
			c0,5.523,4.477,10,10,10s10-4.477,10-10V267.904l21.933,21.933v23.416c0,5.523,4.477,10,10,10c5.523,0,10-4.477,10-10v-3.416
			l7.798,7.798c1.953,1.953,4.512,2.929,7.071,2.929c2.559,0,5.119-0.976,7.071-2.929c3.905-3.905,3.905-10.237,0-14.143
			l-7.798-7.798h5.06c5.523,0,10-4.477,10-10s-4.477-10-10-10h-25.06l-36.076-36.076V92c0-39.701,32.299-72,72-72s72,32.299,72,72
			v51.599c-0.021,0.798-0.031,1.598-0.031,2.401v315.917c0,0.209,0.019,0.413,0.031,0.619V502c0,5.523,4.477,10,10,10
			s10-4.477,10-10V144.768C266.679,105.635,298.698,74,337.985,74c39.701,0,72,32.299,72,72v137.857l-35.273,35.273h-25.061
			c-5.523,0-10,4.477-10,10s4.477,10,10,10h5.061l-7.798,7.798c-3.905,3.905-3.905,10.237,0,14.143
			c1.953,1.953,4.512,2.929,7.071,2.929s5.119-0.976,7.071-2.929l7.798-7.798v3.415c0,5.523,4.477,10,10,10s10-4.477,10-10v-23.415
			l21.13-21.13V371c0,5.523,4.477,10,10,10s10-4.477,10-10V146C429.985,95.271,388.714,54,337.985,54z"/>
	</g>
</g>
<g>
	<g>
		<path d="M427.055,403.93c-1.86-1.86-4.44-2.93-7.07-2.93s-5.21,1.07-7.07,2.93c-1.86,1.86-2.93,4.44-2.93,7.07
			s1.07,5.21,2.93,7.07c1.86,1.86,4.44,2.93,7.07,2.93s5.21-1.07,7.07-2.93c1.86-1.86,2.93-4.44,2.93-7.07
			S428.915,405.79,427.055,403.93z"/>
	</g>
</g>
<g>
	<g>
		<path d="M419.985,440.931c-5.523,0-10,4.477-10,10V502c0,5.523,4.477,10,10,10s10-4.477,10-10v-51.069
			C429.985,445.408,425.508,440.931,419.985,440.931z"/>
	</g>
</g>
<g>
	<g>
		<path d="M149.035,98.77c-1.86-1.87-4.44-2.93-7.07-2.93s-5.21,1.06-7.07,2.93c-1.86,1.86-2.93,4.43-2.93,7.07
			c0,2.63,1.07,5.21,2.93,7.07c1.86,1.86,4.44,2.93,7.07,2.93s5.21-1.07,7.07-2.93c1.86-1.86,2.93-4.44,2.93-7.07
			C151.965,103.21,150.895,100.63,149.035,98.77z"/>
	</g>
</g>
<g>
	<g>
		<path d="M213.245,98.77c-1.86-1.87-4.44-2.93-7.07-2.93s-5.21,1.06-7.07,2.93c-1.86,1.86-2.93,4.43-2.93,7.07
			c0,2.63,1.07,5.21,2.93,7.07c1.86,1.86,4.44,2.93,7.07,2.93s5.21-1.07,7.07-2.93c1.86-1.86,2.93-4.44,2.93-7.07
			C216.175,103.2,215.105,100.63,213.245,98.77z"/>
	</g>
</g>
<g>
	<g>
		<path d="M201.159,143.637c-3.903-3.905-10.235-3.905-14.141,0c-7.139,7.14-18.757,7.14-25.896,0
			c-3.905-3.904-10.237-3.904-14.143,0c-3.905,3.905-3.905,10.237,0,14.143c7.469,7.469,17.28,11.203,27.09,11.203
			s19.622-3.734,27.09-11.203C205.064,153.875,205.064,147.543,201.159,143.637z"/>
	</g>
</g>
<g>
	<g>
		<path d="M369.264,194.333h-62.667c-5.523,0-10,4.477-10,10c0,22.791,18.542,41.333,41.333,41.333s41.334-18.541,41.334-41.333
			C379.264,198.81,374.787,194.333,369.264,194.333z M337.931,225.667c-8.152,0-15.251-4.596-18.841-11.333h37.683
			C353.182,221.07,346.083,225.667,337.931,225.667z"/>
	</g>
</g>
<g>
	<g>
		<path d="M324.681,154.37c-10.397-10.396-27.315-10.396-37.713,0c-3.905,3.905-3.905,10.237,0,14.143
			c3.905,3.905,10.237,3.905,14.143,0c1.259-1.26,2.933-1.953,4.714-1.953s3.455,0.693,4.714,1.953
			c1.953,1.953,4.512,2.929,7.071,2.929s5.119-0.976,7.071-2.929C328.586,164.608,328.586,158.276,324.681,154.37z"/>
	</g>
</g>
<g>
	<g>
		<path d="M388.121,154.369c-10.397-10.396-27.315-10.396-37.713,0c-3.905,3.905-3.905,10.237,0,14.143
			c3.905,3.905,10.237,3.905,14.143,0c1.259-1.259,2.933-1.953,4.714-1.953c1.781,0,3.455,0.693,4.714,1.953
			c1.953,1.953,4.512,2.929,7.071,2.929s5.119-0.976,7.071-2.929C392.026,164.607,392.026,158.275,388.121,154.369z"/>
	</g>
</g>
<g>
</g>
<g>
</g>
<g>
</g>
<g>
</g>
<g>
</g>
<g>
</g>
<g>
</g>
<g>
</g>
<g>
</g>
<g>
</g>
<g>
</g>
<g>
</g>
<g>
</g>
<g>
</g>
<g>
</g>
</svg>
