<?xml version="1.0" encoding="iso-8859-1"?>
<!-- Generator: Adobe Illustrator 19.0.0, SVG Export Plug-In . SVG Version: 6.00 Build 0)  -->
<svg version="1.1" id="Capa_1" xmlns="http://www.w3.org/2000/svg" xmlns:xlink="http://www.w3.org/1999/xlink" x="0px" y="0px"
	 viewBox="0 0 511.999 511.999" style="enable-background:new 0 0 511.999 511.999;" xml:space="preserve">
<g>
	<g>
		<path d="M470.668,3.619c-3.905-3.905-10.237-3.905-14.143,0l-36.638,36.638c-3.905,3.905-3.905,10.237,0,14.143
			c1.954,1.953,4.513,2.929,7.072,2.929c2.559,0,5.119-0.976,7.071-2.929l36.638-36.638C474.573,13.857,474.573,7.525,470.668,3.619
			z"/>
	</g>
</g>
<g>
	<g>
		<path d="M408.12,66.167c-1.86-1.86-4.44-2.93-7.07-2.93s-5.21,1.07-7.07,2.93c-1.86,1.86-2.93,4.44-2.93,7.07
			c0,2.64,1.07,5.21,2.93,7.07c1.86,1.86,4.44,2.93,7.07,2.93c2.63,0,5.21-1.07,7.07-2.93s2.93-4.44,2.93-7.07
			S409.98,68.027,408.12,66.167z"/>
	</g>
</g>
<g>
	<g>
		<path d="M509.071,162.884c-3.905-3.905-10.237-3.905-14.143,0l-58.52,58.52c-1.878,1.879-2.933,4.428-2.929,7.085l0.055,39.122
			c0.033,23.06-6.738,45.373-19.582,64.525l-38.625,57.6c-2.442,3.643-6.162,6.092-10.474,6.897
			c-4.313,0.806-8.665-0.137-12.257-2.652c-6.962-4.875-8.964-14.386-4.558-21.653l15.092-24.896
			c3.669-6.051,2.291-13.613-3.276-17.98c-5.567-4.366-13.239-3.906-18.244,1.098l-93.149,93.149
			c-6.092,6.092-16.005,6.091-22.096,0c-5.696-5.697-6.063-14.732-1.107-20.861l48.937-48.937c0.306-0.306,0.579-0.631,0.837-0.965
			l5.545-5.545c3.905-3.905,3.905-10.237,0-14.143c-3.905-3.905-10.237-3.905-14.143,0l-54.212,54.213
			c-0.571,0.57-1.109,1.161-1.632,1.759l-15.416,15.416c-6.092,6.093-16.004,6.093-22.096,0c-6.092-6.092-6.092-16.004,0-22.096
			l15.413-15.413c0.6-0.525,1.191-1.064,1.763-1.635l47.766-47.766c0.306-0.306,0.579-0.631,0.837-0.965l5.545-5.545
			c3.905-3.905,3.905-10.237,0-14.143c-3.905-3.904-10.237-3.904-14.143,0l-55.383,55.383c-6.13,4.956-15.165,4.589-20.861-1.107
			c-6.092-6.092-6.092-16.004,0-22.096l17.222-17.222c0.605-0.53,1.201-1.073,1.775-1.647l28.833-28.833
			c0.306-0.307,0.58-0.632,0.839-0.966l5.544-5.544c3.905-3.905,3.905-10.237,0-14.143c-3.905-3.905-10.237-3.905-14.143,0
			l-36.448,36.449c-2.771,2.247-6.198,3.471-9.815,3.471c-4.173,0-8.097-1.625-11.048-4.577c-2.951-2.951-4.576-6.875-4.576-11.048
			c0-4.173,1.625-8.097,4.577-11.048l67.295-67.295c0,0,0,0,0-0.001l33.396-33.396c21.831-21.831,50.842-33.847,81.708-33.847
			c0.057,0,0.114,0,0.171,0l25.285,0.036c2.657,0.003,5.207-1.05,7.085-2.929l29.979-29.98c3.905-3.905,3.905-10.237,0-14.142
			c-3.905-3.905-10.237-3.905-14.142,0l-27.044,27.045l-21.135-0.03c-0.068,0-0.131,0-0.2,0c-31.698,0-61.732,10.806-85.904,30.68
			c-4.608-0.446-9.26-0.682-13.877-0.682c-0.064,0-0.128,0-0.191,0l-37.509,0.054L35.186,3.149c-3.905-3.904-10.237-3.904-14.143,0
			c-3.905,3.905-3.905,10.237,0,14.143l149.443,149.443c1.876,1.875,4.419,2.929,7.071,2.929c0.005,0,0.01,0,0.014,0l35.451-0.051
			l-50.274,50.273c-0.002,0.002-0.003,0.003-0.005,0.005l-40.112,40.112c-6.729,6.729-10.434,15.675-10.434,25.19
			c0,9.516,3.706,18.462,10.434,25.19c3.97,3.97,8.716,6.878,13.891,8.603c-10.425,13.942-9.313,33.842,3.351,46.505
			c4.159,4.159,9.101,7.062,14.354,8.73c-8.941,13.798-7.376,32.473,4.708,44.557c6.945,6.945,16.068,10.417,25.19,10.417
			c6.75,0,13.498-1.907,19.366-5.709c1.668,5.253,4.572,10.195,8.73,14.354c6.585,6.584,15.127,10.042,23.771,10.383l15.393,15.393
			c5.5,6.782,5.098,16.792-1.211,23.1c-3.265,3.265-7.605,5.063-12.223,5.063c-4.618,0-8.958-1.798-12.223-5.063l-71.66-71.66
			c-0.002-0.002-0.005-0.004-0.007-0.007l-35.556-35.555c-23.412-23.413-36.279-54.54-36.232-87.649l0.039-26.925
			c0.004-2.657-1.05-5.207-2.929-7.085L42.79,221.242c-3.905-3.905-10.237-3.905-14.143,0c-3.905,3.905-3.905,10.237,0,14.143
			l33.658,33.658l-0.033,22.774c-0.055,38.461,14.893,74.622,42.089,101.819l35.563,35.562l71.66,71.659
			c7.042,7.043,16.406,10.921,26.366,10.921c9.959,0,19.323-3.878,26.365-10.921c4.458-4.458,7.543-9.776,9.267-15.423
			c6.547,5.17,14.579,7.984,23.049,7.984c9.96,0,19.323-3.878,26.366-10.921c4.57-4.57,7.701-10.041,9.397-15.846
			c6.305,4.296,13.639,6.452,20.98,6.452c9.547,0,19.097-3.635,26.365-10.903c7.043-7.042,10.921-16.406,10.921-26.365
			c0-9.156-3.286-17.803-9.286-24.611c4.142-2.645,7.736-6.137,10.562-10.35l38.625-57.6c15.066-22.467,23.009-48.641,22.97-75.692
			l-0.049-34.972l55.585-55.585C512.976,173.121,512.976,166.789,509.071,162.884z M308.858,468.356
			c-3.265,3.265-7.605,5.063-12.223,5.063c-4.617,0-8.958-1.798-12.223-5.063l-18.363-18.363c-0.555-0.635-1.125-1.261-1.73-1.866
			l-6.374-6.374c1.634-1.154,3.197-2.452,4.659-3.914l20.023-20.023l27.443,27.443C315.568,452.042,315.165,462.049,308.858,468.356
			z M365.601,448.058c-6.739,6.74-17.707,6.74-24.446,0l-16.429-16.429c-0.553-0.633-1.122-1.258-1.725-1.861l-26.162-26.162
			l29.47-29.47c-2.479,13.554,2.941,27.91,14.818,36.227c5.311,3.719,11.366,5.888,17.645,6.418l6.83,6.831
			c3.265,3.265,5.063,7.605,5.063,12.223C370.665,440.453,368.866,444.793,365.601,448.058z"/>
	</g>
</g>
<g>
	<g>
		<path d="M17.07,195.517c-1.86-1.86-4.44-2.93-7.07-2.93s-5.21,1.07-7.07,2.93c-1.86,1.86-2.93,4.44-2.93,7.07s1.07,5.21,2.93,7.07
			c1.86,1.87,4.44,2.93,7.07,2.93s5.21-1.06,7.07-2.93c1.86-1.86,2.93-4.44,2.93-7.07S18.93,197.377,17.07,195.517z"/>
	</g>
</g>
<g>
</g>
<g>
</g>
<g>
</g>
<g>
</g>
<g>
</g>
<g>
</g>
<g>
</g>
<g>
</g>
<g>
</g>
<g>
</g>
<g>
</g>
<g>
</g>
<g>
</g>
<g>
</g>
<g>
</g>
</svg>
