<?xml version="1.0" encoding="iso-8859-1"?>
<!-- Generator: Adobe Illustrator 19.0.0, SVG Export Plug-In . SVG Version: 6.00 Build 0)  -->
<svg version="1.1" id="Capa_1" xmlns="http://www.w3.org/2000/svg" xmlns:xlink="http://www.w3.org/1999/xlink" x="0px" y="0px"
	 viewBox="0 0 512 512" style="enable-background:new 0 0 512 512;" xml:space="preserve">
<g>
	<g>
		<path d="M482,60.031h-24v-3.405c0-20.178-16.417-36.595-36.595-36.595c-20.178,0-36.594,16.417-36.594,36.595v3.405H317v-3.405
			c0-20.178-16.417-36.595-36.595-36.595c-20.178,0-36.594,16.417-36.594,36.595v3.405H176v-3.405
			c0-20.178-16.417-36.595-36.595-36.595c-20.178,0-36.594,16.417-36.594,36.595v3.405H83.088c-16.542,0-30,13.458-30,30v253.878
			c0,5.523,4.477,10,10,10s10-4.477,10-10V167.031h341.245c5.523,0,10-4.477,10-10s-4.477-10-10-10H73.088v-57
			c0-5.514,4.486-10,10-10H134h22v9.348c0,9.15-7.444,16.595-16.595,16.595c-5.523,0-10,4.477-10,10s4.477,10,10,10
			c20.178,0,36.595-16.417,36.595-36.595v-9.348h121v9.348c0,9.15-7.444,16.595-16.595,16.595c-5.523,0-10,4.477-10,10
			s4.477,10,10,10c20.178,0,36.595-16.417,36.595-36.595v-9.348h121v9.348c0,9.15-7.444,16.595-16.595,16.595
			c-5.523,0-10,4.477-10,10s4.477,10,10,10c20.178,0,36.595-16.417,36.595-36.595v-9.348h24c5.514,0,10,4.486,10,10v338.063
			c0,24.193-19.682,43.875-43.875,43.875s-43.875-19.682-43.875-43.875c0-5.523-4.477-10-10-10H10c-5.523,0-10,4.477-10,10
			c0,35.221,28.654,63.875,63.875,63.875h382.113c0.204,0,0.406-0.006,0.606-0.018c0.509,0.012,1.019,0.018,1.531,0.018
			c35.221,0,63.875-28.654,63.875-63.875V90.031C512,73.489,498.542,60.031,482,60.031z M156,60.031h-22h-11.189v-3.405
			c0-9.15,7.444-16.595,16.594-16.595c9.15,0,16.595,7.444,16.595,16.595V60.031z M297,60.031h-33.189v-3.405
			c0-9.15,7.444-16.595,16.594-16.595c9.15,0,16.595,7.444,16.595,16.595V60.031z M438,60.031h-33.189v-3.405
			c0-9.15,7.444-16.595,16.594-16.595c9.15,0,16.595,7.444,16.595,16.595V60.031z M63.875,471.969
			c-20.754,0-38.188-14.484-42.726-33.875h363.882c2.053,13.005,8.045,24.718,16.712,33.875H63.875z"/>
	</g>
</g>
<g>
	<g>
		<path d="M70.16,378.21c-1.86-1.86-4.44-2.93-7.07-2.93s-5.21,1.07-7.07,2.93s-2.93,4.44-2.93,7.07s1.07,5.21,2.93,7.07
			s4.43,2.93,7.07,2.93c2.63,0,5.21-1.07,7.07-2.93c1.86-1.86,2.93-4.44,2.93-7.07S72.02,380.07,70.16,378.21z"/>
	</g>
</g>
<g>
	<g>
		<path d="M468.31,149.96c-1.86-1.86-4.44-2.93-7.07-2.93s-5.21,1.07-7.07,2.93c-1.86,1.86-2.93,4.44-2.93,7.07s1.07,5.21,2.93,7.07
			c1.86,1.86,4.44,2.93,7.07,2.93s5.21-1.07,7.07-2.93c1.86-1.86,2.93-4.44,2.93-7.07S470.17,151.82,468.31,149.96z"/>
	</g>
</g>
<g>
	<g>
		<path d="M262.85,270.66c-1.86-1.86-4.44-2.93-7.08-2.93c-2.63,0-5.21,1.07-7.07,2.93s-2.93,4.44-2.93,7.07s1.07,5.21,2.93,7.07
			c1.87,1.86,4.44,2.93,7.07,2.93c2.64,0,5.21-1.07,7.08-2.93c1.86-1.86,2.93-4.44,2.93-7.07S264.71,272.52,262.85,270.66z"/>
	</g>
</g>
<g>
	<g>
		<path d="M316.38,270.66c-1.86-1.86-4.44-2.93-7.07-2.93s-5.21,1.07-7.07,2.93c-1.86,1.86-2.93,4.44-2.93,7.07s1.07,5.21,2.93,7.07
			c1.86,1.86,4.44,2.93,7.07,2.93c2.64,0,5.21-1.07,7.07-2.93c1.87-1.86,2.93-4.44,2.93-7.07S318.25,272.52,316.38,270.66z"/>
	</g>
</g>
<g>
	<g>
		<path d="M306.307,308.072c-3.904-3.905-10.237-3.905-14.142,0c-5.305,5.305-13.938,5.304-19.242,0
			c-3.905-3.905-10.237-3.905-14.142,0c-3.905,3.905-3.905,10.237,0,14.142c6.551,6.551,15.157,9.827,23.762,9.827
			c8.607,0,17.212-3.276,23.764-9.827C310.212,318.309,310.213,311.977,306.307,308.072z"/>
	</g>
</g>
<g>
	<g>
		<path d="M282.544,202.563c-49.626,0-90,40.374-90,90c0,49.626,40.374,90,90,90c49.626,0,90-40.375,90-90
			C372.544,242.937,332.17,202.563,282.544,202.563z M282.544,362.563c-38.598,0-70-31.402-70-70s31.402-70,70-70
			c38.598,0,70,31.402,70,70C352.544,331.161,321.142,362.563,282.544,362.563z"/>
	</g>
</g>
<g>
</g>
<g>
</g>
<g>
</g>
<g>
</g>
<g>
</g>
<g>
</g>
<g>
</g>
<g>
</g>
<g>
</g>
<g>
</g>
<g>
</g>
<g>
</g>
<g>
</g>
<g>
</g>
<g>
</g>
</svg>
