<?xml version="1.0" encoding="iso-8859-1"?>
<!-- Generator: Adobe Illustrator 19.0.0, SVG Export Plug-In . SVG Version: 6.00 Build 0)  -->
<svg version="1.1" id="Capa_1" xmlns="http://www.w3.org/2000/svg" xmlns:xlink="http://www.w3.org/1999/xlink" x="0px" y="0px"
	 viewBox="0 0 512 512" style="enable-background:new 0 0 512 512;" xml:space="preserve">
<g>
	<g>
		<path d="M506.335,267.346c9.493-17.119,6.995-39.156-7.52-53.671l-5.332-5.332c-8.502-8.502-19.806-13.184-31.829-13.184
			c-12.022,0-23.327,4.682-31.829,13.184c-2.158,2.158-4.048,4.485-5.676,6.935h-19.677c14.434-13.513,23.48-32.715,23.48-54V106.49
			c0-0.077-0.01-0.152-0.012-0.229c0.002-0.077,0.012-0.152,0.012-0.229v-46.35c0-21.863-17.787-39.65-39.649-39.65h-98.351
			c-5.522,0-10,4.477-10,10v34.302v1.948v94.997c0,21.285,9.046,40.487,23.48,54H302h-97.528c14.434-13.513,23.48-32.715,23.48-54
			V66.281v-36.25c0-5.523-4.478-10-10-10h-98.35c-21.863,0-39.65,17.787-39.65,39.65v42.663v3.688v55.247
			c0,21.285,9.046,40.487,23.48,54H87.851c-1.627-2.451-3.517-4.777-5.676-6.936c-8.502-8.501-19.807-13.184-31.829-13.184
			c-12.023,0-23.327,4.682-31.828,13.184l-5.334,5.333c-14.507,14.508-17.01,36.531-7.532,53.647C1.904,276.841,0,286.891,0,297.278
			v184.691c0,5.523,4.478,10,10,10h492c5.522,0,10-4.477,10-10V297.278C512,286.932,510.079,276.878,506.335,267.346z
			 M438.783,230.06c0.18-0.329,0.336-0.671,0.479-1.021c1.174-2.366,2.738-4.585,4.705-6.553c4.725-4.726,11.007-7.327,17.687-7.327
			c6.682,0,12.963,2.602,17.688,7.326l5.332,5.332c9.752,9.753,9.752,25.621,0,35.374c-4.725,4.725-11.006,7.326-17.687,7.326
			c-6.682,0-12.963-2.602-17.688-7.326l-5.332-5.332C436.464,250.355,434.74,239.233,438.783,230.06z M299.952,64.333V40.031h0
			h88.351c10.835,0,19.649,8.815,19.649,19.65v36.35h-78.25c-16.404,0-29.75-13.346-29.75-29.75V64.333z M299.952,161.278v-55.145
			c8.303,6.214,18.604,9.898,29.75,9.898h78.25v45.247c0,29.776-24.225,54-54,54C324.177,215.278,299.952,191.054,299.952,161.278z
			 M99.952,59.681c0-10.835,8.815-19.65,19.65-19.65h88.35v26.25c0,16.404-13.346,29.75-29.75,29.75h-78.25V59.681z M99.952,161.278
			v-45.247h78.25c11.146,0,21.447-3.684,29.75-9.898v55.145c0,29.776-24.225,54-54,54
			C124.177,215.278,99.952,191.054,99.952,161.278z M27.325,227.817l5.334-5.333c4.724-4.724,11.005-7.326,17.687-7.326
			c6.681,0,12.962,2.602,17.687,7.326c1.968,1.968,3.531,4.187,4.705,6.552c0.143,0.351,0.3,0.694,0.48,1.024
			c4.042,9.173,2.319,20.294-5.184,27.798l-5.334,5.333c-4.724,4.724-11.005,7.326-17.687,7.326c-6.681,0-12.962-2.602-17.687-7.326
			C17.574,253.438,17.574,237.57,27.325,227.817z M492.001,471.969H492h-34V363c0-5.523-4.478-10-10-10c-5.522,0-10,4.477-10,10
			v108.969H302h-36V298.594h43c5.522,0,10-4.477,10-10s-4.478-10-10-10H203c-5.522,0-10,4.477-10,10s4.478,10,10,10h43v173.375h-36
			H74V321.031c0-5.523-4.478-10-10-10c-5.522,0-10,4.477-10,10v150.938H20V297.278c0-4.569,0.49-9.048,1.451-13.412
			c7.018,4.328,15.11,6.651,23.562,6.651c12.023,0,23.327-4.682,31.828-13.184L82.175,272
			c10.019-10.019,14.308-23.624,12.888-36.722h321.875c-1.42,13.098,2.869,26.703,12.889,36.723l5.332,5.332
			c8.502,8.502,19.806,13.184,31.829,13.184c8.446,0,16.533-2.32,23.548-6.642c0.963,4.369,1.465,8.846,1.465,13.403V471.969z"/>
	</g>
</g>
<g>
	<g>
		<path d="M455.069,313.96c-1.859-1.86-4.439-2.93-7.069-2.93s-5.21,1.07-7.07,2.93c-1.86,1.86-2.93,4.44-2.93,7.07
			s1.069,5.21,2.93,7.07c1.86,1.86,4.44,2.93,7.07,2.93s5.21-1.07,7.069-2.93c1.86-1.86,2.931-4.44,2.931-7.07
			S456.93,315.82,455.069,313.96z"/>
	</g>
</g>
<g>
	<g>
		<path d="M174.534,167.212c-3.905-3.905-10.235-3.904-14.142,0c-2.42,2.422-6.363,2.422-8.783,0
			c-3.906-3.905-10.238-3.905-14.143,0c-3.905,3.905-3.905,10.237,0,14.142c5.11,5.109,11.822,7.664,18.534,7.664
			s13.424-2.555,18.534-7.664C178.439,177.449,178.439,171.117,174.534,167.212z"/>
	</g>
</g>
<g>
	<g>
		<path d="M374.534,167.212c-3.905-3.905-10.235-3.904-14.142,0c-2.42,2.422-6.363,2.422-8.783,0
			c-3.906-3.905-10.238-3.905-14.143,0c-3.905,3.905-3.905,10.237,0,14.142c5.11,5.109,11.822,7.664,18.534,7.664
			c6.712,0,13.424-2.555,18.534-7.664C378.439,177.449,378.439,171.117,374.534,167.212z"/>
	</g>
</g>
<g>
</g>
<g>
</g>
<g>
</g>
<g>
</g>
<g>
</g>
<g>
</g>
<g>
</g>
<g>
</g>
<g>
</g>
<g>
</g>
<g>
</g>
<g>
</g>
<g>
</g>
<g>
</g>
<g>
</g>
</svg>
