<?xml version="1.0" encoding="iso-8859-1"?>
<!-- Generator: Adobe Illustrator 19.0.0, SVG Export Plug-In . SVG Version: 6.00 Build 0)  -->
<svg version="1.1" id="Capa_1" xmlns="http://www.w3.org/2000/svg" xmlns:xlink="http://www.w3.org/1999/xlink" x="0px" y="0px"
	 viewBox="0 0 512 512" style="enable-background:new 0 0 512 512;" xml:space="preserve">
<g>
	<g>
		<path d="M204.069,412.96c-1.859-1.87-4.439-2.93-7.069-2.93s-5.21,1.06-7.07,2.93c-1.86,1.86-2.93,4.44-2.93,7.07
			s1.069,5.21,2.93,7.07c1.86,1.86,4.44,2.93,7.07,2.93s5.21-1.07,7.069-2.93c1.86-1.86,2.931-4.44,2.931-7.07
			C207,417.39,205.93,414.82,204.069,412.96z"/>
	</g>
</g>
<g>
	<g>
		<path d="M419.5,96h-8.07c6.586-8.585,10.513-19.312,10.513-30.943V50.943C421.943,22.853,399.09,0,371,0
			c-28.09,0-50.943,22.853-50.943,50.943v14.113c0,11.632,3.927,22.358,10.513,30.943H181.43
			c6.586-8.585,10.513-19.312,10.513-30.943V50.943C191.943,22.853,169.09,0,141,0c-28.09,0-50.943,22.853-50.943,50.943v14.113
			c0,11.632,3.927,22.358,10.513,30.943H92.5C56.383,96,27,125.383,27,161.5v90.25c0,27.378,21.171,49.891,48,52.063V502
			c0,5.523,4.478,10,10,10h112c5.522,0,10-4.477,10-10v-45c0-5.523-4.478-10-10-10c-5.522,0-10,4.477-10,10v35h-36V327
			c0-5.523-4.478-10-10-10c-5.522,0-10,4.477-10,10v165H95V272h92v110c0,5.523,4.478,10,10,10c5.522,0,10-4.477,10-10V164h98v98v240
			c0,5.523,4.478,10,10,10h112c5.522,0,10-4.477,10-10V397c0-5.523-4.478-10-10-10c-5.522,0-10,4.477-10,10v95h-36V327
			c0-5.523-4.478-10-10-10c-5.522,0-10,4.477-10,10v165h-36V272h92v45c0,5.523,4.478,10,10,10c5.522,0,10-4.477,10-10v-13.188
			c26.829-2.172,48-24.684,48-52.063V161.5C485,125.383,455.617,96,419.5,96z M340.057,50.943C340.057,33.881,353.938,20,371,20
			s30.943,13.881,30.943,30.943v14.113C401.943,82.119,388.063,96,371,96s-30.943-13.881-30.943-30.943V50.943z M110.057,50.943
			C110.057,33.881,123.938,20,141,20s30.943,13.881,30.943,30.943v14.113C171.943,82.119,158.063,96,141,96
			s-30.943-13.881-30.943-30.943V50.943z M465,251.75c0,16.341-12.22,29.873-28,31.961V262v-91.947c0-5.523-4.478-10-10-10
			c-5.522,0-10,4.477-10,10V252h-92v-98c0-5.523-4.478-10-10-10H197c-5.522,0-10,4.477-10,10v98H95v-81.947c0-5.523-4.478-10-10-10
			c-5.522,0-10,4.477-10,10v113.658c-15.78-2.088-28-15.62-28-31.961V161.5c0-25.089,20.411-45.5,45.5-45.5h327
			c25.089,0,45.5,20.411,45.5,45.5V251.75z"/>
	</g>
</g>
<g>
	<g>
		<path d="M434.069,350.98c-1.859-1.86-4.439-2.93-7.069-2.93s-5.21,1.07-7.07,2.93c-1.86,1.86-2.93,4.44-2.93,7.07
			c0,2.64,1.069,5.21,2.93,7.07c1.86,1.87,4.44,2.93,7.07,2.93s5.21-1.06,7.069-2.93c1.86-1.86,2.931-4.43,2.931-7.07
			C437,355.42,435.93,352.84,434.069,350.98z"/>
	</g>
</g>
<g>
</g>
<g>
</g>
<g>
</g>
<g>
</g>
<g>
</g>
<g>
</g>
<g>
</g>
<g>
</g>
<g>
</g>
<g>
</g>
<g>
</g>
<g>
</g>
<g>
</g>
<g>
</g>
<g>
</g>
</svg>
