<?xml version="1.0" encoding="iso-8859-1"?>
<!-- Generator: Adobe Illustrator 19.0.0, SVG Export Plug-In . SVG Version: 6.00 Build 0)  -->
<svg version="1.1" id="Capa_1" xmlns="http://www.w3.org/2000/svg" xmlns:xlink="http://www.w3.org/1999/xlink" x="0px" y="0px"
	 viewBox="0 0 512 512" style="enable-background:new 0 0 512 512;" xml:space="preserve">
<g>
	<g>
		<path d="M466.42,110.11c-3.152-4.535-9.383-5.657-13.918-2.504c-4.535,3.151-5.656,9.383-2.504,13.918
			c65.153,93.75,53.75,220.487-27.116,301.352C378.306,467.452,319.041,492,256.002,492s-122.304-24.548-166.878-69.124
			c-92.017-92.018-92.018-241.74,0-333.757c81.525-81.525,208.91-92.474,302.894-26.035c4.509,3.188,10.75,2.117,13.938-2.393
			c3.188-4.51,2.117-10.75-2.393-13.938c-48.7-34.427-108.435-50.736-168.214-45.928c-60.463,4.866-117.416,31.2-160.367,74.152
			C26.63,123.329,0,187.618,0,255.998S26.63,388.667,74.981,437.02C123.333,485.372,187.622,512,256.002,512
			s132.668-26.629,181.02-74.981c42.7-42.7,69.006-99.307,74.072-159.391C516.101,218.258,500.234,158.766,466.42,110.11z"/>
	</g>
</g>
<g>
	<g>
		<path d="M437.135,75.09l-0.189-0.19c-3.895-3.915-10.227-3.931-14.142-0.037c-3.916,3.895-3.932,10.227-0.037,14.142l0.189,0.191
			c1.954,1.964,4.521,2.947,7.089,2.947c2.551,0,5.102-0.97,7.053-2.911C441.014,85.337,441.03,79.005,437.135,75.09z"/>
	</g>
</g>
<g>
	<g>
		<path d="M284.063,66.165c-10.129,0-20.001,3.282-28.186,9.212c-8.185-5.93-18.056-9.212-28.186-9.212
			c-26.908,0-48.8,22.471-48.8,50.091c0,15.937,11.977,35.035,36.614,58.386c17.048,16.158,33.842,28.231,34.549,28.738
			c1.741,1.247,3.782,1.87,5.823,1.87c2.041,0,4.082-0.624,5.823-1.87c0.707-0.506,17.5-12.58,34.549-28.738
			c24.637-23.351,36.614-42.449,36.614-58.386C332.863,88.635,310.971,66.165,284.063,66.165z M255.874,182.821
			c-25.39-19.275-56.983-50.011-56.983-66.565c-0.001-16.592,12.918-30.091,28.799-30.091c7.931,0,15.321,3.301,20.811,9.295
			c1.895,2.068,4.57,3.246,7.375,3.246c2.805,0,5.48-1.178,7.375-3.246c5.489-5.994,12.88-9.295,20.811-9.295
			c15.88,0,28.8,13.499,28.8,30.091C312.863,132.783,281.265,163.531,255.874,182.821z"/>
	</g>
</g>
<g>
	<g>
		<path d="M368.094,281.248c5.21-7.273,8.29-16.172,8.29-25.781v-11.851c0-24.472-19.909-44.381-44.381-44.381
			c-24.472,0-44.381,19.909-44.381,44.381v11.851c0,9.609,3.08,18.508,8.29,25.781c-16.697,3.568-30.958,13.761-39.909,27.685
			c-8.951-13.923-23.212-24.116-39.909-27.685c5.21-7.273,8.29-16.172,8.29-25.781v-11.851c0-24.472-19.909-44.381-44.381-44.381
			c-24.472,0-44.381,19.909-44.381,44.381v11.851c0,9.609,3.08,18.508,8.29,25.781c-28.481,6.087-49.909,31.438-49.909,61.711
			v41.041c0,5.522,4.477,10,10,10h152.001h152.001c5.523,0,10-4.478,10-10v-41.041C418.004,312.687,396.576,287.335,368.094,281.248
			z M155.621,243.616c0-13.444,10.937-24.381,24.381-24.381s24.381,10.938,24.381,24.381v11.851
			c0,13.444-10.937,24.381-24.381,24.381s-24.381-10.938-24.381-24.381V243.616z M246.002,373.999H114.001v-31.041
			c0-23.771,19.339-43.109,43.11-43.109h45.78c23.771,0,43.11,19.339,43.11,43.109V373.999z M307.622,243.616
			c0-13.444,10.937-24.381,24.381-24.381s24.381,10.938,24.381,24.381v11.851c0,13.444-10.937,24.381-24.381,24.381
			s-24.381-10.938-24.381-24.381V243.616z M398.004,373.999H266.003v-31.041c0-23.771,19.339-43.109,43.11-43.109h45.78
			c23.771,0,43.11,19.339,43.11,43.109V373.999z"/>
	</g>
</g>
<g>
</g>
<g>
</g>
<g>
</g>
<g>
</g>
<g>
</g>
<g>
</g>
<g>
</g>
<g>
</g>
<g>
</g>
<g>
</g>
<g>
</g>
<g>
</g>
<g>
</g>
<g>
</g>
<g>
</g>
</svg>
