<?xml version="1.0" encoding="iso-8859-1"?>
<!-- Generator: Adobe Illustrator 19.0.0, SVG Export Plug-In . SVG Version: 6.00 Build 0)  -->
<svg version="1.1" id="Capa_1" xmlns="http://www.w3.org/2000/svg" xmlns:xlink="http://www.w3.org/1999/xlink" x="0px" y="0px"
	 viewBox="0 0 512 512" style="enable-background:new 0 0 512 512;" xml:space="preserve">
<g>
	<g>
		<path d="M508.452,199.675l-34.963-29.824c23.31-17.12,38.472-44.715,38.472-75.789c0-51.824-42.162-93.986-93.986-93.986
			c-36.383,0-68.001,20.781-83.614,51.095l-45.885-39.142c-18.822-16.056-46.132-16.04-64.934,0.04l-45.848,39.205
			C162.099,20.904,130.449,0.078,94.025,0.078c-51.824,0-93.986,42.162-93.986,93.986c0,31.197,15.284,58.888,38.751,75.993
			L3.539,200.199c-2.222,1.9-3.5,4.676-3.5,7.599v274.206C0.038,498.544,13.494,512,30.034,512h451.932
			c16.54,0,29.995-13.456,29.995-29.995V207.282C511.962,204.355,510.679,201.575,508.452,199.675z M417.976,20.074
			c40.798,0,73.989,33.191,73.989,73.989c0,12.754-3.245,24.764-8.95,35.25c-5.127-8.951-14.003-15.575-24.726-17.574l-3.105-0.579
			c0.826-3.132,1.27-6.416,1.27-9.802v-8.912c0-21.218-17.262-38.48-38.48-38.48c-21.218,0-38.481,17.262-38.481,38.48v8.911
			c0,3.386,0.444,6.671,1.27,9.803l-3.106,0.579c-10.72,2-19.595,8.622-24.723,17.57c-5.704-10.484-8.948-22.494-8.948-35.246
			C343.988,53.266,377.178,20.074,417.976,20.074z M417.973,139.837c10.139,0,19.369-3.948,26.25-10.38l10.399,1.94
			c7.628,1.423,13.165,8.087,13.165,15.847v1.481c-13.156,12-30.643,19.329-49.811,19.329c-19.17,0-36.66-7.331-49.817-19.333
			v-1.476c0-7.759,5.536-14.424,13.164-15.847l10.399-1.941C398.604,135.889,407.834,139.837,417.973,139.837z M399.49,101.356
			v-8.911c0-10.191,8.292-18.483,18.483-18.483c10.191,0,18.483,8.292,18.483,18.483v8.911c0,10.191-8.292,18.483-18.483,18.483
			C407.782,119.839,399.49,111.548,399.49,101.356z M28.983,129.308c-5.704-10.484-8.948-22.494-8.948-35.246
			c0.001-40.797,33.192-73.988,73.99-73.988s73.989,33.191,73.989,73.989c0,12.754-3.245,24.764-8.95,35.25
			c-5.127-8.951-14.003-15.575-24.726-17.574l-3.104-0.579c0.826-3.132,1.27-6.416,1.27-9.802v-8.912
			c0-21.218-17.262-38.48-38.48-38.48c-21.218,0-38.481,17.262-38.481,38.48v8.911c0,3.386,0.444,6.671,1.27,9.803l-3.106,0.579
			C42.986,113.737,34.111,120.359,28.983,129.308z M94.023,139.837c10.14,0,19.369-3.948,26.25-10.38l10.399,1.94
			c7.628,1.423,13.165,8.087,13.165,15.847v1.481c-13.156,12-30.643,19.329-49.811,19.329c-19.172,0-36.661-7.331-49.818-19.334
			v-1.476c0-7.759,5.536-14.424,13.164-15.847l10.4-1.94C74.654,135.888,83.884,139.837,94.023,139.837z M75.539,101.356v-8.911
			c0-10.191,8.292-18.483,18.483-18.483s18.483,8.292,18.483,18.483v8.911c0,10.191-8.292,18.483-18.483,18.483
			S75.539,111.548,75.539,101.356z M57.272,180.562c11.296,4.817,23.718,7.487,36.753,7.487c51.824,0,93.986-42.162,93.986-93.986
			c0-7.891-0.983-15.556-2.823-22.885l51.35-43.91c11.282-9.647,27.668-9.658,38.961-0.024l51.347,43.8
			c-1.862,7.369-2.856,15.08-2.856,23.019c0,51.824,42.162,93.986,93.986,93.986c13.164,0,25.701-2.725,37.085-7.633l30.56,26.069
			c-0.016,0.014-0.034,0.025-0.05,0.038l-148.753,126.98l-161.851-0.041L27.002,207.021c-0.115-0.098-0.236-0.181-0.354-0.272
			L57.272,180.562z M20.036,478.142V227.372l135.221,115.549L20.036,478.142z M34.455,492.003L173,353.458l166.106,0.042
			c0.208,0.254,0.43,0.501,0.667,0.738l137.764,137.764H34.455z M491.964,478.15L356.668,342.852l135.297-115.494V478.15z"/>
	</g>
</g>
<g>
	<g>
		<path d="M342.299,190.937l-23.996-23.996c-3.904-3.905-10.235-3.903-14.14,0c-3.904,3.904-3.905,10.235,0,14.14l6.929,6.929
			H176.773c-5.522,0-9.998,4.476-9.998,9.998s4.476,9.997,9.998,9.997h158.455c4.043,0,7.69-2.437,9.238-6.172
			C346.013,198.097,345.157,193.795,342.299,190.937z"/>
	</g>
</g>
<g>
	<g>
		<path d="M290.444,228.084H176.773c-4.043,0-7.69,2.437-9.238,6.172c-1.548,3.735-0.692,8.037,2.167,10.896l23.996,23.996
			c1.953,1.952,4.511,2.929,7.07,2.929c2.559,0,5.118-0.977,7.07-2.929c3.904-3.904,3.904-10.235,0-14.141l-6.928-6.928h89.531
			c5.522,0,9.998-4.476,9.998-9.999S295.966,228.084,290.444,228.084z"/>
	</g>
</g>
<g>
	<g>
		<path d="M342.297,231.01c-1.86-1.86-4.439-2.93-7.069-2.93c-2.63,0-5.209,1.07-7.069,2.93c-1.86,1.86-2.93,4.439-2.93,7.069
			c0,2.64,1.07,5.209,2.93,7.079c1.86,1.86,4.439,2.92,7.069,2.92c2.63,0,5.209-1.06,7.069-2.92c1.86-1.87,2.93-4.439,2.93-7.079
			C345.226,235.449,344.157,232.869,342.297,231.01z"/>
	</g>
</g>
<g>
</g>
<g>
</g>
<g>
</g>
<g>
</g>
<g>
</g>
<g>
</g>
<g>
</g>
<g>
</g>
<g>
</g>
<g>
</g>
<g>
</g>
<g>
</g>
<g>
</g>
<g>
</g>
<g>
</g>
</svg>
