<?xml version="1.0" encoding="iso-8859-1"?>
<!-- Generator: Adobe Illustrator 19.0.0, SVG Export Plug-In . SVG Version: 6.00 Build 0)  -->
<svg version="1.1" id="Capa_1" xmlns="http://www.w3.org/2000/svg" xmlns:xlink="http://www.w3.org/1999/xlink" x="0px" y="0px"
	 viewBox="0 0 512 512" style="enable-background:new 0 0 512 512;" xml:space="preserve">
<g>
	<g>
		<path d="M462,20.031H50c-27.57,0-50,22.43-50,50v260c0,27.57,22.43,50,50,50h25.5c5.522,0,10-4.478,10-10c0-5.522-4.478-10-10-10
			H50c-16.542,0-30-13.458-30-30v-260c0-16.542,13.458-30,30-30h412c16.542,0,30,13.458,30,30v260c0,16.542-13.458,30-30,30H156.952
			c-5.522,0-10,4.478-10,10c0,5.522,4.478,10,10,10H200.5v52.719c-15.133,3.307-26.5,16.806-26.5,32.916v16.302
			c0,5.522,4.478,10,10,10h144c5.522,0,10-4.478,10-10v-16.302c0-16.11-11.367-29.609-26.5-32.916v-52.719H462
			c27.57,0,50-22.43,50-50v-260C512,42.461,489.57,20.031,462,20.031z M220.5,380.031h71v51.938h-71V380.031z M318,465.667v6.302
			H194v-6.302c0-7.554,6.145-13.698,13.698-13.698h96.604C311.855,451.969,318,458.113,318,465.667z"/>
	</g>
</g>
<g>
	<g>
		<path d="M124.069,362.96c-1.859-1.86-4.439-2.93-7.069-2.93s-5.21,1.069-7.07,2.93c-1.86,1.859-2.93,4.439-2.93,7.07
			c0,2.63,1.069,5.21,2.93,7.069c1.86,1.86,4.44,2.931,7.07,2.931s5.21-1.07,7.069-2.931c1.86-1.859,2.931-4.439,2.931-7.069
			C127,367.399,125.93,364.819,124.069,362.96z"/>
	</g>
</g>
<g>
	<g>
		<path d="M160.979,193.612c3.778-6,5.973-13.092,5.973-20.691v-9.979c0-21.479-17.474-38.953-38.952-38.953
			c-21.478,0-38.952,17.474-38.952,38.953v9.979c0,7.599,2.195,14.691,5.973,20.691C71.456,199.711,54,221.154,54,246.599v29.561
			c0,5.522,4.478,10,10,10h128c5.522,0,10-4.478,10-10v-29.561C202,221.154,184.544,199.711,160.979,193.612z M128,143.988
			c10.45,0,18.952,8.502,18.952,18.953v9.979c0,10.451-8.502,18.953-18.952,18.953s-18.952-8.502-18.952-18.953c0,0,0-9.979,0-9.979
			C109.048,152.49,117.55,143.988,128,143.988z M182.001,266.159H74v-19.561c0-19.147,15.577-34.724,34.725-34.724h38.551
			c19.147,0,34.725,15.577,34.725,34.724V266.159z"/>
	</g>
</g>
<g>
	<g>
		<path d="M416.979,193.612c3.778-6,5.973-13.092,5.973-20.691v-9.979c0-21.479-17.474-38.953-38.952-38.953
			c-21.478,0-38.952,17.474-38.952,38.953v9.979c0,7.599,2.195,14.691,5.973,20.691C327.456,199.711,310,221.154,310,246.599v29.561
			c0,5.522,4.478,10,10,10h128c5.522,0,10-4.478,10-10v-29.561C458,221.154,440.544,199.711,416.979,193.612z M365.048,162.941
			c0-10.451,8.502-18.953,18.952-18.953c10.45,0,18.952,8.502,18.952,18.953v9.979c0,10.451-8.502,18.953-18.952,18.953
			c-10.45,0-18.952-8.502-18.952-18.953V162.941z M438.001,266.159H330v-19.561c0-19.147,15.577-34.724,34.725-34.724h38.551
			c19.147,0,34.725,15.577,34.725,34.724V266.159z"/>
	</g>
</g>
<g>
	<g>
		<path d="M309.981,106.961l-14.847-14.846c-3.906-3.905-10.236-3.905-14.143,0c-3.229,3.229-3.78,8.114-1.669,11.917h-35.656
			c-5.521,0-9.999,4.477-9.999,10s4.478,10,10,10h35.656c-2.111,3.803-1.56,8.688,1.669,11.917c1.953,1.953,4.512,2.929,7.071,2.929
			c2.559,0,5.118-0.977,7.071-2.929l14.847-14.846c1.875-1.875,2.929-4.419,2.929-7.071
			C312.91,111.379,311.856,108.836,309.981,106.961z"/>
	</g>
</g>
<g>
	<g>
		<path d="M207.74,106.961c-1.87-1.86-4.44-2.93-7.07-2.93s-5.21,1.07-7.07,2.93c-1.87,1.86-2.93,4.44-2.93,7.07
			c0,2.63,1.06,5.21,2.93,7.07c1.86,1.86,4.43,2.93,7.07,2.93c2.63,0,5.21-1.07,7.07-2.93c1.859-1.86,2.93-4.44,2.93-7.07
			C210.67,111.401,209.6,108.821,207.74,106.961z"/>
	</g>
</g>
<g>
	<g>
		<path d="M302.91,167.531h-78.657c2.111-3.804,1.56-8.688-1.669-11.917c-3.906-3.905-10.236-3.905-14.143,0l-14.846,14.846
			c-3.905,3.906-3.905,10.237,0.001,14.142l14.846,14.846c1.953,1.953,4.512,2.929,7.071,2.929s5.118-0.977,7.071-2.929
			c3.229-3.229,3.78-8.114,1.669-11.917h78.657c5.522,0,10-4.477,10-10S308.432,167.531,302.91,167.531z"/>
	</g>
</g>
<g>
</g>
<g>
</g>
<g>
</g>
<g>
</g>
<g>
</g>
<g>
</g>
<g>
</g>
<g>
</g>
<g>
</g>
<g>
</g>
<g>
</g>
<g>
</g>
<g>
</g>
<g>
</g>
<g>
</g>
</svg>
