<?xml version="1.0" encoding="iso-8859-1"?>
<!-- Generator: Adobe Illustrator 19.0.0, SVG Export Plug-In . SVG Version: 6.00 Build 0)  -->
<svg version="1.1" id="Capa_1" xmlns="http://www.w3.org/2000/svg" xmlns:xlink="http://www.w3.org/1999/xlink" x="0px" y="0px"
	 viewBox="0 0 512 512" style="enable-background:new 0 0 512 512;" xml:space="preserve">
<g>
	<g>
		<path d="M266.871,440.93c-1.861-1.861-4.432-2.93-7.061-2.93c-2.64,0-5.21,1.069-7.069,2.93c-1.87,1.86-2.931,4.44-2.931,7.07
			s1.061,5.21,2.931,7.069c1.85,1.86,4.43,2.931,7.069,2.931c2.63,0,5.21-1.07,7.061-2.931c1.87-1.859,2.939-4.439,2.939-7.069
			S268.741,442.79,266.871,440.93z"/>
	</g>
</g>
<g>
	<g>
		<path d="M385.919,249.181c-17.699-18.345-41.481-28.447-66.967-28.447h-59.146h-0.231c17.39-15.048,28.426-37.252,28.426-62
			V43.839V10c0-5.523-4.478-10-10-10H186.51C152.041,0,124,28.042,124,62.509v96.226c0,24.748,11.036,46.952,28.426,62h-0.231
			h-48.406C46.56,220.735,0,267.294,0,324.522V448c0,5.522,4.478,10,10,10h204.96c5.522,0,10-4.478,10-10c0-5.522-4.478-10-10-10
			H81.633V330.049c0-5.522-4.478-10-10-10c-5.522,0-10,4.478-10,10V438H20V324.522c0-46.2,37.587-83.788,83.788-83.788h43.063
			l46.4,69.415V365c0,5.522,4.478,10,10,10c5.522,0,10-4.478,10-10v-54.585l51.594-69.681h54.107
			c20.007,0,38.679,7.932,52.574,22.333c3.835,3.976,10.166,4.089,14.14,0.254C389.641,259.486,389.754,253.155,385.919,249.181z
			 M144,62.509C144,39.069,163.069,20,186.509,20H268v23.839c0,26.111-21.243,47.354-47.354,47.354H144V62.509z M203.669,289.746
			l-32.762-49.011h69.051L203.669,289.746z M206,220.735c-34.187,0-62-27.813-62-62v-47.542h76.646
			c18.446,0,35.178-7.458,47.354-19.511v67.053C268,192.922,240.187,220.735,206,220.735z"/>
	</g>
</g>
<g>
	<g>
		<path d="M398,284c-62.859,0-114,51.141-114,114s51.141,114,114,114s114-51.141,114-114S460.859,284,398,284z M398,492
			c-51.832,0-94-42.168-94-94c0-51.832,42.168-94,94-94c51.832,0,94,42.168,94,94C492,449.832,449.832,492,398,492z"/>
	</g>
</g>
<g>
	<g>
		<path d="M443.667,388H408v-35.667c0-5.522-4.478-10-10-10c-5.522,0-10,4.478-10,10V388h-35.667c-5.522,0-10,4.478-10,10
			c0,5.522,4.478,10,10,10H388v35.667c0,5.522,4.478,10,10,10c5.522,0,10-4.478,10-10V408h35.667c5.522,0,10-4.478,10-10
			C453.667,392.478,449.189,388,443.667,388z"/>
	</g>
</g>
<g>
</g>
<g>
</g>
<g>
</g>
<g>
</g>
<g>
</g>
<g>
</g>
<g>
</g>
<g>
</g>
<g>
</g>
<g>
</g>
<g>
</g>
<g>
</g>
<g>
</g>
<g>
</g>
<g>
</g>
</svg>
