<?xml version="1.0" encoding="iso-8859-1"?>
<!-- Generator: Adobe Illustrator 19.0.0, SVG Export Plug-In . SVG Version: 6.00 Build 0)  -->
<svg version="1.1" id="Capa_1" xmlns="http://www.w3.org/2000/svg" xmlns:xlink="http://www.w3.org/1999/xlink" x="0px" y="0px"
	 viewBox="0 0 512 512" style="enable-background:new 0 0 512 512;" xml:space="preserve">
<g>
	<g>
		<path d="M460.123,160.519V82.5c0-45.49-37.01-82.5-82.5-82.5s-82.5,37.01-82.5,82.5v82.674
			c-29.556,19.433-49.112,52.886-49.112,90.826c0,5.522,4.478,10,10,10H502c5.522,0,10-4.478,10-10v-6.739
			C512,211.242,491.066,178.026,460.123,160.519z M377.624,20c34.462,0,62.499,28.037,62.499,62.5v69.385
			c-7.367-2.275-15.09-3.731-23.06-4.271c6.404-8.404,10.218-18.884,10.218-30.242V83.333c0-5.522-4.478-10-10-10h-80
			c-5.522,0-10,4.478-10,10v34.039c0,11.809,4.124,22.667,10.996,31.232c-8.039,1.22-15.79,3.325-23.153,6.21V82.5h-0.001
			C315.123,48.037,343.161,20,377.624,20z M377.28,147.372c-16.542,0-30-13.458-30-30V93.333h60v24.039
			C407.28,133.914,393.822,147.372,377.28,147.372z M392.922,167.372l-15.224,20.561l-13.744-20.561H392.922z M469.874,246v-16.455
			c0-5.522-4.478-10-10-10c-5.522,0-10,4.478-10,10V246H304.687v-16.455c0-5.522-4.478-10-10-10c-5.522,0-10,4.478-10,10V246
			h-18.115c4.461-39.556,35.072-71.289,74.078-77.503l26.631,39.839v18.451c0,5.522,4.478,10,10,10c5.522,0,10-4.478,10-10v-18.185
			l30.27-40.88c40.613,3.676,72.768,37.114,74.386,78.278H469.874z"/>
	</g>
</g>
<g>
	<g>
		<path d="M202.074,393.372h-26.147c9.511-10.616,15.309-24.625,15.309-39.967v-68.072V256c0-5.522-4.478-10-10-10h-66.553
			c-23.92,0-43.381,19.461-43.381,43.381v28.116c0,0.06,0.008,0.117,0.009,0.177c-0.001,0.059-0.009,0.117-0.009,0.177v35.555
			c0,15.342,5.798,29.35,15.309,39.967H70.655C31.696,393.372,0,425.067,0,464.026V502c0,5.522,4.478,10,10,10h245.989
			c5.522,0,10-4.478,10-10v-44.713C265.989,422.044,237.317,393.372,202.074,393.372z M91.303,289.381
			c0-12.893,10.488-23.381,23.381-23.381h56.553v19.333c0,12.222-9.943,22.164-22.165,22.164H91.303V289.381z M91.303,327.497
			h57.769c8.127,0,15.72-2.317,22.165-6.317v32.225c0,22.038-17.929,39.967-39.967,39.967c-22.038,0-39.967-17.929-39.967-39.967
			V327.497z M146.911,413.372l-15.224,20.561l-13.744-20.561H146.911z M223.863,492v-25.455c0-5.522-4.478-10-10-10
			c-5.522,0-10,4.478-10,10V492H58.676v-25.455c0-5.522-4.478-10-10-10c-5.522,0-10,4.478-10,10V492H20v-27.974
			c0-27.931,22.724-50.654,50.655-50.654h23.231l27.383,40.964v18.451c0,5.522,4.478,10,10,10c5.522,0,10-4.478,10-10v-18.185
			l30.528-41.23h30.276c24.215,0,43.915,19.7,43.915,43.915V492H223.863z"/>
	</g>
</g>
<g>
	<g>
		<path d="M352.309,440.93c-1.859-1.861-4.439-2.93-7.069-2.93c-2.631,0-5.21,1.069-7.07,2.93c-1.86,1.861-2.93,4.44-2.93,7.07
			s1.069,5.21,2.93,7.069c1.86,1.86,4.439,2.931,7.07,2.931c2.63,0,5.21-1.07,7.069-2.931c1.86-1.859,2.931-4.439,2.931-7.069
			S354.17,442.79,352.309,440.93z"/>
	</g>
</g>
<g>
	<g>
		<path d="M448,307.497c-5.522,0-10,4.478-10,10V438h-55c-5.522,0-10,4.478-10,10c0,5.522,4.478,10,10,10h65c5.522,0,10-4.478,10-10
			V317.497C458,311.975,453.522,307.497,448,307.497z"/>
	</g>
</g>
<g>
	<g>
		<path d="M199.399,56.93c-1.859-1.86-4.43-2.93-7.069-2.93c-2.63,0-5.21,1.069-7.07,2.93s-2.93,4.43-2.93,7.07
			c0,2.63,1.069,5.21,2.93,7.069C187.12,72.93,189.7,74,192.33,74s5.21-1.07,7.069-2.931c1.87-1.859,2.931-4.439,2.931-7.069
			S201.269,58.79,199.399,56.93z"/>
	</g>
</g>
<g>
	<g>
		<path d="M147,54H64c-5.522,0-10,4.478-10,10v141.302c0,5.522,4.478,10,10,10c5.522,0,10-4.478,10-10V74h73c5.522,0,10-4.478,10-10
			C157,58.478,152.522,54,147,54z"/>
	</g>
</g>
<g>
</g>
<g>
</g>
<g>
</g>
<g>
</g>
<g>
</g>
<g>
</g>
<g>
</g>
<g>
</g>
<g>
</g>
<g>
</g>
<g>
</g>
<g>
</g>
<g>
</g>
<g>
</g>
<g>
</g>
</svg>
