<?xml version="1.0" encoding="iso-8859-1"?>
<!-- Generator: Adobe Illustrator 19.0.0, SVG Export Plug-In . SVG Version: 6.00 Build 0)  -->
<svg version="1.1" id="Capa_1" xmlns="http://www.w3.org/2000/svg" xmlns:xlink="http://www.w3.org/1999/xlink" x="0px" y="0px"
	 viewBox="0 0 512 512" style="enable-background:new 0 0 512 512;" xml:space="preserve">
<g>
	<g>
		<path d="M110,284h-0.833v-6.833c0-4.195-1.038-8.151-2.861-11.633c0.009-0.178,0.027-0.354,0.027-0.534v-94.947
			c0-5.522-4.478-10-10-10c-5.522,0-10,4.478-10,10v82.059C85.564,252.041,84.787,252,84,252H56
			c-13.877,0-25.167,11.29-25.167,25.167V284H30c-16.542,0-30,13.458-30,30v48c0,16.542,13.458,30,30,30h80
			c16.542,0,30-13.458,30-30v-48C140,297.458,126.542,284,110,284z M50.833,277.167c0-2.849,2.318-5.167,5.167-5.167h28
			c2.849,0,5.167,2.318,5.167,5.167V284H50.833V277.167z M120,362c0,5.514-4.486,10-10,10H30c-5.514,0-10-4.486-10-10v-14h100V362z
			 M120,328H20v-14c0-5.514,4.486-10,10-10h10.833h58.334H110c5.514,0,10,4.486,10,10V328z"/>
	</g>
</g>
<g>
	<g>
		<path d="M422.74,414.6c-1.87-1.871-4.44-2.93-7.07-2.93c-2.63,0-5.21,1.06-7.08,2.93c-1.86,1.86-2.92,4.44-2.92,7.07
			s1.06,5.2,2.92,7.07c1.87,1.859,4.45,2.93,7.08,2.93c2.63,0,5.2-1.07,7.07-2.93c1.859-1.87,2.93-4.44,2.93-7.07
			S424.6,416.46,422.74,414.6z"/>
	</g>
</g>
<g>
	<g>
		<path d="M407.667,96h-7.57c6.586-8.585,10.514-19.312,10.514-30.943V50.943C410.61,22.854,387.757,0,359.667,0
			c-28.091,0-50.944,22.854-50.944,50.943v14.113c0,11.632,3.927,22.358,10.514,30.943h-7.569
			c-23.377,0-43.938,12.227-55.667,30.611C244.271,108.227,223.71,96,200.333,96h-7.569c6.586-8.585,10.514-19.312,10.514-30.943
			V50.943C203.277,22.854,180.424,0,152.333,0c-28.09,0-50.943,22.854-50.943,50.943v14.113c0,11.632,3.927,22.358,10.513,30.943
			h-7.57c-36.393,0-66,29.607-66,66v78c0,5.522,4.478,10,10,10c5.522,0,10-4.478,10-10v-78c0-25.364,20.636-46,46-46h96
			c23.369,0,42.709,17.521,45.61,40.113c-0.172,1.941-0.276,3.902-0.276,5.887v84c0,1.847,0.096,3.672,0.266,5.476
			c-2.181,15.038-13.198,27.245-27.6,31.179V262v-91.947c0-5.522-4.478-10-10-10c-5.522,0-10,4.478-10,10V252H139
			c-5.522,0-10,4.478-10,10c0,5.522,4.478,10,10,10h59.333v220h-36V383.082c0-5.522-4.478-10-10-10c-5.522,0-10,4.478-10,10V492h-36
			v-76.333c0-5.522-4.478-10-10-10c-5.522,0-10,4.478-10,10V502c0,5.522,4.478,10,10,10h112c5.522,0,10-4.478,10-10V303.119
			c15.556-2.716,28.997-11.642,37.667-24.132c8.67,12.489,22.111,21.416,37.667,24.132V502c0,5.522,4.478,10,10,10h112
			c5.522,0,10-4.478,10-10v-41c0-5.522-4.478-10-10-10c-5.522,0-10,4.478-10,10v31h-36V383.082c0-5.522-4.478-10-10-10
			c-5.522,0-10,4.478-10,10V492h-36V272H373c5.522,0,10-4.478,10-10c0-5.522-4.478-10-10-10h-59.333v-81.947c0-5.522-4.478-10-10-10
			c-5.522,0-10,4.478-10,10V262v20.655c-14.402-3.934-25.419-16.141-27.6-31.179c0.17-1.804,0.266-3.629,0.266-5.476v-84
			c0-1.985-0.104-3.946-0.276-5.887C268.958,133.52,288.299,116,311.667,116h96c25.364,0,46,20.636,46,46v78c0,5.522,4.478,10,10,10
			c5.522,0,10-4.478,10-10v-78C473.667,125.607,444.06,96,407.667,96z M183.277,65.056c0,17.063-13.882,30.943-30.944,30.943
			s-30.943-13.88-30.943-30.942V50.943C121.39,33.881,135.271,20,152.333,20s30.944,13.881,30.944,30.943V65.056z M390.61,65.056
			C390.61,82.119,376.729,96,359.667,96s-30.944-13.881-30.944-30.943V50.943C328.723,33.88,342.605,20,359.667,20
			s30.943,13.881,30.943,30.943V65.056z"/>
	</g>
</g>
<g>
	<g>
		<path d="M482,284h-0.833v-6.833C481.167,263.29,469.877,252,456,252h-28c-0.787,0-1.564,0.041-2.333,0.112v-82.059
			c0-5.522-4.478-10-10-10c-5.522,0-10,4.478-10,10V265c0,0.18,0.018,0.356,0.027,0.534c-1.823,3.482-2.861,7.438-2.861,11.633V284
			H402c-16.542,0-30,13.458-30,30v48c0,16.542,13.458,30,30,30h80c16.542,0,30-13.458,30-30v-48C512,297.458,498.542,284,482,284z
			 M422.833,277.167c0-2.849,2.318-5.167,5.167-5.167h28c2.849,0,5.167,2.318,5.167,5.167V284h-38.334V277.167z M492,362
			c0,5.514-4.486,10-10,10h-80c-5.514,0-10-4.486-10-10v-14h100V362z M492,328H392v-14c0-5.514,4.486-10,10-10h10.833h58.334H482
			c5.514,0,10,4.486,10,10V328z"/>
	</g>
</g>
<g>
</g>
<g>
</g>
<g>
</g>
<g>
</g>
<g>
</g>
<g>
</g>
<g>
</g>
<g>
</g>
<g>
</g>
<g>
</g>
<g>
</g>
<g>
</g>
<g>
</g>
<g>
</g>
<g>
</g>
</svg>
