<?xml version="1.0" encoding="iso-8859-1"?>
<!-- Generator: Adobe Illustrator 19.0.0, SVG Export Plug-In . SVG Version: 6.00 Build 0)  -->
<svg version="1.1" id="Capa_1" xmlns="http://www.w3.org/2000/svg" xmlns:xlink="http://www.w3.org/1999/xlink" x="0px" y="0px"
	 viewBox="0 0 511.998 511.998" style="enable-background:new 0 0 511.998 511.998;" xml:space="preserve">
<g>
	<g>
		<path d="M319.639,7.972l-0.366-0.094c-5.363-1.318-10.759,1.961-12.08,7.323c-1.321,5.363,1.976,10.785,7.337,12.108
			c0.854,0.225,1.712,0.333,2.557,0.333c4.427,0,8.474-2.963,9.66-7.444C328.16,14.859,324.977,9.385,319.639,7.972z"/>
	</g>
</g>
<g>
	<g>
		<path d="M467.916,112.329c-28.145-41.436-67.377-73.496-113.456-92.711c-5.095-2.123-10.953,0.282-13.078,5.381
			c-2.126,5.098,0.283,10.952,5.381,13.078c14.089,5.875,27.377,12.999,39.769,21.202c-10.99,1.997-21.503,7.224-29.983,15.703
			c-4.019,4.019-7.3,8.5-9.862,13.267c-27.742-15.085-58.809-23.058-90.474-23.093c-3.802-0.029-7.613,0.104-11.378,0.321
			c-6.422,0.36-12.475-1.827-17.091-6.185c-4.514-4.261-6.999-10.025-6.999-16.234v-0.202c0-11.888,9.357-21.75,21.302-22.452
			c13.241-0.775,26.746-0.436,39.857,0.996c5.478,0.608,10.428-3.364,11.026-8.855c0.6-5.489-3.365-10.427-8.854-11.026
			c-14.219-1.551-28.847-1.921-43.201-1.079c-22.503,1.321-40.13,19.953-40.13,42.417v0.202c0,11.77,4.713,22.701,13.271,30.778
			c8.535,8.058,20.186,12.294,31.972,11.607c3.376-0.195,6.778-0.316,10.204-0.288c29.585,0.032,58.594,7.798,84.233,22.482
			c-2.263,16.979,3.105,34.789,16.124,47.809c11.093,11.092,25.662,16.638,40.232,16.638c2.531,0,5.062-0.178,7.575-0.513
			c14.684,25.64,22.451,54.65,22.483,84.233c0.004,3.396-0.093,6.828-0.288,10.203c-0.681,11.783,3.55,23.437,11.607,31.973
			c8.077,8.558,19.009,13.271,30.778,13.271h0.202c22.464,0,41.096-17.627,42.417-40.13c0.294-5.01,0.443-10.099,0.443-15.125
			C512,204.47,496.756,154.79,467.916,112.329z M370.691,141.305c-14.387-14.386-14.387-37.794,0-52.18
			c7.192-7.193,16.642-10.79,26.09-10.79s18.897,3.597,26.09,10.79c14.387,14.386,14.387,37.794,0,52.18
			C408.486,155.692,385.076,155.692,370.691,141.305z M491.592,269.948c-0.702,11.945-10.564,21.303-22.452,21.303h-0.202
			c-6.209,0-11.974-2.485-16.234-6.999c-4.358-4.617-6.555-10.687-6.185-17.091c0.218-3.765,0.325-7.593,0.321-11.378
			c-0.035-31.663-8.009-62.732-23.092-90.474c4.767-2.563,9.247-5.843,13.266-9.862c8.498-8.499,13.729-19.041,15.716-30.058
			C477.844,163.24,492,208.369,492,255.996C492,260.634,491.862,265.328,491.592,269.948z"/>
	</g>
</g>
<g>
	<g>
		<path d="M297.984,438.155c-8.536-8.057-20.177-12.297-31.972-11.607c-3.376,0.194-6.831,0.277-10.204,0.288
			c-29.585-0.032-58.594-7.798-84.233-22.482c2.263-16.979-3.105-34.789-16.124-47.809c-13.02-13.019-30.83-18.386-47.808-16.124
			c-14.685-25.64-22.451-54.65-22.483-84.233c-0.004-3.396,0.094-6.828,0.288-10.204c0.681-11.782-3.55-23.436-11.607-31.972
			c-8.077-8.558-19.009-13.271-30.778-13.271H42.86c-22.464,0-41.096,17.627-42.417,40.13C0.149,245.881,0,250.97,0,255.996
			c0,102.82,61.125,195.302,155.724,235.612c1.278,0.545,2.607,0.804,3.915,0.804c3.888,0,7.584-2.281,9.204-6.083
			c2.165-5.081-0.198-10.954-5.279-13.119c-13.457-5.734-26.177-12.617-38.071-20.5c10.981-2.001,21.485-7.226,29.958-15.699
			c4.019-4.019,7.3-8.5,9.862-13.267c27.742,15.085,58.809,23.058,90.474,23.093c3.77-0.002,7.612-0.104,11.378-0.321
			c6.421-0.368,12.475,1.827,17.091,6.185c4.514,4.261,6.999,10.025,6.999,16.234v0.202c0,11.888-9.357,21.75-21.302,22.452
			c-12.399,0.727-25.049,0.476-37.347-0.736c-5.489-0.537-10.39,3.476-10.932,8.973c-0.541,5.496,3.477,10.391,8.973,10.932
			c8.363,0.823,16.894,1.24,25.353,1.24c5.026,0,10.115-0.149,15.125-0.443c22.503-1.321,40.13-19.953,40.13-42.417v-0.202
			C311.255,457.164,306.542,446.233,297.984,438.155z M59.284,386.52C34.167,348.647,20,303.52,20,255.996
			c0-4.637,0.138-9.332,0.408-13.953c0.702-11.944,10.564-21.302,22.452-21.302h0.202c6.209,0,11.974,2.485,16.234,6.999
			c4.358,4.617,6.555,10.687,6.185,17.091c-0.217,3.765-0.325,7.593-0.321,11.378c0.035,31.663,8.009,62.732,23.092,90.474
			c-4.767,2.563-9.247,5.843-13.266,9.862C66.509,365.022,61.283,375.533,59.284,386.52z M141.309,422.867
			c-14.385,14.387-37.795,14.387-52.18,0c-14.387-14.386-14.387-37.794,0-52.18c7.192-7.193,16.642-10.79,26.09-10.79
			s18.897,3.597,26.09,10.79C155.696,385.073,155.696,408.481,141.309,422.867z"/>
	</g>
</g>
<g>
	<g>
		<path d="M198.502,484.945l-0.675-0.17c-5.359-1.349-10.791,1.896-12.142,7.251c-1.351,5.355,1.896,10.791,7.251,12.142l0.675,0.17
			c0.821,0.207,1.644,0.306,2.453,0.306c4.473,0,8.545-3.022,9.688-7.557C207.104,491.732,203.857,486.296,198.502,484.945z"/>
	</g>
</g>
<g>
	<g>
		<path d="M302.581,168.144c-16.983,0-33.479,6.391-46.581,17.809c-13.103-11.418-29.598-17.809-46.581-17.809
			c-40.871,0-74.123,35.957-74.123,80.155c0,25.409,19.703,56.521,58.562,92.469c27.904,25.814,55.364,44.564,56.52,45.351
			c1.697,1.153,3.66,1.73,5.623,1.73c1.963,0,3.926-0.577,5.623-1.73c1.155-0.786,28.615-19.536,56.52-45.351
			c38.858-35.948,58.562-67.06,58.562-92.469C376.704,204.101,343.452,168.144,302.581,168.144z M256,365.659
			c-32.631-23.241-100.704-79.561-100.704-117.36c0-33.17,24.279-60.155,54.123-60.155c14.849,0,28.706,6.565,39.018,18.488
			c1.899,2.196,4.66,3.458,7.563,3.458s5.664-1.262,7.563-3.458c10.312-11.923,24.169-18.488,39.018-18.488
			c29.844,0,54.123,26.985,54.123,60.155C356.704,286.099,288.631,342.418,256,365.659z"/>
	</g>
</g>
<g>
	<g>
		<path d="M304.888,234.676c-3.906-3.905-10.236-3.905-14.142-0.001l-39.429,39.429l-12.532-12.532
			c-3.906-3.904-10.236-3.904-14.143,0c-3.905,3.905-3.905,10.237,0,14.143l19.604,19.604c1.953,1.952,4.512,2.929,7.071,2.929
			s5.118-0.977,7.071-2.929l46.5-46.5C308.793,244.914,308.793,238.582,304.888,234.676z"/>
	</g>
</g>
<g>
</g>
<g>
</g>
<g>
</g>
<g>
</g>
<g>
</g>
<g>
</g>
<g>
</g>
<g>
</g>
<g>
</g>
<g>
</g>
<g>
</g>
<g>
</g>
<g>
</g>
<g>
</g>
<g>
</g>
</svg>
