<?xml version="1.0" encoding="iso-8859-1"?>
<!-- Generator: Adobe Illustrator 19.0.0, SVG Export Plug-In . SVG Version: 6.00 Build 0)  -->
<svg version="1.1" id="Capa_1" xmlns="http://www.w3.org/2000/svg" xmlns:xlink="http://www.w3.org/1999/xlink" x="0px" y="0px"
	 viewBox="0 0 512 512" style="enable-background:new 0 0 512 512;" xml:space="preserve">
<g>
	<g>
		<path d="M103.444,302.71c-5.092-2.141-10.954,0.248-13.095,5.34c-2.645,6.286-8.76,10.348-15.58,10.348h-7.035
			c-5.523,0-10,4.478-10,10c0,5.522,4.477,10,10,10h7.034v0c14.889,0,28.241-8.868,34.015-22.592
			C110.925,310.715,108.534,304.853,103.444,302.71z"/>
	</g>
</g>
<g>
	<g>
		<path d="M502,400.551h-45.716c-3.128,0-6.076,1.464-7.967,3.956l-12.067,15.906C427.896,431.426,414.656,438,400.833,438h-22.664
			c1.771-4.061,2.76-8.538,2.76-13.244c0-9.041-3.632-17.245-9.508-23.244c5.876-5.999,9.508-14.204,9.508-23.244
			s-3.632-17.245-9.508-23.244c5.876-5.999,9.508-14.204,9.508-23.244c0-17.48-13.563-31.841-30.716-33.138
			c0.688-1.715,1.271-3.483,1.726-5.302H384c5.523,0,10-4.478,10-10c0-5.522-4.477-10-10-10h-40.834c-5.523,0-10,4.478-10,10
			c0,11.695-9.515,21.21-21.21,21.21h-1.404v-41.218c0-10.867,8.841-19.709,19.708-19.709h70.574
			c13.822,0,27.062,6.574,35.417,17.587l12.067,15.905c1.891,2.492,4.839,3.956,7.967,3.956H502c5.523,0,10-4.478,10-10
			c0-5.522-4.477-10-10-10h-40.751l-9.065-11.949c-12.112-15.967-31.309-25.499-51.35-25.499H330.26
			c-17.976,0-33.191,12.01-38.066,28.425h-12.95c-9.041,0-17.245,3.632-23.244,9.508c-5.999-5.876-14.204-9.508-23.244-9.508h-12.95
			c-4.875-16.415-20.09-28.425-38.066-28.425h-70.574c-20.041,0-39.238,9.532-51.35,25.499l-9.065,11.949H10
			c-5.523,0-10,4.478-10,10c0,5.522,4.477,10,10,10h45.716c3.128,0,6.076-1.464,7.967-3.956L75.75,261.21
			c8.354-11.013,21.594-17.587,35.417-17.587h70.574c10.867,0,19.708,8.842,19.708,19.709v41.218h-1.404
			c-11.695,0-21.21-9.515-21.21-21.21c0-5.522-4.477-10-10-10H128c-5.523,0-10,4.478-10,10c0,5.522,4.477,10,10,10h32.061
			c0.455,1.819,1.038,3.587,1.726,5.302c-17.153,1.297-30.716,15.658-30.716,33.138c0,9.041,3.632,17.245,9.508,23.244
			c-5.876,5.999-9.508,14.204-9.508,23.244s3.632,17.245,9.508,23.244c-5.876,5.999-9.508,14.204-9.508,23.244
			c0,4.706,0.989,9.183,2.76,13.244h-22.664c-13.822,0-27.063-6.574-35.417-17.587l-12.067-15.906
			c-1.891-2.492-4.838-3.956-7.967-3.956H10c-5.523,0-10,4.478-10,10c0,5.522,4.477,10,10,10h40.75l9.066,11.95
			C71.929,448.468,91.125,458,111.167,458h121.589c9.041,0,17.245-3.632,23.244-9.508c5.999,5.876,14.204,9.508,23.244,9.508
			h121.589c20.041,0,39.238-9.532,51.35-25.499l9.066-11.95H502c5.523,0,10-4.478,10-10C512,405.029,507.523,400.551,502,400.551z
			 M232.756,438h-68.441c-7.303,0-13.244-5.941-13.244-13.244s5.941-13.244,13.244-13.244h68.441
			c7.303,0,13.244,5.941,13.244,13.244S240.059,438,232.756,438z M232.756,391.512h-68.441c-7.303,0-13.244-5.942-13.244-13.244
			c0-7.303,5.941-13.244,13.244-13.244h68.441c7.303,0,13.244,5.941,13.244,13.244S240.059,391.512,232.756,391.512z
			 M232.756,345.023h-68.441c-7.303,0-13.244-5.941-13.244-13.244s5.941-13.244,13.244-13.244h14.314
			c6.245,3.814,13.578,6.014,21.416,6.014h11.404c4.105,0,7.628-2.476,9.169-6.014h12.138c7.303,0,13.244,5.941,13.244,13.244
			S240.059,345.023,232.756,345.023z M232.756,298.535h-11.307v-26.488h11.307c7.303,0,13.244,5.941,13.244,13.244
			C246,292.594,240.059,298.535,232.756,298.535z M279.244,272.047h11.307v26.488h-11.307c-7.303,0-13.244-5.941-13.244-13.244
			S271.941,272.047,279.244,272.047z M279.244,318.535h12.138c1.541,3.538,5.064,6.014,9.169,6.014h11.404
			c7.837,0,15.171-2.2,21.416-6.014h14.314c7.303,0,13.244,5.941,13.244,13.244s-5.941,13.244-13.244,13.244h-68.441
			c-7.303,0-13.244-5.941-13.244-13.244S271.941,318.535,279.244,318.535z M347.685,438h-68.441
			c-7.303,0-13.244-5.941-13.244-13.244s5.941-13.244,13.244-13.244h68.441c7.303,0,13.244,5.941,13.244,13.244
			S354.988,438,347.685,438z M347.685,391.512h-68.441c-7.303,0-13.244-5.942-13.244-13.244c0-7.303,5.941-13.244,13.244-13.244
			h68.441c7.303,0,13.244,5.941,13.244,13.244S354.988,391.512,347.685,391.512z"/>
	</g>
</g>
<g>
	<g>
		<path d="M444.222,318.398h-7.036c-6.82,0-12.935-4.062-15.58-10.348c-2.142-5.091-8.007-7.48-13.095-5.34
			c-5.091,2.143-7.481,8.005-5.339,13.096c5.774,13.724,19.125,22.592,34.015,22.592h7.035c5.523,0,10-4.478,10-10
			C454.222,322.876,449.745,318.398,444.222,318.398z"/>
	</g>
</g>
<g>
	<g>
		<path d="M255.987,54c-5.523,0-10,4.478-10,10v76c0,5.522,4.477,10,10,10s10-4.478,10-10V64C265.987,58.478,261.51,54,255.987,54z"
			/>
	</g>
</g>
<g>
	<g>
		<path d="M263.06,170.43c-1.86-1.861-4.44-2.93-7.07-2.93s-5.21,1.069-7.07,2.93c-1.86,1.861-2.93,4.44-2.93,7.07
			s1.07,5.21,2.93,7.069c1.86,1.86,4.44,2.931,7.07,2.931s5.21-1.07,7.07-2.931c1.86-1.859,2.93-4.439,2.93-7.069
			S264.92,172.29,263.06,170.43z"/>
	</g>
</g>
<g>
	<g>
		<path d="M189.152,146.381l-52.186-52.147c-3.906-3.903-10.238-3.901-14.142,0.005c-3.904,3.906-3.901,10.238,0.005,14.142
			l52.186,52.147c1.953,1.951,4.51,2.927,7.068,2.927c2.56,0,5.121-0.978,7.074-2.932
			C193.061,156.617,193.058,150.285,189.152,146.381z"/>
	</g>
</g>
<g>
	<g>
		<path d="M389.171,96.822c-3.907-3.901-10.239-3.901-14.142,0.006l-47.942,47.981c-3.904,3.907-3.901,10.238,0.005,14.143
			c1.952,1.95,4.51,2.926,7.068,2.926c2.561,0,5.121-0.978,7.074-2.932l47.942-47.981
			C393.08,107.058,393.077,100.727,389.171,96.822z"/>
	</g>
</g>
<g>
</g>
<g>
</g>
<g>
</g>
<g>
</g>
<g>
</g>
<g>
</g>
<g>
</g>
<g>
</g>
<g>
</g>
<g>
</g>
<g>
</g>
<g>
</g>
<g>
</g>
<g>
</g>
<g>
</g>
</svg>
