<?xml version="1.0" encoding="iso-8859-1"?>
<!-- Generator: Adobe Illustrator 19.0.0, SVG Export Plug-In . SVG Version: 6.00 Build 0)  -->
<svg version="1.1" id="Capa_1" xmlns="http://www.w3.org/2000/svg" xmlns:xlink="http://www.w3.org/1999/xlink" x="0px" y="0px"
	 viewBox="0 0 512 512" style="enable-background:new 0 0 512 512;" xml:space="preserve">
<g>
	<g>
		<path d="M431.248,216.643c-0.136-0.002-0.271-0.003-0.407-0.003c-9.311,0-18.069,3.598-24.702,10.156
			c-6.729,6.653-10.434,15.528-10.434,24.991v0.227c0,55.705-41.831,101.821-95.729,108.591C308.109,350.75,313,338.125,313,324.38
			v-62.291c0-0.635-0.066-1.254-0.179-1.856c0.112-1.25,0.179-2.513,0.179-3.792v-29.332c0-5.522-4.477-10-10-10h-60.619
			c-23.92,0-43.381,19.46-43.381,43.38v28.117v35.774c0,13.745,4.891,26.37,13.023,36.225
			c-53.898-6.771-95.729-52.887-95.729-108.591v-0.229c0-19.38-15.767-35.146-35.147-35.146c-19.38,0-35.147,15.767-35.147,35.146
			v0.229c0,38.681,12.151,75.558,35.139,106.646c21.06,28.481,49.39,49.785,82.268,61.945V502c0,5.522,4.477,10,10,10
			c5.523,0,10-4.478,10-10v-88.506c0-4.332-2.79-8.172-6.91-9.511C110.405,382.511,66,321.439,66,252.014v-0.229
			c0-8.352,6.795-15.146,15.147-15.146c8.353,0,15.147,6.795,15.147,15.146v0.229c0,68.402,53.331,124.574,120.595,129.14
			l29.238,41.504v30.599c0,5.522,4.477,10,10,10s10-4.478,10-10v-30.959l28.984-41.144c67.264-4.567,120.595-60.738,120.595-129.14
			v-0.227c0-4.078,1.597-7.903,4.497-10.771c2.859-2.826,6.633-4.377,10.646-4.377c0.058,0,0.117,0.001,0.175,0.001
			c8.258,0.094,14.977,6.888,14.977,15.146v0.227c0,69.424-44.405,130.495-110.496,151.968c-4.121,1.339-6.91,5.179-6.91,9.511
			v52.175c0,5.522,4.477,10,10,10s10-4.478,10-10v-45.063c32.877-12.16,61.207-33.464,82.268-61.944
			C453.849,327.571,466,290.693,466,252.014v-0.227C466,232.624,450.411,216.858,431.248,216.643z M256,401.945l-14.429-20.482
			h28.857L256,401.945z M293,324.379c0,20.402-16.598,37-37,37c-20.402,0-37-16.598-37-37v-25.774h51.835
			c8.127,0,15.72-2.317,22.165-6.317V324.379z M293,256.44c0,12.222-9.943,22.165-22.165,22.165H219v-18.117
			c0-12.892,10.489-23.38,23.381-23.38H293V256.44z"/>
	</g>
</g>
<g>
	<g>
		<path d="M345.66,494.93c-1.86-1.861-4.43-2.93-7.07-2.93c-2.63,0-5.2,1.069-7.07,2.93c-1.86,1.86-2.93,4.44-2.93,7.07
			s1.07,5.21,2.93,7.069c1.86,1.86,4.44,2.931,7.07,2.931c2.64,0,5.21-1.07,7.07-2.931c1.87-1.859,2.93-4.439,2.93-7.069
			S347.53,496.79,345.66,494.93z"/>
	</g>
</g>
<g>
	<g>
		<path d="M418,0c-51.832,0-94,42.168-94,94c0,51.832,42.168,94,94,94c51.832,0,94-42.168,94-94C512,42.168,469.832,0,418,0z
			 M467.818,148.669C454.66,160.67,437.171,168,418,168c-19.173,0-36.665-7.332-49.824-19.336v-1.476
			c0-7.76,5.537-14.425,13.166-15.849l10.401-1.94c6.882,6.433,16.113,10.382,26.254,10.382s19.373-3.949,26.254-10.382l10.4,1.94
			c7.629,1.424,13.167,8.089,13.167,15.849V148.669z M399.511,101.295v-8.912c0-10.193,8.293-18.486,18.486-18.486
			s18.486,8.293,18.486,18.486v8.912c0,10.193-8.293,18.486-18.486,18.486S399.511,111.488,399.511,101.295z M483.049,129.255
			c-5.128-8.952-14.005-15.577-24.729-17.577l-3.105-0.579c0.826-3.132,1.27-6.417,1.27-9.805v-8.912
			c0-21.222-17.265-38.486-38.486-38.486c-21.221,0-38.486,17.265-38.486,38.486v8.912c0,3.388,0.444,6.673,1.27,9.804l-3.106,0.579
			c-10.722,2-19.598,8.623-24.727,17.572C347.244,118.765,344,106.754,344,94c0-40.804,33.196-74,74-74c40.804,0,74,33.196,74,74
			C492,106.756,488.755,118.768,483.049,129.255z"/>
	</g>
</g>
<g>
	<g>
		<path d="M94,0C42.168,0,0,42.168,0,94c0,51.832,42.168,94,94,94c51.832,0,94-42.168,94-94C188,42.168,145.832,0,94,0z
			 M143.818,148.669C130.66,160.67,113.171,168,94,168c-19.173,0-36.665-7.332-49.824-19.336v-1.476
			c0-7.76,5.537-14.425,13.166-15.849l10.401-1.94c6.882,6.433,16.113,10.382,26.254,10.382s19.373-3.949,26.254-10.382l10.4,1.94
			c7.629,1.424,13.167,8.089,13.167,15.849V148.669z M75.512,101.295v-8.912c0-10.193,8.293-18.486,18.486-18.486
			s18.486,8.293,18.486,18.486v8.912c0,10.193-8.293,18.486-18.486,18.486S75.512,111.488,75.512,101.295z M159.049,129.255
			c-5.128-8.952-14.005-15.577-24.729-17.577l-3.105-0.579c0.826-3.132,1.27-6.417,1.27-9.805v-8.912
			c0-21.222-17.265-38.486-38.486-38.486S55.511,71.161,55.511,92.383v8.912c0,3.388,0.444,6.673,1.27,9.804l-3.106,0.579
			c-10.722,2-19.598,8.623-24.727,17.572C23.244,118.765,20,106.754,20,94c0-40.804,33.196-74,74-74s74,33.196,74,74
			C168,106.756,164.755,118.768,159.049,129.255z"/>
	</g>
</g>
<g>
	<g>
		<path d="M291.666,84h-71.333c-5.523,0-10,4.478-10,10c0,5.522,4.478,10,10,10h71.333c5.523,0,10-4.478,10-10
			C301.666,88.478,297.189,84,291.666,84z"/>
	</g>
</g>
<g>
</g>
<g>
</g>
<g>
</g>
<g>
</g>
<g>
</g>
<g>
</g>
<g>
</g>
<g>
</g>
<g>
</g>
<g>
</g>
<g>
</g>
<g>
</g>
<g>
</g>
<g>
</g>
<g>
</g>
</svg>
