<?xml version="1.0" encoding="iso-8859-1"?>
<!-- Generator: Adobe Illustrator 19.0.0, SVG Export Plug-In . SVG Version: 6.00 Build 0)  -->
<svg version="1.1" id="Capa_1" xmlns="http://www.w3.org/2000/svg" xmlns:xlink="http://www.w3.org/1999/xlink" x="0px" y="0px"
	 viewBox="0 0 512 512" style="enable-background:new 0 0 512 512;" xml:space="preserve">
<g>
	<g>
		<path d="M502.001,458.26c-5.521,0-9.999,4.478-9.999,9.999v23.717h-49.245v-38.965c0-5.521-4.478-9.999-9.999-9.999
			c-5.521,0-9.999,4.478-9.999,9.999v38.965h-156.53v-47.433h130.097c24.604,0,44.62-20.017,44.62-44.62
			c0-24.603-20.017-44.62-44.62-44.62H290.621c-5.521,0-9.999,4.478-9.999,9.999s4.478,9.999,9.999,9.999h105.704
			c13.577,0,24.622,11.046,24.622,24.622c0,13.577-11.046,24.622-24.622,24.622H256.23c-0.015,0-0.028,0.001-0.043,0.001
			c-0.008,0-0.015-0.001-0.023-0.001c-0.025,0-0.05,0.004-0.075,0.004c-0.197,0.003-0.378,0.012-0.546,0.027
			c-5.231,0.323-9.378,4.656-9.378,9.968v37.496c-0.167,0.726-0.265,1.478-0.265,2.254v17.681H89.241V453.01
			c0-5.521-4.478-9.999-9.999-9.999s-9.999,4.478-9.999,9.999v38.965H19.998V367.867c0-32.3,24.908-58.875,56.523-61.568
			c-4.595,7.013-7.278,15.387-7.278,24.38c0,24.604,20.017,44.62,44.62,44.62h106.614c5.521,0,9.999-4.478,9.999-9.999
			c0-5.521-4.478-9.999-9.999-9.999H113.863c-13.577,0-24.623-11.046-24.623-24.622c0-13.577,11.046-24.622,24.623-24.622h88.905
			h227.425c34.082,0,61.808,27.727,61.808,61.809v25.545c0,5.521,4.478,9.999,9.999,9.999s9.999-4.478,9.999-9.999v-25.544H512
			c0-45.108-36.698-81.807-81.806-81.807h-37.065c13.551-13.027,22.009-31.314,22.009-51.551v-11.192
			c0-39.452-32.097-71.549-71.549-71.549c-39.452,0-71.549,32.097-71.549,71.549v11.191c0,20.237,8.458,38.523,22.009,51.551
			h-76.775c13.551-13.027,22.009-31.314,22.009-51.551v-11.191c0-39.452-32.097-71.549-71.549-71.549
			c-39.452,0-71.549,32.097-71.549,71.549v11.191c0,20.237,8.458,38.523,22.009,51.551h-4.334H81.804
			C36.698,286.059,0,322.758,0,367.867v134.108c0,5.521,4.478,9.999,9.999,9.999h492.002c5.521,0,9.999-4.478,9.999-9.999v-33.716
			C512,462.738,507.522,458.26,502.001,458.26z M292.038,234.509v-11.192c0-28.425,23.126-51.551,51.551-51.551
			c28.425,0,51.551,23.126,51.551,51.551v11.191c0,28.425-23.126,51.551-51.551,51.551
			C315.164,286.059,292.038,262.933,292.038,234.509z M116.185,234.509v-11.192c0-28.425,23.126-51.551,51.551-51.551
			s51.551,23.126,51.551,51.551v11.191c0,28.425-23.126,51.551-51.551,51.551S116.185,262.933,116.185,234.509z"/>
	</g>
</g>
<g>
	<g>
		<path d="M509.068,422.913c-1.86-1.861-4.44-2.93-7.069-2.93c-2.63,0-5.209,1.069-7.069,2.93c-1.859,1.86-2.93,4.44-2.93,7.069
			c0,2.63,1.07,5.209,2.93,7.068c1.86,1.86,4.44,2.931,7.069,2.931c2.63,0,5.209-1.07,7.069-2.931
			c1.859-1.859,2.93-4.439,2.93-7.068C511.998,427.342,510.928,424.773,509.068,422.913z"/>
	</g>
</g>
<g>
	<g>
		<path d="M365.463,0.026H146.485c-33.356,0-60.494,27.138-60.494,60.494c0,33.356,27.138,60.494,60.494,60.494h82.968
			l17.862,30.939c1.786,3.094,5.087,5,8.659,5s6.873-1.906,8.659-5l17.862-30.939h82.968c33.356,0,60.494-27.138,60.494-60.494
			C425.957,27.164,398.818,0.026,365.463,0.026z M365.463,101.016h-88.74c-3.572,0-6.873,1.906-8.659,5l-12.09,20.94l-12.09-20.94
			c-1.786-3.094-5.087-5-8.659-5h-88.74c-22.33,0-40.496-18.166-40.496-40.496c0-22.33,18.166-40.496,40.496-40.496h218.978
			c22.33,0,40.496,18.166,40.496,40.496C405.959,82.85,387.793,101.016,365.463,101.016z"/>
	</g>
</g>
<g>
	<g>
		<path d="M201.499,56.95c-1.87-1.86-4.45-2.93-7.079-2.93s-5.209,1.069-7.068,2.93c-1.86,1.86-2.931,4.44-2.931,7.069
			c0,2.63,1.07,5.209,2.931,7.068c1.859,1.861,4.44,2.931,7.068,2.931c2.63,0,5.209-1.07,7.079-2.931
			c1.86-1.859,2.92-4.439,2.92-7.068C204.418,61.39,203.358,58.81,201.499,56.95z"/>
	</g>
</g>
<g>
	<g>
		<path d="M263.042,56.95c-1.859-1.86-4.439-2.93-7.068-2.93s-5.209,1.069-7.069,2.93c-1.86,1.861-2.93,4.44-2.93,7.069
			c0,2.63,1.069,5.209,2.93,7.068c1.86,1.861,4.44,2.931,7.069,2.931s5.209-1.07,7.068-2.931c1.86-1.859,2.931-4.439,2.931-7.068
			C265.973,61.39,264.903,58.81,263.042,56.95z"/>
	</g>
</g>
<g>
	<g>
		<path d="M324.597,56.95c-1.861-1.86-4.44-2.93-7.069-2.93c-2.64,0-5.209,1.069-7.079,2.93c-1.859,1.86-2.92,4.44-2.92,7.069
			c0,2.63,1.061,5.209,2.92,7.068c1.87,1.861,4.44,2.931,7.079,2.931c2.63,0,5.209-1.07,7.069-2.931
			c1.86-1.859,2.93-4.439,2.93-7.068C327.527,61.39,326.458,58.81,324.597,56.95z"/>
	</g>
</g>
<g>
	<g>
		<path d="M262.973,358.23c-1.87-1.86-4.44-2.931-7.079-2.931c-2.63,0-5.209,1.071-7.069,2.931c-1.859,1.859-2.92,4.439-2.92,7.068
			c0,2.641,1.061,5.209,2.92,7.069c1.87,1.86,4.44,2.93,7.069,2.93c2.64,0,5.209-1.069,7.079-2.93c1.859-1.86,2.93-4.44,2.93-7.069
			C265.903,362.668,264.833,360.088,262.973,358.23z"/>
	</g>
</g>
<g>
</g>
<g>
</g>
<g>
</g>
<g>
</g>
<g>
</g>
<g>
</g>
<g>
</g>
<g>
</g>
<g>
</g>
<g>
</g>
<g>
</g>
<g>
</g>
<g>
</g>
<g>
</g>
<g>
</g>
</svg>
