<?xml version="1.0" encoding="iso-8859-1"?>
<!-- Generator: Adobe Illustrator 19.0.0, SVG Export Plug-In . SVG Version: 6.00 Build 0)  -->
<svg version="1.1" id="Capa_1" xmlns="http://www.w3.org/2000/svg" xmlns:xlink="http://www.w3.org/1999/xlink" x="0px" y="0px"
	 viewBox="0 0 512 512" style="enable-background:new 0 0 512 512;" xml:space="preserve">
<g>
	<g>
		<path d="M511.57,343.729l-25.718-84.821c-0.383-38.657-15.499-75.053-42.663-102.633c-27.485-27.906-64.173-43.623-103.305-44.256
			c-30.279-0.467-59.242,7.884-83.935,23.915C231.703,120.242,203.786,112,174.626,112c-0.834,0-1.674,0.007-2.509,0.02
			c-39.132,0.633-75.819,16.35-103.305,44.256c-27.164,27.58-42.28,63.976-42.663,102.634L0.431,343.73
			c-0.919,3.03-0.349,6.315,1.538,8.859c1.886,2.543,4.865,4.042,8.031,4.042h29.326c1.157,0,2.099,0.941,2.099,2.098v41.66
			c0,27.208,22.136,49.344,49.344,49.344h23.878c5.83,0,10.573,4.743,10.573,10.573V502c0,5.522,4.478,10,10,10h241.561
			c5.522,0,10-4.478,10-10v-41.694c0-5.83,4.743-10.573,10.573-10.573h23.878c27.208,0,49.344-22.136,49.344-49.344v-41.66
			c0-1.156,0.941-2.098,2.099-2.098h29.326c3.166,0,6.146-1.499,8.031-4.042C511.919,350.045,512.489,346.759,511.57,343.729z
			 M245.875,492h-20v-30c0-5.522-4.478-10-10-10c-5.522,0-10,4.478-10,10v30h-60.654v-31.694c0-16.859-13.715-30.574-30.574-30.574
			H90.77c-16.181,0-29.344-13.163-29.344-29.344v-41.66c0-12.185-9.913-22.098-22.099-22.098H23.482l22.229-73.313
			c0.286-0.94,0.431-1.918,0.431-2.901c0-69.675,56.657-127.273,126.298-128.398c23.586-0.363,46.264,5.451,66.369,16.902
			c-2.177,1.909-4.313,3.879-6.394,5.927C204.45,182.364,189.05,219,189.05,258.008c0,36.563,12.478,72.247,37.087,106.063
			c12.913,17.742,19.738,38.489,19.738,59.998V492z M220.012,206.855l26.115,26.115v48.263l-36.387-36.387
			C211.129,231.606,214.603,218.816,220.012,206.855z M246.128,357.896c-1.226-1.887-2.486-3.759-3.821-5.593
			c-18.574-25.523-29.439-52.039-32.416-79.021l36.237,36.237V357.896z M246.128,204.686l-15.983-15.983
			c4.62-6.859,9.96-13.317,15.983-19.284V204.686z M266.128,169.687c5.87,5.854,11.145,12.256,15.745,19.097l-15.745,15.745V169.687
			z M266.128,232.815l25.874-25.874c5.478,12.111,8.916,24.852,10.276,38.038l-36.15,36.151V232.815z M266.128,309.415
			l35.962-35.963c-3.003,26.923-13.86,53.381-32.394,78.85c-1.243,1.708-2.42,3.447-3.568,5.2V309.415z M472.675,336.629v0.002
			c-12.186,0-22.099,9.913-22.099,22.098v41.66c0,16.18-13.163,29.344-29.344,29.344h-23.878c-16.858,0-30.573,13.715-30.573,30.573
			V492H266.128v-67.931c0-21.509,6.825-42.256,19.739-59.999c24.608-33.815,37.086-69.5,37.086-106.063
			c0-21.805-4.741-42.75-14.092-62.256c-8.533-17.796-20.751-33.781-35.726-46.874c19.935-11.373,42.689-17.25,66.427-16.86
			c69.641,1.125,126.298,58.724,126.298,128.398c0,0.983,0.145,1.961,0.431,2.901l22.229,73.313H472.675z"/>
	</g>
</g>
<g>
	<g>
		<path d="M256.001,0c-5.522,0-10,4.478-10,10v51.03c0,5.523,4.478,10,10,10c5.522,0,10-4.478,10-10V10
			C266.001,4.478,261.523,0,256.001,0z"/>
	</g>
</g>
<g>
	<g>
		<path d="M263.07,89.92c-1.859-1.87-4.439-2.94-7.069-2.94c-2.63,0-5.21,1.07-7.07,2.94c-1.86,1.85-2.93,4.43-2.93,7.07
			c0,2.63,1.069,5.199,2.93,7.069c1.86,1.861,4.44,2.92,7.07,2.92c2.63,0,5.21-1.06,7.069-2.92c1.86-1.87,2.931-4.439,2.931-7.069
			C266.001,94.349,264.931,91.769,263.07,89.92z"/>
	</g>
</g>
<g>
	<g>
		<path d="M208.392,73.653l-29.283-29.266c-3.907-3.903-10.237-3.9-14.143,0.004c-3.904,3.907-3.902,10.238,0.004,14.143
			L194.254,87.8c1.953,1.951,4.511,2.927,7.069,2.927c2.561,0,5.12-0.978,7.073-2.931C212.3,83.889,212.298,77.558,208.392,73.653z"
			/>
	</g>
</g>
<g>
	<g>
		<path d="M346.792,44.648c-3.907-3.902-10.237-3.902-14.143,0.004l-30.34,30.356c-3.904,3.906-3.902,10.238,0.004,14.143
			c1.954,1.952,4.511,2.927,7.07,2.927c2.56,0,5.12-0.978,7.073-2.931l30.34-30.356C350.7,54.885,350.698,48.553,346.792,44.648z"/>
	</g>
</g>
<g>
	<g>
		<path d="M222.94,417c-1.859-1.86-4.439-2.931-7.069-2.931s-5.21,1.07-7.07,2.931c-1.86,1.859-2.93,4.43-2.93,7.069
			c0,2.631,1.069,5.211,2.93,7.07c1.86,1.861,4.44,2.93,7.07,2.93c2.64,0,5.21-1.069,7.069-2.93c1.87-1.859,2.931-4.439,2.931-7.07
			C225.871,421.439,224.81,418.859,222.94,417z"/>
	</g>
</g>
<g>
</g>
<g>
</g>
<g>
</g>
<g>
</g>
<g>
</g>
<g>
</g>
<g>
</g>
<g>
</g>
<g>
</g>
<g>
</g>
<g>
</g>
<g>
</g>
<g>
</g>
<g>
</g>
<g>
</g>
</svg>
