<?xml version="1.0" encoding="iso-8859-1"?>
<!-- Generator: Adobe Illustrator 19.0.0, SVG Export Plug-In . SVG Version: 6.00 Build 0)  -->
<svg version="1.1" id="Capa_1" xmlns="http://www.w3.org/2000/svg" xmlns:xlink="http://www.w3.org/1999/xlink" x="0px" y="0px"
	 viewBox="0 0 512 512" style="enable-background:new 0 0 512 512;" xml:space="preserve">
<g>
	<g>
		<path d="M509.072,75.558c-3.906-3.904-10.236-3.904-14.143,0c-20.44,20.441-35.663,46.452-44.02,75.221
			c-0.542,1.862-1.139,3.775-1.772,5.682c-10.318,30.971-28.525,53.609-29.297,54.559c-0.3,0.369-0.618,0.723-0.946,1.052
			c-4.857,4.855-12.549,5.246-17.894,0.907c-2.453-1.991-4.01-4.679-4.632-7.55c-0.019-0.07-0.032-0.141-0.051-0.211
			c-0.757-3.782,0.112-7.861,2.729-11.084c0.151-0.187,15.177-18.89,23.887-43.748c11.892-33.937,6.722-63.329-14.95-85.002
			c-9.754-9.753-22.582-15.316-36.124-15.664c-13.741-0.365-26.526,4.682-36.019,14.174c-9.745,9.743-14.771,22.87-14.152,36.963
			c0.324,7.378-5.415,13.645-12.793,13.97c-7.376,0.329-13.646-5.416-13.97-12.793c-0.939-21.373,7.068-42.179,21.972-57.082
			c20.435-20.434,50.592-27.304,78.697-17.927c15.164,5.057,31.543,1.248,42.736-9.945c3.905-3.905,3.905-10.237,0-14.143
			c-3.906-3.904-10.236-3.904-14.143,0c-5.801,5.802-14.332,7.762-22.266,5.115c-35.341-11.789-73.342-3.071-99.168,22.755
			c-18.858,18.86-28.995,45.141-27.81,72.104c0.357,8.12,3.606,15.435,8.702,21.01l-13.774,13.775
			c-1.317-2.251-2.923-4.337-4.782-6.196l-0.605-0.605c-11.938-11.936-31.36-11.937-43.298,0.001
			c-11.937,11.938-11.937,31.36,0,43.297l0.607,0.606c1.859,1.859,3.943,3.464,6.194,4.781l-16.859,16.858
			c-2.683,2.683-4.437,5.937-5.309,9.372c-3.434,0.872-6.688,2.626-9.371,5.308l-16.858,16.858
			c-1.316-2.251-2.923-4.336-4.781-6.195l-0.605-0.605c-11.938-11.938-31.36-11.937-43.298,0c-11.937,11.938-11.937,31.36,0,43.298
			l0.605,0.605c1.859,1.858,3.944,3.465,6.195,4.781l-13.777,13.777c-5.58-5.098-12.903-8.347-21.026-8.705
			c-26.955-1.191-53.243,8.951-72.102,27.811C4.976,328.567-3.744,366.566,8.044,401.91c2.646,7.933,0.687,16.465-5.115,22.266
			c-3.905,3.905-3.905,10.237,0,14.143c3.906,3.904,10.236,3.904,14.143,0c11.193-11.194,15.005-27.57,9.945-42.736
			c-9.376-28.109-2.506-58.265,17.928-78.697c14.901-14.902,35.685-22.913,57.081-21.973c7.378,0.325,13.117,6.593,12.794,13.97
			c-0.325,7.379-6.585,13.104-13.97,12.794c-14.083-0.616-27.218,4.404-36.964,14.15c-19.479,19.479-18.809,51.843,1.491,72.144
			c15.69,15.69,33.521,21.188,50.809,21.187c40.179-0.003,77.416-29.696,77.946-30.127c5.734-4.653,14.186-3.774,18.84,1.96
			c4.338,5.345,3.947,13.037-0.901,17.887c-0.336,0.336-0.691,0.656-1.058,0.953c-0.949,0.771-23.595,18.98-54.56,29.297
			c-1.878,0.626-3.79,1.222-5.681,1.771c-28.77,8.358-54.78,23.58-75.22,44.021c-3.905,3.905-3.905,10.236,0,14.142
			c1.953,1.953,4.512,2.929,7.07,2.929c2.56,0,5.119-0.977,7.072-2.929c18.064-18.064,41.114-31.535,66.657-38.957
			c2.14-0.621,4.302-1.296,6.424-2.003c34.379-11.454,59.775-31.878,60.84-32.741c0.896-0.727,1.766-1.511,2.592-2.335
			c12.121-12.124,13.106-31.314,2.293-44.638c-0.071-0.088-0.147-0.169-0.219-0.256l13.847-13.847
			c1.317,2.251,2.923,4.337,4.782,6.195l0.605,0.605c11.938,11.936,31.36,11.937,43.298-0.001c11.937-11.938,11.937-31.36,0-43.297
			l-0.605-0.605c-1.859-1.859-3.945-3.465-6.196-4.782l16.859-16.858c2.683-2.683,4.437-5.937,5.309-9.372
			c3.434-0.872,6.688-2.626,9.371-5.308l22.043-22.043c3.788-3.788,5.282-9.36,3.898-14.541c-1.375-5.153-5.422-9.216-10.563-10.604
			c-1.798-0.484-3.385-1.405-4.716-2.737l-0.605-0.605c-4.14-4.139-4.14-10.874,0-15.013c4.138-4.139,10.873-4.141,15.013,0
			l0.605,0.605c1.332,1.331,2.253,2.918,2.738,4.718c1.387,5.139,5.449,9.186,10.603,10.561c5.182,1.386,10.753-0.111,14.541-3.898
			l19.022-19.022c0.089,0.074,0.174,0.153,0.265,0.226c6.187,5.021,13.637,7.498,21.058,7.498c8.563,0,17.086-3.298,23.581-9.792
			c0.815-0.816,1.601-1.688,2.333-2.59c0.864-1.063,21.287-26.454,32.744-60.845c0.717-2.152,1.39-4.313,2.002-6.42
			c7.421-25.543,20.892-48.593,38.957-66.658C512.977,85.795,512.977,79.463,509.072,75.558z M181.554,383.479
			c-0.624,0.5-62.842,49.54-102.034,10.348c-12.503-12.503-13.172-32.178-1.492-43.858c5.732-5.73,13.554-8.68,21.943-8.313
			c12.84,0.578,24.313-6.225,30.358-16.635l7.382,7.382c-2.281,1.326-4.396,2.949-6.282,4.834l-0.598,0.6
			c-5.783,5.782-8.969,13.471-8.969,21.648c0,8.179,3.186,15.867,8.968,21.649c11.938,11.936,31.358,11.936,43.304-0.006
			l0.597-0.599c1.883-1.882,3.505-3.994,4.831-6.276l6.273,6.274C184.355,381.386,182.923,382.368,181.554,383.479z M286.73,301.397
			l-22.043,22.043c-3.789,3.789-5.283,9.362-3.898,14.544c1.376,5.153,5.424,9.215,10.562,10.601
			c1.798,0.484,3.385,1.406,4.717,2.738l0.605,0.605c4.139,4.139,4.139,10.874,0.001,15.013c-4.141,4.137-10.875,4.139-15.014,0
			l-0.607-0.606c-1.331-1.331-2.252-2.917-2.736-4.715c-1.386-5.139-5.447-9.187-10.601-10.563
			c-5.185-1.387-10.755,0.109-14.544,3.898l-22.043,22.043c-0.067,0.067-0.156,0.095-0.244,0.101
			c-0.047-0.012-0.093-0.026-0.14-0.038c-0.053-0.018-0.111-0.021-0.153-0.063l-22.091-22.09c-2.855-2.856-6.721-4.409-10.67-4.409
			c-1.302,0-2.613,0.169-3.9,0.516c-5.163,1.39-9.222,5.456-10.591,10.614c-0.476,1.789-1.425,3.434-2.755,4.763l-0.598,0.6
			c-4.14,4.137-10.875,4.14-15.015,0c-2.005-2.005-3.109-4.671-3.109-7.507c0-2.835,1.104-5.501,3.116-7.512l0.597-0.599
			c1.344-1.343,2.945-2.269,4.759-2.749c5.156-1.368,9.223-5.425,10.613-10.587c1.398-5.19-0.092-10.774-3.89-14.574l-22.068-22.067
			c-0.148-0.148-0.148-0.389,0-0.537l22.036-22.036c0.002-0.003,0.004-0.005,0.007-0.007c3.788-3.788,5.282-9.36,3.898-14.541
			c-1.375-5.153-5.422-9.216-10.563-10.604c-1.798-0.484-3.385-1.405-4.716-2.737l-0.605-0.605
			c-2.005-2.005-3.109-4.671-3.109-7.506c0-2.836,1.104-5.502,3.109-7.507s4.671-3.109,7.506-3.109c2.836,0,5.502,1.104,7.507,3.109
			l0.605,0.605c1.332,1.331,2.253,2.918,2.737,4.716c1.386,5.139,5.447,9.186,10.601,10.563c5.181,1.38,10.754-0.109,14.544-3.898
			l22.043-22.043c0.148-0.148,0.389-0.148,0.537,0l16.625,16.624c-1.813,1.173-3.507,2.537-5.036,4.066l-0.605,0.605
			c-11.937,11.937-11.937,31.359,0,43.298c5.782,5.782,13.471,8.967,21.648,8.967c8.179,0,15.867-3.185,21.649-8.967l0.605-0.605
			c1.549-1.55,2.909-3.229,4.074-5.028l16.641,16.641C286.878,301.009,286.878,301.249,286.73,301.397z M377.009,211.12
			l-16.857,16.856c-1.316-2.251-2.923-4.336-4.781-6.195l-0.605-0.605c-11.938-11.938-31.36-11.937-43.298,0
			c-11.937,11.938-11.937,31.36,0,43.298l0.605,0.605c1.859,1.858,3.945,3.465,6.195,4.781l-16.858,16.858
			c-0.148,0.148-0.389,0.148-0.537,0l-21.557-21.556c-3.717-3.716-8.991-5.216-14.114-4.006c-5.091,1.201-9.116,4.873-10.771,9.825
			c-0.52,1.559-1.381,2.946-2.559,4.124l-0.605,0.605c-4.139,4.14-10.874,4.138-15.013,0.001c-4.139-4.14-4.139-10.875,0-15.014
			l0.605-0.605c1.179-1.179,2.566-2.04,4.125-2.561c4.951-1.653,8.624-5.681,9.824-10.772c1.207-5.121-0.292-10.397-4.008-14.112
			l-21.53-21.53c-0.148-0.148-0.148-0.389,0-0.537l22.043-22.043c3.789-3.789,5.283-9.362,3.898-14.544
			c-1.376-5.153-5.424-9.215-10.562-10.601c-1.797-0.484-3.385-1.406-4.717-2.738l-0.605-0.605
			c-4.139-4.139-4.139-10.874-0.001-15.013c4.14-4.138,10.874-4.14,15.014,0l0.605,0.605c1.332,1.332,2.254,2.919,2.738,4.716
			c1.386,5.138,5.447,9.186,10.6,10.562c5.182,1.385,10.754-0.108,14.545-3.897l22.043-22.043c0.148-0.148,0.389-0.148,0.537,0
			l21.53,21.53c3.719,3.717,8.994,5.215,14.116,4.007c5.092-1.201,9.117-4.874,10.769-9.824c0.521-1.559,1.382-2.946,2.555-4.119
			l0.611-0.611c2.005-2.005,4.671-3.109,7.506-3.109c2.836,0,5.502,1.104,7.507,3.11c2.005,2.005,3.109,4.671,3.109,7.507
			c0,2.835-1.104,5.501-3.109,7.506l-0.604,0.604c-1.18,1.179-2.568,2.04-4.127,2.561c-4.95,1.653-8.623,5.68-9.824,10.771
			c-1.208,5.12,0.29,10.396,4.007,14.115l21.555,21.555c0.04,0.04,0.042,0.095,0.06,0.145c0.013,0.051,0.027,0.101,0.04,0.152
			C377.102,210.966,377.076,211.053,377.009,211.12z M383.511,181.533c-1.116,1.375-2.102,2.814-2.964,4.3l-6.045-6.045
			c1.813-1.172,3.507-2.536,5.037-4.065l0.605-0.605c11.937-11.938,11.937-31.36,0-43.297c-5.782-5.783-13.471-8.969-21.649-8.969
			s-15.866,3.186-21.643,8.962l-0.611,0.61c-1.529,1.529-2.894,3.223-4.066,5.037l-7.135-7.135
			c10.399-6.049,17.191-17.522,16.627-30.35c-0.369-8.42,2.583-16.213,8.313-21.942c5.578-5.578,13.208-8.511,21.363-8.323
			c8.395,0.216,16.383,3.701,22.495,9.813C433.023,118.71,383.988,180.937,383.511,181.533z"/>
	</g>
</g>
<g>
	<g>
		<path d="M127.662,113.53L90.386,76.254c-3.906-3.904-10.236-3.904-14.143,0c-3.905,3.905-3.905,10.237,0,14.143l37.277,37.276
			c1.953,1.952,4.512,2.929,7.071,2.929s5.118-0.977,7.071-2.929C131.567,123.768,131.567,117.436,127.662,113.53z"/>
	</g>
</g>
<g>
	<g>
		<path d="M152.809,138.677c-1.859-1.86-4.439-2.93-7.069-2.93c-2.631,0-5.21,1.069-7.07,2.93c-1.86,1.861-2.93,4.44-2.93,7.07
			c0,2.64,1.069,5.21,2.93,7.069c1.861,1.87,4.44,2.931,7.07,2.931s5.21-1.061,7.069-2.931c1.86-1.859,2.931-4.439,2.931-7.069
			S154.67,140.547,152.809,138.677z"/>
	</g>
</g>
<g>
	<g>
		<path d="M95.046,164.922c-0.001,0-0.003,0-0.004,0l-29.97,0.013c-5.523,0.002-9.998,4.481-9.996,10.004
			c0.002,5.521,4.479,9.996,10,9.996c0.001,0,0.003,0,0.004,0l29.97-0.013c5.523-0.002,9.998-4.481,9.996-10.004
			C105.044,169.397,100.567,164.922,95.046,164.922z"/>
	</g>
</g>
<g>
	<g>
		<path d="M184.955,65.083c-0.002-5.521-4.479-9.996-10-9.996c-0.001,0-0.003,0-0.004,0c-5.522,0.002-9.998,4.481-9.996,10.004
			l0.013,31.889c0.002,5.521,4.479,9.996,10,9.996c0.001,0,0.003,0,0.004,0c5.522-0.002,9.998-4.481,9.996-10.004L184.955,65.083z"
			/>
	</g>
</g>
<g>
	<g>
		<path d="M435.756,421.581l-37.275-37.276c-3.906-3.904-10.236-3.904-14.143,0c-3.905,3.905-3.905,10.237,0,14.143l37.276,37.276
			c1.953,1.952,4.512,2.929,7.071,2.929s5.118-0.977,7.071-2.929C439.661,431.819,439.661,425.487,435.756,421.581z"/>
	</g>
</g>
<g>
	<g>
		<path d="M372.08,357.907c-1.86-1.86-4.44-2.931-7.07-2.931s-5.21,1.07-7.07,2.931c-1.859,1.859-2.93,4.439-2.93,7.069
			s1.07,5.21,2.93,7.07c1.86,1.86,4.44,2.93,7.07,2.93s5.21-1.069,7.07-2.93c1.859-1.86,2.93-4.44,2.93-7.07
			S373.94,359.766,372.08,357.907z"/>
	</g>
</g>
<g>
	<g>
		<path d="M446.924,327.043c-0.001,0-0.003,0-0.004,0l-29.97,0.013c-5.523,0.002-9.998,4.481-9.996,10.004
			c0.002,5.521,4.479,9.996,10,9.996c0.001,0,0.003,0,0.004,0l29.97-0.013c5.523-0.002,9.998-4.481,9.996-10.004
			C456.922,331.518,452.446,327.043,446.924,327.043z"/>
	</g>
</g>
<g>
	<g>
		<path d="M347.032,414.998c-0.001-5.522-4.478-9.996-10-9.996c-0.001,0-0.003,0-0.004,0c-5.522,0.002-9.998,4.481-9.996,10.004
			l0.013,31.889c0.002,5.521,4.479,9.996,10,9.996c0.001,0,0.003,0,0.004,0c5.522-0.002,9.998-4.481,9.996-10.004L347.032,414.998z"
			/>
	</g>
</g>
<g>
</g>
<g>
</g>
<g>
</g>
<g>
</g>
<g>
</g>
<g>
</g>
<g>
</g>
<g>
</g>
<g>
</g>
<g>
</g>
<g>
</g>
<g>
</g>
<g>
</g>
<g>
</g>
<g>
</g>
</svg>
