<?xml version="1.0" encoding="iso-8859-1"?>
<!-- Generator: Adobe Illustrator 19.0.0, SVG Export Plug-In . SVG Version: 6.00 Build 0)  -->
<svg version="1.1" id="Capa_1" xmlns="http://www.w3.org/2000/svg" xmlns:xlink="http://www.w3.org/1999/xlink" x="0px" y="0px"
	 viewBox="0 0 511.997 511.997" style="enable-background:new 0 0 511.997 511.997;" xml:space="preserve">
<g>
	<g>
		<path d="M427.394,255.929c-1.856-1.856-4.431-2.924-7.056-2.924c-2.625,0-5.2,1.067-7.056,2.924
			c-1.855,1.856-2.924,4.431-2.924,7.056c0,2.625,1.068,5.2,2.924,7.055c1.856,1.856,4.422,2.925,7.056,2.925
			c2.625,0,5.2-1.068,7.056-2.925c1.855-1.855,2.924-4.43,2.924-7.055C430.318,260.349,429.25,257.785,427.394,255.929z"/>
	</g>
</g>
<g>
	<g>
		<path d="M482.06,86.313c-16.509,0-29.94,13.431-29.94,29.94c0,28.592-17.782,53.092-42.86,63.071
			c2.243-5.093,3.498-10.714,3.498-16.627v-5.714c0-22.827-18.571-41.399-41.398-41.399c-22.827,0-41.398,18.572-41.398,41.399
			v5.713c0,6.749,1.635,13.122,4.512,18.757c-28.311-8.168-49.085-34.295-49.085-65.2c0-16.509-13.431-29.94-29.94-29.94
			s-29.94,13.431-29.94,29.94c0,3.422,0.14,6.817,0.406,10.181c-0.107,0.367-0.199,0.743-0.263,1.129
			c-4.439,26.371-23.531,46.912-48.143,53.933c2.89-5.646,4.533-12.032,4.533-18.798v-5.714c0-22.827-18.571-41.399-41.398-41.399
			h-0.001c-22.827,0-41.398,18.572-41.398,41.399v5.713c0,5.912,1.254,11.535,3.498,16.628
			c-25.081-9.978-42.863-34.479-42.863-63.071c0-16.509-13.431-29.94-29.94-29.94S0,99.745,0,116.253
			c0,27.538,8.663,53.783,25.052,75.9c14.585,19.683,34.058,34.528,56.633,43.252v78.421c0,4.932,3.583,9.019,8.285,9.825v70.291
			c0,23.973-9.335,46.511-26.286,63.46c-1.871,1.871-2.923,4.41-2.923,7.057c0,2.647,1.052,5.185,2.923,7.057l28.342,28.342
			c1.949,1.948,4.503,2.923,7.057,2.923s5.108-0.975,7.057-2.923c9.417-9.417,17.417-19.872,23.912-31.101v32.747
			c0,5.511,4.469,9.98,9.98,9.98h40.155c5.511,0,9.98-4.469,9.98-9.98v-72.854c0-5.511-4.469-9.98-9.98-9.98
			c-5.511,0-9.98,4.469-9.98,9.98v62.874h-20.195v-97.583v-32.726v-8.68c0-5.511-4.469-9.98-9.98-9.98
			c-5.511,0-9.98,4.469-9.98,9.98v8.68v32.726c0,31.331-11.024,60.968-31.234,84.48l-14.278-14.278
			c16.441-19.675,25.389-44.249,25.389-70.202v-70.136h60.277v34.321c0,5.511,4.469,9.98,9.98,9.98c5.511,0,9.98-4.469,9.98-9.98
			v-34.699c4.201-1.177,7.285-5.025,7.285-9.602v-75.829c22.689-7.232,42.965-20.758,58.48-38.949
			c15.17,17.832,35.268,31.55,58.617,38.955v75.824c0,4.576,3.085,8.424,7.285,9.602v178.079c0,5.511,4.469,9.98,9.98,9.98h40.154
			c5.511,0,9.98-4.469,9.98-9.98v-32.748c6.495,11.229,14.495,21.684,23.912,31.102c1.949,1.948,4.503,2.923,7.057,2.923
			s5.108-0.975,7.057-2.923l28.343-28.342c1.871-1.871,2.923-4.41,2.923-7.057c0-2.647-1.052-5.186-2.923-7.057
			c-16.951-16.949-26.286-39.487-26.286-63.46v-70.291c4.702-0.806,8.284-4.893,8.284-9.825V291.43c0-5.511-4.469-9.98-9.98-9.98
			s-9.98,4.469-9.98,9.98v12.418h-75.848V230.47c0-4.574-3.109-8.563-7.546-9.679c-47.983-12.072-81.495-55.058-81.495-104.536
			c0-5.503,4.477-9.98,9.98-9.98c5.503,0,9.98,4.477,9.98,9.98c0,48.426,39.398,87.824,87.824,87.824l14.182-0.001
			c1.539,0.049,3.076,0.027,4.617,0.001h12.206c48.426,0,87.824-39.398,87.824-87.824c0-5.503,4.477-9.98,9.98-9.98
			s9.98,4.477,9.98,9.98c0,46.944-30.047,88.177-74.768,102.606c-4.122,1.329-6.916,5.167-6.916,9.498v4.189
			c0,5.511,4.469,9.98,9.98,9.98c4.451,0,8.222-2.914,9.508-6.939c22.776-8.701,42.418-23.614,57.105-43.434
			c16.389-22.117,25.052-48.362,25.052-75.9C512,99.745,498.569,86.313,482.06,86.313z M341.793,323.807h60.278v70.136
			c0.001,25.953,8.95,50.528,25.39,70.202l-14.279,14.278c-20.211-23.513-31.234-53.151-31.234-84.48v-32.726v-8.68
			c0-5.511-4.469-9.98-9.98-9.98s-9.98,4.469-9.98,9.98v8.68v32.726v97.583h-20.195V323.807z M119.201,156.984h0.001
			c0-11.822,9.618-21.439,21.439-21.439s21.438,9.618,21.438,21.439v5.713c0,11.705-9.432,21.233-21.094,21.421h-0.692
			c-11.661-0.188-21.093-9.716-21.093-21.421V156.984z M185.038,220.789c-4.437,1.116-7.546,5.105-7.546,9.679v73.378h-75.848
			v-75.49c0-4.331-2.794-8.169-6.916-9.498c-44.721-14.427-74.768-55.66-74.768-102.604c0-5.503,4.477-9.98,9.98-9.98
			s9.98,4.477,9.98,9.98c0,48.426,39.398,87.824,87.824,87.824l12.174-0.001c1.535,0.028,3.072,0.059,4.605,0.001h14.227
			c20.863,0,41.098-7.473,56.974-21.043c7.191-6.146,13.279-13.375,18.11-21.341c2.728,7.179,6.099,14.057,10.032,20.576
			C229.058,201.317,208.328,214.929,185.038,220.789z M392.797,162.696c0,11.705-9.432,21.233-21.093,21.421h-0.692
			c-11.661-0.188-21.093-9.716-21.093-21.421v-5.713h0.001c0-11.822,9.618-21.439,21.438-21.439s21.438,9.618,21.438,21.439V162.696
			z"/>
	</g>
</g>
<g>
	<g>
		<path d="M187.245,386.996c-1.856-1.856-4.431-2.924-7.056-2.924s-5.2,1.067-7.056,2.924c-1.855,1.856-2.924,4.431-2.924,7.056
			s1.058,5.2,2.924,7.055c1.856,1.866,4.431,2.925,7.056,2.925s5.2-1.059,7.056-2.925c1.855-1.855,2.924-4.43,2.924-7.055
			S189.101,388.852,187.245,386.996z"/>
	</g>
</g>
<g>
	<g>
		<path d="M423.436,0.51c-5.511,0-9.98,4.469-9.98,9.98v12.405c0,5.511,4.469,9.98,9.98,9.98c5.511,0,9.98-4.469,9.98-9.98V10.49
			C433.416,4.979,428.947,0.51,423.436,0.51z"/>
	</g>
</g>
<g>
	<g>
		<path d="M423.436,59.961c-5.511,0-9.98,4.469-9.98,9.98v12.405c0,5.512,4.469,9.98,9.98,9.98c5.511,0,9.98-4.469,9.98-9.98V69.941
			C433.416,64.43,428.947,59.961,423.436,59.961z"/>
	</g>
</g>
<g>
	<g>
		<path d="M459.365,36.438h-12.405c-5.511,0-9.98,4.469-9.98,9.98c0,5.511,4.469,9.98,9.98,9.98h12.405
			c5.511,0,9.98-4.469,9.98-9.98C469.344,40.907,464.875,36.438,459.365,36.438z"/>
	</g>
</g>
<g>
	<g>
		<path d="M399.914,36.438h-12.405c-5.511,0-9.98,4.469-9.98,9.98c0,5.511,4.469,9.98,9.98,9.98h12.405
			c5.511,0,9.98-4.469,9.98-9.98C409.894,40.907,405.425,36.438,399.914,36.438z"/>
	</g>
</g>
<g>
	<g>
		<path d="M105.386,0.51c-5.511,0-9.98,4.469-9.98,9.98v12.405c0,5.511,4.468,9.98,9.98,9.98c5.511,0,9.98-4.469,9.98-9.98V10.49
			C115.366,4.979,110.897,0.51,105.386,0.51z"/>
	</g>
</g>
<g>
	<g>
		<path d="M105.386,59.961c-5.511,0-9.98,4.469-9.98,9.98v12.405c0,5.512,4.468,9.98,9.98,9.98c5.511,0,9.98-4.469,9.98-9.98V69.941
			C115.366,64.43,110.897,59.961,105.386,59.961z"/>
	</g>
</g>
<g>
	<g>
		<path d="M141.314,36.438h-12.405c-5.511,0-9.98,4.469-9.98,9.98c0,5.511,4.469,9.98,9.98,9.98h12.405
			c5.511,0,9.98-4.469,9.98-9.98C151.294,40.907,146.825,36.438,141.314,36.438z"/>
	</g>
</g>
<g>
	<g>
		<path d="M81.864,36.438H69.458c-5.511,0-9.98,4.469-9.98,9.98c0,5.511,4.468,9.98,9.98,9.98h12.406c5.511,0,9.98-4.469,9.98-9.98
			C91.844,40.907,87.375,36.438,81.864,36.438z"/>
	</g>
</g>
<g>
</g>
<g>
</g>
<g>
</g>
<g>
</g>
<g>
</g>
<g>
</g>
<g>
</g>
<g>
</g>
<g>
</g>
<g>
</g>
<g>
</g>
<g>
</g>
<g>
</g>
<g>
</g>
<g>
</g>
</svg>
