<svg height="682pt" viewBox="-21 -82 682.66669 682" width="682pt" xmlns="http://www.w3.org/2000/svg"><g fill-rule="evenodd"><path d="m525-3.75h-155c-6.90625 0-12.5 5.597656-12.5 12.5 0 6.90625 5.59375 12.5 12.5 12.5h155c49.625 0 90 40.375 90 90v150.988281c0 49.628907-40.375 90-90 90-3.316406 0-6.492188 1.316407-8.835938 3.660157l-116.25 116.25v-107.410157c0-6.902343-5.597656-12.5-12.5-12.5h-272.414062c-49.625 0-90-40.371093-90-90v-150.988281c0-49.628906 40.375-90 90-90h155c6.90625 0 12.5-5.59375 12.5-12.5 0-6.902344-5.59375-12.5-12.5-12.5h-155c-63.414062 0-115 51.585938-115 115v150.988281c0 63.410157 51.585938 115 115 115h259.914062v125.085938c0 5.054687 3.046876 9.613281 7.71875 11.546875 1.542969.644531 3.167969.953125 4.78125.953125 3.25 0 6.449219-1.269531 8.835938-3.660157l134.046875-134.042968c60.960937-2.78125 109.703125-53.25 109.703125-114.878906v-150.992188c0-63.414062-51.585938-115-115-115zm0 0"/><path d="m103.363281 256.5c2.152344 4.136719 6.425781 6.726562 11.089844 6.726562h77.378906c6.898438 0 12.5-5.59375 12.5-12.5 0-6.902343-5.601562-12.5-12.5-12.5h-53.386719l63.625-90.960937c2.671876-3.816406 3-8.808594.84375-12.9375-2.152343-4.136719-6.425781-6.726563-11.085937-6.726563h-77.375c-6.90625 0-12.5 5.597657-12.5 12.5 0 6.90625 5.59375 12.5 12.5 12.5h53.378906l-63.621093 90.964844c-2.671876 3.8125-3 8.800782-.847657 12.933594zm0 0"/><path d="m536.636719 149.328125c-2.152344-4.132813-6.433594-6.726563-11.089844-6.726563h-66.882813c-6.90625 0-12.5 5.597657-12.5 12.5 0 6.90625 5.59375 12.5 12.5 12.5h42.882813l-53.128906 75.964844c-2.671875 3.816406-2.992188 8.800782-.839844 12.933594 2.152344 4.136719 6.425781 6.726562 11.085937 6.726562h66.882813c6.90625 0 12.5-5.59375 12.5-12.5 0-6.902343-5.59375-12.5-12.5-12.5h-42.886719l53.128906-75.960937c2.671876-3.816406 3-8.804687.847657-12.9375zm0 0"/><path d="m386.492188 94.015625c-2.152344-4.136719-6.421876-6.726563-11.082032-6.726563h-105.574218c-6.902344 0-12.5 5.597657-12.5 12.5 0 6.90625 5.597656 12.5 12.5 12.5h81.574218l-91.816406 131.277344c-2.675781 3.816406-2.996094 8.800782-.84375 12.933594 2.152344 4.136719 6.425781 6.726562 11.085938 6.726562h105.574218c6.902344 0 12.5-5.59375 12.5-12.5 0-6.902343-5.597656-12.5-12.5-12.5h-81.578125l91.816407-131.273437c2.671874-3.816406 3-8.804687.84375-12.9375zm0 0"/><path d="m320 21.25c6.882812 0 12.5-5.613281 12.5-12.5 0-6.882812-5.617188-12.5-12.5-12.5s-12.5 5.617188-12.5 12.5c0 6.886719 5.617188 12.5 12.5 12.5zm0 0"/></g></svg>