<svg height="681pt" viewBox="-21 -212 681.33273 681" width="681pt" xmlns="http://www.w3.org/2000/svg"><g fill-rule="evenodd"><path d="m240.6875 125.363281c4.101562 5.53125 11.917969 6.691407 17.449219 2.585938 5.53125-4.109375 6.6875-11.921875 2.582031-17.453125l-16.4375-22.148438c-.144531-.199218-.296875-.394531-.457031-.589844-.886719-1.09375-1.929688-2-3.070313-2.703124-1.667968-1.035157-3.53125-1.644532-5.433594-1.820313-1.828124-.167969-3.6875.058594-5.449218.707031-1.265625.464844-2.472656 1.140625-3.570313 2.03125-.199219.160156-.390625.332032-.574219.5-5.332031 4.757813-12.515624 8.546875-20.816406 11.128906-.484375.117188-.972656.261719-1.460937.445313-7.769531 2.25-16.453125 3.472656-25.460938 3.472656-9.65625 0-18.929687-1.398437-27.113281-3.976562-.515625-.203125-1.042969-.375-1.574219-.511719-7.550781-2.558594-14.101562-6.144531-19.054687-10.566406-.925782-.851563-1.953125-1.539063-3.042969-2.066406-1.707031-.8125-3.550781-1.222657-5.390625-1.222657-.003906 0-.003906 0-.011719 0-1.839843 0-3.691406.410157-5.398437 1.230469-1.089844.523438-2.113282 1.210938-3.035156 2.066406l-20.980469 18.824219c-5.125 4.605469-5.550781 12.488281-.949219 17.617187 4.601562 5.125 12.488281 5.554688 17.617188.949219l13.464843-12.085937c1.796875 1.152344 3.667969 2.238281 5.609375 3.261718l-8.121094 13.503907c-3.550781 5.902343-1.640624 13.566406 4.261719 17.113281 5.90625 3.554688 13.566407 1.648438 17.117188-4.257812l10.660156-17.71875c3.464844.769531 7.023437 1.386718 10.65625 1.839843l-1.210937 19.996094c-.414063 6.875 4.816406 12.789063 11.695312 13.207031.257812.015625.515625.023438.769531.023438 6.542969 0 12.035157-5.101563 12.4375-11.71875l1.269531-20.9375c4.226563-.324219 8.359376-.871094 12.378907-1.617188l6.234375 16.246094c2.464844 6.4375 9.675781 9.652344 16.109375 7.183594 6.433593-2.464844 9.648437-9.675782 7.183593-16.109375l-5.671874-14.800781c2.644531-1.222657 5.183593-2.5625 7.605468-4.003907zm0 0"/><path d="m529.863281 123.867188c5.125 4.601562 13.011719 4.175781 17.617188-.949219 4.597656-5.125 4.175781-13.015625-.953125-17.617188l-20.976563-18.828125c-.957031-.882812-2.015625-1.585937-3.140625-2.113281-1.660156-.78125-3.460937-1.171875-5.253906-1.179687-1.816406.019531-3.726562.398437-5.453125 1.226562-1.085937.519531-2.109375 1.207031-3.035156 2.058594-4.953125 4.421875-11.5 8.007812-19.0625 10.570312-.527344.132813-1.050781.304688-1.566407.507813-8.183593 2.578125-17.460937 3.976562-27.113281 3.976562-9.011719 0-17.691406-1.21875-25.460937-3.472656-.484375-.175781-.976563-.324219-1.46875-.441406-8.296875-2.585938-15.480469-6.375-20.804688-11.128907-.1875-.167968-.371094-.332031-.566406-.488281-1.136719-.929687-2.390625-1.621093-3.703125-2.089843-1.769531-.628907-3.625-.839844-5.445313-.652344-1.800781.183594-3.570312.757812-5.167968 1.71875-1.195313.714844-2.285156 1.652344-3.210938 2.78125-.164062.203125-.320312.402344-.46875.605468l-16.4375 22.144532c-4.105468 5.53125-2.949218 13.34375 2.582032 17.453125 5.53125 4.101562 13.34375 2.945312 17.453124-2.585938l9.183594-12.371093c2.421875 1.441406 4.960938 2.78125 7.609375 4.011718l-5.675781 14.792969c-2.464844 6.433594.753906 13.652344 7.183594 16.117187 6.433594 2.464844 13.652344-.75 16.117187-7.183593l6.226563-16.253907c4.023437.746094 8.160156 1.292969 12.378906 1.617188l1.273438 20.9375c.398437 6.621094 5.890624 11.71875 12.4375 11.71875.257812 0 .511718-.007812.769531-.023438 6.875-.414062 12.109375-6.328124 11.695312-13.207031l-1.21875-19.988281c3.636719-.460938 7.199219-1.078125 10.664063-1.847656l10.65625 17.71875c3.546875 5.90625 11.214844 7.8125 17.121094 4.265625 5.902343-3.554688 7.8125-11.214844 4.257812-17.121094l-8.117188-13.503906c1.933594-1.023438 3.808594-2.109375 5.609376-3.253907zm0 0"/><path d="m629.265625 17.664062c-17.132813-25.15625-51.546875-31.671874-76.703125-14.535156l-13.144531 8.957032c-19.171875-15.535157-42.796875-24.726563-68.332031-24.726563h-101.730469c-6.890625 0-12.476563 5.582031-12.476563 12.472656s5.585938 12.476563 12.476563 12.476563h101.730469c50.136718 0 90.921874 46.292968 90.921874 103.199218 0 55.574219-49.996093 103.191407-90.921874 103.191407-40.648438 0-62.019532-22.3125-79.050782-46.425781-22.082031-31.261719-47.933594-35.570313-72.578125-35.570313s-50.496093 4.308594-72.578125 35.570313c-17.03125 24.113281-38.394531 46.429687-79.046875 46.429687-40.925781 0-90.921875-47.621094-90.921875-103.195313 0-56.902343 40.785156-103.199218 90.921875-103.199218h101.726563c6.886718 0 12.472656-5.585938 12.472656-12.476563s-5.585938-12.472656-12.472656-12.472656h-101.726563c-25.539062 0-49.164062 9.191406-68.335937 24.726563l-13.148438-8.957032c-25.152344-17.140625-59.566406-10.613281-76.699218 14.542969-17.140626 25.152344-10.617188 59.5625 14.539062 76.703125l27.796875 18.9375c-.011719.730469-.027344 1.457031-.027344 2.195312 0 32.894532 13.394531 65.003907 37.710938 90.414063 22.613281 23.625 51.828125 37.726563 78.164062 37.726563 52.449219 0 80.683594-30.453126 99.421875-56.976563 14.855469-21.035156 29.8125-25.015625 52.203125-25.015625 22.394531 0 37.34375 3.980469 52.199219 25.015625 18.742188 26.523437 46.976562 56.976563 99.425781 56.976563 26.332031 0 55.554688-14.101563 78.160157-37.726563 24.316406-25.410156 37.710937-57.519531 37.710937-90.414063 0-.738281-.011719-1.464843-.023437-2.195312l27.800781-18.9375c25.15625-17.144531 31.675781-51.554688 14.535156-76.710938zm-591.03125 56.085938c-13.789063-9.390625-17.363281-28.25-7.972656-42.035156 9.398437-13.785156 28.257812-17.359375 42.042969-7.96875l9.253906 6.308594c-12.5625 15.5-21.769532 34.394531-26.34375 55.265624zm562.445313 0-16.976563 11.570312c-4.578125-20.871093-13.78125-39.765624-26.347656-55.265624l9.253906-6.308594c13.789063-9.390625 32.648437-5.816406 42.039063 7.96875 9.394531 13.785156 5.820312 32.644531-7.96875 42.035156zm0 0"/><path d="m319.457031 12.308594c6.871094 0 12.476563-5.605469 12.476563-12.476563 0-6.871093-5.605469-12.472656-12.476563-12.472656-6.871093 0-12.476562 5.601563-12.476562 12.472656 0 6.871094 5.605469 12.476563 12.476562 12.476563zm0 0"/></g></svg>