<svg height="682pt" viewBox="-77 -21 682 682.66535" width="682pt" xmlns="http://www.w3.org/2000/svg"><g fill-rule="evenodd"><path d="m465.738281 195.371094v-163.242188c0-17.714844-14.414062-32.128906-32.128906-32.128906h-41.4375c-17.714844 0-32.128906 14.414062-32.128906 32.128906v163.242188c-36.023438 19.355468-58.878907 57.148437-58.878907 98.457031v296.601563c0 27.332031 22.234376 49.570312 49.574219 49.570312h124.304688c27.335937 0 49.574219-22.238281 49.574219-49.570312v-296.601563c0-41.308594-22.855469-79.101563-58.878907-98.457031zm-73.566406-170.371094h41.4375c3.859375 0 7.121094 3.261719 7.121094 7.128906v73.011719h-55.6875v-73.011719c0-3.867187 3.261719-7.128906 7.128906-7.128906zm-14.539063 189.566406c4.503907-2.007812 7.410157-6.480468 7.410157-11.417968v-73.011719h55.695312v73.011719c0 4.9375 2.898438 9.410156 7.410157 11.417968 31.265624 13.933594 51.46875 45.046875 51.46875 79.261719v37.660156h-173.457032v-37.660156c0-34.214844 20.207032-65.328125 51.472656-79.261719zm121.984376 279.394532h-173.457032v-137.472657h173.457032zm-24.574219 121.039062h-124.304688c-13.550781 0-24.578125-11.027344-24.578125-24.578125v-71.464844h173.457032v71.464844c0 13.550781-11.023438 24.578125-24.574219 24.578125zm0 0"/><path d="m202.71875 432.753906c11.570312-15.902344 20.347656-34.546875 26.085938-54.800781.066406-.203125.117187-.410156.175781-.621094 4.984375-17.824219 7.621093-36.894531 7.621093-56.488281 0-6.902344-5.59375-12.5-12.5-12.5h-57.507812c-6.90625 0-12.5 5.597656-12.5 12.5 0 6.90625 5.59375 12.5 12.5 12.5h44.609375c-.632813 9.75-1.992187 19.203125-4 28.253906h-181.222656c-2.003907-9.050781-3.367188-18.503906-3.996094-28.253906h44.609375c6.902344 0 12.5-5.59375 12.5-12.5 0-6.902344-5.597656-12.5-12.5-12.5h-57.511719c-6.902343 0-12.5 5.597656-12.5 12.5 0 19.59375 2.636719 38.664062 7.621094 56.488281.054687.210938.109375.417969.175781.621094 5.734375 20.253906 14.519532 38.898437 26.082032 54.800781 19.808593 27.246094 45.597656 43.8125 73.632812 47.617188v81.4375l-75.660156 55.617187c-4.351563 3.203125-6.15625 8.835938-4.472656 13.96875 1.683593 5.132813 6.472656 8.605469 11.875 8.605469h161.539062c6.902344 0 12.5-5.597656 12.5-12.5 0-4.363281-2.234375-8.199219-5.621094-10.4375l-75.160156-55.253906v-81.4375c28.03125-3.804688 53.820312-20.371094 73.625-47.617188zm-169.152344-46.15625h166.054688c-16.257813 41.492188-47.378906 69.617188-83.027344 69.617188-35.652344 0-66.777344-28.125-83.027344-69.617188zm40.375 228.402344 42.652344-31.355469 42.644531 31.355469zm0 0"/><path d="m116.59375 333.34375c6.882812 0 12.5-5.613281 12.5-12.5 0-6.882812-5.617188-12.5-12.5-12.5-6.886719 0-12.5 5.617188-12.5 12.5 0 6.886719 5.613281 12.5 12.5 12.5zm0 0"/></g></svg>