<svg height="682pt" viewBox="-21 -107 682.66669 682" width="682pt" xmlns="http://www.w3.org/2000/svg"><g fill-rule="evenodd"><path d="m609.648438 219.628906v-212.546875c0-6.902343-5.59375-12.5-12.5-12.5h-227.148438c-6.90625 0-12.5 5.597657-12.5 12.5 0 6.90625 5.59375 12.5 12.5 12.5h214.648438v180.808594c-13.417969-7.496094-28.585938-12.1875-44.726563-13.320313 1.546875-24.480468.550781-49.683593-3.023437-76.632812-1.921876-14.457031-12.25-29.097656-28.28125-29.097656-1.421876 0-2.859376.128906-4.28125.371094-24.394532 4.191406-45.476563 6.140624-66.359376 6.140624-20.796874 0-42.28125-1.953124-67.625-6.152343-1.375-.226563-2.765624-.34375-4.132812-.34375-13.765625 0-25.121094 11.441406-28.253906 28.46875-4.636719 25.183593-5.855469 50.488281-3.707032 76.945312h-28.515624c2.144531-26.464843.929687-51.765625-3.707032-76.945312-3.132812-17.027344-14.488281-28.46875-28.253906-28.46875-1.367188 0-2.761719.113281-4.136719.34375-25.339843 4.199219-46.824219 6.152343-67.621093 6.152343-20.882813 0-41.964844-1.953124-66.359376-6.140624-1.425781-.242188-2.867187-.371094-4.28125-.371094-16.03125 0-26.363281 14.640625-28.28125 29.097656-3.578124 26.945312-4.570312 52.148438-3.023437 76.632812-16.140625 1.132813-31.3125 5.828126-44.730469 13.320313v-180.808594h214.652344c6.90625 0 12.5-5.59375 12.5-12.5 0-6.902343-5.59375-12.5-12.5-12.5h-227.148438c-6.90625 0-12.5 5.597657-12.5 12.5v212.546875c-18.765624 19.386719-30.351562 45.769532-30.351562 74.824219v155.207031c0 6.90625 5.59375 12.5 12.5 12.5h67.539062c6.90625 0 12.5-5.59375 12.5-12.5 0-24.894531 20.257813-45.15625 45.15625-45.15625h132.304688c6.90625 0 12.5-5.59375 12.5-12.5 0-6.902344-5.59375-12.5-12.5-12.5h-132.304688c-34.417968 0-63.128906 24.917969-69.039062 57.65625h-43.65625v-122.15625h590v122.15625h-43.65625c-5.910156-32.738281-34.621094-57.65625-69.039062-57.65625h-132.304688c-6.90625 0-12.5 5.597656-12.5 12.5 0 6.90625 5.59375 12.5 12.5 12.5h132.304688c24.898437 0 45.15625 20.261719 45.15625 45.15625 0 6.90625 5.59375 12.5 12.5 12.5h67.539062c6.90625 0 12.5-5.59375 12.5-12.5v-155.207031c0-29.054687-11.585938-55.4375-30.351562-74.824219zm-247.101563-105.28125c.847656-4.574218 2.921875-7.371094 3.816406-7.972656 26.679688 4.417969 49.4375 6.476562 71.613281 6.476562 22.3125 0 44.71875-2.0625 70.5625-6.496093.851563.460937 3.015626 3.160156 3.574219 7.375 3.425781 25.78125 4.347657 49.792969 2.785157 73.039062h-155.566407c-2.191406-25-1.128906-48.792969 3.214844-72.421875zm-234.660156-.617187c.558593-4.214844 2.722656-6.921875 3.578125-7.375 25.808594 4.429687 48.238281 6.496093 70.558594 6.496093 22.160156 0 44.910156-2.058593 71.613281-6.476562.894531.601562 2.96875 3.398438 3.816406 7.96875 4.34375 23.628906 5.40625 47.421875 3.210937 72.425781h-155.5625c-1.5625-23.25-.644531-47.257812 2.785157-73.039062zm-102.769531 176.273437c1.152343-21.660156 10.6875-41.128906 25.398437-55.230468.542969-.417969 1.042969-.882813 1.507813-1.382813 14.699218-13.410156 34.230468-21.621094 55.652343-21.621094h424.648438c21.417969 0 40.949219 8.203125 55.648437 21.613281.464844.507813.972656.976563 1.515625 1.394532 14.710938 14.101562 24.242188 33.570312 25.394531 55.226562zm0 0"/><path d="m320 19.582031c6.882812 0 12.5-5.613281 12.5-12.5 0-6.882812-5.617188-12.5-12.5-12.5s-12.5 5.617188-12.5 12.5c0 6.886719 5.617188 12.5 12.5 12.5zm0 0"/><path d="m320 379.503906c-6.882812 0-12.5 5.617188-12.5 12.5 0 6.886719 5.617188 12.5 12.5 12.5s12.5-5.613281 12.5-12.5c0-6.878906-5.617188-12.5-12.5-12.5zm0 0"/></g></svg>