<svg height="682pt" viewBox="-21 -101 682.66669 682" width="682pt" xmlns="http://www.w3.org/2000/svg"><g fill-rule="evenodd"><path d="m508.296875 195.375c16.359375 3.757812 31.160156 9.035156 44.277344 15.828125 5.125 2.65625 12.914062 4.183594 20.910156-3.601563 10.304687-10.019531 24.460937-12.394531 31.558594-5.296874 3.449219 3.441406 4.15625 7.96875 4.144531 11.152343-.015625 6.957031-3.484375 14.523438-9.265625 20.230469-4.898437 4.84375-5.816406 12.167969-2.335937 18.667969 11.554687 21.550781 17.414062 44.035156 17.414062 66.820312 0 26.074219-5.820312 48.492188-17.304688 66.617188-3.984374 6.277343-3.003906 13.945312 2.4375 19.070312 5.722657 5.394531 9.0625 12.492188 9.164063 19.464844.074219 4.746094-1.441406 8.90625-4.253906 11.71875-7.078125 7.082031-21.246094 4.699219-31.570313-5.320313-8.546875-8.273437-17.179687-5.574218-21.566406-3.222656-27.65625 14.804688-64.597656 22.316406-109.789062 22.316406-45.195313 0-82.132813-7.511718-109.789063-22.316406-4.390625-2.351562-13.023437-5.050781-21.5625 3.230469-10.328125 10.011719-24.492187 12.390625-31.578125 5.3125-2.8125-2.8125-4.320312-6.972656-4.25-11.71875.101562-6.972656 3.445312-14.070313 9.171875-19.46875 5.4375-5.128906 6.40625-12.792969 2.433594-19.066406-11.484375-18.125-17.304688-40.542969-17.304688-66.617188 0-22.785156 5.855469-45.269531 17.40625-66.816406 3.433594-6.402344 2.496094-13.902344-2.332031-18.671875-5.78125-5.707031-9.242188-13.273438-9.269531-20.230469-.007813-3.1875.703125-7.710937 4.144531-11.152343 7.101562-7.097657 21.261719-4.722657 31.5625 5.296874 7.996094 7.785157 15.78125 6.257813 20.910156 3.601563 8.929688-4.625 18.765625-8.601563 29.238282-11.816406 6.597656-2.03125 10.304687-9.023438 8.277343-15.621094-2.027343-6.601563-9.019531-10.308594-15.621093-8.277344-10.113282 3.105469-19.746094 6.855469-28.707032 11.171875-20.140625-16.992187-47.238281-18.125-63.332031-2.035156-7.429687 7.429688-11.507813 17.699219-11.472656 28.910156.039062 11.382813 4.261719 22.875 11.777343 32.425782-11.667968 23.585937-17.582031 48.183593-17.582031 73.214843 0 17.695313 2.347657 34.085938 6.992188 49.039063-58.203125-.328125-105.960938-10.25-141.96875-29.527344-5.871094-3.144531-14.746094-5.078125-23.679688 3.582031-14.941406 14.492188-35.800781 17.585938-46.488281 6.890625-4.402344-4.398437-6.765625-10.800781-6.65625-18.023437.144531-10.109375 4.9375-20.339844 13.140625-28.074219 5.726563-5.394531 6.761719-13.460938 2.578125-20.074219-15.367188-24.246093-23.15625-54.148437-23.15625-88.875 0-30.339843 7.789062-60.25 23.15625-88.914062 3.71875-6.945313 2.789062-14.734375-2.375-19.832031-8.363281-8.261719-13.171875-18.851563-13.207031-29.058594-.015625-4.878906 1.101562-11.824219 6.519531-17.242188 10.710938-10.714844 31.5625-7.628906 46.472656 6.871094 7.066406 6.878906 14.761719 8.238281 22.867188 4.039062 14.972656-7.75 31.785156-14.09375 49.980468-18.847656 6.679688-1.75 10.679688-8.578125 8.933594-15.257812-1.746094-6.675782-8.574218-10.675782-15.257812-8.933594-18.472656 4.832031-35.726563 11.191406-51.386719 18.933594-24.925781-22.398438-59.242187-24.53125-79.292969-4.484375-8.964844 8.96875-13.875 21.398437-13.835937 34.996093.046875 14.734376 5.828125 29.648438 16.050781 41.792969-15.679688 30.882813-23.625 63.128907-23.625 95.9375 0 36.71875 7.84375 69.007813 23.324219 96.101563-9.960938 11.613281-15.671875 26.046875-15.886719 40.558594-.210938 14.035156 4.753906 26.84375 13.972656 36.0625 20.003906 20.003906 54.289063 17.886718 79.238282-4.4375 39.863281 20.457031 91.492187 30.828124 153.53125 30.828124 2.203124 0 4.574218-.019531 6.890624-.050781-6.984374 9.015625-10.96875 19.863281-11.128906 30.78125-.171875 11.5625 3.941406 22.132813 11.574219 29.765625 16.046875 16.046875 43.109375 14.929688 63.265625-1.984375 30.746094 15.316407 70.183594 23.082031 117.335938 23.082031 47.15625 0 86.597656-7.765624 117.339843-23.082031 20.15625 16.914063 47.21875 18.027344 63.269531 1.984375 7.628907-7.632812 11.742188-18.203125 11.570313-29.765625-.164063-11.160156-4.316406-22.246093-11.585937-31.382812 11.476562-20.859375 17.289062-45.507813 17.289062-73.398438 0-25.03125-5.914062-49.628906-17.582031-73.214843 7.511719-9.550782 11.738281-21.042969 11.769531-32.425782.039062-11.210937-4.035156-21.480468-11.460938-28.90625-16.089843-16.09375-43.195312-14.960937-63.335937 2.03125-15.75-7.582031-33.367187-13.320312-52.710937-17.183594-3.414063-24.480468-11.175782-49.769531-21.953126-71.289062 10.230469-12.148438 16.015626-27.0625 16.058594-41.804688.042969-13.597656-4.871094-26.027343-13.835937-34.992187-20.050781-20.050781-54.367188-17.914063-79.289063 4.484375-41.335937-20.464844-92.875-30.851562-153.265625-30.875 0 0 0 0-.003906 0-6.898437 0-12.496094 5.597656-12.5 12.496094 0 6.902344 5.589844 12.5 12.492187 12.503906 58.203126.023438 107.171876 10.113281 145.542969 29.980469 8.113281 4.195312 15.800781 2.835937 22.871094-4.042969 14.914063-14.5 35.757813-17.585938 46.476563-6.871094 5.410156 5.410156 6.53125 12.363282 6.511718 17.242188-.027344 10.207031-4.84375 20.796875-13.207031 29.058594-5.164063 5.101562-6.09375 12.890624-2.367187 19.839843 9.597656 17.902344 16.800781 39.226563 20.546874 60.335938-7.785156-.839844-15.78125-1.429688-24.023437-1.738281-6.855469-.234376-12.703125 5.125-12.953125 12.027343-.261719 6.898438 5.121094 12.699219 12.019531 12.953125 9.546875.355469 18.734375 1.09375 27.558594 2.210938"/><path d="m418.792969 177.789062c0-6.886718-5.613281-12.5-12.5-12.5s-12.5 5.613282-12.5 12.5c0 6.882813 5.613281 12.5 12.5 12.5s12.5-5.617187 12.5-12.5zm0 0"/><path d="m204.457031 22.613281c6.886719 0 12.5-5.617187 12.5-12.5 0-6.886719-5.613281-12.5-12.5-12.5-6.882812 0-12.5 5.609375-12.5 12.5 0 6.882813 5.617188 12.5 12.5 12.5zm0 0"/></g></svg>