<svg height="682pt" viewBox="-67 -21 682 682.66669" width="682pt" xmlns="http://www.w3.org/2000/svg"><g fill-rule="evenodd"><path d="m350.359375 448.589844c1.335937-.578125 2.65625-1.167969 3.972656-1.769532.039063-.015624.078125-.027343.117188-.046874 44.359375-20.242188 80.625-53.199219 105.183593-95.742188 1.011719-1.742188 1.992188-3.496094 2.949219-5.257812 19.15625-35.222657 28.304688-73.359376 28.355469-111.050782.097656-79.152344-39.945312-156.320312-111.769531-200.253906-1.707031-1.046875-3.4375-2.070312-5.183594-3.082031-2.046875-1.183594-4.101563-2.316407-6.167969-3.425781-.550781-.300782-1.101562-.582032-1.65625-.875-1.625-.859376-3.25-1.695313-4.886718-2.511719-.503907-.246094-1.003907-.496094-1.507813-.746094-2.0625-1.011719-4.132813-1.992187-6.214844-2.9375-.019531-.011719-.046875-.023437-.066406-.03125-4.597656-2.085937-9.242187-4.003906-13.917969-5.773437-.148437-.050782-.292968-.105469-.441406-.160157-6.9375-2.605469-13.945312-4.863281-21-6.769531-.484375-.132812-.972656-.261719-1.457031-.386719-1.703125-.449219-3.410157-.878906-5.121094-1.289062-.742187-.175781-1.480469-.355469-2.226563-.527344-1.441406-.332031-2.878906-.640625-4.324218-.9375-2.277344-.484375-4.566406-.921875-6.855469-1.335937-.332031-.054688-.671875-.125-1.007813-.183594-13.164062-2.300782-26.523437-3.496094-39.941406-3.496094-40.386718 0-80.316406 10.5-115.484375 30.359375-12.238281 6.914063-23.773437 14.9375-34.515625 23.894531-.296875.246094-.59375.503906-.894531.75-1.234375 1.046875-2.46875 2.089844-3.683594 3.15625-.96875.847656-1.921875 1.71875-2.878906 2.582032-1.078125.980468-2.152344 1.972656-3.210937 2.96875-1.183594 1.113281-2.355469 2.230468-3.511719 3.367187-.511719.503906-1.019531 1.011719-1.527344 1.519531-1.382813 1.382813-2.75 2.785156-4.097656 4.207032-.242188.25-.488281.5-.726563.753906-3.378906 3.589844-6.65625 7.300781-9.824218 11.132812-.191407.230469-.382813.460938-.570313.691406-1.464844 1.78125-2.90625 3.585938-4.328125 5.421876-.101562.136718-.210938.269531-.3125.40625-2.984375 3.871093-5.855469 7.859374-8.613281 11.957031-.328125.480469-.640625.964843-.960938 1.441406-1.019531 1.539063-2.027343 3.09375-3.011719 4.664063-.34375.546874-.691406 1.082031-1.027343 1.628906-1.25 2.023437-2.480469 4.058594-3.675781 6.132812-25.332032 43.871094-35.617188 93.417969-29.84375 143.511719.054687.445313.105468.882813.160156 1.328125.082031.699219.160156 1.398438.25 2.09375l.796875 6.128906.097656.058594c.042969.257812.078125.515625.117187.777344 7.8125 48.714844 30.996094 94.023437 65.644532 128.644531l-86.425782 149.699219c-8.257812 14.300781-10.128906 32.042968-5.132812 48.671875 4.597656 15.308593 14.390625 27.421875 27.59375 34.140625 9.414062 5.363281 19.679688 7.910156 29.824219 7.910156 20.917969 0 41.292969-10.851562 52.484375-30.234375l20.667968-35.789063c3.449219-5.976562 1.402344-13.625-4.574218-17.078124-5.980469-3.445313-13.625-1.398438-17.074219 4.578124l-20.664063 35.789063c-9.785156 16.949219-31.539062 22.777344-48.484374 12.992187-.21875-.125-.4375-.242187-.664063-.355468-7.140625-3.574219-12.53125-10.371094-15.164063-19.144532-2.980468-9.914062-1.917968-20.75 2.835938-28.980468l91.332031-158.199219c2.9375-5.078125 1.945313-11.507813-2.386719-15.46875-30.25-27.679687-50.707031-63.046875-60.59375-101.019531l256.835938 148.28125c-37.828125 10.425781-78.691406 10.394531-117.789062-1.96875-5.589844-1.765625-11.660157.589844-14.589844 5.667968l-20.664063 35.792969c-3.453125 5.980469-1.402343 13.621094 4.574219 17.074219 5.980469 3.453125 13.625 1.40625 17.074219-4.574219l15.757812-27.292969c47.308594 12.695313 98.140625 10.121094 144.234375-7.472656.242188-.097656.488282-.195312.730469-.289062l.097656.054687 5.703125-2.371093c.59375-.246094 1.171875-.503907 1.757813-.753907.5-.214843 1.007812-.429687 1.503906-.648437zm-301-193.699219c-4.144531-41.046875 3.636719-83.410156 24.277344-121.164063.050781-.09375.097656-.1875.148437-.28125.722656-1.304687 1.453125-2.609374 2.199219-3.910156 1.074219-1.859375 2.179687-3.691406 3.308594-5.507812.261719-.425782.527343-.839844.789062-1.257813.972657-1.550781 1.957031-3.078125 2.96875-4.589843.160157-.246094.324219-.484376.484375-.722657 23.007813-34.191406 55.492188-60.464843 92.761719-76.113281.460937-.195312.917969-.386719 1.378906-.570312 1.234375-.507813 2.480469-1 3.730469-1.484376 37.5625-14.539062 79.082031-18.210937 119.324219-9.625.9375.199219 1.875.394532 2.808593.609376.824219.1875 1.652344.390624 2.476563.585937 1.335937.328125 2.671875.660156 4.003906 1.011719.582031.152344 1.15625.300781 1.734375.457031 4.132813 1.125 8.242188 2.367187 12.304688 3.75.082031.03125.167968.058594.257812.089844 1.980469.675781 3.960938 1.386719 5.921875 2.121093.199219.074219.394531.148438.597657.222657 4.148437 1.570312 8.253906 3.277343 12.3125 5.105469.058593.03125.121093.058593.1875.089843 1.820312.828125 3.632812 1.6875 5.429687 2.566407.460937.230468.921875.453124 1.378906.6875 1.457031.726562 2.902344 1.46875 4.335938 2.226562.5.261719.996093.519531 1.496093.789062 1.84375.996094 3.6875 2.007813 5.507813 3.0625 99.804687 57.621094 134.117187 185.691407 76.5 285.496094-1.203125 2.082032-2.453125 4.125-3.71875 6.15625-.296875.480469-.589844.957032-.886719 1.433594-1 1.574219-2.03125 3.117188-3.066406 4.660156-22.113281 32.761719-52.777344 57.824219-87.578125 73.488282zm0 0"/><path d="m462.972656 476.371094c-45.101562 0-81.800781 36.695312-81.800781 81.800781 0 45.109375 36.699219 81.804687 81.800781 81.804687 45.109375 0 81.800782-36.699218 81.800782-81.804687s-36.691407-81.800781-81.800782-81.800781zm0 138.605468c-31.324218 0-56.800781-25.484374-56.800781-56.804687s25.484375-56.800781 56.800781-56.800781c31.324219 0 56.800782 25.484375 56.800782 56.800781 0 31.320313-25.480469 56.804687-56.800782 56.804687zm0 0"/><path d="m144.746094 511.917969c-6.886719 0-12.5 5.617187-12.5 12.5 0 6.886719 5.613281 12.5 12.5 12.5 6.882812 0 12.5-5.613281 12.5-12.5 0-6.882813-5.617188-12.5-12.5-12.5zm0 0"/></g></svg>