<svg height="682pt" viewBox="-45 -21 682 682.66669" width="682pt" xmlns="http://www.w3.org/2000/svg"><g fill-rule="evenodd"><path d="m558.472656 301.460938h-31.910156v-179.523438c0-67.234375-54.695312-121.9375-121.933594-121.9375-67.242187 0-121.9375 54.703125-121.9375 121.9375v148.0625c0 6.90625 5.59375 12.5 12.5 12.5 6.902344 0 12.5-5.59375 12.5-12.5v-148.0625c0-53.453125 43.484375-96.9375 96.9375-96.9375s96.933594 43.484375 96.933594 96.9375v179.523438h-31.902344c-18.28125 0-33.15625 14.871093-33.15625 33.152343v31.808594c0 15.164063 10.238282 27.976563 24.164063 31.902344v188.277343c0 29.445313 23.953125 53.398438 53.398437 53.398438 29.445313 0 53.394532-23.953125 53.394532-53.398438v-188.277343c13.925781-3.925781 24.171874-16.738281 24.171874-31.902344v-31.808594c-.007812-18.28125-14.878906-33.152343-33.160156-33.152343zm-96.972656 33.152343c0-4.421875 3.734375-8.152343 8.152344-8.152343h88.820312c4.417969 0 8.152344 3.730468 8.152344 8.152343v31.808594c0 4.421875-3.734375 8.152344-8.152344 8.152344h-88.820312c-4.417969 0-8.152344-3.730469-8.152344-8.152344zm80.960938 251.988281c0 15.660157-12.738282 28.398438-28.398438 28.398438s-28.398438-12.738281-28.398438-28.398438v-187.027343h56.796876zm0 0"/><path d="m295.191406 357.5c-6.90625 0-12.5 5.59375-12.5 12.5v148.0625c0 53.453125-43.488281 96.9375-96.9375 96.9375-53.453125 0-96.941406-43.484375-96.941406-96.9375v-179.515625h31.90625c18.28125 0 33.152344-14.878906 33.152344-33.160156v-31.808594c0-15.164063-10.238282-27.976563-24.164063-31.90625v-188.273437c.003907-29.445313-23.949219-53.398438-53.394531-53.398438-29.441406 0-53.398438 23.953125-53.398438 53.398438v188.277343c-13.925781 3.925781-24.164062 16.738281-24.164062 31.902344v31.808594c0 18.28125 14.875 33.160156 33.15625 33.160156h31.90625v179.515625c0 67.234375 54.703125 121.9375 121.941406 121.9375 67.234375 0 121.9375-54.703125 121.9375-121.9375v-148.0625c0-6.90625-5.597656-12.5-12.5-12.5zm-247.277344-304.101562c0-15.660157 12.742188-28.398438 28.398438-28.398438 15.660156 0 28.398438 12.738281 28.398438 28.398438v187.027343h-56.796876zm-24.164062 251.988281v-31.808594c0-4.421875 3.734375-8.152344 8.15625-8.152344h88.816406c4.417969 0 8.15625 3.730469 8.15625 8.152344v31.808594c0 4.421875-3.738281 8.160156-8.15625 8.160156h-88.816406c-4.421875 0-8.15625-3.738281-8.15625-8.160156zm0 0"/><path d="m295.191406 307.5c-6.886718 0-12.5 5.617188-12.5 12.5s5.613282 12.5 12.5 12.5c6.882813 0 12.5-5.617188 12.5-12.5s-5.617187-12.5-12.5-12.5zm0 0"/></g></svg>