<svg height="681pt" viewBox="-21 -51 681.33353 681" width="681pt" xmlns="http://www.w3.org/2000/svg"><g fill-rule="evenodd"><path d="m512.566406 409.464844c-.054687-.035156-.105468-.074219-.160156-.105469l-31.75-20.992187 23.4375-78.84375c1.957031-6.601563-1.804688-13.550782-8.40625-15.511719-6.605469-1.964844-13.550781 1.800781-15.511719 8.402343l-21.277343 71.578126-183.921876-121.574219c-29.007812-19.183594-62.785156-29.328125-97.683593-29.328125-12.332031 0-24.375 1.269531-36 3.675781l-25.871094-91.71875h29.890625c6.890625 0 12.476562-5.585937 12.476562-12.476563 0-6.886718-5.585937-12.476562-12.476562-12.476562h-92.734375c-6.890625 0-12.476563 5.589844-12.476563 12.476562 0 6.890626 5.585938 12.476563 12.476563 12.476563h36.925781l27.777344 98.507813c-68.316406 24.648437-117.28125 90.121093-117.28125 166.832031 0 97.761719 79.53125 177.292969 177.292969 177.292969h290.089843c50.003907 0 90.265626-49.382813 90.265626-90.269532.007812-41.773437-24.09375-63.597656-45.082032-77.945312zm-45.183594 143.265625h-290.089843c-84 0-152.339844-68.34375-152.339844-152.34375 0-84.007813 68.339844-152.347657 152.339844-152.347657 29.988281 0 59.007812 8.710938 83.917969 25.1875l197.863281 130.789063c.027343.019531.0625.039063.089843.058594l39.402344 26.042969c20.492188 14.023437 34.132813 29.144531 34.132813 57.292968.003906 25.695313-28.046875 65.320313-65.316407 65.320313zm0 0"/><path d="m323.140625 507.046875h-55.546875l-37.691406-53.570313c13.679687-13.5625 22.171875-32.355468 22.171875-53.089843 0-41.234375-33.546875-74.78125-74.78125-74.78125-41.230469 0-74.773438 33.546875-74.773438 74.78125s33.542969 74.773437 74.773438 74.773437c11.53125 0 22.457031-2.625 32.21875-7.304687l27.574219 39.191406h-37.992188c-6.890625 0-12.476562 5.585937-12.476562 12.476563 0 6.890624 5.585937 12.476562 12.476562 12.476562h124.054688c6.890624 0 12.472656-5.585938 12.472656-12.476562-.003906-6.890626-5.585938-12.476563-12.480469-12.476563zm-195.675781-106.660156c0-27.476563 22.355468-49.828125 49.828125-49.828125 27.476562 0 49.832031 22.351562 49.832031 49.828125 0 27.476562-22.355469 49.824219-49.832031 49.824219-27.472657 0-49.828125-22.347657-49.828125-49.824219zm0 0"/><path d="m629.828125-1.308594c-6.605469-1.964844-13.554687 1.796875-15.515625 8.402344l-30.609375 103h-37.148437c-.039063 0-.078126 0-.125 0h-46.15625c-6.886719 0-12.476563 5.585938-12.476563 12.476562 0 6.890626 5.589844 12.476563 12.476563 12.476563h29.640624l-21.304687 71.679687c-1.957031 6.609376 1.804687 13.554688 8.40625 15.511719 1.183594.355469 2.382813.523438 3.558594.523438 5.378906 0 10.34375-3.503907 11.953125-8.925781l23.421875-78.789063h37.054687c5.523438 0 10.386719-3.625 11.960938-8.917969l33.265625-111.925781c1.964843-6.601563-1.800781-13.546875-8.402344-15.511719zm0 0"/><path d="m506.347656 270.601562c6.871094 0 12.480469-5.605468 12.480469-12.476562s-5.609375-12.476562-12.480469-12.476562-12.472656 5.605468-12.472656 12.476562 5.601562 12.476562 12.472656 12.476562zm0 0"/></g></svg>