<svg height="682pt" viewBox="-21 -160 682.66535 682" width="682pt" xmlns="http://www.w3.org/2000/svg"><g fill-rule="evenodd"><path d="m594.046875 55.3125c-7.753906 0-15.058594 1.9375-21.46875 5.339844-3.335937-22.078125-22.441406-39.0625-45.441406-39.0625-7.972657 0-15.472657 2.046875-22.015625 5.636718-4.511719-20.640624-22.914063-36.144531-44.886719-36.144531-25.335937 0-45.953125 20.617188-45.953125 45.953125v85.71875h-188.5625v-85.71875c0-25.335937-20.617188-45.953125-45.957031-45.953125-21.96875 0-40.378907 15.503907-44.882813 36.144531-6.542968-3.589843-14.050781-5.636718-22.023437-5.636718-22.992188 0-42.097657 16.984375-45.433594 39.0625-6.410156-3.402344-13.722656-5.339844-21.46875-5.339844-25.339844 0-45.953125 20.613281-45.953125 45.957031v141.839844c0 25.335937 20.613281 45.953125 45.953125 45.953125 7.753906 0 15.058594-1.941406 21.46875-5.34375 3.335937 22.082031 22.441406 39.0625 45.4375 39.0625 7.96875 0 15.476563-2.042969 22.019531-5.628906 4.503906 20.636718 22.914063 36.136718 44.886719 36.136718 25.335937 0 45.953125-20.617187 45.953125-45.953124v-85.714844h44.28125c6.902344 0 12.5-5.597656 12.5-12.5 0-6.90625-5.597656-12.5-12.5-12.5h-44.28125v-48.867188h188.5625v48.867188h-44.28125c-6.90625 0-12.5 5.59375-12.5 12.5 0 6.902344 5.59375 12.5 12.5 12.5h44.28125v85.714844c0 25.335937 20.617188 45.953124 45.953125 45.953124 21.972656 0 40.378906-15.503906 44.886719-36.136718 6.542968 3.582031 14.046875 5.628906 22.019531 5.628906 22.996094 0 42.101563-16.980469 45.4375-39.0625 6.410156 3.402344 13.714844 5.34375 21.46875 5.34375 25.339844 0 45.953125-20.617188 45.953125-45.953125v-141.839844c0-25.34375-20.617188-45.957031-45.953125-45.957031zm-548.09375 208.75c-11.554687 0-20.953125-9.402344-20.953125-20.953125v-141.839844c0-11.558593 9.398438-20.957031 20.953125-20.957031 11.550781 0 20.949219 9.398438 20.949219 20.957031v141.839844c0 11.550781-9.398438 20.953125-20.949219 20.953125zm66.902344 33.71875c-11.550781 0-20.953125-9.398438-20.953125-20.953125v-209.285156c0-11.554688 9.402344-20.953125 20.953125-20.953125 11.554687 0 20.957031 9.398437 20.957031 20.953125v209.285156c0 11.554687-9.402344 20.953125-20.957031 20.953125zm87.863281 9.554688c0 11.554687-9.402344 20.953124-20.957031 20.953124-11.554688 0-20.953125-9.398437-20.953125-20.953124v-270.300782c0-11.554687 9.398437-20.953125 20.953125-20.953125 11.554687 0 20.957031 9.398438 20.957031 20.953125zm280.46875 0c0 11.554687-9.402344 20.953124-20.953125 20.953124-11.554687 0-20.953125-9.398437-20.953125-20.953124v-270.300782c0-11.554687 9.398438-20.953125 20.953125-20.953125 11.550781 0 20.953125 9.398438 20.953125 20.953125zm66.90625-30.507813c0 11.554687-9.398438 20.953125-20.953125 20.953125h-.003906c-11.550781 0-20.953125-9.398438-20.953125-20.953125v-209.285156c0-11.554688 9.402344-20.953125 20.957031-20.953125s20.953125 9.398437 20.953125 20.953125zm66.90625-33.71875c0 11.550781-9.402344 20.953125-20.953125 20.953125-11.554687 0-20.953125-9.402344-20.953125-20.953125v-141.839844c0-11.558593 9.398438-20.957031 20.953125-20.957031 11.550781 0 20.953125 9.398438 20.953125 20.957031zm0 0"/><path d="m320 196.621094c-6.886719 0-12.5 5.609375-12.5 12.5 0 6.882812 5.613281 12.5 12.5 12.5 6.882812 0 12.5-5.617188 12.5-12.5 0-6.890625-5.617188-12.5-12.5-12.5zm0 0"/></g></svg>