<svg height="681pt" viewBox="-21 -174 681.33248 681" width="681pt" xmlns="http://www.w3.org/2000/svg"><g fill-rule="evenodd"><path d="m638.078125 200.101562c.445313-5.867187.675781-11.964843.671875-18.328124-.03125-38.984376-78.382812-67.8125-173.03125-98.796876-14.828125-4.851562-27.636719-9.042968-36.167969-12.273437-33.574219-12.707031-63.058593-30.902344-91.574219-48.496094-9.695312-5.980469-19.71875-12.167969-29.738281-18.03125-40.910156-23.945312-64.074219-12.410156-74.238281-3.40625-15.660156 13.871094-20.019531 38.75-10.605469 60.503907 5.574219 12.867187 3.820313 29.910156-3.753906 36.46875-7.847656 6.796874-21.460937.152343-28.871094-4.414063-2.121093-1.300781-4.75-3.058594-8.265625-5.535156-5.640625-3.960938-13.421875-2.609375-17.382812 3.03125-3.964844 5.632812-2.609375 13.414062 3.03125 17.378906 3.941406 2.777344 6.972656 4.800781 9.53125 6.371094 30.835937 18.988281 49.753906 9.421875 58.289062 2.027343 15.992188-13.84375 20.429688-41.898437 10.320313-65.242187-5.023438-11.597656-3.195313-25.316406 4.25-31.910156 8.695312-7.699219 25.132812-5.417969 45.09375 6.261719 9.765625 5.722656 19.664062 11.828124 29.238281 17.734374 5.601562 3.457032 11.238281 6.933594 16.933594 10.394532-5.777344 30.929687-20.007813 54.078125-38.871094 62.695312-6.269531 2.859375-9.027344 10.261719-6.160156 16.53125 2.09375 4.585938 6.617187 7.292969 11.355468 7.292969 1.734376 0 3.492188-.359375 5.171876-1.128906 24.664062-11.265625 42.792968-37.066407 51.179687-72.058594 7.925781 4.476563 16.035156 8.824219 24.398437 12.949219-5.335937 26.667968-17.75 46.539062-34.070312 53.996094-6.265625 2.863281-9.027344 10.265624-6.164062 16.53125 2.09375 4.589843 6.621093 7.296874 11.355468 7.296874 1.734375 0 3.496094-.363281 5.179688-1.132812 22.679687-10.359375 39.316406-34.0625 46.941406-66.179688 2.839844 1.164063 5.695312 2.3125 8.59375 3.40625 4.980469 1.886719 11.167969 4.027344 18.242188 6.394532-4.902344 22.199218-15.445313 38.640625-29.144532 44.898437-6.261718 2.859375-9.023437 10.261719-6.160156 16.53125 2.097656 4.585938 6.625 7.292969 11.355469 7.292969 1.734375 0 3.5-.363281 5.175781-1.128906 20.570312-9.398438 35.65625-30.800782 42.578125-59.761719 31.195313 10.222656 68.789063 22.722656 99.792969 36.734375 49.792968 22.503906 51.238281 35.394531 51.238281 36.792969.003906 4.34375-.105469 8.519531-.332031 12.554687-13.132813 15.136719-27.710938 21.125-43.929688 26.769532-18.953125 6.597656-69.65625 10.695312-132.316406 10.695312-62.484375 0-118.996094-4.167969-137.425781-10.136719-3.667969-1.1875-7.492188-2.4375-11.433594-3.722656-42.640625-13.9375-95.710937-31.28125-135.375-31.28125-32.378906 0-83.175781 3.660156-127.511719 13.648437-.5625-13.523437-.695312-28.347656-.328125-43.699218 1.339844-56.054688 8.320313-89.875 12.839844-95.980469 5.777344-7.785156 17.046875-16.671875 48.199219-4.015625 6.382812 2.59375 13.660156-.480469 16.25-6.863281 2.597656-6.382813-.476563-13.660157-6.859375-16.253907-43.535157-17.6875-66.242188-3.089843-77.632813 12.277344-14.089844 19.011719-17.101562 83.429688-17.738281 110.242188-.472656 19.722656-1.046875 83.621094 9.953125 112.558594.007812.019531.011719.039062.023438.054687.273437.726563.554687 1.425781.847656 2.105469.046875.109375.097656.21875.144531.332031.277344.636719.5625 1.261719.859375 1.859375 0 .003906.003906.015625.007812.019531.925782 1.878907 2.09375 3.839844 3.5 5.855469.003907.003906.003907.007812.003907.007812.097656.136719.207031.273438.296875.40625 13.859375 19.449219 49.980468 43.605469 106.785156 43.605469h.003906c35.484375 0 59.828125-8.964843 81.304688-16.867187 2.949218-1.082032 5.871094-2.15625 8.792968-3.195313 16.042969-5.722656 32.160157-10.480469 52.929688-10.480469 29.0625 0 50.472656 6.832032 73.136719 14.070313 1.535156.492187 3.074219.984375 4.621093 1.472656.066407.023438.132813.042969.199219.066407 1.550781.492187 3.105469.980468 4.664063 1.46875.046875.011718.09375.027343.140625.042968 1.570312.492188 3.148437.972656 4.734375 1.457032.042968.015624.082031.023437.125.039062 1.59375.480469 3.203125.960938 4.824218 1.433594.03125.003906.058594.011718.085938.023437 1.628906.472657 3.273438.933594 4.933594 1.394531.023437.007813.054687.015626.078125.019532 1.667969.457031 3.34375.90625 5.042969 1.34375.023437.003906.042968.011718.070312.019531 1.699219.433594 3.425781.863281 5.175781 1.277344.011719 0 .03125.003906.050781.007812 1.75.414063 3.523438.816407 5.324219 1.199219.011719.007812.027344.011719.042969.011719 1.796875.382812 3.625.753906 5.480469 1.105469.011719.003906.027343.003906.035156.011718 1.855469.347656 3.742187.683594 5.660156.996094.007813.007812.019531.007812.027344.011719 1.921875.3125 3.863281.609375 5.847656.882812.011719 0 .015625 0 .023438.003907 1.984375.273437 4.003906.519531 6.054687.75h.023438c2.050781.230468 4.140625.429687 6.273437.609374h.011719c2.136719.175782 4.304688.324219 6.511719.449219h.019531c2.210938.121094 4.464844.21875 6.765625.28125h.003906c2.304688.0625 4.652344.09375 7.046875.09375h.015625c2.328125 0 4.625-.007812 6.894531-.019531.339844-.007812.671876-.011719 1.011719-.011719 1.980469-.015625 3.945313-.035156 5.878907-.058593.144531 0 .289062-.003907.429687-.003907 54.140625-.730469 91.441406-5.800781 119.574219-16.351562.171875-.0625.347656-.125.515625-.1875.785156-.296875 1.5625-.601563 2.332031-.90625.414062-.167969.832031-.328125 1.242188-.492188.382812-.15625.753906-.316406 1.136718-.480469 5.203125-2.15625 10.082032-4.519531 14.65625-7.097656.136719-.078125.269532-.160156.40625-.238281.1875-.109375.375-.226563.5625-.332031 33.496094-19.304688 51.136719-50.171875 54.710938-96.234375.003906-.078125.011718-.148438.019531-.226563 0-.03125 0-.058594 0-.089844zm-372.421875 67.238282c-7.253906 0-14 .480468-20.367188 1.324218-19.097656 2.523438-34.730468 8.28125-49.96875 13.890626-16.066406 5.910156-31.46875 11.578124-51.253906 14.042968-6.597656.820313-13.683594 1.285156-21.441406 1.285156-53.265625 0-82.425781-24.21875-88.203125-35.949218-.003906-.007813-.011719-.023438-.019531-.035156-.160156-.328126-.320313-.691407-.476563-1.054688-1.324219-3.109375-3.484375-9.832031-5.375-23.25-.085937-.636719-.175781-1.261719-.257812-1.90625-.019531-.148438-.039063-.296875-.058594-.445312-.394531-3.058594-.753906-6.300782-1.082031-9.707032 43.105468-10.207031 93.816406-13.90625 125.832031-13.90625 35.6875 0 88.828125 17.363282 127.621094 30.042969 3.96875 1.296875 7.808593 2.546875 11.503906 3.746094 25.871094 8.375 94.335937 11.347656 145.105469 11.347656 24.824218 0 108.3125-.875 140.515625-12.082031 8.023437-2.792969 18.191406-6.332032 28.855469-12.601563-.4375 1.230469-.898438 2.433594-1.371094 3.625-.066406.171875-.136719.339844-.203125.511719-.425781 1.042969-.867188 2.070312-1.324219 3.085938-.089844.1875-.171875.382812-.253906.574218-.503906 1.089844-1.03125 2.15625-1.570313 3.210938-.230469.449218-.472656.882812-.707031 1.320312-.308594.570313-.617188 1.140625-.933594 1.699219-.328125.566406-.660156 1.128906-.996094 1.683594-.238281.394531-.476562.785156-.722656 1.171875-.386718.617187-.777344 1.230468-1.183594 1.835937-.144531.21875-.296874.433594-.449218.644531-1.5 2.199219-3.105469 4.296876-4.824219 6.296876-.175781.207031-.34375.40625-.519531.605468-.53125.609375-1.078125 1.207032-1.632813 1.804688-.183593.203125-.386719.402344-.574219.601562-1.734374 1.820313-3.574218 3.550782-5.507812 5.207032-.320312.273437-.636719.550781-.960938.816406-.507812.421875-1.023437.828125-1.542968 1.238281-.433594.339844-.875.679687-1.316406 1.015625-.476563.359375-.957032.714844-1.4375 1.066406-.605469.433594-1.222657.855469-1.84375 1.28125-.355469.242188-.707032.496094-1.070313.734375-.984375.648438-1.988281 1.28125-3.015625 1.902344-.332031.203125-.667969.394531-1.003906.589844-.800782.46875-1.601563.929687-2.421875 1.382812-.292969.160157-.589844.324219-.886719.484375-1.109375.59375-2.222656 1.179688-3.371094 1.742188-3.496094 1.722656-7.191406 3.316406-11.109375 4.796875-.007812 0-.023437.003906-.035156.007812-.851563.324219-1.71875.636719-2.589844.945313-.222656.078125-.433593.152344-.65625.230468-.695312.242188-1.402343.484376-2.113281.714844-.445312.152344-.890625.300782-1.339844.445313-.515625.164062-1.039062.328125-1.558594.492187-.707031.21875-1.425781.433594-2.144531.648438-.296875.085937-.59375.175781-.894531.261718-1.027344.296876-2.058594.589844-3.117188.875-.015624.003907-.035156.007813-.046874.011719-23.828126 6.40625-55.03125 9.601563-97.09375 10.152344-.210938 0-.414063.003906-.628907.007813-1.78125.019531-3.59375.035156-5.421875.050781-.335937 0-.667968.003906-1.003906.007812-2.132812.011719-4.292969.019531-6.480469.019531-.007812 0-.011719 0-.015625 0-27.972656 0-48.566406-4.902343-68.519531-10.957031-4.597656-1.398437-9.171875-2.855469-13.785156-4.332031-23.488281-7.5-47.777344-15.253906-80.730469-15.253906zm0 0"/><path d="m134.570312 81.671875c6.871094 0 12.472657-5.605469 12.472657-12.476563 0-6.871093-5.601563-12.476562-12.472657-12.476562-6.878906 0-12.476562 5.605469-12.476562 12.476562 0 6.871094 5.605469 12.476563 12.476562 12.476563zm0 0"/></g></svg>