<svg height="682pt" viewBox="-60 -21 682 682.66669" width="682pt" xmlns="http://www.w3.org/2000/svg"><g fill-rule="evenodd"><path d="m226.339844 180.757812c-19.402344 3.1875-36.230469 7.683594-49.757813 11.296876-18.28125 4.882812-34.0625 9.109374-39.820312 5.386718-3.171875-2.050781-5.695313-8.296875-7.296875-18.058594-2.929688-17.90625 1.503906-33.960937 13.183594-47.707031 23.378906-27.527343 72.785156-43.3125 135.546874-43.3125 62.761719 0 112.167969 15.785157 135.550782 43.3125 11.679687 13.746094 16.113281 29.800781 13.179687 47.707031-1.597656 9.761719-4.121093 16.007813-7.300781 18.058594-5.746094 3.714844-21.539062-.503906-39.816406-5.386718-13.523438-3.613282-30.355469-8.109376-49.757813-11.296876-6.804687-1.113281-13.242187 3.496094-14.363281 10.304688-1.117188 6.8125 3.496094 13.242188 10.308594 14.363281 18.1875 2.988281 33.6875 7.128907 47.359375 10.78125 15.621093 4.175781 28.632812 7.652344 39.804687 7.652344 7.417969 0 14.023438-1.535156 20.035156-5.421875 12.699219-8.203125 16.585938-23.914062 18.402344-35.015625 4.117188-25.125-2.386718-48.617187-18.800781-67.933594-28.136719-33.125-84.492187-52.125-154.601563-52.125-70.109374 0-126.460937 19-154.601562 52.125-16.414062 19.320313-22.914062 42.8125-18.796875 67.933594 1.816406 11.105469 5.703125 26.8125 18.402344 35.015625 15.058593 9.734375 33.84375 4.71875 59.839843-2.226562 13.671876-3.652344 29.167969-7.796876 47.355469-10.785157 6.8125-1.121093 11.425781-7.550781 10.308594-14.363281-1.121094-6.808594-7.546875-11.417969-14.363281-10.304688zm0 0"/><path d="m499.21875 259.085938c-4.011719-4.210938-7.183594-7.539063.835938-19.195313 15.800781-22.976563 23.8125-47.316406 23.8125-72.347656 0-45.730469-26.234376-88.363281-73.875-120.039063-46.066407-30.632812-107.082032-47.503906-171.796876-47.503906-64.71875 0-125.730468 16.871094-171.796874 47.503906-47.644532 31.675782-73.878907 74.308594-73.878907 120.039063 0 25.027343 8.011719 49.367187 23.8125 72.34375 8.019531 11.660156 4.851563 14.988281.839844 19.199219-36.703125 38.539062-59.503906 95.269531-59.503906 148.054687 0 59.308594 30.238281 118.699219 82.972656 162.941406 53.734375 45.089844 123.894531 69.917969 197.554687 69.917969 73.65625 0 143.816407-24.828125 197.558594-69.917969 52.726563-44.238281 82.972656-103.632812 82.972656-162.941406 0-52.785156-22.804687-109.515625-59.507812-148.054687zm-39.535156 291.847656c-49.242188 41.3125-113.695313 64.066406-181.488282 64.066406-67.792968 0-132.242187-22.753906-181.492187-64.066406-47.050781-39.480469-74.035156-91.890625-74.035156-143.792969 0-46.613281 20.15625-96.734375 52.605469-130.8125 14.046874-14.75 14.609374-31.777344 1.660156-50.601563-12.878906-18.734374-19.414063-38.308593-19.414063-58.183593 0-37.09375 22.269531-72.328125 62.714844-99.222657 42.015625-27.933593 98.117187-43.320312 157.960937-43.320312 59.847657 0 115.941407 15.386719 157.957032 43.320312 40.441406 26.894532 62.714844 62.128907 62.714844 99.222657 0 19.875-6.53125 39.449219-19.414063 58.179687-12.949219 18.828125-12.386719 35.855469 1.660156 50.605469 32.453125 34.070313 52.613281 84.199219 52.613281 130.8125 0 51.902344-26.988281 104.3125-74.042968 143.792969zm0 0"/><path d="m265.695312 188.953125c0 6.890625 5.613282 12.5 12.5 12.5 6.882813 0 12.5-5.609375 12.5-12.5 0-6.882813-5.617187-12.5-12.5-12.5-6.886718 0-12.5 5.617187-12.5 12.5zm0 0"/></g></svg>