<svg height="682pt" viewBox="-21 -75 682.66535 682" width="682pt" xmlns="http://www.w3.org/2000/svg"><g fill-rule="evenodd"><path d="m604.960938 19.453125c-4.0625 0-7.964844.703125-11.597657 1.984375-4.425781-14.28125-17.757812-24.6875-33.476562-24.6875-19.320313 0-35.035157 15.71875-35.035157 35.039062v51.324219h-29.398437v-20.441406c0-6.902344-5.59375-12.5-12.5-12.5-6.902344 0-12.5 5.597656-12.5 12.5v20.441406h-300.90625v-20.441406c0-6.902344-5.597656-12.5-12.5-12.5-6.90625 0-12.5 5.597656-12.5 12.5v20.441406h-29.402344v-51.324219c0-19.320312-15.714843-35.039062-35.03125-35.039062-15.71875 0-29.050781 10.40625-33.476562 24.6875-3.632813-1.28125-7.535157-1.984375-11.597657-1.984375-19.320312 0-35.039062 15.71875-35.039062 35.039063v82.242187c0 19.320313 15.71875 35.039063 35.039062 35.039063 4.0625 0 7.964844-.703126 11.597657-1.984376 4.425781 14.285157 17.757812 24.6875 33.476562 24.6875 19.320313 0 35.03125-15.714843 35.03125-35.039062v-51.324219h29.402344v201.136719c-44.265625 6.113281-78.472656 44.171875-78.472656 90.097656v117.394532c0 6.90625 5.59375 12.5 12.5 12.5h78.472656c6.902344 0 12.5-5.59375 12.5-12.5v-408.628907h300.90625v408.628907c0 6.90625 5.597656 12.5 12.5 12.5h78.472656c6.902344 0 12.5-5.59375 12.5-12.5v-117.394532c0-45.925781-34.207031-83.984375-78.472656-90.097656v-201.136719h29.398437v51.324219c0 19.324219 15.71875 35.039062 35.035157 35.039062 15.71875 0 29.050781-10.402343 33.476562-24.6875 3.632813 1.28125 7.535157 1.984376 11.601563 1.984376 19.316406 0 35.035156-15.71875 35.035156-35.039063v-82.242187c0-19.320313-15.71875-35.039063-35.039062-35.039063zm-569.921876 127.320313c-5.539062 0-10.039062-4.503907-10.039062-10.039063v-82.242187c0-5.535157 4.5-10.039063 10.039062-10.039063 5.53125 0 10.035157 4.503906 10.035157 10.039063v82.242187c0 5.535156-4.503907 10.039063-10.035157 10.039063zm55.105469 12.664062c0 5.535156-4.5 10.035156-10.03125 10.035156-5.539062 0-10.039062-4.5-10.039062-10.035156v-127.648438c0-5.539062 4.5-10.039062 10.039062-10.039062 5.53125 0 10.03125 4.5 10.03125 10.039062zm.929688 239.910156c0-32.109375 23.050781-58.9375 53.472656-64.792968v169.6875h-53.472656zm457.851562 0v104.894532h-53.472656v-169.6875c30.417969 5.855468 53.472656 32.683593 53.472656 64.792968zm21-239.910156c0 5.535156-4.503906 10.035156-10.039062 10.035156-5.53125 0-10.035157-4.5-10.035157-10.035156v-127.648438c0-5.539062 4.503907-10.039062 10.035157-10.039062 5.535156 0 10.039062 4.5 10.039062 10.039062zm45.074219-22.703125c0 5.53125-4.503906 10.035156-10.039062 10.035156-5.535157 0-10.035157-4.503906-10.035157-10.035156v-82.242187c0-5.535157 4.5-10.039063 10.035157-10.039063 5.535156 0 10.039062 4.503906 10.039062 10.039063zm0 0"/><path d="m397.875 296.796875h-27.875c-6.90625 0-12.5 5.597656-12.5 12.5 0 6.90625 5.59375 12.5 12.5 12.5h27.875c8.242188 0 14.953125 6.710937 14.953125 14.953125v33.242188c0 8.246093-6.710937 14.949218-14.953125 14.949218h-155.75c-8.242188 0-14.953125-6.703125-14.953125-14.949218v-33.242188c0-8.242188 6.710937-14.953125 14.953125-14.953125h27.875c6.902344 0 12.5-5.59375 12.5-12.5 0-6.902344-5.597656-12.5-12.5-12.5h-27.875c-22.027344 0-39.953125 17.925781-39.953125 39.953125v33.242188c0 22.03125 17.925781 39.949218 39.953125 39.949218h23.664062v106.800782c0 6.90625 5.597657 12.5 12.5 12.5h83.417969c6.90625 0 12.5-5.59375 12.5-12.5v-106.800782h23.667969c22.027344 0 39.953125-17.917968 39.953125-39.949218v-33.242188c0-22.027344-17.925781-39.953125-39.953125-39.953125zm-48.667969 207.445313h-58.417969v-94.300782h58.417969zm0 0"/><path d="m332.5 309.296875c0-6.882813-5.617188-12.5-12.5-12.5-6.886719 0-12.5 5.617187-12.5 12.5 0 6.886719 5.613281 12.5 12.5 12.5 6.882812 0 12.5-5.613281 12.5-12.5zm0 0"/></g></svg>