<svg height="682pt" viewBox="-42 -21 682 682.66556" width="682pt" xmlns="http://www.w3.org/2000/svg"><g fill-rule="evenodd"><path d="m422.972656 332.984375c-38.726562 11.816406-66.171875 44.679687-71.390625 83.9375-.03125 0-.070312 0-.101562 0-12.140625 0-25.761719 1.167969-40.109375 3.453125-6.816406 1.089844-11.460938 7.5-10.371094 14.316406 1.085938 6.816406 7.484375 11.464844 14.3125 10.375 17.671875-2.820312 33.886719-3.769531 46.894531-2.746094 3.464844.273438 6.875-.910156 9.429688-3.253906 2.558593-2.34375 4.023437-5.644531 4.050781-9.109375.269531-33.820312 22.203125-63.183593 54.585938-73.0625 40.628906-12.398437 83.789062 10.570313 96.191406 51.210938s-10.574219 83.792969-51.210938 96.195312c-32.375 9.878907-66.972656-2.230469-86.078125-30.136719-1.960937-2.867187-5.019531-4.78125-8.449219-5.296874-3.425781-.523438-6.917968.410156-9.636718 2.5625-19.386719 15.382812-50.582032 30.332031-85.59375 41.015624-35.011719 10.683594-69.242188 15.703126-93.914063 13.765626-3.460937-.273438-6.871093.902343-9.425781 3.246093-2.558594 2.34375-4.027344 5.644531-4.050781 9.117188-.273438 33.816406-22.207031 63.175781-54.589844 73.054687-40.640625 12.402344-83.789063-10.570312-96.191406-51.210937-6.007813-19.6875-3.988281-40.53125 5.683593-58.699219 9.671876-18.167969 25.839844-31.484375 45.527344-37.492188 32.378906-9.886718 66.972656 2.226563 86.078125 30.136719 1.957031 2.863281 5.019531 4.78125 8.449219 5.300781 3.425781.515626 6.917969-.410156 9.636719-2.570312 10.21875-8.109375 24.203125-16.375 40.433593-23.902344 6.265626-2.902344 8.992188-10.335937 6.085938-16.59375-2.90625-6.265625-10.335938-8.992187-16.597656-6.085937-13.210938 6.125-25.199219 12.785156-35.289063 19.582031-26.242187-29.65625-67.367187-41.597656-106.097656-29.78125-26.074219 7.957031-47.484375 25.59375-60.296875 49.65625s-15.484375 51.675781-7.53125 77.75c13.410156 43.933594 53.953125 72.28125 97.671875 72.28125 9.839844 0 19.84375-1.4375 29.730469-4.453125 38.726562-11.816406 66.179687-44.683594 71.394531-83.941406h.117187c25.9375 0 58.097657-5.371094 90.46875-15.242188 32.421876-9.898437 62.136719-23.425781 83.664063-37.929687 26.246094 29.65625 67.367187 41.601562 106.09375 29.777344 53.824219-16.425782 84.253906-73.578126 67.828125-127.402344-16.421875-53.828125-73.585938-84.25-127.402344-67.824219zm0 0"/><path d="m411.945312 442.742188c6.863282 0 12.449219-5.527344 12.5-12.394532.097657-12.410156 8.160157-23.179687 20.058594-26.8125 14.917969-4.550781 30.761719 3.882813 35.320313 18.804688 2.015625 6.605468 8.996093 10.320312 15.605469 8.308594 6.601562-2.015626 10.320312-9.003907 8.304687-15.609376-8.574219-28.101562-38.421875-43.996093-66.527344-35.414062-22.398437 6.835938-37.574219 27.136719-37.757812 50.519531-.058594 6.90625 5.492187 12.546875 12.394531 12.597657zm0 0"/><path d="m92.769531 510.867188c11.898438-3.632813 24.597657.808593 31.605469 11.046874 3.902344 5.691407 11.679688 7.152344 17.378906 3.25 5.695313-3.898437 7.152344-11.679687 3.253906-17.375-13.210937-19.296874-37.136718-27.667968-59.535156-20.832031-13.621094 4.15625-24.808594 13.363281-31.492187 25.921875-6.691407 12.566406-8.082031 26.984375-3.925781 40.605469 1.644531 5.386719 6.59375 8.859375 11.953124 8.851563 1.203126 0 2.433594-.175782 3.652344-.546876 6.601563-2.015624 10.320313-8.996093 8.304688-15.601562-2.207032-7.238281-1.464844-14.890625 2.078125-21.558594 3.550781-6.664062 9.488281-11.554687 16.726562-13.761718zm0 0"/><path d="m580.199219 44.832031c-31.539063-46.605469-95.113281-58.871093-141.722657-27.332031-33.535156 22.691406-50.09375 62.175781-43.53125 101.234375-11.625 3.574219-24.339843 8.710937-37.410156 15.136719-6.199218 3.046875-8.75 10.539062-5.703125 16.734375 3.046875 6.195312 10.535157 8.75 16.730469 5.703125 16.0625-7.894532 31.277344-13.578125 44.015625-16.429688 3.382813-.757812 6.296875-2.886718 8.050781-5.878906 1.753906-2.996094 2.183594-6.582031 1.191406-9.902344-9.699218-32.402344 2.625-66.921875 30.667969-85.890625 35.1875-23.8125 83.1875-14.554687 107.003907 20.636719 23.8125 35.1875 14.554687 83.191406-20.636719 107.003906-28.035157 18.972656-64.664063 17.574219-91.132813-3.46875-2.714844-2.160156-6.207031-3.09375-9.632812-2.578125-3.433594.511719-6.496094 2.429688-8.457032 5.292969-14 20.402344-39.417968 43.871094-69.734374 64.382812-30.320313 20.519532-61.554688 35.386719-85.703126 40.792969-3.386718.753907-6.300781 2.882813-8.054687 5.878907-1.75 2.992187-2.179687 6.582031-1.191406 9.902343 9.699219 32.402344-2.625 66.917969-30.664063 85.886719-17.042968 11.539062-37.566406 15.742188-57.777344 11.847656-20.210937-3.898437-37.695312-15.429687-49.226562-32.480468-23.816406-35.191407-14.558594-83.195313 20.632812-107.003907 28.039063-18.972656 64.664063-17.578125 91.136719 3.46875 2.714844 2.160157 6.207031 3.09375 9.636719 2.578125 3.425781-.515625 6.488281-2.429687 8.449219-5.289062 7.378906-10.757813 18.3125-22.773438 31.621093-34.746094 5.132813-4.621094 5.546876-12.523438.929688-17.65625-4.621094-5.132812-12.523438-5.550781-17.65625-.929688-10.832031 9.746094-20.328125 19.644532-27.964844 29.109376-33.8125-20.621094-76.625-19.933594-110.160156 2.757812-46.613281 31.539062-58.871094 95.117188-27.335938 141.722656 15.28125 22.578125 38.433594 37.855469 65.203126 43.019532 6.511718 1.253906 13.050781 1.875 19.539062 1.875 20.179688 0 39.898438-6.003907 56.984375-17.558594 33.535156-22.695313 50.089844-62.179688 43.523437-101.238282 24.816407-7.621093 54.019532-22.230468 82.089844-41.222656 28.070313-19 52.496094-40.671875 68.796875-60.871094 33.816407 20.621094 76.621094 19.933594 110.15625-2.761718 46.613281-31.539063 58.875-95.117188 27.335938-141.726563zm0 0"/><path d="m479.816406 78.59375c6.261719-4.238281 13.796875-5.78125 21.210938-4.355469 7.417968 1.429688 13.835937 5.667969 18.078125 11.933594 3.867187 5.722656 11.640625 7.214844 17.359375 3.347656 5.714844-3.871093 7.214844-11.640625 3.347656-17.355469-7.984375-11.796874-20.074219-19.78125-34.046875-22.472656-13.976563-2.695312-28.164063.214844-39.960937 8.199219-19.394532 13.125-27.925782 36.992187-21.222657 59.398437 1.628907 5.421876 6.59375 8.917969 11.972657 8.917969 1.1875 0 2.394531-.167969 3.589843-.527343 6.617188-1.980469 10.371094-8.945313 8.394531-15.558594-3.558593-11.882813.976563-24.554688 11.277344-31.527344zm0 0"/><path d="m175.242188 284.6875c10.304687-6.972656 23.746093-6.464844 33.457031 1.253906 5.402343 4.296875 13.269531 3.398438 17.566406-2.007812 4.296875-5.402344 3.398437-13.269532-2.003906-17.5625-18.304688-14.554688-43.632813-15.515625-63.03125-2.390625-24.335938 16.46875-30.738281 49.667969-14.273438 74.007812 2.417969 3.570313 6.359375 5.492188 10.367188 5.492188 2.410156 0 4.847656-.691407 6.996093-2.148438 5.71875-3.867187 7.21875-11.640625 3.34375-17.359375-8.738281-12.917968-5.339843-30.546875 7.578126-39.285156zm0 0"/><path d="m277.148438 444.125c0-6.890625-5.617188-12.503906-12.5-12.503906-6.890626 0-12.503907 5.613281-12.503907 12.503906 0 6.886719 5.613281 12.5 12.503907 12.5 6.882812 0 12.5-5.613281 12.5-12.5zm0 0"/><path d="m319.867188 182.816406c6.886718 0 12.5-5.613281 12.5-12.5 0-6.882812-5.613282-12.503906-12.5-12.503906-6.890626 0-12.503907 5.621094-12.503907 12.503906 0 6.886719 5.613281 12.5 12.503907 12.5zm0 0"/></g></svg>