<svg height="682pt" viewBox="-169 -21 682 682.66535" width="682pt" xmlns="http://www.w3.org/2000/svg"><g fill-rule="evenodd"><path d="m3 332.519531c6.902344 0 12.5-5.597656 12.5-12.5v-100.039062c0-26.027344 21.175781-47.199219 47.195312-47.199219h200.042969c26.023438 0 47.195313 21.171875 47.195313 47.199219 0 6.902343 5.597656 12.5 12.5 12.5s12.5-5.597657 12.5-12.5c0-36.234375-26.832032-66.308594-61.667969-71.421875l-25.78125-138.347656c-1.101563-5.917969-6.261719-10.210938-12.289063-10.210938h-148.019531c-6.113281 0-11.335937 4.421875-12.332031 10.457031l-22.878906 138.125c-34.738282 5.203125-61.464844 35.234375-61.464844 71.398438v100.042969c0 6.898437 5.59375 12.496093 12.5 12.496093zm94.773438-307.519531h127.042968l22.878906 122.78125h-170.257812zm0 0"/><path d="m322.433594 307.480469c-6.902344 0-12.5 5.59375-12.5 12.5v100.042969c0 26.019531-21.171875 47.191406-47.199219 47.191406h-200.039063c-26.023437 0-47.195312-21.171875-47.195312-47.191406 0-6.902344-5.597656-12.5-12.5-12.5-6.90625 0-12.5 5.597656-12.5 12.5 0 36.164062 26.726562 66.191406 61.464844 71.390624l22.878906 138.128907c.996094 6.03125 6.21875 10.457031 12.332031 10.457031h148.019531c6.019532 0 11.1875-4.292969 12.289063-10.210938l25.78125-138.347656c34.835937-5.113281 61.667969-35.1875 61.667969-71.417968v-100.042969c0-6.90625-5.597656-12.5-12.5-12.5zm-97.617188 307.519531h-127.042968l-20.335938-122.785156h170.253906zm0 0"/><path d="m204.023438 73.890625h-82.609376c-6.90625 0-12.5 5.597656-12.5 12.5 0 6.90625 5.59375 12.5 12.5 12.5h82.609376c6.898437 0 12.5-5.59375 12.5-12.5 0-6.902344-5.601563-12.5-12.5-12.5zm0 0"/><path d="m121.414062 566.105469h82.609376c6.898437 0 12.5-5.59375 12.5-12.5 0-6.902344-5.601563-12.5-12.5-12.5h-82.609376c-6.90625 0-12.5 5.597656-12.5 12.5 0 6.90625 5.59375 12.5 12.5 12.5zm0 0"/><path d="m205.09375 230.800781c-15.761719 0-30.640625 5.542969-42.378906 15.703125-11.738282-10.160156-26.609375-15.703125-42.371094-15.703125-17.359375 0-33.632812 6.71875-45.835938 18.921875-12.203124 12.199219-18.921874 28.480469-18.921874 45.832032 0 17.355468 6.71875 33.632812 18.921874 45.832031l79.371094 79.375c2.441406 2.441406 5.636719 3.660156 8.835938 3.660156 3.199218 0 6.398437-1.21875 8.839844-3.660156l79.375-79.375c12.199218-12.203125 18.917968-28.480469 18.917968-45.835938 0-17.351562-6.71875-33.632812-18.917968-45.828125-12.203126-12.203125-28.484376-18.921875-45.835938-18.921875zm28.160156 92.910157-70.539062 70.535156-70.53125-70.535156c-7.480469-7.480469-11.601563-17.476563-11.601563-28.15625 0-10.675782 4.121094-20.675782 11.601563-28.152344 7.480468-7.480469 17.480468-11.601563 28.15625-11.601563 10.675781 0 20.675781 4.121094 28.15625 11.597657l5.382812 5.382812c2.34375 2.34375 5.519532 3.660156 8.835938 3.660156s6.496094-1.316406 8.839844-3.660156l5.378906-5.378906c7.480468-7.480469 17.480468-11.601563 28.160156-11.601563 10.671875 0 20.671875 4.121094 28.152344 11.601563 7.480468 7.476562 11.601562 17.476562 11.601562 28.152344 0 10.675781-4.113281 20.675781-11.59375 28.15625zm0 0"/><path d="m3.003906 382.523438c6.886719 0 12.5-5.613282 12.5-12.503907 0-6.886719-5.613281-12.5-12.5-12.5-6.882812 0-12.503906 5.613281-12.503906 12.5 0 6.882813 5.621094 12.503907 12.503906 12.503907zm0 0"/><path d="m322.433594 257.480469c-6.886719 0-12.5 5.613281-12.5 12.5 0 6.882812 5.613281 12.5 12.5 12.5 6.882812 0 12.5-5.617188 12.5-12.5 0-6.886719-5.617188-12.5-12.5-12.5zm0 0"/></g></svg>