<svg height="682pt" viewBox="-40 -21 682 682.66535" width="682pt" xmlns="http://www.w3.org/2000/svg"><g fill-rule="evenodd"><path d="m401.816406 240.808594c-68.433594 0-130.738281 35.148437-166.9375 90.195312-10.609375-15.355468-22.75-29.503906-34.769531-40.351562-7.144531-6.4375-8.6875-9.433594-5.9375-18.203125 1.222656-3.898438 2.46875-7.988281 3.714844-12.21875h.085937l2.53125-9.179688c.15625-.574219.300782-1.132812.453125-1.699219.152344-.558593.304688-1.113281.453125-1.679687.417969-1.539063.8125-3.066406 1.207032-4.589844.132812-.535156.273437-1.054687.40625-1.589843.523437-2.058594 1.03125-4.109376 1.511718-6.140626.019532-.070312.03125-.132812.050782-.199218.46875-1.972656.914062-3.933594 1.347656-5.886719.144531-.65625.292968-1.328125.4375-2 .332031-1.539063.660156-3.070313.972656-4.601563.121094-.59375.246094-1.183593.367188-1.785156.414062-2.089844.808593-4.164062 1.1875-6.230468.078124-.414063.148437-.835938.222656-1.253907.34375-1.925781.667968-3.839843.976562-5.738281.0625-.382812.128906-.757812.1875-1.136719.359375-2.292969.695313-4.570312 1.007813-6.832031.03125-.234375.058593-.46875.09375-.699219.660156-4.898437 1.195312-9.726562 1.613281-14.496093.023438-.257813.042969-.519532.066406-.78125.207032-2.433594.382813-4.847657.523438-7.246094.015625-.21875.023437-.441406.035156-.660156.058594-1.015626.121094-2.03125.164062-3.035157l.605469-13.078125h-.316406c-.054687-46.371094-6.964844-85.757812-19.996094-113.914062-13.660156-29.523438-33.851562-45.777344-56.839843-45.777344-22.988282 0-43.175782 16.253906-56.839844 45.777344-13.039063 28.152344-19.949219 67.542968-20 113.914062h-.3125l.597656 13.078125c.050781 1.003907.109375 2.011719.167969 3.019531.015625.230469.023437.457032.039062.683594.136719 2.390625.316407 4.785156.515625 7.199219.027344.292969.050782.582031.078125.875.210938 2.394531.445313 4.8125.714844 7.246094.003906.03125.007813.066406.015625.105469.257812 2.316406.550781 4.644531.863281 6.992187.039063.285156.078125.570313.117188.859375.300781 2.21875.632812 4.453125.992187 6.703125.066406.449219.140625.890625.214844 1.335937.292969 1.808594.605469 3.636719.929688 5.46875.085937.488282.167968.976563.261718 1.457032.363282 2.023437.753906 4.054687 1.160156 6.101562.136719.675782.277344 1.347656.414063 2.019532.292969 1.425781.597656 2.855468.910156 4.300781.160157.742187.320313 1.484375.488281 2.222656.394532 1.777344.804688 3.566406 1.230469 5.363281.082031.363282.171875.734375.257813 1.101563.445312 1.851562.902344 3.714843 1.382812 5.589843.152344.617188.3125 1.21875.46875 1.828126.367188 1.433593.746094 2.875 1.132813 4.320312.171875.636719.335937 1.265625.507812 1.894531.144531.53125.28125 1.054688.429688 1.585938l2.527343 9.1875h.089844c1.246094 4.230469 2.488282 8.3125 3.714844 12.21875 2.75 8.769531 1.207031 11.757812-5.9375 18.203125-32.402344 29.230468-57.363281 70.554687-68.476562 113.371094-1.734376 6.683593 2.277343 13.503906 8.960937 15.238281 1.054687.273437 2.109375.40625 3.148437.40625 5.558594 0 10.628907-3.734375 12.089844-9.367188 9.917969-38.207031 32.160156-75.050781 61.019532-101.082031 10.382812-9.359375 20.046874-21.9375 13.054687-44.253906-.488281-1.546875-.976563-3.132813-1.472656-4.742188h69.082031c-.492188 1.609375-.980469 3.195313-1.464844 4.742188-6.996094 22.316406 2.671875 34.894531 13.046875 44.25 13.074219 11.796875 26.875 28.8125 37.734375 46.390625-4.773437 10.164062-8.738281 20.828125-11.78125 31.933593-1.824218 6.660157 2.09375 13.535157 8.75 15.359376 6.660156 1.824218 13.535156-2.09375 15.363282-8.753907 20.703124-75.5625 89.949218-128.339843 168.386718-128.339843 96.273438 0 174.59375 78.324218 174.59375 174.59375 0 96.273437-78.320312 174.601562-174.59375 174.601562-78.4375 0-147.679687-52.773438-168.386718-128.339844-1.828126-6.65625-8.707032-10.578125-15.359376-8.75-6.660156 1.820313-10.578124 8.699219-8.753906 15.355469 5.117188 18.675781 12.832032 36.132813 22.679688 52.027344-14.035156 32.15625-35.066406 56.679687-59.851563 69.707031h-69.800781c-34.429688-18.175781-62.378906-60.441406-73.285156-111.144531-1.449219-6.75-8.097656-11.046875-14.847656-9.59375-6.75 1.457031-11.046876 8.101562-9.589844 14.847656 12.742187 59.25 46.9375 108.910156 89.238281 129.613281 1.707031.839844 3.585937 1.277344 5.492187 1.277344h75.78125c1.902344 0 3.785157-.4375 5.492188-1.277344 27.59375-13.5 51.261719-38.117187 68.046875-70.375 37.121094 44.273438 92.75 71.652344 153.144531 71.652344 110.058594 0 199.59375-89.539062 199.59375-199.59375 0-110.058594-89.535156-199.597656-199.59375-199.597656zm-264.574218-215.808594c25.710937 0 51.734374 46.269531 51.839843 134.691406h-103.679687c.105468-88.421875 26.132812-134.691406 51.839844-134.691406zm-41.578126 210.230469c-.28125-1.125-.5625-2.253907-.839843-3.390625-.179688-.746094-.367188-1.5-.546875-2.242188-.332032-1.386718-.648438-2.800781-.972656-4.210937-.167969-.769531-.351563-1.539063-.519532-2.300781-.324218-1.460938-.632812-2.945313-.9375-4.425782-.148437-.691406-.292968-1.386718-.4375-2.074218-.335937-1.675782-.65625-3.367188-.976562-5.066407-.085938-.480469-.183594-.964843-.273438-1.441406-1.203125-6.644531-2.246094-13.480469-3.039062-20.460937-.027344-.207032-.039063-.414063-.066406-.625-.160157-1.425782-.296876-2.863282-.433594-4.300782h101.234375c-.140625 1.46875-.277344 2.941406-.441407 4.394532-.015624.167968-.03125.328124-.050781.492187-.800781 7.019531-1.84375 13.894531-3.0625 20.574219-.058593.339844-.125.683594-.1875 1.019531-.34375 1.84375-.695312 3.675781-1.0625 5.492187-.117187.570313-.238281 1.148438-.359375 1.71875-.332031 1.601563-.664062 3.203126-1.015625 4.78125-.140625.652344-.296875 1.316407-.445312 1.976563-.347657 1.515625-.6875 3.03125-1.042969 4.523437-.15625.636719-.320312 1.289063-.476562 1.933594-.296876 1.214844-.59375 2.429688-.898438 3.625h-83.148438zm0 0"/><path d="m430.472656 288.660156c-23.472656 0-42.574218 19.101563-42.574218 42.574219 0 23.476563 19.097656 42.574219 42.574218 42.574219 23.476563 0 42.574219-19.097656 42.574219-42.574219 0-23.472656-19.097656-42.574219-42.574219-42.574219zm0 60.148438c-9.6875 0-17.574218-7.882813-17.574218-17.574219 0-9.6875 7.886718-17.574219 17.574218-17.574219 9.691406 0 17.574219 7.886719 17.574219 17.574219 0 9.691406-7.882813 17.574219-17.574219 17.574219zm0 0"/><path d="m507.167969 438.847656c23.476562 0 42.574219-19.097656 42.574219-42.574218 0-23.472657-19.097657-42.574219-42.574219-42.574219-23.472657 0-42.570313 19.101562-42.570313 42.574219 0 23.476562 19.097656 42.574218 42.570313 42.574218zm0-60.140625c9.691406 0 17.574219 7.878907 17.574219 17.570313 0 9.6875-7.882813 17.574218-17.574219 17.574218-9.6875 0-17.570313-7.886718-17.570313-17.574218 0-9.691406 7.882813-17.570313 17.570313-17.570313zm0 0"/><path d="m366.917969 428.679688c0 23.472656 19.097656 42.574218 42.574219 42.574218 23.476562 0 42.574218-19.101562 42.574218-42.574218 0-23.476563-19.097656-42.570313-42.574218-42.570313-23.476563 0-42.574219 19.09375-42.574219 42.570313zm42.574219-17.570313c9.691406 0 17.574218 7.878906 17.574218 17.570313 0 9.6875-7.882812 17.574218-17.574218 17.574218-9.6875 0-17.574219-7.886718-17.574219-17.574218 0-9.691407 7.886719-17.570313 17.574219-17.570313zm0 0"/><path d="m24.082031 456.757812c0-6.886718-5.613281-12.5-12.5-12.5-6.882812 0-12.5 5.613282-12.5 12.5 0 6.882813 5.617188 12.5 12.5 12.5 6.886719 0 12.5-5.617187 12.5-12.5zm0 0"/><path d="m227.222656 440.40625c0-6.886719-5.609375-12.5-12.5-12.5-6.886718 0-12.5 5.613281-12.5 12.5 0 6.882812 5.613282 12.5 12.5 12.5 6.890625 0 12.5-5.617188 12.5-12.5zm0 0"/></g></svg>