<svg height="681pt" viewBox="-21 -104 681.33262 681" width="681pt" xmlns="http://www.w3.org/2000/svg"><g fill-rule="evenodd"><path d="m591.847656 230.9375c1.359375-2.066406 2.699219-4.140625 4.015625-6.222656.328125-.511719.644531-1.023438.964844-1.535156.78125-1.246094 1.574219-2.496094 2.339844-3.746094.253906-.414063.492187-.828125.746093-1.25.277344-.457032.546876-.914063.824219-1.367188 1.078125-1.800781 2.140625-3.59375 3.171875-5.382812.132813-.230469.261719-.460938.398438-.695313 31.945312-55.507812 42.042968-106.53125 28.71875-143.636719-.003906-.019531-.007813-.03125-.015625-.046874-.511719-1.417969-1.050781-2.816407-1.632813-4.195313-.089844-.21875-.179687-.445313-.269531-.664063-.519531-1.199218-1.070313-2.378906-1.632813-3.546874-.148437-.292969-.277343-.59375-.425781-.886719-.699219-1.394531-1.433593-2.773438-2.207031-4.117188-.65625-1.136719-1.339844-2.253906-2.054688-3.355469-.453124-.707031-.9375-1.386718-1.414062-2.078124-.265625-.375-.507812-.761719-.777344-1.132813-.710937-.992187-1.457031-1.972656-2.214844-2.941406-.035156-.046875-.0625-.089844-.101562-.132813-21.976562-27.867187-64.0625-45.042968-119.050781-48.675781-.089844-.003906-.179688-.007813-.269531-.019531-1.800782-.117188-3.621094-.21875-5.453126-.304688-.355468-.015625-.710937-.035156-1.066406-.050781-1.660156-.078125-3.332031-.136719-5.015625-.1875-.257812-.007813-.511719-.019531-.773437-.03125-.238282-.003906-.484375-.003906-.722656-.007813-1.582032-.046874-3.175782-.074218-4.773438-.09375-.644531-.003906-1.289062-.015624-1.929688-.015624-.808593-.003907-1.609374-.023438-2.421874-.023438-.46875 0-.953126.019531-1.425782.019531-2.6875.011719-5.382812.035157-8.09375.105469-.039062 0-.078125 0-.121094 0-2.992187.078125-6.007812.203125-9.035156.351562-.371094.015626-.746094.035157-1.117187.054688-7.605469.390625-15.300781.996094-23.070313 1.828125l-15.414062 1.519531.21875.378906c-49.320313 7.007813-100.949219 22.535157-150.417969 45.582032-6.242187 2.910156-8.945313 10.332031-6.035156 16.578125 2.90625 6.242187 10.328125 8.949219 16.578125 6.039062 50.671875-23.613281 103.554687-38.941406 153.378906-44.804687l55.507812 96.140625-33.011718 19.058593-9.746094-16.878906c-3.445312-5.96875-11.070312-8.011718-17.042969-4.566406-5.964843 3.449219-8.003906 11.074219-4.558593 17.042969l9.742187 16.871093-22.683594 13.09375-9.738281-16.875c-3.449219-5.964843-11.078125-8.007812-17.042969-4.5625-5.964843 3.441407-8.011719 11.074219-4.566406 17.039063l9.742187 16.875-22.675781 13.09375-9.746093-16.875c-3.445313-5.964844-11.074219-8.011719-17.042969-4.566406-5.964844 3.445312-8.007813 11.078125-4.5625 17.042969l9.742187 16.875-22.679687 13.089843-9.742188-16.871093c-3.445312-5.964844-11.078125-8.011719-17.042969-4.566407-5.964843 3.445313-8.011718 11.074219-4.566406 17.042969l9.742188 16.871094-22.675782 13.09375-9.738281-16.875c-3.445312-5.964844-11.078125-8.007813-17.042969-4.5625-5.96875 3.441406-8.011718 11.070312-4.566406 17.035156l9.742188 16.878906-22.679688 13.09375-9.742187-16.875c-3.445313-5.964844-11.074219-8.011718-17.042969-4.5625-5.964844 3.441406-8.007812 11.070313-4.566406 17.035156l9.746094 16.878907-22.679688 13.09375-9.742188-16.875c-3.445312-5.964844-11.070312-8.011719-17.042968-4.566407-5.964844 3.445313-8.003906 11.070313-4.566406 17.039063l9.75 16.878906-33.011719 19.058594-55.507813-96.140625c29.988282-40.21875 69.707032-78.351562 115.492188-110.433594 5.644531-3.953125 7.011718-11.730468 3.058594-17.371094-3.949219-5.644531-11.730469-7.015624-17.371094-3.0625-44.699219 31.316407-83.957032 68.265626-114.683594 107.476563l-.21875-.382813-8.980469 12.527344c-7.027343 9.628906-13.523437 19.371094-19.464843 29.175782-.269532.441406-.527344.882812-.796876 1.324218-.957031 1.605469-1.910156 3.210938-2.84375 4.824219-.351562.601563-.699218 1.199219-1.039062 1.804687-.867188 1.515626-1.71875 3.035157-2.558594 4.550782-.316406.570312-.632812 1.140625-.945312 1.710937-.222656.402344-.453125.808594-.671875 1.214844-.742188 1.367187-1.453125 2.730469-2.164063 4.097656-.144531.273438-.292968.542969-.433594.824219-1.109374 2.128906-2.1875 4.257812-3.230468 6.371094 0 .011718-.003906.019531-.011719.027344-.964844 1.960937-1.894531 3.917968-2.800781 5.871093-.382813.824219-.753906 1.652344-1.128906 2.476563-.488282 1.074218-.976563 2.152344-1.449219 3.21875-.507813 1.15625-1 2.304687-1.492188 3.460937-.265625.632813-.53125 1.265625-.792969 1.894531-.613281 1.476563-1.214843 2.953126-1.796874 4.421876-.015626.039062-.03125.078124-.046876.121093-3.9375 9.957031-7.132812 19.742188-9.492187 29.246094-6.027344 24.277344-6.632813 46.375-1.945313 65.183594.011719.039062.027344.078125.03125.121093.539063 2.160157 1.160157 4.269532 1.835938 6.335938.15625.46875.296875.941406.460938 1.402344.242187.707031.503906 1.394531.769531 2.085937.285156.769531.578125 1.535157.890625 2.292969.242187.59375.492187 1.179688.75 1.761719.386718.886719.789062 1.761719 1.203125 2.628906.226562.460937.4375.929687.667969 1.382813.667968 1.320312 1.359374 2.625 2.089843 3.898437 21.800781 37.75 75.382813 59.050781 147.8125 59.050781.078125 0 .160157-.003906.238281-.003906h.128907c3.042969-.007812 6.125-.039062 9.238281-.117188.042969 0 .085938-.007812.132812-.007812.089844 0 .1875-.003906.285157-.007812 2.925781-.078126 5.867187-.195313 8.8125-.335938.539062-.03125 1.082031-.058594 1.621093-.089844 2.929688-.15625 5.863282-.335937 8.8125-.554687.023438 0 .054688 0 .078126-.003907 4.570312-.335937 9.164062-.75 13.777343-1.238281l15.378907-1.519531-.203126-.355469c65.164063-9.171875 133.085938-33.023437 195.644532-69.136719 62.558594-36.121093 117.175781-83.023437 157.699218-134.871093l.207032.363281 9.035156-12.609375c3.925781-5.390625 7.703125-10.832031 11.320312-16.316406.007813-.011719.019532-.027344.027344-.042969zm-121.597656-211.28125c.1875-.003906.371094-.003906.554688-.007812 2.242187-.054688 4.457031-.074219 6.664062-.082032 1.191406-.007812 2.382812-.007812 3.570312.003906.527344 0 1.050782.003907 1.570313.007813 1.535156.019531 3.054687.050781 4.574219.089844.464844.011719.925781.023437 1.390625.039062 1.257812.03125 2.503906.082031 3.746093.128907.703126.035156 1.40625.066406 2.101563.097656.949219.046875 1.902344.097656 2.839844.152344 1.113281.066406 2.214843.132812 3.3125.210937.492187.03125.984375.066406 1.46875.105469 48.832031 3.675781 85.664062 19.089844 101.441406 42.898437.03125.050781.066406.089844.089844.132813.585937.882812 1.136719 1.777344 1.660156 2.683594.578125 1 1.121094 2.019531 1.632813 3.066406.019531.03125.035156.0625.050781.097656 15.964843 32.484375 3.042969 87.285156-33.464844 144.167969l-55.847656-96.734375-.007813-.007813-55.851562-96.742187c2.855468-.136719 5.691406-.238282 8.503906-.308594zm-293.574219 422.761719c-2.789062.136719-5.554687.238281-8.300781.308593-.144531 0-.292969 0-.4375.003907-2.433594.058593-4.839844.082031-7.234375.09375-.808594 0-1.609375 0-2.414063-.003907-1.160156-.007812-2.316406-.015624-3.460937-.03125-.664063-.007812-1.316406-.023437-1.972656-.039062-1.414063-.027344-2.832031-.0625-4.230469-.113281-.265625-.007813-.527344-.023438-.796875-.027344-52.570313-1.964844-92.925781-16.875-110.886719-40.996094-.128906-.171875-.246094-.359375-.378906-.535156-.496094-.6875-.988281-1.375-1.453125-2.074219-.59375-.902344-1.164063-1.8125-1.699219-2.746094-.554687-.957031-1.082031-1.949218-1.578125-2.957031-.082031-.160156-.15625-.332031-.234375-.492187-.445312-.914063-.871094-1.839844-1.273437-2.792969-.011719-.03125-.027344-.070313-.042969-.101563-13.664062-32.8125-.429688-85.921874 34.914062-140.984374l55.847657 96.730468v.003906c.003906.003907.003906.003907.003906.003907l55.851563 96.742187c-.074219.003906-.152344.007813-.222657.007813zm224.410157-69.613281c-63.082032 36.417968-131.683594 59.78125-196.675782 67.347656l-55.519531-96.160156 33.011719-19.058594 9.742187 16.875c2.3125 4.003906 6.5 6.238281 10.816407 6.238281 2.113281 0 4.257812-.535156 6.226562-1.671875 5.964844-3.445312 8.007812-11.070312 4.566406-17.039062l-9.746094-16.878907 22.679688-13.089843 9.742188 16.871093c2.3125 4.003907 6.503906 6.238281 10.8125 6.238281 2.121093 0 4.265624-.535156 6.230468-1.671874 5.964844-3.445313 8.011719-11.074219 4.5625-17.039063l-9.738281-16.871094 22.675781-13.097656 9.746094 16.878906c2.308594 4 6.5 6.238281 10.8125 6.238281 2.113281 0 4.257812-.539062 6.222656-1.671874 5.96875-3.445313 8.011719-11.078126 4.566406-17.042969l-9.742187-16.875 22.679687-13.09375 9.742188 16.875c2.3125 4 6.5 6.238281 10.816406 6.238281 2.113282 0 4.261719-.542969 6.226563-1.671875 5.964843-3.445313 8.007812-11.078125 4.566406-17.042969l-9.746094-16.875 22.679688-13.089844 9.742187 16.871094c2.308594 4.003906 6.503906 6.242188 10.8125 6.242188 2.121094 0 4.265625-.542969 6.226563-1.675782 5.964843-3.441406 8.011719-11.074218 4.566406-17.042968l-9.738281-16.871094 22.679687-13.09375 9.742188 16.875c2.308593 4 6.5 6.238281 10.8125 6.238281 2.113281 0 4.257812-.539062 6.226562-1.671875 5.964844-3.445312 8.007813-11.078125 4.566407-17.042968l-9.746094-16.875 22.679687-13.089844 9.742188 16.871094c2.308593 4 6.507812 6.242187 10.8125 6.242187 2.121093 0 4.265625-.539063 6.230469-1.675781 5.964843-3.441406 8.011718-11.070313 4.566406-17.035156l-9.742188-16.878907 33.011719-19.058593 55.515625 96.160156c-39.054688 52.503906-93.585938 100.230468-156.664062 136.652344zm0 0"/><path d="m231.328125 91.246094c6.871094 0 12.472656-5.601563 12.472656-12.472656 0-6.875-5.601562-12.480469-12.472656-12.480469s-12.480469 5.605469-12.480469 12.480469c0 6.871093 5.609375 12.472656 12.480469 12.472656zm0 0"/></g></svg>