<svg height="681pt" viewBox="-90 -21 681 681.33471" width="681pt" xmlns="http://www.w3.org/2000/svg"><g fill-rule="evenodd"><path d="m468.058594 421.871094c-23.652344-19.3125-59.566406-25.820313-98.527344-17.855469-43.753906 8.941406-69.320312 57.523437-94.042969 104.511719-14.632812 27.8125-28.453125 54.078125-44.390625 68.941406-.105468.097656-.207031.199219-.3125.304688-23.234375 23.234374-54.269531 36.027343-87.382812 36.027343-33.113282 0-64.144532-12.792969-87.378906-36.027343-3.761719-3.765626-7.316407-7.820313-10.570313-12.042969-4.199219-5.464844-12.03125-6.488281-17.492187-2.285157-5.464844 4.199219-6.488282 12.03125-2.285157 17.492188 3.90625 5.085938 8.179688 9.953125 12.703125 14.476562 27.949219 27.949219 65.242188 43.335938 105.023438 43.335938 39.707031 0 76.945312-15.328125 104.875-43.1875 18.953125-17.75 33.695312-45.769531 49.292968-75.417969 22.019532-41.847656 44.785157-85.113281 76.960938-91.6875 31.585938-6.457031 59.925781-1.8125 77.753906 12.742188 12.839844 10.480469 19.628906 25.855469 19.628906 44.46875 0 42.699219-16.5625 65.441406-52.105468 71.582031-6.789063 1.167969-11.339844 7.628906-10.171875 14.414062 1.175781 6.789063 7.621093 11.347657 14.421875 10.171876 33.210937-5.734376 72.804687-27.074219 72.804687-96.167969-.003906-26.355469-9.960937-48.417969-28.804687-63.796875zm0 0"/><path d="m8 491.640625c6.425781 0 11.882812-4.9375 12.421875-11.460937 2.382813-29.1875 15.027344-56.59375 35.601563-77.167969l22.132812-22.136719 344.152344-112.144531c.078125-.023438.144531-.0625.222656-.085938.148438-.054687.292969-.09375.433594-.152343.128906-.042969.234375-.117188.355468-.164063.324219-.136719.640626-.289063.953126-.453125.203124-.109375.402343-.222656.601562-.339844.296875-.179687.585938-.375.867188-.578125.179687-.132812.363281-.257812.53125-.398437.292968-.234375.5625-.488282.828124-.746094.136719-.132812.285157-.257812.414063-.394531.351563-.371094.675781-.765625.976563-1.175781.027343-.042969.066406-.078126.097656-.121094.332031-.457032.617187-.941406.882812-1.4375.085938-.160156.148438-.332032.226563-.492188.160156-.351562.324219-.695312.453125-1.058594.078125-.214843.136718-.433593.199218-.652343.074219-.234375.164063-.464844.222657-.703125.023437-.101563.027343-.199219.050781-.296875.046875-.226563.078125-.460938.117188-.691407.054687-.351562.097656-.695312.121093-1.046874.011719-.113282.035157-.226563.039063-.335938l10.484375-244.402344c0-.007812 0-.019531 0-.023437.007812-.238281.003906-.472657.003906-.710938-.003906-.078125 0-.15625 0-.234375-.007813-.257812-.035156-.515625-.058594-.777344-.003906-.050781-.003906-.105468-.007812-.160156-.03125-.246094-.070313-.496094-.113281-.746094-.007813-.0625-.015626-.121093-.027344-.183593-.019532-.113281-.054688-.230469-.078125-.347657-.039063-.1875-.078125-.378906-.128907-.570312-.023437-.070312-.046874-.144531-.074218-.222656-.0625-.222656-.125-.449219-.203125-.671875-.035157-.09375-.074219-.179688-.105469-.273438-.078125-.199219-.152344-.402343-.242188-.597656-.003906-.011719-.003906-.019531-.007812-.03125-.046875-.113281-.101562-.214844-.15625-.320313-.078125-.167968-.15625-.332031-.238281-.496093-.074219-.132813-.152344-.265625-.230469-.398438-.078125-.132812-.15625-.277343-.238281-.40625-.085938-.136719-.175781-.265625-.265625-.394531-.085938-.128906-.167969-.253906-.261719-.375-.089844-.128906-.1875-.246094-.285156-.367188-.097657-.121093-.191407-.242187-.292969-.367187-.097656-.109375-.199219-.210937-.296875-.320313-.113281-.121093-.226563-.242187-.339844-.363281-.09375-.09375-.191406-.183593-.289062-.269531-.132813-.128906-.261719-.25-.398438-.367188-.09375-.078124-.191406-.15625-.289062-.234374-.140625-.113282-.289063-.230469-.4375-.34375-.101563-.074219-.210938-.140626-.3125-.214844-.152344-.101563-.296875-.210938-.453125-.308594-.128906-.078125-.253906-.144531-.378906-.21875-.144532-.082031-.28125-.164062-.425782-.242188-.164062-.089843-.335937-.167968-.507812-.25-.101563-.046874-.199219-.101562-.300782-.144531-.011718-.003906-.019531-.003906-.03125-.011719-.242187-.105468-.492187-.203124-.738281-.292968-.042969-.011719-.089843-.03125-.128906-.046875-1.109375-.394531-2.289063-.6250002-3.492187-.683594-.058594-.0039062-.121094-.0078125-.179688-.01171875-.152344-.0078125-.308594 0-.460938 0-.164062 0-.328124 0-.492187.00390625-.007813 0-.023437 0-.03125 0l-244.402344 10.4804685c-.113281.007813-.222656.03125-.339843.039063-.347657.027344-.691407.070312-1.039063.125-.234375.03125-.46875.070312-.695313.121094-.097656.019531-.195312.023437-.300781.046874-.238281.058594-.464843.148438-.699219.21875-.21875.066407-.441406.125-.652343.199219-.363281.132813-.714844.292969-1.058594.457031-.160156.074219-.332031.140626-.492187.226563-.496094.265625-.980469.550781-1.4375.882813-.042969.027343-.078126.066406-.121094.097656-.414063.300781-.804688.625-1.175782.972656-.140624.132812-.261718.28125-.398437.414062-.257813.269532-.511719.539063-.746094.832032-.136719.167968-.265625.355468-.394531.53125-.207031.28125-.402344.566406-.582031.867187-.121094.199219-.226563.398438-.335938.601563-.164062.3125-.316406.628906-.453125.953125-.054687.121093-.121094.226562-.167968.355469-.035157.097656-.054688.199218-.089844.296874-.046875.121094-.105469.234376-.144532.359376l-112.144531 344.152343-22.136719 22.136719c-24.75 24.75-39.960937 57.699219-42.832031 92.777344-.558593 6.867187 4.554688 12.890625 11.417969 13.449218.347656.023438.6875.039063 1.03125.039063zm311.125-351.730469 95.960938-95.960937-7.890626 184.027343zm-202.042969 202.039063 184.398438-184.398438 93.757812 93.757813zm280.355469-315.644531-95.957031 95.960937-88.066407-88.066406zm-207.359375 19.847656 93.757813 93.757812-184.394532 184.394532zm0 0"/><path d="m12.992188 516.34375c-6.871094 0-12.472657 5.597656-12.472657 12.476562 0 6.871094 5.601563 12.476563 12.472657 12.476563 6.871093 0 12.476562-5.605469 12.476562-12.476563 0-6.878906-5.605469-12.476562-12.476562-12.476562zm0 0"/></g></svg>