<svg height="682pt" viewBox="-21 -91 682.66669 682" width="682pt" xmlns="http://www.w3.org/2000/svg"><g fill-rule="evenodd"><path d="m457.089844 129.476562h-84.449219v-95.558593c0-7.304688 5.949219-13.25 13.257813-13.25 6.898437 0 12.5-5.597657 12.5-12.5 0-6.90625-5.601563-12.5-12.5-12.5-21.09375 0-38.257813 17.15625-38.257813 38.25v33.453125h-81.039063v-33.453125c0-7.304688 5.945313-13.25 13.25-13.25 6.90625 0 12.5-5.597657 12.5-12.5 0-6.90625-5.59375-12.5-12.5-12.5-21.085937 0-38.25 17.15625-38.25 38.25v95.558593h-58.691406c-100.855468 0-182.910156 82.050782-182.910156 182.910157s82.054688 182.910156 182.910156 182.910156h87.089844c6.90625 0 12.5-5.597656 12.5-12.5s-5.59375-12.5-12.5-12.5h-87.089844c-87.070312.003906-157.910156-70.835937-157.910156-157.910156 0-87.070313 70.839844-157.910157 157.910156-157.910157h58.691406v54.777344c0 6.90625 5.601563 12.5 12.5 12.5 6.90625 0 12.5-5.59375 12.5-12.5v-54.777344h81.039063v54.777344c0 6.90625 5.601563 12.5 12.5 12.5 6.90625 0 12.5-5.59375 12.5-12.5v-54.777344h84.449219c87.070312 0 157.910156 70.839844 157.910156 157.910157 0 87.074219-70.839844 157.910156-157.910156 157.910156h-87.089844c-6.90625 0-12.5 5.597656-12.5 12.5s5.59375 12.5 12.5 12.5h87.089844c100.855468 0 182.910156-82.050781 182.910156-182.910156s-82.054688-182.910157-182.910156-182.910157zm-190.488282 0v-37.109374h81.039063v37.109374zm0 0"/><path d="m100.355469 285.910156c4.988281 0 12.941406 5.96875 19.957031 11.230469 10.140625 7.601563 21.636719 16.226563 34.957031 16.226563 13.316407 0 24.8125-8.625 34.957031-16.226563 7.015626-5.261719 14.964844-11.230469 19.949219-11.230469s12.941407 5.96875 19.957031 11.230469c10.140626 7.609375 21.632813 16.226563 34.953126 16.226563 13.316406 0 24.816406-8.617188 34.953124-16.226563 7.023438-5.261719 14.976563-11.230469 19.957032-11.230469 4.984375 0 12.9375 5.96875 19.957031 11.230469 10.140625 7.609375 21.640625 16.226563 34.953125 16.226563 13.320312 0 24.816406-8.625 34.957031-16.226563 7.015625-5.261719 14.972657-11.230469 19.957031-11.230469 4.984376 0 12.9375 5.96875 19.953126 11.226563 10.144531 7.605469 21.636718 16.230469 34.957031 16.230469 13.316406 0 24.816406-8.625 34.957031-16.230469 7.015625-5.257813 14.96875-11.226563 19.957031-11.226563 6.898438 0 12.5-5.59375 12.5-12.5 0-6.902344-5.601562-12.5-12.5-12.5-13.320312 0-24.816406 8.625-34.957031 16.226563-7.015625 5.261719-14.96875 11.226562-19.957031 11.226562-4.984375 0-12.9375-5.964843-19.957031-11.226562-10.140626-7.609375-21.632813-16.226563-34.953126-16.226563-13.320312 0-24.816406 8.617188-34.957031 16.226563-7.015625 5.261719-14.972656 11.226562-19.957031 11.226562s-12.9375-5.964843-19.953125-11.226562c-10.144531-7.609375-21.636719-16.230469-34.957031-16.230469-13.316406 0-24.808594 8.621094-34.957032 16.230469-7.015624 5.261719-14.964843 11.226562-19.953124 11.226562-4.984376 0-12.9375-5.96875-19.953126-11.226562-10.140624-7.609375-21.636718-16.230469-34.957031-16.230469-13.316406 0-24.816406 8.621094-34.949219 16.230469-7.023437 5.257812-14.976562 11.226562-19.957031 11.226562-4.988281 0-12.941406-5.96875-19.957031-11.226562-10.140625-7.609375-21.640625-16.230469-34.957031-16.230469-6.902344 0-12.5 5.59375-12.5 12.5 0 6.910156 5.597656 12.503906 12.5 12.503906zm0 0"/><path d="m409.867188 377.933594c7.015624-5.265625 14.972656-11.230469 19.957031-11.230469s12.941406 5.964844 19.949219 11.230469c10.144531 7.605468 21.640624 16.222656 34.957031 16.222656 13.320312 0 24.816406-8.621094 34.957031-16.222656 7.015625-5.265625 14.96875-11.230469 19.957031-11.230469 6.902344 0 12.5-5.597656 12.5-12.5 0-6.90625-5.597656-12.5-12.5-12.5-13.316406 0-24.816406 8.621094-34.957031 16.230469-7.015625 5.257812-14.96875 11.222656-19.957031 11.222656-4.980469 0-12.9375-5.964844-19.957031-11.230469-10.132813-7.601562-21.632813-16.222656-34.949219-16.222656-13.320313 0-24.816407 8.621094-34.957031 16.222656-7.015626 5.265625-14.96875 11.226563-19.953126 11.226563-4.988281 0-12.941406-5.960938-19.957031-11.226563-10.144531-7.605469-21.640625-16.222656-34.957031-16.222656-13.320312 0-24.8125 8.617187-34.957031 16.222656-7.015625 5.265625-14.96875 11.226563-19.957031 11.226563-4.984376 0-12.9375-5.960938-19.953126-11.226563-10.140624-7.605469-21.636718-16.230469-34.953124-16.230469-13.320313 0-24.8125 8.625-34.953126 16.230469-7.019531 5.265625-14.972656 11.226563-19.957031 11.226563-4.988281 0-12.941406-5.960938-19.957031-11.226563-10.140625-7.605469-21.636719-16.230469-34.957031-16.230469-6.898438 0-12.5 5.601563-12.5 12.5 0 6.90625 5.601562 12.5 12.5 12.5 4.988281 0 12.941406 5.96875 19.957031 11.230469 10.140625 7.609375 21.640625 16.226563 34.957031 16.226563 13.320313 0 24.8125-8.617188 34.957031-16.226563 7.015626-5.261719 14.96875-11.222656 19.953126-11.222656 4.984374 0 12.941406 5.960937 19.957031 11.222656 10.140625 7.609375 21.636719 16.226563 34.949219 16.226563 13.320312 0 24.816406-8.617188 34.957031-16.226563 7.019531-5.261719 14.972656-11.222656 19.957031-11.222656s12.9375 5.960937 19.957031 11.222656c10.140625 7.609375 21.636719 16.226563 34.957031 16.226563 13.3125.003906 24.808594-8.613282 34.953126-16.21875zm0 0"/><path d="m320 470.296875c-6.882812 0-12.5 5.613281-12.5 12.503906 0 6.882813 5.617188 12.5 12.5 12.5s12.5-5.617187 12.5-12.5c0-6.890625-5.617188-12.503906-12.5-12.503906zm0 0"/></g></svg>