<svg height="682pt" viewBox="-55 -21 682 682.66669" width="682pt" xmlns="http://www.w3.org/2000/svg"><g fill-rule="evenodd"><path d="m261.769531 156.242188c0 6.902343 5.597657 12.5 12.5 12.5 5.1875 0 9.640625-3.160157 11.527344-7.664063.507813-.644531 1.285156-1.578125 1.949219-2.367187 6.621094-7.960938 18.957031-22.769532 18.957031-41.828126 0-12.78125-5.617187-25.394531-11.046875-37.59375-4.371094-9.816406-8.886719-19.960937-8.886719-27.433593 0-10.011719 8.242188-19.90625 13.167969-25.824219 3.78125-4.539062 6.765625-8.121094 6.765625-13.53125 0-6.90625-5.597656-12.5-12.5-12.5-5.1875 0-9.640625 3.164062-11.53125 7.664062-.507813.648438-1.28125 1.578126-1.945313 2.371094-6.628906 7.953125-18.957031 22.761719-18.957031 41.820313 0 12.785156 5.617188 25.394531 11.046875 37.597656 4.367188 9.8125 8.886719 19.960937 8.886719 27.429687 0 10.011719-8.242187 19.914063-13.171875 25.828126-3.777344 4.539062-6.761719 8.125-6.761719 13.53125zm0 0"/><path d="m152.234375 156.242188c0 6.902343 5.59375 12.5 12.5 12.5 5.191406 0 9.636719-3.160157 11.527344-7.664063.507812-.644531 1.285156-1.578125 1.949219-2.367187 6.625-7.960938 18.960937-22.769532 18.960937-41.828126 0-12.78125-5.621094-25.394531-11.050781-37.59375-4.371094-9.816406-8.886719-19.960937-8.886719-27.433593 0-10.011719 8.242187-19.90625 13.167969-25.824219 3.78125-4.539062 6.769531-8.121094 6.769531-13.53125 0-6.90625-5.601563-12.5-12.5-12.5-5.191406 0-9.644531 3.164062-11.535156 7.664062-.507813.648438-1.285157 1.578126-1.949219 2.371094-6.621094 7.953125-18.953125 22.761719-18.953125 41.820313 0 12.785156 5.613281 25.394531 11.042969 37.597656 4.371094 9.8125 8.886718 19.960937 8.886718 27.429687 0 10.011719-8.242187 19.914063-13.167968 25.828126-3.777344 4.539062-6.761719 8.125-6.761719 13.53125zm0 0"/><path d="m371.300781 156.242188c0 6.902343 5.601563 12.5 12.5 12.5 5.191407 0 9.644531-3.160157 11.535157-7.664063.507812-.644531 1.28125-1.578125 1.941406-2.367187 6.625-7.960938 18.960937-22.769532 18.960937-41.828126 0-12.78125-5.617187-25.394531-11.046875-37.59375-4.367187-9.816406-8.886718-19.960937-8.886718-27.433593 0-10.011719 8.242187-19.90625 13.171874-25.824219 3.777344-4.539062 6.761719-8.121094 6.761719-13.53125 0-6.90625-5.597656-12.5-12.5-12.5-5.191406 0-9.640625 3.164062-11.527343 7.664062-.515626.648438-1.285157 1.578126-1.949219 2.371094-6.625 7.953125-18.960938 22.761719-18.960938 41.820313 0 12.785156 5.621094 25.394531 11.050781 37.597656 4.371094 9.8125 8.886719 19.960937 8.886719 27.429687 0 10.011719-8.246093 19.914063-13.167969 25.828126-3.78125 4.539062-6.769531 8.125-6.769531 13.53125zm0 0"/><path d="m284.234375 380.578125c-74.882813 0-141.902344-50.117187-162.980469-121.871094-1.949218-6.628906-8.898437-10.417969-15.519531-8.472656-6.625 1.949219-10.414063 8.890625-8.472656 15.515625 11.621093 39.558594 36.199219 75.152344 69.191406 100.222656 34.105469 25.90625 74.832031 39.605469 117.78125 39.605469 6.90625 0 12.5-5.597656 12.5-12.5 0-6.90625-5.59375-12.5-12.5-12.5zm0 0"/><path d="m557.886719 268h-34.035157c4.394532-18.386719 6.730469-37.5625 6.730469-57.273438 0-6.902343-5.59375-12.5-12.5-12.5h-467.695312c-6.902344 0-12.5 5.597657-12.5 12.5 0 19.710938 2.34375 38.886719 6.738281 57.273438h-34.042969c-6.902343 0-12.5 5.59375-12.5 12.5 0 6.902344 5.597657 12.5 12.5 12.5h41.453125c19.730469 55.53125 58.835938 101.957031 109.164063 131.085938l-20.089844 96.425781c-32.082031 1.007812-57.878906 27.398437-57.878906 59.722656 0 32.953125 26.8125 59.765625 59.769531 59.765625 32.953125 0 59.765625-26.8125 59.765625-59.765625 0-24.914063-15.332031-46.308594-37.046875-55.269531l18.566406-89.097656c30.5625 13.625 64.382813 21.207031 99.949219 21.207031s69.390625-7.582031 99.953125-21.207031l8.265625 39.671874c1.226563 5.898438 6.425781 9.949219 12.222656 9.949219.84375 0 1.703125-.089843 2.5625-.261719 6.757813-1.40625 11.09375-8.03125 9.6875-14.792968l-9.65625-46.347656c50.324219-29.128907 89.4375-75.5625 109.167969-131.085938h41.449219c6.902343 0 12.5-5.597656 12.5-12.5 0-6.90625-5.59375-12.5-12.5-12.5zm-380.121094 312.234375c0 19.171875-15.59375 34.765625-34.765625 34.765625-19.167969 0-34.769531-15.59375-34.769531-34.765625s15.59375-34.769531 34.769531-34.769531c19.171875 0 34.765625 15.597656 34.765625 34.769531zm106.46875-148.160156c-117.855469 0-214.496094-92.585938-221-208.847657h442.003906c-6.503906 116.261719-103.144531 208.847657-221.003906 208.847657zm0 0"/><path d="m470.8125 613.679688h-24.039062l-9.445313-45.328126c-1.40625-6.757812-8.019531-11.101562-14.785156-9.6875-6.757813 1.410157-11.09375 8.023438-9.6875 14.789063l8.378906 40.226563h-18.828125c-6.90625 0-12.5 5.597656-12.5 12.5 0 6.90625 5.59375 12.5 12.5 12.5h68.40625c6.90625 0 12.5-5.59375 12.5-12.5 0-6.902344-5.59375-12.5-12.5-12.5zm0 0"/><path d="m414.890625 534.445312c6.882813 0 12.5-5.617187 12.5-12.5 0-6.886718-5.617187-12.5-12.5-12.5-6.886719 0-12.5 5.613282-12.5 12.5 0 6.882813 5.613281 12.5 12.5 12.5zm0 0"/></g></svg>