<svg height="682pt" viewBox="-40 -21 682 682.66669" width="682pt" xmlns="http://www.w3.org/2000/svg"><path d="m566.660156 318.046875h-67.464844c-.476562-.527344-.964843-1.050781-1.472656-1.5625l-135.617187-135.609375c-15.15625-15.15625-39.824219-15.164062-54.984375 0-15.15625 15.15625-15.15625 39.824219 0 54.984375l82.1875 82.1875h-177.628906v-34.757813c0-36.554687-21.429688-70.039062-55.273438-87.394531v-104.136719c5.730469-1.140624 10.050781-6.195312 10.050781-12.257812v-67c0-6.90625-5.597656-12.5-12.5-12.5h-97.144531c-6.902344 0-12.5 5.59375-12.5 12.5v67c0 6.0625 4.316406 11.117188 10.042969 12.257812v104.136719c-33.835938 17.355469-55.273438 50.839844-55.273438 87.394531v328.15625c0 15.746094 12.808594 28.554688 28.554688 28.554688h443.039062c29.050781 0 52.234375-22.441406 57.699219-55.84375l2.503906-15.324219c1.113282-6.808593-3.503906-13.238281-10.316406-14.347656-6.804688-1.117187-13.242188 3.503906-14.355469 10.316406l-2.503906 15.320313c-2.628906 16.089844-12.855469 34.878906-33.027344 34.878906h-258.996093v-191.074219h317.570312l-6.898438 42.175781c-1.113281 6.8125 3.503907 13.238282 10.316407 14.351563 6.824219 1.117187 13.242187-3.503906 14.355469-10.316406l7.773437-47.523438h11.863281c18.824219 0 34.136719-15.3125 34.136719-34.136719v-36.292968c0-18.824219-15.3125-34.136719-34.136719-34.136719zm-241.859375-119.496094c2.707031-2.707031 6.261719-4.058593 9.816407-4.058593 3.554687 0 7.109374 1.351562 9.8125 4.058593l135.617187 135.609375c5.410156 5.414063 5.410156 14.222656 0 19.632813-5.417969 5.410156-14.226563 5.410156-19.636719 0l-135.613281-135.609375c-5.410156-5.414063-5.410156-14.21875.003906-19.632813zm-255.488281-173.550781h72.144531v42h-72.144531zm-45.230469 586.445312v-328.15625c0-29.140624 18.6875-55.792968 47.605469-67.902343 4.648438-1.949219 7.667969-6.496094 7.667969-11.535157v-111.851562h52.050781v111.851562c0 5.039063 3.027344 9.585938 7.671875 11.535157 28.921875 12.109375 47.601563 38.761719 47.601563 67.902343v328.160157c0 1.925781-1.625 3.550781-3.546876 3.550781h-155.496093c-1.925781 0-3.554688-1.625-3.554688-3.554688zm551.714844-222.96875c0 5.035157-4.097656 9.136719-9.136719 9.136719h-347.207031v-54.566406h194.855469l28.425781 28.429687c7.578125 7.578126 17.535156 11.367188 27.492187 11.367188 9.957032 0 19.910157-3.789062 27.496094-11.367188 7.8125-7.820312 11.585938-18.160156 11.339844-28.429687h57.597656c5.039063 0 9.136719 4.101563 9.136719 9.136719zm0 0"/><path d="m526.617188 529.96875c6.886718 0 12.5-5.617188 12.5-12.503906 0-6.882813-5.613282-12.5-12.5-12.5-6.882813 0-12.5 5.617187-12.5 12.5 0 6.886718 5.617187 12.503906 12.5 12.503906zm0 0" fill-rule="evenodd"/></svg>