<svg height="681pt" viewBox="-112 -21 681 681.33549" width="681pt" xmlns="http://www.w3.org/2000/svg"><g fill-rule="evenodd"><path d="m450.253906 358.863281c9.621094-96.859375-49.90625-123.355469-52.445312-124.4375-4.222656-1.792969-9.089844-1.128906-12.675782 1.738281-3.585937 2.867188-5.308593 7.46875-4.484374 11.980469 3.554687 19.484375 4.976562 61.675781-13.308594 67.738281-12.09375 4.011719-21.515625 4.15625-28.800782.445313-8.894531-4.535156-16.28125-15.882813-21.957031-33.734375-3.136719-9.855469 1.78125-26.238281 6.988281-43.585938 1.683594-5.613281 3.429688-11.417968 5.023438-17.382812 1.777344-6.65625-2.175781-13.496094-8.832031-15.277344-6.652344-1.785156-13.492188 2.171875-15.273438 8.828125-1.496093 5.601563-3.1875 11.222657-4.8125 16.65625-6.347656 21.152344-12.339843 41.121094-6.867187 58.324219 7.878906 24.789062 19.136718 40.621094 34.40625 48.402344 13.34375 6.796875 29.488281 7.140625 47.980468 1.007812 26.914063-8.925781 32.59375-40.304687 32.652344-64.921875 11.039063 14.511719 21.75 39.789063 17.582032 81.757813-8.265626 83.234375-37.144532 120.550781-59.917969 137.203125-2.484375 1.820312-8.382813 5.347656-16.480469 9.601562l-59.960938-59.957031 15.714844-15.71875c8.847656-8.839844 13.714844-20.628906 13.714844-33.199219 0-12.566406-4.867188-24.359375-13.714844-33.199219-8.839844-8.839843-20.625-13.710937-33.195312-13.710937-12.566406 0-24.359375 4.871094-33.203125 13.710937l-15.714844 15.714844-15.714844-15.714844c-8.847656-8.839843-20.632812-13.710937-33.203125-13.710937-12.566406 0-24.359375 4.871094-33.203125 13.710937-8.839843 8.839844-13.707031 20.632813-13.707031 33.199219 0 12.570313 4.867188 24.359375 13.707031 33.199219l15.722657 15.71875-57.75 57.75c-7.46875-4.484375-14.933594-9.363281-20.699219-13.5625-.367188-.269531-.785157-.535156-1.179688-.765625-3.589843-2.054687-82.378906-48.5625-49.609375-143.460937 12.300782 14.660156 31.414063 32.621093 51.90625 33.753906 8.882813.492187 21.878906-1.953125 33.335938-16.382813 10.734375-13.519531 13.011718-27.457031 6.765625-41.414062-4.832031-10.792969-14.023438-19.953125-23.75-29.644531-14.550781-14.503907-29.597657-29.5-30.808594-50.289063-1.574219-27.175781 13.476563-45.464844 26.390625-56.027344 1.121094 23.46875 6.203125 58.199219 25.34375 76.390625 9.878906 9.375 22.554688 13.492188 36.667969 11.898438 14.777343-1.664063 25.007812-6.769532 31.285156-15.59375 10.867187-15.261719 6.089844-36.511719.550781-61.105469-4.515625-20.078125-9.632812-42.832031-7.953125-66.789063 2.375-33.882812 21.347657-58.625 36.847657-73.410156 10.859374-10.367187 21.945312-17.773437 31.316406-22.632812-.703125 5.53125-1.09375 11.800781-.839844 18.582031.828125 22.558594 9.015625 55.601563 43.296875 84.863281 5.238281 4.472656 13.113281 3.855469 17.585937-1.386718 4.472657-5.242188 3.851563-13.117188-1.386718-17.589844-51.671875-44.113282-30.605469-96.894532-29.710938-99.066406 1.769532-4.152344 1.160156-8.933594-1.597656-12.507813s-7.226562-5.382813-11.691406-4.726563c-15.324219 2.257813-41.113282 14.386719-64.199219 36.410157-18.683594 17.828125-41.578125 47.867187-44.511719 89.71875-1.9375 27.605469 3.855469 53.335937 8.503906 74.007812 3.867188 17.199219 7.871094 34.976563 3.464844 41.164063-2.375 3.339844-8.792968 4.707031-13.757812 5.269531-6.832032.769531-12.128906-.878906-16.671875-5.191406-17.398438-16.503907-18.605469-63.484375-17.605469-80.179688.265625-4.34375-1.746094-8.507812-5.3125-11-3.566406-2.484375-8.171875-2.9375-12.15625-1.1875-2.550781 1.121094-62.433594 28.175781-58.765625 91.527344 1.753906 30.304687 21.910156 50.382813 38.105469 66.523437 21.660156 21.578126 23.769531 26.890626 15.050781 37.867188-5.222656 6.582031-9.589844 7.144531-12.410156 6.984375-15.785157-.851563-37.6875-27.753906-45.808594-40.636719-2.417969-3.851562-6.734375-6.082031-11.277344-5.824218-4.539062.261718-8.574219 2.96875-10.535156 7.066406-32.300781 67.40625-16.570313 117.144531 2.308594 146.992187 18.777343 29.683594 44.027343 45.585938 48.625 48.324219 4.910156 3.550781 10.707031 7.40625 16.742187 11.167969l-39.484375 39.484375c-18.304687 18.308594-18.304687 48.09375 0 66.402344 8.839844 8.839843 20.632813 13.710937 33.199219 13.710937s24.359375-4.871094 33.199219-13.710937l68.035156-68.039063c14.859375 2.601563 30.199219 3.921875 45.726563 3.921875.691406 0 1.382812-.003906 2.074218-.007812 15.730469-.117188 31.332032-1.570313 46.484375-4.308594l68.429688 68.433594c9.15625 9.152343 21.179687 13.730468 33.199219 13.730468 12.023437 0 24.046874-4.578125 33.203124-13.734375 8.839844-8.839843 13.707032-20.628906 13.707032-33.195312 0-12.570313-4.867188-24.359375-13.707032-33.199219l-37.015624-37.015625c5.472656-3.050781 10.007812-5.824219 12.800781-7.867187 26.886719-19.648438 60.851562-62.476563 70.023437-154.878907zm-292.054687 51.023438c-4.128907-4.125-6.402344-9.648438-6.402344-15.554688 0-5.902343 2.273437-11.425781 6.402344-15.558593 4.128906-4.128907 9.652343-6.398438 15.558593-6.398438 5.902344 0 11.429688 2.269531 15.558594 6.398438l15.714844 15.71875-31.117188 31.117187zm-68.542969 197.496093c-4.132812 4.128907-9.652344 6.402344-15.5625 6.402344-5.898438 0-11.425781-2.273437-15.554688-6.402344-8.582031-8.578124-8.582031-22.535156 0-31.109374l50.839844-50.84375c.019532-.015626.035156-.035157.054688-.054688l146.597656-146.597656c4.132812-4.132813 9.652344-6.402344 15.558594-6.402344 5.902344 0 11.429687 2.269531 15.554687 6.402344 4.132813 4.128906 6.40625 9.652344 6.40625 15.554687 0 5.90625-2.273437 11.429688-6.40625 15.554688l-24.535156 24.542969-100.191406 100.183593c0 .007813 0 .007813-.003907.007813zm133.292969-71.433593h-.003907c-8.578124.066406-17.078124-.3125-25.449218-1.121094l25.179687-25.179687 24.902344 24.90625c-8.128906.863281-16.359375 1.332031-24.628906 1.394531zm163.859375 71.433593c-8.582032 8.578126-22.539063 8.578126-31.117188.003907l-73.234375-73.234375-42.140625-42.144532 31.113282-31.117187 115.378906 115.375c8.578125 8.582031 8.578125 22.539063 0 31.117187zm0 0"/><path d="m321.175781 181.191406c6.871094 0 12.476563-5.605468 12.476563-12.476562s-5.605469-12.476563-12.476563-12.476563c-6.871093 0-12.476562 5.605469-12.476562 12.476563s5.605469 12.476562 12.476562 12.476562zm0 0"/></g></svg>