<svg height="682pt" viewBox="-21 -35 682.66539 682" width="682pt" xmlns="http://www.w3.org/2000/svg"><path d="m404.242188 582.121094c-1.484376 0-2.96875-.265625-4.378907-.796875-52.109375-19.515625-95.785156-47.96875-129.824219-84.5625-30.757812-33.058594-54.691406-73.964844-71.152343-121.5625-2.25-6.515625 1.199219-13.625 7.71875-15.878907 6.515625-2.253906 13.625 1.203126 15.878906 7.722657 31.875 92.191406 91.351563 154.132812 181.753906 189.230469 195.695313-76.035157 216.457031-270.828126 209.796875-452.933594-76.867187-77.855469-208.464844-78.953125-209.804687-78.957032-1.320313.003907-132.917969 1.101563-209.789063 78.957032-2.433594 66.828125-.46875 120.597656 6.160156 168.867187.9375 6.832031-3.839843 13.132813-10.671874 14.070313-6.820313.941406-13.125-3.839844-14.0625-10.671875-6.992188-50.890625-8.957032-107.449219-6.191407-177.980469.117188-3.007812 1.320313-5.875 3.378907-8.066406 34.84375-37.039063 85.910156-64.363282 147.671874-79.03125 46.273438-10.984375 82.015626-11.113282 83.515626-11.113282s37.234374.128907 83.511718 11.113282c61.765625 14.667968 112.824219 42 147.675782 79.03125 2.058593 2.191406 3.261718 5.058594 3.378906 8.066406 4.867187 124.289062-5.046875 212.429688-32.144532 285.785156-16.832031 45.554688-40.804687 84.777344-71.253906 116.570313-33.546875 35.03125-76.207031 62.398437-126.789062 81.34375-1.414063.53125-2.894532.796875-4.378906.796875zm0 0"/><path d="m436.972656 218.59375c-2.261718 0-4.542968-.609375-6.597656-1.894531-5.851562-3.652344-7.636719-11.351563-3.984375-17.199219 14.976563-24 43.515625-38.914062 74.488281-38.914062 30.964844 0 59.503906 14.914062 74.480469 38.914062 3.652344 5.847656 1.871094 13.546875-3.980469 17.199219-5.847656 3.648437-13.546875 1.867187-17.199218-3.984375-10.457032-16.75-30.878907-27.160156-53.300782-27.160156-22.429687 0-42.851562 10.410156-53.308594 27.160156-2.363281 3.796875-6.433593 5.878906-10.597656 5.878906zm-65.464844 0c-4.164062 0-8.234374-2.082031-10.601562-5.878906-10.453125-16.75-30.878906-27.160156-53.300781-27.160156-22.425781 0-42.851563 10.410156-53.304688 27.160156-3.648437 5.851562-11.347656 7.632812-17.195312 3.984375-5.851563-3.652344-7.632813-11.351563-3.984375-17.199219 14.980468-24 43.519531-38.914062 74.484375-38.914062 30.96875 0 59.507812 14.914062 74.484375 38.914062 3.652344 5.847656 1.863281 13.546875-3.984375 17.199219-2.058594 1.285156-4.34375 1.894531-6.597657 1.894531zm0 0"/><path d="m404.242188 458.925781c-66.707032 0-120.976563-46.980469-120.976563-104.734375 0-4.625.355469-9.296875 1.054687-13.882812.636719-4.160156 3.332032-7.726563 7.160157-9.472656 3.828125-1.75 8.28125-1.449219 11.84375.800781 25.804687 16.277343 62.585937 25.613281 100.914062 25.613281s75.109375-9.335938 100.917969-25.613281c3.558594-2.25 8.011719-2.550781 11.839844-.800781 3.832031 1.746093 6.523437 5.308593 7.15625 9.46875.703125 4.582031 1.0625 9.257812 1.0625 13.886718 0 57.753906-54.269532 104.734375-120.972656 104.734375zm-95.4375-96.023437c5.238281 39.894531 46.039062 71.054687 95.4375 71.054687 49.394531 0 90.195312-31.160156 95.433593-71.0625-27.289062 12.550781-60.398437 19.324219-95.433593 19.324219-35.035157 0-68.144532-6.773438-95.4375-19.316406zm0 0"/><path d="m316.097656 611.027344-4.675781-.085938c-44.269531-.785156-84.738281-10.253906-120.285156-28.144531-32.265625-16.238281-61.542969-39.984375-87.027344-70.574219-40.90625-49.105468-72.585937-114.214844-102.722656-211.109375l-1.386719-4.457031 1.878906-4.273438c40.449219-91.992187 149.433594-131.515624 154.054688-133.15625.339844-.125 8.5625-3.019531 22.109375-6.324218l5.917969 24.257812c-12.203126 2.976563-19.621094 5.574219-19.699219 5.605469-.992188.351563-99.988281 36.40625-137.613281 115.488281 44.0625 140.050782 112.351562 282.0625 280.527343 287.605469 15.929688-13.808594 29.777344-28.6875 41.207031-44.28125l20.140626 14.753906c-13.457032 18.359375-29.886719 35.75-48.847657 51.6875zm0 0"/><path d="m197.070312 335.546875c6.878907 0 12.484376-5.609375 12.484376-12.484375s-5.605469-12.484375-12.484376-12.484375c-6.875 0-12.480468 5.609375-12.480468 12.484375s5.605468 12.484375 12.480468 12.484375zm0 0" fill-rule="evenodd"/></svg>