<svg height="682pt" viewBox="-21 -41 682.66669 682" width="682pt" xmlns="http://www.w3.org/2000/svg"><g fill-rule="evenodd"><path d="m488.871094 165.144531v-37.023437c0-71.195313-57.925782-129.121094-129.121094-129.121094h-102.6875c-71.199219 0-129.125 57.925781-129.125 129.121094v128.101562c0 6.902344 5.597656 12.5 12.5 12.5 6.90625 0 12.5-5.597656 12.5-12.5v-128.101562c0-57.410156 46.710938-104.121094 104.125-104.121094h102.6875c57.414062 0 104.121094 46.710938 104.121094 104.121094v37.023437c-84.410156 6.40625-151.128906 77.132813-151.128906 163.152344v258.070313c0 6.90625 5.597656 12.5 12.5 12.5h95.425781c6.90625 0 12.5-5.59375 12.5-12.5v-34.148438h86.40625v34.148438c0 6.90625 5.597656 12.5 12.5 12.5h95.425781c6.90625 0 12.5-5.59375 12.5-12.5v-258.070313c0-86.019531-66.722656-156.746094-151.128906-163.152344zm-12.5 84.894531c16.089844 0 29.175781 13.09375 29.175781 29.175782 0 16.089844-13.085937 29.175781-29.175781 29.175781s-29.175782-13.085937-29.175782-29.175781c0-16.082032 13.085938-29.175782 29.175782-29.175782zm-138.632813 78.257813c0-72.226563 55.527344-131.71875 126.132813-138.054687v36.273437c-23.867188 5.660156-41.675782 27.132813-41.675782 52.699219 0 29.875 24.304688 54.175781 54.175782 54.175781s54.175781-24.300781 54.175781-54.175781c0-25.566406-17.8125-47.039063-41.675781-52.699219v-36.273437c70.601562 6.335937 126.128906 65.828124 126.128906 138.054687v198.921875h-277.261719zm70.429688 245.570313h-70.429688v-21.648438h70.429688zm206.832031 0h-70.425781v-21.648438h70.425781zm0 0"/><path d="m237.679688 512.472656h-45.578126c-4.664062-19.28125-19.878906-34.484375-39.164062-39.152344v-117.097656c0-6.90625-5.59375-12.5-12.5-12.5-6.902344 0-12.5 5.59375-12.5 12.5v117.097656c-19.28125 4.667969-34.496094 19.871094-39.15625 39.152344h-45.582031c-23.820313 0-43.199219 19.378906-43.199219 43.199219s19.378906 43.203125 43.199219 43.203125h194.480469c23.824218 0 43.203124-19.382812 43.203124-43.203125-.003906-23.820313-19.378906-43.199219-43.203124-43.199219zm0 61.394532h-194.480469c-10.035157 0-18.199219-8.164063-18.199219-18.195313 0-10.035156 8.164062-18.199219 18.199219-18.199219h56.597656c6.902344 0 12.5-5.597656 12.5-12.5 0-15.523437 12.625-28.148437 28.140625-28.148437 15.523438 0 28.152344 12.625 28.152344 28.148437 0 6.902344 5.59375 12.5 12.5 12.5h56.589844c10.039062 0 18.203124 8.164063 18.203124 18.199219 0 10.03125-8.164062 18.195313-18.203124 18.195313zm0 0"/><path d="m527.820312 490.480469c6.902344 0 12.5-5.597657 12.5-12.5 0-6.90625-5.597656-12.5-12.5-12.5h-102.898437c-6.90625 0-12.5 5.59375-12.5 12.5 0 6.902343 5.59375 12.5 12.5 12.5zm0 0"/><path d="m424.921875 438.339844h102.898437c6.902344 0 12.5-5.59375 12.5-12.5 0-6.902344-5.597656-12.5-12.5-12.5h-102.898437c-6.90625 0-12.5 5.597656-12.5 12.5 0 6.90625 5.59375 12.5 12.5 12.5zm0 0"/><path d="m424.921875 386.203125h102.898437c6.902344 0 12.5-5.597656 12.5-12.5 0-6.90625-5.597656-12.5-12.5-12.5h-102.898437c-6.90625 0-12.5 5.59375-12.5 12.5 0 6.902344 5.59375 12.5 12.5 12.5zm0 0"/><path d="m140.4375 318.722656c6.886719 0 12.5-5.617187 12.5-12.5 0-6.886718-5.613281-12.5-12.5-12.5-6.882812 0-12.5 5.613282-12.5 12.5 0 6.882813 5.617188 12.5 12.5 12.5zm0 0"/></g></svg>