<svg height="682pt" viewBox="-21 -99 682.66679 682" width="682pt" xmlns="http://www.w3.org/2000/svg"><g fill-rule="evenodd"><path d="m638.066406 182.320312c-3.863281-14.417968-13.070312-26.445312-25.921875-33.863281l-127.351562-73.523437c-7.472657-4.316406-15.871094-6.816406-24.464844-7.332032v-16.6875c0-30.738281-25.011719-55.746093-55.75-55.746093h-147.050781c-30.734375 0-55.746094 25.007812-55.746094 55.746093v19.554688c-14.886719-5.300781-31.859375-4.03125-46.570312 4.464844l-127.347657 73.523437c-26.621093 15.367188-35.773437 49.527344-20.40625 76.152344l131.265625 227.347656c7.414063 12.859375 19.445313 22.0625 33.859375 25.925781 4.828125 1.292969 9.730469 1.933594 14.59375 1.933594 9.644531 0 19.152344-2.519531 27.695313-7.453125l105.132812-60.699219 105.128906 60.699219c8.421876 4.863281 18.019532 7.4375 27.746094 7.4375 19.941406 0 38.488282-10.667969 48.40625-27.84375l131.261719-227.347656c7.417969-12.855469 9.382813-27.875 5.519531-42.289063zm-435.695312 268.394532c-14.679688 8.476562-33.523438 3.425781-42-11.257813l-131.265625-227.347656c-4.082031-7.070313-5.15625-15.355469-3.019531-23.320313 2.136718-7.96875 7.207031-14.605468 14.277343-18.6875l127.347657-73.519531c11.136718-6.429687 24.542968-5.425781 34.070312 2.125v33.472657c0 6.902343 5.597656 12.5 12.5 12.5 6.90625 0 12.5-5.597657 12.5-12.5v-81.265626c0-16.953124 13.792969-30.746093 30.746094-30.746093h147.050781c16.953125 0 30.75 13.792969 30.75 30.746093v20.976563c-11.0625 4.652344-20.535156 12.792969-26.6875 23.445313l-131.257813 227.351562c-3.878906 6.707031-6.246093 14.007812-7.09375 21.496094h-12.761718c-16.953125 0-30.746094-13.792969-30.746094-30.746094v-81.265625c0-6.902344-5.601562-12.5-12.5-12.5-6.902344 0-12.5 5.597656-12.5 12.5v81.265625c0 30.738281 25.011719 55.746094 55.746094 55.746094h15.65625c4.066406 11.550781 11.6875 21.304687 21.917968 27.996094zm408.527344-238.605469-131.261719 227.347656c-5.460938 9.464844-15.714844 15.34375-26.757813 15.34375-5.339844 0-10.617187-1.410156-15.246094-4.085937l-127.34375-73.523438c-7.078124-4.085937-12.144531-10.722656-14.277343-18.683594-2.140625-7.96875-1.066407-16.25 3.015625-23.320312l131.265625-227.355469c5.464843-9.460937 15.710937-15.335937 26.753906-15.335937 5.34375 0 10.617187 1.410156 15.246094 4.082031l127.351562 73.523437c7.070313 4.082032 12.136719 10.71875 14.277344 18.6875 2.132813 7.964844 1.058594 16.25-3.023437 23.320313zm0 0"/><path d="m506.390625 202.246094c-1.78125-6.667969-8.632813-10.625-15.308594-8.835938l-72.753906 19.492188c-12.246094 3.28125-22.5 11.164062-28.871094 22.199218-6.371093 11.042969-8.070312 23.859376-4.789062 36.105469 4.804687 17.929688 19.566406 31.179688 37.363281 34.476563l-5.355469 9.28125s-.007812.007812-.007812.007812c-2.054688 3.558594-5.375 6.105469-9.34375 7.167969-3.976563 1.0625-8.125.515625-11.683594-1.539063-5.984375-3.453124-13.625-1.402343-17.078125 4.574219-3.449219 5.980469-1.398438 13.625 4.578125 17.074219 9.082031 5.246094 19.617187 6.746094 29.765625 4.265625 2.820312 9.628906 9.199219 18.230469 18.554688 23.632813 1.964843 1.136718 4.113281 1.671874 6.234374 1.671874 4.320313 0 8.519532-2.238281 10.835938-6.25 3.449219-5.976562 1.40625-13.621093-4.578125-17.074218-7.347656-4.242188-9.875-13.675782-5.632813-21.03125l5.359376-9.289063c8.859374 10.359375 21.988281 16.746094 36.277343 16.746094 4.128907 0 8.253907-.542969 12.265625-1.617187 25.355469-6.789063 40.457032-32.949219 33.660156-58.304688zm-6.949219 96.359375c-3.03125 5.253906-7.890625 9.003906-13.683594 10.554687-1.902343.507813-3.855468.765625-5.796874.765625-10.25 0-19.253907-6.886719-21.894532-16.75l-1.320312-4.917969c-.105469-.402343-.234375-.796874-.378906-1.1875-.019532-.054687-.050782-.105468-.074219-.160156-.125-.328125-.257813-.644531-.414063-.957031-.03125-.0625-.070312-.121094-.097656-.1875-.15625-.296875-.316406-.597656-.5-.886719-.023438-.039062-.050781-.078125-.078125-.117187-.195313-.304688-.394531-.601563-.613281-.890625-.019532-.023438-.042969-.046875-.0625-.078125-.230469-.292969-.46875-.574219-.722656-.847657-.035157-.035156-.070313-.0625-.097657-.097656-.25-.257812-.503906-.511718-.777343-.753906-.089844-.078125-.1875-.144531-.277344-.222656-.226563-.1875-.445313-.371094-.683594-.542969-.339844-.242187-.683594-.46875-1.050781-.679687-.441407-.253907-.894531-.46875-1.351563-.664063-.125-.050781-.25-.097656-.371094-.144531-.363281-.140625-.730468-.265625-1.09375-.371094-.125-.035156-.246093-.070312-.363281-.101562-.46875-.117188-.9375-.214844-1.410156-.28125-.015625 0-.03125-.003907-.042969-.003907-.5-.0625-1.003906-.09375-1.5-.097656-.039062 0-.078125-.007813-.117187-.007813-.078125 0-.15625.011719-.230469.011719-.386719.011719-.765625.035157-1.148438.078125-.136718.015625-.273437.027344-.410156.046875-.480468.070313-.964844.160157-1.433594.285157-.003906 0-.003906 0-.011718 0l-4.929688 1.324218c-1.90625.507813-3.851562.765625-5.796875.765625-10.25 0-19.253906-6.886719-21.894531-16.75-1.550781-5.796875-.738281-11.882812 2.296875-17.136719 3.03125-5.253906 7.894531-8.996093 13.691406-10.550781l60.683594-16.257812 16.253906 60.675781c1.558594 5.796875.738281 11.882812-2.296875 17.136719zm0 0"/><path d="m214.28125 194.671875c6.886719 0 12.5-5.609375 12.5-12.5 0-6.882813-5.613281-12.492187-12.5-12.492187-6.882812 0-12.5 5.609374-12.5 12.492187 0 6.890625 5.617188 12.5 12.5 12.5zm0 0"/></g></svg>