<svg height="682pt" viewBox="-21 -37 682.66563 682" width="682pt" xmlns="http://www.w3.org/2000/svg"><g fill-rule="evenodd"><path d="m633.507812 385.730469c-12.875-28.808594-39.746093-45.976563-77.695312-49.648438-38.417969-3.714843-84.191406 7.417969-121.039062 26.773438-15.222657-29.941407-37.683594-62.050781-64.835938-92.441407-4.835938-5.417968-9.722656-10.652343-14.628906-15.722656 11.425781-13.242187 19.75-26.484375 25.691406-37.945312 15.421875-29.730469 18.648438-54.035156 18.78125-55.054688.867188-6.835937-3.957031-13.070312-10.792969-13.960937-6.835937-.886719-13.101562 3.9375-14.003906 10.769531-.027344.214844-2.992187 21.667969-16.628906 47.605469-5.945313 11.308593-12.910157 21.65625-20.839844 31.058593-17.449219-16.328124-34.980469-30.296874-51.84375-41.433593 3.664063-5.128907 7.167969-10.480469 10.449219-16.035157 17.417968-29.476562 26.476562-60.722656 25.515625-87.980468-1.328125-37.445313-20.738281-66.90625-56.144531-85.1875-16-8.269532-34.527344-9.539063-52.15625-3.570313-19.109376 6.464844-35.113282 20.835938-43.90625 39.433594-10.136719 21.433594-1.4375 46.890625 19.394531 56.738281 10.175781 4.808594 21.660156 5.222656 32.332031 1.15625 10.492188-4 18.957031-11.871094 23.824219-22.167968 2.949219-6.238282.28125-13.691407-5.957031-16.640626-6.242188-2.953124-13.691407-.289062-16.640626 5.957032-2.101562 4.429687-5.695312 7.804687-10.128906 9.492187-4.25 1.617188-8.777344 1.480469-12.746094-.398437-8.367187-3.957032-11.726562-14.472656-7.480468-23.449219 5.910156-12.5 16.59375-22.136719 29.316406-26.441406 11.152344-3.769531 22.753906-3.027344 32.679688 2.101562 27.285156 14.089844 41.625 35.574219 42.625 63.863281 1.105468 31.160157-13.875 64.609376-32.636719 90.179688-20.351563-10.804688-39.070313-16.730469-54.597657-16.730469-11.949218 0-21.828124 3.414063-29.359374 10.152344-5.359376 4.785156-10.347657 11.976563-12.609376 22.730469l-160.027343 311.792968c-8.683594 16.84375-9.796875 36.652344-3.058594 54.347657 10.136719 26.597656 35.542969 42.984375 62.433594 42.980469 7.871093 0 15.871093-1.402344 23.65625-4.371094l122.195312-46.238282c6.457031-2.441406 9.714844-9.660156 7.265625-16.113281-2.441406-6.460937-9.652344-9.714843-16.113281-7.273437l-122.226563 46.257812c-21.496093 8.1875-45.65625-2.636718-53.851562-24.140625-4.214844-11.0625-3.515625-23.453125 1.929688-34.015625l142.203124-277.058594c1.589844 5.183594 3.535157 10.703126 5.917969 16.601563 12.234375 30.320313 33.269531 64.125 60.078125 96.804687.023438.023438.042969.050782.0625.074219 1.042969 1.273438 2.09375 2.542969 3.160156 3.8125.242188.296875.492188.597657.746094.890625.847656 1.015625 1.707032 2.023438 2.574219 3.039063.332031.390625.664063.78125 1 1.171875.824219.964844 1.65625 1.921875 2.488281 2.878906.339844.382812.671875.769531 1.007813 1.15625 1.148437 1.3125 2.304687 2.621094 3.472656 3.929688 1.535156 1.71875 3.078125 3.414062 4.621094 5.097656.585937.636718 1.167969 1.269531 1.753906 1.898437.898437.96875 1.792969 1.929688 2.695313 2.886719 37.75 40.214844 77.609374 70.234375 111.410156 84.757812l-75.546875 28.582032c-6.453125 2.445312-9.707031 9.660156-7.265625 16.117187 2.449218 6.457031 9.660156 9.707031 16.113281 7.265625l112.375-42.523437c9.445313-.921875 17.410156-4.226563 23.730469-9.871094 12.210937-10.910156 22.519531-34.34375 2.871094-84 6.335937-3.382813 13.078124-6.558594 20.148437-9.4375 29.960937-12.222656 62.089844-17.789063 88.140625-15.265625 28.886719 2.792969 48.160156 14.554688 57.28125 34.964844 5.554688 12.429687 5.722656 26.398437.472656 39.34375-5.320312 13.125-15.546875 23.613281-28.792968 29.535156-10.433594 4.664062-22.480469.511719-26.851563-9.261719-4.363281-9.773437.570313-21.515625 11.007813-26.183593 6.300781-2.816407 9.128906-10.210938 6.3125-16.507813-2.816407-6.304687-10.210938-9.125-16.515626-6.3125-23.019531 10.292969-33.617187 36.847656-23.621093 59.207031 7.300781 16.328125 23.59375 25.96875 40.824219 25.96875 6.359374 0 12.84375-1.316406 19.046874-4.089844 19.171876-8.566406 34-23.828124 41.757813-42.957031 7.832031-19.316406 7.539063-40.25-.820313-58.945312zm-207.917968 65.292969c-2.464844 2.207031-6.042969 3.457031-10.660156 3.734374-.75.042969-1.53125.054688-2.328126.050782-.433593-.007813-.882812-.027344-1.332031-.046875s-.898437-.03125-1.363281-.066407c-.503906-.039062-1.019531-.09375-1.539062-.148437-.433594-.046875-.867188-.089844-1.3125-.148437-.554688-.074219-1.132813-.164063-1.714844-.261719-.433594-.066407-.867188-.140625-1.3125-.21875-.589844-.113281-1.191406-.234375-1.796875-.367188-.472657-.097656-.953125-.203125-1.433594-.316406-.582031-.136719-1.167969-.28125-1.765625-.433594-.570312-.148437-1.140625-.304687-1.726562-.464843-.507813-.144532-1.019532-.292969-1.539063-.449219-.746094-.222657-1.5-.457031-2.261719-.707031-.363281-.117188-.726562-.238282-1.09375-.363282-1.015625-.34375-2.050781-.707031-3.09375-1.097656-.113281-.039062-.226562-.082031-.34375-.121094-30.671875-11.503906-74.324218-41.945312-117.96875-90.796875-1.921875-2.148437-3.8125-4.304687-5.683594-6.46875-.449218-.523437-.882812-1.039062-1.328124-1.558593-1.429688-1.667969-2.851563-3.339844-4.246094-5.015626-.453125-.539062-.890625-1.078124-1.332032-1.613281-1.382812-1.671875-2.753906-3.347656-4.101562-5.015625-.417969-.511718-.816406-1.027344-1.226562-1.539062-1.371094-1.71875-2.730469-3.4375-4.066407-5.15625-.363281-.464844-.71875-.925782-1.074219-1.390625-1.378906-1.789063-2.734374-3.578125-4.078124-5.367188-.292969-.394531-.597657-.796875-.890626-1.191406-1.425781-1.917969-2.824218-3.84375-4.203124-5.761719-.191407-.257812-.378907-.523437-.570313-.785156-3.125-4.371094-6.125-8.742188-8.988281-13.085938-.351563-.53125-.683594-1.054687-1.027344-1.582031-.980469-1.507812-1.957031-3.011719-2.90625-4.511719-.574219-.917968-1.136719-1.820312-1.699219-2.730468-.671875-1.082032-1.335937-2.164063-1.992187-3.242188-.652344-1.078125-1.296875-2.148437-1.925782-3.21875-.507812-.859375-1.007812-1.710937-1.5-2.566406-.703124-1.207031-1.402343-2.414062-2.074218-3.605469-.261719-.457031-.507813-.917969-.761719-1.378906-1.667969-2.988281-3.253906-5.933594-4.742187-8.824219-.09375-.191406-.195313-.375-.292969-.566406-.703125-1.371094-1.378907-2.730469-2.042969-4.078125-.253906-.523437-.507812-1.039063-.753906-1.558594-.640625-1.3125-1.261719-2.617187-1.855469-3.910156-.226563-.476563-.441406-.957031-.65625-1.433594-5.789063-12.707031-9.742187-24.226562-11.863281-34.109375-.027344-.121094-.050782-.238281-.074219-.355468-.25-1.175782-.472656-2.332032-.667969-3.464844-.015625-.070313-.027344-.132813-.035156-.207032-1.242188-7.230468-1.417969-13.472656-.53125-18.515624.023438-.152344.039062-.308594.058594-.457032.8125-4.238281 2.421875-7.53125 4.84375-9.6875 2.816406-2.519531 7.089844-3.796875 12.703125-3.796875 9.476562 0 22.523437 3.71875 38.003906 11.367188-7.066406 7.1875-14.171875 13.027343-20.761719 17.050781-5.898437 3.589844-7.757812 11.285156-4.164062 17.179688 2.351562 3.863281 6.464844 5.996093 10.683594 5.996093 2.214843-.003906 4.460937-.589843 6.492187-1.832031 10.195313-6.214844 20.488281-14.976562 30.195313-25.527344 15.460937 9.996094 32.433593 23.175782 50.148437 39.726563-12.53125 10.957031-26.8125 20.121093-42.808594 27.414062-6.28125 2.859375-9.054687 10.273438-6.1875 16.554688 2.09375 4.601562 6.632813 7.320312 11.382813 7.320312 1.734375 0 3.496094-.367187 5.175781-1.128906 20.183594-9.203125 36.707031-20.574219 50.210937-32.644531 4.480469 4.644531 8.984376 9.472656 13.507813 14.539062 26.285156 29.414063 47.800781 60.289063 62.007813 88.726563-13.816407 9.554687-25.414063 20.351562-33.53125 31.875-3.96875 5.648437-2.617188 13.441406 3.035156 17.417969 5.644531 3.972656 13.441406 2.617187 17.410156-3.027344 5.539062-7.863282 13.515625-15.617188 23.320312-22.863282 9.195313 25.089844 10.054688 44.679688 2.050782 51.828126zm0 0"/><path d="m413.84375 238.835938c-4.3125 5.375-3.449219 13.222656 1.921875 17.542968 2.304687 1.855469 5.074219 2.757813 7.824219 2.757813 3.652344 0 7.269531-1.589844 9.742187-4.648438.171875-.214843 17.898438-21.898437 50.441407-41.355469 43.191406-25.832031 90.796874-35.792968 141.472656-29.601562 6.851562.839844 13.085937-4.042969 13.925781-10.890625.835937-6.851563-4.042969-13.085937-10.890625-13.921875-70.652344-8.625-125.070312 13.464844-158.277344 33.519531-36.046875 21.769531-55.355468 45.589844-56.160156 46.597657zm0 0"/><path d="m550.984375 219.292969c-26.882813 0-48.753906 21.875-48.753906 48.757812 0 26.882813 21.871093 48.753907 48.753906 48.753907 26.878906 0 48.753906-21.871094 48.753906-48.753907 0-26.882812-21.875-48.757812-48.753906-48.757812zm0 72.511719c-13.101563 0-23.753906-10.65625-23.753906-23.753907 0-13.097656 10.652343-23.757812 23.753906-23.757812 13.097656 0 23.753906 10.660156 23.753906 23.757812 0 13.097657-10.65625 23.753907-23.753906 23.753907zm0 0"/><path d="m132.304688 494.578125c2.167968 1.578125 4.75 2.386719 7.347656 2.386719 1.617187 0 3.234375-.3125 4.769531-.945313l31.1875-12.882812 31.191406 12.882812c4.015625 1.652344 8.605469 1.113281 12.113281-1.441406 3.515626-2.554687 5.457032-6.75 5.117188-11.078125l-2.609375-33.644531 21.886719-25.683594c2.820312-3.304687 3.71875-7.835937 2.375-11.972656-1.34375-4.128907-4.738282-7.265625-8.957032-8.285157l-32.800781-7.914062-17.667969-28.75c-2.269531-3.703125-6.300781-5.957031-10.648437-5.957031-4.339844 0-8.375 2.253906-10.648437 5.957031l-17.667969 28.75-32.796875 7.914062c-4.222656 1.019532-7.617188 4.15625-8.960938 8.285157-1.335937 4.136719-.4375 8.667969 2.375 11.972656l21.890625 25.683594-2.613281 33.644531c-.332031 4.328125 1.601562 8.523438 5.117188 11.078125zm25.875-75.488281c3.210937-.777344 5.984374-2.789063 7.71875-5.605469l9.710937-15.816406 9.710937 15.816406c1.734376 2.8125 4.507813 4.828125 7.722657 5.605469l18.039062 4.355468-12.035156 14.121094c-2.144531 2.519532-3.203125 5.78125-2.949219 9.078125l1.4375 18.5-17.15625-7.085937c-1.527344-.628906-3.148437-.945313-4.769531-.945313s-3.242187.316407-4.769531.945313l-17.152344 7.085937 1.433594-18.5c.257812-3.296875-.804688-6.558593-2.945313-9.074219l-12.039062-14.125zm0 0"/><path d="m367.59375 116.410156 43.40625 9.75 23.882812 37.527344c2.296876 3.609375 6.277344 5.789062 10.546876 5.789062h.199218c4.339844-.070312 8.339844-2.390624 10.550782-6.128906l22.6875-38.265625 43.074218-11.125c4.203125-1.082031 7.542969-4.277343 8.824219-8.425781 1.273437-4.152344.300781-8.671875-2.5625-11.929688l-29.390625-33.402343 2.734375-44.402344c.269531-4.335937-1.734375-8.5-5.289063-10.996094-3.558593-2.5-8.148437-2.972656-12.144531-1.25l-40.84375 17.628907-41.378906-16.324219c-4.042969-1.589844-8.625-.976563-12.097656 1.636719-3.46875 2.605468-5.339844 6.835937-4.933594 11.15625l4.144531 44.296874-28.316406 34.3125c-2.761719 3.347657-3.59375 7.894532-2.183594 12.007813 1.40625 4.109375 4.84375 7.195313 9.089844 8.144531zm43.972656-42.535156c2.105469-2.550781 3.117188-5.824219 2.808594-9.117188l-2.734375-29.179687 27.257813 10.753906c3.078124 1.214844 6.503906 1.15625 9.542968-.152343l26.898438-11.613282-1.796875 29.25c-.203125 3.300782.910156 6.542969 3.089843 9.023438l19.355469 22-28.367187 7.320312c-3.203125.832032-5.949219 2.886719-7.632813 5.734375l-14.9375 25.203125-15.730469-24.714844c-1.777343-2.789062-4.585937-4.761718-7.808593-5.488281l-28.59375-6.417969zm0 0"/><path d="m250.875 517.117188c-6.886719 0-12.5 5.609374-12.5 12.5 0 6.882812 5.613281 12.5 12.5 12.5 6.882812 0 12.5-5.617188 12.5-12.5 0-6.886719-5.617188-12.5-12.5-12.5zm0 0"/></g></svg>