<svg height="681pt" viewBox="-114 -21 681 681.33464" width="681pt" xmlns="http://www.w3.org/2000/svg"><g fill-rule="evenodd"><path d="m445.449219 255.929688c-6.175781-34.042969-25.992188-63.6875-55.804688-83.476563-22.972656-15.246094-49.027343-22.742187-75.234375-21.9375.175782-3.367187.292969-6.703125.292969-9.980469 0-40.027344-13.542969-76.167968-38.136719-101.757812-23.972656-24.953125-56.875-38.6953128-92.65625-38.6953128s-68.683594 13.7421878-92.65625 38.6953128c-24.589844 25.589844-38.132812 61.730468-38.132812 101.757812 0 4.308594.164062 8.683594.46875 13.105469-39.105469 20.90625-61.710938 63.628906-59.511719 113.742187 1.519531 34.605469 14.714844 73.429688 35.300781 103.84375 21.910156 32.382813 48.898438 51.179688 76.570313 53.535157 2.039062 4.300781 5.03125 10.316406 9.390625 19 2.175781 4.335937 4.429687 8.824219 4.945312 9.988281 10.097656 22.628906 9.988282 54.285156-9.75 71.011719-5.921875 5.007812-14.164062 9.992187-22.136718 14.8125-15.832032 9.570312-30.785157 18.613281-36.28125 31.851562-5.210938 12.554688-.921876 24.507813 2.527343 34.121094 2.25 6.269531 4.378907 12.195313 2.867188 15.308594-3.007813 6.199219-.417969 13.660156 5.773437 16.667969 1.757813.851562 3.613282 1.253906 5.441406 1.253906 4.628907 0 9.074219-2.585938 11.230469-7.035156 6.09375-12.546876 1.703125-24.789063-1.828125-34.625-2.304687-6.421876-4.476562-12.484376-2.964844-16.125 2.359376-5.691407 15.542969-13.660157 26.144532-20.066407 8.804687-5.328125 17.914062-10.832031 25.351562-17.128906 30.480469-25.816406 29.871094-70.046875 16.410156-100.214844-.714843-1.597656-2.441406-5.050781-5.433593-11.007812-1.460938-2.914063-3.429688-6.84375-5.324219-10.667969 14.152344-4.347656 27.691406-13.179688 39.90625-26 6.152344 19.191406 16.183594 34.726562 29.753906 45.722656-.210937 1.003906-.445312 2.039063-.65625 2.957032-1.792968 7.914062-4.253906 18.757812-1.476562 32.386718 6.882812 33.757813 55.996094 48.0625 70.886718 51.644532 12.894532 3.097656 23.046876 10.128906 26.503907 18.339843 2.367187 5.644531 1.558593 11.871094-2.417969 18.519531-2.96875 4.960938-9.726562 9.074219-16.886719 13.429688-14.078125 8.5625-33.363281 20.292969-33.363281 47.453125 0 6.886719 5.585938 12.476563 12.476562 12.476563 6.890626 0 12.476563-5.589844 12.476563-12.476563 0-12.523437 7.722656-17.832031 21.378906-26.136719 8.996094-5.472656 19.195313-11.675781 25.332031-21.9375 8.039063-13.445312 9.460938-28.003906 4.003907-40.992187-6.667969-15.859375-22.585938-27.863281-43.667969-32.933594-23.871094-5.738281-49.488281-18.703125-52.273438-32.367187-1.332031-6.5625-.667968-12.207032.414063-17.542969 10.066406 3.644531 21.136719 5.457031 32.929687 5.457031 26.105469 0 55.722657-8.875 85.589844-26.320312 5.949219-3.472657 7.953125-11.117188 4.480469-17.066407-3.476563-5.949219-11.117187-7.953125-17.066406-4.476562-42.894531 25.058593-83.574219 30.011719-108.820313 13.253906-16.679687-11.070313-27.382812-32.484375-30.683594-60.390625-.15625-1.304688-.292968-2.625-.414062-3.953125-.042969-.515625-.09375-1.03125-.136719-1.554687-.121093-1.484376-.21875-2.976563-.300781-4.480469-.03125-.566407-.054688-1.136719-.078125-1.707031-.050781-1.167969-.089844-2.34375-.113281-3.527344-.019532-.804688-.03125-1.613282-.039063-2.421875-.011719-1.183594-.011719-2.375.003907-3.566407.011718-.753906.019531-1.503906.039062-2.257812.011719-.46875.035156-.941406.050781-1.410156.050781-1.8125.136719-3.628906.242188-5.453125.042969-.738281.09375-1.484375.144531-2.230469.097656-1.375.210938-2.757812.332031-4.136719.105469-1.117187.207031-2.234375.328125-3.351562.085938-.839844.191406-1.683594.292969-2.519531.183594-1.554688.371094-3.109376.589844-4.679688l.003906-.015625c3.570313-25.316406 11.777344-50.753906 23.058594-72.074219.152343-.289062.304687-.578125.460937-.863281.652344-1.21875 1.320313-2.417969 1.992188-3.613281.492187-.855469.984375-1.707032 1.484375-2.558594.484375-.820312.964843-1.648438 1.464843-2.460938 1.0625-1.738281 2.136719-3.453124 3.253907-5.128906.59375-.898437 1.195312-1.78125 1.804687-2.65625.398438-.574218.804688-1.140625 1.210938-1.707031.191406-.265625.386718-.546875.582031-.8125 37.449219-51.539063 98.980469-65.359375 148.457031-32.519531 24.101563 15.992187 40.097656 39.839844 45.050782 67.140625 5.253906 28.964843-1.921876 59.261719-20.761719 87.644531l-.496094.742188c-3.835937 5.722656-2.304687 13.472656 3.421875 17.308593 5.726562 3.835938 13.472656 2.300781 17.304688-3.425781l.574218-.847656c22.136719-33.355469 30.839844-70.949219 24.507813-105.878906zm-261.539063-230.894532c61.332032 0 105.84375 48.574219 105.84375 115.5 0 4.339844-.179687 8.800782-.535156 13.335938-.242188.058594-.480469.121094-.71875.179687-.496094.125-.992188.246094-1.492188.378907-.613281.15625-1.222656.316406-1.832031.488281-.398437.105469-.792969.21875-1.1875.332031-.734375.207031-1.46875.421875-2.199219.648438-.253906.078124-.5.152343-.753906.230468-.898437.28125-1.796875.566406-2.691406.871094-.070312.023438-.144531.046875-.214844.070312-29.472656 9.941407-55.648437 30.726563-75.125 60.074219-.878906 1.316407-1.730468 2.652344-2.578125 4-.273437.4375-.546875.882813-.820312 1.324219-.578125.9375-1.148438 1.886719-1.714844 2.84375-.300781.5-.601563 1.007812-.898437 1.515625-.703126 1.210937-1.402344 2.429687-2.085938 3.667969-.46875.84375-.921875 1.695312-1.382812 2.542968-.242188.460938-.484376.914063-.722657 1.367188-8.480469 16.054688-15.269531 33.878906-20.019531 52.480469-.074219.285156-.148438.578125-.222656.867187-.285156 1.144532-.574219 2.289063-.847656 3.441406-.207032.886719-.40625 1.777344-.609376 2.667969-.25 1.125-.5 2.253907-.738281 3.378907-.25 1.160156-.488281 2.320312-.71875 3.480468-.058593.289063-.121093.578125-.179687.871094-.070313-.019531-.140625-.035156-.214844-.054688-.574219-.160156-1.148438-.332031-1.722656-.507812-.1875-.058594-.375-.109375-.5625-.167969-.648438-.207031-1.285156-.425781-1.929688-.652343-.117187-.039063-.226562-.078126-.339844-.117188-.714843-.257812-1.433593-.527344-2.144531-.816406-.039062-.011719-.078125-.027344-.121093-.046875-12.3125-4.945313-23.960938-13.898438-34.445313-25.535157-.289063-.3125-.566406-.636718-.84375-.957031-.34375-.390625-.695313-.78125-1.039063-1.175781-.597656-.691406-1.191406-1.390625-1.78125-2.105469-.019531-.023437-.042968-.046875-.0625-.070312-15.609374-18.789063-28.320312-43.46875-36.425781-69.195313-.039062-.125-.070312-.246094-.109375-.367187-.269531-.851563-.53125-1.707031-.785156-2.5625-.117188-.394531-.234375-.792969-.351562-1.195313-.175782-.585937-.347657-1.167968-.515626-1.753906-.207031-.726562-.40625-1.453125-.605468-2.179688-.074219-.265624-.152344-.535156-.222656-.800781-4.617188-17.066406-7.167969-34.4375-7.167969-50.796875 0-66.925781 44.511719-115.5 105.835937-115.5zm-70.136718 374.992188c-.636719.027344-1.269532.039062-1.910157.039062-20.871093 0-43.40625-15.609375-61.828125-42.824218-18.101562-26.753907-29.707031-60.761719-31.03125-90.957032-1.628906-37.078125 12.390625-67.972656 38.117188-85.660156 3.683594 19.117188 9.820312 38.207031 17.90625 56.007812.058594.132813.121094.269532.183594.402344 1.492187 3.273438 3.046874 6.492188 4.664062 9.664063.378906.75.765625 1.492187 1.15625 2.238281.378906.722656.753906 1.449219 1.140625 2.167969.738281 1.375 1.496094 2.738281 2.253906 4.09375.292969.515625.589844 1.023437.882813 1.535156.660156 1.152344 1.324218 2.285156 2 3.417969.238281.386718.464844.78125.699218 1.167968.074219.121094.140626.242188.21875.367188.859376 1.410156 1.726563 2.796875 2.605469 4.164062.160157.246094.316407.488282.472657.726563.910156 1.414063 1.835937 2.804687 2.761718 4.167969.0625.085937.117188.179687.175782.265625.078124.113281.15625.222656.230468.328125 20.535156 29.976562 45.328125 49.058594 71.480469 55.09375-.03125.3125-.050781.621094-.074219.9375-.058594.679687-.105468 1.355468-.160156 2.035156-.0625.882812-.132812 1.757812-.191406 2.628906-.011719.253906-.023438.511719-.042969.765625-.238281 3.96875-.371094 7.886719-.394531 11.761719 0 .101562 0 .207031-.003906.316406 0 1.015625.003906 2.027344.019531 3.035156.003906.636719.007812 1.28125.019531 1.914063.007812.523437.027344 1.039063.042969 1.558594.027343 1.199219.066406 2.394531.121093 3.574219v.019531c.140626 3.09375.351563 6.140625.628907 9.121093-15.414063 22.410157-33.816407 35.117188-52.144531 35.925782zm0 0"/><path d="m367.398438 228.527344c3.8125-5.738282 2.246093-13.484375-3.492188-17.292969-21.496094-14.269531-45.148438-18.011719-68.394531-10.824219-20.71875 6.414063-39.804688 21.496094-53.726563 42.476563-10.210937 15.375-18.425781 34.378906-23.761718 54.96875-1.730469 6.667969 2.269531 13.476562 8.941406 15.203125 1.054687.273437 2.105468.402344 3.140625.402344 5.550781 0 10.613281-3.730469 12.070312-9.347657 4.648438-17.933593 11.699219-34.332031 20.394531-47.433593 10.753907-16.199219 25.074219-27.71875 40.316407-32.429688 15.847656-4.902344 32.171875-2.214844 47.222656 7.773438 5.734375 3.808593 13.480469 2.246093 17.289063-3.496094zm0 0"/><path d="m110.269531 199.472656c1.785157 5.171875 6.617188 8.414063 11.792969 8.414063 1.351562 0 2.71875-.226563 4.070312-.6875 6.511719-2.246094 9.96875-9.351563 7.71875-15.863281-6.042968-17.515626-9.234374-35.078126-9.234374-50.800782 0-34.320312 18.332031-68.957031 59.292968-68.957031 6.890625 0 12.476563-5.582031 12.476563-12.472656 0-6.894531-5.585938-12.476563-12.476563-12.476563-49.605468 0-84.246094 38.613282-84.246094 93.90625 0 18.460938 3.667969 38.839844 10.605469 58.9375zm0 0"/><path d="m377.144531 380.792969c-6.871093 0-12.472656 5.605469-12.472656 12.476562 0 6.871094 5.601563 12.476563 12.472656 12.476563 6.871094 0 12.476563-5.605469 12.476563-12.476563 0-6.871093-5.605469-12.476562-12.476563-12.476562zm0 0"/></g></svg>