<svg height="681pt" viewBox="-131 -21 681 681.33464" width="681pt" xmlns="http://www.w3.org/2000/svg"><g fill-rule="evenodd"><path d="m384.070312 315.527344c18.132813-31.03125 28.542969-67.101563 28.542969-105.5625 0-115.730469-94.15625-209.8828128-209.882812-209.8828128-115.730469 0-209.882813 94.1523438-209.882813 209.8828128 0 38.457031 10.40625 74.527344 28.539063 105.554687.195312.441407.410156.875.664062 1.296875l120.257813 202.929688c-7.015625 5.441406-11.535156 13.941406-11.535156 23.484375v65.875c0 16.390625 13.332031 29.730469 29.726562 29.730469h84.460938c16.390624 0 29.730468-13.339844 29.730468-29.730469v-65.875c0-9.542969-4.523437-18.042969-11.535156-23.484375l120.257812-202.929688c.246094-.417968.460938-.851562.65625-1.289062zm-216.464843 197.976562-73.480469-123.996094c31.660156 19.226563 68.796875 30.3125 108.464844 30.339844.042968 0 .082031.003906.125.003906h.027344c.042968 0 .085937-.003906.128906-.003906 39.667968-.027344 76.800781-11.113281 108.464844-30.339844l-73.484376 123.996094zm22.648437-480.941406v127.5c0 6.890625 5.585938 12.476562 12.476563 12.476562 6.886719 0 12.476562-5.585937 12.476562-12.476562v-127.5c20.335938 12.84375 38.824219 35.054688 53.210938 64.320312 17.042969 34.671876 26.816406 75.890626 26.816406 113.082032 0 37.199218-9.773437 78.417968-26.816406 113.085937-14.386719 29.265625-32.875 51.476563-53.210938 64.316407v-127.5c0-6.890626-5.589843-12.472657-12.476562-12.472657-6.890625 0-12.476563 5.582031-12.476563 12.472657v127.5c-20.339844-12.839844-38.828125-35.050782-53.214844-64.316407-17.042968-34.667969-26.816406-75.886719-26.816406-113.085937 0-37.191406 9.773438-78.410156 26.816406-113.082032 14.386719-29.265624 32.875-51.476562 53.214844-64.320312zm197.410156 177.402344c0 84.136718-56.484374 155.324218-133.519531 177.652344 16.324219-16.816407 28.328125-36.597657 36.667969-53.5625 18.667969-37.976563 29.375-83.207032 29.375-124.089844 0-40.882813-10.707031-86.109375-29.375-124.09375-8.339844-16.960938-20.34375-36.738282-36.667969-53.5625 77.035157 22.335937 133.519531 93.519531 133.519531 177.65625zm-236.347656-177.648438c-16.328125 16.816406-28.328125 36.597656-36.671875 53.5625-18.664062 37.976563-29.371093 83.203125-29.371093 124.085938 0 40.882812 10.707031 86.113281 29.371093 124.09375 8.34375 16.964844 20.34375 36.742187 36.671875 53.5625-77.035156-22.332032-133.515625-93.519532-133.515625-177.65625 0-84.136719 56.480469-155.320313 133.515625-177.648438zm98.421875 576.789063c0 2.589843-2.1875 4.777343-4.78125 4.777343h-84.457031c-2.59375 0-4.78125-2.1875-4.78125-4.777343v-65.875c0-2.582031 2.1875-4.769531 4.777344-4.777344h84.464844c2.589843.007813 4.777343 2.195313 4.777343 4.777344zm0 0"/><path d="m202.730469 222.441406c6.871093 0 12.476562-5.605468 12.476562-12.476562s-5.605469-12.476563-12.476562-12.476563c-6.875 0-12.476563 5.605469-12.476563 12.476563s5.605469 12.476562 12.476563 12.476562zm0 0"/></g></svg>