<svg height="681pt" viewBox="-21 -58 681.33189 681" width="681pt" xmlns="http://www.w3.org/2000/svg"><g fill-rule="evenodd"><path d="m475.957031 236.226562c-27.414062 0-54.894531 9.058594-76.738281 20.234376l15.246094-129.28125h12.828125c3.800781 0 7.386719-1.730469 9.753906-4.699219 2.371094-2.972657 3.257813-6.855469 2.410156-10.5625l-23.925781-104.554688c-1.292969-5.671875-6.339844-9.691406-12.15625-9.691406h-366.976562c-5.820313 0-10.867188 4.019531-12.164063 9.691406l-23.917969 104.554688c-.847656 3.707031.03125 7.589843 2.402344 10.5625 2.367188 2.96875 5.960938 4.699219 9.753906 4.699219h12.832032l14.414062 122.234374v.011719l14.992188 127.113281v.015626l20.550781 174.242187c.742187 6.28125 6.066406 11.019531 12.390625 11.019531h264.464844c6.320312 0 11.648437-4.738281 12.386718-11.019531l3.457032-29.292969c28.820312 26.167969 66.269531 40.3125 107.996093 40.3125 24.917969 0 48.839844-5.492187 71.105469-16.320312 6.195312-3.015625 8.777344-10.476563 5.765625-16.675782-3.015625-6.195312-10.476563-8.777343-16.675781-5.761718-18.839844 9.160156-39.09375 13.804687-60.195313 13.804687-42.019531 0-78.820312-16.800781-104.214843-47.433593l10.324218-87.550782 13.511719-114.554687c20.140625-13.152344 50.5-26.144531 80.378906-26.144531 76.003907 0 137.839844 61.835937 137.839844 137.839843 0 21.105469-4.644531 41.359375-13.804687 60.199219-3.011719 6.195312-.433594 13.660156 5.765624 16.671875 6.191407 3.011719 13.660157.433594 16.675782-5.765625 10.824218-22.265625 16.316406-46.1875 16.316406-71.105469 0-89.761719-73.027344-162.792969-162.792969-162.792969zm-409.8125 24.214844h89.363281c4.414063 0 8.5-2.332031 10.742188-6.128906 13.171875-22.296875 32.71875-35.082031 53.636719-35.082031 20.914062 0 40.460937 12.785156 53.632812 35.082031 2.246094 3.796875 6.332031 6.128906 10.742188 6.128906h89.359375l-12.046875 102.160156h-77.3125c-4.414063 0-8.5 2.328126-10.746094 6.128907-13.167969 22.292969-32.714844 35.078125-53.628906 35.078125-20.917969 0-40.46875-12.785156-53.636719-35.078125-2.246094-3.800781-6.328125-6.128907-10.742188-6.128907h-77.316406zm-19.804687-237.820312h347.09375l18.210937 79.605468h-383.515625zm343 104.558594-12.773438 108.3125h-85.4375c-17.75-26.292969-43.378906-41.214844-71.242187-41.214844-27.871094 0-53.5 14.921875-71.25 41.214844h-85.4375l-12.773438-108.3125zm-290.597656 409.683593-17.609376-149.3125h67.503907c17.75 26.289063 43.378906 41.210938 71.25 41.210938 27.863281 0 53.492187-14.921875 71.242187-41.210938h67.503906l-17.605468 149.3125zm0 0"/><path d="m405.605469 399.019531c0 38.789063 31.558593 70.351563 70.351562 70.351563 38.785157 0 70.34375-31.5625 70.34375-70.351563 0-38.785156-31.558593-70.347656-70.34375-70.347656-38.792969 0-70.351562 31.5625-70.351562 70.347656zm115.746093 0c0 25.035157-20.367187 45.398438-45.394531 45.398438-25.035156 0-45.398437-20.363281-45.398437-45.398438 0-25.03125 20.363281-45.394531 45.398437-45.394531 25.027344 0 45.394531 20.363281 45.394531 45.394531zm0 0"/><path d="m582.246094 492.835938c-6.871094 0-12.472656 5.601562-12.472656 12.472656s5.601562 12.476562 12.472656 12.476562 12.476562-5.605468 12.476562-12.476562-5.605468-12.472656-12.476562-12.472656zm0 0"/></g></svg>