<svg height="682pt" viewBox="-62 -21 682 682.66669" width="682pt" xmlns="http://www.w3.org/2000/svg"><g fill-rule="evenodd"><path d="m547.148438 422.261719-62.996094-22.070313v-35.332031c0-.011719 0-.019531 0-.03125v-.027344c0-.019531 0-.039062 0-.066406-.007813-.355469-.027344-.710937-.054688-1.0625-.015625-.125-.03125-.257813-.042968-.382813-.03125-.246093-.070313-.496093-.113282-.742187-.03125-.144531-.054687-.285156-.082031-.429687-.054687-.246094-.125-.484376-.191406-.730469-.042969-.15625-.089844-.316407-.136719-.472657-.09375-.289062-.199219-.570312-.3125-.855468-.058594-.140625-.128906-.277344-.191406-.414063-.085938-.207031-.183594-.40625-.289063-.601562-.066406-.132813-.136719-.261719-.214843-.394531-.117188-.207032-.242188-.410157-.375-.617188-.0625-.101562-.125-.210938-.199219-.3125-.191407-.28125-.394531-.554688-.609375-.820312-.019532-.019532-.03125-.039063-.046875-.054688-.238281-.285156-.492188-.5625-.753907-.832031-.070312-.070313-.144531-.132813-.214843-.199219-.191407-.1875-.390625-.375-.597657-.542969-.105468-.09375-.214843-.183593-.328124-.265625-.089844-.078125-.183594-.15625-.28125-.234375l-108.4375-80.683593c9.332031-11.171876 15.542968-28.25 15.542968-45.878907 0-42.714843-31.25-66.980469-58.824218-88.394531-14.894532-11.5625-29.015626-22.53125-38.34375-35.648438v-49.367187h20.058593c6.902344 0 12.5-5.597656 12.5-12.5 0-6.90625-5.597656-12.5-12.5-12.5h-20.058593v-17.296875c0-6.90625-5.601563-12.5-12.5-12.5-6.90625 0-12.5 5.59375-12.5 12.5v17.296875h-20.066407c-6.898437 0-12.5 5.59375-12.5 12.5 0 6.902344 5.601563 12.5 12.5 12.5h20.066407v49.367187c-9.332032 13.117188-23.453126 24.085938-38.347657 35.648438-27.570312 21.414062-58.820312 45.6875-58.820312 88.394531 0 17.207031 6.339843 34.339844 15.792969 45.683594l-108.695313 80.882813c-.097656.074218-.183594.152343-.28125.230468-.113281.082032-.222656.171875-.328125.265625-.207031.175781-.40625.355469-.601562.542969-.066407.066406-.140626.132812-.210938.203125-.261719.265625-.515625.542969-.753906.828125-.015625.023438-.03125.039062-.046875.054688-.214844.269531-.417969.542968-.609375.820312-.074219.101562-.136719.210938-.203125.3125-.128907.207031-.253907.410156-.378907.621094-.070312.128906-.140624.257812-.207031.390625-.105469.199219-.203125.402343-.292969.601562-.058593.136719-.128906.273438-.183593.414063-.121094.289062-.226563.582031-.320313.875-.050781.144531-.089844.296875-.132812.441406-.066406.25-.136719.496094-.191406.742188-.027344.144531-.050782.285156-.078126.425781-.046874.25-.085937.5-.117187.757812-.011719.121094-.027344.238281-.039063.367188-.03125.363281-.058593.730469-.058593 1.101562v35.425781l-63 22.066407c-5.011719 1.757812-8.367188 6.488281-8.367188 11.796875v193.441406c0 6.90625 5.597657 12.5 12.5 12.5h532.9375c6.902344 0 12.5-5.59375 12.5-12.5v-193.441406c0-5.308594-3.359375-10.039063-8.371093-11.796875zm-306.109376-262.699219c12.378907-9.609375 25.066407-19.464844 35.515626-31.109375 10.441406 11.644531 23.128906 21.492187 35.507812 31.109375 26.375 20.480469 49.152344 38.171875 49.152344 68.644531 0 18.378907-9.261719 30.992188-13.558594 33.457031h-141.777344c-4.917968-3.132812-13.992187-16.09375-13.992187-33.457031 0-30.472656 22.777343-48.164062 49.152343-68.644531zm-218.457031 283.363281 46.363281-16.242187v188.316406h-46.363281zm71.363281-33.867187v-31.753906h132.609376c6.898437 0 12.5-5.601563 12.5-12.5 0-6.90625-5.601563-12.5-12.5-12.5h-107.371094l88.214844-65.640626h138.304687l88.207031 65.640626h-107.363281c-6.898437 0-12.5 5.59375-12.5 12.5 0 6.898437 5.601563 12.5 12.5 12.5h132.605469v237.695312h-123.824219v-128.640625c0-32.414063-26.367187-58.78125-58.773437-58.78125-32.414063 0-58.78125 26.367187-58.78125 58.78125v128.640625h-123.828126zm148.828126 205.941406v-128.640625c0-18.628906 15.152343-33.78125 33.78125-33.78125 18.621093 0 33.773437 15.152344 33.773437 33.78125v128.640625zm287.746093 0h-46.367187v-188.316406l46.367187 16.242187zm0 0"/><path d="m276.554688 377.304688c6.882812 0 12.5-5.617188 12.5-12.5 0-6.882813-5.617188-12.5-12.5-12.5-6.890626 0-12.507813 5.617187-12.507813 12.5 0 6.882812 5.617187 12.5 12.507813 12.5zm0 0"/></g></svg>