<svg height="682pt" viewBox="-47 -21 682 682.66669" width="682pt" xmlns="http://www.w3.org/2000/svg"><g fill-rule="evenodd"><path d="m584.265625 246.578125c-2.367187-3.042969-6.003906-4.820313-9.859375-4.820313h-41.417969l-40.734375-98.335937c5.441406-.296875 10.09375-4.085937 11.441406-9.414063l12.019532-47.640624c.945312-3.734376.109375-7.699219-2.257813-10.738282-2.371093-3.042968-6.011719-4.816406-9.863281-4.816406h-79.804688c-2.96875 0-5.800781 1.058594-8.035156 2.933594l-77.566406-32.128906 6.578125-26.054688c.941406-3.734375.109375-7.703125-2.257813-10.742188-2.367187-3.042968-6.003906-4.820312-9.859374-4.820312h-79.808594c-3.851563 0-7.488282 1.777344-9.859375 4.820312-2.367188 3.039063-3.203125 7-2.257813 10.742188l6.574219 26.054688-77.570313 32.128906c-2.234374-1.871094-5.066406-2.933594-8.035156-2.933594h-79.796875c-3.855469 0-7.496093 1.773438-9.863281 4.816406-2.371094 3.039063-3.203125 7.003906-2.261719 10.738282l12.027344 47.640624c1.339844 5.332032 6 9.117188 11.433594 9.414063l-40.730469 98.335937h-41.417969c-3.851562 0-7.488281 1.777344-9.859375 4.820313-2.371094 3.039063-3.203125 7-2.257812 10.742187l12.019531 47.640626c1.402344 5.546874 6.398437 9.4375 12.121094 9.4375h29.394531l40.722656 98.3125h-11.328125c-3.859375 0-7.496093 1.777343-9.863281 4.820312-2.371094 3.035156-3.203125 7-2.261719 10.734375l12.019531 47.640625c1.402344 5.554688 6.398438 9.445312 12.125 9.445312h55.753907c4.714843 0 8.925781-2.636718 11.046875-6.671874l21.523437 8.917968-62.019531 134.671875c-1.78125 3.871094-1.46875 8.386719.828125 11.96875 2.296875 3.589844 6.265625 5.761719 10.527344 5.761719h111.167969c6.90625 0 12.5-5.601562 12.5-12.5 0-6.90625-5.59375-12.5-12.5-12.5h-91.648438l54.265625-117.828125 38.957031 16.132813 8.429688 33.414062c1.402344 5.550781 6.394531 9.445312 12.121094 9.445312h55.75c5.730468 0 10.722656-3.894531 12.121093-9.445312l8.4375-33.414062 39.097657-16.191407 54.144531 117.886719h-91.671875c-6.902344 0-12.5 5.59375-12.5 12.5s5.597656 12.5 12.5 12.5h111.167968c4.257813 0 8.222657-2.167969 10.523438-5.75 2.300781-3.589844 2.613281-8.097656.835938-11.96875l-61.886719-134.742188 21.382812-8.859374c2.125 4.035156 6.332031 6.671874 11.050781 6.671874h55.753907c5.722656 0 10.71875-3.890624 12.121093-9.445312l12.019532-47.640625c.945312-3.734375.109375-7.699219-2.257813-10.734375-2.371093-3.042969-6.011719-4.820312-9.863281-4.820312h-11.324219l40.71875-98.3125h29.394531c5.722657 0 10.714844-3.886719 12.117188-9.4375l12.023438-47.640626c.945312-3.742187.109374-7.703124-2.257813-10.742187zm-96.71875-150.765625-5.707031 22.640625h-8.167969c-.015625 0-.035156 0-.054687 0h-28.0625l-5.71875-22.640625zm-170.945313-70.8125-5.714843 22.640625h-36.285157l-5.710937-22.640625zm-170.953124 70.8125-5.714844 22.640625h-28.039063c-.03125 0-.058593 0-.09375 0h-8.148437l-5.714844-22.640625zm-118.519532 170.945312h33.640625c.03125 0 .054688.003907.078125.003907.015625 0 .03125-.003907.050782-.003907h13.945312l-5.71875 22.640626h-8.136719c-.039062 0-.078125 0-.117187 0h-28.027344zm76.527344 193.59375-5.71875-22.640624h13.945312c.019532 0 .035157.003906.050782.003906.023437 0 .050781-.003906.078125-.003906h33.640625l-5.71875 22.640624zm207.230469 70.8125h-36.285157l-5.710937-22.644531h47.710937zm29.796875-44.710937c-2.234375-1.875-5.070313-2.933594-8.035156-2.933594h-79.808594c-2.964844 0-5.800782 1.058594-8.03125 2.933594l-28.984375-12.003906 7.578125-16.457031 60.386718-131.46875c2.902344.539062 5.898438.828124 8.953126.828124 3.023437 0 5.976562-.285156 8.847656-.808593l60.382812 130.722656 7.859375 17.113281zm-47.941406-184.101563c-13.382813 0-24.273438-10.886718-24.273438-24.269531 0-13.386719 10.890625-24.273437 24.273438-24.273437 13.390624 0 24.277343 10.886718 24.277343 24.273437 0 13.382813-10.886719 24.269531-24.277343 24.269531zm189.09375 158h-36.28125l-5.71875-22.640624h33.644531c.027343 0 .054687.003906.078125.003906.015625 0 .027344-.003906.046875-.003906h13.941406zm-58.042969-47.640624c-3.859375 0-7.496094 1.777343-9.863281 4.820312-2.367188 3.035156-3.203126 7-2.261719 10.734375l6.582031 26.0625-25.308594 10.476563-8.265625-18-60.4375-130.859376c10.859375-9.046874 17.78125-22.660156 17.78125-37.863281 0-27.167969-22.105469-49.273437-49.273437-49.273437-27.167969 0-49.269532 22.105468-49.269532 49.273437 0 15.164063 6.886719 28.746094 17.695313 37.785157l-60.480469 131.679687-7.984375 17.332031-25.46875-10.550781 6.578125-26.054687c.941406-3.738282.109375-7.703126-2.261718-10.742188-2.367188-3.042969-6.003907-4.820312-9.855469-4.820312h-41.417969l-40.738281-98.339844c5.4375-.292969 10.09375-4.082032 11.4375-9.410156l12.027343-47.640626c.941407-3.734374.105469-7.703124-2.261718-10.742187-2.367188-3.039063-6.007813-4.820313-9.863282-4.820313h-11.328124l40.722656-98.304687h29.394531c5.722656 0 10.71875-3.890625 12.117187-9.4375l8.433594-33.414063 83.589844-34.625c2.128906 4.027344 6.335938 6.664063 11.050781 6.664063h55.753907c4.714843 0 8.925781-2.636719 11.050781-6.664063l83.589843 34.625 8.4375 33.414063c1.402344 5.546875 6.390626 9.4375 12.117188 9.4375h29.390625l40.722656 98.304687h-11.328125c-3.851562 0-7.488281 1.78125-9.863281 4.820313-2.367187 3.039063-3.199219 7.007813-2.253906 10.742187l12.019531 47.640626c1.347656 5.328124 6 9.117187 11.441406 9.410156l-40.738281 98.339844zm128.851562-123.3125h-28.042969c-.027343 0-.058593 0-.089843 0h-8.144531l-5.71875-22.640626h13.945312c.015625 0 .027344.003907.046875.003907.027344 0 .050781-.003907.074219-.003907h33.648437zm0 0"/><path d="m292.742188 615c-6.882813 0-12.5 5.617188-12.5 12.5s5.617187 12.5 12.5 12.5c6.886718 0 12.5-5.617188 12.5-12.5s-5.613282-12.5-12.5-12.5zm0 0"/></g></svg>