<svg height="682pt" viewBox="-73 -21 682 682.66688" width="682pt" xmlns="http://www.w3.org/2000/svg"><g fill-rule="evenodd"><path d="m271.484375 387.753906c-5.695313-3.90625-13.472656-2.464844-17.382813 3.230469-52.945312 77.050781-108.910156 122.84375-137.558593 143.285156-48.835938 34.84375-76.796875 39.09375-82.683594 35.703125-6.660156-3.847656-18.039063-35.972656-8.449219-106.378906 5.679688-41.707031 23.125-125.398438 76.152344-217.242188s116.78125-148.800781 150.066406-174.574218c56.171875-43.507813 89.683594-49.71875 96.34375-45.867188 5.886719 3.398438 16.179688 29.738282 10.425782 89.453125-3.378907 35.03125-15.054688 106.390625-55.308594 190.777344-2.972656 6.222656-.332032 13.683594 5.898437 16.660156 6.226563 2.972657 13.691407.332031 16.660157-5.898437 31.0625-65.109375 51.527343-135.824219 57.632812-199.140625 2.753906-28.578125 6.042969-96.84375-22.808594-113.5-33.222656-19.183594-103.425781 31.699219-124.15625 47.75-34.730468 26.902343-101.238281 86.296875-156.402344 181.839843-55.164062 95.542969-73.347656 182.839844-79.273437 226.375-3.539063 25.96875-12.5 112.210938 20.71875 131.390626 5.105469 2.949218 11.097656 4.21875 17.644531 4.21875 30.46875 0 72.816406-27.492188 92.054688-41.214844 51.78125-36.945313 102.796875-90.03125 143.648437-149.484375 3.910157-5.6875 2.464844-13.46875-3.222656-17.382813zm0 0"/><path d="m255.976562 185.25c-11.363281-6.554688-24.300781-10.023438-37.421874-10.023438-26.910157 0-51.929688 14.390626-65.304688 37.550782l-27.460938 47.5625-27.453124 47.5625c-20.738282 35.914062-8.390626 81.992187 27.523437 102.722656 11.328125 6.542969 24.226563 10.007812 37.308594 10.027344h.113281c26.902344 0 51.929688-14.390625 65.300781-37.550782l54.917969-95.125c20.734375-35.910156 8.382812-81.992187-27.523438-102.726562zm-50.210937 187.21875c-.28125.441406-.5625.890625-.859375 1.320312-.320312.476563-.664062.933594-1 1.394532-.3125.417968-.617188.84375-.9375 1.25-.355469.449218-.726562.882812-1.09375 1.320312-.332031.390625-.664062.792969-1.007812 1.171875-.378907.429688-.78125.835938-1.179688 1.25-.351562.367188-.703125.738281-1.066406 1.09375-.414063.402344-.839844.789063-1.261719 1.171875-.378906.34375-.75.691406-1.128906 1.015625-.441407.382813-.894531.738281-1.347657 1.101563-.390624.304687-.777343.628906-1.171874.925781-.46875.351563-.957032.683594-1.4375 1.015625-.398438.285156-.792969.570312-1.210938.839844-.492188.328125-1.003906.628906-1.511719.9375-.414062.25-.820312.511718-1.242187.746094-.527344.304687-1.0625.578124-1.601563.855468-.417969.21875-.832031.449219-1.257812.65625-.550781.265625-1.117188.511719-1.683594.761719-.425781.183594-.839844.382813-1.269531.558594-.585938.242187-1.183594.449219-1.773438.671875-.425781.15625-.839844.320312-1.269531.46875-.617187.203125-1.25.382812-1.875.566406-.414063.125-.824219.261719-1.246094.375-.652343.175781-1.324219.316406-1.980469.464844-.402343.085937-.800781.195312-1.203124.277344-.707032.136718-1.425782.242187-2.136719.355468-.367188.054688-.734375.132813-1.109375.179688-.804688.109375-1.621094.175781-2.4375.246094-.289063.023437-.570313.0625-.859375.082031-1.101563.074219-2.214844.109375-3.335938.109375-6.589843 0-13.113281-1.320313-19.167969-3.839844-1.972656-.820312-3.890624-1.761719-5.753906-2.835938-.417968-.246093-.824218-.503906-1.234375-.757812-.296875-.183594-.605469-.359375-.898437-.546875-.429688-.277344-.839844-.570313-1.257813-.859375-.269531-.183594-.542969-.359375-.808593-.546875-.453126-.328125-.886719-.667969-1.332032-1.003906-.210937-.164063-.429687-.320313-.632812-.484375-.503906-.402344-.992188-.816406-1.480469-1.234375-.128906-.113281-.269531-.222657-.402344-.339844-.574219-.507813-1.136719-1.027344-1.6875-1.5625-.03125-.023437-.0625-.050781-.09375-.082031-6.429687-6.238282-11.09375-14.148438-13.484375-23.085938-1.730468-6.460937-2.164062-13.046875-1.347656-19.457031.007812-.09375.023438-.1875.035156-.277344.085938-.664062.195313-1.328125.3125-1.992187.027344-.195313.066406-.386719.101563-.578125.105469-.570313.222656-1.140625.351562-1.707031.058594-.265626.121094-.527344.183594-.792969.125-.503907.25-1 .386719-1.503907.089844-.3125.175781-.625.269531-.9375.136719-.449218.273437-.902343.417969-1.351562.117187-.347656.234375-.695312.359375-1.035156.144531-.421875.296875-.835938.457031-1.25.136719-.367188.289062-.734375.433594-1.097656.164062-.390626.328125-.78125.496094-1.171876.164062-.378906.339843-.753906.515624-1.128906.175782-.371094.351563-.742187.539063-1.113281.1875-.386719.390625-.765625.59375-1.148437.109375-.203126.21875-.410157.332031-.613282 5.554688 17.011719 17.15625 32.113282 33.835938 41.746094 11.363281 6.558594 24.304687 10.023438 37.421875 10.023438 5.324219 0 10.574219-.558594 15.671875-1.644532-.207032.347656-.421875.6875-.636719 1.027344zm56.085937-96.992188-27.457031 47.550782c0 .007812 0 .007812-.003906.011718l-.03125.054688c-8.929687 15.421875-25.640625 25-43.621094 25-8.742187 0-17.355469-2.3125-24.921875-6.679688-23.972656-13.839843-32.21875-44.601562-18.375-68.574218l27.457032-47.5625c8.925781-15.449219 25.648437-25.050782 43.65625-25.050782 8.734374 0 17.351562 2.308594 24.921874 6.675782 11.550782 6.667968 19.832032 17.503906 23.316407 30.503906 3.484375 12.996094 1.726562 26.515625-4.941407 38.070312zm0 0"/><path d="m515.269531 185.265625-31.449219-18.160156c-5.460937-3.152344-11.679687-4.8125-17.988281-4.8125-12.902343 0-24.910156 6.910156-31.332031 18.03125l-33.417969 57.875c-12.808593 22.1875-8.105469 49.746093 9.777344 66.605469l-104.042969 180.199218c-4.996094-1.488281-10.191406-2.285156-15.441406-2.285156-19.40625 0-37.460938 10.386719-47.113281 27.105469l-33.414063 57.875c-4.808594 8.328125-6.078125 18.058593-3.578125 27.390625 2.5 9.335937 8.46875 17.121094 16.792969 21.933594l31.453125 18.15625c5.460937 3.152343 11.679687 4.820312 17.984375 4.820312h.003906c12.90625 0 24.914063-6.914062 31.335938-18.035156l33.410156-57.878906c12.808594-22.1875 8.105469-49.746094-9.769531-66.605469l104.039062-180.199219c4.992188 1.488281 10.195313 2.285156 15.4375 2.285156 19.414063 0 37.464844-10.386718 47.121094-27.105468l33.40625-57.867188c9.960937-17.246094 4.027344-39.371094-13.214844-49.328125zm-198.664062 366.320313-33.414063 57.878906c-1.972656 3.410156-5.683594 5.53125-9.6875 5.53125-1.953125 0-3.796875-.492188-5.488281-1.46875l-31.453125-18.160156c-2.542969-1.46875-4.375-3.867188-5.148438-6.75-.769531-2.882813-.390624-5.871094 1.085938-8.421876l33.414062-57.875c5.199219-9.003906 14.953126-14.601562 25.460938-14.601562 5.089844 0 10.105469 1.34375 14.507812 3.882812.003907.003907.003907.003907.011719.003907 0 .007812 0 .007812.003907.007812 13.96875 8.070313 18.773437 26 10.707031 39.972657zm190.234375-329.492188-33.414063 57.867188c-5.199219 9.011718-14.960937 14.605468-25.464843 14.605468-5.089844 0-10.105469-1.347656-14.515626-3.890625-13.972656-8.066406-18.785156-26-10.710937-39.976562l33.410156-57.875c1.972657-3.414063 5.683594-5.535157 9.6875-5.535157 1.949219 0 3.796875.492188 5.488281 1.46875l31.449219 18.160157c5.308594 3.058593 7.128907 9.867187 4.070313 15.175781zm0 0"/><path d="m291.09375 368.273438c6.882812 0 12.5-5.609376 12.5-12.496094 0-6.882813-5.617188-12.5-12.5-12.5-6.886719 0-12.5 5.617187-12.5 12.5 0 6.886718 5.613281 12.496094 12.5 12.496094zm0 0"/></g></svg>