<svg height="682pt" viewBox="-90 -21 682 682.6663" width="682pt" xmlns="http://www.w3.org/2000/svg"><g fill-rule="evenodd"><path d="m488.210938 53.910156-120.472657-29.746094c-5.699219-1.414062-11.601562 1.339844-14.203125 6.601563l-50.914062 103.089844h-187.355469l-19.246094-33.148438c7.949219-8.152343 12.859375-19.285156 12.859375-31.546875 0-24.9375-20.28125-45.21875-45.21875-45.21875-3.621094 0-7.148437.4375-10.527344 1.25l-10.667968-18.847656c-3.398438-6.007812-11.027344-8.121094-17.03125-4.71875-6.011719 3.398438-8.125 11.027344-4.722656 17.03125l10.679687 18.867188c-8.003906 8.164062-12.949219 19.332031-12.949219 31.636718 0 24.9375 20.289063 45.222656 45.222656 45.222656 3.667969 0 7.226563-.449218 10.644532-1.277343l12.050781 20.75h-78.109375c-4.847656 0-9.253906 2.804687-11.3125 7.1875-2.0625 4.386719-1.402344 9.566406 1.695312 13.296875l205.792969 248.027344v152.378906c-42.050781 4.140625-79.398437 28.984375-99.402343 66.921875-2.042969 3.878906-1.910157 8.535156.355468 12.285156 2.261719 3.75 6.324219 6.046875 10.703125 6.046875h201.71875c6.898438 0 12.5-5.597656 12.5-12.5 0-2.398438-.679687-4.632812-1.84375-6.539062-20.097656-37.539063-57.242187-62.097657-99.03125-66.214844v-152.382813l33.683594-40.597656c4.402344-5.3125 3.671875-13.191406-1.640625-17.597656s-13.195312-3.675781-17.601562 1.636719l-26.941407 32.472656-123.457031-148.789063h55.59375c.007812 0 .023438.003907.03125.003907.015625 0 .027344-.003907.039062-.003907h126.320313c.015625 0 .027344.003907.042969.003907.011718 0 .023437-.003907.035156-.003907h64.851562l-32.660156 39.363281c-4.410156 5.3125-3.675781 13.195313 1.636719 17.597657 5.316406 4.410156 13.191406 3.675781 17.601563-1.636719l108.257812-130.472656c3.09375-3.730469 3.753906-8.910156 1.691406-13.296875-2.058594-4.382813-6.46875-7.1875-11.3125-7.1875h-95.097656l41.003906-83.011719 110.710938 27.335938c6.699218 1.660156 13.476562-2.4375 15.132812-9.136719 1.652344-6.703125-2.4375-13.476563-9.136718-15.132813zm-444.769532 15.25c0-11.148437 9.070313-20.21875 20.21875-20.21875 11.152344 0 20.226563 9.070313 20.226563 20.21875 0 11.152344-9.074219 20.21875-20.226563 20.21875-11.148437 0-20.21875-9.066406-20.21875-20.21875zm246.832032 89.695313-22.535157 45.632812h-111.457031l-26.492188-45.632812zm4.085937 456.144531h-154.863281c19.046875-22.523438 47.164062-35.875 77.429687-35.875 30.269531 0 58.386719 13.351562 77.433594 35.875zm-259.496094-456.144531h66.015625l26.492188 45.632812h-54.648438zm364.125 0-37.863281 45.632812h-65.507812l22.535156-45.632812zm0 0"/><path d="m272.914062 315.308594c0 6.882812 5.613282 12.5 12.5 12.5 6.882813 0 12.5-5.617188 12.5-12.5 0-6.886719-5.617187-12.5-12.5-12.5-6.886718 0-12.5 5.613281-12.5 12.5zm0 0"/></g></svg>