<svg height="682pt" viewBox="-21 -78 682.66669 682" width="682pt" xmlns="http://www.w3.org/2000/svg"><g fill-rule="evenodd"><path d="m627.5 124.640625c6.90625 0 12.5-5.597656 12.5-12.5v-103.058594c0-6.902343-5.59375-12.5-12.5-12.5h-615c-6.90625 0-12.5 5.597657-12.5 12.5v103.054688c0 6.902343 5.59375 12.5 12.5 12.5h27.390625v373.917969h-27.390625c-6.90625 0-12.5 5.601562-12.5 12.5 0 6.90625 5.59375 12.5 12.5 12.5h615c6.90625 0 12.5-5.59375 12.5-12.5 0-6.898438-5.59375-12.5-12.5-12.5h-27.390625v-373.914063zm-602.5-103.058594h590v78.054688h-590zm179.785156 476.972657c28.4375-32.328126 64.722656-51.816407 103.191406-55.1875h.023438c1.210938-.109376 2.425781-.195313 3.640625-.269532.136719-.011718.273437-.019531.414063-.03125 1.109374-.0625 2.222656-.105468 3.332031-.144531.222656-.003906.449219-.019531.671875-.023437 1.308594-.039063 2.628906-.058594 3.941406-.058594s2.632812.019531 3.941406.058594c.222656.003906.449219.019531.667969.023437 1.113281.039063 2.226563.082031 3.335937.144531.136719.011719.273438.019532.414063.03125 1.214844.074219 2.429687.160156 3.640625.269532h.015625c38.476563 3.367187 74.761719 22.855468 103.199219 55.1875zm52.425782-68.261719c-4.5-3.554688-8.582032-8.417969-11.992188-14.320313-10.902344-18.890625-15.046875-57.546875-14.476562-82.515625 10.203124 5.75 22.597656 13.6875 34.019531 22.433594 3.277343 2.507813 7.578125 3.238281 11.503906 1.949219 3.921875-1.289063 6.953125-4.433594 8.101563-8.398438 7.796874-26.945312 22.746093-57.691406 35.238281-77.042968 12.078125 19.503906 27.628906 50.253906 35.824219 77.375 1.179687 3.925781 4.222656 7.023437 8.132812 8.28125 3.902344 1.257812 8.179688.515624 11.441406-1.980469 11.488282-8.820313 23.976563-16.828125 34.253906-22.621094.570313 24.964844-3.570312 63.628906-14.476562 82.519531-3.410156 5.902344-7.496094 10.765625-11.992188 14.320313-13.289062-5.449219-26.972656-9.109375-40.917968-10.984375-.066406-.011719-.121094-.015625-.183594-.023438-3.476562-.464844-6.96875-.820312-10.476562-1.0625-.28125-.019531-.566407-.03125-.851563-.046875-1.375-.089843-2.75-.15625-4.128906-.210937-.425781-.015625-.84375-.035156-1.269531-.042969-1.648438-.054687-3.304688-.082031-4.964844-.082031-1.65625 0-3.3125.027344-4.960938.082031-.425781.007813-.847656.027344-1.269531.042969-1.378906.054687-2.753906.121094-4.132813.210937-.28125.015625-.566406.027344-.847656.046875-3.507812.242188-7.003906.597656-10.480468 1.0625-.058594.007813-.117188.011719-.175782.023438-13.945312 1.875-27.628906 5.535156-40.917968 10.984375zm317.898437 68.261719h-40.46875v-258.054688c0-17.5625-17.058594-31.300781-52.136719-41.996094-28.371094-8.652344-68.066406-14.890625-111.765625-17.558594-6.871093-.40625-12.816406 4.816407-13.238281 11.710938-.425781 6.890625 4.824219 12.820312 11.714844 13.238281 40.238281 2.460938 76.898437 8.03125 103.222656 15.695313 33.925781 9.867187 37.1875 18.898437 37.203125 18.910156v258.054688h-42.476563c-17.210937-23.738282-37.863281-42.761719-60.671874-56.371094 3.671874-4.046875 7.007812-8.640625 9.9375-13.710938 17.851562-30.921875 20.429687-94.082031 15.828124-116.796875-.738281-3.636719-3.054687-6.761719-6.324218-8.519531-3.273438-1.761719-7.152344-1.976562-10.597656-.589844-9.445313 3.800782-25.390626 12.550782-41.5625 23.566406-12.710938-33.851562-32.503907-68.421874-43.933594-83.015624-2.292969-2.921876-5.761719-4.679688-9.472656-4.785157-3.695313-.128906-7.277344 1.433594-9.738282 4.21875-13.148437 14.882813-32.566406 49.578125-44.824218 83.300781-16.039063-10.890624-31.800782-19.527343-41.148438-23.285156-3.441406-1.386718-7.328125-1.171875-10.59375.589844-3.265625 1.757812-5.585938 4.882812-6.324219 8.519531-4.605469 22.714844-2.019531 85.875 15.832031 116.796875 2.921876 5.070313 6.265626 9.664063 9.929688 13.710938-22.804688 13.609375-43.453125 32.632812-60.667969 56.371094h-42.472656l-.003906-257.976563c.019531-.082031 3.28125-9.117187 37.207031-18.988281 26.328125-7.65625 62.984375-13.234375 103.226562-15.695313 6.890626-.417969 12.136719-6.347656 11.714844-13.238281-.417968-6.886719-6.347656-12.140625-13.242187-11.710938-43.699219 2.667969-83.386719 8.90625-111.761719 17.558594-35.078125 10.695313-52.132812 24.433594-52.132812 41.996094v258.054688h-40.476563v-373.914063h510.21875zm0 0"/><path d="m320 204.421875c6.882812 0 12.5-5.613281 12.5-12.5s-5.617188-12.5-12.5-12.5-12.5 5.613281-12.5 12.5 5.617188 12.5 12.5 12.5zm0 0"/></g></svg>