<svg height="681pt" viewBox="-21 -44 681.33541 681" width="681pt" xmlns="http://www.w3.org/2000/svg"><g fill-rule="evenodd"><path d="m609.042969 445.808594 29.484375-153.960938c1.296875-6.769531-3.144532-13.304687-9.90625-14.601562-6.78125-1.300782-13.304688 3.144531-14.601563 9.910156l-24.007812 125.382812c-5.113281-2.765624-10.964844-4.335937-17.175781-4.335937h-109.054688c-19.984375 0-36.242188 16.257813-36.242188 36.242187 0 16.335938 10.863282 30.175782 25.746094 34.6875l-25.867187 96.28125c-1.789063 6.652344 2.15625 13.496094 8.808593 15.28125 1.085938.292969 2.175782.429688 3.246094.429688 5.507813 0 10.546875-3.667969 12.042969-9.238281l27.1875-101.199219h78.117187l27.1875 101.199219c1.496094 5.570312 6.535157 9.238281 12.039063 9.238281 1.070313 0 2.160156-.136719 3.246094-.429688 6.652343-1.785156 10.597656-8.628906 8.808593-15.28125l-25.78125-95.992187c14.972657-4.066406 26.125-17.511719 26.722657-33.613281zm-145.261719-12.65625h109.054688c6.226562 0 11.289062 5.066406 11.289062 11.292968 0 6.222657-5.0625 11.292969-11.289062 11.292969h-109.054688c-6.222656 0-11.292969-5.066406-11.292969-11.292969 0-6.226562 5.066407-11.292968 11.292969-11.292968zm0 0"/><path d="m185.46875 479.132812c14.878906-4.511718 25.746094-18.351562 25.746094-34.6875 0-19.984374-16.257813-36.242187-36.242188-36.242187h-109.054687c-6.214844 0-12.0625 1.570313-17.179688 4.335937l-24.003906-125.382812c-1.296875-6.769531-7.835937-11.214844-14.601563-9.910156-6.769531 1.296875-11.203124 7.832031-9.90625 14.601562l29.480469 153.960938c.601563 16.101562 11.75 29.546875 26.730469 33.613281l-25.789062 95.988281c-1.789063 6.65625 2.160156 13.5 8.8125 15.285156 1.085937.289063 2.171874.429688 3.246093.429688 5.5 0 10.539063-3.667969 12.035157-9.238281l27.1875-101.199219h78.121093l27.1875 101.199219c1.496094 5.570312 6.535157 9.238281 12.039063 9.238281 1.070312 0 2.160156-.136719 3.246094-.429688 6.652343-1.785156 10.601562-8.628906 8.808593-15.285156zm-119.550781-45.980468h109.054687c6.222656 0 11.289063 5.066406 11.289063 11.292968 0 6.222657-5.066407 11.292969-11.289063 11.292969h-109.054687c-6.230469 0-11.296875-5.066406-11.296875-11.292969 0-6.226562 5.066406-11.292968 11.296875-11.292968zm0 0"/><path d="m394.851562 568.136719c-38.859374-24.855469-63-73.375-63-126.625 0-51.890625 22.929688-99.273438 60.054688-124.664063h57.9375c6.890625 0 12.476562-5.589844 12.476562-12.476562 0-6.890625-5.585937-12.472656-12.476562-12.472656h-117.992188v-120.777344c9.484376 6.121094 20.515626 9.574218 32.003907 9.574218 17 0 33.019531-7.535156 44.472656-20.171874 11.453125 12.636718 27.476563 20.171874 44.476563 20.171874 17.003906 0 33.027343-7.535156 44.480468-20.167968 11.453125 12.632812 27.46875 20.167968 44.472656 20.167968 23.894532 0 45.839844-14.867187 55.90625-37.867187 2.707032-6.175781.015626-13.382813-6.070312-16.273437l-106.253906-50.472657c-6.21875-2.945312-13.664063-.304687-16.617188 5.921875-2.957031 6.222656-.3125 13.664063 5.910156 16.617188l93.695313 44.503906c-6.84375 7.894531-16.4375 12.617188-26.566406 12.617188-13.980469 0-26.953125-9-33.050781-22.925782-1.988282-4.535156-6.46875-7.46875-11.425782-7.46875-4.957031 0-9.441406 2.933594-11.429687 7.46875-6.09375 13.925782-19.066407 22.925782-33.050781 22.925782-13.976563 0-26.949219-9-33.046876-22.925782-1.984374-4.535156-6.472656-7.46875-11.429687-7.46875-4.953125 0-9.441406 2.933594-11.429687 7.46875-6.09375 13.925782-19.0625 22.925782-33.042969 22.925782s-26.953125-9-33.050781-22.925782c-.011719-.023437-.023438-.042968-.039063-.066406-.214844-.480469-.457031-.941406-.730469-1.390625-.054687-.085937-.109375-.179687-.167968-.269531-.285157-.449219-.601563-.882813-.945313-1.292969-.058594-.066406-.121094-.132813-.183594-.199219-.296875-.339844-.621093-.667968-.957031-.976562-.089844-.082032-.183594-.167969-.277344-.246094-.398437-.347656-.816406-.667969-1.257812-.960938-.058594-.035156-.121094-.070312-.179688-.105468-.402344-.261719-.824218-.488282-1.257812-.699219-.097656-.046875-.1875-.097656-.285156-.140625-.5-.222656-1.003907-.425781-1.53125-.585938-.035157-.007812-.066407-.015624-.101563-.023437-.484375-.140625-.976563-.25-1.476563-.332031-.132812-.019532-.257812-.042969-.390624-.058594-.542969-.074219-1.085938-.121094-1.648438-.121094-.003906 0-.003906 0-.003906 0-.554688 0-1.105469.046875-1.648438.121094-.125.015625-.257812.039062-.382812.058594-.507813.082031-1 .191406-1.480469.332031-.035156.007813-.070313.015625-.105469.023437-.523437.160157-1.03125.363282-1.523437.585938-.101563.042969-.195313.09375-.292969.140625-.433594.210937-.847656.4375-1.246094.691406-.066406.039063-.132812.078125-.191406.117188-.4375.289062-.851562.609375-1.246094.949219-.105468.085937-.195312.175781-.289062.265624-.332032.296876-.644532.617188-.9375.949219-.066406.078125-.132813.148438-.203125.21875-.339844.40625-.648438.835938-.933594 1.28125-.066406.097657-.125.195313-.183594.292969-.261719.433594-.5.882812-.707031 1.347656-.019531.03125-.035156.066406-.050781.09375-6.097657 13.929688-19.070313 22.925782-33.050781 22.925782-13.980469 0-26.953126-8.996094-33.050782-22.925782-1.988281-4.535156-6.472656-7.46875-11.429687-7.46875-4.953125 0-9.4375 2.933594-11.425781 7.46875-6.097657 13.929688-19.070313 22.925782-33.046876 22.925782-13.980468 0-26.953124-8.996094-33.050781-22.925782-1.988281-4.535156-6.476562-7.46875-11.425781-7.46875-4.957031 0-9.441406 2.933594-11.429688 7.46875-6.097656 13.929688-19.070312 22.925782-33.050781 22.925782-10.125 0-19.726562-4.722657-26.5625-12.617188l248.949219-118.25 65.09375 30.921875c6.226562 2.953125 13.667969.304687 16.621094-5.917969 2.960937-6.222656.308594-13.664062-5.914063-16.621094l-70.445312-33.460937c-3.390625-1.613281-7.3125-1.613281-10.707031 0l-266.867188 126.757813c-6.089844 2.890624-8.777344 10.097656-6.074219 16.273437 10.070313 23 32.011719 37.867187 55.90625 37.867187 17.003907 0 33.023438-7.53125 44.480469-20.167968 11.449219 12.636718 27.46875 20.167968 44.472656 20.167968 17.007813 0 33.027344-7.53125 44.476563-20.167968 11.453125 12.636718 27.472656 20.167968 44.480469 20.167968 11.484374 0 22.519531-3.449218 32.003906-9.574218v120.777344h-117.992188c-6.890625 0-12.476562 5.582031-12.476562 12.472656 0 6.886718 5.585937 12.476562 12.476562 12.476562h57.933594c37.128906 25.390625 60.058594 72.777344 60.058594 124.664063 0 53.25-24.144532 101.773437-63.007813 126.632812-5.804687 3.707031-7.5 11.421875-3.789062 17.230469 3.714843 5.800781 11.429687 7.5 17.234375 3.785156 27.953125-17.878906 49.46875-45.816406 62.035156-78.839844 12.570312 33.023438 34.078125 60.960938 62.03125 78.839844 2.085938 1.332032 4.414062 1.964844 6.71875 1.964844 4.113281 0 8.136719-2.03125 10.519531-5.75 3.707031-5.808594 2.011719-13.523438-3.792969-17.238281zm-109.976562-251.289063h69.003906c-14.726562 15.667969-26.457031 34.707032-34.503906 55.851563-8.042969-21.144531-19.78125-40.183594-34.5-55.851563zm0 0"/><path d="m434.90625 78.417969c6.871094 0 12.476562-5.605469 12.476562-12.476563s-5.605468-12.476562-12.476562-12.476562-12.476562 5.605468-12.476562 12.476562 5.605468 12.476563 12.476562 12.476563zm0 0"/></g></svg>