<svg height="682pt" viewBox="-21 -28 682.66669 682" width="682pt" xmlns="http://www.w3.org/2000/svg"><g fill-rule="evenodd"><path d="m636.523438 426.191406c-.75-2.417968-1.621094-4.78125-2.597657-7.089844-.976562-2.304687-2.066406-4.554687-3.253906-6.742187-12.5625-23.09375-36.574219-39.089844-64.359375-40.332031v-105.152344c0-42.554688-34.617188-77.179688-77.175781-77.179688h-48.675781v-53.652343c6.097656-2.394531 11.65625-6.507813 16.085937-12.0625 8.234375-10.339844 12.480469-25.039063 12.625-43.703125.3125-40.300782-40.125-75.886719-41.847656-77.382813-3.789063-3.289062-9.183594-3.992187-13.691407-1.792969-4.507812 2.214844-7.261718 6.902344-6.988281 11.914063 1.210938 22.160156-4.074219 29.355469-10.199219 37.6875-5.625 7.652344-12.621093 17.171875-12.992187 35.117187-.441406 20.957032 7.128906 33.179688 13.554687 39.734376 5.960938 6.089843 12.640626 9.316406 18.453126 11.03125v53.109374h-82.960938v-53.652343c6.097656-2.394531 11.660156-6.507813 16.085938-12.0625 8.234374-10.339844 12.476562-25.039063 12.625-43.703125.308593-40.300782-40.125-75.886719-41.84375-77.382813-3.789063-3.289062-9.1875-3.992187-13.695313-1.792969-4.503906 2.214844-7.257813 6.902344-6.984375 11.914063 1.210938 22.160156-4.078125 29.351563-10.203125 37.6875-5.625 7.652344-12.625 17.171875-12.996094 35.117187-.433593 20.957032 7.132813 33.179688 13.558594 39.734376 5.960937 6.089843 12.640625 9.316406 18.453125 11.03125v53.109374h-82.960938v-53.652343c6.101563-2.394531 11.664063-6.507813 16.089844-12.0625 8.234375-10.339844 12.476563-25.039063 12.621094-43.703125.308594-40.300782-40.121094-75.886719-41.84375-77.382813-3.789062-3.289062-9.183594-3.992187-13.691406-1.792969-4.507813 2.214844-7.261719 6.902344-6.988282 11.914063 1.210938 22.160156-4.078124 29.355469-10.199218 37.6875-5.625 7.652344-12.621094 17.171875-12.992188 35.117187-.433594 20.957032 7.128906 33.179688 13.554688 39.734376 5.960937 6.089843 12.640625 9.316406 18.449218 11.03125v53.109374h-48.675781c-1.3125 0-2.617187.035157-3.914062.097657-.3125.019531-.621094.054687-.933594.074219-.984375.058593-1.972656.128906-2.949219.226562-.292968.027344-.585937.070312-.878906.105469-.996094.113281-1.992188.230469-2.972656.382812-.226563.027344-.441406.078125-.660156.109375-1.058594.171875-2.113282.351563-3.160157.566406-.128906.027344-.261719.058594-.390625.089844-1.136718.234375-2.265625.492188-3.382812.78125-.035156.007813-.066406.019532-.101563.023438-28.152343 7.261718-50.160156 29.996094-56.183593 58.847656-.023438.128906-.058594.253906-.085938.386719-.191406.945312-.351562 1.902343-.515625 2.867187-.050781.320313-.117187.644532-.164063.964844-.117187.765625-.203124 1.542969-.296874 2.320312-.0625.511719-.136719 1.019532-.191407 1.53125-.074219.722657-.113281 1.457032-.167969 2.1875-.039062.558594-.09375 1.113282-.125 1.679688l-.527343 10.382812.425781.101563v98.605469c-35.679688 1.59375-65.132812 27.523437-72.117188 61.550781-1.027343 5.019531-1.570312 10.214844-1.570312 15.539063v163.410156c0 6.90625 5.59375 12.5 12.5 12.5h257.5c6.90625 0 12.5-5.59375 12.5-12.5 0-6.902344-5.59375-12.5-12.5-12.5h-245v-107.609375c8.246094-2.691407 16.070312-6.875 23.710938-10.972657 10.453124-5.609374 20.332031-10.902343 28.746093-10.902343 8.40625 0 18.285157 5.292969 28.738281 10.902343 12.714844 6.816407 25.867188 13.867188 40.558594 13.867188 14.6875 0 27.835938-7.050781 40.554688-13.867188 10.457031-5.609374 20.332031-10.902343 28.742187-10.902343 8.40625 0 18.285157 5.292969 28.746094 10.902343 12.710937 6.816407 25.863281 13.867188 40.550781 13.867188 14.691406 0 27.839844-7.050781 40.554688-13.867188 10.460937-5.609374 20.332031-10.902343 28.746094-10.902343 8.40625 0 18.285156 5.292969 28.742187 10.902343 12.71875 6.816407 25.863281 13.867188 40.554687 13.867188 14.6875 0 27.84375-7.050781 40.554688-13.867188 10.457031-5.609374 20.335938-10.902343 28.742188-10.902343 8.414062 0 18.289062 5.292969 28.746093 10.902343 12.714844 6.816407 25.863281 13.867188 40.554688 13.867188 14.6875 0 27.84375-7.050781 40.558593-13.871094 4.078126-2.183594 8.054688-4.316406 11.894532-6.113281v124.699219h-244.996094c-6.90625 0-12.5 5.597656-12.5 12.5 0 6.90625 5.59375 12.5 12.5 12.5h257.5c6.90625 0 12.5-5.59375 12.5-12.5v-163.410156c0-7.980469-1.214844-15.679688-3.476562-22.925782zm-228.078126-339.855468c.207032-10.03125 3.359376-14.324219 8.140626-20.828126 4.359374-5.929687 9.335937-12.699218 12.382812-23.527343 8.078125 11.171875 15.304688 25.011719 15.203125 38.105469-.179687 23.042968-8.269531 33.359374-16.210937 33.359374-1.835938 0-8.199219-.390624-13.097657-5.382812-4.464843-4.558594-6.621093-11.867188-6.417969-21.726562zm-107.957031 0c.207031-10.03125 3.359375-14.324219 8.140625-20.828126 4.359375-5.929687 9.335938-12.699218 12.382813-23.527343 8.074219 11.171875 15.300781 25.011719 15.199219 38.105469-.175782 23.042968-8.265626 33.359374-16.210938 33.359374-1.835938 0-8.199219-.390624-13.09375-5.382812-4.464844-4.558594-6.625-11.867188-6.417969-21.726562zm-107.964843 0c.210937-10.03125 3.367187-14.324219 8.144531-20.828126 4.355469-5.929687 9.335937-12.699218 12.382812-23.527343 8.078125 11.171875 15.304688 25.011719 15.199219 38.105469-.171875 23.042968-8.269531 33.359374-16.210938 33.359374-1.835937 0-8.203124-.390624-13.09375-5.382812-4.460937-4.558594-6.625-11.867188-6.421874-21.726562zm296.613281 128.359374c28.769531 0 52.175781 23.410157 52.175781 52.179688v.925781c-2.453125-1.25-4.960938-2.589843-7.507812-3.957031-12.71875-6.824219-25.867188-13.875-40.558594-13.875-14.6875 0-27.835938 7.050781-40.554688 13.875-10.457031 5.605469-20.332031 10.902344-28.742187 10.902344-8.410157 0-18.285157-5.296875-28.746094-10.902344-12.710937-6.824219-25.863281-13.875-40.554687-13.875-14.6875 0-27.835938 7.050781-40.554688 13.875-10.457031 5.605469-20.335938 10.902344-28.742188 10.902344s-18.285156-5.296875-28.742187-10.902344c-12.71875-6.824219-25.867187-13.875-40.554687-13.875-14.691407 0-27.84375 7.050781-40.554688 13.875-10.457031 5.605469-20.335938 10.902344-28.746094 10.902344s-18.285156-5.296875-28.742187-10.902344c-5.820313-3.125-11.765625-6.316406-17.941407-8.847656.078126-.320313.140626-.636719.222657-.953125.027343-.117188.058593-.234375.089843-.347657 4.96875-19.03125 20.441407-33.863281 39.832032-37.898437.144531-.03125.296875-.058594.449218-.089844.632813-.125 1.28125-.238281 1.921876-.347656.242187-.03125.46875-.070313.710937-.105469.574219-.082031 1.15625-.15625 1.738281-.21875.269532-.03125.53125-.058594.800782-.089844.589843-.054687 1.179687-.097656 1.777343-.132812.242188-.019531.488281-.039062.738281-.046875.832032-.039063 1.671876-.0625 2.515626-.0625h338.269531zm102.152343 244.714844c-10.453124 5.605469-20.332031 10.902344-28.746093 10.902344-8.40625 0-18.28125-5.292969-28.738281-10.902344-12.714844-6.816406-25.867188-13.867187-40.558594-13.867187-14.6875 0-27.835938 7.050781-40.554688 13.867187-10.457031 5.605469-20.332031 10.902344-28.742187 10.902344-8.410157 0-18.285157-5.292969-28.746094-10.902344-12.710937-6.816406-25.863281-13.867187-40.554687-13.867187-14.6875 0-27.835938 7.050781-40.554688 13.867187-10.457031 5.609375-20.335938 10.902344-28.742188 10.902344s-18.285156-5.292969-28.742187-10.902344c-12.71875-6.816406-25.867187-13.867187-40.554687-13.867187-14.691407 0-27.84375 7.050781-40.554688 13.867187-10.457031 5.605469-20.335938 10.902344-28.746094 10.902344s-18.285156-5.292969-28.742187-10.902344c-12.714844-6.816406-25.863281-13.867187-40.554688-13.867187-14.6875 0-27.839843 7.050781-40.558593 13.867187-4.078126 2.1875-8.054688 4.320313-11.894532 6.113282v-16.40625c0-7.195313 1.460938-14.054688 4.105469-20.292969 7.929687-18.722657 26.492187-31.886719 48.070313-31.886719h192.820312c6.90625 0 12.5-5.59375 12.5-12.5 0-6.902344-5.59375-12.5-12.5-12.5h-171.3125v-90.019531c2.453125 1.25 4.953125 2.582031 7.507812 3.957031 12.714844 6.816406 25.867188 13.867188 40.558594 13.867188 14.6875 0 27.835938-7.050782 40.554688-13.867188 10.457031-5.613281 20.332031-10.90625 28.742187-10.90625 8.40625 0 18.285157 5.292969 28.746094 10.90625 12.710937 6.816406 25.863281 13.867188 40.550781 13.867188 14.691406 0 27.839844-7.050782 40.554688-13.867188 10.460937-5.613281 20.332031-10.90625 28.746094-10.90625 8.40625 0 18.285156 5.292969 28.742187 10.90625 12.71875 6.816406 25.863281 13.867188 40.554687 13.867188 14.6875 0 27.84375-7.050782 40.554688-13.867188 10.457031-5.613281 20.335938-10.90625 28.742188-10.90625 8.414062 0 18.285156 5.292969 28.746093 10.90625 6.25 3.347656 12.65625 6.761719 19.320313 9.375v76.6875h-171.308594c-6.90625 0-12.5 5.597656-12.5 12.5 0 6.90625 5.59375 12.5 12.5 12.5h192.820312c.054688 0 .105469.003906.15625.003906.84375 0 1.679688.019532 2.515626.066406.359374.019532.703124.050782 1.0625.078126.523437.039062 1.054687.066406 1.574218.121093.40625.039063.8125.101563 1.222656.152344.457032.058594.917969.105469 1.375.179687.414063.0625.828126.144532 1.234376.21875.445312.078126.886718.148438 1.324218.234376.425782.089843.839844.191406 1.265625.289062.414063.097656.832031.183594 1.246094.289062.429687.109376.851563.238282 1.277344.359376.394531.113281.796875.214843 1.183593.335937.429688.132813.84375.285156 1.269532.425781.378906.132813.765625.253906 1.144531.390625.414063.152344.816406.324219 1.226563.484375.382812.144532.761718.289063 1.132812.449219.402344.164063.792969.351563 1.1875.53125.375.167969.75.328125 1.117188.503906.390624.183594.773437.390625 1.15625.589844.363281.179687.730468.363281 1.085937.558594.382813.203125.75.421875 1.128906.636719.351563.203124.703125.398437 1.050781.605468.367188.226563.726563.460938 1.09375.695313.335938.21875.679688.429687 1.019532.652343.355468.242188.699218.496094 1.050781.742188.328125.234375.664063.464844.988281.703125.34375.253906.667969.523437 1.007813.78125.320312.253906.648437.503906.960937.761719.328125.265625.640625.542968.957032.820312.3125.269532.628906.535156.9375.808594.308593.28125.605468.574219.914062.863281.296875.28125.605469.5625.898438.855469.292968.292969.574218.59375.863281.898438.289062.296874.582031.59375.863281.902343.273438.300781.542969.621094.8125.925781.277344.320313.554688.632813.828125.957032.257813.3125.507813.636718.761719.957031.265625.332031.535156.664063.785156 1.003906.246094.324219.480469.65625.714844.984375.25.351563.503906.695313.746094 1.050782.226562.332031.441406.671874.660156 1.011718.238281.359375.472656.722656.703125 1.09375.210937.335938.40625.6875.605469 1.035156.21875.375.445312.75.65625 1.132813.1875.351563.367187.707031.554687 1.058594.199219.394531.410156.78125.601563 1.179687.175781.359375.335937.71875.5 1.082032.1875.402343.378906.804687.554687 1.214843.15625.367188.296875.738281.445313 1.109375.167968.414063.339843.824219.496093 1.242188.136719.378906.261719.753906.390625 1.128906.144532.429688.296875.855469.441406 1.285156.117188.375.222657.761719.335938 1.140625.125.441407.257812.875.375 1.320313.097656.386718.191406.769531.28125 1.160156.109375.449219.21875.894531.3125 1.347656.078125.390625.152344.789063.226562 1.179688.082032.457031.171876.910156.242188 1.375.066406.394531.113281.796875.167969 1.195312.0625.464844.132812.929688.179687 1.398438.042969.398437.074219.808594.109375 1.214844.039063.472656.078125.941406.105469 1.417968.023438.410156.035156.820313.050781 1.230469.007813.355469.019531.714844.023438 1.078125-8.238281 2.691406-16.054688 6.878906-23.691407 10.972656zm0 0"/><path d="m320 600.027344c-6.882812 0-12.5 5.613281-12.5 12.5 0 6.886718 5.617188 12.5 12.5 12.5s12.5-5.613282 12.5-12.5c0-6.886719-5.617188-12.5-12.5-12.5zm0 0"/><path d="m320 371.9375c-6.882812 0-12.5 5.617188-12.5 12.5 0 6.886719 5.617188 12.5 12.5 12.5s12.5-5.613281 12.5-12.5c0-6.882812-5.617188-12.5-12.5-12.5zm0 0"/></g></svg>