<svg height="512pt" viewBox="-51 0 512 512" width="512pt" xmlns="http://www.w3.org/2000/svg"><path d="m409.199219 56.699219c0-31.300781-25.398438-56.699219-56.699219-56.699219h-295.800781c-31.300781 0-56.699219 25.398438-56.699219 56.699219v398.601562c0 31.300781 25.398438 56.699219 56.699219 56.699219h295.902343c31.296876 0 56.699219-25.398438 56.699219-56.699219v-325.402343zm-225.800781-36.699219v43.601562c0 5.597657-4.597657 10.199219-10.199219 10.199219h-96.300781c-5.597657 0-10.199219-4.601562-10.199219-10.199219v-43.601562zm169.101562 472h-295.800781c-20.199219 0-36.699219-16.5-36.699219-36.699219v-315.402343h144.601562c5.5 0 10-4.5 10-10s-4.5-10-10-10h-144.601562v-63.199219c0-16.800781 11.300781-30.898438 26.699219-35.300781v42.300781c0 16.699219 13.5 30.199219 30.199219 30.199219h96.300781c16.601562 0 30.199219-13.5 30.199219-30.199219v-43.699219h149.203124c20.199219 0 36.699219 16.5 36.699219 36.699219v63.199219h-144.699219c-5.5 0-10 4.5-10 10s4.5 10 10 10h144.597657v315.402343c0 20.199219-16.5 36.699219-36.699219 36.699219zm0 0"/><path d="m339 73.601562h20.300781c5.5 0 10-4.5 10-10s-4.5-10-10-10h-20.300781c-5.5 0-10 4.5-10 10 0 5.597657 4.5 10 10 10zm0 0"/><path d="m286.398438 73.601562h20.300781c5.5 0 10-4.5 10-10s-4.5-10-10-10h-20.300781c-5.5 0-10 4.5-10 10 0 5.597657 4.402343 10 10 10zm0 0"/><path d="m233.699219 73.601562h20.300781c5.5 0 10-4.5 10-10s-4.5-10-10-10h-20.300781c-5.5 0-10 4.5-10 10 0 5.597657 4.5 10 10 10zm0 0"/><path d="m326.699219 313.601562v-.101562c-1.199219-66.300781-55.5-119.800781-122.097657-119.800781-67.101562 0-121.800781 54.402343-122.101562 121.5v.101562.5c0 67.300781 54.800781 122.097657 122.101562 122.097657 67.296876 0 122.097657-54.898438 122.097657-122.199219 0-.097657 0-.199219 0-.199219 0-.699219 0-1.300781 0-1.898438zm-20.199219 8.097657c0 .402343 0 .800781-.101562 1.199219 0 .5-.097657.902343-.097657 1.402343 0 .398438-.101562.800781-.101562 1.199219 0 .5-.097657.898438-.097657 1.398438 0 .402343-.101562.800781-.101562 1.203124-.101562.5-.101562.898438-.199219 1.398438-.101562.398438-.101562.800781-.199219 1.199219-.101562.5-.101562.902343-.203124 1.300781-.097657.398438-.097657.800781-.199219 1.101562-.097657.398438-.199219.898438-.199219 1.296876-.101562.402343-.101562.800781-.199219 1.101562-.101562.398438-.199219.898438-.300781 1.300781-.101562.398438-.199219.800781-.199219 1.097657-.101562.402343-.199219.902343-.300781 1.300781-.101562.402343-.199219.699219-.300781 1.101562-.097657.398438-.199219.898438-.300781 1.300781-.097657.398438-.199219.699219-.296876 1.097657-.101562.402343-.203124.902343-.402343 1.300781-.097657.398438-.199219.699219-.300781 1.101562-.097657.398438-.296876.898438-.398438 1.296876-.101562.402343-.199219.703124-.398438 1.101562-.101562.398438-.300781.800781-.402343 1.300781-.097657.398438-.300781.699219-.398438 1.097657-.101562.402343-.300781.800781-.5 1.300781-.101562.402343-.300781.699219-.402343 1-.199219.402343-.296876.800781-.5 1.199219-.097657.300781-.296876.703124-.398438 1-.199219.402343-.300781.800781-.5 1.203124-.101562.296876-.300781.699219-.398438 1-.203124.398438-.402343.796876-.5 1.199219-.203124.300781-.300781.699219-.5 1-.203124.398438-.402343.800781-.601562 1.199219-.199219.300781-.300781.699219-.5 1-.199219.398438-.398438.800781-.601562 1.199219-.199219.300781-.296876.601562-.5 1-.199219.402343-.398438.800781-.597657 1.199219-.199219.300781-.300781.601562-.5.902343-.199219.398438-.402343.800781-.699219 1.199219-.203124.300781-.402343.601562-.5.898438-.203124.402343-.5.800781-.703124 1.203124-.199219.296876-.296876.5-.5.796876-.296876.402343-.5.800781-.796876 1.203124-.101562.199219-.300781.5-.402343.699219-1 1.5-2.097657 3.097657-3.199219 4.5-.199219.199219-.300781.5-.5.699219-.300781.398438-.601562.699219-.800781 1.101562-.199219.296876-.398438.597657-.597657.796876-.300781.300781-.5.703124-.800781 1-.199219.300781-.5.601562-.699219.902343-.300781.300781-.601562.699219-.800781 1s-.5.597657-.699219.898438c-.300781.300781-.601562.601562-.800781 1-.300781.300781-.5.601562-.800781.902343-.300781.296876-.601562.597657-.898438.898438-.300781.300781-.5.601562-.800781.898438-.300781.300781-.601562.601562-.902343.902343-.296876.300781-.5.597657-.796876.800781-.300781.296876-.601562.597657-.902343.898438s-.597657.601562-.898438.800781c-.300781.300781-.601562.597657-.902343.800781-.296876.296876-.597657.5-.898438.796876-.300781.300781-.601562.5-.898438.800781-.300781.300781-.601562.5-.902343.800781s-.597657.5-.898438.800781-.601562.5-.902343.800781c-.296876.296876-.597657.5-.898438.796876-.300781.300781-.601562.5-.898438.800781-.300781.300781-.601562.5-1 .699219-.300781.203124-.601562.5-1 .703124-.300781.199219-.601562.5-1 .699219-.300781.199219-.703124.5-1 .699219-.300781.199219-.703124.5-1 .699219-.300781.199219-.703124.5-1 .699219-.300781.203124-.703124.5-1 .703124-.300781.199219-.703124.398438-1 .699219-.300781.199219-.703124.398438-1 .699219-.300781.199219-.703124.398438-1 .601562-.300781.199219-.703124.398438-1 .597657-.402343.199219-.703124.402343-1.101562.601562-.300781.199219-.699219.398438-1 .597657-.398438.203124-.699219.402343-1.101562.601562-.398438.199219-.699219.398438-1.097657.601562-.402343.199219-.699219.398438-1.101562.597657-.398438.199219-.699219.402343-1.097657.5-.402343.199219-.703124.402343-1.101562.601562s-.699219.398438-1.101562.5c-.398438.199219-.796876.398438-1.097657.5-.402343.199219-.699219.300781-1.101562.5-.398438.199219-.800781.300781-1.097657.5-.402343.199219-.703124.300781-1.101562.5s-.800781.300781-1.199219.5c-.402343.097657-.699219.300781-1.101562.398438-.398438.199219-.800781.300781-1.199219.402343-.398438.097657-.800781.296876-1.101562.398438-.398438.101562-.796876.300781-1.199219.398438-.398438.101562-.800781.300781-1.097657.402343-.402343.097657-.800781.300781-1.203124.398438-.398438.101562-.796876.199219-1.097657.402343-.402343.097657-.800781.199219-1.199219.398438-.402343.101562-.800781.199219-1.101562.300781-.398438.097657-.800781.199219-1.300781.300781-.398438.097657-.800781.199219-1.199219.296876-.398438.101562-.800781.203124-1.300781.300781-.398438.101562-.800781.199219-1.199219.300781s-.898438.199219-1.300781.300781c-.398438.097657-.800781.199219-1.199219.199219-.398438.101562-.898438.199219-1.300781.300781-.398438.097657-.800781.097657-1.199219.199219s-.898438.101562-1.300781.199219c-.398438.101562-.800781.101562-1.199219.199219-.5.101562-.898438.101562-1.398438.203124-.402343.097657-.800781.097657-1.101562.199219-.5.097657-.898438.097657-1.398438.199219-.402343 0-.800781.101562-1.101562.101562-.5 0-1 .097657-1.5.097657-.398438 0-.699219.101562-1.101562.101562-.5 0-1 .097657-1.5.097657-.296876 0-.699219 0-1 .101562-.597657 0-1.097657 0-1.699219.101562-.300781 0-.597657 0-.898438 0-.902343 0-1.699219 0-2.601562 0-1.5 0-3 0-4.5-.101562-.199219 0-.300781 0-.5 0-1.398438-.101562-2.800781-.199219-4.199219-.300781-.199219 0-.398438 0-.699219-.097657-1.402343-.101562-2.699219-.300781-4.101562-.5-.199219 0-.5-.101562-.699219-.101562-1.300781-.199219-2.699219-.398438-4-.699219-.199219 0-.398438-.101562-.601562-.101562-1.398438-.300781-2.699219-.5-4.097657-.898438-.101562 0-.199219 0-.300781-.101562-1.398438-.300781-2.699219-.699219-4.101562-1.097657-.097657 0-.097657 0-.199219-.101562-1.300781-.398438-2.699219-.800781-4-1.199219-.199219-.101562-.300781-.101562-.5-.199219-1.300781-.402343-2.5-.902343-3.800781-1.300781-.199219-.101562-.398438-.199219-.597657-.199219-1.199219-.5-2.5-1-3.699219-1.5-.203124-.101562-.402343-.203124-.601562-.300781-1.199219-.5-2.398438-1.101562-3.601562-1.699219-.097657-.101562-.296876-.101562-.398438-.203124-1.300781-.597657-2.5-1.296876-3.699219-1.898438-1.199219-.699219-2.5-1.398438-3.699219-2.101562-.101562-.097657-.203124-.097657-.300781-.199219-1.199219-.699219-2.300781-1.398438-3.402343-2.199219-.199219-.101562-.296876-.199219-.5-.300781-1.097657-.699219-2.199219-1.5-3.199219-2.300781-.199219-.097657-.300781-.199219-.5-.398438-1.097657-.800781-2.097657-1.601562-3.097657-2.398438-.101562-.101562-.300781-.203124-.402343-.300781-1.097657-.800781-2.097657-1.699219-3.097657-2.601562-.101562-.097657-.101562-.097657-.203124-.199219-1.097657-.898438-2.097657-1.898438-3.097657-2.800781-1-1-2-1.898438-2.902343-2.898438-.097657-.101562-.199219-.199219-.296876-.300781-.902343-1-1.800781-1.898438-2.703124-2.898438-.097657-.101562-.296876-.300781-.398438-.402343-.898438-1-1.699219-2-2.5-3-.101562-.199219-.300781-.300781-.398438-.5-.800781-1-1.601562-2.097657-2.402343-3.097657-.097657-.101562-.199219-.300781-.300781-.402343-.796876-1.097657-1.597657-2.199219-2.398438-3.398438 0 0 0-.101562-.101562-.101562-.796876-1.199219-1.5-2.300781-2.296876-3.5 0-.097657-.101562-.199219-.101562-.199219-.699219-1.199219-1.398438-2.300781-2.101562-3.5-.097657-.199219-.199219-.300781-.296876-.5-.601562-1.199219-1.203124-2.300781-1.800781-3.5-.101562-.199219-.199219-.398438-.300781-.601562-.601562-1.199219-1.101562-2.398438-1.699219-3.597657-.101562-.199219-.199219-.402343-.199219-.5-.5-1.199219-1.101562-2.5-1.601562-3.699219 0-.101562-.101562-.300781-.101562-.402343-.5-1.300781-1-2.597657-1.5-4-.5-1.300781-.898438-2.699219-1.296876-4 0-.199219-.101562-.300781-.101562-.5-.398438-1.300781-.699219-2.597657-1-3.898438-.101562-.199219-.101562-.402343-.199219-.601562-.300781-1.300781-.601562-2.597657-.902343-3.898438 0-.199219-.097657-.5-.097657-.699219-.300781-1.300781-.5-2.703124-.699219-4 0-.101562 0-.101562 0-.203124 2.097657.5 4.199219.703124 6.398438.703124 8.800781 0 16.699219-4.203124 23.601562-7.902343 5.097657-2.699219 10.398438-5.597657 14.199219-5.597657s9.097657 2.796876 14.199219 5.597657c6.898438 3.699219 14.800781 7.902343 23.601562 7.902343 8.796876 0 16.699219-4.203124 23.597657-7.902343 5.101562-2.699219 10.402343-5.597657 14.199219-5.597657 3.800781 0 9.101562 2.796876 14.203124 5.597657 6.898438 3.699219 14.796876 7.902343 23.597657 7.902343s16.699219-4.203124 23.601562-7.902343c5.097657-2.699219 10.398438-5.597657 14.199219-5.597657 2.101562 0 4.699219.898438 7.398438 2.097657v.5c.203124.601562.101562 1.101562.101562 1.5zm-101.898438-108.097657c50.398438 0 92.398438 36.699219 100.597657 84.699219-2-.402343-4-.601562-6-.601562-8.800781 0-16.699219 4.199219-23.597657 7.902343-5.101562 2.699219-10.402343 5.597657-14.203124 5.597657-3.796876 0-9.097657-2.800781-14.199219-5.597657-6.898438-3.703124-14.800781-7.902343-23.597657-7.902343-8.800781 0-16.703124 4.199219-23.601562 7.902343-5.101562 2.699219-10.398438 5.597657-14.199219 5.597657s-9.101562-2.800781-14.199219-5.597657c-6.902343-3.703124-14.800781-7.902343-23.601562-7.902343s-16.699219 4.199219-23.601562 7.902343c-5.097657 2.699219-10.398438 5.597657-14.199219 5.597657-2.097657 0-4.597657-.800781-7.300781-2.097657 3.203124-53.203124 47.601562-95.5 101.703124-95.5zm0 0"/><path d="m204.601562 139.898438c5.5 0 10-4.5 10-10s-4.5-10-10-10-10 4.5-10 10 4.5 10 10 10zm0 0"/></svg>