<svg height="681pt" viewBox="-30 -21 681 681.33367" width="681pt" xmlns="http://www.w3.org/2000/svg"><g fill-rule="evenodd"><path d="m618.542969 409.765625-63.074219-137.125c.078125-3.351563.117188-6.726563.117188-10.121094 0-48.359375-8.242188-93.007812-24.527344-133.132812-.121094-.347657-.261719-.6875-.417969-1.023438-3.480469-8.496093-7.316406-16.785156-11.519531-24.859375-3.179688-6.109375-10.71875-8.488281-16.824219-5.308594-6.109375 3.183594-8.488281 10.714844-5.308594 16.824219 2.46875 4.742188 4.777344 9.582031 6.976563 14.488281-21.847656 15.164063-48.625 23.453126-76.4375 23.453126-27.976563 0-54.894532-8.378907-76.808594-23.710938 22.652344-51.550781 54.996094-83.707031 76.472656-100.78125 4.160156 3.542969 8.1875 7.148438 12.039063 10.769531 5.015625 4.722657 12.910156 4.484375 17.632812-.535156 4.722657-5.015625 4.484375-12.910156-.535156-17.628906-6.589844-6.207031-13.652344-12.339844-20.988281-18.238281-4.382813-3.523438-10.578125-3.679688-15.128906-.382813-23.820313 17.230469-68.367188 56.703125-96.183594 125.847656-.140625.316407-.269532.636719-.378906.957031-14.371094 36.058594-24.1875 80.128907-24.1875 133.261719 0 3.058594.042968 6.082031.113281 9.089844l-63.878907 138.863281c-1.929687 4.195313-1.382812 9.117188 1.421876 12.785156 2.382812 3.121094 6.0625 4.902344 9.914062 4.902344.675781 0 1.363281-.058594 2.050781-.167968l82.621094-13.773438c23.953125 50.335938 56.21875 82.722656 78.585937 100.773438l-75.429687 104.042968c-2.746094 3.792969-3.140625 8.8125-1.007813 12.992188 2.128907 4.175781 6.421876 6.804687 11.113282 6.804687h165.125c.007812-.003906.015625-.003906.023437 0 6.890625 0 12.476563-5.589843 12.476563-12.472656 0-2.992187-1.054688-5.742187-2.8125-7.894531l-75.3125-103.875c33.792968-29.039063 59.9375-62.570313 78.359375-100.378906l82.660156 13.78125c.6875.109374 1.375.167968 2.054687.167968.054688 0 .109376 0 .15625-.003906 6.828126-.074219 12.339844-5.628906 12.339844-12.46875 0-2.144531-.539062-4.164062-1.492187-5.921875zm-296.917969-19.164063-53.421875 8.90625 35.652344-77.496093c.921875 6.058593 1.980469 11.96875 3.15625 17.730469.007812.039062.019531.082031.023437.121093 1.1875 5.796875 2.496094 11.441407 3.917969 16.945313.058594.234375.121094.472656.179687.710937 1.394532 5.339844 2.890626 10.539063 4.480469 15.609375.183594.589844.367188 1.183594.554688 1.773438.738281 2.308594 1.496093 4.601562 2.273437 6.855468.273438.789063.558594 1.574219.835938 2.363282.53125 1.507812 1.070312 2.996094 1.621094 4.480468.246093.660157.472656 1.339844.726562 2zm47.796875 223.28125 58.105469-80.144531 58.109375 80.144531zm57.769531-117.316406c-26.394531-20.976562-69.183594-64.726562-90.246094-139.257812-.1875-.667969-.375-1.339844-.558593-2.011719-.453125-1.644531-.890625-3.300781-1.320313-4.964844-.351562-1.355469-.699218-2.710937-1.023437-4.070312-.238281-.96875-.464844-1.949219-.699219-2.933594-.320312-1.382813-.632812-2.78125-.9375-4.175781-.167969-.75-.332031-1.488282-.492188-2.242188-.445312-2.097656-.863281-4.203125-1.269531-6.316406-.125-.664062-.246093-1.332031-.371093-1.992188-.335938-1.804687-.652344-3.617187-.957032-5.433593-.089844-.523438-.175781-1.035157-.257812-1.554688-.375-2.300781-.726563-4.609375-1.058594-6.9375-.070312-.464843-.128906-.9375-.191406-1.40625-.273438-1.960937-.519532-3.929687-.757813-5.902343-.070312-.574219-.144531-1.148438-.207031-1.730469-.277344-2.390625-.535156-4.800781-.765625-7.214844-.011719-.164063-.023437-.316406-.039063-.480469-.207031-2.230468-.394531-4.476562-.558593-6.730468-.054688-.703126-.101563-1.417969-.152344-2.128907-.128906-1.890625-.246094-3.785156-.351563-5.691406-.027343-.597656-.066406-1.1875-.097656-1.789063-.117187-2.410156-.210937-4.839843-.28125-7.269531-.117187-3.882812-.179687-7.820312-.179687-11.8125 0-42.609375 6.730469-78.851562 17.066406-109.410156 25.101563 16.082031 55.066406 24.804687 86.042969 24.804687 30.867187 0 60.75-8.667968 85.8125-24.652343 11.472656 33.351562 17.300781 69.925781 17.300781 109.257812 0 2.683594-.039063 5.351563-.089844 8.007813-.328125 1.0625-.523437 2.175781-.558593 3.332031-1.167969 41.046875-8.796876 79.273437-22.671876 113.761719-17.234374 41.695312-43.984374 78.109375-80.128906 108.945312zm105.910156-105.933594c8.257813-21.394531 14.253907-44.019531 17.960938-67.859374l35.296875 76.738281zm0 0"/><path d="m506.257812 207.449219c-3.433593-5.96875-11.0625-8.023438-17.035156-4.589844-16.832031 9.683594-38.738281 15.015625-61.6875 15.015625-23.050781 0-45.027344-5.375-61.886718-15.125-5.964844-3.457031-13.59375-1.421875-17.042969 4.546875-3.453125 5.964844-1.414063 13.59375 4.550781 17.042969 20.59375 11.921875 47.011719 18.484375 74.378906 18.484375 27.246094 0 53.574219-6.515625 74.132813-18.335938 5.96875-3.4375 8.027343-11.0625 4.589843-17.039062zm0 0"/><path d="m239.285156 453.175781c-4.4375-2.027343-9.652344-1.285156-13.347656 1.902344l-35.535156 30.6875c-5.214844 4.5-5.789063 12.382813-1.285156 17.59375 4.5 5.214844 12.375 5.792969 17.589843 1.289063l14.910157-12.871094v44.78125c0 42.636718-34.6875 77.324218-77.332032 77.324218-42.636718 0-77.324218-34.6875-77.324218-77.324218v-133.234375c20.648437-5.519531 35.90625-24.378907 35.90625-46.742188 0-22.078125-14.871094-40.738281-35.125-46.519531 4.59375-38.308594 28.03125-41.347656 57.09375-45.074219 13.296874-1.703125 27.046874-3.46875 38.109374-9.558593 13.9375-7.667969 21.277344-20.820313 21.820313-39.074219.457031-15.3125-3.707031-27.648438-12.359375-36.65625-17.179688-17.890625-47.667969-18.222657-77.15625-18.542969-49.222656-.539062-70.796875-3.949219-70.796875-34.367188 0-28.261718 13.371094-31.292968 51.589844-32.75 19.613281-.75 41.84375-1.597656 59.46875-12.03125 21.011719-12.441406 31.117187-35.183593 30.890625-69.53125-.050782-6.863281-5.625-12.3945308-12.476563-12.3945308-.027343 0-.054687 0-.082031 0-6.890625.0507808-12.4375 5.6679688-12.394531 12.5585938.363281 53.917969-27.625 54.984375-66.359375 56.460937-17.195313.660157-34.980469 1.335938-49.144532 8.304688-17.550781 8.632812-26.445312 25.246094-26.445312 49.382812 0 26.019532 11.523438 43.566407 34.246094 52.148438 17.71875 6.691406 39.84375 6.933594 61.238281 7.164062 24.335937.265626 49.496094.539063 59.425781 10.875 3.898438 4.054688 5.664063 10.152344 5.414063 18.636719-.542969 18.269531-9.769531 20.984375-38.164063 24.625-16.710937 2.144531-35.65625 4.574219-51.207031 15.398438-16.128906 11.222656-25.261719 28.96875-27.769531 54.027343-20.988282 5.28125-36.578125 24.3125-36.578125 46.917969 0 22.363281 15.257812 41.222657 35.90625 46.742188v133.234375c0 56.394531 45.882812 102.273437 102.273437 102.273437 56.398438 0 102.28125-45.878906 102.28125-102.273437v-72.039063c0-4.882812-2.84375-9.3125-7.28125-11.34375zm-208.230468-96.59375c0-12.917969 10.511718-23.429687 23.433593-23.429687 12.917969 0 23.429688 10.511718 23.429688 23.429687 0 12.921875-10.511719 23.433594-23.429688 23.433594-12.921875 0-23.433593-10.511719-23.433593-23.433594zm0 0"/><path d="m481.273438 79.625c6.871093 0 12.476562-5.605469 12.476562-12.476562 0-6.871094-5.605469-12.476563-12.476562-12.476563-6.871094 0-12.476563 5.605469-12.476563 12.476563 0 6.871093 5.605469 12.476562 12.476563 12.476562zm0 0"/></g></svg>