<svg height="682pt" viewBox="-27 -21 682 682.66669" width="682pt" xmlns="http://www.w3.org/2000/svg"><g fill-rule="evenodd"><path d="m615.488281 615h-19.289062l-69.828125-112.203125c-3.648438-5.859375-11.351563-7.65625-17.214844-4.007813-5.859375 3.648438-7.65625 11.359376-4.011719 17.21875l61.613281 98.992188h-240.308593v-386.113281l62.6875 100.722656c.003906 0 .003906 0 .003906.003906l63.164063 101.484375c3.648437 5.863282 11.351562 7.65625 17.214843 4.011719 5.859375-3.648437 7.65625-11.359375 4.011719-17.21875l-54.46875-87.515625c30.035156-10.445312 56.941406-29.351562 76.996094-54.367188 24.023437-29.972656 37.25-67.671874 37.25-106.15625 0-93.65625-76.195313-169.851562-169.851563-169.851562-93.664062 0-169.859375 76.195312-169.859375 169.859375 0 42.699219 15.589844 82.855469 44.09375 114.160156l-205.992187 330.980469h-19.28125c-6.90625 0-12.5000002 5.59375-12.5000002 12.5s5.5937502 12.5 12.5000002 12.5h603.066406c6.902344 0 12.5-5.59375 12.5-12.5.003906-6.90625-5.597656-12.5-12.496094-12.5zm-314.039062-48.585938c-8.8125-10.65625-18.59375-17.894531-27.332031-22.773437-14.035157-7.824219-27.96875-11.21875-38.414063-12.65625l65.746094-249.390625zm-82.851563-396.554687c0-79.878906 64.980469-144.859375 144.859375-144.859375 79.871094 0 144.851563 64.980469 144.851563 144.859375 0 64.53125-41.855469 120.339844-102.835938 138.675781l-76.796875-123.386718 35.929688-57.730469c3.644531-5.859375 1.847656-13.570313-4.011719-17.21875-5.859375-3.644531-13.566406-1.855469-17.214844 4.011719l-29.429687 47.273437-29.421875-47.28125c-3.648438-5.851563-11.355469-7.65625-17.21875-4.003906-5.859375 3.648437-7.652344 11.359375-4.003906 17.21875l35.929687 57.730469-47.722656 76.671874c-21.332031-25.84375-32.914063-57.957031-32.914063-91.960937zm-157.449218 445.140625 219.558593-352.777344-73.0625 277.117188c-1.015625 3.859375-.101562 7.964844 2.410157 11.058594 2.511718 3.097656 6.375 4.796874 10.359374 4.609374.132813-.007812.609376-.023437 1.386719-.023437 5.003907 0 22.6875.757813 40.136719 10.492187 18.117188 10.105469 30.375 26.742188 36.617188 49.523438zm0 0"/><path d="m476.839844 466.953125c0 6.882813 5.617187 12.5 12.5 12.5 6.886718 0 12.5-5.617187 12.5-12.5 0-6.890625-5.613282-12.503906-12.5-12.503906-6.882813 0-12.5 5.613281-12.5 12.503906zm0 0"/></g></svg>