<svg height="682pt" viewBox="-103 -21 682 682.66535" width="682pt" xmlns="http://www.w3.org/2000/svg"><g fill-rule="evenodd"><path d="m450.730469 24.136719-32.710938-18.882813c-5.949219-3.4375-12.726562-5.253906-19.597656-5.253906-14.070313 0-27.15625 7.527344-34.160156 19.65625l-37.675781 65.253906c-6.921876 11.992188-6.820313 26.796875-.347657 38.664063l-45.363281 78.578125c-20.683594-6.277344-41.855469-8.269532-61.960938-5.632813-33.332031 4.367188-59.8125 20.839844-74.550781 46.367188-7.304687 12.648437-19.140625 37.386719-16.332031 60.898437 1.632812 13.660156-9.433594 33.484375-20.0625 35.945313-23.785156 5.511719-43.203125 13.667969-59.355469 24.921875-5.664062 3.945312-7.054687 11.738281-3.109375 17.402344 3.945313 5.660156 11.730469 7.050781 17.402344 3.109374 13.496094-9.402343 30.082031-16.296874 50.707031-21.078124 25.222657-5.84375 42.089844-39.390626 39.242188-63.265626-1.402344-11.742187 3.515625-28.730468 13.15625-45.429687 17.773437-30.785156 59.242187-41.925781 101.953125-30.882813l-63.316406 109.667969c-15.800782 3.484375-29.738282 13.445313-37.988282 27.738281-7.777344 13.472657-9.84375 29.164063-5.820312 44.195313 4.027344 15.027344 13.667968 27.582031 27.136718 35.359375 8.847657 5.113281 18.902344 7.8125 29.078126 7.8125 20.761718 0 40.109374-11.160156 50.484374-29.125 8.511719-14.746094 9.820313-31.703125 5.027344-46.777344l63.320313-109.671875c11.179687 11.378907 19.953125 24.300781 25.664062 38.074219 9.835938 23.707031 9.324219 47.027344-1.4375 65.667969-9.640625 16.699219-21.890625 29.453125-32.765625 34.113281-22.105468 9.472656-42.71875 40.855469-35.171875 65.613281 11.691407 38.351563 9.660157 69.152344-6.375 96.929688-15.605469 27.03125-42.84375 44.609375-76.691406 49.492187-34.382813 4.96875-72.402344-3.316406-107.042969-23.320312-52.882812-30.53125-85.085937-81.480469-82.039062-129.804688.4375-6.890625-4.792969-12.828125-11.6875-13.261718-6.859375-.398438-12.828125 4.800781-13.261719 11.691406-3.636719 57.71875 33.453125 117.785156 94.488281 153.023437 31.886719 18.410157 66.542969 28.074219 99.71875 28.074219 7.902344 0 15.71875-.546875 23.398438-1.65625 41.59375-6 75.246094-27.929688 94.765625-61.738281 19.742187-34.191407 22.488281-71.28125 8.640625-116.714844-3.179688-10.4375 8.457031-29.929687 21.101562-35.351563 21.761719-9.320312 37.265625-31.9375 44.570313-44.589843 14.742187-25.527344 15.761719-56.6875 2.882812-87.746094-7.769531-18.722656-20.085937-36.066406-35.859375-50.835937l45.359375-78.566407c13.746094-.292969 26.453125-7.761719 33.316407-19.640625l37.675781-65.261718c10.847656-18.792969 4.386719-42.910157-14.40625-53.761719zm-204.84375 383.519531c-5.921875 10.253906-16.972657 16.625-28.832031 16.625-5.789063 0-11.523438-1.542969-16.578126-4.460938-7.6875-4.441406-13.191406-11.609374-15.488281-20.183593s-1.117187-17.53125 3.320313-25.222657c5.425781-9.398437 15.15625-15.519531 25.871094-16.480468.582031-.054688 1.167968-.085938 1.746093-.113282.234375-.003906.46875-.019531.703125-.023437.703125-.007813 1.402344.003906 2.105469.039063.09375.003906.191406.003906.289063.011718 1.664062.097656 3.316406.320313 4.945312.664063.136719.027343.273438.066406.410156.097656.644532.144531 1.289063.304687 1.925782.492187.214843.0625.429687.132813.648437.195313.554687.175781 1.109375.359375 1.65625.566406.238281.085938.476563.175781.710937.269531.542969.214844 1.070313.441407 1.597657.6875.21875.097657.4375.191407.652343.292969.730469.351563 1.445313.726563 2.144532 1.132813.667968.378906 1.3125.796875 1.949218 1.21875l.511719.351562c.597657.417969 1.175781.847656 1.742188 1.296875.148437.121094.289062.246094.441406.375.414063.335938.816406.691407 1.210937 1.054688.222657.203125.445313.410156.660157.621093.449219.429688.882812.871094 1.308593 1.332032.238282.257812.460938.527344.695313.789062.234375.273438.460937.546875.691406.828125.296875.371094.589844.746094.871094 1.132813.28125.375.554687.75.816406 1.140625.214844.324219.425781.648437.628907.976562.191406.304688.371093.609375.554687.921875.277344.480469.546875.96875.800781 1.460938.175782.34375.351563.6875.515625 1.039062 4.507813 9.542969 4.433594 21.0625-1.226562 30.871094zm197.597656-342.261719-37.675781 65.257813c-2.546875 4.414062-7.339844 7.160156-12.507813 7.160156-1.074219 0-2.148437-.121094-3.191406-.363281-5.335937-1.230469-10.871094 1.179687-13.621094 5.933593l-37.847656 65.550782-7.03125 12.183594-2.539063 4.398437-12.550781 21.746094-58.863281 101.945312c-.371094-.359375-.765625-.691406-1.148438-1.042969-.332031-.304687-.652343-.605468-.996093-.910156-.425781-.363281-.855469-.726562-1.289063-1.082031-.433594-.363281-.867187-.714844-1.316406-1.058594-.398438-.308593-.792969-.613281-1.191406-.910156-.546875-.398437-1.105469-.789063-1.660156-1.171875-.34375-.234375-.675782-.472656-1.023438-.699219-.882812-.578125-1.78125-1.136719-2.703125-1.671875-.035156-.019531-.074219-.046875-.109375-.070312-1.078125-.621094-2.171875-1.199219-3.285156-1.753906-.347656-.167969-.703125-.316407-1.050782-.480469-.769531-.363281-1.535156-.722657-2.316406-1.050781-.445312-.1875-.898437-.347657-1.347656-.523438-.699219-.273438-1.398438-.550781-2.105469-.796875-.5-.167969-1-.316406-1.503906-.472656-.527344-.171875-1.046875-.351563-1.578125-.503907l58.867188-101.960937 12.554687-21.742187 47.421875-82.136719c2.742188-4.753907 2.066406-10.746094-1.675781-14.765625-4.277344-4.597656-5.082031-11.585938-1.960938-16.992188l37.671875-65.257812c2.550782-4.414063 7.34375-7.15625 12.511719-7.15625 2.523437 0 4.910156.636718 7.097656 1.902344l32.714844 18.886718c6.851563 3.960938 9.210937 12.757813 5.25 19.609375zm0 0"/><path d="m34.535156 411.820312c0 6.90625-5.59375 12.5-12.5 12.5-6.902344 0-12.5-5.59375-12.5-12.5 0-6.902343 5.597656-12.5 12.5-12.5 6.90625 0 12.5 5.597657 12.5 12.5zm0 0"/></g></svg>