<svg height="682pt" viewBox="-21 -173 682.66669 682" width="682pt" xmlns="http://www.w3.org/2000/svg"><path d="m91.582031 44.917969c-6.902343 0-12.5 5.59375-12.5 12.5v84.859375c0 6.902344 5.597657 12.5 12.5 12.5h110.40625c6.898438 0 12.5-5.597656 12.5-12.5v-84.859375c0-6.90625-5.601562-12.5-12.5-12.5zm97.90625 84.851562h-85.40625v-59.855469h85.40625zm0 0"/><path d="m289.132812 15.167969c6.882813 0 12.5-5.617188 12.5-12.5 0-6.886719-5.617187-12.5-12.5-12.5-6.886718 0-12.507812 5.613281-12.507812 12.5 0 6.882812 5.621094 12.5 12.507812 12.5zm0 0"/><path d="m605.449219 160.796875h-31.730469l-38.640625-90.878906h30.671875c6.90625 0 12.5-5.601563 12.5-12.5v-16.734375c0-27.855469-22.660156-50.515625-50.515625-50.515625h-188.609375c-6.898438 0-12.5 5.59375-12.5 12.5 0 6.902343 5.601562 12.5 12.5 12.5h188.609375c14.070313 0 25.523437 11.445312 25.523437 25.515625v4.234375h-157.519531c-6.90625 0-12.5 5.59375-12.5 12.5v200.101562h-27.621093v-200.101562c0-6.90625-5.597657-12.5-12.5-12.5h-98.546876c-6.90625 0-12.5 5.59375-12.5 12.5v200.101562h-36.054687c-5.683594-24.539062-27.703125-42.890625-53.945313-42.890625-26.242187 0-48.261718 18.351563-53.945312 42.890625h-37.609375c-14.070313 0-25.515625-11.449219-25.515625-25.523437v-191.3125c0-14.070313 11.445312-25.515625 25.515625-25.515625h188.609375c6.90625 0 12.5-5.597657 12.5-12.5 0-6.90625-5.59375-12.5-12.5-12.5h-188.609375c-27.855469 0-50.515625 22.660156-50.515625 50.515625v191.3125c0 27.859375 22.660156 50.523437 50.515625 50.523437h37.609375c5.6875 24.535157 27.703125 42.882813 53.945312 42.882813 26.242188 0 48.261719-18.347656 53.945313-42.882813h254.355469c5.6875 24.535157 27.707031 42.882813 53.945312 42.882813 26.238282 0 48.261719-18.347656 53.945313-42.882813h47.1875c19.050781 0 34.550781-15.503906 34.550781-34.554687v-52.617188c0-19.054687-15.5-34.550781-34.550781-34.550781zm-463.378907 139.605469c-16.753906 0-30.386718-13.628906-30.386718-30.386719 0-16.753906 13.632812-30.386719 30.386718-30.386719 16.753907 0 30.386719 13.632813 30.386719 30.386719 0 16.757813-13.628906 30.386719-30.386719 30.386719zm115-42.882813v-187.601562h73.546876v187.601562zm289.484376-96.722656h-93.609376v-90.878906h54.964844zm-42.238282 139.605469c-16.753906 0-30.386718-13.628906-30.386718-30.386719 0-16.753906 13.632812-30.386719 30.386718-30.386719 16.757813 0 30.386719 13.632813 30.386719 30.386719 0 16.757813-13.628906 30.386719-30.386719 30.386719zm110.683594-52.4375c0 5.269531-4.289062 9.554687-9.550781 9.554687h-47.1875c-5.683594-24.539062-27.707031-42.890625-53.945313-42.890625-26.238281 0-48.261718 18.351563-53.945312 42.890625h-42.132813v-187.601562h19.707031v103.378906c0 6.902344 5.601563 12.5 12.5 12.5h165.003907c5.269531 0 9.554687 4.285156 9.554687 9.550781v52.617188zm0 0"/></svg>