<svg height="682pt" viewBox="-97 -21 682 682.66535" width="682pt" xmlns="http://www.w3.org/2000/svg"><path d="m214.789062 49.292969h-52.136718c-6.90625 0-12.5 5.59375-12.5 12.5 0 6.902343 5.59375 12.5 12.5 12.5h52.136718c6.90625 0 12.5-5.597657 12.5-12.5 0-6.90625-5.59375-12.5-12.5-12.5zm0 0"/><path d="m162.652344 590.707031h52.136718c6.90625 0 12.5-5.597656 12.5-12.5 0-6.90625-5.59375-12.5-12.5-12.5h-52.136718c-6.90625 0-12.5 5.59375-12.5 12.5 0 6.902344 5.59375 12.5 12.5 12.5zm0 0"/><path d="m483.515625 310.765625c0-67.757813-41.996094-125.886719-101.324219-149.746094v-94.75c0-36.542969-29.730468-66.269531-66.269531-66.269531h-254.402344c-36.539062 0-66.269531 29.726562-66.269531 66.269531v203.730469c0 6.902344 5.59375 12.5 12.5 12.5 6.902344 0 12.5-5.597656 12.5-12.5v-146.421875h336.941406v29.699219c-11.273437-2.507813-22.988281-3.835938-35.003906-3.835938-88.957031 0-161.328125 72.371094-161.328125 161.328125 0 23.191407 4.800781 45.503907 14.273437 66.414063l-30.320312 96.875c-1.429688 4.5625-.128906 9.539062 3.351562 12.824218 2.359376 2.226563 5.4375 3.410157 8.578126 3.410157 1.484374 0 2.980468-.265625 4.414062-.804688l89.816406-33.933593c22.019532 10.835937 46.515625 16.542968 71.214844 16.542968 12.015625 0 23.730469-1.332031 35.003906-3.835937v48.15625h-336.941406v-146.417969c0-6.90625-5.597656-12.5-12.5-12.5-6.90625 0-12.5 5.59375-12.5 12.5v203.730469c0 36.542969 29.730469 66.269531 66.269531 66.269531h254.402344c36.539063 0 66.269531-29.726562 66.269531-66.269531v-113.214844c59.328125-23.855469 101.324219-81.984375 101.324219-149.75zm-463.265625-212.1875v-32.308594c0-22.753906 18.515625-41.269531 41.269531-41.269531h254.402344c22.753906 0 41.269531 18.515625 41.269531 41.269531v32.3125h-336.941406zm336.941406 475.152344c0 22.753906-18.515625 41.269531-41.269531 41.269531h-254.402344c-22.753906 0-41.269531-18.515625-41.269531-41.269531v-32.316407h336.941406zm-35.003906-126.632813c-22.515625 0-44.820312-5.605468-64.511719-16.203125-3.1875-1.714843-6.957031-1.964843-10.34375-.691406l-70.996093 26.824219 24.113281-77.03125c.957031-3.058594.703125-6.367188-.707031-9.246094-9.210938-18.757812-13.882813-38.9375-13.882813-59.984375 0-75.171875 61.15625-136.328125 136.328125-136.328125 75.175781 0 136.332031 61.15625 136.332031 136.328125 0 75.175781-61.160156 136.332031-136.332031 136.332031zm0 0"/><path d="m404.066406 334.566406c-6.273437-2.882812-13.695312-.132812-16.578125 6.140625-11.6875 25.445313-37.316406 41.886719-65.300781 41.886719s-53.613281-16.441406-65.304688-41.886719c-2.878906-6.273437-10.300781-9.023437-16.570312-6.140625-6.273438 2.878906-9.023438 10.300782-6.144531 16.574219 15.753906 34.292969 50.300781 56.453125 88.019531 56.453125s72.269531-22.160156 88.015625-56.453125c2.886719-6.273437.136719-13.695313-6.136719-16.574219zm0 0"/><path d="m363.441406 284.359375h10.875c6.902344 0 12.5-5.59375 12.5-12.5 0-6.898437-5.597656-12.5-12.5-12.5h-10.875c-6.902344 0-12.5 5.601563-12.5 12.5 0 6.90625 5.597656 12.5 12.5 12.5zm0 0"/><path d="m270.058594 284.359375h10.878906c6.902344 0 12.5-5.59375 12.5-12.5 0-6.898437-5.597656-12.5-12.5-12.5h-10.878906c-6.90625 0-12.5 5.601563-12.5 12.5 0 6.90625 5.59375 12.5 12.5 12.5zm0 0"/><path d="m7.75 332.5c6.882812 0 12.5-5.617188 12.5-12.5 0-6.886719-5.617188-12.5-12.5-12.5-6.886719 0-12.5 5.613281-12.5 12.5 0 6.882812 5.613281 12.5 12.5 12.5zm0 0"/></svg>