<svg height="682pt" viewBox="-21 -58 682.66669 682" width="682pt" xmlns="http://www.w3.org/2000/svg"><g fill-rule="evenodd"><path d="m627.5 318.359375c-6.90625 0-12.5 5.601563-12.5 12.5v78.488281c0 23.660156-19.25 42.910156-42.910156 42.910156h-171.875c-.015625 0-.027344 0-.042969 0h-160.335937c-.015626 0-.03125 0-.046876 0h-171.878906c-23.660156 0-42.910156-19.25-42.910156-42.910156v-256.972656c0-23.664062 19.25-42.910156 42.910156-42.910156h171.914063c.015625 0 .023437.003906.039062.003906s.023438-.003906.035157-.003906h160.199218c.015625 0 .023438.003906.039063.003906s.023437-.003906.039062-.003906h171.914063c23.660156 0 42.910156 19.246094 42.910156 42.910156v78.484375c0 6.90625 5.59375 12.5 12.5 12.5 6.898438 0 12.5-5.59375 12.5-12.5v-78.484375c0-37.441406-30.464844-67.910156-67.910156-67.910156h-48.308594c-25.417969-26.386719-55.195312-47.308594-88.609375-62.210938-36.289063-16.1875-74.996094-24.402344-115.035156-24.414062-.039063-.007813-.074219-.007813-.113281-.007813-.007813 0-.019532 0-.023438 0s-.007812 0-.015625 0c-.042969 0-.085937 0-.132813.007813-40.039062.019531-78.734374 8.230468-115.023437 24.414062-33.414063 14.902344-63.191406 35.824219-88.609375 62.210938h-48.308594c-37.445312 0-67.910156 30.46875-67.910156 67.910156v256.972656c0 37.445313 30.464844 67.910156 67.910156 67.910156h48.308594c25.417969 26.386719 55.195312 47.3125 88.609375 62.214844 36.3125 16.191406 75.039063 24.410156 115.109375 24.414063.015625 0 .03125.007812.054688.007812h.015624c.023438 0 .035157-.007812.054688-.007812 40.070312-.003907 78.796875-8.222657 115.109375-24.414063 33.414063-14.902344 63.1875-35.828125 88.609375-62.214844h48.308594c37.445312 0 67.910156-30.464843 67.910156-67.910156v-78.488281c0-6.898437-5.601562-12.5-12.5-12.5zm-307.5-293.546875c21.269531 13.1875 41.039062 33.515625 58.082031 59.65625h-116.164062c17.042969-26.140625 36.8125-46.46875 58.082031-59.65625zm167.324219 59.652344h-79.90625c-13.238281-22.828125-28.394531-42.378906-44.921875-58.0625 45.945312 7.726562 89.238281 27.804687 124.828125 58.0625zm-209.824219-58.0625c-16.527344 15.683594-31.683594 35.234375-44.917969 58.0625h-79.90625c35.589844-30.257813 78.882813-50.335938 124.824219-58.0625zm42.5 510.507812c-21.273438-13.183594-41.039062-33.515625-58.082031-59.652344h116.164062c-17.042969 26.140626-36.8125 46.46875-58.082031 59.652344zm-167.324219-59.652344h79.90625c13.234375 22.828126 28.390625 42.378907 44.921875 58.066407-45.945312-7.726563-89.238281-27.804688-124.828125-58.066407zm209.820313 58.066407c16.53125-15.6875 31.6875-35.238281 44.921875-58.066407h79.90625c-35.597657 30.261719-78.882813 50.339844-124.828125 58.066407zm0 0"/><path d="m404.765625 242.511719-128.636719-74.273438c-6.5-3.734375-13.882812-5.707031-21.34375-5.707031-15.324218 0-29.585937 8.25-37.210937 21.527344-3.746094 6.507812-5.71875 13.90625-5.707031 21.359375l-.128907 150.753906c0 23.722656 19.296875 43.019531 43.019531 43.019531 8.777344 0 17.199219-2.617187 24.390626-7.578125 21.25-12.265625 42.472656-24.507812 63.699218-36.742187 21.316406-12.292969 42.628906-24.582032 63.988282-36.910156 20.492187-11.867188 27.503906-38.195313 15.632812-58.6875-4.179688-7.214844-10.289062-13.007813-17.703125-16.761719zm-10.445313 53.808593c-21.335937 12.320313-42.648437 24.605469-63.960937 36.894532-21.382813 12.328125-42.773437 24.65625-64.179687 37.015625l-1 .644531c-3.050782 2.167969-6.65625 3.316406-10.421876 3.316406-9.9375 0-18.023437-8.082031-18.023437-18.007812l.132813-150.773438c-.007813-3.097656.820312-6.179687 2.382812-8.894531 3.179688-5.542969 9.132812-8.984375 15.535156-8.984375 3.101563 0 6.171875.824219 8.863282 2.371094l128.9375 74.445312.703124.375c3.160157 1.5625 5.769532 4.015625 7.550782 7.082032 4.960937 8.5625 2.027344 19.5625-6.519532 24.515624zm0 0"/><path d="m97.382812 325.484375h-34.105468c-6.902344 0-12.5 5.597656-12.5 12.5 0 6.898437 5.597656 12.5 12.5 12.5h34.105468c6.90625 0 12.5-5.601563 12.5-12.5 0-6.902344-5.59375-12.5-12.5-12.5zm0 0"/><path d="m97.382812 268.359375h-34.105468c-6.902344 0-12.5 5.601563-12.5 12.5 0 6.90625 5.597656 12.5 12.5 12.5h34.105468c6.90625 0 12.5-5.59375 12.5-12.5 0-6.898437-5.59375-12.5-12.5-12.5zm0 0"/><path d="m97.382812 382.605469h-34.105468c-6.902344 0-12.5 5.59375-12.5 12.5 0 6.902343 5.597656 12.5 12.5 12.5h34.105468c6.90625 0 12.5-5.597657 12.5-12.5 0-6.90625-5.59375-12.5-12.5-12.5zm0 0"/><path d="m97.382812 154.121094h-34.105468c-6.902344 0-12.5 5.597656-12.5 12.5s5.597656 12.5 12.5 12.5h34.105468c6.90625 0 12.5-5.597656 12.5-12.5s-5.59375-12.5-12.5-12.5zm0 0"/><path d="m97.382812 211.242188h-34.105468c-6.902344 0-12.5 5.59375-12.5 12.5 0 6.902343 5.597656 12.5 12.5 12.5h34.105468c6.90625 0 12.5-5.597657 12.5-12.5 0-6.90625-5.59375-12.5-12.5-12.5zm0 0"/><path d="m576.722656 154.121094h-34.105468c-6.90625 0-12.5 5.597656-12.5 12.5s5.59375 12.5 12.5 12.5h34.105468c6.902344 0 12.5-5.597656 12.5-12.5s-5.597656-12.5-12.5-12.5zm0 0"/><path d="m576.722656 268.359375h-34.105468c-6.90625 0-12.5 5.601563-12.5 12.5 0 6.90625 5.59375 12.5 12.5 12.5h34.105468c6.902344 0 12.5-5.59375 12.5-12.5 0-6.898437-5.597656-12.5-12.5-12.5zm0 0"/><path d="m576.722656 325.484375h-34.105468c-6.90625 0-12.5 5.597656-12.5 12.5 0 6.898437 5.59375 12.5 12.5 12.5h34.105468c6.902344 0 12.5-5.601563 12.5-12.5 0-6.902344-5.597656-12.5-12.5-12.5zm0 0"/><path d="m576.722656 382.605469h-34.105468c-6.90625 0-12.5 5.59375-12.5 12.5 0 6.902343 5.59375 12.5 12.5 12.5h34.105468c6.902344 0 12.5-5.597657 12.5-12.5 0-6.90625-5.597656-12.5-12.5-12.5zm0 0"/><path d="m576.722656 211.242188h-34.105468c-6.90625 0-12.5 5.59375-12.5 12.5 0 6.902343 5.59375 12.5 12.5 12.5h34.105468c6.902344 0 12.5-5.597657 12.5-12.5 0-6.90625-5.597656-12.5-12.5-12.5zm0 0"/><path d="m627.5 268.359375c-6.882812 0-12.5 5.617187-12.5 12.5 0 6.886719 5.617188 12.5 12.5 12.5s12.5-5.613281 12.5-12.5c0-6.882813-5.617188-12.5-12.5-12.5zm0 0"/></g></svg>