<svg height="682pt" viewBox="-21 -58 682.66669 682" width="682pt" xmlns="http://www.w3.org/2000/svg"><g fill-rule="evenodd"><path d="m572.089844 84.464844h-48.308594c-25.421875-26.386719-55.195312-47.308594-88.609375-62.210938-36.289063-16.1875-74.996094-24.402344-115.035156-24.414062-.039063-.007813-.078125-.007813-.113281-.007813-.007813 0-.019532 0-.023438 0s-.007812 0-.015625 0c-.042969 0-.085937 0-.132813.007813-40.039062.019531-78.738281 8.230468-115.023437 24.414062-33.414063 14.902344-63.191406 35.824219-88.609375 62.210938h-48.308594c-37.445312 0-67.910156 30.46875-67.910156 67.910156v256.972656c0 37.445313 30.464844 67.910156 67.910156 67.910156h48.308594c25.417969 26.386719 55.195312 47.3125 88.609375 62.214844 36.308594 16.191406 75.035156 24.410156 115.109375 24.414063.015625 0 .03125.007812.054688.007812h.015624c.023438 0 .035157-.007812.054688-.007812 40.070312-.003907 78.796875-8.222657 115.109375-24.414063 33.40625-14.902344 63.1875-35.828125 88.601563-62.214844h48.316406c37.445312 0 67.910156-30.464843 67.910156-67.910156v-256.972656c0-37.441406-30.464844-67.910156-67.910156-67.910156zm-84.769532 0h-79.90625c-13.234374-22.828125-28.390624-42.378906-44.917968-58.0625 45.941406 7.726562 89.230468 27.796875 124.824218 58.0625zm-167.320312-59.648438c21.269531 13.183594 41.035156 33.511719 58.082031 59.652344h-116.164062c17.042969-26.140625 36.8125-46.46875 58.082031-59.652344zm-42.5 1.585938c-16.527344 15.683594-31.683594 35.234375-44.917969 58.0625h-79.90625c35.589844-30.257813 78.882813-50.335938 124.824219-58.0625zm-124.824219 450.855468h79.90625c13.234375 22.828126 28.390625 42.378907 44.921875 58.066407-45.945312-7.726563-89.238281-27.804688-124.828125-58.066407zm167.324219 59.652344c-21.273438-13.183594-41.039062-33.515625-58.082031-59.652344h116.164062c-17.046875 26.140626-36.8125 46.46875-58.082031 59.652344zm42.496094-1.585937c16.527344-15.6875 31.683594-35.238281 44.921875-58.066407h79.902343c-35.59375 30.261719-78.882812 50.339844-124.824218 58.066407zm209.59375-83.066407h-504.179688c-23.660156 0-42.910156-19.25-42.910156-42.910156v-18.511718l163.496094-158.414063 134 132.902344c4.894531 4.859375 12.8125 4.828125 17.675781-.074219s4.828125-12.816406-.074219-17.675781l-16.738281-16.601563 79.617187-73.789062 64.359376 53.648437c5.300781 4.417969 13.179687 3.710938 17.605468-1.597656 4.417969-5.300781 3.707032-13.183594-1.597656-17.601563l-72.796875-60.6875c-4.824219-4.023437-11.890625-3.839843-16.5.433594l-88.453125 81.972656-108.195312-107.308593c-4.835938-4.792969-12.613282-4.839844-17.5-.105469l-154.898438 150.089844v-203.652344c0-23.664062 19.25-42.910156 42.910156-42.910156h504.179688c23.660156 0 42.910156 19.246094 42.910156 42.910156v249.019531l-54.847656-45.730469c-5.300782-4.417968-13.183594-3.703124-17.605469 1.597657-4.417969 5.304687-3.703125 13.183593 1.597656 17.601562l65.730469 54.800781c-7.257812 13.4375-21.472656 22.59375-37.785156 22.59375zm0 0"/><path d="m571.605469 199.917969c0-26.53125-21.585938-48.125-48.125-48.125-26.535157 0-48.125 21.59375-48.125 48.125 0 26.539062 21.589843 48.125 48.125 48.125 26.539062 0 48.125-21.585938 48.125-48.125zm-71.25 0c0-12.75 10.378906-23.125 23.125-23.125 12.75 0 23.125 10.375 23.125 23.125 0 12.753906-10.375 23.125-23.125 23.125-12.746094 0-23.125-10.371094-23.125-23.125zm0 0"/><path d="m513.746094 320.75c-6.886719 0-12.5 5.613281-12.5 12.5 0 6.882812 5.613281 12.5 12.5 12.5 6.882812 0 12.5-5.617188 12.5-12.5 0-6.886719-5.617188-12.5-12.5-12.5zm0 0"/></g></svg>