<svg height="682pt" viewBox="-21 -133 682.66669 682" width="682pt" xmlns="http://www.w3.org/2000/svg"><g fill-rule="evenodd"><path d="m12.5 254.855469c6.90625 0 12.5-5.597657 12.5-12.5v-183.945313c0-22.375 18.203125-40.578125 40.578125-40.578125h508.84375c22.375 0 40.578125 18.203125 40.578125 40.578125 0 6.898438 5.59375 12.5 12.5 12.5s12.5-5.601562 12.5-12.5c0-36.164062-29.414062-65.578125-65.578125-65.578125h-508.84375c-36.164063 0-65.578125 29.414063-65.578125 65.578125v183.945313c0 6.902343 5.59375 12.5 12.5 12.5zm0 0"/><path d="m627.5 145.910156c-6.90625 0-12.5 5.59375-12.5 12.5v183.945313c0 22.371093-18.203125 40.574219-40.578125 40.574219h-508.84375c-22.375 0-40.578125-18.195313-40.578125-40.574219 0-6.898438-5.59375-12.5-12.5-12.5s-12.5 5.601562-12.5 12.5c0 36.160156 29.414062 65.574219 65.578125 65.574219h508.84375c36.164063 0 65.578125-29.414063 65.578125-65.574219v-183.945313c0-6.90625-5.59375-12.5-12.5-12.5zm0 0"/><path d="m563.316406 64.484375h-486.628906c-6.902344 0-12.5 5.59375-12.5 12.5v246.796875c0 6.902344 5.597656 12.5 12.5 12.5h486.628906c6.902344 0 12.5-5.597656 12.5-12.5v-246.796875c0-6.90625-5.597656-12.5-12.5-12.5zm-474.128906 25h137.210938v221.796875h-137.210938zm162.210938 0h137.203124v221.796875h-137.203124zm299.417968 221.796875h-137.214844v-221.796875h137.214844zm0 0"/><path d="m195.90625 124.441406h-76.226562c-6.90625 0-12.5 5.597656-12.5 12.5v11.511719c0 6.898437 5.59375 12.5 12.5 12.5 6.566406 0 11.957031-5.074219 12.460937-11.511719h36.851563c-18.609376 24.515625-44.953126 67.425782-45.316407 114.285156-.050781 6.90625 5.503907 12.539063 12.402344 12.59375h.097656c6.863281 0 12.449219-5.53125 12.5-12.402343.464844-60.777344 55.585938-117.648438 56.136719-118.203125 3.539062-3.589844 4.570312-8.949219 2.625-13.597656-1.945312-4.648438-6.492188-7.675782-11.53125-7.675782zm0 0"/><path d="m358.117188 124.441406h-76.234376c-6.902343 0-12.5 5.597656-12.5 12.5v11.511719c0 6.898437 5.597657 12.5 12.5 12.5 6.574219 0 11.960938-5.074219 12.460938-11.511719h36.859375c-18.617187 24.515625-44.957031 67.425782-45.320313 114.285156-.054687 6.90625 5.503907 12.539063 12.40625 12.59375h.101563c6.851563 0 12.4375-5.53125 12.492187-12.402343.464844-60.777344 55.59375-117.648438 56.140626-118.203125 3.53125-3.589844 4.570312-8.949219 2.625-13.597656-1.949219-4.648438-6.492188-7.675782-11.53125-7.675782zm0 0"/><path d="m444.09375 160.953125c6.570312 0 11.957031-5.074219 12.460938-11.511719h36.851562c-18.609375 24.515625-44.953125 67.425782-45.3125 114.285156-.050781 6.90625 5.5 12.539063 12.40625 12.59375h.09375c6.863281 0 12.449219-5.53125 12.496094-12.402343.46875-60.777344 55.589844-117.648438 56.136718-118.203125 3.542969-3.589844 4.570313-8.949219 2.628907-13.597656-1.941407-4.648438-6.496094-7.675782-11.527344-7.675782h-76.230469c-6.90625 0-12.5 5.597656-12.5 12.5v11.511719c-.003906 6.90625 5.59375 12.5 12.496094 12.5zm0 0"/><path d="m12.5 304.855469c6.882812 0 12.5-5.617188 12.5-12.5 0-6.886719-5.617188-12.5-12.5-12.5s-12.5 5.613281-12.5 12.5c0 6.882812 5.617188 12.5 12.5 12.5zm0 0"/><path d="m627.5 95.910156c-6.882812 0-12.5 5.609375-12.5 12.5 0 6.882813 5.617188 12.5 12.5 12.5s12.5-5.617187 12.5-12.5c0-6.890625-5.617188-12.5-12.5-12.5zm0 0"/></g></svg>