<svg height="682pt" viewBox="-21 -81 682.66669 682" width="682pt" xmlns="http://www.w3.org/2000/svg"><path d="m627.5 407.4375h-33.828125v-281.226562c0-33.609376-27.34375-60.945313-60.953125-60.945313h-83.441406v-13.179687c0-30.742188-25.011719-55.753907-55.753906-55.753907h-147.046876c-30.742187 0-55.757812 25.011719-55.757812 55.753907v13.179687h-83.445312c-33.601563 0-60.945313 27.34375-60.945313 60.945313v281.226562h-33.828125c-6.90625 0-12.5 5.601562-12.5 12.5v49.078125c0 26.496094 21.558594 48.058594 48.0625 48.058594h543.875c26.503906 0 48.0625-21.5625 48.0625-48.058594v-49.078125c0-6.90625-5.59375-12.5-12.5-12.5zm-556.171875-281.226562c0-19.820313 16.128906-35.945313 35.945313-35.945313h83.445312v224.359375c0 30.742188 25.015625 55.75 55.757812 55.75h147.054688c30.734375 0 55.75-25.007812 55.75-55.75v-81.269531c0-6.90625-5.59375-12.5-12.5-12.5-6.902344 0-12.5 5.59375-12.5 12.5v81.269531c0 16.953125-13.792969 30.75-30.75 30.75h-147.054688c-16.960937 0-30.757812-13.796875-30.757812-30.75v-262.539062c0-16.957032 13.796875-30.753907 30.757812-30.753907h147.054688c16.953125 0 30.75 13.796875 30.75 30.753907v81.269531c0 6.902343 5.597656 12.5 12.5 12.5 6.90625 0 12.5-5.597657 12.5-12.5v-43.089844h83.445312c19.816407 0 35.945313 16.125 35.945313 35.945313v281.226562h-497.34375zm543.671875 342.804687c0 12.714844-10.347656 23.054687-23.0625 23.054687h-543.875c-12.714844 0-23.0625-10.339843-23.0625-23.054687v-36.578125h590zm0 0"/><path d="m365.421875 449.757812h-90.84375c-6.902344 0-12.5 5.59375-12.5 12.5 0 6.902344 5.597656 12.5 12.5 12.5h90.84375c6.902344 0 12.5-5.597656 12.5-12.5 0-6.90625-5.597656-12.5-12.5-12.5zm0 0"/><path d="m330.585938 97.824219c-2.34375-2.34375-5.527344-3.664063-8.84375-3.664063-3.3125 0-6.492188 1.320313-8.835938 3.664063l-53.261719 53.265625c-18.566406 18.558594-18.566406 48.765625 0 67.328125 8.964844 8.964843 20.917969 13.902343 33.660157 13.902343 5.523437 0 10.894531-.9375 15.9375-2.714843v10.703125c0 8.492187-6.902344 15.398437-15.394532 15.398437-6.902344 0-12.5 5.597657-12.5 12.5 0 6.90625 5.597656 12.5 12.5 12.5 10.804688 0 20.640625-4.265625 27.894532-11.203125 7.257812 6.9375 17.089843 11.203125 27.902343 11.203125 6.898438 0 12.5-5.59375 12.5-12.5 0-6.902343-5.601562-12.5-12.5-12.5-8.492187 0-15.402343-6.90625-15.402343-15.398437v-10.703125c5.050781 1.777343 10.414062 2.714843 15.9375 2.714843 12.746093 0 24.703124-4.9375 33.667968-13.90625 18.566406-18.558593 18.558594-48.765624 0-67.324218zm35.582031 102.914062c-4.246094 4.246094-9.921875 6.582031-15.988281 6.582031-6.070313 0-11.742188-2.335937-15.984376-6.582031l-3.613281-3.609375c-.015625-.015625-.03125-.027344-.042969-.039062-.28125-.277344-.574218-.542969-.875-.789063-.148437-.125-.308593-.230469-.460937-.34375-.171875-.132812-.339844-.261719-.523437-.386719-.179688-.121093-.367188-.222656-.554688-.335937-.164062-.097656-.320312-.199219-.488281-.289063-.191407-.101562-.386719-.1875-.582031-.28125-.175782-.078124-.34375-.171874-.527344-.238281-.191406-.085937-.378906-.144531-.570313-.210937-.195312-.074219-.386719-.148438-.585937-.207032-.191406-.058593-.386719-.101562-.574219-.148437-.207031-.050781-.402344-.109375-.609375-.148437-.222656-.042969-.445312-.066407-.671875-.101563-.179687-.023437-.355469-.058594-.539063-.078125-.40625-.039062-.824218-.0625-1.234374-.0625-.410157 0-.824219.023438-1.230469.0625-.191407.019531-.371094.054688-.554688.078125-.222656.035156-.433593.058594-.65625.101563-.207031.039062-.414062.097656-.625.152343-.183593.046875-.375.085938-.558593.140625-.203126.0625-.402344.140625-.597657.210938-.183593.066406-.371093.125-.558593.203125-.183594.078125-.359376.167969-.539063.253906-.191406.089844-.382813.171875-.566406.273437-.171875.089844-.339844.195313-.503907.292969-.179687.113281-.367187.214844-.546874.332031-.179688.125-.351563.261719-.527344.390626-.152344.113281-.308594.222656-.453125.339843-.308594.257813-.613281.527344-.894531.808594-.003907.003906-.015626.011719-.019532.019531l-3.613281 3.609375c-4.242187 4.246094-9.921875 6.582031-15.984375 6.582031-6.066406 0-11.746094-2.335937-15.988281-6.582031-8.816407-8.8125-8.816407-23.160156 0-31.972656l44.425781-44.425781 44.421875 44.425781c8.8125 8.8125 8.8125 23.160156-.003906 31.972656zm0 0"/><path d="m436.78125 170.855469c-6.890625 0-12.5 5.613281-12.5 12.5 0 6.882812 5.609375 12.5 12.5 12.5 6.886719 0 12.5-5.617188 12.5-12.5 0-6.886719-5.613281-12.5-12.5-12.5zm0 0"/></svg>