<svg height="682pt" viewBox="-21 -83 682.66742 682" width="682pt" xmlns="http://www.w3.org/2000/svg"><g fill-rule="evenodd"><path d="m624.019531 36.429688c-10.488281-10.492188-25.285156-16.308594-40.628906-15.949219-15.65625.359375-30.050781 6.886719-40.519531 18.371093l-222.871094 244.492188-222.871094-244.484375c-10.46875-11.492187-24.859375-18.015625-40.515625-18.378906-15.320312-.339844-30.144531 5.457031-40.632812 15.949219-10.5 10.5-16.316407 25.289062-15.964844 40.578124.359375 15.683594 6.894531 30.09375 18.386719 40.570313l247.253906 225.386719-91.484375 100.355468-5.242187-5.242187c-4.882813-4.878906-12.796876-4.878906-17.679688 0-4.878906 4.882813-4.878906 12.796875 0 17.679687l38.945312 38.945313 14.503907 14.496094c2.441406 2.441406 5.636719 3.664062 8.835937 3.664062 3.199219 0 6.398438-1.222656 8.839844-3.664062 4.882812-4.878907 4.882812-12.792969 0-17.675781l-5.242188-5.242188 102.867188-93.777344 102.871094 93.777344-5.242188 5.238281c-4.878906 4.882813-4.878906 12.796875 0 17.679688 2.441406 2.4375 5.636719 3.65625 8.839844 3.65625 3.199219 0 6.398438-1.21875 8.839844-3.65625l53.441406-53.441407c4.878906-4.882812 4.878906-12.796874 0-17.679687-4.882812-4.878906-12.796875-4.878906-17.679688 0l-5.246093 5.238281-91.476563-100.351562 84.457032-76.992188c5.101562-4.648437 5.46875-12.554687.816406-17.65625-4.648438-5.101562-12.554688-5.46875-17.65625-.820312l-93.683594 85.394531c-.003906.003906-.007812.011719-.015625.015625-.003906.003906-.007813.007812-.011719.015625l-36.574218 33.339844c-.007813.003906-.015626.011719-.019532.019531l-112.226562 102.296875-7.566406-7.5625 369.476562-405.316406c5.824219-6.390625 13.863281-10.023438 22.621094-10.226563 8.550781-.222656 16.695312 2.949219 22.378906 8.632813 5.691406 5.695312 8.84375 13.828125 8.648438 22.324219-.203126 8.785156-3.839844 16.835937-10.242188 22.671874l-88.886719 81.027344c-5.101562 4.652344-5.46875 12.558594-.8125 17.660156 4.652344 5.101563 12.558594 5.46875 17.65625.816407l88.890625-81.027344c11.492188-10.484375 18.027344-24.890625 18.386719-40.570313.351563-15.289062-5.46875-30.078124-15.964844-40.578124zm-175.882812 424.585937-7.570313 7.5625-102.011718-92.988281 17.320312-15.785156zm-412.890625-361.910156c-6.398438-5.832031-10.035156-13.886719-10.242188-22.675781-.195312-8.496094 2.960938-16.628907 8.652344-22.324219 5.683594-5.683594 13.828125-8.855469 22.378906-8.632813 8.761719.207032 16.792969 3.835938 22.617188 10.226563l224.433594 246.199219-20.589844 22.589843zm0 0"/><path d="m265.800781 133.636719c14.203125 13.289062 33.261719 21.445312 54.199219 21.445312s40-8.15625 54.203125-21.449219c.328125-.257812.65625-.542968.964844-.839843 15.636719-15.101563 24.246093-35.390625 24.246093-57.125 0-21.738281-8.609374-42.023438-24.246093-57.128907-.308594-.296874-.632813-.574218-.964844-.839843-14.203125-13.289063-33.265625-21.449219-54.203125-21.449219-20.941406 0-40 8.160156-54.203125 21.449219-.332031.265625-.65625.542969-.960937.839843-15.640626 15.105469-24.253907 35.390626-24.253907 57.128907 0 21.734375 8.613281 42.023437 24.253907 57.125.304687.304687.632812.585937.964843.84375zm-.101562-61.332031c.023437-.378907.054687-.761719.085937-1.140626.058594-.722656.132813-1.4375.222656-2.148437.050782-.464844.105469-.925781.175782-1.382813.085937-.617187.203125-1.226562.316406-1.839843.195312-1.066407.417969-2.125.671875-3.171875.058594-.234375.113281-.472656.175781-.707032.207032-.796874.429688-1.585937.675782-2.367187.007812-.039063.023437-.078125.039062-.117187 1.335938-4.273438 3.1875-8.320313 5.476562-12.066407 5.164063 8.429688 7.910157 18.136719 7.910157 28.304688s-2.753907 19.875-7.910157 28.300781c-2.289062-3.742188-4.132812-7.785156-5.476562-12.050781-.011719-.046875-.03125-.089844-.042969-.140625-.242187-.777344-.464843-1.5625-.671875-2.351563-.0625-.242187-.117187-.488281-.175781-.730469-.257813-1.027343-.476563-2.074218-.671875-3.128906-.113281-.621094-.230469-1.238281-.316406-1.871094-.070313-.453124-.125-.910156-.175782-1.371093-.089843-.710938-.167968-1.429688-.222656-2.152344-.03125-.382813-.0625-.761719-.085937-1.148437-.070313-1.113282-.117188-2.230469-.117188-3.359376 0-1.121093.046875-2.242187.117188-3.359374zm106.277343-12.769532c.246094.789063.46875 1.582032.675782 2.382813.058594.230469.113281.457031.171875.683593.257812 1.0625.488281 2.136719.683593 3.21875.109376.601563.222657 1.203126.3125 1.808594.066407.457032.121094.921875.175782 1.386719.085937.710937.160156 1.425781.21875 2.140625.035156.382812.066406.769531.085937 1.148438.070313 1.113281.117188 2.230468.117188 3.359374 0 1.128907-.046875 2.246094-.117188 3.359376-.023437.386718-.050781.765624-.085937 1.148437-.058594.71875-.132813 1.433594-.21875 2.148437-.054688.457032-.109375.921876-.175782 1.382813-.089843.609375-.207031 1.214844-.3125 1.824219-.203124 1.074218-.425781 2.140625-.683593 3.195312-.058594.234375-.113281.460938-.171875.691406-.207032.800782-.429688 1.59375-.675782 2.375-.007812.039063-.023437.070313-.03125.105469-1.339843 4.277344-3.195312 8.324219-5.488281 12.074219-5.152343-8.425781-7.90625-18.132812-7.90625-28.304688 0-10.171874 2.75-19.871093 7.90625-28.304687 2.292969 3.753906 4.148438 7.808594 5.492188 12.078125.003906.039062.019531.070312.027343.097656zm-23.503906-30.21875c-9.683594 13.402344-14.921875 29.433594-14.921875 46.351563 0 16.914062 5.238281 32.945312 14.921875 46.347656-8.285156 5.113281-18.042968 8.066406-28.472656 8.066406-10.433594 0-20.183594-2.953125-28.476562-8.070312 9.6875-13.398438 14.925781-29.429688 14.925781-46.34375 0-16.917969-5.238281-32.949219-14.925781-46.347657 8.292968-5.117187 18.042968-8.070312 28.476562-8.070312s20.1875 2.953125 28.472656 8.066406zm0 0"/><path d="m487.335938 210.550781c-6.886719 0-12.5 5.617188-12.5 12.5 0 6.886719 5.613281 12.5 12.5 12.5 6.882812 0 12.5-5.613281 12.5-12.5 0-6.882812-5.617188-12.5-12.5-12.5zm0 0"/></g></svg>