<svg height="681pt" viewBox="-21 -138 681.33505 681" width="681pt" xmlns="http://www.w3.org/2000/svg"><g fill-rule="evenodd"><path d="m361.589844 216.21875c-6.886719 0-12.476563 5.585938-12.476563 12.476562v8.59375c0 6.890626 5.589844 12.476563 12.476563 12.476563 6.890625 0 12.472656-5.585937 12.472656-12.476563v-8.59375c0-6.890624-5.582031-12.476562-12.472656-12.476562zm0 0"/><path d="m361.589844 146.671875c-6.886719 0-12.476563 5.585937-12.476563 12.476563v8.59375c0 6.886718 5.589844 12.476562 12.476563 12.476562 6.890625 0 12.472656-5.589844 12.472656-12.476562v-8.59375c0-6.890626-5.582031-12.476563-12.472656-12.476563zm0 0"/><path d="m331.117188 185.742188h-8.597657c-6.890625 0-12.476562 5.589843-12.476562 12.472656 0 6.890625 5.585937 12.476562 12.476562 12.476562h8.597657c6.882812 0 12.472656-5.585937 12.472656-12.476562 0-6.882813-5.589844-12.472656-12.472656-12.472656zm0 0"/><path d="m400.664062 185.742188h-8.597656c-6.890625 0-12.476562 5.589843-12.476562 12.472656 0 6.890625 5.585937 12.476562 12.476562 12.476562h8.597656c6.882813 0 12.472657-5.585937 12.472657-12.476562 0-6.882813-5.589844-12.472656-12.472657-12.472656zm0 0"/><path d="m173.875 185.742188h-25.097656v-25.09375c0-6.886719-5.585938-12.472657-12.472656-12.472657-6.890626 0-12.472657 5.585938-12.472657 12.472657v25.09375h-25.097656c-6.886719 0-12.476563 5.589843-12.476563 12.472656 0 6.890625 5.589844 12.476562 12.476563 12.476562h25.089844v25.097656c0 6.886719 5.589843 12.472657 12.476562 12.472657 6.890625 0 12.476563-5.585938 12.476563-12.472657v-25.097656h25.097656c6.886719 0 12.46875-5.585937 12.46875-12.476562.007812-6.882813-5.582031-12.472656-12.46875-12.472656zm0 0"/><path d="m634.433594 198.84375-42.585938-136.128906c-2.96875-11.53125-7.59375-21.609375-13.757812-29.957032-17.582032-25.304687-46.328125-40.410156-76.9375-40.410156h-66.484375c-6.886719 0-12.46875 5.589844-12.46875 12.476563 0 6.890625 5.582031 12.476562 12.46875 12.476562h66.484375c22.488281 0 43.621094 11.144531 56.535156 29.816407.078125.113281.164062.230468.246094.339843 4.335937 5.84375 7.640625 13.152344 9.820312 21.738281.050782.21875.117188.441407.183594.652344l42.679688 136.445313c8.140624 26.007812 1.789062 40.363281-23.433594 52.976562-8.652344 4.328125-19.339844 4.558594-30.097656.660157-13.074219-4.738282-24.417969-15.058594-29.597657-26.929688l-30.90625-70.832031c-1.980469-4.546875-6.46875-7.484375-11.429687-7.484375h-4.582032c-6.886718 0-12.476562 5.585937-12.476562 12.476562 0 5.128906-1.539062 9.984375-4.269531 14.039063l-2.601563-8.332031c-2.839844-11.03125-7.21875-20.714844-12.984375-28.839844-.261719-.371094-.507812-.757813-.777343-1.121094-2.0625-2.96875-4.285157-5.792969-6.644532-8.472656-.148437-.175782-.300781-.355469-.453125-.523438-1.105469-1.238281-2.238281-2.4375-3.398437-3.609375-.171875-.167969-.335938-.347656-.507813-.519531-.988281-.980469-2.003906-1.929688-3.03125-2.859375-1.0625-.972656-2.140625-1.921875-3.246093-2.839844-.019532-.015625-.042969-.03125-.066407-.050781-14.367187-11.890625-32.023437-19.3125-50.742187-21.105469-1.832032-.171875-3.675782-.292969-5.519532-.363281-1.109374-.03125-2.214843-.0625-3.324218-.0625h-179.136719l10.214844-32.65625c.066406-.214844.128906-.429688.183593-.648438 2.183594-8.585937 5.488282-15.902343 9.820313-21.738281.082031-.113281.164063-.230469.242187-.339843 12.917969-18.671876 34.050782-29.816407 56.535157-29.816407h66.480469c6.890624 0 12.476562-5.589843 12.476562-12.476562 0-6.890625-5.585938-12.476563-12.476562-12.476563h-66.480469c-30.609375 0-59.351563 15.097656-76.933594 40.410156-6.160156 8.34375-10.789063 18.421876-13.757813 29.957032l-12.453124 39.789062h-27.484376c-30.601562 0-59.347656 15.097656-76.933593 40.40625-6.160157 8.347656-10.789063 18.425782-13.757813 29.960938l-42.582031 136.125c-11.777344 37.644531.027344 64.710937 36.089844 82.742187 8.042969 4.027344 16.863281 6.0625 26.214843 6.0625 27.820313 0 56.207032-18.785156 67.5-44.667969l18.941407-43.410156c9.1875 10.785156 22.863281 17.628906 38.105469 17.628906 23.289062 0 42.910156-15.988281 48.464843-37.566406h24.109375c5.554688 21.578125 25.179688 37.566406 48.46875 37.566406 16.957032 0 31.972656-8.476562 41.027344-21.417968l20.59375 47.199218c11.296875 25.886719 39.683594 44.671876 67.503906 44.667969 9.351563 0 18.167969-2.042969 26.214844-6.0625 36.0625-18.03125 47.867188-45.097656 36.089844-82.742187l-31.644532-101.164063c4.652344-3.324219 8.671876-7.378906 11.894532-11.988281l20.570312 47.136719c7.9375 18.203125 24.371094 33.304687 43.953125 40.40625 7.859375 2.851562 15.804688 4.269531 23.527344 4.269531 9.234375 0 18.15625-2.027344 26.238281-6.066406 36.058594-18.03125 47.863282-45.105469 36.085938-82.746094zm-177.875 170.582031c-4.550782 2.273438-9.613282 3.429688-15.058594 3.429688-18.054688 0-37.246094-12.769531-44.632812-29.699219l-30.90625-70.832031c-1.984376-4.546875-6.472657-7.484375-11.433594-7.484375h-4.582032c-6.890624 0-12.476562 5.582031-12.476562 12.472656 0 13.835938-11.253906 25.09375-25.089844 25.09375-13.839844 0-25.09375-11.257812-25.09375-25.09375 0-6.890625-5.589844-12.472656-12.476562-12.472656h-45.90625c-6.890625 0-12.472656 5.582031-12.472656 12.472656 0 13.835938-11.257813 25.09375-25.09375 25.09375-13.839844 0-25.097657-11.257812-25.097657-25.09375 0-5.90625-4.140625-11-9.925781-12.210938-5.78125-1.203124-11.617188 1.808594-13.984375 7.222657l-30.90625 70.832031c-7.386719 16.929688-26.578125 29.699219-44.632813 29.699219-5.441406 0-10.507812-1.15625-15.058593-3.429688-25.21875-12.613281-31.574219-26.96875-23.433594-52.984375l42.679687-136.4375c.066407-.21875.128907-.433594.183594-.652344 2.183594-8.585937 5.488282-15.894531 9.824219-21.738281.082031-.113281.167969-.226562.246094-.34375 12.914062-18.667969 34.042969-29.8125 56.527343-29.8125h232.769532c22.484375 0 43.621094 11.144531 56.535156 29.8125.078125.117188.160156.234375.242188.34375 4.335937 5.835938 7.636718 13.152344 9.820312 21.738281.054688.21875.117188.433594.183594.652344l8.027344 25.652344v.007812l34.652343 110.777344c8.144531 26.015625 1.789063 40.375-23.429687 52.984375zm0 0"/><path d="m384.769531 17.300781c6.871094 0 12.476563-5.605469 12.476563-12.476562 0-6.871094-5.605469-12.476563-12.476563-12.476563-6.871093 0-12.472656 5.605469-12.472656 12.476563 0 6.871093 5.601563 12.476562 12.472656 12.476562zm0 0"/></g></svg>