<svg height="682pt" viewBox="-21 -183 682.66669 682" width="682pt" xmlns="http://www.w3.org/2000/svg"><g fill-rule="evenodd"><path d="m639.945312 143.015625c-2.15625-85.019531-71.992187-153.515625-157.519531-153.515625h-11.222656c-.011719 0-.015625 0-.027344 0h-313.601562c-86.886719.003906-157.574219 70.6875-157.574219 157.578125 0 86.886719 70.6875 157.574219 157.574219 157.574219h112.351562c6.914063 0 12.519531-5.605469 12.519531-12.519532 0-6.914062-5.605468-12.519531-12.519531-12.519531h-88.613281v-265.074219h277.367188v265.074219h-88.605469c-6.914063 0-12.519531 5.605469-12.519531 12.519531 0 6.914063 5.605468 12.519532 12.519531 12.519532h112.351562c86.886719 0 157.574219-70.6875 157.574219-157.574219 0-1.355469-.019531-2.714844-.054688-4.0625zm-614.867187.65625c.007813-.378906.03125-.753906.042969-1.128906.027344-.753907.050781-1.503907.089844-2.257813.023437-.457031.058593-.917968.082031-1.378906.042969-.660156.078125-1.324219.128906-1.984375.03125-.46875.082031-.933594.125-1.402344.054687-.644531.109375-1.289062.171875-1.933593.046875-.496094.117188-.996094.171875-1.492188.066406-.605469.128906-1.214844.207031-1.828125.066406-.507813.144532-1.015625.214844-1.523437.078125-.589844.15625-1.175782.246094-1.761719.082031-.523438.175781-1.042969.257812-1.566407.09375-.566406.179688-1.132812.285156-1.695312.089844-.53125.199219-1.054688.300782-1.582031.101562-.550781.207031-1.109375.316406-1.660157.109375-.527343.230469-1.058593.34375-1.585937.121094-.542969.234375-1.078125.355469-1.621094.121093-.53125.257812-1.058593.386719-1.59375.132812-.527343.253906-1.058593.390624-1.585937.132813-.527344.28125-1.050782.421876-1.570313.144531-.527343.28125-1.054687.425781-1.578125.148437-.519531.308593-1.035156.460937-1.554687.15625-.519531.308594-1.042969.46875-1.566407.160156-.515624.332032-1.03125.496094-1.546874.167969-.511719.328125-1.027344.503906-1.535157.175782-.519531.363282-1.035156.542969-1.546875.175781-.503906.34375-1.011718.53125-1.507812.1875-.511719.386719-1.019532.582031-1.535156.183594-.492188.371094-.988282.558594-1.484376.207031-.511718.417969-1.019531.625-1.53125.195312-.484374.390625-.96875.59375-1.445312.21875-.511719.445312-1.019531.664062-1.523438.210938-.480468.410157-.953124.625-1.425781.226563-.503906.460938-1.007812.695313-1.503906.222656-.46875.4375-.9375.660156-1.40625.234375-.492187.488281-.988281.734375-1.480469.230469-.464844.453125-.925781.6875-1.386718.253906-.496094.511719-.984376.769532-1.480469.242187-.449219.476562-.902344.71875-1.351563.265624-.488281.539062-.972656.8125-1.453125.25-.445312.492187-.894531.746093-1.335937.273438-.480469.5625-.960938.84375-1.4375.261719-.4375.511719-.875.773438-1.304688.285156-.480468.585937-.953125.882812-1.421875.261719-.429687.53125-.863281.804688-1.289062.300781-.464844.601562-.921875.902343-1.386719.285157-.425781.558594-.855469.847657-1.273438.308593-.464843.625-.917968.941406-1.378906.289063-.410156.570313-.828125.863281-1.238281.324219-.453125.65625-.902344.980469-1.359375.296875-.402344.585937-.808594.890625-1.214844.332031-.445312.667969-.882812 1.007812-1.324218.304688-.398438.609376-.804688.921876-1.199219.339843-.433594.6875-.863281 1.035156-1.300781.316406-.390626.628906-.785157.949218-1.175782.351563-.429687.714844-.855468 1.070313-1.273437.328125-.386719.644531-.773438.972656-1.152344.367188-.421875.738281-.835937 1.105469-1.25.328125-.375.664062-.757813 1-1.128906.371094-.410157.75-.816407 1.125-1.21875.34375-.371094.6875-.742188 1.03125-1.109375.375-.402344.765625-.796875 1.152344-1.191406.351562-.363282.703125-.722657 1.054687-1.078126.390625-.390624.792969-.78125 1.1875-1.167968.355469-.351563.714844-.707032 1.078125-1.054688.394532-.382812.800782-.757812 1.203125-1.132812.371094-.347656.742188-.695313 1.117188-1.035156.40625-.375.820312-.742188 1.230469-1.109376.375-.335937.75-.671874 1.132812-1.003906.414062-.363281.839844-.71875 1.257812-1.074218.386719-.328126.773438-.660157 1.164063-.984376.421875-.351562.851563-.695312 1.28125-1.042968.394531-.316406.785156-.640625 1.183594-.953125.429687-.339844.863281-.671875 1.300781-1.011719.40625-.3125.808594-.625 1.214844-.929688.441406-.332031.882812-.65625 1.328125-.984374.410156-.296876.820312-.597657 1.230469-.898438.449218-.316406.902343-.632812 1.351562-.945312.421875-.292969.839844-.585938 1.261719-.875.453125-.308594.910156-.609376 1.371093-.917969.425782-.28125.851563-.5625 1.28125-.84375.460938-.296875.925782-.585938 1.394532-.878907.433594-.273437.863281-.546874 1.304687-.816406.464844-.289062.9375-.566406 1.40625-.84375.441407-.265625.886719-.53125 1.335938-.792968.46875-.273438.941406-.539063 1.417969-.804688.453124-.253906.90625-.511719 1.359374-.761719.480469-.261719.96875-.515625 1.445313-.777343.460937-.242188.921875-.492188 1.378906-.726563.484375-.25.972657-.492187 1.460938-.738281.46875-.234375.9375-.472656 1.410156-.703125.488281-.238281.976563-.46875 1.464844-.695313.480469-.226562.953125-.449218 1.433593-.671875.496094-.226562.992188-.441406 1.492188-.667969.484375-.210937.964844-.425781 1.449219-.632812.496093-.210938 1-.421875 1.5-.625.492187-.207031.980469-.40625 1.480469-.605469.5-.203125 1.007812-.398437 1.515624-.59375.5-.1875.992188-.378906 1.492188-.566406.507812-.1875 1.019531-.371094 1.527344-.550781.507812-.179688 1.015625-.359375 1.523437-.535156.507813-.175782 1.023438-.34375 1.535157-.515626.515624-.167968 1.027343-.339843 1.550781-.5.511719-.164062 1.023437-.320312 1.542969-.476562.523437-.160156 1.042968-.316406 1.566406-.46875.519531-.148438 1.039062-.292969 1.566406-.4375.523438-.140625 1.050781-.289062 1.574219-.425781.527343-.136719 1.054687-.269531 1.582031-.398438.53125-.132812 1.0625-.265625 1.59375-.390625.53125-.128906 1.0625-.246094 1.59375-.363281.539062-.121094 1.074219-.238281 1.609375-.351563.535156-.113281 1.070313-.21875 1.601563-.320312.546874-.109375 1.089843-.214844 1.632812-.3125.539062-.097656 1.074219-.191406 1.609375-.285156.554687-.09375 1.105469-.191406 1.65625-.273438.53125-.085937 1.070313-.164062 1.609375-.238281.558594-.082031 1.117188-.167969 1.683594-.238281.535156-.070313 1.078125-.132813 1.613281-.203125.5625-.066407 1.125-.128907 1.691406-.1875.546875-.058594 1.089844-.113281 1.636719-.164063.566406-.050781 1.132812-.105468 1.703125-.148437.546875-.046875 1.09375-.085938 1.640625-.125.570312-.039063 1.140625-.078125 1.714844-.105469.550781-.03125 1.105468-.054688 1.660156-.078125.570312-.03125 1.148438-.050781 1.722656-.070313.550782-.011718 1.109375-.023437 1.660156-.03125.359376-.011718.722657-.015624 1.085938-.015624v265.039062c-.363281 0-.726562-.003906-1.085938-.011719-.550781-.007812-1.109374-.023437-1.660156-.039062-.574218-.011719-1.152344-.039063-1.722656-.0625-.554688-.023438-1.109375-.046875-1.660156-.082031-.574219-.03125-1.144532-.070313-1.714844-.109376-.546875-.039062-1.09375-.070312-1.640625-.117187-.570313-.046875-1.136719-.101563-1.703125-.148437-.546875-.054688-1.089844-.109376-1.636719-.167969-.566406-.058594-1.128906-.121094-1.691406-.191407-.535156-.0625-1.078125-.125-1.613281-.199218-.566406-.074219-1.125-.15625-1.683594-.238282-.539062-.074218-1.078125-.152343-1.609375-.234374-.550781-.089844-1.101563-.1875-1.65625-.277344-.535156-.09375-1.070313-.183594-1.609375-.285156-.542969-.097657-1.085938-.203126-1.632812-.3125-.53125-.101563-1.066407-.210938-1.601563-.320313-.535156-.113281-1.070313-.230469-1.609375-.351563-.53125-.117187-1.0625-.234374-1.59375-.363281-.53125-.125-1.0625-.257812-1.59375-.390625-.527344-.132812-1.054688-.261718-1.582031-.398437-.523438-.136719-1.050781-.285157-1.574219-.425781-.527344-.148438-1.046875-.289063-1.566406-.441407-.523438-.148437-1.042969-.304687-1.566406-.46875-.519532-.15625-1.03125-.3125-1.542969-.472656-.523438-.164063-1.035157-.332031-1.550781-.503906-.511719-.167969-1.023438-.335938-1.535157-.511719-.507812-.175781-1.015625-.355469-1.523437-.535156-.507813-.183594-1.019532-.363282-1.527344-.554688-.5-.183594-.992188-.375-1.492188-.566406-.507812-.195312-1.015624-.390625-1.515624-.589844-.5-.199218-.988282-.398437-1.480469-.605468-.5-.203126-1.003907-.410157-1.5-.625-.488281-.210938-.964844-.425782-1.449219-.632813-.5-.226563-.996094-.445313-1.492188-.671875-.480468-.21875-.953124-.441406-1.433593-.667969-.488281-.230469-.976563-.457031-1.464844-.699219-.472656-.226562-.941406-.46875-1.410156-.703124-.488281-.242188-.976563-.488282-1.460938-.734376-.457031-.234374-.917969-.484374-1.378906-.730468-.480469-.257813-.964844-.511719-1.445313-.773438-.453124-.25-.90625-.503906-1.359374-.761718-.476563-.265626-.949219-.535157-1.417969-.808594-.449219-.257813-.894531-.527344-1.335938-.789063-.46875-.277343-.941406-.558593-1.40625-.84375-.441406-.269531-.871093-.542969-1.304687-.816406-.46875-.292969-.933594-.582031-1.394532-.878906-.429687-.285157-.855468-.5625-1.28125-.84375-.460937-.304688-.917968-.605469-1.371093-.914063-.421875-.289062-.839844-.585937-1.261719-.878906-.449219-.3125-.902344-.625-1.351562-.949219-.410157-.292969-.820313-.59375-1.230469-.898437-.445313-.324219-.886719-.648438-1.328125-.980469-.40625-.300781-.808594-.621094-1.214844-.925781-.4375-.339844-.871094-.671875-1.300781-1.011719-.398438-.316406-.789063-.640625-1.183594-.957031-.429687-.347656-.859375-.695313-1.28125-1.046875-.390625-.320313-.777344-.648438-1.164063-.976563-.417968-.359375-.84375-.714844-1.257812-1.078125-.382812-.332031-.757812-.667969-1.132812-1.003906-.410157-.367187-.824219-.734375-1.230469-1.105469-.375-.339844-.746094-.691406-1.117188-1.039062-.402343-.375-.808593-.753906-1.203125-1.132813-.363281-.347656-.722656-.699219-1.078125-1.054687-.394531-.386719-.796875-.773438-1.1875-1.167969-.351562-.355469-.703125-.71875-1.054687-1.078125-.386719-.394531-.777344-.792969-1.152344-1.191406-.34375-.367188-.6875-.738282-1.03125-1.109375-.378906-.40625-.753906-.808594-1.125-1.21875-.335938-.371094-.671875-.753907-1-1.125-.367188-.417969-.738281-.835938-1.105469-1.253907-.328125-.382812-.644531-.765624-.972656-1.148437-.355469-.425781-.71875-.847656-1.070313-1.277344-.320312-.386719-.632812-.789062-.949218-1.179687-.347656-.429688-.695313-.863282-1.035156-1.296875-.3125-.394531-.617188-.800781-.921876-1.203125-.339843-.4375-.675781-.878906-1.007812-1.320313-.304688-.402343-.59375-.8125-.890625-1.21875-.324219-.449219-.65625-.902343-.980469-1.355469-.292968-.410156-.574218-.824218-.863281-1.242187-.316406-.453125-.632813-.910156-.941406-1.375-.289063-.421875-.5625-.84375-.847657-1.269531-.300781-.464844-.601562-.921875-.902343-1.386719-.273438-.429687-.542969-.859375-.804688-1.289063-.296875-.472656-.597656-.941406-.882812-1.421874-.261719-.433594-.511719-.867188-.773438-1.304688-.28125-.480469-.570312-.957031-.84375-1.4375-.253906-.445312-.496093-.890625-.746093-1.335938-.273438-.480468-.546876-.964843-.8125-1.457031-.242188-.445312-.476563-.898437-.71875-1.355469-.257813-.492187-.515626-.980468-.769532-1.472656-.234375-.460937-.457031-.929687-.6875-1.386718-.246094-.492188-.5-.988282-.734375-1.484376-.222656-.464843-.4375-.933593-.660156-1.402343-.234375-.503907-.46875-1-.695313-1.507813-.214843-.46875-.414062-.949218-.625-1.421875-.21875-.507812-.449218-1.011719-.664062-1.523437-.203125-.476563-.390625-.960938-.59375-1.445313-.207031-.511719-.417969-1.019531-.625-1.539062-.1875-.492188-.375-.984375-.558594-1.476563-.195312-.515625-.394531-1.023437-.582031-1.539062-.1875-.5-.355469-1-.53125-1.503906-.1875-.511719-.371094-1.027344-.542969-1.546876-.175781-.507812-.335937-1.023437-.503906-1.535156-.164062-.515625-.335938-1.03125-.496094-1.546875-.160156-.523437-.3125-1.046875-.46875-1.574219-.152344-.511718-.3125-1.027343-.460937-1.546874-.144531-.523438-.28125-1.050782-.425781-1.578126-.140626-.519531-.289063-1.042968-.421876-1.570312-.136718-.527344-.257812-1.058594-.390624-1.585938-.128907-.535156-.265626-1.0625-.386719-1.597656-.128907-.539062-.234375-1.078125-.355469-1.617187-.113281-.53125-.234375-1.058594-.34375-1.589844-.109375-.554687-.214844-1.105469-.316406-1.65625-.101563-.527344-.210938-1.054687-.300782-1.582031-.105468-.5625-.1875-1.128906-.285156-1.695313-.082031-.523437-.179687-1.042969-.257812-1.566406-.089844-.585937-.167969-1.175781-.246094-1.761719-.070312-.507812-.148438-1.015625-.214844-1.53125-.078125-.605468-.140625-1.214844-.207031-1.824218-.054687-.492188-.125-.992188-.171875-1.488282-.0625-.644531-.117188-1.289062-.171875-1.933594-.039063-.46875-.085937-.933593-.125-1.402343-.050781-.660157-.085937-1.324219-.128906-1.984375-.023438-.457032-.0625-.921875-.082031-1.378906-.039063-.753907-.0625-1.503907-.089844-2.257813-.011719-.375-.035156-.75-.042969-1.128906-.03125-1.132813-.039063-2.265625-.039063-3.40625 0-1.136719.015626-2.269531.039063-3.402344zm589.84375 6.808594c-.007813.382812-.03125.753906-.042969 1.128906-.027344.753906-.050781 1.503906-.089844 2.257813-.019531.460937-.058593.921874-.082031 1.378906-.042969.664062-.078125 1.324218-.128906 1.984375-.03125.46875-.082031.933593-.125 1.402343-.054687.644532-.109375 1.292969-.171875 1.933594-.046875.5-.117188.996094-.171875 1.492188-.066406.605468-.128906 1.222656-.207031 1.828125-.066406.507812-.144532 1.015625-.214844 1.523437-.078125.589844-.15625 1.175782-.246094 1.761719-.082031.535156-.175781 1.070313-.269531 1.605469-.085937.550781-.171875 1.105468-.273437 1.65625-.09375.535156-.203126 1.074218-.304688 1.609375-.101562.542969-.203125 1.089843-.3125 1.632812-.109375.527344-.230469 1.058594-.34375 1.585938-.121094.542969-.234375 1.078125-.355469 1.621093-.128906.542969-.261719 1.078126-.390625 1.621094-.128906.519532-.25 1.039063-.378906 1.554688-.144531.550781-.300781 1.101562-.445312 1.648437-.136719.5-.269532 1-.410157 1.5-.152343.546875-.324219 1.089844-.484375 1.640625-.144531.488282-.289062.984375-.441406 1.480469-.167969.535156-.34375 1.066406-.519531 1.605469-.160157.492187-.3125.984375-.484375 1.480468-.179688.535157-.371094 1.066407-.5625 1.605469-.167969.476563-.332032.960938-.507813 1.441407-.195312.535156-.402343 1.066406-.605469 1.605468-.179687.46875-.355468.941406-.539062 1.410156-.210938.539063-.429688 1.070313-.652344 1.601563-.191406.460937-.371094.921875-.566406 1.378906-.222656.535157-.460938 1.066407-.695312 1.601563-.195313.449218-.386719.898437-.585938 1.339844-.242188.535156-.496094 1.066406-.738281 1.59375-.207031.4375-.410157.882812-.621094 1.316406-.253906.527344-.515625 1.050781-.777344 1.578125-.214843.429687-.425781.863281-.644531 1.292969-.265625.527343-.546875 1.046874-.824219 1.574218-.21875.417969-.441406.839844-.664062 1.253906-.285157.519532-.570313 1.035157-.859375 1.546876-.234375.417968-.457032.832031-.699219 1.246093-.292969.507813-.59375 1.015625-.898437 1.523438-.238282.40625-.472657.816406-.722657 1.222656-.300781.507813-.621093 1.003906-.933593 1.507813-.246094.398437-.496094.800781-.746094 1.195312-.316406.5-.644532.988281-.972656 1.480469-.257813.394531-.511719.789062-.773438 1.179687-.332031.496094-.671875.976563-1.007812 1.464844-.265626.382812-.53125.773438-.800782 1.152344-.339844.484375-.691406.957031-1.039062 1.4375-.277344.378906-.550782.761718-.832032 1.132812-.351562.472656-.710937.941406-1.070312 1.410156-.285156.371094-.570312.746094-.855469 1.113282-.367187.46875-.738281.933594-1.113281 1.390625-.289062.363281-.578125.730469-.871094 1.085937-.378906.464844-.765625.917969-1.152344 1.371094-.296874.351562-.589843.707031-.890624 1.054688-.386719.449218-.789063.894531-1.179688 1.339843-.304688.34375-.609375.695313-.921875 1.039063-.394531.4375-.800781.867187-1.203125 1.304687-.316406.339844-.632812.6875-.953125 1.023438-.40625.429687-.820313.851562-1.238281 1.273437-.320313.332032-.644532.671875-.972656 1.003906-.417969.417969-.84375.828126-1.261719 1.242188-.332031.328125-.664063.65625-1.003907.976562-.421874.40625-.859374.808594-1.289062 1.210938-.339844.320312-.675781.640625-1.023438.957031-.4375.398438-.878906.792969-1.324218 1.183594-.347656.3125-.691406.621094-1.039063.925781-.449219.390625-.902343.773438-1.351562 1.152344-.355469.304688-.707031.605469-1.070313.90625-.453125.375-.914062.75-1.371094 1.117188-.367187.296874-.726562.589843-1.09375.882812-.460937.363281-.929687.722656-1.390624 1.078125-.378907.289063-.75.578125-1.125.859375-.472657.359375-.945313.703125-1.421876 1.050781-.378906.277344-.757812.558594-1.140624.832031-.476563.339844-.957032.675782-1.441407 1.015626-.390625.265624-.777343.539062-1.167969.808593-.484374.328125-.96875.648438-1.460937.972657-.394531.261718-.792969.527343-1.1875.785156-.496094.316406-.992187.628906-1.484375.9375-.40625.253906-.808594.507812-1.21875.757812-.492188.308594-.996094.605469-1.492188.902344-.414062.246094-.832031.492188-1.25.738281-.5.289063-1 .570313-1.507812.855469-.421875.238281-.847656.476562-1.273438.710938-.507812.277343-1.015624.550781-1.527343.820312-.433594.230469-.863281.460938-1.296875.683594-.507813.265625-1.019532.523437-1.535156.777344-.445313.222656-.886719.445312-1.332032.664062-.511718.25-1.027344.492188-1.542968.730469-.449219.214843-.902344.429687-1.359376.636719-.515624.238281-1.039062.46875-1.5625.703124-.457031.199219-.914062.398438-1.375.601563-.523437.222656-1.050781.4375-1.578124.65625-.460938.191406-.929688.386719-1.398438.574219-.53125.207031-1.0625.414062-1.59375.617187-.472656.183594-.945312.367188-1.421875.542969-.527344.195312-1.0625.386719-1.589844.578125-.488281.167969-.972656.34375-1.460937.511719-.527344.183594-1.066406.355468-1.597656.53125-.492188.167968-.984376.328125-1.484376.488281-.53125.167969-1.070312.328125-1.605468.488281-.503906.152344-1.003906.304688-1.507813.449219-.539062.15625-1.082031.308594-1.621093.453125-.507813.144531-1.015626.28125-1.523438.417969-.542969.140625-1.085938.273437-1.625.410156-.519531.128906-1.03125.257813-1.554688.378906-.542968.128907-1.085937.25-1.632812.371094-.523438.117187-1.042969.230469-1.570312.34375-.546876.109375-1.09375.222656-1.640626.332031-.53125.101563-1.058593.203125-1.59375.300782-.546874.101562-1.097656.195312-1.644531.289062-.542969.09375-1.078125.183594-1.621093.269531-.546876.085938-1.09375.164063-1.640626.242188-.546874.078125-1.097656.160156-1.648437.234375-.546875.074218-1.101563.136718-1.648437.199218-.550782.070313-1.105469.132813-1.664063.191407-.546875.058593-1.097656.113281-1.65625.167969-.554687.050781-1.117187.101562-1.683594.148437-.546875.046875-1.101562.078125-1.652343.117187-.570313.039063-1.132813.078126-1.703126.109376-.554687.035156-1.109374.058593-1.667968.082031-.570313.023437-1.144532.042969-1.714844.0625-.554688.015625-1.113281.027343-1.664062.035156-.359376.011719-.722657.015625-1.085938.015625v-265.039062c.40625.003906.808594.007812 1.210938.015624.492187.007813.972656.019532 1.460937.03125.644531.019532 1.285156.046876 1.925781.074219.488282.023438.976563.042969 1.457032.074219.640624.035156 1.277343.074219 1.910156.117188.484375.035156.96875.066406 1.449218.105468.636719.050782 1.265626.109375 1.898438.171875.480469.042969.964844.089844 1.445312.140625.625.066406 1.25.136719 1.875.214844.476563.054688.960938.113281 1.4375.175781.621094.085938 1.234376.171875 1.851563.261719.484375.070312.960937.140625 1.441406.214844.609375.097656 1.214844.199218 1.820313.304687.484375.078125.964844.164063 1.445312.25.601563.113281 1.199219.230469 1.800782.347657.476562.09375.953124.183593 1.429687.289062.597656.125 1.1875.253906 1.78125.390625.476563.105469.953125.207031 1.429687.320313.585938.136718 1.164063.285156 1.746094.429687.480469.117187.957032.238281 1.4375.363281.570313.148438 1.140625.304688 1.714844.460938.476562.132812.953125.265625 1.433594.402344.566406.164062 1.128906.335937 1.691406.507812.476562.140625.949219.289062 1.421875.433594.558594.175781 1.117187.363281 1.667969.542968.472656.15625.945312.3125 1.414062.472657.550782.191406 1.097656.386719 1.640625.582031.472657.164062.941407.332031 1.410157.507812.539062.199219 1.070312.40625 1.601562.609376.476562.179687.949219.363281 1.417969.550781.527343.210937 1.054687.425781 1.578125.644531.46875.191406.9375.386719 1.402344.585938.515624.222656 1.03125.449218 1.550781.679687.464843.207031.925781.410156 1.390625.621094.507812.234375 1.015625.472656 1.523437.710937.460938.222656.917969.4375 1.378907.65625.5.242188.996093.492188 1.492187.742188.460937.234375.921875.464844 1.378906.699218.488281.253907.964844.507813 1.449219.765626.460938.242187.917969.488281 1.375.738281.480469.261719.953125.53125 1.429688.800781.453124.253906.90625.507812 1.355468.769531.46875.269531.933594.546875 1.394532.824219.453124.269531.90625.539062 1.351562.808594.457031.28125.90625.566406 1.359375.851562.445313.28125.894531.558594 1.339844.847656.441406.285157.886719.585938 1.332031.878907s.882812.585937 1.320312.882812c.4375.292969.867188.601563 1.300782.898438.441406.308593.878906.613281 1.316406.921875.421875.304687.84375.617187 1.261719.921875.433593.320312.871093.636719 1.300781.957031.414062.320312.824219.636719 1.238281.957031.425781.328125.855469.65625 1.277344.988281.402344.320313.804687.648438 1.210937.976563.417969.335937.835938.679687 1.257813 1.023437.394531.328126.78125.660157 1.171875.992188.421875.355469.835938.707031 1.246094 1.066406.386718.335938.761718.671875 1.140625 1.015625.410156.363281.820312.726563 1.226562 1.097657.375.339843.746094.691406 1.117188 1.039062.402343.375.808593.746094 1.203125 1.128906.363281.351563.726562.707032 1.089844 1.0625.390624.386719.785156.769532 1.175781 1.160156.351562.359376.703125.722657 1.054687 1.082032.386719.394531.769532.792968 1.152344 1.191406.34375.367188.6875.738281 1.03125 1.109375.378906.40625.753906.808594 1.125 1.21875.335938.371094.664062.742187.992188 1.121094.371093.417969.746093.839843 1.113281 1.257812.324219.375.640625.757813.960937 1.136719.363282.429688.722656.859375 1.085938 1.296875.3125.378906.621094.769531.933594 1.15625.351562.4375.707031.875 1.054687 1.316406.300781.390625.597656.789063.902344 1.179688.339843.449219.6875.890625 1.023437 1.347656.292969.394531.582032.792969.875 1.195313.332032.453124.664063.914062.996094 1.371093.28125.40625.5625.816407.84375 1.226563.324219.464844.644531.921875.960938 1.390625.28125.410156.546874.824219.816406 1.242187.3125.472656.625.945313.933594 1.425782.265624.410156.515624.828124.777343 1.242187.300781.488281.609375.972656.90625 1.460937.253907.421876.503907.851563.753907 1.269532.292968.492187.585937.980468.867187 1.480468.246094.425782.480469.859376.722656 1.289063.277344.496094.5625.996094.832031 1.503906.234376.429688.457032.863281.6875 1.296875.273438.507813.542969 1.015625.804688 1.53125.226562.4375.441406.886719.660156 1.332032.253906.507812.511719 1.019531.761719 1.53125.214844.449218.425781.910156.632813 1.363281.242187.511719.484374 1.03125.71875 1.546875.210937.460937.40625.925781.605468 1.382812.230469.523438.460938 1.039063.683594 1.5625.195312.46875.386719.941406.578125 1.417969.214844.519531.433594 1.039063.640625 1.566406.183594.476563.363281.960938.546875 1.441407.199219.519531.402344 1.042968.59375 1.574218.179687.488282.347656.976563.523437 1.472656.183594.527344.375 1.046876.550782 1.582032.171875.492187.328125.996094.488281 1.492187.171875.53125.347656 1.058594.511719 1.59375.15625.496094.300781.996094.449218 1.496094.164063.542969.324219 1.074219.480469 1.621094.140625.503906.273438 1.011719.410157 1.519531.144531.542969.296874 1.085938.4375 1.632812.132812.515626.257812 1.042969.386718 1.566407.132813.535156.269532 1.070312.390625 1.605469.128907.542968.238281 1.085937.355469 1.625.113281.527343.234375 1.054687.34375 1.582031.109375.542969.210938 1.089843.3125 1.636719.101562.539062.210938 1.070312.304688 1.605468.101562.554688.1875 1.113282.28125 1.671875.085937.527344.179687 1.054688.261718 1.585938.089844.589843.167969 1.183593.246094 1.773437.070312.507813.148438 1.011719.214844 1.519532.078125.605468.140625 1.214843.207031 1.824218.054687.5.125.992188.171875 1.496094.0625.644531.117188 1.292969.171875 1.941406.042969.464844.085937.921875.125 1.390625.050781.660157.085937 1.324219.128906 1.988281.023438.460938.0625.917969.082031 1.378907.039063.75.0625 1.503906.089844 2.253906.011719.375.035156.753906.042969 1.128906.03125 1.132813.039063 2.269531.039063 3.40625 0 1.140625-.015626 2.265625-.039063 3.398438zm0 0"/><path d="m52.960938 159.59375h25.179687v25.179688c0 6.914062 5.605469 12.519531 12.519531 12.519531 6.910156 0 12.511719-5.605469 12.511719-12.519531v-25.179688h25.183594c6.914062 0 12.519531-5.605469 12.519531-12.515625 0-6.914063-5.605469-12.519531-12.519531-12.519531h-25.183594v-25.179688c0-6.914062-5.601563-12.519531-12.511719-12.519531-6.914062 0-12.519531 5.605469-12.519531 12.519531v25.179688h-25.179687c-6.914063 0-12.523438 5.605468-12.523438 12.519531 0 6.910156 5.609375 12.515625 12.523438 12.515625zm0 0"/><path d="m588.550781 134.558594h-8.628906c-6.914063 0-12.519531 5.605468-12.519531 12.519531s5.605468 12.519531 12.519531 12.519531h8.628906c6.910157 0 12.511719-5.605468 12.511719-12.519531s-5.597656-12.519531-12.511719-12.519531zm0 0"/><path d="m518.757812 134.558594h-8.625c-6.910156 0-12.515624 5.605468-12.515624 12.519531s5.605468 12.519531 12.515624 12.519531h8.625c6.914063 0 12.523438-5.605468 12.523438-12.519531s-5.609375-12.519531-12.523438-12.519531zm0 0"/><path d="m549.339844 165.140625c-6.914063 0-12.511719 5.605469-12.511719 12.519531v8.621094c0 6.914062 5.597656 12.519531 12.511719 12.519531 6.914062 0 12.519531-5.605469 12.519531-12.519531v-8.621094c0-6.914062-5.605469-12.519531-12.519531-12.519531zm0 0"/><path d="m549.339844 95.351562c-6.914063 0-12.511719 5.605469-12.511719 12.519532v8.625c0 6.914062 5.597656 12.519531 12.511719 12.519531 6.914062 0 12.519531-5.605469 12.519531-12.519531v-8.625c0-6.914063-5.605469-12.519532-12.519531-12.519532zm0 0"/><path d="m377.425781 240.449219c1.402344.507812 2.851563.753906 4.292969.753906 3.453125 0 6.828125-1.429687 9.242188-4.070313 3.421874-3.746093 4.25-9.191406 2.085937-13.78125l-61.722656-130.976562c-2.066407-4.378906-6.476563-7.175781-11.324219-7.175781s-9.257812 2.796875-11.324219 7.175781l-61.722656 130.976562c-2.164063 4.589844-1.335937 10.035157 2.085937 13.78125 3.421876 3.746094 8.769532 5.054688 13.535157 3.316407l57.425781-20.96875zm-94.847656-33.960938 37.421875-79.410156 37.421875 79.410156-33.128906-12.09375c-2.773438-1.011719-5.8125-1.011719-8.585938 0zm0 0"/><path d="m320 279.613281c-6.894531 0-12.519531 5.625-12.519531 12.519531 0 6.894532 5.625 12.519532 12.519531 12.519532s12.519531-5.625 12.519531-12.519532c0-6.894531-5.625-12.519531-12.519531-12.519531zm0 0"/></g></svg>