<?xml version="1.0" encoding="iso-8859-1"?>
<!-- Generator: Adobe Illustrator 18.0.0, SVG Export Plug-In . SVG Version: 6.00 Build 0)  -->
<!DOCTYPE svg PUBLIC "-//W3C//DTD SVG 1.1//EN" "http://www.w3.org/Graphics/SVG/1.1/DTD/svg11.dtd">
<svg version="1.1" id="Capa_1" xmlns="http://www.w3.org/2000/svg" xmlns:xlink="http://www.w3.org/1999/xlink" x="0px" y="0px"
	 viewBox="0 0 493.133 493.133" style="enable-background:new 0 0 493.133 493.133;" xml:space="preserve">
<g>
	<rect x="175.055" y="220.564" width="143.022" height="65.418"/>
	<path d="M175.055,302.335v43.179c0,22.383,18.223,40.598,40.599,40.598h61.824c22.376,0,40.599-18.215,40.599-40.598v-43.179
		h-71.511H175.055z"/>
	<path d="M481.062,301.147l-97.568-45.709v-45.646l83.69,39.21c2.233,1.046,4.598,1.541,6.931,1.541
		c6.149,0,12.042-3.481,14.819-9.416c3.832-8.176,0.305-17.918-7.873-21.75l-97.568-45.71v-9.016
		C383.493,85.425,298.823,0,246.566,0S109.64,85.425,109.64,164.65v9.016l-97.568,45.71c-8.177,3.832-11.705,13.574-7.873,21.75
		c2.778,5.935,8.67,9.416,14.819,9.416c2.333,0,4.698-0.495,6.931-1.541l83.69-39.21v45.646l-97.568,45.709
		c-8.177,3.832-11.705,13.575-7.873,21.752c2.778,5.934,8.67,9.414,14.819,9.414c2.333,0,4.698-0.494,6.931-1.541l83.69-39.208
		v115.71c0,47.417,38.438,85.859,85.859,85.859h102.135c47.421,0,85.859-38.442,85.859-85.859v-115.71l83.69,39.208
		c2.233,1.047,4.598,1.541,6.931,1.541c6.149,0,12.042-3.48,14.819-9.414C492.766,314.722,489.239,304.979,481.062,301.147z
		 M342.61,345.514c0,35.91-29.227,65.129-65.131,65.129h-61.824c-35.905,0-65.131-29.219-65.131-65.129V196.13
		c0-43.313,38.606-92.419,67.123-108.939c10.72-6.21,20.188-9.366,28.92-9.366s18.2,3.156,28.92,9.366
		c28.517,16.521,67.123,65.626,67.123,108.939V345.514z"/>
	<path d="M246.566,104.657c-27.824,1.872-71.511,57.899-71.511,91.473v8.081h143.022v-8.081
		C318.078,162.557,274.391,106.529,246.566,104.657z"/>
</g>
<g>
</g>
<g>
</g>
<g>
</g>
<g>
</g>
<g>
</g>
<g>
</g>
<g>
</g>
<g>
</g>
<g>
</g>
<g>
</g>
<g>
</g>
<g>
</g>
<g>
</g>
<g>
</g>
<g>
</g>
</svg>
