<?xml version="1.0" encoding="iso-8859-1"?>
<!-- Generator: Adobe Illustrator 18.0.0, SVG Export Plug-In . SVG Version: 6.00 Build 0)  -->
<!DOCTYPE svg PUBLIC "-//W3C//DTD SVG 1.1//EN" "http://www.w3.org/Graphics/SVG/1.1/DTD/svg11.dtd">
<svg version="1.1" id="Capa_1" xmlns="http://www.w3.org/2000/svg" xmlns:xlink="http://www.w3.org/1999/xlink" x="0px" y="0px"
	 viewBox="0 0 484.252 484.252" style="enable-background:new 0 0 484.252 484.252;" xml:space="preserve">
<g>
	<path d="M460.19,453.862L137.982,97.6c-2.214-2.438-5.299-3.9-8.579-4.07c-3.312-0.146-6.495,0.985-8.947,3.183l-64.129,57.938
		c-22.208,20.054-35.292,47.569-36.812,77.469c-1.517,29.906,8.708,58.609,28.801,80.834c21.211,23.48,51.528,36.95,83.188,36.95
		c27.783,0,54.451-10.273,75.074-28.913l46.555-42.054l180.053,199.315c3.6,3.973,8.543,6,13.504,6
		c4.359,0,8.721-1.551,12.195-4.693C466.344,472.825,466.928,461.315,460.19,453.862z M119.502,131.013l15.265,16.886l-32.146-1.63
		L119.502,131.013z M197.484,217.332l-41.044-2.092l2.067-41.044L197.484,217.332z M92.461,170.594l41.288,2.1l-2.084,41.286
		l-41.305-2.1L92.461,170.594z M130.403,238.758l-2.084,41.293L87,277.952l2.101-41.294L130.403,238.758z M85.743,302.731
		l41.316,2.098l-1.018,19.973c-14.555-0.912-28.542-5.459-40.77-13.099L85.743,302.731z M151.838,306.09l31.286,1.591
		c-9.656,7.156-20.498,12.268-32.125,14.941L151.838,306.09z M153.099,281.31l2.084-41.294l41.3,2.1l-2.116,41.294L153.099,281.31z
		 M67.183,179.413l-1.601,31.207l-16.396-0.833C53.002,198.553,59.075,188.304,67.183,179.413z M44.343,234.38l19.983,1.018
		l-2.1,41.293l-8.693-0.435C47.136,263.35,43.763,249.143,44.343,234.38z M219.6,275.787l1.645-32.152l15.264,16.888L219.6,275.787z
		"/>
	<path d="M305.515,185.276c11.758,4.387,27.926-9.828,36.115-31.756c1.536-4.109,2.684-8.181,3.441-12.13
		c1.115-5.806,0.292-11.784-2.359-17.072l-19.979-39.929c-6.041-12.059-20.113-17.776-32.839-13.302
		c-1.89,0.661-3.763,1.453-5.623,2.382c-19.897,9.967-29.413,31.304-21.239,47.634c6.219,12.414,20.854,18.316,36.264,16.095
		c-0.049,0.146-0.129,0.276-0.178,0.422C290.896,159.538,293.786,180.875,305.515,185.276z"/>
	<path d="M354.246,118.55c2.647,5.299,6.929,9.538,12.26,12.114c3.616,1.753,7.562,3.28,11.757,4.506
		c22.452,6.576,43.518,2.149,47.037-9.9c3.522-12.026-11.838-27.112-34.307-33.669c-0.146-0.049-0.309-0.057-0.454-0.105
		c11.019-11.009,15.058-26.273,8.854-38.685c-8.189-16.338-30.966-21.491-50.863-11.526c-1.846,0.92-3.588,1.938-5.25,3.045
		c-11.227,7.502-15.09,22.21-9.045,34.284L354.246,118.55z"/>
	<path d="M267.408,38.717c0.207,0.024,27.893-0.687,45.176,20.005c0.292,1.018,0.341,1.978,0.682,3.012
		c0.58,1.729,2.197,2.826,3.924,2.826c0.434,0,0.872-0.063,1.311-0.209c0.417-0.138,2.132-0.969,2.663-1.342
		c1.872-1.299,2.343-3.876,1.034-5.749c-0.613-0.89-1.359-1.502-2.004-2.327c-6.234-26.23,10.838-47.948,11.016-48.175
		c1.44-1.767,1.18-4.369-0.58-5.822c-1.747-1.445-4.346-1.188-5.817,0.574c-0.758,0.912-15.102,19.124-14.295,43.578
		c-19.124-15.289-42.333-14.707-43.497-14.625c-2.278,0.105-4.038,2.035-3.924,4.313C263.192,37.069,265.082,38.879,267.408,38.717z
		"/>
</g>
<g>
</g>
<g>
</g>
<g>
</g>
<g>
</g>
<g>
</g>
<g>
</g>
<g>
</g>
<g>
</g>
<g>
</g>
<g>
</g>
<g>
</g>
<g>
</g>
<g>
</g>
<g>
</g>
<g>
</g>
</svg>
