<?xml version="1.0" encoding="iso-8859-1"?>
<!-- Generator: Adobe Illustrator 18.0.0, SVG Export Plug-In . SVG Version: 6.00 Build 0)  -->
<!DOCTYPE svg PUBLIC "-//W3C//DTD SVG 1.1//EN" "http://www.w3.org/Graphics/SVG/1.1/DTD/svg11.dtd">
<svg version="1.1" id="Capa_1" xmlns="http://www.w3.org/2000/svg" xmlns:xlink="http://www.w3.org/1999/xlink" x="0px" y="0px"
	 viewBox="0 0 495.776 495.776" style="enable-background:new 0 0 495.776 495.776;" xml:space="preserve">
<g>
	<path d="M197.727,331.988c-33.984,0-61.637,27.644-61.637,61.63c0,33.978,27.652,61.62,61.637,61.62
		c33.988,0,61.62-27.642,61.62-61.62C259.347,359.632,231.715,331.988,197.727,331.988z M197.727,412.19
		c-10.266,0-18.59-8.314-18.59-18.572c0-10.266,8.325-18.582,18.59-18.582c10.249,0,18.59,8.316,18.59,18.582
		C216.317,403.876,207.976,412.19,197.727,412.19z"/>
	<path d="M477.943,290.294c-9.847,0-17.833,7.989-17.833,17.844v34.925c0,2.88-2.343,5.213-5.197,5.213h-59.475V167.173
		c0-69.938-56.681-126.634-126.626-126.634H126.626C56.697,40.538,0,97.235,0,167.173v174.062c0,23.595,19.134,42.721,42.712,42.721
		h61.028c4.859-47.571,45.147-84.813,93.987-84.813c48.839,0,89.127,37.242,93.974,84.813h163.211
		c22.548,0,40.864-18.349,40.864-40.893v-34.925C495.776,298.283,487.789,290.294,477.943,290.294z M77.674,166.901
		c0-32.022,25.954-57.981,57.965-57.981h45.663v115.968H135.64C103.628,224.888,77.674,198.93,77.674,166.901z M259.798,224.888
		h-45.646V108.92h45.646c32.028,0,57.982,25.959,57.982,57.981C317.779,198.93,291.826,224.888,259.798,224.888z"/>
</g>
<g>
</g>
<g>
</g>
<g>
</g>
<g>
</g>
<g>
</g>
<g>
</g>
<g>
</g>
<g>
</g>
<g>
</g>
<g>
</g>
<g>
</g>
<g>
</g>
<g>
</g>
<g>
</g>
<g>
</g>
</svg>
