<?xml version="1.0" encoding="iso-8859-1"?>
<!-- Generator: Adobe Illustrator 18.0.0, SVG Export Plug-In . SVG Version: 6.00 Build 0)  -->
<!DOCTYPE svg PUBLIC "-//W3C//DTD SVG 1.1//EN" "http://www.w3.org/Graphics/SVG/1.1/DTD/svg11.dtd">
<svg version="1.1" id="Capa_1" xmlns="http://www.w3.org/2000/svg" xmlns:xlink="http://www.w3.org/1999/xlink" x="0px" y="0px"
	 viewBox="0 0 491.481 491.481" style="enable-background:new 0 0 491.481 491.481;" xml:space="preserve">
<path d="M488.059,289.671c-5.533-7.146-15.793-8.448-22.971-2.917l-22.943,17.768l-15.889-92.184
	c-0.686-4.013-2.846-7.626-6.059-10.127L241.742,63.068c-7.13-5.579-17.438-4.291-22.986,2.847
	c-5.546,7.13-4.286,17.416,2.844,22.971l173.468,135.252l17.747,103.096l-21.775,16.872c-7.849-14.804-21.551-25.906-38.143-30.111
	v-12.932h11.957c13.555,0,24.553-10.99,24.553-24.556c0-13.563-10.998-24.554-24.553-24.554H33.363
	c-13.555,0-24.552,10.99-24.552,24.554c0,13.566,10.997,24.556,24.552,24.556h11.929v12.94C19.344,320.597,0,343.96,0,371.929
	c0,33.058,26.907,59.955,59.965,59.955c31.172,0,56.559-23.994,59.388-54.433h159.496c2.845,30.439,28.231,54.433,59.403,54.433
	c30.068,0,54.801-22.341,59.07-51.252l87.811-67.996C492.279,307.105,493.587,296.817,488.059,289.671z M59.965,399.145
	c-15.01,0-27.224-12.206-27.224-27.216c0-15.013,12.214-27.219,27.224-27.219c14.994,0,27.209,12.206,27.209,27.219
	C87.174,386.939,74.959,399.145,59.965,399.145z M338.252,399.145c-15.01,0-27.225-12.206-27.225-27.216
	c0-15.013,12.215-27.219,27.225-27.219c14.994,0,27.208,12.206,27.208,27.219C365.46,386.939,353.246,399.145,338.252,399.145z"/>
<g>
</g>
<g>
</g>
<g>
</g>
<g>
</g>
<g>
</g>
<g>
</g>
<g>
</g>
<g>
</g>
<g>
</g>
<g>
</g>
<g>
</g>
<g>
</g>
<g>
</g>
<g>
</g>
<g>
</g>
</svg>
