<?xml version="1.0" encoding="iso-8859-1"?>
<!-- Generator: Adobe Illustrator 18.0.0, SVG Export Plug-In . SVG Version: 6.00 Build 0)  -->
<!DOCTYPE svg PUBLIC "-//W3C//DTD SVG 1.1//EN" "http://www.w3.org/Graphics/SVG/1.1/DTD/svg11.dtd">
<svg version="1.1" id="Capa_1" xmlns="http://www.w3.org/2000/svg" xmlns:xlink="http://www.w3.org/1999/xlink" x="0px" y="0px"
	 viewBox="0 0 490.286 490.286" style="enable-background:new 0 0 490.286 490.286;" xml:space="preserve">
<g>
	<path d="M321.176,67.91V44.655C321.176,20.035,301.142,0,276.529,0h-62.772c-24.612,0-44.648,20.035-44.648,44.655V67.91
		c-41.402,16.962-71.411,47.256-79.276,83.104h310.62C392.588,115.166,362.58,84.872,321.176,67.91z M193.77,44.655
		c0-11.03,8.958-19.997,19.986-19.997h62.772c11.029,0,19.99,8.967,19.99,19.997V59.77c-16.105-4.117-33.364-6.444-51.377-6.444
		c-18.012,0-35.27,2.327-51.372,6.444V44.655z"/>
	<path d="M402.782,438.76c-5.202-14.442-18.173-23.744-32.494-25.15l-50.877-141.272c44.136-17.522,75.711-50.064,82.005-88.442
		H88.869c6.295,38.378,37.874,70.92,82.006,88.442l-50.877,141.272c-14.321,1.406-27.292,10.708-32.494,25.15
		c-7.209,19.994,3.163,42.038,23.166,49.239c20.006,7.2,42.048-3.164,49.24-23.166c5.202-14.435,1.141-29.871-8.99-40.082
		l25.781-71.619h52.002v74.132c0,9.08,7.354,16.44,16.439,16.44c9.087,0,16.441-7.36,16.441-16.44v-74.132h52l25.781,71.619
		c-10.13,10.211-14.191,25.647-8.99,40.082c7.193,20.002,29.234,30.366,49.242,23.166
		C399.619,480.798,409.991,458.754,402.782,438.76z M182.629,336.693l19.761-54.857c8.494,1.765,17.291,3.002,26.314,3.692v51.165
		H182.629z M261.584,336.693v-51.165c9.021-0.69,17.818-1.928,26.313-3.692l19.765,54.857H261.584z"/>
</g>
<g>
</g>
<g>
</g>
<g>
</g>
<g>
</g>
<g>
</g>
<g>
</g>
<g>
</g>
<g>
</g>
<g>
</g>
<g>
</g>
<g>
</g>
<g>
</g>
<g>
</g>
<g>
</g>
<g>
</g>
</svg>
