<?xml version="1.0" encoding="iso-8859-1"?>
<!-- Generator: Adobe Illustrator 18.0.0, SVG Export Plug-In . SVG Version: 6.00 Build 0)  -->
<!DOCTYPE svg PUBLIC "-//W3C//DTD SVG 1.1//EN" "http://www.w3.org/Graphics/SVG/1.1/DTD/svg11.dtd">
<svg version="1.1" id="Capa_1" xmlns="http://www.w3.org/2000/svg" xmlns:xlink="http://www.w3.org/1999/xlink" x="0px" y="0px"
	 viewBox="0 0 493.216 493.216" style="enable-background:new 0 0 493.216 493.216;" xml:space="preserve">
<g>
	<path d="M444.327,107.672h-15.715l-15.945-64.854c-2.326-9.49-10.836-16.161-20.601-16.161H199.793
		c-9.764,0-18.27,6.671-20.6,16.161l-15.942,64.854h-27.953V87.956c0-11.72-9.502-21.225-21.225-21.225H72.265
		c-11.719,0-21.225,9.504-21.225,21.225v19.715h-2.151C21.886,107.672,0,129.563,0,156.56v261.113
		c0,26.995,21.886,48.887,48.889,48.887h395.439c27.004,0,48.889-21.892,48.889-48.887V156.56
		C493.216,129.563,471.331,107.672,444.327,107.672z M246.61,400.477c-62.602,0-113.368-50.759-113.368-113.364
		c0-62.615,50.767-113.366,113.368-113.366c62.598,0,113.363,50.75,113.363,113.366C359.974,349.718,309.208,400.477,246.61,400.477
		z"/>
	<path d="M239.945,199.194c-44.795,0-81.239,36.453-81.239,81.264c0,9.078,7.354,16.439,16.441,16.439
		c9.087,0,16.441-7.36,16.441-16.439c0-26.678,21.688-48.383,48.356-48.383c9.087,0,16.441-7.36,16.441-16.441
		C256.386,206.555,249.032,199.194,239.945,199.194z"/>
</g>
<g>
</g>
<g>
</g>
<g>
</g>
<g>
</g>
<g>
</g>
<g>
</g>
<g>
</g>
<g>
</g>
<g>
</g>
<g>
</g>
<g>
</g>
<g>
</g>
<g>
</g>
<g>
</g>
<g>
</g>
</svg>
