<?xml version="1.0" encoding="iso-8859-1"?>
<!-- Generator: Adobe Illustrator 18.0.0, SVG Export Plug-In . SVG Version: 6.00 Build 0)  -->
<!DOCTYPE svg PUBLIC "-//W3C//DTD SVG 1.1//EN" "http://www.w3.org/Graphics/SVG/1.1/DTD/svg11.dtd">
<svg version="1.1" id="Capa_1" xmlns="http://www.w3.org/2000/svg" xmlns:xlink="http://www.w3.org/1999/xlink" x="0px" y="0px"
	 viewBox="0 0 484.64 484.64" style="enable-background:new 0 0 484.64 484.64;" xml:space="preserve">
<g>
	<path d="M106.162,156.405c20.23,0,36.64-16.407,36.64-36.649c0-20.234-16.409-36.641-36.64-36.641
		c-20.25,0-36.643,16.406-36.643,36.641C69.52,139.998,85.912,156.405,106.162,156.405z"/>
	<path d="M479.847,364.886c-6.379-6.378-16.741-6.362-23.087,0.016c-5.328,5.325-14.588,5.349-19.962-0.024
		C425.267,353.35,408.19,349.476,392.771,353c-73.01-137.399-71.989-227.872-70.681-247.085l10.938-8.291
		c3.57-2.727,4.286-7.846,1.561-11.441c-2.726-3.578-7.845-4.305-11.45-1.569l-127.734,96.896
		c-4.942-4.806-12.455-6.297-18.878-2.894l-41.474,21.958l-31.316-24.437c-3.73-6.999-9.142-11.881-17.221-15.3
		c-2.239-0.947-9.721-3.24-16.997-1.553c-10.933,2.535-20.887,9.279-25.097,20.545c0,0-28.857,76.792-38.047,101.554
		c-7.222,19.46,7.112,37.677,20.586,37.677c0.048,0,0.08,0,0.112,0l78.785-0.374l26.485,66.777
		c3.826,9.607,13.027,15.467,22.768,15.467c3.013,0,6.059-0.558,9.024-1.73c12.583-4.99,18.722-19.23,13.744-31.803l-32.653-82.316
		c-3.702-9.335-12.726-15.458-22.771-15.458c-0.032,0-0.08,0-0.124,0l-41.89,0.198l20.427-54.5l22.419,17.509
		c2.934,2.279,6.472,3.452,10.045,3.452c2.613,0,5.242-0.622,7.651-1.897l50.818-26.908c3.457-1.833,5.787-4.839,7.192-8.196
		l114.531-86.869c-0.924,29.937,4.034,116.016,71.337,243.091c-5.214,2.208-10.093,5.277-14.224,9.407
		c-5.243,5.247-14.651,5.247-19.898,0c-17.696-17.699-48.488-17.691-66.154-0.023c-5.342,5.332-14.639,5.316-19.966,0
		c-6.375-6.378-16.709-6.378-23.088,0c-6.375,6.377-6.375,16.71,0,23.087c18.226,18.241,47.9,18.258,66.143,0
		c5.327-5.325,14.619-5.333,19.977,0.024c8.817,8.827,20.555,13.689,33.038,13.689c12.486,0,24.22-4.862,33.069-13.721
		c5.327-5.325,14.591-5.349,19.982,0.024c18.21,18.217,47.864,18.225,66.122-0.024C486.242,381.588,486.227,371.263,479.847,364.886
		z"/>
	<path d="M87.025,330.166H11.606C5.199,330.166,0,335.365,0,341.774v48.217c0,6.411,5.199,11.608,11.606,11.608h75.419
		c6.412,0,11.61-5.197,11.61-11.608v-48.217C98.635,335.365,93.437,330.166,87.025,330.166z"/>
</g>
<g>
</g>
<g>
</g>
<g>
</g>
<g>
</g>
<g>
</g>
<g>
</g>
<g>
</g>
<g>
</g>
<g>
</g>
<g>
</g>
<g>
</g>
<g>
</g>
<g>
</g>
<g>
</g>
<g>
</g>
</svg>
