<?xml version="1.0" encoding="iso-8859-1"?>
<!-- Generator: Adobe Illustrator 18.0.0, SVG Export Plug-In . SVG Version: 6.00 Build 0)  -->
<!DOCTYPE svg PUBLIC "-//W3C//DTD SVG 1.1//EN" "http://www.w3.org/Graphics/SVG/1.1/DTD/svg11.dtd">
<svg version="1.1" id="Capa_1" xmlns="http://www.w3.org/2000/svg" xmlns:xlink="http://www.w3.org/1999/xlink" x="0px" y="0px"
	 viewBox="0 0 492.195 492.195" style="enable-background:new 0 0 492.195 492.195;" xml:space="preserve">
<path d="M488.627,3.57c-4.761-4.757-12.468-4.757-17.225,0L415.65,59.312c-22.583-20.943-50.338-40.683-68.944-40.683
	c-7.516,0-12.182,3.085-14.765,5.679c-0.335,0.334-93.387,93.371-93.387,93.371c-18.607,18.621,15.02,60.571,34.132,81.49
	L7.608,450.123c-0.318,0.303-0.681,0.675-0.983,0.991c-9.232,9.803-8.754,25.227,1.047,34.459c9.801,9.222,25.218,8.754,34.45-1.047
	l112.42-119.454l88.514-0.303c6.744-0.024,12.166-5.496,12.134-12.219c-0.016-6.718-5.454-12.142-12.182-12.142c0,0-0.016,0-0.032,0
	l-65.437,0.221l114.668-121.824c22.587,20.866,49.948,40.342,67.949,40.342c0,0,0,0,0.016,0c7.277,0,11.815-3.005,14.319-5.527
	c0,0,92.843-92.826,93.387-93.379c8.758-8.756,7.345-23.34-4.2-43.34c-7.185-12.45-18.033-26.479-30.867-40.3l55.815-55.806
	C493.385,16.036,493.385,8.329,488.627,3.57z M358.983,234.69c-8.439-1.27-31.628-14.815-59.16-42.333
	c-28.487-28.493-41.19-51.673-42.348-59.144l74.211-74.203c1.286,2.759,2.711,5.613,4.458,8.626
	c8.722,15.124,22.679,32.58,39.255,49.154c17.142,17.144,39,35.003,57.81,43.678L358.983,234.69z M448.118,140.47
	c-10.593-3.71-31.56-16.962-55.497-40.903c-24.709-24.703-37.332-45.465-40.919-55.489c9.312,3.26,26.648,13.903,46.946,32.681
	c-3.662,4.775-3.503,11.546,0.872,15.918c2.38,2.378,5.49,3.567,8.599,3.567c2.615,0,5.139-1.029,7.313-2.695
	C434.747,114.435,444.961,131.636,448.118,140.47z"/>
<g>
</g>
<g>
</g>
<g>
</g>
<g>
</g>
<g>
</g>
<g>
</g>
<g>
</g>
<g>
</g>
<g>
</g>
<g>
</g>
<g>
</g>
<g>
</g>
<g>
</g>
<g>
</g>
<g>
</g>
</svg>
