<?xml version="1.0" encoding="iso-8859-1"?>
<!-- Generator: Adobe Illustrator 18.0.0, SVG Export Plug-In . SVG Version: 6.00 Build 0)  -->
<!DOCTYPE svg PUBLIC "-//W3C//DTD SVG 1.1//EN" "http://www.w3.org/Graphics/SVG/1.1/DTD/svg11.dtd">
<svg version="1.1" id="Capa_1" xmlns="http://www.w3.org/2000/svg" xmlns:xlink="http://www.w3.org/1999/xlink" x="0px" y="0px"
	 viewBox="0 0 485.909 485.909" style="enable-background:new 0 0 485.909 485.909;" xml:space="preserve">
<g>
	<path d="M459.916,192.973l-89.466-89.464V21.584c0-4.966-4.023-8.999-8.998-8.999h-29.564c-4.975,0-8.999,4.032-8.999,8.999v34.364
		l-39.053-39.052c-22.559-22.531-59.253-22.531-81.779,0.014L25.992,192.973c-9.504,9.498-9.504,24.914,0,34.412
		c9.508,9.506,24.908,9.506,34.412,0L236.469,51.322c3.579-3.565,9.376-3.573,12.959-0.008l176.077,176.07
		c4.751,4.752,10.979,7.128,17.205,7.128c6.228,0,12.451-2.376,17.206-7.128C469.42,217.879,469.42,202.471,459.916,192.973z"/>
	<path d="M430.925,254.602c0-15.676-12.709-28.39-28.393-28.39h-11.44L249.317,84.434c-3.519-3.517-9.222-3.517-12.74,0
		L94.8,226.212H83.376c-15.684,0-28.388,12.714-28.388,28.39c0,11.161,6.493,20.731,15.874,25.365
		c-9.381,4.633-15.874,14.201-15.874,25.363c0,11.162,6.493,20.731,15.874,25.364c-9.381,4.635-15.874,14.203-15.874,25.365
		c0,11.162,6.493,20.731,15.874,25.363c-9.381,4.636-15.874,14.204-15.874,25.366c0,11.083,6.414,20.588,15.683,25.261
		c-9.476,4.602-16.064,14.227-16.064,25.467c0,15.677,12.705,28.392,28.392,28.392h105.574v-124.09
		c0-8.943,7.241-16.19,16.192-16.19h76.395c8.95,0,16.191,7.247,16.191,16.19v124.09h104.816c15.686,0,28.392-12.715,28.392-28.392
		c0-11.088-6.418-20.586-15.684-25.261c9.472-4.603,16.05-14.228,16.05-25.467c0-11.162-6.498-20.73-15.879-25.366
		c9.381-4.632,15.879-14.201,15.879-25.363c0-11.162-6.498-20.73-15.879-25.365c9.381-4.633,15.879-14.202,15.879-25.364
		c0-11.162-6.498-20.73-15.879-25.363C424.427,275.332,430.925,265.763,430.925,254.602z"/>
</g>
<g>
</g>
<g>
</g>
<g>
</g>
<g>
</g>
<g>
</g>
<g>
</g>
<g>
</g>
<g>
</g>
<g>
</g>
<g>
</g>
<g>
</g>
<g>
</g>
<g>
</g>
<g>
</g>
<g>
</g>
</svg>
