<?xml version="1.0" encoding="iso-8859-1"?>
<!-- Generator: Adobe Illustrator 18.0.0, SVG Export Plug-In . SVG Version: 6.00 Build 0)  -->
<!DOCTYPE svg PUBLIC "-//W3C//DTD SVG 1.1//EN" "http://www.w3.org/Graphics/SVG/1.1/DTD/svg11.dtd">
<svg version="1.1" id="Capa_1" xmlns="http://www.w3.org/2000/svg" xmlns:xlink="http://www.w3.org/1999/xlink" x="0px" y="0px"
	 viewBox="0 0 487.445 487.445" style="enable-background:new 0 0 487.445 487.445;" xml:space="preserve">
<g>
	<path d="M355.897,349.872c-18.218-0.635-35.497,8.078-45.829,23.098l-23.424,34.095L52.586,9.912
		C46.955,0.335,34.607-2.856,25.023,2.794c-4.604,2.715-7.934,7.134-9.269,12.308c-1.335,5.164-0.574,10.655,2.143,15.257
		l259.508,440.286c9.587,16.235,30.503,21.638,46.737,12.069l56.969-33.579c25.377-14.957,33.817-47.655,18.868-73.038
		C390.729,360.394,374.099,350.507,355.897,349.872z"/>
	<path d="M421.311,204.453c24.217,0,43.877-19.645,43.877-43.877c0-24.225-19.661-43.879-43.877-43.879
		c-24.249,0-43.894,19.654-43.894,43.879C377.417,184.808,397.062,204.453,421.311,204.453z"/>
	<path d="M468.761,219.252c-4.776-4.777-12.491-4.762-17.235,0.016c-16.123,16.155-44.275,16.163-60.463,0.008
		c-4.76-4.753-12.471-4.73-17.234,0.024c-4.76,4.768-4.728,12.489,0.032,17.241c6.871,6.849,15.012,11.872,23.838,15.187
		l9.201,56.265c1.143,7.07,7.253,12.26,14.411,12.26c7.173,0,13.268-5.19,14.426-12.26l9.189-56.265
		c8.822-3.324,16.979-8.354,23.851-15.241C473.521,231.717,473.521,224.004,468.761,219.252z"/>
</g>
<g>
</g>
<g>
</g>
<g>
</g>
<g>
</g>
<g>
</g>
<g>
</g>
<g>
</g>
<g>
</g>
<g>
</g>
<g>
</g>
<g>
</g>
<g>
</g>
<g>
</g>
<g>
</g>
<g>
</g>
</svg>
