<?xml version="1.0" encoding="iso-8859-1"?>
<!-- Generator: Adobe Illustrator 18.0.0, SVG Export Plug-In . SVG Version: 6.00 Build 0)  -->
<!DOCTYPE svg PUBLIC "-//W3C//DTD SVG 1.1//EN" "http://www.w3.org/Graphics/SVG/1.1/DTD/svg11.dtd">
<svg version="1.1" id="Capa_1" xmlns="http://www.w3.org/2000/svg" xmlns:xlink="http://www.w3.org/1999/xlink" x="0px" y="0px"
	 viewBox="0 0 493.221 493.221" style="enable-background:new 0 0 493.221 493.221;" xml:space="preserve">
<g>
	<path d="M246.61,141.894c20.147,0,36.622,42.484,38.177,96.44l39.255,39.26c0.769-10.168,1.28-20.475,1.28-30.965
		c0-105.497-41.719-196.441-64.403-238.117C258.065,3.273,252.577,0,246.627,0c-5.967-0.008-11.455,3.257-14.309,8.495
		c-14.18,26.034-35.789,71.318-50.001,127.368l37.073,37.071C226.335,153.779,235.957,141.894,246.61,141.894z"/>
	<path d="M246.61,351.327c-20.147,0-36.622-42.477-38.176-96.423l-39.24-39.26c-0.769,10.178-1.284,20.483-1.284,30.984
		c0,105.503,41.707,196.447,64.407,238.106c2.838,5.238,8.342,8.487,14.293,8.487c5.967-0.008,11.454-3.265,14.31-8.495
		c14.18-26.042,35.772-71.311,50.001-127.351l-37.09-37.08C266.887,339.45,257.26,351.327,246.61,351.327z"/>
	<path d="M444.205,388.175l-38.66-38.66c-7.424-7.436-17.514-11.605-28.006-11.605c-4.779,0-9.434,0.97-13.81,2.599L152.703,129.477
		c1.639-4.387,2.601-9.031,2.601-13.794c0-10.508-4.171-20.59-11.616-28.016l-38.66-38.66c-2.307-2.327-5.452-3.626-8.757-3.626
		c-3.273,0-6.418,1.299-8.757,3.626L49.016,87.53c-4.848,4.835-4.848,12.681,0,17.516l38.66,38.66
		c11.306,11.318,27.748,14.261,41.833,9.025l210.973,210.981c-5.226,14.084-2.291,30.519,9.019,41.835l38.66,38.668
		c2.339,2.327,5.483,3.625,8.757,3.625c3.306,0,6.45-1.298,8.757-3.625l38.531-38.523
		C449.053,400.856,449.053,393.011,444.205,388.175z"/>
</g>
<g>
</g>
<g>
</g>
<g>
</g>
<g>
</g>
<g>
</g>
<g>
</g>
<g>
</g>
<g>
</g>
<g>
</g>
<g>
</g>
<g>
</g>
<g>
</g>
<g>
</g>
<g>
</g>
<g>
</g>
</svg>
