<?xml version="1.0" encoding="iso-8859-1"?>
<!-- Generator: Adobe Illustrator 18.0.0, SVG Export Plug-In . SVG Version: 6.00 Build 0)  -->
<!DOCTYPE svg PUBLIC "-//W3C//DTD SVG 1.1//EN" "http://www.w3.org/Graphics/SVG/1.1/DTD/svg11.dtd">
<svg version="1.1" id="Capa_1" xmlns="http://www.w3.org/2000/svg" xmlns:xlink="http://www.w3.org/1999/xlink" x="0px" y="0px"
	 viewBox="0 0 489.538 489.538" style="enable-background:new 0 0 489.538 489.538;" xml:space="preserve">
<g>
	<path d="M470.539,378.77L350.4,258.628c-5.353-5.343-14.023-5.343-19.376,0l-72.387,72.403c-5.353,5.343-5.353,14.015,0,19.358
		l120.14,120.142c25.332,25.339,66.416,25.339,91.763,0C495.871,445.193,495.871,404.107,470.539,378.77z"/>
	<path d="M326.037,177.404l-46.613-46.629c-5.222-5.224-12.64-7.693-21.532-7.693c-23.634,0.008-57.587,17.548-87.426,47.388
		c-41.053,41.055-58.826,89.834-39.705,108.955l46.613,46.618c11.751,11.735,30.745,11.735,42.499,0.009l106.165-106.167
		c5.636-5.638,8.797-13.277,8.797-21.242C334.834,190.68,331.673,183.041,326.037,177.404z M261.318,151.62
		c-12.582,12.588-85.042,85.086-110.927,110.955c-0.65,0.649-1.309,1.264-2.272-0.31h-0.016
		c-3.145-5.393,2.746-37.678,39.609-74.547c27.648-27.641,55.757-40.243,70.179-40.243c0.839,0,1.654,0.125,2.385,0.326
		C261.977,148.269,262.565,150.372,261.318,151.62z"/>
	<path d="M434.745,281.044c0-7.964-3.145-15.604-8.781-21.231l-7.864-7.87c-11.735-11.728-30.745-11.728-42.479,0l50.328,50.335
		C431.584,296.647,434.745,289.008,434.745,281.044z"/>
	<path d="M133.57,156.583c3.177,3.177,7.338,4.766,11.499,4.766c4.162,0,8.323-1.588,11.5-4.766c6.35-6.352,6.35-16.644,0-22.995
		L83.166,60.184c-6.354-6.352-16.646-6.352-22.996,0c-6.354,6.352-6.354,16.644,0,22.996L133.57,156.583z"/>
	<path d="M173.482,104.15c1.635,7.64,8.367,12.873,15.896,12.873c1.112,0,2.256-0.111,3.4-0.358
		c8.781-1.874,14.386-10.513,12.512-19.295l-18.009-84.48c-1.873-8.783-10.483-14.427-19.28-12.514
		c-8.797,1.873-14.386,10.513-12.512,19.296L173.482,104.15z"/>
	<path d="M104.145,173.488l-84.472-18.001c-8.829-1.857-17.44,3.741-19.313,12.514c-1.874,8.783,3.747,17.423,12.516,19.296
		l84.488,18.001c1.14,0.247,2.284,0.357,3.396,0.357c7.529,0,14.262-5.232,15.896-12.871
		C118.531,184.001,112.926,175.364,104.145,173.488z"/>
</g>
<g>
</g>
<g>
</g>
<g>
</g>
<g>
</g>
<g>
</g>
<g>
</g>
<g>
</g>
<g>
</g>
<g>
</g>
<g>
</g>
<g>
</g>
<g>
</g>
<g>
</g>
<g>
</g>
<g>
</g>
</svg>
