<?xml version="1.0" encoding="iso-8859-1"?>
<!-- Generator: Adobe Illustrator 18.0.0, SVG Export Plug-In . SVG Version: 6.00 Build 0)  -->
<!DOCTYPE svg PUBLIC "-//W3C//DTD SVG 1.1//EN" "http://www.w3.org/Graphics/SVG/1.1/DTD/svg11.dtd">
<svg version="1.1" id="Capa_1" xmlns="http://www.w3.org/2000/svg" xmlns:xlink="http://www.w3.org/1999/xlink" x="0px" y="0px"
	 viewBox="0 0 490.141 490.141" style="enable-background:new 0 0 490.141 490.141;" xml:space="preserve">
<g>
	<path d="M209.637,175.703c17.872,4.686,36.158-5.994,40.843-23.863c4.686-17.858-6.012-36.147-23.879-40.833
		c-17.853-4.684-36.14,5.994-40.825,23.863C181.09,152.73,191.77,171.017,209.637,175.703z"/>
	<path d="M480.496,13.848c-1.087-1.478-2.701-2.47-4.51-2.757L406.374,0.084c-2.685-0.426-5.39,0.782-6.875,3.083L324.66,118.96
		c-12.42,12.791-18.55,21.077-24.674,37.982c-4.378-0.254-8.857,1.145-12.279,4.431l-46.602,44.807l-26.814-10.903
		c-3.503-6.868-9.242-12.351-16.437-15.285c-8.267-3.365-16.736-2.842-26.317,0.359c-19.306,6.452-77.333,25.485-77.333,25.485
		c-4.719,1.552-8.476,5.165-10.217,9.816c-1.726,4.652-1.264,9.842,1.28,14.111l29.848,50.138
		c-37.204-0.662-56.775,29.579-57.032,29.971c-1.79,2.877-0.911,6.644,1.95,8.441c1.023,0.632,2.143,0.937,3.263,0.937
		c2.047,0,4.029-1.023,5.213-2.871c0.83-1.318,17.075-26.053,48.781-24.102l-29.018,71.013l-52.445-19.1
		c-10.582-3.845-22.348,1.615-26.252,12.231c-3.852,10.624,1.633,22.368,12.248,26.236l70.511,25.671
		c2.299,0.839,4.667,1.238,7.002,1.238c7.897,0,15.41-4.629,18.736-12.288l16.662-38.163l11.413,29.674v80.885
		c0,11.305,9.162,20.466,20.466,20.466s20.466-9.161,20.466-20.466v-84.681c0-2.51-0.465-5.004-1.376-7.348l-16.276-42.353
		l9.659-23.694c19.298,3.573,37.509,1.518,53.721-6.324c32.71-15.814,56.309-54.097,70.378-113.374l7.211-6.931
		c6.38-6.139,6.618-16.18,0.718-22.711c4.908-13.896,10.941-22.523,20.324-32.612l134.222-35.48
		c2.637-0.696,4.635-2.888,5.053-5.589l10.999-69.598C481.997,17.175,481.567,15.327,480.496,13.848z M134.895,249.092
		l-11.067-18.546l21.489-7.083L134.895,249.092z M227.465,294.219c-14.648,7.083-29.724,7.859-43.616,5.677l28.539-70.054
		l26.221,10.672c1.998,0.817,4.093,1.208,6.172,1.208c4.141,0,8.234-1.583,11.336-4.572l30.025-28.867
		C272.807,252.794,253.176,281.79,227.465,294.219z"/>
</g>
<g>
</g>
<g>
</g>
<g>
</g>
<g>
</g>
<g>
</g>
<g>
</g>
<g>
</g>
<g>
</g>
<g>
</g>
<g>
</g>
<g>
</g>
<g>
</g>
<g>
</g>
<g>
</g>
<g>
</g>
</svg>
