<?xml version="1.0" encoding="iso-8859-1"?>
<!-- Generator: Adobe Illustrator 18.0.0, SVG Export Plug-In . SVG Version: 6.00 Build 0)  -->
<!DOCTYPE svg PUBLIC "-//W3C//DTD SVG 1.1//EN" "http://www.w3.org/Graphics/SVG/1.1/DTD/svg11.dtd">
<svg version="1.1" id="Capa_1" xmlns="http://www.w3.org/2000/svg" xmlns:xlink="http://www.w3.org/1999/xlink" x="0px" y="0px"
	 viewBox="0 0 492.508 492.508" style="enable-background:new 0 0 492.508 492.508;" xml:space="preserve">
<g>
	<path d="M352.833,212.454c25.065-2.014,43.752-23.962,41.738-49.018c-2.014-25.064-23.961-43.751-49.028-41.736
		c-25.064,2.006-43.749,23.953-41.734,49.019C305.822,195.782,327.768,214.468,352.833,212.454z"/>
	<path d="M79.914,188.791l83.2-30.884l49.382,22.5L108.4,227.404c4.361,1.942,8.598,4.171,12.482,7.041
		c24.057-17.623,59.496-17.615,83.524,0.008c23.864-17.688,59.255-17.8,83.537-0.056c5.484-4.499,9.862-10.263,12.405-17.009
		c3.836-10.149,3.482-21.411-0.99-31.307c-3.022-6.696-11.238-15.226-24.282-21.108c-14.993-6.762-102.675-47.803-102.675-47.803
		c-4.923-2.263-10.58-2.455-15.6-0.567l-91.115,33.824c-10.601,3.932-16.001,15.705-12.069,26.304
		C57.551,187.329,69.41,192.715,79.914,188.791z"/>
	<path d="M487.729,258.735c-6.396-6.412-16.771-6.395-23.167-0.016c-5.143,5.147-13.537,5.132-18.652,0.016
		c-17.248-17.264-47.684-17.296-64.98,0.016c-4.955,4.955-13.617,4.955-18.603-0.016c-17.313-17.369-47.572-17.385-64.949,0
		c-4.987,4.971-13.654,4.971-18.641,0l-0.959-0.927c-17.36-16.402-46.994-16.075-64.055,0.959
		c-4.891,4.907-13.617,4.931-18.604-0.024c-17.072-17.112-47.877-17.136-64.98,0.008c-4.891,4.923-13.634,4.955-18.593-0.032
		c-17.372-17.353-47.601-17.313-64.913-0.008c-5.195,5.155-13.589,5.131-18.688,0.008c-6.396-6.379-16.768-6.396-23.162,0.016
		c-6.38,6.394-6.38,16.761,0.016,23.146c17.902,17.872,47.03,17.88,64.965-0.008c4.986-4.971,13.682-4.947,18.604-0.025
		c17.329,17.385,47.621,17.385,64.949,0.032c4.891-4.923,13.67-4.979,18.688,0.04c8.679,8.656,20.205,13.427,32.435,13.427
		c12.277,0,23.8-4.778,32.498-13.491c4.955-4.947,13.682-4.939,18.605-0.008l0.976,0.927c17.408,16.514,46.949,16.137,64.006-0.895
		c5.019-5.003,13.649-5.003,18.636-0.016c17.36,17.385,47.605,17.369,64.965-0.016c4.923-4.923,13.653-4.963,18.641,0.041
		c17.901,17.88,47.042,17.84,64.948-0.008C494.104,275.496,494.104,265.129,487.729,258.735z"/>
	<path d="M382.703,339.052l-1.773,1.535c-4.923,4.939-13.665,4.915-18.588,0.008c-17.313-17.385-47.557-17.4-64.965-0.032
		c-4.987,5.003-13.654,4.987-18.641,0.016l-0.959-0.927c-17.36-16.401-46.994-16.075-64.055,0.959
		c-4.891,4.907-13.617,4.931-18.604-0.024c-17.184-17.24-47.701-17.249-64.965-0.008c-4.906,4.931-13.649,4.939-18.592,0.008
		c-6.376-6.401-16.735-6.418-23.146-0.032c-6.408,6.377-6.408,16.745-0.032,23.146c17.2,17.256,47.732,17.256,64.933,0.016
		c4.955-4.963,13.637-5.011,18.688,0.048c8.679,8.656,20.205,13.426,32.435,13.426c12.277,0,23.8-4.778,32.498-13.491
		c4.955-4.947,13.682-4.939,18.605-0.008l0.976,0.927c17.44,16.522,46.982,16.145,64.022-0.911
		c4.986-4.971,13.648-4.995,18.637,0.024c17.123,17.096,47.303,17.232,64.551,0.351c6.043-5.633,6.969-15.018,1.902-21.772
		C400.192,335.072,389.929,333.602,382.703,339.052z"/>
</g>
<g>
</g>
<g>
</g>
<g>
</g>
<g>
</g>
<g>
</g>
<g>
</g>
<g>
</g>
<g>
</g>
<g>
</g>
<g>
</g>
<g>
</g>
<g>
</g>
<g>
</g>
<g>
</g>
<g>
</g>
</svg>
