<?xml version="1.0" encoding="iso-8859-1"?>
<!-- Generator: Adobe Illustrator 18.0.0, SVG Export Plug-In . SVG Version: 6.00 Build 0)  -->
<!DOCTYPE svg PUBLIC "-//W3C//DTD SVG 1.1//EN" "http://www.w3.org/Graphics/SVG/1.1/DTD/svg11.dtd">
<svg version="1.1" id="Capa_1" xmlns="http://www.w3.org/2000/svg" xmlns:xlink="http://www.w3.org/1999/xlink" x="0px" y="0px"
	 viewBox="0 0 488.449 488.449" style="enable-background:new 0 0 488.449 488.449;" xml:space="preserve">
<g>
	<path d="M196.37,172.359c16.028,0.094,29.092-12.826,29.188-28.855c0.096-16.019-12.845-29.084-28.873-29.171
		c-16.028-0.096-29.076,12.826-29.168,28.847C167.437,159.209,180.342,172.271,196.37,172.359z"/>
	<path d="M40.604,304.948l7.99,0.048c22.816-10.416,51.225-8.205,71.486,6.951c11.953-8.664,26.602-13.459,41.491-13.38
		c0.016,0,0.048,0,0.063,0c14.839,0.085,29.422,5.042,41.28,13.848c23.784-17.439,58.964-17.335,82.95,0.46
		c23.972-17.574,59.184-17.352,82.932,0.443c10.732-7.775,23.656-11.826,36.732-12.612l47.946-52.5
		c2.566-2.805,3.246-6.864,1.727-10.344c-1.54-3.479-4.962-5.74-8.767-5.764l-77.208-0.42l-78.208-65.096
		c-6.677-5.565-15.156-8.657-23.847-8.704l-11.81-0.064c-5.898-0.031-11.353,3.377-13.888,8.657
		c-2.566,5.31-1.854,11.7,1.822,16.288l38.798,48.436l-53.572-0.295l21.054-8.599c6.231-2.536,9.228-9.647,6.673-15.879
		c-2.518-6.222-9.637-9.218-15.869-6.665l-21.893,8.941l-24.306-19.2c-0.048-0.104-0.063-0.215-0.111-0.308
		c-2.806-6.24-7.958-11.114-14.36-13.548l-0.144-0.063c-13.303-5.065-28.189,1.609-33.278,14.91l-15.189,39.873l-51.622-0.286
		l-20.418-0.111c-6.502-0.04-12.398,3.821-14.966,9.807l-18.296,42.583c-2.141,4.994-1.632,10.727,1.349,15.275
		C30.111,302.172,35.169,304.916,40.604,304.948z M255.266,174.05l11.81,0.064c4.95,0.032,9.753,1.783,13.557,4.954l63.051,52.468
		l-40.966-0.229L255.266,174.05z M186.335,230.664l4.787-12.549l16.028,12.668L186.335,230.664z"/>
	<path d="M483.768,338.043c-6.307-6.389-16.598-6.428-22.972-0.135c-5.121,5.073-13.458,5.01-18.499-0.088
		c-17.012-17.2-47.246-17.375-64.4-0.389l-0.254,0.264c-4.946,4.651-13.426,4.51-18.249-0.335
		c-17.075-17.319-47.086-17.503-64.411-0.356c-4.963,4.906-13.558,4.859-18.487-0.103l-0.936-0.918
		c-17.139-16.369-46.532-16.212-63.528,0.594c-4.882,4.844-13.537,4.819-18.451-0.127c-8.435-8.529-20.135-13.459-32.104-13.531
		c-0.016,0-0.032,0-0.048,0c-12.017-0.063-23.783,4.749-32.295,13.191c-4.883,4.834-13.557,4.818-18.44-0.136
		c-17.139-17.304-47.118-17.431-64.38-0.364c-5.185,5.09-13.509,5.01-18.535-0.096c-6.312-6.356-16.597-6.428-22.972-0.111
		c-6.359,6.311-6.423,16.592-0.111,22.957c17.659,17.82,46.549,17.995,64.431,0.35c4.962-4.908,13.569-4.853,18.468,0.094
		c17.123,17.337,47.118,17.465,64.399,0.365c2.428-2.425,5.817-3.797,9.275-3.781h0.017c3.426,0.016,6.752,1.426,9.243,3.932
		c8.56,8.633,19.96,13.422,32.089,13.493c12.176,0.061,23.62-4.614,32.311-13.207c4.914-4.874,13.569-4.814,18.436,0.095
		l0.967,0.928c17.171,16.464,46.47,16.257,63.48-0.539c5.01-4.93,13.569-4.891,18.484,0.088
		c17.122,17.335,47.133,17.454,64.415,0.371l0.223-0.238c4.978-4.676,13.462-4.565,18.28,0.35
		c17.66,17.827,46.561,17.947,64.416,0.341C490,354.706,490.063,344.424,483.768,338.043z"/>
</g>
<g>
</g>
<g>
</g>
<g>
</g>
<g>
</g>
<g>
</g>
<g>
</g>
<g>
</g>
<g>
</g>
<g>
</g>
<g>
</g>
<g>
</g>
<g>
</g>
<g>
</g>
<g>
</g>
<g>
</g>
</svg>
