<?xml version="1.0" encoding="iso-8859-1"?>
<!-- Generator: Adobe Illustrator 18.0.0, SVG Export Plug-In . SVG Version: 6.00 Build 0)  -->
<!DOCTYPE svg PUBLIC "-//W3C//DTD SVG 1.1//EN" "http://www.w3.org/Graphics/SVG/1.1/DTD/svg11.dtd">
<svg version="1.1" id="Capa_1" xmlns="http://www.w3.org/2000/svg" xmlns:xlink="http://www.w3.org/1999/xlink" x="0px" y="0px"
	 viewBox="0 0 494.743 494.743" style="enable-background:new 0 0 494.743 494.743;" xml:space="preserve">
<g>
	<g>
		<path d="M375.574,253.603l-19.944-19.52l-5.653,0.844l18.544,195.767L214.8,271.972L204.36,124.511l116.646,63.321l7.238-7.398
			l-4.129-27.611c-0.117-0.76,0.051-1.496,0.017-2.246L196.299,83.074c-7.513-3.967-16.547-3.744-23.855,0.59L10.142,179.898
			c-5.152,3.102-8.296,8.669-8.296,14.67v193.89c0,7.463,3.807,14.41,10.097,18.426l133.418,85.176
			c2.739,1.756,5.934,2.684,9.193,2.684h240.935c7.393,0,13.183-6.357,12.487-13.717c-4.839-51.214-21.315-221.916-21.315-221.916
			C382.549,258.233,378.65,256.611,375.574,253.603z M36.088,204.249l133.898-80.607l10.833,153.049l-144.73,84.646V204.249z
			 M159.553,460.504l-107.75-68.696l147.678-86.369l150.266,155.066H159.553z"/>
	</g>
	<path d="M415.933,165.304c-0.201,0-0.403,0.009-0.601,0.042l-36.313,5.424c-0.302,0.043-0.604,0.067-0.902,0.067
		c-1.59,0-3.127-0.619-4.28-1.746l-23.843-23.347c-1.02-0.995-2.354-1.514-3.71-1.514c-0.817,0-1.64,0.191-2.408,0.577
		c-2.023,1.036-3.16,3.25-2.823,5.499l4.93,33.003c0.285,1.897-0.335,3.813-1.67,5.183l-23.356,23.841
		c-1.589,1.63-1.972,4.087-0.935,6.109c0.919,1.782,2.738,2.886,4.694,2.886c0.269,0,0.537-0.018,0.802-0.059l33.003-4.925
		c0.302-0.042,0.604-0.067,0.903-0.067c1.59,0,3.125,0.619,4.279,1.748l23.844,23.348c1.02,0.995,2.357,1.514,3.709,1.514
		c0.818,0,1.64-0.193,2.408-0.577c2.022-1.037,3.16-3.253,2.824-5.5l-4.93-33.003c-0.286-1.896,0.334-3.812,1.67-5.183
		l25.697-26.232c1.254-1.278,1.557-3.218,0.734-4.815C418.941,166.164,417.486,165.304,415.933,165.304z"/>
	<path d="M298.888,55.413c0.953,1.253,1.268,2.892,0.834,4.413l-7.49,26.507c-0.52,1.808,0.186,3.737,1.738,4.799
		c1.557,1.053,3.596,1.003,5.098-0.126l21.955-16.626c1.267-0.954,2.891-1.263,4.41-0.828l26.533,7.482
		c1.809,0.51,3.73-0.192,4.8-1.739c1.054-1.555,1.004-3.603-0.134-5.099l-16.617-21.959c-0.953-1.254-1.271-2.893-0.84-4.414
		l8.23-29.174c0.398-1.42-0.151-2.941-1.372-3.778c-1.221-0.827-2.824-0.794-4.012,0.101l-24.158,18.298
		c-1.271,0.954-2.912,1.263-4.431,0.828l-26.499-7.481c-1.805-0.519-3.73,0.185-4.784,1.738c-1.069,1.547-1.018,3.603,0.118,5.1
		L298.888,55.413z"/>
	<path d="M443.15,31.153l-5.115,18.123c-0.352,1.238,0.135,2.558,1.188,3.286c1.053,0.719,2.459,0.686,3.479-0.092l15.026-11.369
		c0.873-0.652,1.993-0.861,3.03-0.567l18.119,5.114c1.238,0.352,2.559-0.125,3.277-1.188c0.723-1.061,0.688-2.465-0.084-3.484
		l-11.367-15.014c-0.65-0.861-0.869-1.982-0.566-3.026l5.631-19.944c0.269-0.971-0.101-2.017-0.936-2.582
		c-0.836-0.569-1.939-0.544-2.74,0.065L455.554,12.99c-0.869,0.65-1.988,0.859-3.025,0.568l-18.125-5.117
		c-1.232-0.351-2.554,0.125-3.272,1.188c-0.723,1.061-0.689,2.465,0.083,3.484l11.368,15.015
		C443.234,28.988,443.452,30.108,443.15,31.153z"/>
	<path d="M491.201,128.539l-16.953-8.191c-0.969-0.468-1.656-1.372-1.871-2.426l-4.082-20.336c-0.198-0.995-1.004-1.748-2.006-1.874
		c-1.004-0.124-1.973,0.403-2.404,1.313l-9.014,18.675c-0.467,0.97-1.373,1.671-2.443,1.88l-18.472,3.695
		c-1.255,0.252-2.207,1.279-2.374,2.558c-0.17,1.271,0.503,2.507,1.656,3.059l16.97,8.201c0.97,0.469,1.653,1.362,1.872,2.424
		l3.71,18.482c0.251,1.263,1.287,2.216,2.559,2.375c1.271,0.168,2.505-0.51,3.059-1.664l8.191-16.977
		c0.47-0.97,1.371-1.672,2.441-1.88l18.455-3.694c1.254-0.253,2.207-1.28,2.375-2.552
		C493.039,130.329,492.371,129.1,491.201,128.539z"/>
</g>
<g>
</g>
<g>
</g>
<g>
</g>
<g>
</g>
<g>
</g>
<g>
</g>
<g>
</g>
<g>
</g>
<g>
</g>
<g>
</g>
<g>
</g>
<g>
</g>
<g>
</g>
<g>
</g>
<g>
</g>
</svg>
