<?xml version="1.0" encoding="iso-8859-1"?>
<!-- Generator: Adobe Illustrator 18.0.0, SVG Export Plug-In . SVG Version: 6.00 Build 0)  -->
<!DOCTYPE svg PUBLIC "-//W3C//DTD SVG 1.1//EN" "http://www.w3.org/Graphics/SVG/1.1/DTD/svg11.dtd">
<svg version="1.1" id="Capa_1" xmlns="http://www.w3.org/2000/svg" xmlns:xlink="http://www.w3.org/1999/xlink" x="0px" y="0px"
	 viewBox="0 0 491.264 491.264" style="enable-background:new 0 0 491.264 491.264;" xml:space="preserve">
<g>
	<path d="M203.847,155.714c-4.797-4.799-4.797-12.571,0-17.368c4.796-4.798,12.571-4.798,17.367,0l13.51,13.505l13.498-13.505
		c4.797-4.798,12.571-4.798,17.368,0c4.797,4.797,4.797,12.569,0,17.368l-7.771,7.77h95.66L300.803,88.82l-13.494,12.625
		c-1.569,1.487-3.777,2.159-5.92,1.806c-2.144-0.352-3.998-1.677-5.021-3.598l-28.241-52.372l-66.781,116.202h30.271
		L203.847,155.714z"/>
	<path d="M288.076,328.949c0-41.641,22.898-78.573,58.657-97.237c-2.16-3.901-3.392-8.395-3.392-13.169
		c0-14.991,12.186-27.186,27.186-27.186h22.485V26.612c0-14.696-11.913-26.611-26.611-26.611H26.611C11.917,0.001,0,11.916,0,26.612
		v438.042c0,14.696,11.917,26.609,26.611,26.609H366.4c14.699,0,26.611-11.913,26.611-26.609v-26.169
		C334.74,435.926,288.076,387.847,288.076,328.949z M163.147,166.994l79.111-137.607c1.265-2.206,3.709-3.446,6.173-3.519
		c2.541,0.041,4.877,1.447,6.061,3.688l29.886,55.441l12.731-11.921c1.485-1.383,3.468-2.055,5.499-1.854
		c2.031,0.207,3.857,1.278,5.005,2.934l64.433,91.336c1.293,1.264,2.095,3.037,2.095,4.997c0,3.879-3.135,7.014-7.004,7.014
		c-0.048,0-0.097-0.008-0.128,0H260.376l5.214,5.22c4.797,4.799,4.797,12.569,0,17.367c-2.4,2.398-5.535,3.599-8.682,3.599
		c-3.151,0-6.286-1.2-8.686-3.599l-13.498-13.504l-13.51,13.504c-2.4,2.398-5.551,3.599-8.686,3.599c-3.135,0-6.281-1.2-8.681-3.599
		c-4.797-4.798-4.797-12.568,0-17.367l5.229-5.22h-39.852c-2.493,0-4.813-1.337-6.061-3.505
		C161.899,171.841,161.899,169.17,163.147,166.994z M136.476,233.296c4.507,0,8.155,3.646,8.184,8.155
		c0,4.525-3.645,8.204-8.152,8.22l-16.376,0.057c-0.032,0-0.032,0-0.032,0c-2.176,0-4.287-0.871-5.824-2.414
		c-1.533-1.551-2.396-3.654-2.364-5.846l0.128-16.377c0.048-4.493,3.709-8.113,8.188-8.113c0.032,0,0.064,0,0.081,0
		c4.523,0.038,8.152,3.732,8.108,8.258l-0.064,8.084l8.092-0.024C136.444,233.296,136.46,233.296,136.476,233.296z M112.389,184.61
		l0.369-40.482c0.048-4.504,3.693-8.115,8.188-8.115c0.016,0,0.048,0,0.08,0c4.507,0.037,8.156,3.74,8.107,8.257l-0.369,40.483
		c-0.032,4.502-3.692,8.116-8.188,8.116c-0.017,0-0.032,0-0.064,0C115.99,192.829,112.357,189.128,112.389,184.61z M105.068,79.153
		h16.373c2.191,0,4.287,0.871,5.824,2.422c1.533,1.551,2.396,3.654,2.364,5.838l-0.129,16.374c-0.048,4.493-3.708,8.116-8.184,8.116
		c-0.032,0-0.064,0-0.081,0c-4.527-0.04-8.156-3.733-8.107-8.259l0.064-8.115h-8.124c-4.511,0-8.188-3.663-8.188-8.188
		C96.88,82.815,100.557,79.153,105.068,79.153z M97.293,337.064h38.637c4.527,0,8.188,3.663,8.188,8.188
		c0,4.525-3.661,8.188-8.188,8.188H97.293c-4.507,0-8.188-3.663-8.188-8.188C89.105,340.727,92.786,337.064,97.293,337.064z
		 M34.129,87.341c0-4.525,3.645-8.188,8.188-8.188h16.372c4.511,0,8.188,3.662,8.188,8.188c0,4.525-3.676,8.188-8.188,8.188h-8.185
		v8.186c0,4.526-3.681,8.188-8.188,8.188c-4.544,0-8.188-3.662-8.188-8.188V87.341z M34.129,135.883
		c0-4.525,3.645-8.188,8.188-8.188c4.507,0,8.188,3.662,8.188,8.188v32.167c0,4.525-3.681,8.188-8.188,8.188
		c-4.544,0-8.188-3.662-8.188-8.188V135.883z M34.129,200.21c0-4.525,3.645-8.189,8.188-8.189c4.507,0,8.188,3.663,8.188,8.189
		v32.166c0,4.525-3.681,8.188-8.188,8.188c-4.544,0-8.188-3.663-8.188-8.188V200.21z M34.129,264.545
		c0-4.528,3.645-8.189,8.188-8.189c4.507,0,8.188,3.66,8.188,8.189v32.166c0,4.525-3.681,8.189-8.188,8.189
		c-4.544,0-8.188-3.663-8.188-8.189V264.545z M34.129,345.253v-16.376c0-4.525,3.645-8.186,8.188-8.186
		c4.507,0,8.188,3.66,8.188,8.186v8.188h8.185c4.511,0,8.188,3.663,8.188,8.188c0,4.525-3.676,8.188-8.188,8.188H42.317
		C37.773,353.441,34.129,349.778,34.129,345.253z M71.646,451.694c-16.199,0-29.328-13.137-29.328-29.337
		c0-16.208,13.129-29.345,29.328-29.345c16.216,0,29.345,13.137,29.345,29.345C100.99,438.557,87.861,451.694,71.646,451.694z
		 M153.554,430.544h-32.768c-4.523,0-8.188-3.66-8.188-8.186c0-4.525,3.665-8.189,8.188-8.189h32.768
		c4.508,0,8.188,3.663,8.188,8.189C161.743,426.884,158.062,430.544,153.554,430.544z M164.203,249.575
		c-4.508,0-8.156-3.646-8.188-8.156c0-4.525,3.648-8.204,8.156-8.22l27.763-0.095h0.017c4.523,0,8.172,3.645,8.204,8.156
		c0,4.525-3.648,8.201-8.156,8.218l-27.763,0.097C164.235,249.575,164.219,249.575,164.203,249.575z M166.362,345.253
		c0-4.525,3.661-8.188,8.188-8.188h38.62c4.54,0,8.188,3.663,8.188,8.188c0,4.525-3.648,8.188-8.188,8.188h-38.62
		C170.023,353.441,166.362,349.778,166.362,345.253z M219.055,430.544h-32.752c-4.54,0-8.188-3.66-8.188-8.186
		c0-4.525,3.648-8.189,8.188-8.189h32.752c4.524,0,8.189,3.663,8.189,8.189C227.243,426.884,223.579,430.544,219.055,430.544z
		 M236.118,249.329l-16.376,0.054c-0.016,0-0.016,0-0.032,0c-4.508,0-8.172-3.645-8.188-8.154c-0.016-4.526,3.633-8.204,8.156-8.22
		l7.947-0.024l-0.365-11.634c-0.145-4.518,3.404-8.301,7.916-8.443c3.805-0.354,8.316,3.39,8.445,7.915l0.638,20.053
		c0.08,2.216-0.734,4.359-2.272,5.95C240.453,248.415,238.325,249.32,236.118,249.329z M276.368,422.357
		c0,4.526-3.661,8.186-8.188,8.186h-16.372c-4.527,0-8.188-3.66-8.188-8.186c0-4.525,3.661-8.189,8.188-8.189h8.185v-8.188
		c0-4.525,3.664-8.189,8.188-8.189c4.528,0,8.188,3.663,8.188,8.189V422.357z M276.368,361.63c0,4.525-3.661,8.186-8.188,8.186
		c-4.523,0-8.188-3.66-8.188-8.186v-8.189h-8.185c-4.527,0-8.188-3.663-8.188-8.188c0-4.525,3.661-8.188,8.188-8.188h16.372
		c4.528,0,8.188,3.663,8.188,8.188V361.63z"/>
	<path d="M425.185,239.604v-10.25c5.98,0,10.813-4.829,10.813-10.812c0-5.965-4.833-10.81-10.813-10.81h-54.659
		c-5.98,0-10.809,4.845-10.809,10.81c0,5.982,4.829,10.812,10.809,10.812v10.25c-38.251,11.69-66.075,47.27-66.075,89.345
		c0,51.573,41.799,93.408,93.404,93.408c51.589,0,93.408-41.835,93.408-93.408C491.264,286.875,463.437,251.311,425.185,239.604z
		 M397.856,408.54c-43.895,0-79.589-35.71-79.589-79.591c0-43.913,35.694-79.605,79.589-79.605
		c43.898,0,79.593,35.691,79.593,79.605C477.449,372.83,441.754,408.54,397.856,408.54z"/>
	<path d="M397.856,256.539c-39.929,0-72.392,32.495-72.392,72.41c0,39.915,32.463,72.378,72.392,72.378
		c39.917,0,72.396-32.463,72.396-72.378C470.252,289.034,437.772,256.539,397.856,256.539z M436.573,333.796h-28.706l10.99,10.994
		c1.42,1.423,1.42,3.734,0,5.157c-0.706,0.694-1.65,1.064-2.577,1.064c-0.943,0-1.871-0.369-2.573-1.064l-11.005-10.996v28.699
		c0,2.685-2.172,4.86-4.845,4.86c-2.685,0-4.861-2.176-4.861-4.86v-28.699l-10.985,10.996c-0.703,0.694-1.63,1.064-2.577,1.064
		c-0.927,0-1.871-0.369-2.573-1.064c-1.425-1.423-1.425-3.734,0-5.157l10.986-10.994h-28.703c-2.689,0-4.865-2.167-4.865-4.847
		c0-2.685,2.176-4.876,4.865-4.876h28.703l-10.986-10.978c-1.441-1.424-1.441-3.734,0-5.157c1.409-1.415,3.725-1.415,5.15,0
		l10.985,10.985v-28.704c0-2.68,2.176-4.847,4.861-4.847c2.673,0,4.845,2.167,4.845,4.847v28.704l11.005-10.985
		c1.405-1.415,3.725-1.415,5.15,0c1.42,1.423,1.42,3.733,0,5.157l-11.006,10.978h28.723c2.685,0,4.861,2.191,4.861,4.876
		C441.434,331.629,439.258,333.796,436.573,333.796z"/>
</g>
<g>
</g>
<g>
</g>
<g>
</g>
<g>
</g>
<g>
</g>
<g>
</g>
<g>
</g>
<g>
</g>
<g>
</g>
<g>
</g>
<g>
</g>
<g>
</g>
<g>
</g>
<g>
</g>
<g>
</g>
</svg>
