<?xml version="1.0" encoding="iso-8859-1"?>
<!-- Generator: Adobe Illustrator 18.0.0, SVG Export Plug-In . SVG Version: 6.00 Build 0)  -->
<!DOCTYPE svg PUBLIC "-//W3C//DTD SVG 1.1//EN" "http://www.w3.org/Graphics/SVG/1.1/DTD/svg11.dtd">
<svg version="1.1" id="Capa_1" xmlns="http://www.w3.org/2000/svg" xmlns:xlink="http://www.w3.org/1999/xlink" x="0px" y="0px"
	 viewBox="0 0 490.505 490.505" style="enable-background:new 0 0 490.505 490.505;" xml:space="preserve">
<path d="M480.314,181.395c5.623,0,10.191-4.562,10.191-10.191v-14.268c0-5.629-4.568-10.191-10.191-10.191h-7.673v-28.469
	c0-1.752-0.447-3.463-1.307-4.991l-23.899-42.579c-0.891-1.569-2.546-2.548-4.348-2.548c-1.798,0-3.453,0.979-4.344,2.548
	l-23.903,42.579c-0.859,1.528-1.303,3.239-1.303,4.991v28.469H373.71v-28.469c0-1.752-0.443-3.463-1.307-4.991l-23.883-42.579
	c-0.891-1.569-2.546-2.548-4.36-2.548c-1.802,0-3.457,0.979-4.332,2.548l-23.915,42.579c-0.863,1.528-1.307,3.239-1.307,4.991
	v28.469h-39.81v-28.469c0-1.752-0.443-3.463-1.303-4.991l-23.887-42.579c-0.891-1.569-2.545-2.548-4.36-2.548
	c-1.803,0-3.457,0.979-4.333,2.548l-23.915,42.579c-0.859,1.528-1.307,3.239-1.307,4.991v28.469h-39.805v-28.469
	c0-1.752-0.448-3.463-1.307-4.991l-23.899-42.579c-0.879-1.569-2.534-2.548-4.348-2.548s-3.473,0.979-4.348,2.548l-23.9,42.579
	c-0.859,1.528-1.307,3.239-1.307,4.991v28.469H76.973v-28.469c0-1.752-0.448-3.463-1.307-4.991L51.751,70.706
	c-0.875-1.569-2.534-2.548-4.333-2.548c-1.814,0-3.473,0.979-4.364,2.548l-23.883,42.579c-0.859,1.528-1.307,3.239-1.307,4.991
	v28.469h-7.673C4.556,146.745,0,151.307,0,156.937v14.268c0,5.629,4.556,10.191,10.191,10.191h7.673v161.012h-7.673
	C4.556,342.407,0,346.969,0,352.598v14.268c0,5.627,4.556,10.189,10.191,10.189h7.673v35.104c0,5.627,4.556,10.189,10.191,10.189
	h38.726c5.619,0,10.191-4.562,10.191-10.189v-35.104h39.805v35.104c0,5.627,4.556,10.189,10.191,10.189h38.727
	c5.635,0,10.191-4.562,10.191-10.189v-35.104h39.805v35.104c0,5.627,4.568,10.189,10.191,10.189h38.722
	c5.639,0,10.191-4.562,10.191-10.189v-35.104h39.81v35.104c0,5.627,4.568,10.189,10.191,10.189h38.723
	c5.639,0,10.191-4.562,10.191-10.189v-35.104h39.825v35.104c0,5.627,4.568,10.189,10.191,10.189h38.722
	c5.623,0,10.191-4.562,10.191-10.189v-35.104h7.673c5.623,0,10.191-4.562,10.191-10.189v-14.268c0-5.629-4.568-10.191-10.191-10.191
	h-7.673V181.395H480.314z M76.973,342.407V181.395h39.805v161.012H76.973z M175.887,342.407V181.395h39.805v161.012H175.887z
	 M274.796,342.407V181.395h39.81v161.012H274.796z M413.536,342.407H373.71V181.395h39.825V342.407z"/>
<g>
</g>
<g>
</g>
<g>
</g>
<g>
</g>
<g>
</g>
<g>
</g>
<g>
</g>
<g>
</g>
<g>
</g>
<g>
</g>
<g>
</g>
<g>
</g>
<g>
</g>
<g>
</g>
<g>
</g>
</svg>
