<?xml version="1.0" encoding="iso-8859-1"?>
<!-- Generator: Adobe Illustrator 18.0.0, SVG Export Plug-In . SVG Version: 6.00 Build 0)  -->
<!DOCTYPE svg PUBLIC "-//W3C//DTD SVG 1.1//EN" "http://www.w3.org/Graphics/SVG/1.1/DTD/svg11.dtd">
<svg version="1.1" id="Capa_1" xmlns="http://www.w3.org/2000/svg" xmlns:xlink="http://www.w3.org/1999/xlink" x="0px" y="0px"
	 viewBox="0 0 488.642 488.642" style="enable-background:new 0 0 488.642 488.642;" xml:space="preserve">
<g>
	<path d="M236.678,102.981c20.645,3.376,40.122-10.612,43.496-31.256c3.379-20.63-10.611-40.104-31.271-43.482
		c-20.611-3.376-40.102,10.611-43.48,31.239C202.043,80.129,216.05,99.602,236.678,102.981z"/>
	<path d="M217.454,344.338c0.729,5.132,1.237,10.33,1.237,15.661c0,4.87-0.394,9.64-0.972,14.36h32.641
		c0.017,0,0.033,0.008,0.05,0.008s0.05-0.008,0.065-0.008h20.446c-0.575-4.721-0.972-9.491-0.972-14.36
		c0-5.792,0.574-11.435,1.418-16.986c8.288-56.902,57.223-100.795,116.355-100.795c6.212,0,12.275,0.626,18.242,1.557v-18.767
		c0-9.021-3.875-17.604-10.645-23.561c-5.964-5.248-13.66-7.835-21.521-7.653v-35.96v-2.973l-0.05-1.121
		c-0.641-7.647-7.345-13.315-14.974-12.68l-38.274,3.197c-4.301-5.364-11.534-7.843-18.441-5.527l-45.986,15.462l-27.794-30.085
		c-2.618-7.793-7.871-14.44-15.045-18.545c-3.759-2.151-10.169-4.859-17.116-4.431c-11.546,0.711-22.803,5.996-28.981,16.765
		c0,0-42.24,73.559-55.61,96.939c-8.473,14.817-6.359,23.314-4.334,27.704C163.942,245.554,210.027,288.854,217.454,344.338z
		 M251.101,190.538c1.795,0,3.61-0.288,5.372-0.881l56.333-18.949c3.64-1.218,6.344-3.724,8.354-6.673l18.899,5.891v27.828
		l-29.146,3.716c-13.019,1.656-23.63,11.238-26.612,24.022l-18.171,77.984l-13.808-61.548c-2.275-10.117-10.496-17.82-20.728-19.451
		l-42.739-6.788l29.92-52.148l19.937,21.577C241.957,188.635,246.474,190.538,251.101,190.538z"/>
	<path d="M387.724,259.089c-55.643,0-100.9,45.269-100.9,100.909c0,10.907,1.795,21.387,5.008,31.231h-95.02
		c3.214-9.844,5.008-20.324,5.008-31.231c0-55.641-45.274-100.909-100.917-100.909C45.263,259.089,0,304.358,0,359.998
		s45.263,100.903,100.901,100.903c30.896,0,58.558-13.99,77.093-35.929h132.63c18.517,21.942,46.197,35.929,77.1,35.929
		c55.643,0,100.918-45.263,100.918-100.903S443.366,259.089,387.724,259.089z M100.901,393.413
		c-18.42,0-33.415-14.993-33.415-33.415c0-18.43,14.995-33.423,33.415-33.423c18.436,0,33.431,14.993,33.431,33.423
		C134.332,378.42,119.337,393.413,100.901,393.413z M387.724,393.413c-18.419,0-33.414-14.993-33.414-33.415
		c0-18.43,14.995-33.423,33.414-33.423c18.436,0,33.432,14.993,33.432,33.423C421.155,378.42,406.159,393.413,387.724,393.413z"/>
</g>
<g>
</g>
<g>
</g>
<g>
</g>
<g>
</g>
<g>
</g>
<g>
</g>
<g>
</g>
<g>
</g>
<g>
</g>
<g>
</g>
<g>
</g>
<g>
</g>
<g>
</g>
<g>
</g>
<g>
</g>
</svg>
