<?xml version="1.0" encoding="iso-8859-1"?>
<!-- Generator: Adobe Illustrator 18.0.0, SVG Export Plug-In . SVG Version: 6.00 Build 0)  -->
<!DOCTYPE svg PUBLIC "-//W3C//DTD SVG 1.1//EN" "http://www.w3.org/Graphics/SVG/1.1/DTD/svg11.dtd">
<svg version="1.1" id="Capa_1" xmlns="http://www.w3.org/2000/svg" xmlns:xlink="http://www.w3.org/1999/xlink" x="0px" y="0px"
	 viewBox="0 0 485.577 485.577" style="enable-background:new 0 0 485.577 485.577;" xml:space="preserve">
<g>
	<path d="M480.864,446.768c-6.306-6.319-16.534-6.303-22.84-0.016c-5.071,5.075-13.347,5.059-18.39,0.016
		c-14.122-14.136-37.133-16.375-54.328-6.997l31.127-71.062c1.875-4.264,1.294-9.212-1.51-12.939
		c-2.821-3.72-7.41-5.635-12.025-5.004l-139.134,18.92V18.847c0-8.912-7.219-16.137-16.14-16.137
		c-8.92,0-16.135,7.225-16.135,16.137v10.372L50.941,301.854c-3.501,5.271-3.802,12.033-0.823,17.604
		c2.995,5.57,8.813,9.045,15.131,9.045H231.49v45.571L87.757,393.618c-4.161,0.567-7.785,3.113-9.711,6.839
		c-1.938,3.728-1.938,8.157,0,11.875l12.167,23.404c-15.332-4.088-32.67-0.544-44.236,11.009
		c-5.106,5.091-13.382,5.051-18.426,0.008c-6.305-6.288-16.53-6.304-22.836,0.016c-6.289,6.305-6.289,16.525,0.016,22.82
		c17.65,17.621,46.369,17.628,64.051-0.008c4.917-4.901,13.473-4.893,18.358-0.008c17.085,17.132,46.935,17.116,64.019,0.016
		c4.822-4.854,13.541-4.846,18.362-0.021l0.962,0.929c8.445,7.991,19.43,12.372,31.079,12.372c12.101,0,23.466-4.713,32.037-13.301
		c4.874-4.879,13.493-4.872,18.347-0.008l0.961,0.914c17.164,16.279,46.273,15.91,63.105-0.884
		c4.948-4.933,13.457-4.933,18.374-0.016c17.116,17.132,46.935,17.132,64.05-0.014c4.853-4.855,13.461-4.887,18.379,0.038
		c17.65,17.621,46.38,17.597,64.034-0.008C487.15,463.293,487.15,453.073,480.864,446.768z"/>
	<path d="M290.275,250.428h74.07c4.367,0,8.449-2.223,10.83-5.894c2.362-3.681,2.727-8.307,0.914-12.302L286.664,33.985
		c-0.93-2.088-3.2-3.229-5.451-2.749c-2.238,0.48-3.828,2.458-3.828,4.751v201.55C277.385,244.661,283.151,250.428,290.275,250.428z
		"/>
</g>
<g>
</g>
<g>
</g>
<g>
</g>
<g>
</g>
<g>
</g>
<g>
</g>
<g>
</g>
<g>
</g>
<g>
</g>
<g>
</g>
<g>
</g>
<g>
</g>
<g>
</g>
<g>
</g>
<g>
</g>
</svg>
