<?xml version="1.0" encoding="iso-8859-1"?>
<!-- Generator: Adobe Illustrator 18.0.0, SVG Export Plug-In . SVG Version: 6.00 Build 0)  -->
<!DOCTYPE svg PUBLIC "-//W3C//DTD SVG 1.1//EN" "http://www.w3.org/Graphics/SVG/1.1/DTD/svg11.dtd">
<svg version="1.1" id="Capa_1" xmlns="http://www.w3.org/2000/svg" xmlns:xlink="http://www.w3.org/1999/xlink" x="0px" y="0px"
	 viewBox="0 0 491.502 491.502" style="enable-background:new 0 0 491.502 491.502;" xml:space="preserve">
<g>
	<path d="M298.572,450.337h-32.431V75.076c11.815-6.997,19.823-19.733,19.823-34.469c0-22.201-17.989-40.198-40.199-40.198
		c-22.209,0-40.199,17.997-40.199,40.198c0,14.735,7.992,27.48,19.82,34.469v375.261h-32.431c-11.272,0-20.379,9.123-20.379,20.377
		c0,11.257,9.107,20.379,20.379,20.379h105.616c11.24,0,20.379-9.122,20.379-20.379C318.951,459.46,309.813,450.337,298.572,450.337
		z"/>
	<path d="M199.262,107.513H48.621c-2.977,0-5.826,1.195-7.912,3.313L3.215,148.843c-2.13,2.149-3.277,5.07-3.213,8.087
		c0.096,3.017,1.399,5.876,3.628,7.922l37.158,33.989c2.038,1.87,4.711,2.913,7.5,2.913h150.973V107.513z"/>
	<path d="M488.314,258.488l-37.51-38.011c-2.086-2.118-4.935-3.311-7.912-3.311H292.271v94.233h150.957
		c2.769,0,5.442-1.042,7.496-2.915l37.174-33.988c2.23-2.047,3.537-4.903,3.601-7.92
		C491.578,263.559,490.415,260.636,488.314,258.488z"/>
</g>
<g>
</g>
<g>
</g>
<g>
</g>
<g>
</g>
<g>
</g>
<g>
</g>
<g>
</g>
<g>
</g>
<g>
</g>
<g>
</g>
<g>
</g>
<g>
</g>
<g>
</g>
<g>
</g>
<g>
</g>
</svg>
