<?xml version="1.0" encoding="iso-8859-1"?>
<!-- Generator: Adobe Illustrator 18.0.0, SVG Export Plug-In . SVG Version: 6.00 Build 0)  -->
<!DOCTYPE svg PUBLIC "-//W3C//DTD SVG 1.1//EN" "http://www.w3.org/Graphics/SVG/1.1/DTD/svg11.dtd">
<svg version="1.1" id="Capa_1" xmlns="http://www.w3.org/2000/svg" xmlns:xlink="http://www.w3.org/1999/xlink" x="0px" y="0px"
	 viewBox="0 0 493.502 493.502" style="enable-background:new 0 0 493.502 493.502;" xml:space="preserve">
<path d="M492.02,180.294c-4.309-10.902-16.619-16.197-27.525-11.954l-64.111,25.287H93.114L29.007,168.34
	c-10.922-4.251-23.217,1.035-27.525,11.954c-4.292,10.897,1.061,23.217,11.945,27.517l67.876,26.762
	c2.483,0.969,5.12,1.475,7.786,1.475h10.609c-0.003,0.874-0.004,1.84-0.004,2.915c0,9.373,7.59,16.97,16.969,16.97h10.605
	c-8.584,7.399-14.137,18.211-14.137,30.399c0,22.223,18.08,40.3,40.302,40.3s40.298-18.077,40.298-40.3
	c0-12.188-5.549-23-14.133-30.399h10.589c9.379,0,16.97-7.597,16.97-16.97c0-1.114-0.002-2.073-0.006-2.915h79.199
	c-0.003,0.848-0.005,1.811-0.005,2.915c0,9.373,7.591,16.97,16.969,16.97h10.606c-8.585,7.399-14.137,18.211-14.137,30.399
	c0,22.223,18.078,40.3,40.301,40.3c22.223,0,40.297-18.077,40.297-40.3c0-12.188-5.548-23-14.132-30.399h10.589
	c9.379,0,16.969-7.597,16.969-16.97c0-1.097-0.002-2.064-0.005-2.915h10.606c2.67,0,5.303-0.506,7.79-1.475l67.872-26.762
	C490.96,203.51,496.312,191.191,492.02,180.294z M153.433,301.177c-8.185,0-14.848-6.662-14.848-14.848
	c0-8.185,6.663-14.848,14.848-14.848s14.849,6.663,14.849,14.848C168.282,294.515,161.618,301.177,153.433,301.177z
	 M340.085,301.177c-8.186,0-14.848-6.662-14.848-14.848c0-8.185,6.662-14.848,14.848-14.848c8.185,0,14.848,6.663,14.848,14.848
	C354.932,294.515,348.27,301.177,340.085,301.177z"/>
<g>
</g>
<g>
</g>
<g>
</g>
<g>
</g>
<g>
</g>
<g>
</g>
<g>
</g>
<g>
</g>
<g>
</g>
<g>
</g>
<g>
</g>
<g>
</g>
<g>
</g>
<g>
</g>
<g>
</g>
</svg>
