<?xml version="1.0" encoding="iso-8859-1"?>
<!-- Generator: Adobe Illustrator 18.0.0, SVG Export Plug-In . SVG Version: 6.00 Build 0)  -->
<!DOCTYPE svg PUBLIC "-//W3C//DTD SVG 1.1//EN" "http://www.w3.org/Graphics/SVG/1.1/DTD/svg11.dtd">
<svg version="1.1" id="Capa_1" xmlns="http://www.w3.org/2000/svg" xmlns:xlink="http://www.w3.org/1999/xlink" x="0px" y="0px"
	 viewBox="0 0 493.007 493.007" style="enable-background:new 0 0 493.007 493.007;" xml:space="preserve">
<g>
	<path d="M218.174,103.082c-19.282,7.213-29.089,28.714-21.865,48.004c7.224,19.291,28.73,29.087,48.013,21.872
		c19.318-7.229,29.072-28.713,21.849-48.012C258.963,105.647,237.489,95.859,218.174,103.082z"/>
	<path d="M425.468,332.038c-9.35-0.699-17.155,6.11-17.889,15.258l-2.823,35.62l-30.498,20.468l-45.743-68.319
		c-4.575-6.842-12.238-10.98-20.468-11.063l-47.996-0.463V304.63c2.566,1.534,5.487,2.426,8.507,2.426c1.67,0,3.344-0.25,4.998-0.77
		l51.717-16.296c8.746-2.761,13.615-12.094,10.856-20.852c-2.758-8.757-12.042-13.625-20.858-10.851l-39.62,12.483l-15.567-24.121
		V232.49c0.017-18.303-14.583-33.154-33.113-33.154c-30.266,0-34.002,24.514-34.002,33.304c0,0-0.021,111.004-0.021,115.184
		c0,13.773,10.927,25.037,24.688,25.176l76.779,0.738l38.451,57.438l-46.795,31.414c-7.614,5.115-9.643,15.437-4.53,23.059
		c3.198,4.779,8.458,7.36,13.815,7.36c3.182,0,6.408-0.909,9.252-2.823l125.357-84.146c4.205-2.825,6.898-7.426,7.305-12.482
		l3.455-43.631C441.443,340.771,434.622,332.768,425.468,332.038z"/>
	<path d="M347.345,10.673c-3.279-8.561-12.869-12.864-21.475-9.56l-262.97,100.93c-8.571,3.286-12.854,12.902-9.562,21.474
		c2.534,6.606,8.832,10.672,15.518,10.672c1.98,0,3.992-0.357,5.957-1.112l68.854-26.424v246.495
		c0,39.693,32.304,71.994,72.005,71.994h54.832c9.186,0,16.622-7.441,16.622-16.62c0-9.179-7.436-16.621-16.622-16.621h-54.832
		c-21.377,0-38.761-17.385-38.761-38.753V93.894l160.871-61.745C346.355,28.862,350.641,19.245,347.345,10.673z"/>
</g>
<g>
</g>
<g>
</g>
<g>
</g>
<g>
</g>
<g>
</g>
<g>
</g>
<g>
</g>
<g>
</g>
<g>
</g>
<g>
</g>
<g>
</g>
<g>
</g>
<g>
</g>
<g>
</g>
<g>
</g>
</svg>
