<?xml version="1.0" encoding="iso-8859-1"?>
<!-- Generator: Adobe Illustrator 18.0.0, SVG Export Plug-In . SVG Version: 6.00 Build 0)  -->
<!DOCTYPE svg PUBLIC "-//W3C//DTD SVG 1.1//EN" "http://www.w3.org/Graphics/SVG/1.1/DTD/svg11.dtd">
<svg version="1.1" id="Capa_1" xmlns="http://www.w3.org/2000/svg" xmlns:xlink="http://www.w3.org/1999/xlink" x="0px" y="0px"
	 viewBox="0 0 491.826 491.826" style="enable-background:new 0 0 491.826 491.826;" xml:space="preserve">
<g>
	<path d="M81.35,325.607c-6.521-3.192-11.431-8.742-13.782-15.617c-2.356-6.881-1.893-14.267,1.297-20.796
		c2.045-4.183,0.314-9.229-3.868-11.278c-4.166-2.033-9.22-0.295-11.278,3.87c-10.67,21.834-1.612,48.285,20.221,58.97
		c1.199,0.585,2.468,0.858,3.703,0.858c3.112,0,6.108-1.738,7.592-4.727C87.277,332.705,85.529,327.659,81.35,325.607z"/>
	<path d="M482.288,260.182c-4.91-10.053-11.559-18.746-19.267-26.181c0,0-62.922-80.074-83.051-107.454
		c-18.407-25.038-49.824-37.221-78.278-23.316c-28.438,13.915-40.803,47.092-29.641,76.088l8.877,34.487h-70.029l8.861-34.487
		c11.179-28.996-1.186-62.173-29.641-76.088c-28.437-13.905-59.473-1.449-78.245,23.316
		c-22.498,29.681-83.068,107.454-83.068,107.454c-7.708,7.435-14.357,16.128-19.284,26.181
		c-10.931,22.377-12.514,47.678-4.426,71.237c8.083,23.564,24.862,42.565,47.237,53.516c12.894,6.304,26.66,9.499,40.935,9.499
		c35.93,0,68.037-20.037,83.829-52.302c3.703-7.592,6.191-15.455,7.704-23.381l47.572,21.116c8.625,3.828,18.473,3.828,27.103,0
		l47.551-21.116c1.513,7.926,3.984,15.789,7.708,23.381c15.771,32.256,47.915,52.302,83.841,52.302l0,0
		c14.258,0,28.024-3.195,40.918-9.499c22.375-10.95,39.153-29.952,47.237-53.516C494.819,307.86,493.236,282.559,482.288,260.182z
		 M146.8,327.312c-10.08,20.6-30.595,33.401-53.531,33.401c-9.088,0-17.882-2.042-26.115-6.076
		c-14.291-6.99-24.995-19.118-30.165-34.167c-5.154-15.041-4.149-31.186,2.831-45.469c10.08-20.6,30.595-33.4,53.548-33.4
		c9.088,0,17.882,2.042,26.114,6.075C148.957,262.1,161.224,297.822,146.8,327.312z M245.907,297.411
		c-12.795,0-23.185-10.381-23.185-23.185c0-12.801,10.39-23.183,23.185-23.183c12.808,0,23.181,10.382,23.181,23.183
		C269.088,287.03,258.715,297.411,245.907,297.411z M454.822,320.47c-5.153,15.049-15.874,27.177-30.148,34.167
		c-8.249,4.034-17.01,6.076-26.098,6.076c-22.954,0-43.469-12.802-53.548-33.401c-14.423-29.489-2.169-65.212,27.334-79.636
		c8.232-4.033,17.01-6.075,26.098-6.075c22.937,0,43.452,12.801,53.531,33.4C458.988,289.284,459.991,305.429,454.822,320.47z"/>
	<path d="M426.831,277.915c-4.182,2.05-5.91,7.096-3.869,11.278c3.195,6.529,3.653,13.915,1.298,20.796
		c-2.368,6.875-7.261,12.425-13.795,15.617c-4.183,2.053-5.897,7.099-3.856,11.28c1.451,2.988,4.447,4.727,7.576,4.727
		c1.252,0,2.504-0.273,3.69-0.858c21.833-10.685,30.921-37.136,20.233-58.97C436.051,277.604,431.03,275.865,426.831,277.915z"/>
</g>
<g>
</g>
<g>
</g>
<g>
</g>
<g>
</g>
<g>
</g>
<g>
</g>
<g>
</g>
<g>
</g>
<g>
</g>
<g>
</g>
<g>
</g>
<g>
</g>
<g>
</g>
<g>
</g>
<g>
</g>
</svg>
