<?xml version="1.0" encoding="iso-8859-1"?>
<!-- Generator: Adobe Illustrator 18.0.0, SVG Export Plug-In . SVG Version: 6.00 Build 0)  -->
<!DOCTYPE svg PUBLIC "-//W3C//DTD SVG 1.1//EN" "http://www.w3.org/Graphics/SVG/1.1/DTD/svg11.dtd">
<svg version="1.1" id="Capa_1" xmlns="http://www.w3.org/2000/svg" xmlns:xlink="http://www.w3.org/1999/xlink" x="0px" y="0px"
	 viewBox="0 0 492.354 492.354" style="enable-background:new 0 0 492.354 492.354;" xml:space="preserve">
<g>
	<path d="M315.525,390.769c-4.256-4.199-10.003-6.551-15.975-6.551h-20.122v-13.015h16.894c5.425,0,9.825-4.399,9.825-9.826v-12.853
		c0-5.426-4.4-9.826-9.825-9.826h-16.894v-16.818h16.894c5.425,0,9.825-4.4,9.825-9.826v-12.854c0-5.426-4.4-9.825-9.825-9.825
		h-16.894v-12.708c0-9.082-7.351-16.442-16.438-16.442s-16.442,7.36-16.442,16.442v12.708H98.57v-12.708
		c0-9.082-7.351-16.442-16.438-16.442c-9.088,0-16.442,7.36-16.442,16.442v12.708H48.795c-5.424,0-9.824,4.399-9.824,9.825v12.854
		c0,5.426,4.4,9.826,9.824,9.826h16.895v16.818H48.795c-5.424,0-9.824,4.4-9.824,9.826v12.853c0,5.427,4.4,9.826,9.824,9.826h16.895
		v13.015H45.555c-5.972,0-11.723,2.352-15.978,6.551L3.953,416.041c-2.828,2.795-3.695,7.032-2.184,10.726
		c1.507,3.686,5.105,6.093,9.088,6.093h21.947v41.104c0,9.079,7.354,16.442,16.442,16.442c9.087,0,16.442-7.363,16.442-16.442
		V432.86h213.739v41.104c0,9.079,7.354,16.442,16.442,16.442c9.088,0,16.442-7.363,16.442-16.442V432.86h21.932
		c3.985,0,7.58-2.407,9.092-6.093c1.507-3.693,0.641-7.931-2.185-10.726L315.525,390.769z M98.57,321.879h147.978v16.818H98.57
		V321.879z M98.57,371.204h147.978v13.015H98.57V371.204z"/>
	<path d="M96.498,2.47c0-0.032-0.027-0.065-0.061-0.065H9.846c-5.429,0-9.83,4.401-9.83,9.828v85.227C0.016,97.507,0,97.54,0,97.62
		c0.403,0,0.806,0.113,1.237,0.113C53.837,97.733,96.498,55.087,96.498,2.47z"/>
	<path d="M3.358,124.899v80.314c0,6.809,5.524,12.332,12.331,12.332c6.808,0,12.332-5.523,12.332-12.332v-80.314
		c0-6.807-5.524-12.33-12.332-12.33C8.882,112.569,3.358,118.092,3.358,124.899z"/>
	<path d="M63.424,99.772c-5.892,3.403-7.914,10.941-4.514,16.844l40.176,69.572c2.281,3.957,6.424,6.166,10.691,6.166
		c2.088,0,4.207-0.53,6.15-1.654c5.896-3.404,7.918-10.944,4.514-16.844l-40.176-69.572C76.864,98.4,69.349,96.345,63.424,99.772z"
		/>
	<path d="M102.891,81.659l69.573,40.174c1.942,1.124,4.063,1.654,6.15,1.654c4.268,0,8.41-2.209,10.691-6.166
		c3.405-5.9,1.382-13.438-4.51-16.844l-69.574-40.173c-5.907-3.428-13.456-1.38-16.841,4.514
		C94.975,70.717,96.998,78.256,102.891,81.659z"/>
	<path d="M123.508,29.428l80.33-0.016c6.807,0,12.332-5.523,12.332-12.33c0-6.816-5.525-12.332-12.332-12.332l-80.33,0.017
		c-6.807,0-12.332,5.523-12.332,12.331C111.176,23.914,116.701,29.428,123.508,29.428z"/>
	<path d="M439.432,1.948c-20.714,0-38.599,25.828-47.284,63.359c28.835,10.654,50.094,44.354,52.503,86.776
		c16.616,9.336,28.34,25.762,32.434,44.948c9.427-20.695,15.27-49.107,15.27-80.488C492.354,53.256,468.653,1.948,439.432,1.948z"/>
	<path d="M422.989,400.083c0,5.426,4.401,9.825,9.825,9.825h13.23c5.429,0,9.829-4.399,9.829-9.825V263.513
		c-9.151,8.245-20.407,13.785-32.885,15.624V400.083z"/>
	<path d="M428.257,162.737c0.016-0.858,0.178-1.67,0.178-2.537c0-45.456-24.842-82.305-55.494-82.305
		c-30.647,0-55.488,36.849-55.488,82.305c0,10.687,1.478,20.825,3.981,30.193c-13.569,8.567-22.479,22.745-22.479,38.85
		c0,26.187,23.459,47.423,52.41,47.423c1.266,0,2.439-0.315,3.691-0.403v123.82c0,5.426,4.4,9.825,9.825,9.825h29.064
		c5.425,0,9.825-4.399,9.825-9.825V262.278c3.309,0.826,6.726,1.373,10.276,1.373c26.671,0,48.296-23.161,48.296-51.726
		C462.343,188.7,447.943,169.272,428.257,162.737z"/>
</g>
<g>
</g>
<g>
</g>
<g>
</g>
<g>
</g>
<g>
</g>
<g>
</g>
<g>
</g>
<g>
</g>
<g>
</g>
<g>
</g>
<g>
</g>
<g>
</g>
<g>
</g>
<g>
</g>
<g>
</g>
</svg>
