<?xml version="1.0" encoding="iso-8859-1"?>
<!-- Generator: Adobe Illustrator 18.0.0, SVG Export Plug-In . SVG Version: 6.00 Build 0)  -->
<!DOCTYPE svg PUBLIC "-//W3C//DTD SVG 1.1//EN" "http://www.w3.org/Graphics/SVG/1.1/DTD/svg11.dtd">
<svg version="1.1" id="Capa_1" xmlns="http://www.w3.org/2000/svg" xmlns:xlink="http://www.w3.org/1999/xlink" x="0px" y="0px"
	 viewBox="0 0 491.749 491.749" style="enable-background:new 0 0 491.749 491.749;" xml:space="preserve">
<g>
	<path d="M260.557,109.892c19.95-3.521,33.294-22.545,29.769-42.503c-3.513-19.944-22.538-33.271-42.504-29.751
		c-19.937,3.512-33.262,22.536-29.752,42.486C221.583,100.076,240.607,113.404,260.557,109.892z"/>
	<g>
		<path d="M422.94,360.986c-0.99-11.731-42.708-18.428-102.819-18.403l0.894-94.822c0.064-7.11-2.969-13.895-8.301-18.602
			c-5.311-4.692-12.366-6.841-19.469-5.931l-41.723,5.57l12.847-69.045l70.261-23.758c3.718-1.252,6.847-3.807,8.842-7.184
			l32.737-55.551c4.595-7.779,1.995-17.795-5.78-22.375c-7.788-4.581-17.811-1.995-22.374,5.776l-29.657,50.317l-48.745,16.479
			l-38.748-5.91c-2.312-0.353-4.663-0.372-6.98-0.059l-78.767,10.662c-3.032,0.406-5.873,1.658-8.232,3.6l-50.612,41.896
			c-6.942,5.76-7.932,16.063-2.171,23.014c3.241,3.902,7.9,5.922,12.591,5.922c3.673,0,7.375-1.229,10.423-3.75l47.019-38.92
			l44.803-6.09l-16.538,88.766l-45.199,20.477c-11.365,5.139-17.045,18.004-13.216,29.87l20.991,64.945
			c-42.471,7.525-74.347,16.854-87.195,25.871c20.908-6.248,44.895-3.024,62.822,10.11c12.002-8.889,26.492-13.7,41.734-13.7
			c0.016,0,0.048,0,0.08,0c15.179,0,29.656,4.804,41.659,13.692c24.1-17.834,59.453-17.786,83.505,0
			c21.484-15.888,51.906-17.476,75.273-5.027C400.374,380.051,423.709,369.964,422.94,360.986z M271.077,343.923
			c-11.814,0.623-23.992,1.444-36.47,2.506c-13.917,1.182-27.405,2.603-40.413,4.19l-16.777-51.928l32.977-14.933l61.32-8.186
			L271.077,343.923z"/>
	</g>
	<path d="M486.976,418.116c-6.385-6.392-16.725-6.392-23.11-0.017c-5.14,5.141-13.52,5.132-18.66,0.008
		c-17.334-17.348-47.451-17.388-64.845,0.024c-4.919,4.926-13.648,4.926-18.596-0.024c-17.287-17.323-47.483-17.34-64.849,0.017
		c-4.883,4.886-13.692,4.917-18.64-0.032c-17.302-17.315-47.451-17.38-64.865,0.049c-4.819,4.837-13.329,4.957-18.324,0.248
		l-0.288-0.281c-8.649-8.664-20.158-13.43-32.369-13.43c-0.016,0-0.032,0-0.048,0c-12.259,0-23.78,4.781-32.432,13.446
		c-4.963,4.966-13.581,4.997-18.577-0.017c-17.189-17.211-47.707-17.165-64.816-0.016c-5.14,5.132-13.52,5.14-18.672,0.008
		c-6.386-6.383-16.729-6.383-23.115,0.017c-6.365,6.386-6.365,16.735,0.033,23.112c17.846,17.843,46.958,17.827,64.865-0.016
		c4.915-4.926,13.665-4.926,18.579-0.008c17.302,17.34,47.5,17.363,64.833,0.023c2.488-2.49,5.777-3.863,9.318-3.863
		c0,0,0,0,0.016,0c3.369,0,6.545,1.27,8.985,3.575l0.321,0.32c8.557,8.522,20.35,13.414,32.4,13.414
		c12.242,0,23.751-4.765,32.464-13.478c4.916-4.925,13.612-4.963,18.608,0.024c17.05,17.077,47.803,17.069,64.833,0.008
		c4.996-4.995,13.648-4.987,18.612-0.023c17.318,17.348,47.531,17.371,64.865-0.009c4.979-4.963,13.58-4.987,18.607,0.04
		c17.875,17.843,46.991,17.835,64.833-0.008C493.346,434.851,493.346,424.502,486.976,418.116z"/>
</g>
<g>
</g>
<g>
</g>
<g>
</g>
<g>
</g>
<g>
</g>
<g>
</g>
<g>
</g>
<g>
</g>
<g>
</g>
<g>
</g>
<g>
</g>
<g>
</g>
<g>
</g>
<g>
</g>
<g>
</g>
</svg>
