<?xml version="1.0" encoding="iso-8859-1"?>
<!-- Generator: Adobe Illustrator 18.0.0, SVG Export Plug-In . SVG Version: 6.00 Build 0)  -->
<!DOCTYPE svg PUBLIC "-//W3C//DTD SVG 1.1//EN" "http://www.w3.org/Graphics/SVG/1.1/DTD/svg11.dtd">
<svg version="1.1" id="Capa_1" xmlns="http://www.w3.org/2000/svg" xmlns:xlink="http://www.w3.org/1999/xlink" x="0px" y="0px"
	 viewBox="0 0 496.559 496.559" style="enable-background:new 0 0 496.559 496.559;" xml:space="preserve">
<g>
	<path d="M198.768,264.508v-33.53h99.021v33.433c14.955-8.267,32.782-10.669,49.513-7.283V58.933
		c0-13.675-11.092-24.754-24.756-24.754c-13.669,0-24.757,11.08-24.757,24.754v40.019h-99.021V58.933
		c0-13.675-11.088-24.754-24.757-24.754c-13.664,0-24.752,11.08-24.752,24.754v198.334
		C165.986,253.92,183.829,256.314,198.768,264.508z M297.789,131.957v66.015h-99.021v-66.015H297.789z"/>
	<path d="M70.334,316.768c5.028-5.012,13.766-5.02,18.794,0.009c17.503,17.487,47.979,17.471,65.45,0
		c4.931-4.964,13.843-4.956,18.773-0.025l0.983,0.951c8.641,8.171,19.873,12.65,31.782,12.65c12.378,0,23.996-4.817,32.766-13.602
		c4.98-4.987,13.778-4.979,18.758-0.008l0.987,0.935c17.547,16.648,47.315,16.262,64.527-0.901
		c5.06-5.045,13.766-5.045,18.794-0.017c17.503,17.517,47.996,17.517,65.499-0.017c4.964-4.963,13.762-5.003,18.79,0.041
		c18.05,18.017,47.434,17.992,65.482-0.008c6.448-6.44,6.448-16.892,0.017-23.337c-6.448-6.465-16.904-6.448-23.353-0.017
		c-5.19,5.188-13.652,5.172-18.811,0.017c-17.39-17.398-48.076-17.446-65.511,0.016c-5,4.996-13.733,4.996-18.762-0.016
		c-17.455-17.504-47.963-17.535-65.483,0c-5.028,5.012-13.762,5.012-18.79,0l-0.967-0.936
		c-17.503-16.535-47.385-16.205-64.581,0.969c-4.931,4.947-13.749,4.972-18.745-0.025l-0.95-0.921
		c-17.374-16.412-47.64-16.05-64.581,0.929c-4.931,4.947-13.745,4.964-18.741-0.016c-17.503-17.504-47.979-17.479-65.45-0.024
		c-5.238,5.195-13.701,5.172-18.843,0.008c-6.443-6.432-16.904-6.448-23.352,0.017c-6.428,6.445-6.428,16.896,0.017,23.337
		C22.889,334.793,52.252,334.801,70.334,316.768z"/>
	<path d="M468.385,359.436c-5.19,5.19-13.652,5.174-18.811,0.017c-17.39-17.398-48.076-17.446-65.511,0.016
		c-5,4.996-13.733,4.996-18.762-0.016c-17.455-17.512-47.963-17.528-65.483,0c-5.028,5.012-13.762,5.012-18.79,0l-0.967-0.935
		c-17.503-16.528-47.385-16.213-64.581,0.967c-4.931,4.947-13.749,4.972-18.745-0.024l-0.95-0.918
		c-17.374-16.424-47.64-16.045-64.581,0.926c-4.931,4.948-13.745,4.964-18.741-0.016c-17.503-17.503-47.979-17.479-65.45-0.024
		c-5.238,5.206-13.701,5.165-18.843,0.008c-6.443-6.43-16.904-6.445-23.352,0.017c-6.428,6.445-6.428,16.898,0.017,23.337
		c18.054,18.019,47.417,18.027,65.499-0.009c5.028-5.012,13.766-5.021,18.794,0.009c17.503,17.486,47.979,17.471,65.45,0
		c4.931-4.964,13.843-4.955,18.773-0.025l0.983,0.953c8.641,8.17,19.873,12.651,31.782,12.651c12.378,0,23.996-4.82,32.766-13.604
		c4.98-4.987,13.778-4.979,18.758-0.008l0.987,0.938c17.547,16.646,47.315,16.27,64.527-0.904c5.06-5.045,13.766-5.045,18.794-0.017
		c17.503,17.52,47.996,17.52,65.499-0.017c4.964-4.963,13.762-5.004,18.79,0.041c18.05,18.027,47.434,17.986,65.482-0.008
		c6.448-6.438,6.448-16.892,0.017-23.337C485.289,352.991,474.833,353.006,468.385,359.436z"/>
	<path d="M468.385,425.452c-5.19,5.188-13.652,5.174-18.811,0.016c-17.39-17.398-48.076-17.447-65.511,0.016
		c-5,4.996-13.733,4.996-18.762-0.016c-17.455-17.504-47.963-17.536-65.483,0c-5.028,5.012-13.762,5.012-18.79,0l-0.967-0.937
		c-17.503-16.526-47.385-16.213-64.581,0.969c-4.931,4.939-13.749,4.979-18.745-0.024l-0.95-0.92
		c-17.374-16.413-47.64-16.035-64.581,0.928c-4.931,4.939-13.745,4.973-18.741-0.016c-17.503-17.504-47.979-17.479-65.45-0.024
		c-5.238,5.196-13.701,5.174-18.843,0.009c-6.443-6.433-16.904-6.449-23.352,0.016c-6.428,6.445-6.428,16.898,0.017,23.336
		c18.054,18.02,47.417,18.027,65.499-0.008c5.028-5.012,13.766-5.02,18.794,0.008c17.503,17.495,47.979,17.463,65.45,0
		c4.931-4.963,13.843-4.955,18.773-0.023l0.983,0.95c8.641,8.171,19.873,12.651,31.782,12.651c12.378,0,23.996-4.818,32.766-13.602
		c4.98-4.98,13.778-4.988,18.758-0.008l0.987,0.934c17.547,16.641,47.315,16.27,64.527-0.902c5.06-5.043,13.766-5.043,18.794-0.016
		c17.503,17.527,47.996,17.511,65.499-0.016c4.964-4.973,13.762-4.996,18.79,0.04c18.05,18.026,47.434,17.986,65.482-0.009
		c6.448-6.438,6.448-16.891,0.017-23.336C485.289,419.002,474.833,419.019,468.385,425.452z"/>
</g>
<g>
</g>
<g>
</g>
<g>
</g>
<g>
</g>
<g>
</g>
<g>
</g>
<g>
</g>
<g>
</g>
<g>
</g>
<g>
</g>
<g>
</g>
<g>
</g>
<g>
</g>
<g>
</g>
<g>
</g>
</svg>
