<?xml version="1.0" encoding="iso-8859-1"?>
<!-- Generator: Adobe Illustrator 18.0.0, SVG Export Plug-In . SVG Version: 6.00 Build 0)  -->
<!DOCTYPE svg PUBLIC "-//W3C//DTD SVG 1.1//EN" "http://www.w3.org/Graphics/SVG/1.1/DTD/svg11.dtd">
<svg version="1.1" id="Capa_1" xmlns="http://www.w3.org/2000/svg" xmlns:xlink="http://www.w3.org/1999/xlink" x="0px" y="0px"
	 viewBox="0 0 491.695 491.695" style="enable-background:new 0 0 491.695 491.695;" xml:space="preserve">
<g>
	<path d="M467.045,76.7H24.654C11.046,76.7,0,87.734,0,101.352c0,13.62,11.046,24.654,24.654,24.654h19.873V398.56
		c0,9.075,7.348,16.436,16.432,16.436c9.085,0,16.437-7.36,16.437-16.436V126.006h45.199v8.218c0,4.542,3.658,8.216,8.218,8.216
		c4.524,0,8.218-3.674,8.218-8.216v-8.218h49.304v8.218c0,4.542,3.658,8.216,8.218,8.216c4.524,0,8.218-3.674,8.218-8.216v-8.218
		h82.176v8.218c0,4.542,3.658,8.216,8.218,8.216c4.524,0,8.218-3.674,8.218-8.216v-8.218h49.304v8.218
		c0,4.542,3.662,8.216,8.218,8.216c4.528,0,8.218-3.674,8.218-8.216v-8.218h45.195V398.56c0,9.075,7.352,16.436,16.436,16.436
		c9.085,0,16.436-7.36,16.436-16.436V126.006h19.857c13.624,0,24.65-11.034,24.65-24.654C491.695,87.734,480.669,76.7,467.045,76.7z
		"/>
	<path d="M122.593,232.834c0,4.543,3.658,8.218,8.218,8.218c4.524,0,8.218-3.675,8.218-8.218V216.4c0-4.542-3.694-8.218-8.218-8.218
		c-4.561,0-8.218,3.676-8.218,8.218V232.834z"/>
	<path d="M130.812,191.745c4.524,0,8.218-3.674,8.218-8.216v-16.436c0-4.543-3.694-8.219-8.218-8.219
		c-4.561,0-8.218,3.676-8.218,8.219v16.436C122.593,188.072,126.251,191.745,130.812,191.745z"/>
	<path d="M122.593,282.14c0,4.542,3.658,8.218,8.218,8.218c4.524,0,8.218-3.676,8.218-8.218v-16.435
		c0-4.542-3.694-8.218-8.218-8.218c-4.561,0-8.218,3.676-8.218,8.218V282.14z"/>
	<path d="M196.551,191.745c4.524,0,8.218-3.674,8.218-8.216v-16.436c0-4.543-3.694-8.219-8.218-8.219
		c-4.56,0-8.218,3.676-8.218,8.219v16.436C188.333,188.072,191.991,191.745,196.551,191.745z"/>
	<path d="M188.333,232.834c0,4.543,3.658,8.218,8.218,8.218c4.524,0,8.218-3.675,8.218-8.218V216.4c0-4.542-3.694-8.218-8.218-8.218
		c-4.56,0-8.218,3.676-8.218,8.218V232.834z"/>
	<path d="M188.333,282.14c0,4.542,3.658,8.218,8.218,8.218c4.524,0,8.218-3.676,8.218-8.218v-16.435
		c0-4.542-3.694-8.218-8.218-8.218c-4.56,0-8.218,3.676-8.218,8.218V282.14z"/>
	<path d="M209.04,328.702h-4.27v-13.69c0-4.542-3.694-8.219-8.218-8.219c-4.56,0-8.218,3.677-8.218,8.219v13.69h-49.304v-13.69
		c0-4.542-3.694-8.219-8.218-8.219c-4.561,0-8.218,3.677-8.218,8.219v13.69h-4.27c-6.804,0-12.327,5.521-12.327,12.325
		c0,6.806,5.523,12.327,12.327,12.327h90.716c6.804,0,12.323-5.521,12.323-12.327C221.362,334.223,215.844,328.702,209.04,328.702z"
		/>
	<path d="M286.945,282.14c0,4.542,3.658,8.218,8.218,8.218c4.524,0,8.218-3.676,8.218-8.218v-16.435
		c0-4.542-3.694-8.218-8.218-8.218c-4.56,0-8.218,3.676-8.218,8.218V282.14z"/>
	<path d="M286.945,232.834c0,4.543,3.658,8.218,8.218,8.218c4.524,0,8.218-3.675,8.218-8.218V216.4c0-4.542-3.694-8.218-8.218-8.218
		c-4.56,0-8.218,3.676-8.218,8.218V232.834z"/>
	<path d="M295.164,191.745c4.524,0,8.218-3.674,8.218-8.216v-16.436c0-4.543-3.694-8.219-8.218-8.219
		c-4.56,0-8.218,3.676-8.218,8.219v16.436C286.945,188.072,290.604,191.745,295.164,191.745z"/>
	<path d="M360.903,191.745c4.528,0,8.218-3.674,8.218-8.216v-16.436c0-4.543-3.69-8.219-8.218-8.219
		c-4.556,0-8.218,3.676-8.218,8.219v16.436C352.686,188.072,356.348,191.745,360.903,191.745z"/>
	<path d="M352.686,282.14c0,4.542,3.662,8.218,8.218,8.218c4.528,0,8.218-3.676,8.218-8.218v-16.435c0-4.542-3.69-8.218-8.218-8.218
		c-4.556,0-8.218,3.676-8.218,8.218V282.14z"/>
	<path d="M352.686,232.834c0,4.543,3.662,8.218,8.218,8.218c4.528,0,8.218-3.675,8.218-8.218V216.4c0-4.542-3.69-8.218-8.218-8.218
		c-4.556,0-8.218,3.676-8.218,8.218V232.834z"/>
	<path d="M373.392,328.702h-4.27v-13.69c0-4.542-3.69-8.219-8.218-8.219c-4.556,0-8.218,3.677-8.218,8.219v13.69h-49.304v-13.69
		c0-4.542-3.694-8.219-8.218-8.219c-4.56,0-8.218,3.677-8.218,8.219v13.69h-4.27c-6.804,0-12.327,5.521-12.327,12.325
		c0,6.806,5.523,12.327,12.327,12.327h90.716c6.804,0,12.327-5.521,12.327-12.327C385.719,334.223,380.196,328.702,373.392,328.702z
		"/>
</g>
<g>
</g>
<g>
</g>
<g>
</g>
<g>
</g>
<g>
</g>
<g>
</g>
<g>
</g>
<g>
</g>
<g>
</g>
<g>
</g>
<g>
</g>
<g>
</g>
<g>
</g>
<g>
</g>
<g>
</g>
</svg>
