<?xml version="1.0" encoding="iso-8859-1"?>
<!-- Generator: Adobe Illustrator 18.0.0, SVG Export Plug-In . SVG Version: 6.00 Build 0)  -->
<!DOCTYPE svg PUBLIC "-//W3C//DTD SVG 1.1//EN" "http://www.w3.org/Graphics/SVG/1.1/DTD/svg11.dtd">
<svg version="1.1" id="Capa_1" xmlns="http://www.w3.org/2000/svg" xmlns:xlink="http://www.w3.org/1999/xlink" x="0px" y="0px"
	 viewBox="0 0 487.31 487.31" style="enable-background:new 0 0 487.31 487.31;" xml:space="preserve">
<path d="M404.062,315.134H175.984l4.917-8.131c7.155-11.801,19.003-19.986,32.585-22.485c13.577-2.498,27.567,0.92,38.449,9.407
	c4.667,3.616,11.327,2.8,14.946-1.808l58.834-74.993c29.427-37.491,22.874-91.735-14.612-121.16
	c-2.345-1.823-5.295-2.657-8.246-2.301c-2.935,0.358-5.618,1.865-7.441,4.196L124.922,315.134H83.125l6.932-20.218l45.54-22.279l0,0
	c8.059-3.941,11.407-13.674,7.458-21.732l-18.084-37l36.992-18.092c8.059-3.941,11.391-13.674,7.458-21.732l-18.1-37l36.976-18.092
	c8.059-3.942,11.403-13.674,7.453-21.732L172.194,49.08l3.695-37.023c0.223-2.118-0.76-4.273-2.679-5.481
	c-2.711-1.714-6.299-0.896-7.995,1.816l-24.637,39.134c-1.776,2.841-2.11,6.526-0.538,9.764l1.302,2.649l18.084,37l-36.979,18.092
	c-8.059,3.941-11.403,13.674-7.454,21.732l18.1,37l-36.992,18.092c-8.059,3.941-11.407,13.674-7.458,21.732l18.084,37L69.735,268.68
	c-3.711,1.832-6.772,5.092-8.218,9.318l-12.753,37.136H25.732C11.519,315.134,0,326.65,0,340.856V455.91
	c0,14.203,11.519,25.72,25.732,25.72h378.33c45.97,0,83.248-37.269,83.248-83.248C487.31,352.405,450.032,315.134,404.062,315.134z
	 M246.922,189.27l46.368-59.105c2.775-3.538,7.883-4.141,11.407-1.382c3.52,2.769,4.157,7.877,1.382,11.407l-46.368,59.104
	c-1.621,2.047-3.998,3.109-6.41,3.109c-1.744,0-3.519-0.564-5.013-1.73C244.768,197.907,244.147,192.8,246.922,189.27z
	 M406.093,441.703c-23.921,0-43.322-19.391-43.322-43.321c0-23.921,19.401-43.313,43.322-43.313
	c23.92,0,43.306,19.392,43.306,43.313C449.399,422.313,430.013,441.703,406.093,441.703z"/>
<g>
</g>
<g>
</g>
<g>
</g>
<g>
</g>
<g>
</g>
<g>
</g>
<g>
</g>
<g>
</g>
<g>
</g>
<g>
</g>
<g>
</g>
<g>
</g>
<g>
</g>
<g>
</g>
<g>
</g>
</svg>
