<?xml version="1.0" encoding="iso-8859-1"?>
<!-- Generator: Adobe Illustrator 18.0.0, SVG Export Plug-In . SVG Version: 6.00 Build 0)  -->
<!DOCTYPE svg PUBLIC "-//W3C//DTD SVG 1.1//EN" "http://www.w3.org/Graphics/SVG/1.1/DTD/svg11.dtd">
<svg version="1.1" id="Capa_1" xmlns="http://www.w3.org/2000/svg" xmlns:xlink="http://www.w3.org/1999/xlink" x="0px" y="0px"
	 viewBox="0 0 494.992 494.992" style="enable-background:new 0 0 494.992 494.992;" xml:space="preserve">
<g>
	<path d="M210.858,250.909h30.842c8.538,0,16.242-5.148,19.498-13.045c3.284-7.887,1.464-16.968-4.579-23.01l-60.442-60.449h29.378
		c7.074,0,13.468-4.263,16.178-10.805c2.706-6.542,1.205-14.083-3.806-19.077L159.73,46.324c-3.417-3.416-7.911-5.132-12.392-5.132
		c-4.477,0-8.958,1.717-12.376,5.132l-78.213,78.199c-4.995,4.995-6.495,12.536-3.769,19.077
		c2.706,6.542,9.087,10.805,16.145,10.805h29.39l-60.443,60.449c-6.042,6.042-7.862,15.124-4.59,23.01
		c3.272,7.896,10.972,13.045,19.53,13.045h30.809L7.893,326.835c-7.7,7.711-10.022,19.295-5.832,29.366
		c4.158,10.079,13.985,16.645,24.893,16.645h72.495v69.836c0,6.139,4.995,11.12,11.118,11.12h73.558
		c6.139,0,11.102-4.98,11.102-11.12v-69.836h72.511c10.924,0,20.755-6.566,24.913-16.645c4.19-10.07,1.869-21.655-5.852-29.366
		L210.858,250.909z"/>
	<path d="M488.717,352.786l-60.422-60.411h24.509c6.798,0,12.921-4.093,15.514-10.375c2.612-6.277,1.177-13.504-3.64-18.313
		l-48.083-48.083h23.364c5.642,0,10.717-3.391,12.861-8.596c2.16-5.205,0.967-11.199-3.013-15.178l-62.214-62.214
		c-5.448-5.439-14.244-5.439-19.692,0l-62.23,62.214c-3.979,3.979-5.172,9.973-3.013,15.178s7.235,8.596,12.873,8.596h23.364
		l-48.079,48.083c-4.336,4.326-5.755,10.578-4.142,16.361l11.68,11.684c1.403,0.37,2.835,0.643,4.335,0.643h24.509l-14.309,14.317
		c14.855,17.097,19.013,40.985,10.249,62.133c-3.288,7.978-8.218,14.889-14.212,20.57h30.713v53.286
		c0,6.139,4.979,11.12,11.118,11.12h53.98c6.123,0,11.118-4.98,11.118-11.12v-53.286h57.685c8.687,0,16.501-5.23,19.821-13.237
		C496.68,368.142,494.84,358.917,488.717,352.786z"/>
</g>
<g>
</g>
<g>
</g>
<g>
</g>
<g>
</g>
<g>
</g>
<g>
</g>
<g>
</g>
<g>
</g>
<g>
</g>
<g>
</g>
<g>
</g>
<g>
</g>
<g>
</g>
<g>
</g>
<g>
</g>
</svg>
