<?xml version="1.0" encoding="iso-8859-1"?>
<!-- Generator: Adobe Illustrator 18.0.0, SVG Export Plug-In . SVG Version: 6.00 Build 0)  -->
<!DOCTYPE svg PUBLIC "-//W3C//DTD SVG 1.1//EN" "http://www.w3.org/Graphics/SVG/1.1/DTD/svg11.dtd">
<svg version="1.1" id="Capa_1" xmlns="http://www.w3.org/2000/svg" xmlns:xlink="http://www.w3.org/1999/xlink" x="0px" y="0px"
	 viewBox="0 0 494.619 494.619" style="enable-background:new 0 0 494.619 494.619;" xml:space="preserve">
<g>
	<path d="M378.233,120.666c23.462,0,42.493-19.029,42.493-42.502c0-23.466-19.031-42.495-42.493-42.495
		c-23.45,0-42.494,19.029-42.494,42.495C335.739,101.637,354.783,120.666,378.233,120.666z"/>
	<path d="M444.114,214.876c-3.258-10.066-14.021-15.578-24.152-12.338l-41.322,13.389l6.32-48.179
		c1.234-9.455-1.32-19.016-7.134-26.582c-5.817-7.557-14.398-12.5-23.846-13.738c-8.11-1.067-15.94,0.683-22.464,4.561
		c-5.026,2.987-82.494,51.845-82.494,51.845c-4.889,3.168-8.082,8.378-8.666,14.161c-0.589,5.791,1.496,11.532,5.633,15.612
		l53.542,52.642l-5.539,42.227l-12.347,62.984l-59.175,70.095c-8.307,9.852-7.068,24.586,2.788,32.901
		c4.379,3.697,9.738,5.504,15.049,5.504c6.646,0,13.241-2.816,17.869-8.29l63.063-74.72c2.559-3.029,4.301-6.67,5.069-10.563
		l9.443-48.18l19.577,27.2l6.014,107.165c0.684,12.436,10.993,22.047,23.29,22.047c0.441,0,0.879-0.008,1.32-0.033
		c12.882-0.725,22.738-11.744,22.002-24.62l-6.386-113.972c-0.24-4.447-1.758-8.722-4.346-12.338l-29.871-41.51l5.78-44.107
		l58.652-18.999C441.866,235.773,447.389,224.959,444.114,214.876z M289.953,203.026l19.528-12.646l-3.699,28.202L289.953,203.026z"
		/>
	<path d="M211.217,123.804c13.78,0,24.936-11.71,24.936-26.149c0-12.818-8.826-23.439-20.439-25.661
		c2.231-5.913,3.58-12.265,3.58-18.975C219.294,23.731,195.923,0,167.11,0c-22.591,0-41.649,14.66-48.914,35.06
		c-4.624-2.061-9.738-3.321-15.212-3.321c-19.513,0-35.346,14.756-35.346,32.958c0,2.63,0.425,5.155,1.043,7.606
		c-10.944,2.762-19.12,13.022-19.12,25.352c0,14.439,11.156,26.149,24.938,26.149h45.508l-10.85,33.577
		c-0.503,1.597-0.813,3.362-0.813,5.131c0,9.21,7.478,16.68,16.68,16.68h16.123l-8.078,47.935c-0.474,2.8,0.929,5.709,3.618,7.018
		c3.27,1.605,7.216,0.254,8.826-3.029l31.061-63.498c0.96-1.994,1.528-4.292,1.528-6.653c0-8.355-6.773-15.132-15.13-15.132h-2.28
		h-12.751l7.117-22.028H211.217z"/>
</g>
<g>
</g>
<g>
</g>
<g>
</g>
<g>
</g>
<g>
</g>
<g>
</g>
<g>
</g>
<g>
</g>
<g>
</g>
<g>
</g>
<g>
</g>
<g>
</g>
<g>
</g>
<g>
</g>
<g>
</g>
</svg>
