<?xml version="1.0" encoding="iso-8859-1"?>
<!-- Generator: Adobe Illustrator 18.0.0, SVG Export Plug-In . SVG Version: 6.00 Build 0)  -->
<!DOCTYPE svg PUBLIC "-//W3C//DTD SVG 1.1//EN" "http://www.w3.org/Graphics/SVG/1.1/DTD/svg11.dtd">
<svg version="1.1" id="Capa_1" xmlns="http://www.w3.org/2000/svg" xmlns:xlink="http://www.w3.org/1999/xlink" x="0px" y="0px"
	 viewBox="0 0 488.332 488.332" style="enable-background:new 0 0 488.332 488.332;" xml:space="preserve">
<g>
	<path d="M483.578,433.645c-6.341-6.347-16.613-6.347-22.95-0.017c-5.104,5.104-13.411,5.097-18.515,0.009
		c-17.213-17.229-47.185-17.222-64.367-0.023l-0.25,0.252c-4.961,4.724-13.395,4.645-18.244-0.229
		c-17.182-17.206-47.169-17.222-64.414,0.016c-4.85,4.85-13.582,4.882-18.499-0.032c-8.636-8.639-20.492-12.94-32.346-12.9
		l3.644-102.374c0.318-8.639-4.312-16.698-11.918-20.804l-36.329-19.615l-16.608-96.326l26.785,20.621
		c2.821,2.188,6.309,3.369,9.89,3.369h54.366v20.105c0,6.076,3.628,11.499,9.226,13.805c1.822,0.762,3.739,1.148,5.736,1.148
		c3.994,0,7.733-1.553,10.558-4.383l38.43-40.273l134.33,0.071c4.472,0,8.115-3.631,8.115-8.116c0-4.485-3.644-8.115-8.115-8.115
		H337.062l-37.721-37.381c-4.217-4.241-10.844-5.523-16.278-3.242c-5.613,2.314-9.241,7.735-9.241,13.812v20.106h-48.848
		l-50.34-38.768l-0.792-4.541c-1.667-9.629-7.085-18.212-15.073-23.847c-7.988-5.641-17.894-7.869-27.532-6.204
		c-20.066,3.463-33.521,22.522-30.051,42.58l22.934,133.169c1.571,9.026,6.644,17.055,14.106,22.333
		c3.819,2.694,10.066,6.088,14.205,8.079c14.938,7.188,49.29,24.896,49.29,24.896l-3.504,98.443c-0.095,2.598,0.35,5.07,1.078,7.426
		c-2.156-0.556-4.217-1.442-5.848-3.06c-8.604-8.606-20.018-13.337-32.159-13.337h-0.032c-12.173,0-23.614,4.746-32.207,13.352
		c-4.913,4.929-13.502,4.937-18.446-0.008c-17.055-17.078-47.36-17.054-64.383-0.024c-5.104,5.097-13.41,5.105-18.53,0.008
		c-6.353-6.338-16.625-6.338-22.95,0.017c-6.321,6.339-6.321,16.618,0.016,22.95c17.723,17.721,46.632,17.705,64.415-0.016
		c4.881-4.882,13.569-4.897,18.45,0c17.21,17.228,47.186,17.244,64.379,0.016c2.475-2.473,5.756-3.835,9.257-3.835
		c0.016,0,0.016,0,0.016,0c3.473,0,6.751,1.362,9.257,3.858c8.481,8.472,20.193,13.329,32.159,13.329
		c12.173,0,23.583-4.729,32.239-13.385c4.881-4.897,13.534-4.921,18.479,0.024c16.927,16.959,47.487,16.951,64.383,0.008
		c4.977-4.961,13.569-4.953,18.483-0.023c17.213,17.229,47.217,17.244,64.398,0.031l0.251-0.252
		c4.929-4.74,13.331-4.686,18.244,0.252c17.751,17.721,46.664,17.713,64.398-0.008C489.92,450.263,489.92,439.984,483.578,433.645z
		 M290.052,203.102c4.771-2.83,8.116-7.799,8.116-13.742c0-5.943-3.345-10.912-8.116-13.742v-19.503l33.254,33.245l-33.254,33.245
		V203.102z"/>
	<path d="M146.748,91.165c19.646-6.099,30.617-26.945,24.52-46.585c-6.102-19.646-26.958-30.608-46.604-24.509
		c-19.611,6.09-30.604,26.964-24.503,46.585C106.258,86.294,127.136,97.264,146.748,91.165z"/>
	<path d="M11.92,381.056c0,0,8.082-1.989,21.112-3.566c79.551-9.633,110.234,26.017,110.234,26.017
		c0.653,0.564,1.663,0.539,2.3-0.071c0.664-0.658,0.696-1.734,0.032-2.417c0,0-29.005-40.817-113.612-37.723
		c-13.61,0.497-23.045,1.8-23.045,1.8l-0.144,0.023c-0.238,0.038-0.489,0.086-0.712,0.142c-4.376,1.063-7.037,5.452-5.991,9.82
		C3.156,379.439,7.544,382.118,11.92,381.056z"/>
	<path d="M72.435,343.816c0.299,0,1.6-0.348,5.024-0.627c3.358-0.324,8.352-0.564,14.326-0.244
		c65.88,3.525,85.654,60.395,85.654,60.395c0.585,1.182,1.965,1.776,3.25,1.349c1.393-0.476,2.156-1.989,1.679-3.386
		c0,0-11.944-64.796-87.997-79.581c-6.998-1.36-12.965-1.87-17.245-2.061c-4.217-0.245-7.276-0.04-6.974-0.079
		c-6.688,0.626-11.601,6.561-10.968,13.251C59.8,339.53,65.744,344.443,72.435,343.816z"/>
</g>
<g>
</g>
<g>
</g>
<g>
</g>
<g>
</g>
<g>
</g>
<g>
</g>
<g>
</g>
<g>
</g>
<g>
</g>
<g>
</g>
<g>
</g>
<g>
</g>
<g>
</g>
<g>
</g>
<g>
</g>
</svg>
