<?xml version="1.0" encoding="iso-8859-1"?>
<!-- Generator: Adobe Illustrator 18.0.0, SVG Export Plug-In . SVG Version: 6.00 Build 0)  -->
<!DOCTYPE svg PUBLIC "-//W3C//DTD SVG 1.1//EN" "http://www.w3.org/Graphics/SVG/1.1/DTD/svg11.dtd">
<svg version="1.1" id="Capa_1" xmlns="http://www.w3.org/2000/svg" xmlns:xlink="http://www.w3.org/1999/xlink" x="0px" y="0px"
	 viewBox="0 0 488.679 488.679" style="enable-background:new 0 0 488.679 488.679;" xml:space="preserve">
<g>
	<path d="M279.554,155.721l-52.262,27.656l-34.703-27.066c-0.471-1.591-0.913-3.197-1.605-4.732
		c-4.316-9.503-12.251-16.903-22.013-20.573l-0.237-0.085c-20.361-7.629-43.066,2.699-50.686,23.059l-32.625,87.061
		c-1.561,0.307-3.086,0.747-4.616,1.124L53.144,135.866c-2.486-9.613-12.331-15.399-21.918-12.866
		c-9.603,2.496-15.37,12.314-12.849,21.918l29.1,111.859C18.879,275.838,0,308.352,0,345.212
		c0,58.584,47.666,106.238,106.24,106.238c23.918,0,45.931-8.03,63.708-21.414h81.958c8.896,0,16.12-7.219,16.12-16.123
		c0-1.261-0.439-2.379-0.707-3.559c7.841-6.503,11.085-17.47,7.118-27.461l-39.505-99.584c-3.671-9.221-12.583-15.268-22.487-15.268
		c-0.047,0-0.079,0-0.111,0l-33.099,0.158c-4.675-4.424-9.73-8.455-15.128-11.982l23.538-62.857l28.044,21.87
		c2.896,2.253,6.406,3.409,9.92,3.409c2.58,0,5.181-0.613,7.54-1.873l61.49-32.546c7.873-4.165,10.88-13.919,6.707-21.794
		C297.204,154.571,287.411,151.572,279.554,155.721z M211.895,356.418L228.3,397.79h-29.854
		C205.579,385.335,210.317,371.352,211.895,356.418z M176.543,345.212c0,38.761-31.537,70.29-70.303,70.29
		s-70.292-31.529-70.292-70.29c0-38.766,31.525-70.303,70.292-70.303S176.543,306.447,176.543,345.212z"/>
	<path d="M196.264,125.893c24.503,0,44.342-19.848,44.342-44.341c0-24.477-19.839-44.324-44.342-44.324
		c-24.467,0-44.307,19.848-44.307,44.324C151.957,106.045,171.796,125.893,196.264,125.893z"/>
	<path d="M106.24,324.854c-11.244,0-20.345,9.109-20.345,20.358c0,11.236,9.102,20.346,20.345,20.346
		c11.24,0,20.357-9.109,20.357-20.346C126.597,333.963,117.479,324.854,106.24,324.854z"/>
	<path d="M360.816,270.145c-18.99,0-34.355,15.384-34.355,34.365c0,18.982,15.366,34.366,34.355,34.366
		c18.99,0,34.359-15.384,34.359-34.366C395.176,285.529,379.806,270.145,360.816,270.145z"/>
	<path d="M488.104,290.655c-0.817-0.936-2.264-1.032-3.209-0.198c-4.786,4.237-49.276,38.088-61.644,111.71l-20.91-40.317
		c-2.047-3.952-6.912-5.495-10.868-3.448c-3.952,2.048-5.493,6.912-3.446,10.864l32.043,61.795c1.277,2.433,3.747,4.165,6.675,4.338
		c4.458,0.267,8.268-3.125,8.521-7.565l0.016-0.127v-0.016c0.297-11.74,4.855-88.136,52.512-133.691l0.253-0.266
		C488.863,292.889,488.895,291.552,488.104,290.655z"/>
</g>
<g>
</g>
<g>
</g>
<g>
</g>
<g>
</g>
<g>
</g>
<g>
</g>
<g>
</g>
<g>
</g>
<g>
</g>
<g>
</g>
<g>
</g>
<g>
</g>
<g>
</g>
<g>
</g>
<g>
</g>
</svg>
