<?xml version="1.0" encoding="iso-8859-1"?>
<!-- Generator: Adobe Illustrator 18.0.0, SVG Export Plug-In . SVG Version: 6.00 Build 0)  -->
<!DOCTYPE svg PUBLIC "-//W3C//DTD SVG 1.1//EN" "http://www.w3.org/Graphics/SVG/1.1/DTD/svg11.dtd">
<svg version="1.1" id="Capa_1" xmlns="http://www.w3.org/2000/svg" xmlns:xlink="http://www.w3.org/1999/xlink" x="0px" y="0px"
	 viewBox="0 0 492.9 492.9" style="enable-background:new 0 0 492.9 492.9;" xml:space="preserve">
<g>
	<path d="M309.236,73.215V49.667c13.712,0,24.835-11.116,24.835-24.834C334.07,11.114,322.948,0,309.236,0H183.68
		c-13.712,0-24.835,11.114-24.835,24.833c0,13.718,11.123,24.834,24.835,24.834v23.548
		C95.826,100.061,31.914,181.732,31.914,278.365c0,118.483,96.051,214.534,214.526,214.534
		c118.496,0,214.546-96.051,214.546-214.534C460.986,181.732,397.074,100.061,309.236,73.215z M246.439,461.17
		c-100.787,0-182.789-82.008-182.789-182.805S145.653,95.558,246.439,95.558c100.807,0,182.826,82.011,182.826,182.808
		S347.247,461.17,246.439,461.17z"/>
	<path d="M246.439,112.114c-91.668,0-166.232,74.581-166.232,166.251c0,91.668,74.564,166.251,166.232,166.251
		c91.673,0,166.27-74.583,166.27-166.251C412.709,186.695,338.112,112.114,246.439,112.114z M356.673,294.911h-76.118l27.099,27.097
		c4.849,4.852,4.849,12.708,0,17.559c-2.427,2.425-5.596,3.639-8.765,3.639c-3.186,0-6.371-1.214-8.793-3.639l-27.099-27.097v76.101
		c0,9.142-7.406,16.557-16.557,16.557c-9.134,0-16.552-7.414-16.552-16.557v-76.092l-27.083,27.088
		c-2.427,2.425-5.608,3.639-8.777,3.639c-3.169,0-6.354-1.214-8.781-3.639c-4.849-4.85-4.849-12.707,0-17.559l27.099-27.097h-76.102
		c-9.15,0-16.556-7.411-16.556-16.554c0-9.145,7.406-16.557,16.556-16.557h76.086l-27.099-27.097
		c-4.849-4.852-4.849-12.708,0-17.559c4.849-4.85,12.709-4.85,17.559,0l27.099,27.097v-76.084c0-9.143,7.418-16.557,16.552-16.557
		c9.151,0,16.557,7.414,16.557,16.557v76.092l27.115-27.105c4.849-4.85,12.706-4.85,17.559,0c4.849,4.851,4.849,12.707,0,17.559
		l-27.099,27.097h76.102c9.135,0,16.552,7.412,16.552,16.557C373.225,287.5,365.808,294.911,356.673,294.911z"/>
</g>
<g>
</g>
<g>
</g>
<g>
</g>
<g>
</g>
<g>
</g>
<g>
</g>
<g>
</g>
<g>
</g>
<g>
</g>
<g>
</g>
<g>
</g>
<g>
</g>
<g>
</g>
<g>
</g>
<g>
</g>
</svg>
