<svg viewBox="0 -26 512 512" xmlns="http://www.w3.org/2000/svg"><path d="m90 320c-5.519531 0-10 4.480469-10 10s4.480469 10 10 10 10-4.480469 10-10-4.480469-10-10-10zm0 0"/><path d="m90 380c-5.519531 0-10 4.480469-10 10s4.480469 10 10 10 10-4.480469 10-10-4.480469-10-10-10zm0 0"/><path d="m462 0c-16.441406 0-394.304688 0-412 0-27.570312 0-50 22.429688-50 50v60c0 5.523438 4.476562 10 10 10h10v310c0 16.542969 13.457031 30 30 30h412c16.542969 0 30-13.457031 30-30v-310h10c5.523438 0 10-4.476562 10-10v-60c0-27.570312-22.429688-50-50-50zm-166 249.195312-33.753906-27.003906c-3.652344-2.921875-8.839844-2.921875-12.492188 0l-33.753906 27.003906v-229.195312h80zm-276-199.195312c0-16.542969 13.457031-30 30-30h146v80c-13.996094 0-168.027344 0-176 0zm452 380c0 5.515625-4.484375 10-10 10h-412c-5.515625 0-10-4.484375-10-10v-310h156v150c0 3.84375 2.203125 7.347656 5.667969 9.011719 3.464843 1.667969 7.578125 1.199219 10.578125-1.203125l43.753906-35.003906 43.753906 35.003906c3.007813 2.40625 7.117188 2.867187 10.578125 1.203125 3.464844-1.664063 5.667969-5.167969 5.667969-9.011719v-150h156zm20-330h-176v-80h146c16.542969 0 30 13.457031 30 30zm0 0"/><path d="m316 320c-5.523438 0-10 4.476562-10 10v60c0 5.523438 4.476562 10 10 10h106c5.523438 0 10-4.476562 10-10v-60c0-5.523438-4.476562-10-10-10zm96 60h-86v-40h86zm0 0"/><path d="m196 320h-66c-5.523438 0-10 4.476562-10 10s4.476562 10 10 10h66c5.523438 0 10-4.476562 10-10s-4.476562-10-10-10zm0 0"/><path d="m196 380h-66c-5.523438 0-10 4.476562-10 10s4.476562 10 10 10h66c5.523438 0 10-4.476562 10-10s-4.476562-10-10-10zm0 0"/></svg>