<svg viewBox="0 0 512 512" xmlns="http://www.w3.org/2000/svg"><path d="m462 386c5.519531 0 10-4.480469 10-10s-4.480469-10-10-10-10 4.480469-10 10 4.480469 10 10 10zm0 0"/><path d="m30 512h452c16.542969 0 30-13.457031 30-30v-372c0-5.523438-4.476562-10-10-10h-70c0-55.140625-44.859375-100-100-100-55.257812 0-100 44.699219-100 100h-76c-5.523438 0-10 4.476562-10 10v116h-136c-5.523438 0-10 4.476562-10 10v246c0 16.542969 13.457031 30 30 30zm-10-30v-36h232v36c0 5.515625-4.484375 10-10 10h-212c-5.515625 0-10-4.484375-10-10zm462 10h-211.71875c1.109375-3.128906 1.71875-6.492188 1.71875-10v-36h220v36c0 5.515625-4.484375 10-10 10zm-150-472c44.113281 0 80 35.886719 80 80h-160c0-44.210938 35.761719-80 80-80zm-166 100h66v46h-10c-5.523438 0-10 4.476562-10 10s4.476562 10 10 10h40c5.523438 0 10-4.476562 10-10s-4.476562-10-10-10h-10v-46h160v46h-10c-5.523438 0-10 4.476562-10 10s4.476562 10 10 10h40c5.523438 0 10-4.476562 10-10s-4.476562-10-10-10h-10v-46h60v306h-220v-190c0-5.523438-4.476562-10-10-10h-96zm86 126v180h-232v-180zm0 0"/><path d="m76 306v20c0 33.148438 26.851562 60 60 60 33.085938 0 60-26.914062 60-60v-20c5.523438 0 10-4.476562 10-10s-4.476562-10-10-10h-20c-5.523438 0-10 4.476562-10 10s4.476562 10 10 10v20c0 22.054688-17.945312 40-40 40-22.09375 0-40-17.90625-40-40v-20c5.523438 0 10-4.476562 10-10s-4.476562-10-10-10h-20c-5.523438 0-10 4.476562-10 10s4.476562 10 10 10zm0 0"/><path d="m462 346c5.523438 0 10-4.476562 10-10v-80c0-5.523438-4.476562-10-10-10s-10 4.476562-10 10v80c0 5.523438 4.476562 10 10 10zm0 0"/></svg>