<svg viewBox="0 0 512.00078 512" xmlns="http://www.w3.org/2000/svg"><path d="m177.800781 206.921875c3.910157-3.910156 3.910157-10.242187 0-14.140625-3.898437-3.910156-10.230469-3.910156-14.140625 0-3.910156 3.898438-3.910156 10.230469 0 14.140625 3.910156 3.898437 10.242188 3.898437 14.140625 0zm0 0"/><path d="m276.800781 221.0625c11.695313-11.695312 11.695313-30.726562 0-42.421875-11.722656-11.722656-30.707031-11.726563-42.429687 0-11.726563 11.722656-11.726563 30.695313 0 42.421875 11.695312 11.695312 30.730468 11.699219 42.429687 0zm-28.289062-28.28125c3.910156-3.90625 10.238281-3.90625 14.148437 0 3.894532 3.898438 3.894532 10.238281 0 14.136719-3.902344 3.898437-10.25 3.902343-14.148437 0-3.902344-3.898438-3.917969-10.21875 0-14.136719zm0 0"/><path d="m234.371094 291.765625c-11.726563 11.726563-11.726563 30.707031 0 42.433594 11.722656 11.722656 30.703125 11.726562 42.429687 0 11.699219-11.699219 11.699219-30.734375 0-42.433594-11.722656-11.71875-30.707031-11.722656-42.429687 0zm28.289062 28.292969c-3.910156 3.90625-10.242187 3.90625-14.148437 0-3.902344-3.902344-3.917969-10.230469 0-14.148438 3.910156-3.910156 10.238281-3.90625 14.148437 0 3.898438 3.898438 3.898438 10.246094 0 14.148438zm0 0"/><path d="m175.066406 272.519531c1.082032 5.421875 6.355469 8.925781 11.765625 7.84375l141.417969-28.289062c5.414062-1.082031 8.925781-6.351563 7.84375-11.765625-1.082031-5.417969-6.351562-8.925782-11.765625-7.84375l-141.417969 28.289062c-5.417968 1.082032-8.929687 6.351563-7.84375 11.765625zm0 0"/><path d="m304.007812 56.574219c-2.652343 0-5.195312 1.050781-7.070312 2.925781l-104.988281 104.988281c-3.90625 3.90625-3.90625 10.238281 0 14.144531s10.238281 3.90625 14.140625 0l97.917968-97.917968 127.273438 127.277344-224.5 224.5-127.277344-127.273438 70.019532-70.019531c3.90625-3.902344 3.90625-10.234375 0-14.140625-3.90625-3.902344-10.238282-3.902344-14.144532 0l-77.085937 77.089844c-3.90625 3.902343-3.90625 10.234374 0 14.140624l141.417969 141.417969c3.90625 3.90625 10.234374 3.90625 14.140624 0l238.644532-238.644531c3.90625-3.90625 3.90625-10.238281 0-14.144531l-141.417969-141.417969c-1.875-1.875-4.417969-2.925781-7.070313-2.925781zm0 0"/><path d="m494.925781 2.933594-42.921875 42.917968c-25.042968-18.910156-59.625-19.21875-84.457031-.78125l-35.15625-36.175781c-.035156-.035156-.066406-.066406-.101563-.101562-11.664062-11.664063-30.632812-11.789063-42.4375.015625l-281.058593 282.269531c-11.722657 11.722656-11.726563 30.707031 0 42.433594l39.664062 39.660156c-8.859375 25.355469-2.46875 54.101563 16.902344 73.464844 19.367187 19.375 48.113281 25.761719 73.46875 16.910156l39.664063 39.660156c11.722656 11.722657 30.714843 11.71875 42.414062.015625l282.300781-281.089844c11.726563-11.726562 11.726563-30.699218 0-42.421874-.035156-.035157-.066406-.066407-.101562-.101563l-36.171875-35.148437c18.371094-24.664063 18.300781-59.261719-.785156-84.464844l42.917968-42.917969c3.90625-3.90625 3.90625-10.238281 0-14.144531-3.90625-3.90625-10.234375-3.90625-14.140625 0zm-48.78125 135.066406c-1.890625 1.894531-2.945312 4.464844-2.929687 7.144531.019531 2.675781 1.113281 5.234375 3.03125 7.097657l42.859375 41.652343c3.878906 3.921875 3.835937 10.21875-.027344 14.078125l-282.296875 281.089844c-3.902344 3.902344-10.25 3.902344-14.148438 0l-44.351562-44.347656c-1.914062-1.917969-4.476562-2.929688-7.070312-2.929688-1.4375 0-2.886719.308594-4.246094.945313-19.230469 9.023437-42.324219 4.910156-57.460938-10.238281-15.148437-15.136719-19.261718-38.226563-10.238281-57.457032 1.789063-3.816406 1-8.339844-1.980469-11.320312l-44.347656-44.347656c-3.902344-3.902344-3.902344-10.246094.011719-14.164063l281.0625-282.269531c3.890625-3.886719 10.179687-3.910156 14.09375-.042969l41.648437 42.859375c3.734375 3.84375 10.128906 4.21875 14.246094.105469 17.117188-17.125 43.921875-18.953125 63.667969-5.667969l-14.667969 14.667969c-11.152344-5.3125-24.925781-3.363281-34.144531 5.855469-11.695313 11.699218-11.695313 30.734374 0 42.429687 11.722656 11.722656 30.707031 11.726563 42.433593 0 9.429688-9.429687 11.082032-23.261719 5.867188-34.15625l14.664062-14.664063c13.183594 19.515626 11.664063 46.34375-5.675781 63.679688zm-29-43.148438c3.902344 3.902344 3.917969 10.230469 0 14.148438-3.90625 3.90625-10.238281 3.90625-14.144531 0-3.902344-3.902344-3.902344-10.25-.003906-14.148438 3.902344-3.894531 10.25-3.902343 14.148437 0zm0 0"/></svg>