<svg viewBox="-14 0 511 512" xmlns="http://www.w3.org/2000/svg"><path d="m412.09375 250c0 5.519531 4.480469 10 10 10s10-4.480469 10-10-4.480469-10-10-10-10 4.480469-10 10zm0 0"/><path d="m422.09375 280c-5.523438 0-10 4.476562-10 10v32c0 16.542969-13.457031 30-30 30-5.523438 0-10 4.476562-10 10s4.476562 10 10 10c27.570312 0 50-22.429688 50-50v-32c0-5.523438-4.476562-10-10-10zm0 0"/><path d="m414.300781 122.589844-11.699219-23.394532c-30.601562-61.183593-92.101562-99.195312-160.507812-99.195312-68.402344 0-129.902344 38.011719-160.503906 99.195312l-11.707032 23.40625c-10.691406 4.730469-17.789062 15.320313-17.789062 27.398438v11.007812c-22.792969 4.644532-40 24.84375-40 48.992188v85.527344l-11.148438 117.519531c-2.527343 25.25 5.792969 50.523437 22.820313 69.34375 17.03125 18.816406 41.351563 29.609375 66.730469 29.609375h303.199218c25.375 0 49.699219-10.792969 66.726563-29.609375 17.03125-18.816406 25.347656-44.09375 22.828125-69.292969l-11.15625-117.570312v-85.527344c0-24.144531-17.203125-44.347656-40-48.992188v-11.007812c0-12.101562-7.117188-22.703125-17.792969-27.410156zm-262.207031 37.410156v-10c0-11.332031-6.316406-21.214844-15.613281-26.316406 20.75-39.34375 60.964843-63.683594 105.613281-63.683594 44.390625 0 84.984375 24.582031 105.617188 63.683594-9.296876 5.101562-15.617188 14.984375-15.617188 26.316406v10zm-80-10c0-5.597656 4.53125-10 10-10h40c5.515625 0 10 4.484375 10 10v10h-60zm280 0c0-5.511719 4.480469-9.992188 9.988281-10 .007813 0 .015625.003906.019531.003906.011719 0 .023438-.003906.035157-.003906h39.957031c5.503906 0 10 4.40625 10 10v10h-60zm-110-130c60.78125 0 115.429688 33.773438 142.617188 88.144531l5.929687 11.855469h-22.363281l-1.457032-2.921875c-23.152343-46.320313-70.90625-77.078125-124.726562-77.078125-52.785156 0-101.085938 29.8125-124.726562 77.082031l-1.457032 2.917969h-22.363281l5.933594-11.855469c27.1875-54.371093 81.835937-88.144531 142.613281-88.144531zm203.5 448.972656c-13.242188 14.632813-32.160156 23.027344-51.898438 23.027344h-303.199218c-19.738282 0-38.65625-8.394531-51.898438-23.027344-13.246094-14.636718-19.71875-34.296875-17.746094-53.988281l4.382813-46.207031c15.820313 25.898437 44.355469 43.222656 76.859375 43.222656h100c0 22.054688 17.945312 40 40 40 22.058594 0 40-17.945312 40-40h100c32.507812 0 61.039062-17.324219 76.863281-43.222656l4.386719 46.257812c1.964844 19.640625-4.503906 39.300782-17.75 53.9375zm-183.5-56.972656c0 11.027344-8.972656 20-20 20s-20-8.972656-20-20v-40h40zm190-202v112c0 38.597656-31.402344 70-70 70h-100v-30c0-5.523438-4.476562-10-10-10h-60c-5.523438 0-10 4.476562-10 10v30h-100c-38.597656 0-70-31.402344-70-70 0-17.542969 0-99.035156 0-112 0-16.542969 13.457031-30 30-30h360c16.542969 0 30 13.457031 30 30zm0 0"/><path d="m249.167969 210.5c-3.90625-3.90625-10.238281-3.90625-14.144531 0l-42.429688 42.429688c-3.90625 3.90625-3.90625 10.234374 0 14.140624l42.429688 42.433594c1.953124 1.949219 4.511718 2.925782 7.070312 2.925782s5.121094-.976563 7.070312-2.925782l42.433594-42.433594c3.902344-3.902343 3.902344-10.234374 0-14.140624zm-7.074219 77.789062-28.285156-28.289062 28.285156-28.289062 28.289062 28.289062zm0 0"/></svg>