<svg viewBox="0 0 512 512" xmlns="http://www.w3.org/2000/svg"><path d="m210 312c-5.519531 0-10 4.480469-10 10s4.480469 10 10 10 10-4.480469 10-10-4.480469-10-10-10zm0 0"/><path d="m210 372c-5.519531 0-10 4.480469-10 10s4.480469 10 10 10 10-4.480469 10-10-4.480469-10-10-10zm0 0"/><path d="m382 312h-132c-5.523438 0-10 4.476562-10 10s4.476562 10 10 10h132c5.523438 0 10-4.476562 10-10s-4.476562-10-10-10zm0 0"/><path d="m382 372h-132c-5.523438 0-10 4.476562-10 10s4.476562 10 10 10h132c5.523438 0 10-4.476562 10-10s-4.476562-10-10-10zm0 0"/><path d="m30 485.332031v16.667969c0 5.523438 4.476562 10 10 10s10-4.476562 10-10v-16.667969l4-5.332031c16.765625-22.351562 26-50.054688 26-78v-282h10c5.515625 0 10 4.484375 10 10v92c0 5.523438 4.476562 10 10 10s10-4.476562 10-10v-92c0-16.542969-13.457031-30-30-30h-10v-20c0-9.835938-3.535156-19.125-10-26.4375v-23.5625c0-16.542969-13.457031-30-30-30s-30 13.457031-30 30v23.570312c-6.398438 7.253907-10 16.648438-10 26.429688v322c0 27.949219 9.234375 55.648438 26 78zm30-93.332031h-40v-272h40zm-40-292v-20c0-10.980469 8.945312-20 20-20 10.867188 0 20 8.8125 20 20v20zm20-80c5.515625 0 10 4.484375 10 10v11.28125c-3.238281-.839844-6.597656-1.28125-10-1.28125s-6.761719.441406-10 1.277344v-11.277344c0-5.515625 4.484375-10 10-10zm19.535156 392c-1.765625 19.054688-8.53125 37.566406-19.535156 53.242188-11.003906-15.675782-17.769531-34.1875-19.535156-53.242188zm0 0"/><path d="m512 162v-50c0-22.054688-17.945312-40-40-40-2.261719 0-282 0-282 0-27.570312 0-50 22.429688-50 50v310h-30c-5.523438 0-10 4.476562-10 10 0 38.597656 31.402344 70 70 70h232c29.269531 0 50-24.925781 50-52.140625v-287.859375h50c5.523438 0 10-4.476562 10-10zm-342 330c-24.144531 0-44.351562-17.207031-48.996094-40h230.996094v10c0 11.246094 3.734375 21.636719 10.023438 30zm262-380v347.859375c0 16.5625-12.003906 32.140625-30 32.140625-16.542969 0-30-13.457031-30-30v-20c0-5.523438-4.476562-10-10-10h-202v-310c0-16.542969 13.457031-30.101562 30-30.101562h247.347656c-3.425781 5.941406-5.347656 12.894531-5.347656 20.101562zm60 40h-40v-40c0-11.1875 9.085938-20 20-20 11.027344 0 20 8.972656 20 20zm0 0"/><path d="m271.367188 254.347656c5.699218 4.8125 11.597656 9.789063 17.855468 15.210938 1.878906 1.628906 4.210938 2.441406 6.546875 2.441406 2.335938 0 4.671875-.8125 6.550781-2.441406 6.253907-5.421875 12.148438-10.398438 17.851563-15.207032 31.832031-26.863281 54.828125-46.273437 54.828125-74.773437 0-26.679687-19.597656-47.578125-44.617188-47.578125-16.824218 0-27.796874 9.019531-34.613281 18.195312-6.816406-9.175781-17.792969-18.195312-34.621093-18.195312-25.015626 0-44.609376 20.898438-44.609376 47.578125 0 28.5 23 47.90625 54.828126 74.769531zm-10.21875-102.347656c18.257812 0 24.730468 21.785156 24.996093 22.714844 1.210938 4.289062 5.121094 7.238281 9.582031 7.261718h.050782c4.457031 0 8.382812-2.976562 9.617187-7.261718.265625-.929688 6.738281-22.714844 24.984375-22.714844 14.035156 0 24.621094 11.855469 24.621094 27.578125 0 19.207031-17.964844 34.367187-47.730469 59.488281-3.730469 3.148438-7.546875 6.367188-11.5 9.746094-3.957031-3.378906-7.773437-6.597656-11.503906-9.75-29.761719-25.117188-47.726563-40.277344-47.726563-59.484375 0-15.722656 10.582032-27.578125 24.609376-27.578125zm0 0"/></svg>