<svg viewBox="-36 0 512 512" xmlns="http://www.w3.org/2000/svg"><path d="m270.03125 240c5.519531 0 10-4.480469 10-10s-4.480469-10-10-10c-5.53125 0-10 4.480469-10 10s4.46875 10 10 10zm0 0"/><path d="m170.03125 240c5.519531 0 10-4.480469 10-10s-4.480469-10-10-10c-5.53125 0-10 4.480469-10 10s4.46875 10 10 10zm0 0"/><path d="m0 480.050781v21.949219c0 5.523438 4.476562 10 10 10h420c5.523438 0 10-4.476562 10-10v-21.96875c0-39.769531-22.339844-76.523438-63.683594-91.613281 14.941406-13.050781 24.023438-32.167969 24.023438-52.839844 0-5.519531-4.476563-10-10-10-24.054688 0-44.328125-17.011719-49.210938-39.578125h28.902344c16.523438 0 29.96875-13.457031 29.96875-30v-46c0-13.042969-8.363281-24.164062-20-28.285156v-21.714844c0-88.222656-71.761719-160-159.96875-160-88.410156 0-160.03125 71.550781-160.03125 160v21.730469c-11.636719 4.136719-20 15.253906-20 28.269531v46c0 16.542969 13.472656 30 30.03125 30h28.839844c-4.875 22.566406-25.128906 39.578125-49.160156 39.578125-5.523438 0-10 4.480469-10 10 0 20.699219 9.105468 39.835937 24.085937 52.894531-41.183594 15.101563-63.796875 52.226563-63.796875 91.578125zm379.496094-135.308593c-3.113282 16.769531-14.652344 31.003906-30.777344 37.398437l-60.582031-7.867187-6.472657-25.296876c18.886719-11.292968 33.9375-27.25 44.023438-45.980468 9.410156 21.804687 29.621094 37.976562 53.808594 41.746094zm-79.316406-164.742188c-27.625 0-50.101563-22.757812-50.101563-50.730469 0-5.523437-4.476563-10-10-10-5.519531 0-10 4.476563-10 10 0 27.972657-22.476563 50.730469-50.109375 50.730469h-59.9375c0-55.140625 44.859375-100 100-100 55.246094 0 100 44.710938 100 100zm-180.179688 20h59.96875c25.484375 0 47.835938-13.785156 60.109375-34.355469 12.273437 20.570313 34.621094 34.355469 60.101563 34.355469h19.820312v46c0 37.824219-20.949219 71.992188-54.667969 89.167969-14.109375 7.1875-29.351562 10.832031-45.300781 10.832031-15.90625 0-31.101562-3.617188-45.171875-10.75-9.441406-4.785156-18.039063-11.019531-25.558594-18.542969-18.894531-18.882812-29.300781-43.996093-29.300781-70.707031zm56.917969 158.023438c13.691406 5.289062 28.144531 7.976562 43.113281 7.976562 15.027344 0 29.535156-2.710938 43.285156-8.054688l6.347656 24.824219c-3.332031 24.757813-24.335937 43.230469-49.535156 43.230469-25.195312 0-46.199218-18.464844-49.539062-43.214844zm203.082031-102.023438c0 5.515625-4.472656 10-9.96875 10h-30.03125v-66h30.03125c5.496094 0 9.96875 4.484375 9.96875 10zm-159.96875-236c77.179688 0 139.96875 62.804688 139.96875 140v20h-19.96875c0-66.300781-53.660156-120-120-120-66.167969 0-120 53.832031-120 120h-20.03125v-20c0-77.351562 62.636719-140 140.03125-140zm-160.03125 236v-46c0-5.503906 4.492188-9.988281 10.03125-10h29.96875v66h-29.96875c-5.53125 0-10.03125-4.484375-10.03125-10zm54.328125 46.96875c5.480469 10.125 12.457031 19.515625 20.832031 27.882812 7.046875 7.050782 14.902344 13.144532 23.402344 18.21875l-6.441406 25.207032-60.75 7.882812c-16.144532-6.398437-27.699219-20.640625-30.816406-37.417968 24.179687-3.773438 44.378906-19.960938 53.773437-41.773438zm-24.015625 99.492188 1.101562-.140626h.007813c.007813-.003906.015625-.003906.023437-.003906l61.121094-7.929687c8.097656 30.089843 35.386719 51.613281 67.5625 51.613281 32.175782 0 59.460938-21.523438 67.554688-51.617188 3.046875.398438-16.054688-2.082031 62.25 8.082032 43.839844 5.695312 70.066406 38.550781 70.066406 77.566406v11.96875h-400v-11.949219c0-38.285156 26.210938-71.863281 70.3125-77.589843zm0 0"/><path d="m193.296875 308.734375c8.394531 3.957031 17.390625 5.964844 26.730469 5.964844 9.125 0 17.941406-1.925781 26.214844-5.722657 5.019531-2.300781 7.21875-8.238281 4.914062-13.257812-2.300781-5.019531-8.238281-7.222656-13.257812-4.917969-5.636719 2.585938-11.648438 3.898438-17.867188 3.898438-6.371094 0-12.5-1.363281-18.207031-4.054688-4.996094-2.355469-10.953125-.214843-13.308594 4.78125-2.355469 4.996094-.214844 10.957031 4.78125 13.308594zm0 0"/><path d="m310.03125 466h40c5.523438 0 10-4.476562 10-10s-4.476562-10-10-10h-40c-5.523438 0-10 4.476562-10 10s4.476562 10 10 10zm0 0"/><path d="m390 446c5.519531 0 10 4.480469 10 10s-4.480469 10-10 10-10-4.480469-10-10 4.480469-10 10-10zm0 0"/></svg>