<svg viewBox="0 -16 512 512" xmlns="http://www.w3.org/2000/svg"><path d="m462 220c5.519531 0 10-4.480469 10-10s-4.480469-10-10-10-10 4.480469-10 10 4.480469 10 10 10zm0 0"/><path d="m256 320c-5.519531 0-10 4.480469-10 10s4.480469 10 10 10 10-4.480469 10-10-4.480469-10-10-10zm0 0"/><path d="m156 140h11.800781l15.171875 75.882812c2.796875 13.972657 15.171875 24.117188 29.425782 24.117188h87.203124c14.253907 0 26.628907-10.144531 29.425782-24.121094l15.171875-75.878906h11.800781c5.523438 0 10-4.476562 10-10s-4.476562-10-10-10c-8.097656 0-40.242188 0-52.792969 0l-17.71875-53.160156c-1.75-5.242188-7.410156-8.074219-12.648437-6.328125-5.242188 1.75-8.074219 7.410156-6.328125 12.648437l15.613281 46.839844h-52.25l15.613281-46.839844c1.746094-5.238281-1.085937-10.898437-6.328125-12.648437-5.238281-1.746094-10.902344 1.085937-12.648437 6.328125l-17.71875 53.160156c-8.753907 0-41.296875 0-52.792969 0-5.523438 0-10 4.476562-10 10s4.476562 10 10 10zm167.804688 0-14.390626 71.957031c-.929687 4.660157-5.058593 8.042969-9.8125 8.042969h-87.199218c-4.757813 0-8.882813-3.382812-9.816406-8.039062l-14.390626-71.960938zm0 0"/><path d="m236 200c5.523438 0 10-4.476562 10-10v-20c0-5.523438-4.476562-10-10-10s-10 4.476562-10 10v20c0 5.523438 4.476562 10 10 10zm0 0"/><path d="m276 200c5.523438 0 10-4.476562 10-10v-20c0-5.523438-4.476562-10-10-10s-10 4.476562-10 10v20c0 5.523438 4.476562 10 10 10zm0 0"/><path d="m30 380h176v40h-30c-13.351562 0-25.90625 5.203125-35.351562 14.648438-9.445313 9.445312-14.648438 22-14.648438 35.351562 0 5.523438 4.476562 10 10 10h240c5.523438 0 10-4.476562 10-10 0-27.570312-22.429688-50-50-50h-30v-40h176c8.011719 0 15.542969-3.121094 21.210938-8.789062 5.667968-5.667969 8.789062-13.199219 8.789062-21.210938v-320c0-8.011719-3.121094-15.542969-8.789062-21.210938-5.667969-5.667968-13.199219-8.789062-21.210938-8.789062h-452c-8.011719 0-15.542969 3.121094-21.210938 8.789062-5.667968 5.667969-8.789062 13.199219-8.789062 21.210938v320c0 8.011719 3.121094 15.542969 8.789062 21.210938 5.667969 5.667968 13.199219 8.789062 21.210938 8.789062zm334.285156 80h-216.582031c1.46875-4.167969 3.867187-7.988281 7.089844-11.210938 5.667969-5.667968 13.199219-8.789062 21.207031-8.789062h160c13.039062 0 24.160156 8.359375 28.285156 20zm-78.285156-40h-60v-40h60zm203.070312-62.929688c-1.890624 1.890626-4.402343 2.929688-7.070312 2.929688h-452c-2.667969 0-5.179688-1.039062-7.070312-2.929688-1.890626-1.890624-2.929688-4.402343-2.929688-7.070312v-50h472v50c0 2.667969-1.039062 5.179688-2.929688 7.070312zm-466.140624-334.140624c1.890624-1.890626 4.402343-2.929688 7.070312-2.929688h452c2.667969 0 5.179688 1.039062 7.070312 2.929688 1.890626 1.890624 2.929688 4.402343 2.929688 7.070312v250h-472v-250c0-2.667969 1.039062-5.179688 2.929688-7.070312zm0 0"/><path d="m462 180c5.523438 0 10-4.476562 10-10v-80c0-5.523438-4.476562-10-10-10s-10 4.476562-10 10v80c0 5.523438 4.476562 10 10 10zm0 0"/></svg>