<svg viewBox="-17 0 512 512" xmlns="http://www.w3.org/2000/svg"><path d="m260 200c-5.519531 0-10 4.480469-10 10s4.480469 10 10 10 10-4.480469 10-10-4.480469-10-10-10zm0 0"/><path d="m479.164062 205.992188-63.429687-144.976563c-5.292969-12.109375-14.96875-21.480469-27.238281-26.390625l-34.402344-13.757812-39.621094-19.8125c-1.378906-.691407-2.9375-1.054688-4.472656-1.054688h-140c-.050781 0-.101562.0078125-.15625.0117188-1.539062.0195312-3.046875.4101562-4.3125 1.0429692l-39.625 19.8125-34.398438 13.757812c-12.273437 4.90625-21.945312 14.28125-27.238281 26.386719l-63.429687 144.980469c-2.066406 4.722656-.203125 10.246093 4.304687 12.75l84.855469 47.140624v236.117188c0 5.523438 4.480469 10 10 10h280c5.523438 0 10-4.476562 10-10v-236.117188l84.855469-47.140624c4.507812-2.503907 6.375-8.027344 4.308593-12.75zm-239.164062-78.351563-32.816406-65.640625h65.636718zm74.472656-104.226563 24.125 12.066407-24.035156 112.1875c-.574219 2.679687-2.175781 4.957031-4.503906 6.402343-2.316406 1.445313-5.050782 1.875-7.703125 1.207032l-47.835938-11.957032zm-20.652344-3.414062-11 22h-85.640624l-11-22zm-128.292968 3.414062 59.953125 119.90625-47.839844 11.960938c-2.644531.660156-5.382813.234375-7.699219-1.210938-2.328125-1.445312-3.925781-3.722656-4.5-6.394531l-24.039062-112.195312zm-55.527344 468.585938v-40h260v40zm280-248.996094v-49.753906c0-5.523438-4.476562-10-10-10-5.519531 0-10 4.476562-10 10v238.75h-260c0-13.59375 0-229.007812 0-238.75 0-5.523438-4.476562-10-10-10-5.519531 0-10 4.476562-10 10v49.753906l-67.191406-37.328125 59.785156-136.648437c3.175781-7.265625 8.980469-12.886719 16.339844-15.832032l23.773437-9.507812 23.179688 108.1875c1.726562 8.027344 6.515625 14.839844 13.488281 19.179688 6.96875 4.335937 15.183594 5.617187 23.121094 3.628906l57.503906-14.375 57.5 14.371094c7.953125 1.992187 16.164062.707031 23.128906-3.625 6.96875-4.339844 11.761719-11.152344 13.492188-19.191407l23.175781-108.175781 23.769531 9.507812c7.363282 2.945313 13.167969 8.566407 16.34375 15.832032l59.78125 136.648437zm0 0"/><path d="m340 200h-40c-5.519531 0-10 4.476562-10 10s4.480469 10 10 10h40c5.523438 0 10-4.476562 10-10s-4.476562-10-10-10zm0 0"/></svg>