<svg viewBox="-66 0 512 512.001" xmlns="http://www.w3.org/2000/svg"><path d="m250 326c-5.519531 0-10 4.480469-10 10s4.480469 10 10 10 10-4.480469 10-10-4.480469-10-10-10zm0 0"/><path d="m130 326c-5.519531 0-10 4.480469-10 10s4.480469 10 10 10 10-4.480469 10-10-4.480469-10-10-10zm0 0"/><path d="m97.03125 265.613281c-.78125 1.050781-1.53125 2.179688-2.289062 3.328125-11.484376 17.332032-24.371094 41.289063-33.558594 60-18.238282 37.140625-43.609375 96.917969-60.917969 170.777344-.699219 2.972656 0 6.101562 1.898437 8.496094 1.894532 2.390625 4.78125 3.785156 7.835938 3.785156h360c3.058594 0 5.949219-1.398438 7.84375-3.796875 3.640625-4.605469 1.550781-9.445313 1.519531-10.0625-12.78125-54.109375-30.335937-105.292969-52.164062-152.140625-21.761719-46.695312-41.253907-74.636719-43.976563-79.558594-.617187-1.726562-.734375-3.554687-.367187-5.722656.679687-1.265625 1.082031-2.695312 1.160156-4.207031 1.914063-5.28125 5.605469-11.53125 9.796875-18.625 10.046875-17.003907 23.464844-39.722657 25.824219-71.925781 24.714843-.808594 45.90625-18.429688 49.683593-41.632813 5-30.707031-18.445312-58.328125-49.320312-58.328125h-50c-16.539062 0-30-13.457031-30-30v-26c0-5.523438-4.476562-10-10-10h-80c-5.519531 0-10 4.476562-10 10v26c0 16.542969-13.457031 30-30 30h-47.859375c-25.46875 0-47.59375 17.914062-51.460937 41.671875-4.996094 30.707031 18.449218 58.328125 49.320312 58.328125h.371094c2.371094 32.054688 15.757812 54.777344 25.78125 71.789062 4.210937 7.148438 7.917968 13.441407 9.835937 18.753907.078125 1.496093.480469 2.90625 1.144531 4.15625.320313 1.84375.289063 3.433593-.101562 4.914062zm260.257812 226.386719h-334.566406c16.714844-66.375 39.65625-120.113281 56.414063-154.242188 17.222656-35.082031 31.460937-56.820312 34.261719-60.6875.890624-.980468 1.589843-2.140624 2.035156-3.417968.941406-2.488282 1.523437-5.035156 1.777344-7.652344h20.175781l-6.8125 29.070312c-1.257813 5.375 2.078125 10.757813 7.457031 12.015626 5.375 1.261718 10.757812-2.074219 12.015625-7.453126l7.882813-33.632812h22.070312v70c0 5.523438 4.480469 10 10 10 5.523438 0 10-4.476562 10-10v-70h22.074219l7.882812 33.632812c1.253907 5.359376 6.625 8.71875 12.015625 7.453126 5.378906-1.257813 8.714844-6.640626 7.457032-12.015626l-6.816407-29.070312h20.183594c.265625 2.734375.882813 5.390625 1.898437 7.992188 3.359376 8.59375 58.363282 81.109374 92.59375 218.007812zm-7.707031-370.886719c-2.203125 13.542969-14.730469 23.898438-29.582031 24.8125v-9.925781c0-16.542969-13.457031-30-30-30h-10v-20h40c17.960938 0 32.699219 15.949219 29.582031 35.113281zm-189.582031-85.113281v-16h60v16c0 24.144531 17.207031 44.347656 40 48.992188v22.957031c-29.589844 5.675781-55.316406 23.335937-70 45.753906-14.578125-22.261719-40.234375-40.050781-70-45.753906v-22.957031c22.796875-4.644532 40-24.847657 40-48.992188zm-129.578125 74.886719c2.308594-14.1875 15.945313-24.886719 31.71875-24.886719h37.859375v20h-10c-16.539062 0-30 13.457031-30 30v10c-17.957031 0-32.699219-15.949219-29.578125-35.113281zm49.578125 45.113281v-20c0-5.515625 4.488281-10 10-10h10c35.105469 0 69.71875 22.605469 80.570312 53.332031 1.414063 3.996094 5.191407 6.667969 9.429688 6.667969 4.242188 0 8.019531-2.671875 9.429688-6.667969 10.886718-30.824219 45.574218-53.332031 80.570312-53.332031h10c5.515625 0 10 4.484375 10 10v20c0 32.09375-12.976562 54.0625-23.40625 71.710938-3.871094 6.550781-7.367188 12.476562-9.898438 18.289062h-153.394531c-2.535156-5.832031-6.039062-11.78125-9.917969-18.367188-10.417968-17.679687-23.382812-39.679687-23.382812-71.632812zm0 0"/></svg>