<svg viewBox="1 0 511 511.99985" xmlns="http://www.w3.org/2000/svg"><path d="m90.5 100c5.519531 0 10-4.480469 10-10 0-5.5-4.472656-10-10-10-5.519531 0-10 4.480469-10 10 0 5.546875 4.519531 10 10 10zm0 0"/><path d="m140.5 270h100c16.542969 0 30-13.457031 30-30v-120c0-5.523438-4.480469-10-10-10h-140c-5.523438 0-10 4.476562-10 10v120c0 16.542969 13.457031 30 30 30zm-10-140h120v110c0 5.511719-4.488281 10-10 10h-100c-5.515625 0-10-4.488281-10-10zm0 0"/><path d="m189.347656 210h2.300782c21.421874 0 38.851562-17.429688 38.851562-38.851562v-11.148438c0-5.523438-4.476562-10-10-10s-10 4.476562-10 10v11.148438c0 10.394531-8.457031 18.851562-18.851562 18.851562h-2.300782c-10.390625 0-18.847656-8.457031-18.847656-18.851562v-11.148438c0-5.523438-4.476562-10-10-10s-10 4.476562-10 10v11.148438c0 21.421874 17.425781 38.851562 38.847656 38.851562zm0 0"/><path d="m380.898438 189.257812c0-104.535156-84.855469-189.257812-190-189.257812-104.984376 0-190.398438 84.902344-190.398438 189.257812 0 104.769532 85.414062 190 190.398438 190 39.921874 0 79.132812-12.796874 111.394531-36.183593l30.851562 30.851562c-4.296875 4.253907-7.0625 6.988281-7.066406 6.992188-1.886719 1.867187-2.953125 4.40625-2.96875 7.0625-.015625 2.652343 1.027344 5.203125 2.898437 7.089843l101.421876 102.292969c21.699218 21.683594 57.8125 19.039063 76.101562-6.371093 14.074219-19.527344 11.101562-47.84375-6.882812-65.824219l-99.867188-100.738281c-2.199219-2.21875-5.3125-3.28125-8.398438-2.875-2.601562.339843-4.941406 1.683593-6.542968 3.707031-.441406.484375-1.84375 1.953125-6.179688 6.328125l-30.945312-30.941406c23.386718-32.257813 36.183594-71.46875 36.183594-111.390626zm-33.550782 170.589844-29.421875-29.425781c4.953125-4.460937 9.675781-9.183594 14.136719-14.136719l29.46875 29.460938c-4.175781 4.164062-8.945312 8.902344-14.183594 14.101562zm-326.847656-170.589844c0-93.328124 76.441406-169.257812 170.398438-169.257812 93.738281 0 170 75.929688 170 169.257812 0 93.007813-75.546876 170-170 170-93.957032 0-170.398438-76.261718-170.398438-170zm369.273438 156.511719 92.703124 93.511719c11.15625 11.15625 13.230469 28.359375 4.828126 40.027344-11.410157 15.84375-33.128907 16.507812-45.703126 3.941406l-94.34375-95.152344c11.992188-11.871094 30.703126-30.425781 42.515626-42.328125zm0 0"/><path d="m263.820312 320.3125c.160157-.089844.144532-.078125 0 0zm0 0"/><path d="m340.8125 194.324219c2.726562-86.875-67.488281-156.152344-151.984375-155.050781-25.398437.480468-48.605469 6.527343-70.324219 18.597656-3.234375 1.65625-5.449218 5.023437-5.449218 8.910156 0 7.648438 8.253906 12.429688 14.878906 8.730469 18.078125-10.089844 37.441406-15.78125 61.246094-16.242188 73.214843-.953125 134 59.164063 131.644531 134.40625-2.390625 71.375-61.230469 125.582031-129.925781 125.582031-69.699219 0-132-56.082031-129.851563-136.242187.332031-6.980469 1.1875-13.9375 2.996094-22.234375 2.824219-12.429688 7.003906-23.078125 12.445312-33.207031 2.613281-4.863281.789063-10.929688-4.074219-13.542969-4.863281-2.613281-10.929687-.792969-13.542968 4.074219-3.863282 7.1875-6.9375 14.269531-8.914063 19.808593h-.003906c-2.011719 5.519532-3.496094 10.257813-5.429687 18.515626-21.167969 92.542968 49.832031 182.828124 146.375 182.828124 24.625 0 49.144531-5.917968 72.921874-18.945312 45.691407-25.132812 75.238282-73.429688 76.992188-125.988281zm0 0"/></svg>