<svg viewBox="-46 0 512 512" xmlns="http://www.w3.org/2000/svg"><path d="m130 146c5.519531 0 10-4.480469 10-10s-4.480469-10-10-10-10 4.480469-10 10 4.480469 10 10 10zm0 0"/><path d="m130 206c5.519531 0 10-4.480469 10-10s-4.480469-10-10-10-10 4.480469-10 10 4.480469 10 10 10zm0 0"/><path d="m110 512h240c38.597656 0 70-31.402344 70-70 0-5.523438-4.476562-10-10-10h-30v-382c0-27.570312-22.429688-50-50-50 0 0-287.742188 0-290 0-22.054688 0-40 17.945312-40 40v50c0 5.523438 4.476562 10 10 10h50v359.859375c0 27.175781 20.6875 52.140625 50 52.140625zm240-20h-200.023438c6.289063-8.363281 10.023438-18.855469 10.023438-30.101562v-10h238.996094c-4.644532 22.796874-24.851563 40.101562-48.996094 40.101562zm10-442v382h-210c-5.523438 0-10 4.476562-10 10v20c0 16.542969-13.457031 30-30 30-17.929688 0-30-15.515625-30-32.140625v-419.859375c0-7.210938-1.921875-14.0625-5.347656-20h255.347656c16.542969 0 30 13.457031 30 30zm-340 30v-40c0-11.027344 8.972656-20 20-20 10.933594 0 20 8.816406 20 20v40zm0 0"/><path d="m220 286c0 17.3125 7.242188 33.320312 20 44.6875v65.3125c0 3.6875 2.03125 7.078125 5.28125 8.816406 3.25 1.742188 7.199219 1.550782 10.265625-.496094l24.453125-16.300781 24.453125 16.300781c3.074219 2.050782 7.019531 2.234376 10.265625.496094 3.25-1.738281 5.28125-5.128906 5.28125-8.816406v-65.3125c12.761719-11.371094 20-27.378906 20-44.6875 0-33.082031-26.914062-60-60-60s-60 26.914062-60 60zm65.546875 81.679688c-3.359375-2.238282-7.734375-2.238282-11.09375 0l-14.453125 9.636718v-34.730468c6.355469 2.246093 13.085938 3.414062 20 3.414062s13.644531-1.167969 20-3.414062v34.730468zm34.453125-81.679688c0 22.574219-18.382812 40-40 40-21.625 0-40-17.414062-40-40 0-22.054688 17.945312-40 40-40s40 17.945312 40 40zm0 0"/><path d="m130 86h180c5.523438 0 10-4.476562 10-10s-4.476562-10-10-10h-180c-5.523438 0-10 4.476562-10 10s4.476562 10 10 10zm0 0"/><path d="m170 146h140c5.523438 0 10-4.476562 10-10s-4.476562-10-10-10h-140c-5.523438 0-10 4.476562-10 10s4.476562 10 10 10zm0 0"/><path d="m170 206h140c5.523438 0 10-4.476562 10-10s-4.476562-10-10-10h-140c-5.523438 0-10 4.476562-10 10s4.476562 10 10 10zm0 0"/><path d="m130 326h60c5.523438 0 10-4.476562 10-10s-4.476562-10-10-10h-60c-5.523438 0-10 4.476562-10 10s4.476562 10 10 10zm0 0"/><path d="m130 266h60c5.523438 0 10-4.476562 10-10s-4.476562-10-10-10h-60c-5.523438 0-10 4.476562-10 10s4.476562 10 10 10zm0 0"/><path d="m130 386h60c5.523438 0 10-4.476562 10-10s-4.476562-10-10-10h-60c-5.523438 0-10 4.476562-10 10s4.476562 10 10 10zm0 0"/></svg>