<svg viewBox="0 -36 512 512" xmlns="http://www.w3.org/2000/svg"><path d="m432 360c-11.050781 0-20 8.949219-20 20s8.949219 20 20 20 20-8.949219 20-20-8.949219-20-20-20zm0 0"/><path d="m422 280c-5.519531 0-10 4.480469-10 10s4.480469 10 10 10 10-4.480469 10-10-4.480469-10-10-10zm0 0"/><path d="m126 360c-11.050781 0-20 8.949219-20 20s8.949219 20 20 20 20-8.949219 20-20-8.949219-20-20-20zm0 0"/><path d="m469.96875 240.640625-17.242188-68.96875c6.148438-5.886719 9.273438-13.664063 9.273438-21.671875 0-16.542969-13.457031-30-30-30h-70c-16.542969 0-30 13.457031-30 30v131.71875c-3.128906-1.109375-6.492188-1.71875-10-1.71875h-30v-120h10c5.523438 0 10-4.476562 10-10v-60c0-5.523438-4.476562-10-10-10h-46.027344c6.292969-8.363281 10.027344-18.753906 10.027344-30 0-27.570312-22.429688-50-50-50-24.167969 0-44.382812 17.238281-49.003906 40.0625-.332032-.035156-.664063-.0625-.996094-.0625-.335938 0-.667969.023438-1 .03125-4.632812-22.808594-24.84375-40.03125-49-40.03125-27.570312 0-50 22.429688-50 50 0 11.246094 3.734375 21.636719 10.027344 30h-46.027344c-5.523438 0-10 4.476562-10 10v60c0 5.523438 4.476562 10 10 10h10v120h-10c-16.542969 0-30 13.457031-30 30v40c0 16.542969 13.457031 30 30 30h36c0 33.085938 26.914062 60 60 60s60-26.914062 60-60h186c0 33.085938 26.914062 60 60 60s60-26.914062 60-60c0-.570312-.027344-1.136719-.042969-1.707031 11.660157-4.113281 20.042969-15.242188 20.042969-28.292969v-60c0-24.859375-18.234375-45.53125-42.03125-49.359375zm-35.777344-60.640625 15 60h-83.050781l22.929687-22.929688c3.90625-3.90625 3.90625-10.234374 0-14.140624s-10.234374-3.90625-14.140624 0l-22.929688 22.925781v-45.855469zm-72.191406-40h70c5.515625 0 10 4.484375 10 10 0 5.523438-4.480469 10-10 10h-80v-10c0-5.515625 4.484375-10 10-10zm-90 140h-56v-120h56zm-136-120h60v120h-60zm29.417969-99.996094 8.65625 1.09375c9.25 2.578125 16.917969 9.59375 20.214843 18.902344h-56.546874c4.128906-11.570312 14.972656-19.753906 27.675781-19.996094zm30.582031 39.996094v40h-60v-40zm96 40h-76v-40h76zm-76-120c16.542969 0 30 13.457031 30 30s-13.457031 30-30 30c-.34375 0-.679688-.019531-1.023438-.03125-3.128906-15.359375-13.414062-28.75-28.449218-35.539062 2.617187-13.890626 14.835937-24.429688 29.472656-24.429688zm-130 30c0-16.542969 13.457031-30 30-30 14.632812 0 26.847656 10.535156 29.472656 24.417969-14.535156 6.578125-25.1875 19.890625-28.433594 35.550781-.347656.011719-.691406.03125-1.039062.03125-16.542969 0-30-13.457031-30-30zm-46 50h76v40h-76zm76 60v120h-56v-120zm10 260c-22.054688 0-40-17.945312-40-40 0-22.355469 18.269531-40 40-40 21.78125 0 40 17.691406 40 40 0 22.054688-17.945312 40-40 40zm56.566406-60c-8.351562-23.601562-30.953125-40-56.566406-40-25.621094 0-48.234375 16.414062-56.570312 40h-39.429688c-5.515625 0-10-4.484375-10-10v-40c0-5.515625 4.484375-10 10-10h292c5.515625 0 10 4.484375 10 10v50zm249.433594 60c-22.054688 0-40-17.945312-40-40 0-22.355469 18.269531-40 40-40 21.78125 0 40 17.691406 40 40 0 22.054688-17.945312 40-40 40zm55.855469-61.910156c-8.871094-22.570313-30.941407-38.089844-55.855469-38.089844-25.621094 0-48.234375 16.414062-56.570312 40h-23.429688v-100h110c13.035156 0 24.152344 8.359375 28.28125 20h-28.28125c-5.523438 0-10 4.476562-10 10s4.476562 10 10 10h30v50c0 3.324219-1.640625 6.269531-4.144531 8.089844zm0 0"/></svg>