<svg viewBox="-36 0 512 512" xmlns="http://www.w3.org/2000/svg"><path d="m269.898438 220c5.523437 0 10-4.480469 10-10s-4.476563-10-10-10c-5.519532 0-10 4.480469-10 10s4.480468 10 10 10zm0 0"/><path d="m179.898438 210c0-5.519531-4.476563-10-10-10-5.519532 0-10 4.480469-10 10s4.480468 10 10 10c5.523437 0 10-4.480469 10-10zm0 0"/><path d="m88.570312 342.5-.929687.125c-28.78125 3.738281-53.976563 18.101562-69.121094 39.410156-12.117187 17.042969-18.519531 37.105469-18.519531 58.015625v61.949219c0 5.523438 4.476562 10 10 10h420c5.523438 0 10-4.476562 10-10v-61.96875c0-20.898438-6.398438-40.945312-18.507812-57.984375-15.144532-21.308594-40.335938-35.675781-69.152344-39.417969l-64.09375-8.320312-6.589844-29.832032c32.75-17.636718 56.335938-48.375 64.855469-84.476562h4.988281c27.570312 0 50-22.429688 50-50s-22.429688-50-50-50h-1.5v-10c0-60.652344-49.347656-110-110-110-14.320312 0-25.683594 0-40 0-60.015625 0-108.953125 48.316406-109.976562 108.089844-.199219 1.335937-.121094 3.226562-.023438 4.539062v7.394532c-26.878906.792968-48.5 22.90625-48.5 49.976562 0 27.570312 22.429688 50 50 50h1.996094c8.621094 36.621094 32.621094 67.0625 64.855468 84.441406l-6.597656 29.863282zm131.429688-22.5c14.835938 0 29.246094-2.453125 42.992188-7.285156l6.578124 29.765625c-3.199218 24.902343-24.261718 43.519531-49.570312 43.519531s-46.375-18.621094-49.570312-43.527344l6.574218-29.757812c13.75 4.832031 28.160156 7.285156 42.996094 7.285156zm0 86c32.183594 0 59.46875-21.523438 67.554688-51.613281l52.445312 6.796875v130.816406h-240.101562v-130.800781l52.546874-6.816407c8.085938 30.09375 35.367188 51.617188 67.554688 51.617188zm-200 34.050781c0-16.734375 5.125-32.789062 14.820312-46.425781 10.121094-14.242188 26.300782-24.554688 45.179688-29.210938v127.585938h-60zm385.1875-46.417969c9.691406 13.632813 14.8125 29.675782 14.8125 46.398438v51.96875h-60.101562v-127.632812c18.957031 4.625 35.125 14.964843 45.289062 29.265624zm-235.1875-308.632812c0-31.328125 17.265625-57.578125 40-63.667969v78.667969h-38.644531c-.894531-4.886719-1.355469-9.90625-1.355469-15zm98.644531 15h-38.746093v-78.714844c22.84375 5.988282 40.101562 32.277344 40.101562 63.714844 0 5.09375-.460938 10.113281-1.355469 15zm58.480469 20c-13.140625 24.058594-63.808594 40-107.226562 40-48.128907 0-95.472657-18.441406-107.226563-40zm24.375 20c16.542969 0 30 13.457031 30 30s-13.457031 30-30 30h-1.898438c.253907-3.328125.398438-6.664062.398438-10v-50zm-22.058594-40h-40.535156c.71875-4.925781 1.09375-9.9375 1.09375-15 0-23.40625-7.835938-44.636719-20.484375-60.023438 32.144531 11.191407 56.050781 40.128907 59.925781 75.023438zm-158.9375-75.03125c-12.660156 15.394531-20.503906 36.628906-20.503906 60.03125 0 5.0625.371094 10.074219 1.09375 15h-40.535156c3.875-34.902344 27.789062-63.84375 59.945312-75.03125zm-109.003906 145.03125c0-16.039062 12.652344-29.179688 28.5-29.960938v49.960938c0 3.324219.144531 6.652344.394531 9.972656-16.03125-.585937-28.894531-13.800781-28.894531-29.972656zm48.5 20v-42.960938c27.253906 22.859376 73.425781 32.960938 109.898438 32.960938 41.777343 0 85.507812-12.457031 110.101562-33.128906v43.128906c0 60.820312-49.214844 110-110 110-16.078125 0-31.5625-3.382812-46.019531-10.058594-38.621094-17.820312-63.980469-56.421875-63.980469-99.941406zm0 0"/><path d="m193.171875 272.738281c8.40625 3.957031 17.398437 5.960938 26.726563 5.960938 9.136718 0 17.957031-1.925781 26.21875-5.722657 5.019531-2.308593 7.214843-8.246093 4.910156-13.261718-2.308594-5.019532-8.246094-7.21875-13.265625-4.910156-5.621094 2.585937-11.632813 3.894531-17.863281 3.894531-6.363282 0-12.488282-1.363281-18.210938-4.058594-4.996094-2.351563-10.953125-.207031-13.304688 4.789063-2.351562 5-.207031 10.957031 4.789063 13.308593zm0 0"/><path d="m269.898438 466h40c5.523437 0 10-4.476562 10-10s-4.476563-10-10-10h-40c-5.519532 0-10 4.476562-10 10s4.480468 10 10 10zm0 0"/><path d="m227.304688 446.140625c6.839843-1.125 12.679687 4.714844 11.554687 11.554687-.679687 4.144532-4.023437 7.484376-8.164063 8.164063-6.84375 1.125-12.679687-4.710937-11.554687-11.554687.679687-4.144532 4.019531-7.484376 8.164063-8.164063zm0 0"/></svg>