<svg viewBox="0 0 512 512" xmlns="http://www.w3.org/2000/svg"><path d="m109.960938 266c-5.519532 0-10 4.480469-10 10s4.480468 10 10 10c5.519531 0 10-4.480469 10-10s-4.480469-10-10-10zm0 0"/><path d="m490.070312 204.644531c-.949218-4.796875.675782-11.707031 2.242188-18.390625 2.367188-10.074218 5.042969-21.488281.714844-31.945312-4.417969-10.644532-14.496094-16.871094-23.390625-22.363282-5.746094-3.550781-11.691407-7.222656-14.292969-11.113281-2.660156-3.976562-3.804688-10.925781-4.90625-17.644531-1.683594-10.257812-3.59375-21.886719-11.667969-29.960938-8.074219-8.074218-19.707031-9.980468-29.964843-11.664062-6.71875-1.101562-13.664063-2.242188-17.628907-4.890625-3.898437-2.609375-7.566406-8.554687-11.117187-14.304687-5.496094-8.894532-11.722656-18.980469-22.371094-23.394532-10.449219-4.332031-21.863281-1.652344-31.933594.710938-6.6875 1.570312-13.601562 3.191406-18.394531 2.246094-4.769531-.945313-11.632813-5.03125-18.269531-8.984376-10.683594-6.363281-21.734375-12.945312-33.089844-12.945312-11.363281 0-22.417969 6.582031-33.109375 12.945312-6.636719 3.953126-13.5 8.039063-18.269531 8.984376-4.789063.945312-11.699219-.675782-18.382813-2.246094-10.074219-2.363282-21.488281-5.042969-31.941406-.710938-10.644531 4.417969-16.871094 14.5-22.367187 23.394532-3.546876 5.75-7.21875 11.695312-11.109376 14.300781-3.964843 2.652343-10.910156 3.792969-17.628906 4.894531-10.261718 1.683594-21.890625 3.59375-29.972656 11.667969-8.066406 8.066406-9.972656 19.683593-11.65625 29.9375-1.101562 6.722656-2.242188 13.675781-4.914062 17.660156-2.605469 3.898437-8.546876 7.566406-14.292969 11.117187-8.890625 5.496094-18.96875 11.71875-23.382813 22.371094-4.328125 10.449219-1.65625 21.859375.703125 31.925782 1.566407 6.683593 3.1875 13.597656 2.234375 18.402343-.941406 4.773438-5.027344 11.636719-8.980468 18.277344-6.355469 10.683594-12.929688 21.726563-12.929688 33.078125 0 11.359375 6.574219 22.410156 12.933594 33.097656 3.949218 6.640625 8.035156 13.503906 8.976562 18.289063.949219 4.789062-.667968 11.703125-2.234375 18.386719-2.359375 10.070312-5.03125 21.480468-.703125 31.925781 4.417969 10.648437 14.492188 16.871093 23.382813 22.367187 5.746093 3.546875 11.6875 7.21875 14.304687 11.128906 2.660156 3.964844 3.804688 10.917969 4.90625 17.640626 1.679688 10.25 3.585938 21.867187 11.652344 29.945312 8.070312 8.066406 19.6875 9.972656 29.9375 11.65625 6.726562 1.101562 13.679688 2.242188 17.664062 4.914062 3.894532 2.605469 7.566407 8.546876 11.117188 14.292969 5.492188 8.890625 11.71875 18.964844 22.367188 23.382813 10.441406 4.328125 21.851562 1.652344 31.921874-.703125 6.683594-1.566407 13.601563-3.183594 18.398438-2.234375 4.769531.941406 11.636719 5.027344 18.277344 8.976562 10.6875 6.359375 21.738281 12.933594 33.097656 12.933594 11.351562 0 22.398438-6.574219 33.078125-12.929688 6.640625-3.953124 13.507813-8.039062 18.285156-8.980468 4.796875-.949219 11.710938.667968 18.402344 2.234375 10.066406 2.359375 21.476563 5.03125 31.925781.703125 10.644532-4.414063 16.871094-14.492188 22.363282-23.382813 3.550781-5.746093 7.21875-11.6875 11.125-14.296875 3.976562-2.667968 10.929687-3.808594 17.652343-4.910156 10.25-1.683594 21.871094-3.589844 29.9375-11.65625 8.074219-8.070312 9.984375-19.699219 11.667969-29.957031 1.101562-6.722657 2.246094-13.667969 4.902344-17.644531 2.605468-3.894532 8.550781-7.566407 14.296875-11.117188 8.894531-5.492188 18.972656-11.71875 23.390625-22.367188 4.328125-10.449218 1.652344-21.863281-.714844-31.933593-1.566406-6.683594-3.1875-13.589844-2.242188-18.378907.941407-4.773437 5.03125-11.636718 8.980469-18.273437 6.367188-10.691406 12.949219-21.746094 12.949219-33.109375 0-11.355469-6.582031-22.40625-12.945312-33.089844-3.953126-6.636718-8.039063-13.5-8.984376-18.265625zm-8.203124 74.234375c-4.816407 8.09375-9.800782 16.464844-11.417969 24.617188v.003906c-1.785157 9.03125.339843 18.078125 2.394531 26.832031 1.757812 7.480469 3.570312 15.214844 1.710938 19.707031-1.941407 4.683594-8.796876 8.914063-15.425782 13.011719-7.566406 4.671875-15.386718 9.5-20.410156 17.011719-5.066406 7.578125-6.566406 16.699219-8.015625 25.519531-1.253906 7.636719-2.550781 15.535157-6.074219 19.054688-3.515625 3.515625-11.402344 4.8125-19.03125 6.0625-8.835937 1.449219-17.96875 2.949219-25.546875 8.03125-7.507812 5.019531-12.335937 12.839843-17.011719 20.402343-4.09375 6.625-8.324218 13.476563-13.007812 15.417969-4.496094 1.863281-12.226562.050781-19.707031-1.699219-8.753907-2.050781-17.808594-4.171874-26.839844-2.382812-8.160156 1.609375-16.535156 6.59375-24.632813 11.414062-7.96875 4.742188-17 10.117188-22.851562 10.117188-5.859375 0-14.894531-5.378906-22.871094-10.121094-8.097656-4.820312-16.472656-9.800781-24.621094-11.410156-8.988281-1.78125-17.960937.300781-26.84375 2.382812-7.476562 1.75-15.210937 3.5625-19.703124 1.703126-4.683594-1.945313-8.914063-8.796876-13.011719-15.421876-4.671875-7.5625-9.5-15.382812-17-20.398437-7.585938-5.085937-16.71875-6.585937-25.554688-8.035156-7.625-1.25-15.515625-2.542969-19.027343-6.058594-3.519532-3.519531-4.8125-11.410156-6.066407-19.042969-1.449219-8.832031-2.945312-17.96875-8.027343-25.539062-5.023438-7.503906-12.839844-12.335938-20.402344-17.007813-6.628906-4.09375-13.480469-8.328125-15.421875-13.007812-1.863281-4.496094-.050781-12.230469 1.699219-19.707031 2.050781-8.757813 4.171874-17.808594 2.382812-26.832032-1.609375-8.160156-6.589844-16.535156-11.410156-24.632812-4.742188-7.972656-10.121094-17.011719-10.121094-22.871094 0-5.851562 5.375-14.882812 10.117188-22.851562 4.820312-8.097657 9.804687-16.472657 11.410156-24.625 1.792968-9.035157-.328125-18.089844-2.378906-26.84375-1.75-7.480469-3.5625-15.210938-1.703126-19.707032 1.945313-4.6875 8.796876-8.917968 15.421876-13.011718 7.5625-4.675782 15.382812-9.503907 20.398437-17.003907 5.085937-7.585937 6.585937-16.71875 8.035156-25.554687 1.25-7.628906 2.542969-15.515625 6.058594-19.027344 3.527344-3.523438 11.429687-4.820312 19.074219-6.074219 8.820312-1.449219 17.9375-2.945312 25.511718-8.011719 7.503907-5.027343 12.332032-12.847656 17.003907-20.410156 4.09375-6.632812 8.328125-13.488281 13.007812-15.429687 4.496094-1.863281 12.230469-.050781 19.710938 1.707031 8.75 2.054688 17.800781 4.179688 26.835937 2.394531 8.152344-1.613281 16.523438-6.597656 24.617188-11.417969 7.976562-4.75 17.019531-10.132812 22.878906-10.132812 5.851562 0 14.886719 5.382812 22.855469 10.128906 8.09375 4.820313 16.464843 9.804688 24.625 11.421875 9.035156 1.785157 18.085937-.339843 26.839843-2.394531 7.480469-1.753906 15.214844-3.570312 19.707032-1.710938 4.683594 1.945313 8.917968 8.800782 13.011718 15.433594 4.671876 7.5625 9.503907 15.382813 17.015626 20.417969 7.574218 5.058594 16.691406 6.554687 25.511718 8 7.640625 1.253906 15.539063 2.550781 19.0625 6.074219 3.519532 3.519531 4.820313 11.417968 6.074219 19.054687 1.449219 8.824219 2.945313 17.945313 8.015625 25.523438 5.023438 7.507812 12.84375 12.335937 20.410156 17.011719 6.628906 4.09375 13.480469 8.324218 15.421875 13.003906 1.863281 4.5.046875 12.234375-1.707031 19.714844-2.054688 8.753906-4.179688 17.804687-2.394531 26.839843 1.617187 8.160157 6.601562 16.53125 11.421875 24.625 4.746094 7.96875 10.128906 17.003907 10.128906 22.855469 0 5.859375-5.382812 14.902344-10.132812 22.878906zm0 0"/><path d="m255.960938 60c-104.527344 0-196 91.128906-196 196 0 104.527344 91.128906 196 196 196 104.527343 0 196-91.128906 196-196 0-104.527344-91.128907-196-196-196zm0 372c-93.757813 0-176-82.242188-176-176s82.242187-176 176-176c93.757812 0 176 82.242188 176 176s-82.242188 176-176 176zm0 0"/><path d="m255.960938 120c5.523437 0 10-4.476562 10-10s-4.476563-10-10-10c-75.234376 0-144.007813 61.613281-154.480469 134.601562-.785157 5.464844 3.011719 10.53125 8.480469 11.316407.480468.070312.957031.101562 1.433593.101562 4.890625 0 9.167969-3.59375 9.882813-8.582031 9.132812-63.65625 70.808594-117.4375 134.683594-117.4375zm0 0"/><path d="m347.355469 232.402344-57.09375-8.292969-25.523438-51.734375c-1.683593-3.414062-5.160156-5.574219-8.96875-5.574219-3.804687 0-7.28125 2.160157-8.964843 5.574219l-25.535157 51.734375-57.097656 8.292969c-3.765625.546875-6.894531 3.1875-8.070313 6.808594-1.175781 3.617187-.195312 7.59375 2.53125 10.25l41.3125 40.269531-9.75 56.871093c-.644531 3.75.898438 7.542969 3.980469 9.777344 3.078125 2.238282 7.160157 2.53125 10.53125.761719l51.0625-26.851563 51.054688 26.851563c3.335937 1.75 7.421875 1.5 10.535156-.761719 3.078125-2.234375 4.621094-6.027344 3.976563-9.78125l-9.75-56.867187 41.316406-40.269531c2.726562-2.660157 3.707031-6.632813 2.53125-10.253907-1.179688-3.617187-4.308594-6.257812-8.078125-6.804687zm-53.496094 46.675781c-2.355469 2.296875-3.433594 5.609375-2.875 8.851563l7.214844 42.078124-37.773438-19.867187c-2.914062-1.53125-6.394531-1.53125-9.308593 0l-37.785157 19.867187 7.214844-42.078124c.554687-3.242188-.519531-6.550782-2.875-8.851563l-30.570313-29.792969 42.246094-6.136718c3.257813-.472657 6.074219-2.519532 7.53125-5.472657l18.890625-38.277343 18.882813 38.277343c1.457031 2.953125 4.273437 5 7.53125 5.472657l42.246094 6.136718zm0 0"/></svg>