<svg viewBox="-86 0 512 512" xmlns="http://www.w3.org/2000/svg"><path d="m210 306c5.519531 0 10-4.480469 10-10s-4.480469-10-10-10-10 4.480469-10 10 4.480469 10 10 10zm0 0"/><path d="m170 306c5.519531 0 10-4.480469 10-10s-4.480469-10-10-10-10 4.480469-10 10 4.480469 10 10 10zm0 0"/><path d="m170 452c-5.519531 0-10 4.480469-10 10s4.480469 10 10 10 10-4.480469 10-10-4.480469-10-10-10zm0 0"/><path d="m130 306c5.519531 0 10-4.480469 10-10s-4.480469-10-10-10-10 4.480469-10 10 4.480469 10 10 10zm0 0"/><path d="m30 0c-16.542969 0-30 13.457031-30 30v452c0 16.542969 13.457031 30 30 30h280c16.542969 0 30-13.457031 30-30v-452c0-16.542969-13.457031-30-30-30zm290 412h-300v-332h300zm-10 80h-280c-5.515625 0-10-4.484375-10-10v-50h300v50c0 5.515625-4.484375 10-10 10zm10-462v30h-300v-30c0-5.515625 4.484375-10 10-10h280c5.515625 0 10 4.484375 10 10zm0 0"/><path d="m250 306c5.523438 0 10-4.476562 10-10v-100c0-5.523438-4.476562-10-10-10s-10 4.476562-10 10v100c0 5.523438 4.476562 10 10 10zm0 0"/><path d="m210 266c5.523438 0 10-4.476562 10-10v-60c0-5.523438-4.476562-10-10-10s-10 4.476562-10 10v60c0 5.523438 4.476562 10 10 10zm0 0"/><path d="m170 266c5.523438 0 10-4.476562 10-10v-60c0-5.523438-4.476562-10-10-10s-10 4.476562-10 10v60c0 5.523438 4.476562 10 10 10zm0 0"/><path d="m130 266c5.523438 0 10-4.476562 10-10v-60c0-5.523438-4.476562-10-10-10s-10 4.476562-10 10v60c0 5.523438 4.476562 10 10 10zm0 0"/><path d="m90 186c-5.523438 0-10 4.476562-10 10v100c0 5.523438 4.476562 10 10 10s10-4.476562 10-10v-100c0-5.523438-4.476562-10-10-10zm0 0"/><path d="m250 166h30v30c0 5.523438 4.476562 10 10 10s10-4.476562 10-10v-40c0-5.523438-4.476562-10-10-10h-40c-5.523438 0-10 4.476562-10 10s4.476562 10 10 10zm0 0"/><path d="m250 346h40c5.523438 0 10-4.476562 10-10v-40c0-5.523438-4.476562-10-10-10s-10 4.476562-10 10v30h-30c-5.523438 0-10 4.476562-10 10s4.476562 10 10 10zm0 0"/><path d="m50 206c5.523438 0 10-4.476562 10-10v-30h30c5.523438 0 10-4.476562 10-10s-4.476562-10-10-10h-40c-5.523438 0-10 4.476562-10 10v40c0 5.523438 4.476562 10 10 10zm0 0"/><path d="m50 346h40c5.523438 0 10-4.476562 10-10s-4.476562-10-10-10h-30v-30c0-5.523438-4.476562-10-10-10s-10 4.476562-10 10v40c0 5.523438 4.476562 10 10 10zm0 0"/></svg>