<svg viewBox="0 -36 512 512" xmlns="http://www.w3.org/2000/svg"><path d="m266 40c-5.519531 0-10 4.480469-10 10s4.480469 10 10 10 10-4.480469 10-10-4.480469-10-10-10zm0 0"/><path d="m226 40h-76c-5.523438 0-10 4.476562-10 10s4.476562 10 10 10h76c5.523438 0 10-4.476562 10-10s-4.476562-10-10-10zm0 0"/><path d="m382 40h-76c-5.523438 0-10 4.476562-10 10s4.476562 10 10 10h76c5.523438 0 10-4.476562 10-10s-4.476562-10-10-10zm0 0"/><path d="m10 420c-5.523438 0-10 4.476562-10 10s4.476562 10 10 10h492c5.523438 0 10-4.476562 10-10s-4.476562-10-10-10h-10c0-8.558594 0-293.9375 0-310 0-16.542969-13.457031-30-30-30h-10v-50c0-16.542969-13.457031-30-30-30h-312c-16.542969 0-30 13.457031-30 30v50h-10c-16.542969 0-30 13.457031-30 30v37.640625l-38.945312 77.886719c-.660157 1.320312-1.054688 2.886718-1.054688 4.472656v20c0 15.777344 7.539062 30.597656 20 39.980469v130.019531zm25.007812-144.007812c-9.257812-5.355469-15.007812-15.3125-15.007812-25.992188v-10h60v10c0 16.542969-13.457031 30-30 30-5.269531 0-10.453125-1.386719-14.992188-4.007812zm116.164063-115.992188 7.5 60h-57.34375l7.5-60zm320.828125 100h-133.015625c.667969-3.28125 1.015625-6.628906 1.015625-10v-20c0-1.546875-.371094-3.105469-1.054688-4.472656l-32.765624-65.527344h165.820312zm-188.179688-100 30 60h-56.011718l-15-60zm-183.820312 80h60v10c0 16.542969-13.457031 30-30 30-15.625 0-28.765625-12.1875-29.914062-27.71875-.058594-.796875-.085938-1.5625-.085938-2.28125zm80 0h60v10c0 16.542969-13.457031 30-30 30s-30-13.457031-30-30zm42.191406-80 15 60h-58.363281l-7.5-60zm-122.191406 129.910156c8.402344 6.332032 18.816406 10.089844 30 10.089844 16.339844 0 30.871094-7.878906 40-20.035156 9.128906 12.15625 23.660156 20.035156 40 20.035156 11.246094 0 21.636719-3.734375 30-10.027344v70.027344h-140zm160-49.910156h60v10c0 5.269531-1.386719 10.453125-4.007812 14.992188-2.636719 4.5625-6.4375 8.363281-10.992188 10.996093-4.546875 2.625-9.730469 4.011719-15 4.011719-16.542969 0-30-13.457031-30-30zm156 180h-40v-80h40zm20 0v-90c0-5.523438-4.476562-10-10-10h-60c-5.523438 0-10 4.476562-10 10v90h-36v-130.015625c3.78125-2.839844 7.144531-6.203125 9.984375-9.984375h142.015625v140zm-336-390c0-5.515625 4.484375-10 10-10h312c5.515625 0 10 4.484375 10 10v50h-332zm-40 80c0-5.515625 4.484375-10 10-10h392c5.515625 0 10 4.484375 10 10v30h-412zm-3.820312 50h32.492187l-7.5 60h-54.992187zm-16.179688 138.984375c3.28125.667969 6.628906 1.015625 10 1.015625 11.246094 0 21.636719-3.734375 30-10.027344v80.027344c0 5.523438 4.476562 10 10 10h160c5.523438 0 10-4.476562 10-10v-80.027344c8.363281 6.292969 18.753906 10.027344 30 10.027344 3.371094 0 6.71875-.347656 10-1.015625v121.015625h-260zm0 0"/></svg>