<svg viewBox="0 0 512 512" xmlns="http://www.w3.org/2000/svg"><path d="m296 40c-5.519531 0-10 4.480469-10 10s4.480469 10 10 10 10-4.480469 10-10-4.480469-10-10-10zm0 0"/><path d="m492 387.71875v-211.71875c0-16.542969-13.457031-30-30-30h-66v-46h40c16.542969 0 30-13.457031 30-30v-40c0-16.542969-13.457031-30-30-30h-160c-16.542969 0-30 13.457031-30 30v40c0 16.542969 13.457031 30 30 30h40v46h-100v-56c0-5.523438-4.476562-10-10-10h-100c-5.523438 0-10 4.476562-10 10v56h-46c-16.542969 0-30 13.457031-30 30v211.71875c-11.640625 4.128906-20 15.246094-20 28.28125v66c0 16.542969 13.457031 30 30 30h452c16.542969 0 30-13.457031 30-30v-66c0-13.035156-8.359375-24.152344-20-28.28125zm-156-287.71875h40v46h-40zm-70-30v-40c0-5.515625 4.484375-10 10-10h160c5.515625 0 10 4.484375 10 10v40c0 5.515625-4.484375 10-10 10-18.207031 0-134.574219 0-160 0-5.515625 0-10-4.484375-10-10zm-150 30h80v186h-80zm-76 76c0-5.515625 4.484375-10 10-10h46v120c-5.523438 0-10 4.476562-10 10s4.476562 10 10 10h120c5.523438 0 10-4.476562 10-10s-4.476562-10-10-10v-120h246c5.515625 0 10 4.484375 10 10v210c-11.507812 0-420.492188 0-432 0zm146 230h140v26c0 5.515625-4.484375 10-10 10h-120c-5.515625 0-10-4.484375-10-10zm306 76c0 5.515625-4.484375 10-10 10h-452c-5.515625 0-10-4.484375-10-10v-66c0-5.515625 4.484375-10 10-10h136v26c0 16.542969 13.457031 30 30 30h120c16.542969 0 30-13.457031 30-30v-26h136c5.515625 0 10 4.484375 10 10zm0 0"/><path d="m276 286h140c5.523438 0 10-4.476562 10-10v-80c0-5.523438-4.476562-10-10-10h-140c-5.523438 0-10 4.476562-10 10v80c0 5.523438 4.476562 10 10 10zm10-80h120v60h-120zm0 0"/><path d="m416 306h-20c-5.523438 0-10 4.476562-10 10s4.476562 10 10 10h20c5.523438 0 10-4.476562 10-10s-4.476562-10-10-10zm0 0"/><path d="m356 306h-20c-5.523438 0-10 4.476562-10 10s4.476562 10 10 10h20c5.523438 0 10-4.476562 10-10s-4.476562-10-10-10zm0 0"/><path d="m276 326h20c5.523438 0 10-4.476562 10-10s-4.476562-10-10-10h-20c-5.523438 0-10 4.476562-10 10s4.476562 10 10 10zm0 0"/><path d="m416 346h-20c-5.523438 0-10 4.476562-10 10s4.476562 10 10 10h20c5.523438 0 10-4.476562 10-10s-4.476562-10-10-10zm0 0"/><path d="m356 346h-20c-5.523438 0-10 4.476562-10 10s4.476562 10 10 10h20c5.523438 0 10-4.476562 10-10s-4.476562-10-10-10zm0 0"/><path d="m276 366h20c5.523438 0 10-4.476562 10-10s-4.476562-10-10-10h-20c-5.523438 0-10 4.476562-10 10s4.476562 10 10 10zm0 0"/><path d="m226 336c0-5.523438-4.476562-10-10-10h-120c-5.523438 0-10 4.476562-10 10s4.476562 10 10 10h120c5.523438 0 10-4.476562 10-10zm0 0"/><path d="m336 60h80c5.523438 0 10-4.476562 10-10s-4.476562-10-10-10h-80c-5.523438 0-10 4.476562-10 10s4.476562 10 10 10zm0 0"/></svg>