<svg viewBox="0 -65 512.00082 512" xmlns="http://www.w3.org/2000/svg"><path d="m419 240c-5.519531 0-10 4.480469-10 10s4.480469 10 10 10 10-4.480469 10-10-4.480469-10-10-10zm0 0"/><path d="m379 240c-5.519531 0-10 4.480469-10 10s4.480469 10 10 10 10-4.480469 10-10-4.480469-10-10-10zm0 0"/><path d="m339 240c-5.519531 0-10 4.480469-10 10s4.480469 10 10 10 10-4.480469 10-10-4.480469-10-10-10zm0 0"/><path d="m73 220c-5.519531 0-10 4.480469-10 10s4.480469 10 10 10 10-4.480469 10-10-4.480469-10-10-10zm0 0"/><path d="m502 200h-33v-110c0-16.542969-13.457031-30-30-30h-10v-50c0-5.523438-4.476562-10-10-10s-10 4.476562-10 10v50h-10c-16.542969 0-30 13.457031-30 30v110h-20v-110c0-5.523438-4.476562-10-10-10-15.957031 0-85.667969 0-113 0v-50c0-5.523438-4.476562-10-10-10h-143c-5.523438 0-10 4.476562-10 10v50h-10c-5.523438 0-10 4.476562-10 10v70h-33c-5.523438 0-10 4.476562-10 10 0 41.160156 17.082031 82.132812 47.3125 114.574219-4.0625 2.253906-7.941406 5.050781-11.550781 8.34375-7.285157 6.644531-18.25 9.714843-25.890625 9.8125-5.519532.070312-9.9414065 4.605469-9.871094 10.125.0703125 5.523437 4.597656 9.980469 10.125 9.875 13.941406-.179688 29.292969-6.078125 39.117188-15.035157 14.765624-13.488281 32.640624-12.648437 46.519531.003907 10.632812 9.695312 24.214843 15.039062 38.238281 15.039062s27.605469-5.34375 38.238281-15.039062c14.347657-13.085938 32.175781-13.082031 46.523438 0 10.632812 9.695312 24.214843 15.039062 38.238281 15.039062s27.601562-5.34375 38.238281-15.039062c14.347657-13.085938 32.171875-13.082031 46.523438 0 21.972656 20.042969 51.5 20.039062 73.472656 0 14.351563-13.085938 32.242187-13.039063 46.527344.003906 10.226562 9.316406 26.0625 15.222656 40.367187 15.027344 5.523438-.074219 9.941406-4.609375 9.867188-10.132813-.070313-5.519531-4.613282-9.9375-10.128906-9.867187-7.011719.125-16.835938-2.332031-24.265626-7.878907 22.257813-25.023437 34.398438-54.785156 34.398438-84.851562 0-5.523438-4.476562-10-10-10zm-113-80h60v80h-60zm10-40h40c5.515625 0 10 4.488281 10 10v10h-60v-10c0-5.511719 4.488281-10 10-10zm-70 120h-83v-100h83zm-246-160h123v40h-123zm-20 60h163v100h-23.820312l-17.234376-34.472656c-1.695312-3.386719-5.15625-5.527344-8.945312-5.527344h-113zm398.121094 183.253906c-19.558594-9.515625-42.085938-6.082031-59.359375 9.667969-14.347657 13.082031-32.175781 13.082031-46.523438 0-21.972656-20.039063-51.5-20.039063-73.476562 0-14.347657 13.082031-35.175781 13.082031-49.523438 0-21.972656-20.039063-51.5-20.039063-73.476562 0-14.347657 13.082031-35.175781 13.085937-49.523438 0-11.808593-10.765625-25.945312-15.941406-40.304687-14.894531-28.496094-27.234375-45.804688-62.300782-48.546875-98.027344h149.433593l17.238282 34.472656c1.691406 3.390625 5.15625 5.429688 8.941406 5.429688h295.433594c-2.503906 22.191406-13.1875 44.632812-30.3125 63.351562zm0 0"/><path d="m419 140c-5.523438 0-10 4.476562-10 10v20c0 5.523438 4.476562 10 10 10s10-4.476562 10-10v-20c0-5.523438-4.476562-10-10-10zm0 0"/><path d="m156 220h-43c-5.523438 0-10 4.476562-10 10s4.476562 10 10 10h43c5.523438 0 10-4.476562 10-10s-4.476562-10-10-10zm0 0"/><path d="m502.132812 382.730469c5.519532-.070313 9.9375-4.609375 9.867188-10.132813-.070312-5.476562-4.535156-9.867187-9.996094-9.867187-.042968 0-.089844 0-.132812 0-7.785156.132812-19.039063-2.890625-26.632813-9.808594-21.972656-20.039063-51.5-20.039063-73.476562 0-14.347657 13.082031-32.175781 13.082031-46.523438 0-21.972656-20.039063-51.5-20.039063-73.476562 0-14.347657 13.082031-35.175781 13.082031-49.523438 0-21.972656-20.039063-51.5-20.039063-73.476562 0-14.347657 13.082031-35.175781 13.082031-49.523438 0-21.972656-20.039063-51.5-20.039063-73.472656 0-7.289063 6.640625-18.253906 9.710937-25.890625 9.808594-5.523438.070312-9.9414062 4.605469-9.875 10.128906.0703125 5.519531 4.597656 9.925781 10.128906 9.871094 13.9375-.175781 29.289063-6.078125 39.109375-15.03125 14.347657-13.082031 32.175781-13.082031 46.523438 0 10.632812 9.699219 24.214843 15.039062 38.238281 15.039062s27.605469-5.339843 38.238281-15.039062c14.347657-13.082031 32.175781-13.082031 46.523438 0 10.632812 9.699219 24.214843 15.039062 38.238281 15.039062s27.601562-5.339843 38.238281-15.039062c14.347657-13.082031 32.171875-13.082031 46.523438 0 21.972656 20.042969 51.5 20.039062 73.476562 0 14.347657-13.082031 32.175781-13.085938 46.523438.003906 10.230469 9.316406 26.066406 15.253906 40.371093 15.027344zm0 0"/></svg>