<svg viewBox="0 -46 512 512" xmlns="http://www.w3.org/2000/svg"><path d="m326 200h-140c-5.523438 0-10 4.476562-10 10v120c0 16.542969 13.457031 30 30 30h100c16.542969 0 30-13.457031 30-30v-120c0-5.523438-4.476562-10-10-10zm-10 130c0 5.515625-4.484375 10-10 10h-100c-5.515625 0-10-4.484375-10-10v-110h120zm0 0"/><path d="m254.851562 301.691406h2.296876c21.421874 0 38.851562-17.425781 38.851562-38.84375v-12.847656c0-5.523438-4.476562-10-10-10s-10 4.476562-10 10v12.851562c0 10.386719-8.457031 18.839844-18.851562 18.839844h-2.296876c-10.394531 0-18.851562-8.453125-18.851562-18.839844v-12.851562c0-5.523438-4.476562-10-10-10s-10 4.476562-10 10v12.851562c0 21.414063 17.429688 38.839844 38.851562 38.839844zm0 0"/><path d="m482 0h-452c-16.574219 0-30 13.425781-30 30 0 16.542969 13.457031 29.898438 30 29.898438h35.382812c-3.417968 5.890624-5.382812 12.820312-5.382812 20.101562 0 18.605469 12.765625 34.28125 30 38.734375v21.265625h-20c-5.523438 0-10 4.476562-10 10 0 16.542969-13.457031 30-30 30-5.523438 0-10 4.476562-10 10v180c0 5.523438 4.476562 10 10 10 16.542969 0 30 13.457031 30 30 0 5.523438 4.476562 10 10 10h372c5.523438 0 10-4.476562 10-10 0-16.542969 13.457031-30 30-30 5.523438 0 10-4.476562 10-10v-180c0-5.523438-4.476562-10-10-10-16.542969 0-30-13.457031-30-30 0-5.523438-4.476562-10-10-10h-20v-21.265625c17.234375-4.453125 30-20.128906 30-38.734375 0-7.28125-1.964844-14.113281-5.382812-20h35.382812c16.574219 0 30-13.425781 30-30 0-16.542969-13.457031-30-30-30zm-402 80c0-11.027344 8.972656-20 20-20s20 8.972656 20 20c0 7.382812-4.03125 13.828125-10 17.292969v-7.292969c0-5.523438-4.476562-10-10-10s-10 4.476562-10 10v7.292969c-5.96875-3.464844-10-9.910157-10-17.292969zm392 118.996094v162.007812c-19.5625 3.988282-35.007812 19.433594-38.996094 38.996094h-354.007812c-3.988282-19.5625-19.433594-35.007812-38.996094-38.996094v-162.007812c19.5625-3.988282 35.007812-19.433594 38.996094-38.996094h354.007812c3.988282 19.5625 19.433594 35.007812 38.996094 38.996094zm-362-58.996094v-21.265625c17.234375-4.453125 30-20.128906 30-38.734375 0-7.28125-1.964844-14.210938-5.382812-20.101562h242.765624c-3.417968 5.890624-5.382812 12.820312-5.382812 20.101562 0 18.605469 12.765625 34.28125 30 38.734375v21.265625zm322-60c0 7.382812-4.03125 13.828125-10 17.292969v-7.292969c0-5.523438-4.476562-10-10-10s-10 4.476562-10 10v7.292969c-5.96875-3.464844-10-9.910157-10-17.292969 0-11.027344 8.972656-20 20-20s20 8.972656 20 20zm50-40h-452c-5.515625 0-10-4.484375-10-10 0-5.519531 4.480469-10 10-10h452c5.515625 0 10 4.484375 10 10 0 5.519531-4.480469 10-10 10zm0 0"/><path d="m422 200c5.519531 0 10 4.480469 10 10s-4.480469 10-10 10-10-4.480469-10-10 4.480469-10 10-10zm0 0"/><path d="m90 200c5.519531 0 10 4.480469 10 10s-4.480469 10-10 10-10-4.480469-10-10 4.480469-10 10-10zm0 0"/><path d="m90 360c-5.523438 0-10-4.476562-10-10v-101c0-5.523438 4.476562-10 10-10s10 4.476562 10 10v101c0 5.523438-4.476562 10-10 10zm0 0"/><path d="m422 360c-5.523438 0-10-4.476562-10-10v-101c0-5.523438 4.476562-10 10-10s10 4.476562 10 10v101c0 5.523438-4.476562 10-10 10zm0 0"/></svg>