<svg viewBox="0 0 512 512" xmlns="http://www.w3.org/2000/svg"><path d="m376 146c0-5.519531-4.480469-10-10-10s-10 4.480469-10 10 4.480469 10 10 10 10-4.480469 10-10zm0 0"/><path d="m256 0c-137.929688 0-256 117.71875-256 256 0 138.011719 117.816406 256 256 256 138.011719 0 256-117.816406 256-256 0-138.046875-117.859375-256-256-256zm0 492c-127.925781 0-236-108.074219-236-236s108.074219-236 236-236 236 108.074219 236 236-108.074219 236-236 236zm0 0"/><path d="m256 43c-115.726562 0-213 97.101562-213 213 0 115.609375 96.960938 213 213 213 115.726562 0 213-97.101562 213-213s-97.246094-213-213-213zm0 406c-104.617188 0-193-88.382812-193-193s88.382812-193 193-193 193 88.382812 193 193-88.382812 193-193 193zm0 0"/><path d="m385.214844 179.789062c34.75 58.9375 25.230468 133.894532-23.144532 182.28125-3.90625 3.902344-3.90625 10.234376 0 14.140626 3.902344 3.902343 10.234376 3.90625 14.140626 0 54.828124-54.839844 65.617187-139.785157 26.234374-206.578126-2.804687-4.761718-8.933593-6.347656-13.691406-3.535156-4.761718 2.800782-6.34375 8.933594-3.539062 13.691406zm0 0"/><path d="m256 106c-22.097656 0-40 17.898438-40 40 0 22.054688 17.945312 40 40 40 22.097656 0 40-17.898438 40-40 0-22.097656-17.898438-40-40-40zm0 60c-11.027344 0-20-8.972656-20-20 0-11.046875 8.953125-20 20-20s20 8.953125 20 20-8.953125 20-20 20zm0 0"/><path d="m266 206h-20c-16.542969 0-30 13.457031-30 30v140c0 16.542969 13.457031 30 30 30h20c16.542969 0 30-13.457031 30-30v-140c0-16.542969-13.457031-30-30-30zm10 170c0 5.515625-4.484375 10-10 10h-20c-5.515625 0-10-4.484375-10-10v-140c0-5.515625 4.484375-10 10-10h20c5.515625 0 10 4.484375 10 10zm0 0"/></svg>