<svg viewBox="-13 0 511 512" xmlns="http://www.w3.org/2000/svg"><path d="m302.785156 260c-5.519531 0-10 4.480469-10 10s4.480469 10 10 10c5.519532 0 10-4.480469 10-10s-4.480468-10-10-10zm0 0"/><path d="m292.785156 240c16.542969 0 30-13.457031 30-30v-120c0-5.523438-4.476562-10-10-10h-140c-5.523437 0-10 4.476562-10 10v120c0 16.542969 13.457032 30 30 30zm-110-30v-110h120v110c0 5.515625-4.484375 10-10 10h-100c-5.511718 0-10-4.484375-10-10zm0 0"/><path d="m241.636719 180h2.300781c21.421875 0 38.847656-17.429688 38.847656-38.851562v-11.148438c0-5.523438-4.476562-10-10-10-5.523437 0-10 4.476562-10 10v11.148438c0 10.394531-8.457031 18.851562-18.847656 18.851562h-2.300781c-10.394531 0-18.851563-8.457031-18.851563-18.851562v-11.148438c0-5.523438-4.476562-10-10-10-5.523437 0-10 4.476562-10 10v11.148438c0 21.421874 17.429688 38.851562 38.851563 38.851562zm0 0"/><path d="m77.207031 300c-12.941406 0-24.382812 8.246094-28.46875 20.519531-.023437.074219-.050781.152344-.070312.226563l-46.640625 151.898437c-3.027344 9.222657-1.511719 19.019531 4.171875 26.902344 5.707031 7.914063 14.578125 12.453125 24.335937 12.453125h424.5c9.757813 0 18.628906-4.539062 24.335938-12.453125 5.683594-7.882813 7.203125-17.679687 4.175781-26.902344l-46.640625-151.898437c-.023438-.074219-.046875-.148438-.070312-.226563-4.089844-12.273437-15.527344-20.519531-28.46875-20.519531-12.554688 0-49.046876 0-67.4375 0l32.671874-47.847656c19.09375-27.0625 29.183594-58.925782 29.183594-92.152344 0-88.226562-71.773437-160-160-160-88.222656 0-160 71.773438-160 160 0 33.226562 10.09375 65.089844 29.1875 92.152344l32.667969 47.847656c-18.246094 0-54.78125 0-67.433594 0zm81.089844 20 72.378906 106h-130.421875l33.125-106zm247.648437 172h-326.316406l14.375-46h297.566406zm-383.523437-4.152344c-1.902344-2.640625-2.40625-5.921875-1.378906-9.007812.023437-.074219.050781-.148438.070312-.226563l46.632813-151.867187c1.386718-4.039063 5.175781-6.746094 9.457031-6.746094h35.21875l-53.75 172h-28.136719c-3.253906 0-6.210937-1.515625-8.113281-4.152344zm395.40625-161.101562 46.628906 151.867187c.023438.074219.046875.148438.070313.226563 1.027344 3.085937.527344 6.367187-1.378906 9.007812-1.902344 2.640625-4.859376 4.152344-8.113282 4.152344h-28.136718l-53.75-172h35.21875c4.28125 0 8.070312 2.707031 9.460937 6.746094zm-65.632813-6.746094 33.125 106h-130.425781l72.378907-106zm-223.839843-79.316406c-16.726563-23.6875-25.570313-51.585938-25.570313-80.683594 0-77.195312 62.804688-140 140-140 77.195313 0 140 62.804688 140 140 0 29.097656-8.839844 56.996094-25.566406 80.683594-.03125.042968-.0625.085937-.089844.128906l-114.34375 167.453125c-4.765625-6.976563-109.566406-160.460937-114.339844-167.453125-.03125-.042969-.058593-.085938-.089843-.128906zm0 0"/><path d="m283.078125 292.71875c-4.671875-2.941406-10.847656-1.542969-13.792969 3.132812l-34.960937 55.488282c-2.941407 4.671875-1.542969 10.847656 3.128906 13.792968 4.644531 2.921876 10.832031 1.566407 13.792969-3.132812l34.960937-55.488281c2.945313-4.675781 1.542969-10.847657-3.128906-13.792969zm0 0"/></svg>