<svg viewBox="-76 0 512 512.00085" xmlns="http://www.w3.org/2000/svg"><path d="m110.289062 120c5.519532 0 10-4.480469 10-10s-4.480468-10-10-10c-5.519531 0-10 4.480469-10 10s4.480469 10 10 10zm0 0"/><path d="m360.582031 180.289062c0-18.429687-9.65625-35.25-24.882812-44.699218 2.371093-6.058594 3.601562-12.539063 3.601562-19.160156 0-25.800782-18.558593-47.382813-43.386719-51.765626-4.359374-24.617187-25.914062-43.375-51.761718-43.375-6.625 0-13.105469 1.226563-19.160156 3.597657-9.449219-15.230469-26.269532-24.886719-44.703126-24.886719-18.429687 0-35.253906 9.65625-44.699218 24.886719-6.058594-2.371094-12.535156-3.597657-19.160156-3.597657-14.066407 0-27.28125 5.484376-37.203126 15.441407-7.691406 7.71875-12.6875 17.402343-14.507812 27.917969-10.554688 1.839843-20.273438 6.859374-28.011719 14.582031-9.949219 9.933593-15.425781 23.144531-15.425781 37.199219 0 6.621093 1.226562 13.101562 3.601562 19.160156-15.226562 9.445312-24.882812 26.269531-24.882812 44.699218 0 18.4375 9.65625 35.261719 24.882812 44.707032-2.375 6.0625-3.601562 12.535156-3.601562 19.152344 0 25.851562 18.746094 47.40625 43.359375 51.773437 2.683594 15.335937 12.035156 28.671875 25.648437 36.4375v169.640625c0 4.046875 2.4375 7.691406 6.171876 9.238281 3.738281 1.546875 8.039062.691407 10.898437-2.167969l72.929687-72.925781 72.929688 72.925781c2.863281 2.863282 7.160156 3.714844 10.898438 2.167969 3.734374-1.546875 6.171874-5.191406 6.171874-9.238281v-169.652344c13.59375-7.761718 22.878907-21.082031 25.480469-36.386718 10.5625-1.824219 20.292969-6.828126 28.046875-14.546876 9.984375-9.941406 15.484375-23.175781 15.484375-37.265624 0-6.617188-1.230469-13.09375-3.601562-19.152344 15.226562-9.445313 24.882812-26.269532 24.882812-44.707032zm-250.292969 158.644532c2.027344.234375 4.074219.367187 6.140626.367187 4.730468 0 9.378906-.636719 13.859374-1.859375v120.417969l-20 20zm62.929688 75.996094-22.929688 22.925781v-86.710938c8.585938 5.996094 18.980469 9.445313 30 9.445313 10.957032 0 21.371094-3.441406 30-9.433594v86.703125l-22.925781-22.929687c-3.90625-3.90625-10.238281-3.90625-14.144531 0zm57.070312 42.925781v-120.414063c4.484376 1.222656 9.136719 1.859375 13.863282 1.859375 2.0625 0 4.109375-.132812 6.136718-.371093v138.929687zm88.507813-246.808594c-2.917969 1.023437-5.199219 3.339844-6.175781 6.277344-.976563 2.933593-.539063 6.15625 1.183594 8.726562 3.597656 5.359375 5.496093 11.617188 5.496093 18.101563 0 8.730468-3.40625 16.929687-9.59375 23.085937-6.15625 6.125-14.316406 9.492188-22.996093 9.492188-.066407 0-.128907 0-.199219 0-2.660157 0-5.210938 1.058593-7.089844 2.945312-1.886719 1.894531-2.933594 4.46875-2.910156 7.144531.117187 13.222657-7.738281 25.019532-20.015625 30.058594-.003906 0-.003906 0-.003906 0-3.914063 1.605469-8.066407 2.421875-12.339844 2.421875-6.488282 0-12.753906-1.898437-18.121094-5.492187-1.421875-.949219-3.046875-1.492188-4.710938-1.632813-.007812-.003906-.015624-.003906-.023437-.003906-.261719-.023437-.523437-.039063-.785156-.039063-.074219-.003906-.144531-.011718-.21875-.011718-4.867188 0-8.917969 3.476562-9.8125 8.082031-4.9375 12.234375-16.917969 20.386719-30.1875 20.386719-13.746094 0-25.925781-8.609375-30.425781-21.445313-.359376-1.199219-.9375-2.296875-1.691407-3.257812-.003906-.003907-.007812-.011719-.015625-.019531-.199218-.253907-.40625-.496094-.628906-.726563-.03125-.03125-.058594-.066406-.085938-.097656-.191406-.195313-.394531-.378907-.601562-.554688-.0625-.054687-.121094-.117187-.1875-.171875-.0625-.050781-.132812-.097656-.199219-.148437-1.042969-.824219-2.246093-1.449219-3.558593-1.804688-2.8125-.765625-5.816407-.265625-8.230469 1.363281-5.386719 3.648438-11.695313 5.574219-18.238281 5.574219-4.28125 0-8.4375-.8125-12.347657-2.414062-12.304687-5.042969-20.246093-16.875-20.230469-30.144531.003907-2.652344-1.050781-5.199219-2.925781-7.078126-1.875-1.878906-4.421875-2.933593-7.074219-2.933593-17.960937 0-32.570312-14.613281-32.570312-32.578125 0-6.480469 1.902344-12.742188 5.496094-18.101563 1.722656-2.570312 2.160156-5.792969 1.183594-8.726562-.976563-2.9375-3.257813-5.253907-6.175782-6.277344-13.027344-4.574219-21.78125-16.933594-21.78125-30.757813 0-13.816406 8.75-26.171874 21.78125-30.742187 2.917969-1.023437 5.199219-3.34375 6.175782-6.277344.976562-2.9375.539062-6.160156-1.183594-8.730469-3.59375-5.359374-5.496094-11.621093-5.496094-18.109374 0-8.707032 3.394531-16.890626 9.558594-23.042969 6.15625-6.144531 14.332031-9.527344 23.027344-9.527344h.074218c2.65625 0 5.203125-1.054687 7.078125-2.933594 1.878907-1.882812 2.933594-4.4375 2.921875-7.101562-.027344-8.671875 3.328125-16.832031 9.449219-22.976563 6.144531-6.164062 14.328125-9.558594 23.039063-9.558594 6.5 0 12.761718 1.894532 18.113281 5.484376 2.566406 1.722656 5.789062 2.160156 8.726562 1.183593 2.9375-.976562 5.253907-3.257812 6.277344-6.175781 4.574219-13.027344 16.925781-21.78125 30.742187-21.78125 13.816407 0 26.171876 8.753906 30.746094 21.78125 1.023438 2.917969 3.34375 5.199219 6.277344 6.175781 2.9375.976563 6.15625.539063 8.726562-1.183593 5.351563-3.585938 11.613282-5.484376 18.113282-5.484376 17.957031 0 32.566406 14.613282 32.566406 32.570313 0 5.523437 4.480469 10 10 10 18.09375 0 32.582031 14.617187 32.582031 32.570313 0 6.484374-1.902343 12.75-5.496093 18.109374-1.722657 2.570313-2.160157 5.792969-1.183594 8.730469.976562 2.933594 3.257812 5.25 6.175781 6.277344 13.03125 4.570313 21.78125 16.925781 21.78125 30.742187.003906 13.824219-8.75 26.183594-21.78125 30.757813zm0 0"/><path d="m180.289062 70c-14.109374 0-27.871093 2.644531-40.902343 7.855469-5.128907 2.050781-7.621094 7.871093-5.570313 12.996093 2.050782 5.128907 7.871094 7.621094 12.996094 5.574219 10.660156-4.265625 21.921875-6.425781 33.476562-6.425781 49.628907 0 90 40.375 90 90s-40.371093 90-90 90c-49.625 0-90-40.375-90-90 0-11.554688 2.164063-22.816406 6.425782-33.476562 2.050781-5.128907-.441406-10.949219-5.570313-13-5.128906-2.046876-10.945312.441406-13 5.570312-5.210937 13.035156-7.855469 26.796875-7.855469 40.90625 0 60.652344 49.347657 110 110 110 60.65625 0 110-49.347656 110-110s-49.34375-110-110-110zm0 0"/><path d="m230.289062 180c0 5.523438 4.480469 10 10 10 5.523438 0 10-4.476562 10-10 0-38.597656-31.402343-70-70-70-5.519531 0-10 4.476562-10 10s4.480469 10 10 10c27.570313 0 50 22.429688 50 50zm0 0"/></svg>