<svg viewBox="0 -46 512.00038 512" xmlns="http://www.w3.org/2000/svg"><path d="m486.609375 286.605469c-.046875-.023438-.09375-.050781-.144531-.078125l-190.445313-103.546875v-22.914063c0-18.609375-12.773437-34.292968-30.015625-38.75v-22.277344c22.804688-4.648437 40.019532-24.863281 40.019532-49.015624 0-27.582032-22.441407-50.023438-50.023438-50.023438-24.496094 0-45.753906 18.238281-49.445312 42.417969-.835938 5.464843 2.917968 10.566406 8.378906 11.402343 5.464844.835938 10.566406-2.917968 11.402344-8.382812 2.210937-14.496094 14.964843-25.429688 29.664062-25.429688 16.550781 0 30.011719 13.464844 30.011719 30.015626 0 16.546874-13.460938 30.011718-30.011719 30.011718-5.523438 0-10.003906 4.480469-10.003906 10.003906v31.277344c-17.238282 4.457032-30.011719 20.140625-30.011719 38.75v22.914063l-190.449219 103.546875c-.046875.027344-.097656.054687-.144531.078125-19.761719 11.175781-29.523437 34.316406-23.738281 56.28125 4.726562 17.925781 18.867187 31.433593 36.253906 35.78125v11.5c0 16.546875 13.464844 30.011719 30.011719 30.011719h48.023437c5.523438 0 10.003906-4.480469 10.003906-10.003907 0-5.523437-4.480468-10.003906-10.003906-10.003906h-48.023437c-5.515625 0-10.003907-4.488281-10.003907-10.003906v-10.007813h396.171876v10.007813c0 5.515625-4.488282 10.003906-10.007813 10.003906h-48.019531c-5.523438 0-10.003906 4.480469-10.003906 10.003906 0 5.523438 4.480468 10.003907 10.003906 10.003907h48.019531c16.550781 0 30.015625-13.464844 30.015625-30.011719v-11.5c17.386719-4.347657 31.527344-17.855469 36.253906-35.785157 5.785156-21.960937-3.976562-45.101562-23.738281-56.277343zm-230.609375-146.546875c11.035156 0 20.007812 8.976562 20.007812 20.007812v12.273438c-6.292968-2.742188-13.113281-4.195313-20.007812-4.195313s-13.714844 1.453125-20.007812 4.195313v-12.273438c0-11.03125 8.976562-20.007812 20.007812-20.007812zm235 197.726562c-3.472656 13.171875-15.40625 22.367188-29.023438 22.367188h-411.953124c-13.617188 0-25.550782-9.195313-29.023438-22.363282-3.464844-13.152343 2.363281-27.011718 14.171875-33.726562l195.753906-106.433594 10.144531-5.511718c.046876-.023438.097657-.054688.144532-.082032 4.496094-2.539062 9.609375-3.886718 14.785156-3.886718s10.285156 1.347656 14.785156 3.886718c.046875.027344.097656.058594.144532.082032l205.898437 111.945312c11.808594 6.714844 17.636719 20.570312 14.171875 33.722656zm0 0"/><path d="m466.757812 321.351562-205.980468-111.976562c-2.980469-1.621094-6.574219-1.621094-9.554688 0l-205.976562 111.976562c-4.023438 2.183594-6.046875 6.820313-4.917969 11.253907 1.128906 4.433593 5.117187 7.539062 9.695313 7.539062h165.960937c5.523437 0 10.003906-4.480469 10.003906-10.003906s-4.480469-10.003906-10.003906-10.003906h-126.613281l166.628906-90.585938 166.628906 90.585938h-126.609375c-5.527343 0-10.007812 4.480469-10.007812 10.003906s4.480469 10.003906 10.007812 10.003906h165.957031c4.578126 0 8.570313-3.105469 9.695313-7.539062 1.128906-4.433594-.894531-9.070313-4.914063-11.253907zm0 0"/><path d="m256 320.136719c-5.523438 0-10.003906 4.480469-10.003906 10.003906s4.480468 10.003906 10.003906 10.003906 10.003906-4.480469 10.003906-10.003906-4.480468-10.003906-10.003906-10.003906zm0 0"/></svg>