<svg viewBox="-45 1 511 511.99888" xmlns="http://www.w3.org/2000/svg"><path d="m210.398438 292c5.519531 0 10-4.480469 10-10s-4.480469-10-10-10c-5.519532 0-10 4.480469-10 10s4.480468 10 10 10zm0 0"/><path d="m204.6875 510.136719c1.738281 1.242187 3.773438 1.863281 5.8125 1.863281s4.074219-.621094 5.8125-1.863281c101.886719-72.777344 204.1875-104.710938 204.1875-254.457031v-185.390626c0-5.199218-3.988281-9.53125-9.167969-9.964843l-25.992187-2.171875c-59.589844-4.964844-118.214844-24.550782-169.539063-56.632813-3.242187-2.027343-7.359375-2.027343-10.601562 0-51.328125 32.082031-109.953125 51.667969-169.542969 56.636719l-25.988281 2.167969c-5.183594.433593-9.167969 4.765625-9.167969 9.964843v185.390626c0 153.96875 116.667969 191.941406 204.1875 254.457031zm-184.1875-430.648438 16.820312-1.402343c60.707032-5.0625 120.441407-24.515626 173.179688-56.351563 52.734375 31.835937 112.472656 51.289063 173.175781 56.351563l16.824219 1.402343v176.191407c0 135.027343-89.972656 164-190.015625 234.082031-87.800781-60.945313-189.984375-95.53125-189.984375-234.082031zm0 0"/><path d="m204.671875 437.449219c3.632813 2.480469 8.207031 2.300781 11.65625-.261719 90.527344-62.660156 144.171875-83.277344 144.171875-181.496094v-131.160156c0-4.949219-3.621094-9.15625-8.515625-9.890625-47.859375-7.191406-93.917969-22.085937-136.898437-44.269531-3.09375-1.597656-6.777344-1.394532-9.613282.222656-42.859375 22.066406-88.769531 36.886719-136.457031 44.046875-4.894531.734375-8.515625 4.9375-8.515625 9.890625v131.160156c0 99.144532 58.753906 123.476563 144.171875 181.757813zm-124.171875-304.390625c41.589844-7.035156 81.808594-19.6875 119.898438-37.675782v146.617188c0 5.523438 4.476562 10 10 10 5.523437 0 10-4.476562 10-10v-146.710938c38.144531 18.03125 78.4375 30.71875 120.101562 37.769532v122.632812c0 81.289063-38.078125 99.011719-120.101562 154.484375v-88.175781c0-5.523438-4.476563-10-10-10-5.523438 0-10 4.476562-10 10v88.464844c-76.636719-51.015625-119.898438-72.816406-119.898438-154.773438zm0 0"/></svg>