<svg viewBox="0 0 512 512" xmlns="http://www.w3.org/2000/svg"><path d="m482 0c-12.753906 0-439.253906 0-452 0-16.542969 0-30 13.457031-30 30v452c0 16.542969 13.457031 30 30 30h452c16.542969 0 30-13.457031 30-30 0-12.753906 0-439.253906 0-452 0-16.542969-13.457031-30-30-30zm10 30v216h-226v-226h216c5.515625 0 10 4.484375 10 10zm-462-10h216v226h-226v-216c0-5.515625 4.484375-10 10-10zm-10 462v-216h226v226h-216c-5.515625 0-10-4.484375-10-10zm472 0c0 5.515625-4.484375 10-10 10h-216v-226h226zm0 0"/><path d="m70 366c-16.542969 0-30 13.457031-30 30 0 13.035156 8.359375 24.152344 20 28.28125v11.71875c0 5.523438 4.476562 10 10 10s10-4.476562 10-10v-11.71875c11.640625-4.128906 20-15.246094 20-28.28125 0-16.542969-13.457031-30-30-30zm0 40c-5.515625 0-10-4.484375-10-10s4.484375-10 10-10 10 4.484375 10 10-4.484375 10-10 10zm0 0"/><path d="m170 306h46c5.523438 0 10-4.476562 10-10s-4.476562-10-10-10h-46c-5.523438 0-10 4.476562-10 10s4.476562 10 10 10zm0 0"/><path d="m216 326h-46c-5.523438 0-10 4.476562-10 10s4.476562 10 10 10h46c5.523438 0 10-4.476562 10-10s-4.476562-10-10-10zm0 0"/><path d="m216 366h-46c-5.523438 0-10 4.476562-10 10s4.476562 10 10 10h46c5.523438 0 10-4.476562 10-10s-4.476562-10-10-10zm0 0"/><path d="m306 424.28125v11.71875c0 5.523438 4.476562 10 10 10s10-4.476562 10-10v-11.71875c11.640625-4.128906 20-15.246094 20-28.28125 0-16.542969-13.457031-30-30-30s-30 13.457031-30 30c0 13.035156 8.359375 24.152344 20 28.28125zm10-38.28125c5.515625 0 10 4.484375 10 10s-4.484375 10-10 10-10-4.484375-10-10 4.484375-10 10-10zm0 0"/><path d="m416 306h46c5.523438 0 10-4.476562 10-10s-4.476562-10-10-10h-46c-5.523438 0-10 4.476562-10 10s4.476562 10 10 10zm0 0"/><path d="m416 346h46c5.523438 0 10-4.476562 10-10s-4.476562-10-10-10h-46c-5.523438 0-10 4.476562-10 10s4.476562 10 10 10zm0 0"/><path d="m416 386h46c5.523438 0 10-4.476562 10-10s-4.476562-10-10-10h-46c-5.523438 0-10 4.476562-10 10s4.476562 10 10 10zm0 0"/><path d="m306 178.28125v11.71875c0 5.523438 4.476562 10 10 10s10-4.476562 10-10v-11.71875c11.640625-4.128906 20-15.246094 20-28.28125 0-16.542969-13.457031-30-30-30s-30 13.457031-30 30c0 13.035156 8.359375 24.152344 20 28.28125zm10-38.28125c5.515625 0 10 4.484375 10 10s-4.484375 10-10 10-10-4.484375-10-10 4.484375-10 10-10zm0 0"/><path d="m416 60h46c5.523438 0 10-4.476562 10-10s-4.476562-10-10-10h-46c-5.523438 0-10 4.476562-10 10s4.476562 10 10 10zm0 0"/><path d="m416 100h46c5.523438 0 10-4.476562 10-10s-4.476562-10-10-10h-46c-5.523438 0-10 4.476562-10 10s4.476562 10 10 10zm0 0"/><path d="m416 140h46c5.523438 0 10-4.476562 10-10s-4.476562-10-10-10h-46c-5.523438 0-10 4.476562-10 10s4.476562 10 10 10zm0 0"/><path d="m60 178.28125v11.71875c0 5.523438 4.476562 10 10 10s10-4.476562 10-10v-11.71875c11.640625-4.128906 20-15.246094 20-28.28125 0-16.542969-13.457031-30-30-30s-30 13.457031-30 30c0 13.035156 8.359375 24.152344 20 28.28125zm10-38.28125c5.515625 0 10 4.484375 10 10s-4.484375 10-10 10-10-4.484375-10-10 4.484375-10 10-10zm0 0"/><path d="m170 60h46c5.523438 0 10-4.476562 10-10s-4.476562-10-10-10h-46c-5.523438 0-10 4.476562-10 10s4.476562 10 10 10zm0 0"/><path d="m130 40c5.519531 0 10 4.480469 10 10s-4.480469 10-10 10-10-4.480469-10-10 4.480469-10 10-10zm0 0"/><path d="m170 100h46c5.523438 0 10-4.476562 10-10s-4.476562-10-10-10h-46c-5.523438 0-10 4.476562-10 10s4.476562 10 10 10zm0 0"/><path d="m170 140h46c5.523438 0 10-4.476562 10-10s-4.476562-10-10-10h-46c-5.523438 0-10 4.476562-10 10s4.476562 10 10 10zm0 0"/><path d="m376 40c5.519531 0 10 4.480469 10 10s-4.480469 10-10 10-10-4.480469-10-10 4.480469-10 10-10zm0 0"/><path d="m376 286c5.519531 0 10 4.480469 10 10s-4.480469 10-10 10-10-4.480469-10-10 4.480469-10 10-10zm0 0"/><path d="m130 286c5.519531 0 10 4.480469 10 10s-4.480469 10-10 10-10-4.480469-10-10 4.480469-10 10-10zm0 0"/></svg>