<svg viewBox="0 0 512 512" xmlns="http://www.w3.org/2000/svg"><path d="m306 462c0 5.519531 4.480469 10 10 10s10-4.480469 10-10-4.480469-10-10-10-10 4.480469-10 10zm0 0"/><path d="m276 452h-80c-5.523438 0-10 4.476562-10 10s4.476562 10 10 10h80c5.523438 0 10-4.476562 10-10s-4.476562-10-10-10zm0 0"/><path d="m511.964844 289.335938c-.015625-.265626-.042969-.527344-.082032-.785157-.015624-.117187-.03125-.230469-.050781-.34375-.0625-.34375-.140625-.675781-.234375-1.003906-.011718-.035156-.019531-.066406-.027344-.101563-.117187-.378906-.253906-.75-.414062-1.113281-.007812-.015625-.011719-.035156-.019531-.050781l-77.210938-173.722656 35.144531-35.144532c3.90625-3.90625 3.90625-10.234374 0-14.140624s-10.234374-3.90625-14.140624 0l-35.523438 35.523437-114.007812-40.753906c.390624-2.535157.601562-5.105469.601562-7.699219 0-27.570312-22.429688-50-50-50s-50 22.429688-50 50c0 2.59375.210938 5.164062.601562 7.699219l-114.007812 40.753906-35.523438-35.523437c-3.90625-3.90625-10.234374-3.90625-14.140624 0s-3.90625 10.234374 0 14.140624l35.140624 35.144532-77.207031 173.722656c-.007812.015625-.011719.035156-.019531.050781-.160156.359375-.296875.730469-.414062 1.113281-.007813.035157-.015626.066407-.027344.097657-.09375.328125-.171875.664062-.234375 1.003906-.019531.117187-.035157.230469-.050781.34375-.039063.261719-.0664068.519531-.0820318.785156-.0117187.136719-.0195312.273438-.0234374.410157 0 .085937-.0117188.171874-.0117188.257812 0 49.625 40.375 90 90 90 24.03125 0 46.628906-9.359375 63.644531-26.359375 16.996094-17.007813 26.355469-39.613281 26.355469-63.640625 0-.085938-.011719-.171875-.011719-.257812-.003906-.136719-.011719-.269532-.023437-.40625-.015625-.265626-.042969-.527344-.082032-.785157-.015624-.117187-.03125-.230469-.050781-.34375-.0625-.34375-.140625-.675781-.234375-1.003906-.011718-.035156-.019531-.066406-.027344-.101563-.117187-.378906-.253906-.75-.414062-1.113281-.007812-.015625-.011719-.035156-.019531-.050781l-75.621094-170.148438 110.0625-39.34375c3.261719 5.21875 7.472656 9.824219 12.421875 13.542969v268.769531c-7.207031 3.433594-13.859375 8.101563-19.503906 13.746094-10.945313 10.957032-17.804688 24.898438-19.84375 39.980469-45.25 4.691406-80.652344 43.046875-80.652344 89.515625 0 5.523438 4.476562 10 10 10h280c5.523438 0 10-4.476562 10-10 0-46.46875-35.402344-84.824219-80.652344-89.515625-2.039062-15.082031-8.898437-29.027344-19.847656-39.984375-5.640625-5.644531-12.289062-10.308594-19.5-13.742188v-268.765624c4.945312-3.71875 9.160156-8.324219 12.421875-13.546876l110.0625 39.34375-75.621094 170.148438c-.007812.015625-.011719.035156-.019531.050781-.160156.363281-.296875.734375-.414062 1.113281-.007813.035157-.015626.066407-.027344.101563-.09375.328125-.171875.660156-.234375 1.003906-.019531.113281-.035157.226563-.050781.34375-.039063.257813-.066407.519531-.082032.785157-.011718.132812-.019531.269531-.023437.40625 0 .085937-.011719.171874-.011719.257812 0 49.625 40.375 90 90 90 24.03125 0 46.628906-9.359375 63.644531-26.359375 16.996094-17.007813 26.355469-39.613281 26.355469-63.640625 0-.085938-.011719-.171875-.011719-.257812-.003906-.136719-.011719-.269532-.023437-.40625zm-255.964844 62.664062c-3.367188 0-6.703125.25-10 .722656v-253.738281c3.28125.667969 6.628906 1.015625 10 1.015625s6.71875-.347656 10-1.015625v253.738281c-3.296875-.472656-6.632812-.722656-10-.722656zm0-332c16.542969 0 30 13.457031 30 30 0 3.628906-.640625 7.171875-1.902344 10.539062-2.429687 6.480469-7.085937 11.96875-13.09375 15.449219-4.550781 2.625-9.734375 4.011719-15.003906 4.011719s-10.453125-1.386719-14.988281-4.003906c-6.023438-3.488282-10.679688-8.976563-13.109375-15.457032v-.003906c-1.261719-3.363281-1.902344-6.90625-1.902344-10.535156 0-16.542969 13.457031-30 30-30zm-116.5 319.496094c-13.230469 13.222656-30.808594 20.503906-49.5 20.503906-35.203125 0-64.40625-26.125-69.273438-60h138.558594c-2.117187 14.898438-8.953125 28.660156-19.785156 39.496094zm-39.5-59.496094v-30c0-5.523438-4.476562-10-10-10s-10 4.476562-10 10v30h-54.613281l64.613281-145.378906 64.613281 145.378906zm285.289062 212h-258.578124c4.867187-33.878906 34.085937-60 69.289062-60h120c35.203125 0 64.421875 26.121094 69.289062 60zm-80.285156-80h-98.003906c1.925781-9.539062 6.605469-18.3125 13.640625-25.359375 5.253906-5.25 11.71875-9.332031 18.6875-11.800781 5.339844-1.886719 10.949219-2.839844 16.671875-2.839844 5.726562 0 11.335938.953125 16.664062 2.835938 6.980469 2.472656 13.445313 6.554687 18.691407 11.804687 7.039062 7.042969 11.71875 15.820313 13.648437 25.359375zm116.996094-277.378906 64.613281 145.378906h-54.613281v-30c0-5.523438-4.476562-10-10-10s-10 4.476562-10 10v30h-54.613281zm49.5 204.875c-13.230469 13.222656-30.808594 20.503906-49.5 20.503906-35.203125 0-64.40625-26.125-69.273438-60h138.558594c-2.117187 14.898438-8.953125 28.660156-19.785156 39.496094zm0 0"/></svg>