<svg viewBox="0 -56 512 512" xmlns="http://www.w3.org/2000/svg"><path d="m130 320c-5.519531 0-10 4.480469-10 10s4.480469 10 10 10 10-4.480469 10-10-4.480469-10-10-10zm0 0"/><path d="m502 0h-492c-5.523438 0-10 4.476562-10 10v380c0 5.523438 4.476562 10 10 10h492c5.523438 0 10-4.476562 10-10 0-10.972656 0-369.050781 0-380 0-5.523438-4.476562-10-10-10zm-402.722656 260c.472656-3.296875.722656-6.632812.722656-10 0-38.597656-31.402344-70-70-70-3.367188 0-6.703125.25-10 .722656v-81.445312c3.296875.472656 6.632812.722656 10 .722656 38.597656 0 70-31.402344 70-70 0-3.367188-.25-6.804688-.722656-10.101562h313.445312c-.472656 3.296874-.722656 6.636718-.722656 10 0 38.597656 31.402344 70.101562 70 70.101562 3.367188 0 6.703125-.25 10-.722656v81.445312c-3.296875-.472656-6.632812-.722656-10-.722656-38.597656 0-70 31.402344-70 70 0 3.367188.25 6.703125.722656 10-13.085937 0-301.347656 0-313.445312 0zm-79.277344 0v-58.996094c3.273438-.660156 6.613281-1.003906 10-1.003906 27.570312 0 50 22.429688 50 50 0 3.386719-.34375 6.726562-1.003906 10zm413.003906 0c-.660156-3.273438-1.003906-6.613281-1.003906-10 0-27.570312 22.429688-50 50-50 3.386719 0 6.726562.34375 10 1.003906v58.996094zm-127.003906 20h186v40h-186zm186-201.003906c-3.273438.660156-6.613281 1.003906-10 1.003906-27.570312 0-50-22.429688-50-50 0-3.386719.34375-6.726562 1.003906-10h58.996094zm-413.003906-58.996094c.660156 3.273438 1.003906 6.613281 1.003906 10 0 27.570312-22.429688 50-50 50-3.386719 0-6.726562-.34375-10-1.003906v-58.996094zm-58.996094 320h70c5.523438 0 10-4.476562 10-10s-4.476562-10-10-10h-70v-40h186v40h-36c-5.523438 0-10 4.476562-10 10s4.476562 10 10 10h36v40h-186zm206-60h60v100h-60zm266 100h-186v-40h186zm0 0"/><path d="m356 140c0-55.140625-44.859375-100-100-100s-100 44.859375-100 100c0 55.65625 45.199219 100 100 100 54.78125 0 100-44.324219 100-100zm-180 0c0-44.113281 35.886719-80 80-80s80 35.886719 80 80c0 18.058594-6.089844 35.398438-17.058594 49.375-7.035156-14.414062-18.839844-25.925781-33.175781-32.6875 6.359375-7.085938 10.234375-16.441406 10.234375-26.6875 0-22.054688-17.945312-40-40-40s-40 17.945312-40 40c0 10.246094 3.875 19.601562 10.234375 26.683594-14.335937 6.765625-26.140625 18.277344-33.175781 32.691406-10.964844-13.976562-17.058594-31.3125-17.058594-49.375zm60-10c0-11.027344 8.972656-20 20-20s20 8.972656 20 20-8.972656 20-20 20-20-8.972656-20-20zm-27.496094 74.359375c6.648438-20.21875 25.757813-34.359375 47.496094-34.359375s40.847656 14.140625 47.496094 34.359375c-13.691406 10.117187-30.332032 15.640625-47.496094 15.640625s-33.804688-5.523438-47.496094-15.640625zm0 0"/><path d="m402 150h40c5.523438 0 10-4.476562 10-10s-4.476562-10-10-10h-40c-5.523438 0-10 4.476562-10 10s4.476562 10 10 10zm0 0"/><path d="m110 130h-40c-5.523438 0-10 4.476562-10 10s4.476562 10 10 10h40c5.523438 0 10-4.476562 10-10s-4.476562-10-10-10zm0 0"/></svg>