<?xml version="1.0" encoding="iso-8859-1"?>
<!-- Generator: Adobe Illustrator 19.0.0, SVG Export Plug-In . SVG Version: 6.00 Build 0)  -->
<svg version="1.1" id="Capa_1" xmlns="http://www.w3.org/2000/svg" xmlns:xlink="http://www.w3.org/1999/xlink" x="0px" y="0px"
	 viewBox="0 0 512 512" style="enable-background:new 0 0 512 512;" xml:space="preserve">
<g>
	<g>
		<path d="M473.997,410.012c-17.493,0-32.256,11.885-36.658,28.002h-33.348v-0.333c0-5.522-4.478-10.001-10.001-10.001
			c-5.522,0-10.001,4.478-10.001,10.001v10.334c0,5.522,4.478,10.001,10.001,10.001h43.348
			c4.402,16.117,19.164,28.002,36.658,28.002c20.955,0,38.003-17.048,38.003-38.003C512,427.06,494.952,410.012,473.997,410.012z
			 M473.997,466.016c-9.926,0-18.001-8.076-18.001-18.001c0-9.926,8.076-18.001,18.001-18.001c9.926,0,18.001,8.076,18.001,18.001
			C491.998,457.941,483.923,466.016,473.997,466.016z"/>
	</g>
</g>
<g>
	<g>
		<path d="M118.009,53.984H74.661c-4.402-16.117-19.164-28.002-36.658-28.002C17.048,25.982,0,43.03,0,63.985
			c0,20.955,17.048,38.003,38.003,38.003c17.493,0,32.255-11.885,36.658-28.002h33.348c0,5.522,4.478,10.001,10.001,10.001
			c5.522,0,10.001-4.478,10.001-10.001V63.985C128.01,58.463,123.532,53.984,118.009,53.984z M38.003,81.986
			c-9.926,0-18.001-8.076-18.001-18.001s8.076-18.001,18.001-18.001s18.001,8.076,18.001,18.001S47.929,81.986,38.003,81.986z"/>
	</g>
</g>
<g>
	<g>
		<path d="M440.189,211.654h-21.367c-3.738-13.787-9.227-27.044-16.332-39.452l15.101-15.101c3.363-3.363,5.216-7.836,5.216-12.592
			c0-4.756-1.853-9.229-5.215-12.591l-37.53-37.53c-3.363-3.363-7.836-5.216-12.592-5.216c-4.756,0-9.229,1.853-12.591,5.215
			l-15.102,15.102c-12.41-7.107-25.665-12.594-39.452-16.332V71.791c0-9.818-7.988-17.806-17.807-17.806h-53.076
			c-9.819,0-17.807,7.988-17.807,17.806v21.42c-13.766,3.751-26.998,9.246-39.38,16.351l-15.173-15.172
			c-3.363-3.363-7.836-5.216-12.592-5.216s-9.229,1.853-12.591,5.215l-37.53,37.53c-3.363,3.363-5.216,7.836-5.216,12.592
			c0,4.756,1.853,9.229,5.215,12.591l15.229,15.229c-7.073,12.374-12.536,25.587-16.261,39.325H71.771
			c-9.818,0-17.806,7.988-17.806,17.807v53.076c0,9.819,7.988,17.807,17.806,17.807h21.619c3.737,13.717,9.207,26.905,16.278,39.253
			l-15.299,15.3c-3.363,3.363-5.216,7.836-5.216,12.592c0,4.756,1.853,9.229,5.215,12.591l37.53,37.53
			c3.363,3.363,7.836,5.216,12.592,5.216c4.756,0,9.229-1.853,12.591-5.215l15.301-15.3c12.348,7.072,25.536,12.541,39.253,16.278
			v21.619c0,9.818,7.988,17.806,17.807,17.806h53.076c9.819,0,17.807-7.988,17.807-17.806v-21.565
			c13.737-3.725,26.95-9.189,39.325-16.261l15.228,15.228c3.363,3.363,7.836,5.216,12.592,5.216c4.756,0,9.229-1.853,12.591-5.215
			l37.53-37.53c3.363-3.365,5.215-7.838,5.215-12.594c0-4.756-1.853-9.229-5.215-12.591l-15.173-15.174
			c7.105-12.382,12.6-25.614,16.351-39.38h21.42c9.818,0,17.806-7.988,17.806-17.807v-53.076
			C457.996,219.642,450.008,211.654,440.189,211.654z M437.994,280.344h-20.913c-8.096,0-15.173,5.449-17.211,13.253
			c-3.438,13.154-8.677,25.773-15.57,37.503c-4.096,6.97-2.953,15.84,2.779,21.573l14.817,14.817l-34.427,34.427l-14.871-14.871
			c-5.723-5.723-14.584-6.873-21.547-2.794c-11.724,6.862-24.325,12.072-37.453,15.485c-7.817,2.032-13.275,9.112-13.275,17.217
			v21.061h-48.688v-21.111c0-8.096-5.45-15.173-13.254-17.212c-13.108-3.426-25.688-8.643-37.389-15.505
			c-6.969-4.085-15.833-2.94-21.561,2.787l-14.943,14.943l-34.427-34.427l14.943-14.943c5.727-5.727,6.874-14.593,2.787-21.562
			c-6.862-11.7-12.079-24.279-15.505-37.39c-2.041-7.803-9.119-13.252-17.212-13.252h-21.11v-48.688h21.061
			c8.105,0,15.185-5.458,17.218-13.276c3.412-13.127,8.623-25.729,15.483-37.45c4.078-6.965,2.93-15.825-2.793-21.549
			l-14.871-14.871l34.427-34.427l14.817,14.817c5.73,5.73,14.602,6.877,21.573,2.779c11.73-6.895,24.349-12.133,37.503-15.57
			c7.804-2.038,13.253-9.116,13.253-17.211V73.986h48.688v20.862c0,8.105,5.458,15.185,13.275,17.218
			c13.172,3.424,25.812,8.656,37.566,15.55c6.968,4.085,15.832,2.939,21.56-2.787l14.745-14.745l34.427,34.427l-14.745,14.745
			c-5.727,5.727-6.873,14.593-2.787,21.561c6.895,11.754,12.126,24.394,15.551,37.566c2.032,7.816,9.112,13.274,17.217,13.274
			h20.862V280.344z"/>
	</g>
</g>
<g>
	<g>
		<path d="M296.47,145.124c-5.187-1.897-10.932,0.772-12.824,5.963c-1.896,5.188,0.774,10.93,5.962,12.824
			c38.507,14.066,64.379,51.074,64.379,92.089c0,54.041-43.966,98.008-98.008,98.008c-54.041,0-98.008-43.966-98.008-98.008
			c0-40.467,24.305-76.246,61.919-91.152c5.134-2.035,7.647-7.848,5.612-12.982c-2.034-5.134-7.847-7.646-12.982-5.612
			c-21.74,8.616-40.29,23.37-53.645,42.668c-13.677,19.766-20.906,42.96-20.906,67.078c0,65.07,52.939,118.009,118.009,118.009
			S373.989,321.07,373.989,256C373.989,206.618,342.838,162.06,296.47,145.124z"/>
	</g>
</g>
<g>
	<g>
		<path d="M256.541,137.992l-0.561-0.001c-5.522,0-10.001,4.478-10.001,10.001c0,5.522,4.478,10.001,10.001,10.001l0.443,0.001
			c0.021,0,0.04,0,0.06,0c5.495,0,9.968-4.439,10-9.942C266.515,142.529,262.063,138.025,256.541,137.992z"/>
	</g>
</g>
<g>
	<g>
		<path d="M314.221,212.23h-21.183c-5.522,0-10.001,4.478-10.001,10.001c0,4.616,3.133,8.492,7.386,9.644l-24.688,24.689
			l-20.598-20.598c-3.906-3.904-10.237-3.904-14.144,0l-18.776,18.776c-3.904,3.904-3.904,10.237,0.001,14.143
			c3.906,3.904,10.237,3.904,14.144,0l11.705-11.705l20.598,20.598c1.876,1.875,4.419,2.929,7.072,2.929
			c2.652,0,5.195-1.054,7.072-2.929l31.766-31.766c1.146,4.26,5.024,7.402,9.647,7.402c5.522,0,10.001-4.478,10.001-10.001V222.23
			C324.221,216.708,319.743,212.23,314.221,212.23z"/>
	</g>
</g>
<g>
	<g>
		<path d="M203.355,277.742c-1.86-1.86-4.43-2.931-7.071-2.931c-2.629,0.001-5.209,1.071-7.07,2.931
			c-1.86,1.869-2.931,4.439-2.931,7.07s1.07,5.21,2.931,7.071c1.859,1.86,4.439,2.93,7.07,2.93c2.641,0,5.21-1.069,7.071-2.93
			c1.87-1.86,2.93-4.44,2.93-7.071S205.225,279.601,203.355,277.742z"/>
	</g>
</g>
<g>
	<g>
		<path d="M473.997,25.982c-17.493,0-32.256,11.885-36.658,28.002h-43.348c-5.522,0-10.001,4.478-10.001,10.001v10.001
			c0,5.522,4.478,10.001,10.001,10.001c5.522,0,10.001-4.478,10.001-10.001h33.348c4.402,16.117,19.164,28.002,36.658,28.002
			c20.955,0,38.003-17.048,38.003-38.003C512,43.03,494.952,25.982,473.997,25.982z M473.997,81.986
			c-9.926,0-18.001-8.076-18.001-18.001s8.076-18.001,18.001-18.001c9.926,0,18.001,8.076,18.001,18.001
			S483.923,81.986,473.997,81.986z"/>
	</g>
</g>
<g>
	<g>
		<path d="M118.009,427.68c-5.522,0-10.001,4.478-10.001,10.001v0.333H74.661c-4.402-16.117-19.164-28.002-36.658-28.002
			C17.048,410.012,0,427.06,0,448.015c0,20.955,17.048,38.003,38.003,38.003c17.493,0,32.255-11.885,36.658-28.002h43.348
			c5.522,0,10.001-4.478,10.001-10.001v-10.334C128.01,432.159,123.532,427.68,118.009,427.68z M38.003,466.016
			c-9.926,0-18.001-8.076-18.001-18.001c0-9.926,8.076-18.001,18.001-18.001s18.001,8.076,18.001,18.001
			C56.004,457.941,47.929,466.016,38.003,466.016z"/>
	</g>
</g>
<g>
</g>
<g>
</g>
<g>
</g>
<g>
</g>
<g>
</g>
<g>
</g>
<g>
</g>
<g>
</g>
<g>
</g>
<g>
</g>
<g>
</g>
<g>
</g>
<g>
</g>
<g>
</g>
<g>
</g>
</svg>
