<?xml version="1.0" encoding="iso-8859-1"?>
<!-- Generator: Adobe Illustrator 19.0.0, SVG Export Plug-In . SVG Version: 6.00 Build 0)  -->
<svg version="1.1" id="Capa_1" xmlns="http://www.w3.org/2000/svg" xmlns:xlink="http://www.w3.org/1999/xlink" x="0px" y="0px"
	 viewBox="0 0 512 512" style="enable-background:new 0 0 512 512;" xml:space="preserve">
<g>
	<g>
		<path d="M482.882,190.828c-17.225-60.074-58.651-111.81-113.657-141.942c-4.844-2.65-10.921-0.877-13.575,3.966
			c-2.653,4.843-0.878,10.921,3.966,13.575c50.356,27.585,88.277,74.937,104.042,129.913c1.258,4.389,5.259,7.247,9.607,7.247
			c0.912,0,1.841-0.126,2.761-0.391C481.336,201.675,484.405,196.136,482.882,190.828z"/>
	</g>
</g>
<g>
	<g>
		<path d="M329.293,31.606l-0.446-0.146c-5.261-1.688-10.891,1.206-12.579,6.464c-1.688,5.258,1.205,10.889,6.463,12.579l0.36,0.116
			c1.03,0.336,2.075,0.496,3.103,0.496c4.211,0,8.129-2.682,9.505-6.902C337.412,38.962,334.543,33.317,329.293,31.606z"/>
	</g>
</g>
<g>
	<g>
		<path d="M45.765,172.301c-5.22-1.813-10.916,0.945-12.729,6.161c-1.938,5.575-3.686,11.289-5.192,16.983
			c-1.413,5.338,1.769,10.812,7.108,12.225c0.857,0.228,1.718,0.336,2.565,0.336c4.427,0,8.475-2.963,9.66-7.444
			c1.379-5.207,2.977-10.434,4.749-15.532C53.739,179.813,50.982,174.114,45.765,172.301z"/>
	</g>
</g>
<g>
	<g>
		<path d="M80.052,113.796c-4.439-3.282-10.702-2.343-13.984,2.102c-3.505,4.743-6.87,9.675-10.003,14.659
			c-2.94,4.675-1.533,10.848,3.143,13.788c1.653,1.04,3.494,1.535,5.313,1.535c3.324,0,6.576-1.656,8.476-4.679
			c2.868-4.563,5.949-9.077,9.157-13.421C85.436,123.339,84.495,117.077,80.052,113.796z"/>
	</g>
</g>
<g>
	<g>
		<path d="M191.408,39.131c-1.808-5.218-7.505-7.982-12.724-6.173c-5.569,1.931-11.133,4.098-16.536,6.442
			c-5.067,2.198-7.393,8.087-5.194,13.153c1.635,3.772,5.314,6.025,9.178,6.025c1.328,0,2.679-0.267,3.975-0.829
			c4.943-2.145,10.033-4.127,15.128-5.894C190.453,50.046,193.217,44.349,191.408,39.131z"/>
	</g>
</g>
<g>
	<g>
		<path d="M130.086,68.034c-3.277-4.446-9.537-5.395-13.983-2.116c-4.74,3.495-9.409,7.214-13.877,11.055
			c-4.188,3.6-4.665,9.914-1.064,14.102c1.977,2.299,4.774,3.48,7.587,3.48c2.308,0,4.627-0.795,6.514-2.417
			c4.091-3.517,8.366-6.922,12.707-10.121C132.415,78.74,133.363,72.48,130.086,68.034z"/>
	</g>
</g>
<g>
	<g>
		<path d="M30,226c-16.542,0-30,13.458-30,30s13.458,30,30,30s30-13.458,30-30S46.542,226,30,226z M30,266c-5.514,0-10-4.486-10-10
			c0-5.514,4.486-10,10-10s10,4.486,10,10C40,261.514,35.514,266,30,266z"/>
	</g>
</g>
<g>
	<g>
		<path d="M482,226c-16.542,0-30,13.458-30,30s13.458,30,30,30s30-13.458,30-30S498.542,226,482,226z M482,266
			c-5.514,0-10-4.486-10-10c0-5.514,4.486-10,10-10c5.514,0,10,4.486,10,10C492,261.514,487.514,266,482,266z"/>
	</g>
</g>
<g>
	<g>
		<path d="M256,0c-16.542,0-30,13.458-30,30s13.458,30,30,30s30-13.458,30-30S272.542,0,256,0z M256,40c-5.514,0-10-4.486-10-10
			s4.486-10,10-10c5.514,0,10,4.486,10,10S261.514,40,256,40z"/>
	</g>
</g>
<g>
	<g>
		<path d="M153.612,446.241c-50.991-27.504-89.36-75.1-105.271-130.582c-1.521-5.308-7.057-8.382-12.369-6.855
			c-5.309,1.522-8.378,7.06-6.855,12.369C46.501,381.798,88.418,433.8,144.118,463.845c1.51,0.813,3.136,1.2,4.738,1.2
			c3.558,0,7.003-1.903,8.811-5.255C160.288,454.93,158.474,448.863,153.612,446.241z"/>
	</g>
</g>
<g>
	<g>
		<path d="M189.307,461.51l-0.285-0.093c-5.261-1.69-10.892,1.199-12.583,6.456c-1.691,5.257,1.198,10.891,6.456,12.583l0.221,0.071
			c1.028,0.335,2.071,0.494,3.098,0.494c4.213,0,8.132-2.685,9.507-6.907C197.43,468.863,194.559,463.22,189.307,461.51z"/>
	</g>
</g>
<g>
	<g>
		<path d="M355.046,459.447c-2.199-5.066-8.087-7.396-13.152-5.196c-4.943,2.145-10.033,4.127-15.128,5.894
			c-5.218,1.809-7.982,7.506-6.173,12.724c1.433,4.134,5.306,6.728,9.448,6.728c1.086,0,2.191-0.179,3.275-0.555
			c5.569-1.931,11.133-4.098,16.536-6.442C354.919,470.402,357.245,464.513,355.046,459.447z"/>
	</g>
</g>
<g>
	<g>
		<path d="M452.792,367.655c-4.676-2.941-10.85-1.532-13.788,3.144c-2.868,4.563-5.949,9.077-9.157,13.421
			c-3.282,4.441-2.341,10.703,2.102,13.984c1.787,1.321,3.869,1.958,5.934,1.958c3.064,0,6.09-1.404,8.051-4.06
			c3.505-4.743,6.87-9.675,10.003-14.659C458.875,376.768,457.468,370.595,452.792,367.655z"/>
	</g>
</g>
<g>
	<g>
		<path d="M410.839,420.925c-3.6-4.187-9.914-4.662-14.102-1.063c-4.091,3.517-8.366,6.922-12.707,10.121
			c-4.445,3.277-5.393,9.537-2.116,13.983c1.961,2.66,4.988,4.067,8.058,4.067c2.061,0,4.14-0.635,5.926-1.951
			c4.74-3.495,9.409-7.214,13.877-11.055C413.963,431.427,414.44,425.113,410.839,420.925z"/>
	</g>
</g>
<g>
	<g>
		<path d="M477.048,304.33c-5.337-1.416-10.813,1.769-12.226,7.108c-1.379,5.207-2.977,10.434-4.749,15.532
			c-1.813,5.217,0.944,10.916,6.161,12.729c1.088,0.378,2.194,0.558,3.284,0.558c4.139,0,8.01-2.59,9.445-6.719
			c1.938-5.575,3.686-11.289,5.192-16.983C485.569,311.217,482.387,305.743,477.048,304.33z"/>
	</g>
</g>
<g>
	<g>
		<path d="M256,452c-16.542,0-30,13.458-30,30s13.458,30,30,30s30-13.458,30-30S272.542,452,256,452z M256,492
			c-5.514,0-10-4.486-10-10c0-5.514,4.486-10,10-10c5.514,0,10,4.486,10,10C266,487.514,261.514,492,256,492z"/>
	</g>
</g>
<g>
	<g>
		<path d="M304.576,246h-4.115c9.366-10.522,15.072-24.371,15.072-39.533v-21.039v-9.734v-2.19
			c0-32.827-26.706-59.533-59.533-59.533s-59.533,26.706-59.533,59.533v2.19v9.734v21.039c0,15.162,5.706,29.011,15.072,39.533
			h-4.115c-40.804,0-74,33.196-74,74v49.97c0,5.522,4.478,10,10,10h225.152c5.522,0,10-4.478,10-10V320
			C378.576,279.196,345.38,246,304.576,246z M256,133.97c19.829,0,36.296,14.676,39.109,33.735l-17.646-10.367
			c-4.21-2.475-9.593-1.544-12.73,2.199c-8.462,10.099-20.871,15.891-34.047,15.891h-14.219v-1.925h0
			C216.467,151.704,234.201,133.97,256,133.97z M216.467,195.428h14.219c16.225,0,31.649-6.057,43.447-16.851l21.4,12.573v15.316
			c0,21.8-17.734,39.534-39.533,39.534s-39.533-17.734-39.533-39.533V195.428z M358.576,359.97H153.424V320
			c0-29.775,24.225-54,54-54H246v42c0,5.522,4.478,10,10,10c5.522,0,10-4.478,10-10v-42h38.576c29.775,0,54,24.225,54,54V359.97z"/>
	</g>
</g>
<g>
	<g>
		<path d="M182.204,199.794l-13.266-13.267c-1.875-1.876-4.419-2.93-7.071-2.93s-5.195,1.054-7.071,2.929L92.661,248.66
			c-3.905,3.905-3.905,10.237,0,14.143c1.954,1.954,4.513,2.93,7.072,2.93c2.559,0,5.118-0.977,7.071-2.929l55.063-55.063
			l6.194,6.195c3.906,3.904,10.236,3.906,14.143,0C186.109,210.031,186.109,203.7,182.204,199.794z"/>
	</g>
</g>
<g>
	<g>
		<path d="M392.506,118.831h-28.085c-5.522,0-10,4.478-10,10c0,5.522,4.478,10,10,10h3.925l-36.861,36.861
			c-3.905,3.905-3.905,10.237,0,14.143c1.953,1.952,4.512,2.929,7.071,2.929s5.118-0.977,7.071-2.929l36.879-36.879v3.961
			c0,5.522,4.477,10,10,10c5.522,0,10-4.478,10-10v-28.086C402.506,123.309,398.028,118.831,392.506,118.831z"/>
	</g>
</g>
<g>
</g>
<g>
</g>
<g>
</g>
<g>
</g>
<g>
</g>
<g>
</g>
<g>
</g>
<g>
</g>
<g>
</g>
<g>
</g>
<g>
</g>
<g>
</g>
<g>
</g>
<g>
</g>
<g>
</g>
</svg>
