<?xml version="1.0" encoding="iso-8859-1"?>
<!-- Generator: Adobe Illustrator 19.0.0, SVG Export Plug-In . SVG Version: 6.00 Build 0)  -->
<svg version="1.1" id="Capa_1" xmlns="http://www.w3.org/2000/svg" xmlns:xlink="http://www.w3.org/1999/xlink" x="0px" y="0px"
	 viewBox="0 0 512 512" style="enable-background:new 0 0 512 512;" xml:space="preserve">
<g>
	<g>
		<path d="M279.447,452H60v-48.667h88.813c5.522,0,10-4.478,10-10c0-5.522-4.478-10-10-10H60v-48.666h152.225V391
			c0,5.522,4.478,10,10,10c5.522,0,10-4.478,10-10v-66.333c0-5.522-4.478-10-10-10H60V266h42.11v12.789c0,5.522,4.478,10,10,10
			c5.522,0,10-4.478,10-10V256c0-5.522-4.478-10-10-10H50c-5.522,0-10,4.478-10,10v68.667V462c0,5.522,4.478,10,10,10h219.447v20
			h-77.78c-5.522,0-10,4.478-10,10c0,5.522,4.478,10,10,10h87.78c5.522,0,10-4.478,10-10v-40
			C289.447,456.478,284.97,452,279.447,452z"/>
	</g>
</g>
<g>
	<g>
		<path d="M160.069,494.93C158.21,493.069,155.63,492,153,492s-5.21,1.069-7.07,2.93c-1.86,1.861-2.93,4.44-2.93,7.07
			s1.069,5.21,2.93,7.069c1.86,1.86,4.44,2.931,7.07,2.931s5.21-1.07,7.069-2.931C161.93,507.21,163,504.63,163,502
			S161.93,496.79,160.069,494.93z"/>
	</g>
</g>
<g>
	<g>
		<path d="M395.427,108.667H60V60h148.157c5.522,0,10-4.478,10-10V10c0-5.522-4.478-10-10-10H50C22.43,0,0,22.43,0,50v412
			c0,27.57,22.43,50,50,50h62.11c5.522,0,10-4.478,10-10c0-5.522-4.477-10-10-10H50c-16.542,0-30-13.458-30-30V50
			c0-16.542,13.458-30,30-30h148.157v20H50c-5.522,0-10,4.478-10,10v68.667v68.666c0,5.522,4.478,10,10,10h62.11
			c5.522,0,10-4.478,10-10c0-5.522-4.478-10-10-10H60v-48.666h325.427v48.666H250.833c-5.522,0-10,4.478-10,10v18.881
			c0,5.522,4.478,10,10,10c5.522,0,10-4.478,10-10v-8.881h134.594c5.522,0,10-4.478,10-10v-68.666
			C405.427,113.145,400.949,108.667,395.427,108.667z"/>
	</g>
</g>
<g>
	<g>
		<path d="M462,0H288.157c-5.522,0-10,4.478-10,10v40c0,5.522,4.478,10,10,10H452v186H336.713c-5.522,0-10,4.478-10,10
			c0,5.522,4.478,10,10,10H462c5.522,0,10-4.478,10-10V50c0-5.522-4.478-10-10-10H298.157V20H462c16.542,0,30,13.458,30,30v412
			c0,16.542-13.458,30-30,30h-92.516v-20H462c5.522,0,10-4.478,10-10v-68.667v-68.666c0-5.522-4.478-10-10-10H345.233
			c-5.522,0-10,4.478-10,10c0,5.522,4.478,10,10,10H452v48.666H291.234v-16.518c0-5.522-4.478-10-10-10c-5.522,0-10,4.478-10,10
			v26.518c0,5.522,4.478,10,10,10H452V452h-92.516c-5.522,0-10,4.478-10,10v40c0,5.522,4.478,10,10,10H462c27.57,0,50-22.43,50-50
			V50C512,22.43,489.57,0,462,0z"/>
	</g>
</g>
<g>
	<g>
		<path d="M303.399,248.93c-1.859-1.86-4.43-2.93-7.069-2.93c-2.63,0-5.21,1.069-7.07,2.93c-1.86,1.86-2.93,4.44-2.93,7.07
			s1.069,5.21,2.93,7.069c1.86,1.86,4.44,2.931,7.07,2.931s5.21-1.07,7.069-2.931c1.87-1.859,2.931-4.439,2.931-7.069
			S305.269,250.79,303.399,248.93z"/>
	</g>
</g>
<g>
	<g>
		<path d="M253.259,246h-61.787v-58.667c0-5.522-4.478-10-10-10c-5.522,0-10,4.478-10,10V256c0,5.522,4.478,10,10,10h71.787
			c5.522,0,10-4.478,10-10C263.259,250.478,258.781,246,253.259,246z"/>
	</g>
</g>
<g>
	<g>
		<path d="M271.947,68.39l-16.719-16.72c-1.875-1.875-4.419-2.929-7.071-2.929c-2.652,0-5.196,1.054-7.071,2.929l-16.719,16.72
			c-3.905,3.906-3.905,10.237,0,14.143c3.793,3.791,9.866,3.89,13.79,0.319v0.282c0,5.522,4.478,10,10,10c5.522,0,10-4.478,10-10
			v-0.282c1.904,1.732,4.308,2.61,6.719,2.61c2.559,0,5.118-0.977,7.071-2.929C275.852,78.628,275.852,72.297,271.947,68.39z"/>
	</g>
</g>
<g>
	<g>
		<path d="M343.783,435.048l-17.227-17.229c-3.906-3.904-10.236-3.904-14.143,0l-17.229,17.229c-3.905,3.905-3.905,10.237,0,14.143
			c3.906,3.904,10.236,3.904,14.143,0l0.157-0.157v0.248c0,5.522,4.478,10,10,10c5.522,0,10-4.478,10-10v-0.248l0.157,0.157
			c1.953,1.952,4.512,2.929,7.071,2.929s5.118-0.977,7.071-2.929C347.688,445.286,347.688,438.954,343.783,435.048z"/>
	</g>
</g>
<g>
</g>
<g>
</g>
<g>
</g>
<g>
</g>
<g>
</g>
<g>
</g>
<g>
</g>
<g>
</g>
<g>
</g>
<g>
</g>
<g>
</g>
<g>
</g>
<g>
</g>
<g>
</g>
<g>
</g>
</svg>
