<?xml version="1.0" encoding="iso-8859-1"?>
<!-- Generator: Adobe Illustrator 19.0.0, SVG Export Plug-In . SVG Version: 6.00 Build 0)  -->
<svg version="1.1" id="Capa_1" xmlns="http://www.w3.org/2000/svg" xmlns:xlink="http://www.w3.org/1999/xlink" x="0px" y="0px"
	 viewBox="0 0 512 512" style="enable-background:new 0 0 512 512;" xml:space="preserve">
<g>
	<g>
		<path d="M502,176.348c5.523,0,10-4.478,10-10v-65.822c0-5.522-4.477-10-10-10h-54c-8.896,0-16.447,5.842-19.037,13.889H288.249
			c-0.106-0.053-0.205-0.113-0.314-0.162c-27.153-12.337-56.977-15.84-86.245-10.126l-80.778,15.763H83.968
			C83.627,99.158,74.813,90.526,64,90.526H10c-5.523,0-10,4.478-10,10v64.288c0,5.522,4.477,10,10,10s10-4.478,10-10v-54.288h44
			v189.588H20v-53.3c0-5.522-4.477-10-10-10s-10,4.478-10,10v63.3c0,5.522,4.477,10,10,10h54c11.028,0,20-8.972,20-20v-0.11
			c4.589,1.288,8.931,3.444,12.721,6.38L101.39,310c0.887,7.936,4.729,15.549,11.364,21.015c5.914,4.871,13.074,7.243,20.196,7.243
			c0.716,0,1.431-0.033,2.145-0.081c1.015,8.088,5.007,15.365,11.325,20.569c5.914,4.871,13.074,7.244,20.197,7.243
			c0.716,0,1.43-0.032,2.144-0.08c1.015,8.088,5.008,15.365,11.326,20.57c5.75,4.735,12.813,7.261,20.167,7.261
			c0.727,0,1.458-0.034,2.19-0.084c0.982,7.769,4.801,15.195,11.308,20.556c5.75,4.735,12.813,7.261,20.167,7.261
			c1.034,0,2.075-0.051,3.118-0.151c8.457-0.817,16.089-4.879,21.491-11.437l8.132-9.872c2.393-2.904,4.178-6.111,5.38-9.465
			c4.735,2.528,10.04,3.871,15.544,3.871c0.162,0,0.324-0.002,0.486-0.004c8.845-0.126,17.111-3.689,23.276-10.033
			c3.252-3.346,5.648-7.211,7.203-11.321l3.451,3.354c6.425,6.244,14.753,9.352,23.076,9.352c8.639,0,17.271-3.352,23.753-10.021
			c3.681-3.787,6.265-8.238,7.771-12.958c4.627,2.294,9.676,3.446,14.726,3.446c8.639,0,17.271-3.351,23.753-10.021
			c6.165-6.344,9.491-14.708,9.364-23.554c-0.126-8.845-3.689-17.111-10.024-23.267l-6.948-6.77L428,291.541v8.573
			c0,11.028,8.972,20,20,20h54c5.523,0,10-4.478,10-10v-66.3c0-5.522-4.477-10-10-10s-10,4.478-10,10v56.3h-44v-25.276
			c0-0.027,0-0.054,0-0.081V110.526h44v55.822C492,171.87,496.477,176.348,502,176.348z M150.224,304.098l-8.132,9.872
			c-4.14,5.027-11.596,5.749-16.622,1.607c-5.026-4.14-5.747-11.597-1.607-16.622l8.133-9.872c2.005-2.435,4.839-3.943,7.978-4.246
			c0.387-0.038,0.773-0.057,1.157-0.057c2.729,0,5.353,0.938,7.486,2.696C153.643,291.616,154.363,299.073,150.224,304.098z
			 M183.889,331.832l-8.132,9.872c-4.139,5.025-11.597,5.747-16.622,1.606c-2.435-2.005-3.942-4.838-4.246-7.978
			c-0.303-3.14,0.634-6.209,2.64-8.644l8.133-9.873c2.005-2.435,4.838-3.942,7.978-4.245c0.387-0.038,0.773-0.057,1.157-0.057
			c2.729,0,5.353,0.938,7.486,2.696c2.435,2.005,3.942,4.839,4.246,7.979C186.832,326.327,185.895,329.395,183.889,331.832z
			 M217.556,359.561l-8.133,9.873c-2.005,2.435-4.838,3.942-7.978,4.245c-3.143,0.307-6.211-0.632-8.644-2.638
			c-2.435-2.005-3.943-4.839-4.247-7.979c-0.303-3.139,0.634-6.208,2.64-8.644l8.132-9.872c2.332-2.83,5.715-4.295,9.125-4.295
			c2.644,0,5.303,0.881,7.498,2.689C220.975,347.08,221.696,354.536,217.556,359.561z M251.22,387.295l-8.133,9.872
			c-2.005,2.435-4.839,3.943-7.978,4.246c-3.143,0.308-6.21-0.634-8.644-2.64c-5.026-4.14-5.747-11.597-1.607-16.622l8.133-9.872
			c2.005-2.435,4.839-3.942,7.979-4.245c0.387-0.038,0.773-0.057,1.157-0.057c2.73,0,5.353,0.938,7.487,2.696
			c2.435,2.005,3.942,4.838,4.246,7.978C254.163,381.791,253.226,384.86,251.22,387.295z M400.733,342.271
			c-5.041,5.188-13.361,5.306-18.548,0.266l-33.155-32.222c-0.037-0.036-0.077-0.065-0.114-0.101l-32.662-31.742
			c-3.96-3.85-10.292-3.758-14.141,0.201c-3.849,3.961-3.759,10.292,0.202,14.141l51.902,50.441
			c5.187,5.041,5.306,13.362,0.265,18.549c-5.04,5.188-13.361,5.306-18.548,0.266l-51.903-50.441
			c-0.104-0.102-0.217-0.189-0.325-0.285l-24.937-24.234c-3.96-3.849-10.291-3.758-14.141,0.201
			c-3.849,3.961-3.759,10.292,0.202,14.141l51.902,50.441c5.187,5.041,5.306,13.362,0.265,18.549
			c-2.442,2.513-5.716,3.924-9.219,3.974c-3.484,0.063-6.815-1.268-9.329-3.71l-14.536-14.126c-0.326-0.317-0.674-0.597-1.03-0.861
			c-0.186-0.16-0.366-0.326-0.557-0.483c-6.512-5.363-14.537-7.689-22.355-7.162c-0.979-7.774-4.799-15.206-11.31-20.57
			c-6.507-5.36-14.527-7.687-22.34-7.163c-1.016-8.087-5.007-15.365-11.325-20.569c-6.318-5.204-14.229-7.73-22.357-7.177
			c-0.982-7.769-4.801-15.195-11.308-20.556c-6.558-5.401-14.823-7.922-23.284-7.109c-8.457,0.817-16.089,4.879-21.491,11.437
			l-8.133,9.872c-0.683,0.829-1.315,1.683-1.9,2.558c-6.75-4.671-14.469-7.837-22.526-9.281V129.89h37.878
			c0.643,0,1.284-0.062,1.916-0.186l81.727-15.948c13.866-2.705,27.876-2.992,41.569-0.941
			c-10.346,4.653-19.883,11.166-28.179,19.375l-75.713,74.913c-13.73,13.584-13.979,35.933-0.555,49.818
			c6.857,7.095,16.118,10.809,25.493,10.808c5.956-0.001,11.958-1.5,17.417-4.584l79.341-44.826h27.394l108.182,105.406
			c2.513,2.441,3.924,5.715,3.974,9.219C404.493,336.446,403.175,339.759,400.733,342.271z M428,268.814l-35.543,19.181
			l-71.512-69.677h7.022c5.523,0,10-4.478,10-10c0-5.522-4.477-10-10-10h-65.704c-1.724,0-3.418,0.445-4.919,1.294l-81.631,46.119
			c-6.12,3.459-13.806,2.343-18.692-2.711c-5.848-6.049-5.739-15.784,0.242-21.701l75.713-74.913
			c14.333-14.182,33.332-21.991,53.495-21.991H428V268.814z"/>
	</g>
</g>
<g>
	<g>
		<path d="M509.07,198.254c-1.86-1.87-4.44-2.93-7.07-2.93s-5.21,1.06-7.07,2.93c-1.86,1.86-2.93,4.431-2.93,7.07
			c0,2.63,1.07,5.21,2.93,7.07c1.86,1.859,4.44,2.93,7.07,2.93s5.21-1.07,7.07-2.93c1.86-1.87,2.93-4.44,2.93-7.07
			C512,202.684,510.93,200.114,509.07,198.254z"/>
	</g>
</g>
<g>
	<g>
		<path d="M17.07,198.254c-1.86-1.87-4.44-2.93-7.07-2.93s-5.21,1.06-7.07,2.93c-1.86,1.86-2.93,4.431-2.93,7.07
			c0,2.63,1.07,5.2,2.93,7.07c1.86,1.86,4.44,2.93,7.07,2.93s5.21-1.07,7.07-2.93c1.86-1.87,2.93-4.44,2.93-7.07
			C20,202.684,18.93,200.114,17.07,198.254z"/>
	</g>
</g>
<g>
</g>
<g>
</g>
<g>
</g>
<g>
</g>
<g>
</g>
<g>
</g>
<g>
</g>
<g>
</g>
<g>
</g>
<g>
</g>
<g>
</g>
<g>
</g>
<g>
</g>
<g>
</g>
<g>
</g>
</svg>
