<?xml version="1.0" encoding="iso-8859-1"?>
<!-- Generator: Adobe Illustrator 19.0.0, SVG Export Plug-In . SVG Version: 6.00 Build 0)  -->
<svg version="1.1" id="Capa_1" xmlns="http://www.w3.org/2000/svg" xmlns:xlink="http://www.w3.org/1999/xlink" x="0px" y="0px"
	 viewBox="0 0 512 512" style="enable-background:new 0 0 512 512;" xml:space="preserve">
<g>
	<g>
		<path d="M458.119,409.169c5.24-7.519,8.325-16.647,8.325-26.487v-9.111c0-25.609-20.835-46.444-46.444-46.444
			s-46.444,20.835-46.444,46.444v9.111c0,9.84,3.085,18.968,8.325,26.487c-18.147,0.541-34.13,9.819-43.881,23.772
			c-9.751-13.953-25.734-23.23-43.881-23.772c5.24-7.519,8.325-16.647,8.325-26.487v-9.111c0-25.609-20.835-46.444-46.444-46.444
			s-46.444,20.835-46.444,46.444v9.111c0,9.84,3.085,18.968,8.325,26.487c-18.147,0.541-34.13,9.819-43.881,23.772
			c-9.751-13.953-25.734-23.23-43.881-23.772c5.24-7.519,8.325-16.647,8.325-26.487v-9.111c0-25.609-20.835-46.444-46.444-46.444
			s-46.444,20.835-46.444,46.444v9.111c0,9.84,3.085,18.968,8.325,26.487C24.021,410.06,0,434.61,0,464.683V502
			c0,5.522,4.477,10,10,10h164h164h164c5.523,0,10-4.478,10-10v-37.317C512,434.61,487.979,410.06,458.119,409.169z M65.556,373.571
			c0-14.581,11.863-26.444,26.444-26.444s26.444,11.863,26.444,26.444v9.111c0,14.581-11.863,26.444-26.444,26.444
			s-26.444-11.863-26.444-26.444V373.571z M164,492H20v-27.317c0-19.605,15.95-35.556,35.556-35.556H82v31.437
			c0,5.522,4.477,10,10,10s10-4.478,10-10v-31.437h26.444c19.605,0,35.556,15.95,35.556,35.556V492z M229.556,373.571
			c0-14.581,11.863-26.444,26.444-26.444s26.444,11.863,26.444,26.444v9.111c0,14.581-11.863,26.444-26.444,26.444
			s-26.444-11.863-26.444-26.444V373.571z M328,492H184v-27.317c0-19.605,15.95-35.556,35.556-35.556h26.571v31.437
			c0,5.522,4.477,10,10,10s10-4.478,10-10v-31.437h26.317c19.605,0,35.556,15.95,35.556,35.556V492z M393.556,373.571
			c0-14.581,11.863-26.444,26.444-26.444s26.444,11.863,26.444,26.444v9.111c0,14.581-11.863,26.444-26.444,26.444
			s-26.444-11.863-26.444-26.444V373.571z M492,492H348v-27.317c0-19.605,15.95-35.556,35.556-35.556h26.698v31.437
			c0,5.522,4.477,10,10,10s10-4.478,10-10v-31.437h26.19c19.605,0,35.556,15.95,35.556,35.556V492z"/>
	</g>
</g>
<g>
	<g>
		<path d="M309.25,270H266v-27.581c0-5.522-4.477-10-10-10s-10,4.478-10,10V270H92c-5.523,0-10,4.478-10,10v23.063
			c0,5.523,4.477,10,10,10s10-4.478,10-10V290h144v13.063c0,5.522,4.477,10,10,10s10-4.478,10-10V290h43.25c5.523,0,10-4.478,10-10
			C319.25,274.478,314.773,270,309.25,270z"/>
	</g>
</g>
<g>
	<g>
		<path d="M353.07,272.93c-1.86-1.86-4.44-2.93-7.07-2.93s-5.21,1.069-7.07,2.93c-1.86,1.86-2.93,4.44-2.93,7.07
			s1.07,5.21,2.93,7.069c1.86,1.86,4.44,2.931,7.07,2.931s5.21-1.07,7.07-2.931c1.86-1.859,2.93-4.439,2.93-7.069
			S354.93,274.79,353.07,272.93z"/>
	</g>
</g>
<g>
	<g>
		<path d="M420.254,270H381.5c-5.523,0-10,4.478-10,10c0,5.522,4.477,10,10,10h28.754v13.063c0,5.522,4.477,10,10,10s10-4.478,10-10
			V280C430.254,274.478,425.777,270,420.254,270z"/>
	</g>
</g>
<g>
	<g>
		<path d="M359,0H153c-16.542,0-30,13.458-30,30v152c0,16.542,13.458,30,30,30h206c16.542,0,30-13.458,30-30V30
			C389,13.458,375.542,0,359,0z M369,182c0,5.514-4.486,10-10,10H153c-5.514,0-10-4.486-10-10V30c0-5.514,4.486-10,10-10h206
			c5.514,0,10,4.486,10,10V182z"/>
	</g>
</g>
<g>
	<g>
		<path d="M349.02,48.023h-22.407c-5.523,0-10,4.478-10,10c0,4.975,3.637,9.09,8.396,9.859l-55.132,55.133l-34.321-34.321
			c-3.904-3.904-10.236-3.904-14.142,0l-30.485,30.484c-3.905,3.905-3.906,10.237,0,14.143c3.906,3.905,10.238,3.906,14.142,0
			l23.414-23.414l34.321,34.321c1.953,1.952,4.512,2.929,7.071,2.929s5.119-0.977,7.071-2.929l62.21-62.21
			c0.762,4.766,4.881,8.412,9.862,8.412c5.523,0,10-4.478,10-10V58.023C359.02,52.501,354.543,48.023,349.02,48.023z"/>
	</g>
</g>
<g>
	<g>
		<path d="M181.95,142.309c-1.87-1.87-4.44-2.939-7.07-2.939c-2.64,0-5.21,1.069-7.08,2.939c-1.86,1.851-2.92,4.431-2.92,7.061
			c0,2.64,1.06,5.22,2.92,7.08c1.87,1.86,4.44,2.92,7.08,2.92c2.63,0,5.2-1.061,7.07-2.92c1.86-1.87,2.93-4.44,2.93-7.08
			C184.88,146.74,183.81,144.16,181.95,142.309z"/>
	</g>
</g>
<g>
	<g>
		<path d="M183.4,42.93c-1.86-1.86-4.43-2.93-7.07-2.93c-2.63,0-5.2,1.069-7.07,2.93c-1.86,1.86-2.93,4.44-2.93,7.07
			s1.07,5.21,2.93,7.069C171.12,58.93,173.7,60,176.33,60c2.64,0,5.21-1.07,7.07-2.931c1.87-1.859,2.93-4.439,2.93-7.069
			S185.27,44.79,183.4,42.93z"/>
	</g>
</g>
<g>
	<g>
		<path d="M220.07,42.93C218.21,41.07,215.63,40,213,40s-5.21,1.069-7.07,2.93C204.07,44.79,203,47.37,203,50s1.07,5.21,2.93,7.069
			C207.79,58.93,210.37,60,213,60s5.21-1.07,7.07-2.931C221.93,55.21,223,52.63,223,50S221.93,44.79,220.07,42.93z"/>
	</g>
</g>
<g>
	<g>
		<path d="M256.74,42.93c-1.87-1.86-4.44-2.93-7.07-2.93s-5.21,1.069-7.08,2.93c-1.86,1.86-2.92,4.44-2.92,7.07
			s1.06,5.21,2.92,7.069c1.87,1.861,4.45,2.931,7.08,2.931s5.21-1.07,7.07-2.931c1.86-1.859,2.93-4.439,2.93-7.069
			S258.6,44.79,256.74,42.93z"/>
	</g>
</g>
<g>
</g>
<g>
</g>
<g>
</g>
<g>
</g>
<g>
</g>
<g>
</g>
<g>
</g>
<g>
</g>
<g>
</g>
<g>
</g>
<g>
</g>
<g>
</g>
<g>
</g>
<g>
</g>
<g>
</g>
</svg>
