<?xml version="1.0" encoding="iso-8859-1"?>
<!-- Generator: Adobe Illustrator 19.0.0, SVG Export Plug-In . SVG Version: 6.00 Build 0)  -->
<svg version="1.1" id="Capa_1" xmlns="http://www.w3.org/2000/svg" xmlns:xlink="http://www.w3.org/1999/xlink" x="0px" y="0px"
	 viewBox="0 0 512 512" style="enable-background:new 0 0 512 512;" xml:space="preserve">
<g>
	<g>
		<path d="M482,356h-32V93.198h3.294c3.637,0,6.987-1.975,8.749-5.156c1.762-3.181,1.657-7.068-0.273-10.151l-33.294-53.167
			c-1.828-2.919-5.03-4.692-8.475-4.692s-6.647,1.773-8.475,4.692l-33.294,53.167c-1.931,3.083-2.035,6.97-0.273,10.151
			c1.762,3.181,5.112,5.156,8.749,5.156H390V287c0,5.522,4.477,10,10,10s10-4.478,10-10V83.198c0-4.025-2.379-7.496-5.808-9.082
			L420,48.873l15.808,25.243c-3.429,1.586-5.808,5.057-5.808,9.082V356h-72c-16.542,0-30,13.458-30,30v3.72
			c-3.13-1.11-6.494-1.72-10-1.72h-44.937V277.844c0-27.57-22.43-50-50-50h-11.824v-12.185c4.206,1.885,8.86,2.943,13.759,2.943
			h51.881c16.333,0,29.621-13.287,29.621-29.62s-13.288-29.621-29.621-29.621h-25.712v-11.252c0-30.246-20.459-55.788-48.26-63.558
			c6.338-7.947,10.14-18.002,10.14-28.934v-9.123C213.048,20.856,192.191,0,166.555,0s-46.493,20.856-46.493,46.493v9.123
			c0,10.738,3.669,20.629,9.806,28.509c-28.588,7.239-49.806,33.177-49.806,63.984v51.819c0,24.129,17.21,44.312,40,48.924V305.5
			c0,5.522,4.477,10,10,10s10-4.478,10-10v-57.656h61.177h21.824c16.542,0,30,13.458,30,30V388h-24v-98.083c0-5.522-4.477-10-10-10
			H174c-5.523,0-10,4.478-10,10V418v18h-10h-13.938v-49c0-5.522-4.477-10-10-10s-10,4.478-10,10v49H30c-16.542,0-30,13.458-30,30v36
			c0,5.522,4.477,10,10,10h492c5.523,0,10-4.478,10-10V386C512,369.458,498.542,356,482,356z M140.062,46.493
			c0-14.608,11.885-26.493,26.493-26.493c14.608,0,26.493,11.885,26.493,26.493v9.123c0,14.607-11.885,26.492-26.493,26.492
			c-14.608,0-26.493-11.885-26.493-26.492V46.493z M201.239,148.263c-5.523,0-10,4.478-10,10v69.581h-51.177v-69.581
			c0-5.523-4.477-10-10-10s-10,4.478-10,10v69.885c-11.635-4.101-20-15.199-20-28.22v-51.819c0-25.364,20.636-46,46-46h39.105
			c25.365,0,46,20.636,46,46v21.252c0,5.522,4.477,10,10,10h35.712c5.305,0,9.621,4.316,9.621,9.621s-4.316,9.62-9.621,9.62h-51.881
			c-7.586,0-13.759-6.172-13.759-13.758v-26.581C211.239,152.741,206.762,148.263,201.239,148.263z M164,492H20v-26
			c0-5.514,4.486-10,10-10h124c5.514,0,10,4.486,10,10V492z M184,299.917h25.063V388H194c-3.506,0-6.87,0.61-10,1.72V299.917z
			 M328,492H184v-74c0-5.514,4.486-10,10-10h124c5.514,0,10,4.486,10,10V492z M492,492H348v-74v-32c0-5.514,4.486-10,10-10h124
			c5.514,0,10,4.486,10,10V492z"/>
	</g>
</g>
<g>
	<g>
		<path d="M137.13,337.32c-1.86-1.859-4.44-2.93-7.07-2.93s-5.2,1.07-7.07,2.93c-1.86,1.86-2.93,4.44-2.93,7.07s1.07,5.21,2.93,7.07
			c1.86,1.859,4.44,2.93,7.07,2.93s5.21-1.07,7.07-2.93s2.93-4.44,2.93-7.07S138.99,339.18,137.13,337.32z"/>
	</g>
</g>
<g>
	<g>
		<path d="M407.07,317.93c-1.86-1.86-4.44-2.93-7.07-2.93s-5.21,1.069-7.07,2.93c-1.86,1.86-2.93,4.44-2.93,7.07
			s1.07,5.21,2.93,7.069c1.86,1.86,4.44,2.931,7.07,2.931s5.21-1.07,7.07-2.931c1.86-1.859,2.93-4.439,2.93-7.069
			S408.93,319.79,407.07,317.93z"/>
	</g>
</g>
<g>
</g>
<g>
</g>
<g>
</g>
<g>
</g>
<g>
</g>
<g>
</g>
<g>
</g>
<g>
</g>
<g>
</g>
<g>
</g>
<g>
</g>
<g>
</g>
<g>
</g>
<g>
</g>
<g>
</g>
</svg>
