<?xml version="1.0" encoding="iso-8859-1"?>
<!-- Generator: Adobe Illustrator 19.0.0, SVG Export Plug-In . SVG Version: 6.00 Build 0)  -->
<svg version="1.1" id="Capa_1" xmlns="http://www.w3.org/2000/svg" xmlns:xlink="http://www.w3.org/1999/xlink" x="0px" y="0px"
	 viewBox="0 0 512 512" style="enable-background:new 0 0 512 512;" xml:space="preserve">
<g>
	<g>
		<path d="M354,40h-56.333V30c0-16.542-13.458-30-30-30s-30,13.458-30,30v10h-84V30c0-16.542-13.458-30-30-30s-30,13.458-30,30v10
			H50C22.43,40,0,62.43,0,90v167c0,5.522,4.477,10,10,10s10-4.478,10-10V90c0-16.542,13.458-30,30-30h83.373
			c-1.065,4.376-5.007,7.64-9.707,7.64c-5.523,0-10,4.478-10,10c0,5.522,4.477,10,10,10c15.747,0,28.69-12.198,29.898-27.64h123.808
			c-1.065,4.376-5.007,7.64-9.707,7.64c-5.523,0-10,4.478-10,10c0,5.522,4.477,10,10,10c15.747,0,28.69-12.198,29.898-27.64H354
			c16.542,0,30,13.458,30,30v22.943c0,5.522,4.477,10,10,10s10-4.478,10-10V90C404,62.43,381.57,40,354,40z M133.667,40h-20V30
			c0-5.514,4.486-10,10-10c5.514,0,10,4.486,10,10V40z M277.667,40h-20V30c0-5.514,4.486-10,10-10c5.514,0,10,4.486,10,10V40z"/>
	</g>
</g>
<g>
	<g>
		<path d="M17.07,289.05c-1.86-1.86-4.44-2.93-7.07-2.93s-5.21,1.069-7.07,2.93C1.07,290.91,0,293.48,0,296.12
			c0,2.63,1.07,5.21,2.93,7.069c1.86,1.861,4.44,2.931,7.07,2.931s5.21-1.07,7.07-2.931c1.86-1.859,2.93-4.439,2.93-7.069
			C20,293.479,18.93,290.91,17.07,289.05z"/>
	</g>
</g>
<g>
	<g>
		<path d="M331,492H50c-16.542,0-30-13.458-30-30V334.667c0-5.522-4.477-10-10-10s-10,4.478-10,10V462c0,27.57,22.43,50,50,50h281
			c5.523,0,10-4.478,10-10C341,496.478,336.523,492,331,492z"/>
	</g>
</g>
<g>
	<g>
		<path d="M152.086,174.704c3.156-5.595,4.966-12.046,4.966-18.915v-7.157c0-21.302-17.33-38.632-38.632-38.632
			c-21.301,0-38.631,17.33-38.631,38.632v7.157c0,6.869,1.81,13.319,4.966,18.915C61.868,177.219,44,196.664,44,220.211V256
			c0,5.522,4.477,10,10,10h128.842c5.523,0,10-4.478,10-10v-35.789C192.842,196.664,174.974,177.219,152.086,174.704z M118.421,130
			c10.273,0,18.632,8.358,18.632,18.632v7.157c0,10.273-8.358,18.632-18.632,18.632s-18.631-8.358-18.631-18.632
			c0,0,0-7.157,0-7.157C99.79,138.359,108.148,130,118.421,130z M172.843,246h-0.001H64v-25.789c0-14.221,11.569-25.79,25.79-25.79
			h57.263c14.22,0,25.79,11.569,25.79,25.79V246z"/>
	</g>
</g>
<g>
	<g>
		<path d="M152.086,366.704c3.156-5.595,4.966-12.046,4.966-18.915v-7.157c0-21.302-17.33-38.632-38.632-38.632
			c-21.301,0-38.631,17.33-38.631,38.632v7.157c0,6.869,1.81,13.319,4.966,18.915C61.868,369.219,44,388.664,44,412.211V448
			c0,5.522,4.477,10,10,10h128.842c5.523,0,10-4.478,10-10v-35.789C192.842,388.664,174.974,369.219,152.086,366.704z M118.421,322
			c10.273,0,18.632,8.358,18.632,18.632v7.157c0,10.273-8.358,18.632-18.632,18.632s-18.631-8.358-18.631-18.632
			c0,0,0-7.157,0-7.157C99.79,330.359,108.148,322,118.421,322z M172.843,438H64v-25.789c0-14.221,11.569-25.79,25.79-25.79h57.263
			c14.22,0,25.79,11.569,25.79,25.79V438z"/>
	</g>
</g>
<g>
	<g>
		<path d="M278,198h-45.667c-5.523,0-10,4.478-10,10c0,5.522,4.478,10,10,10H278c5.523,0,10-4.478,10-10
			C288,202.478,283.523,198,278,198z"/>
	</g>
</g>
<g>
	<g>
		<path d="M278,246h-45.667c-5.523,0-10,4.478-10,10c0,5.522,4.478,10,10,10H278c5.523,0,10-4.478,10-10
			C288,250.478,283.523,246,278,246z"/>
	</g>
</g>
<g>
	<g>
		<path d="M258.971,150h-26.638c-5.523,0-10,4.478-10,10c0,5.522,4.478,10,10,10h26.638c5.523,0,10-4.478,10-10
			C268.971,154.478,264.494,150,258.971,150z"/>
	</g>
</g>
<g>
	<g>
		<path d="M331,390h-98.667c-5.523,0-10,4.478-10,10c0,5.522,4.477,10,10,10H331c5.523,0,10-4.478,10-10
			C341,394.478,336.523,390,331,390z"/>
	</g>
</g>
<g>
	<g>
		<path d="M331,438h-98.667c-5.523,0-10,4.478-10,10c0,5.522,4.477,10,10,10H331c5.523,0,10-4.478,10-10
			C341,442.478,336.523,438,331,438z"/>
	</g>
</g>
<g>
	<g>
		<path d="M290.666,342h-58.333c-5.523,0-10,4.478-10,10c0,5.522,4.478,10,10,10h58.333c5.523,0,10-4.478,10-10
			C300.666,346.478,296.189,342,290.666,342z"/>
	</g>
</g>
<g>
	<g>
		<path d="M338.07,344.93c-1.86-1.86-4.44-2.93-7.07-2.93s-5.21,1.069-7.07,2.93c-1.86,1.86-2.93,4.44-2.93,7.07
			s1.07,5.21,2.93,7.069c1.86,1.86,4.44,2.931,7.07,2.931s5.21-1.07,7.07-2.931c1.86-1.859,2.93-4.439,2.93-7.069
			S339.93,346.79,338.07,344.93z"/>
	</g>
</g>
<g>
	<g>
		<path d="M406,141.854c-58.449,0-106,47.552-106,106c0,47.667,31.629,88.082,75,101.371V481c0,17.094,13.907,31,31,31
			c17.093,0,31-13.906,31-31V349.225c43.371-13.29,75-53.704,75-101.371C512,189.406,464.449,141.854,406,141.854z M416,162.454
			c39.441,4.59,70.809,35.959,75.4,75.4H416V162.454z M396,162.454v66.538l-55.034-37.315
			C354.691,175.81,374.097,165.003,396,162.454z M417,481c0,6.065-4.935,11-11,11s-11-4.935-11-11V353.285
			c3.617,0.375,7.286,0.569,11,0.569s7.383-0.194,11-0.569V481z M406,333.854c-47.42,0-86-38.579-86-86
			c0-14.292,3.524-27.769,9.719-39.641l70.666,47.915c1.601,1.088,3.533,1.726,5.615,1.726h85.4
			C486.427,300.578,450.036,333.854,406,333.854z"/>
	</g>
</g>
<g>
</g>
<g>
</g>
<g>
</g>
<g>
</g>
<g>
</g>
<g>
</g>
<g>
</g>
<g>
</g>
<g>
</g>
<g>
</g>
<g>
</g>
<g>
</g>
<g>
</g>
<g>
</g>
<g>
</g>
</svg>
