<?xml version="1.0" encoding="iso-8859-1"?>
<!-- Generator: Adobe Illustrator 19.0.0, SVG Export Plug-In . SVG Version: 6.00 Build 0)  -->
<svg version="1.1" id="Capa_1" xmlns="http://www.w3.org/2000/svg" xmlns:xlink="http://www.w3.org/1999/xlink" x="0px" y="0px"
	 viewBox="0 0 512 512" style="enable-background:new 0 0 512 512;" xml:space="preserve">
<g>
	<g>
		<path d="M421.669,0.225C420.991,0.08,420.289,0,419.567,0H94C66.43,0,44,22.43,44,50v60.333c0,5.522,4.478,10,10,10
			s10-4.478,10-10V50c0-16.542,13.458-30,30-30h282.027C369.735,28.363,366,38.753,366,50v74.926c0,5.522,4.478,10,10,10
			c5.522,0,10-4.478,10-10V50c0-16.542,13.458-30,30-30h1c16.542,0,30,13.458,30,30v42h-30.5c-5.522,0-10,4.478-10,10
			c0,5.522,4.478,10,10,10H457c5.522,0,10-4.478,10-10V50C467,24.005,447.057,2.588,421.669,0.225z"/>
	</g>
</g>
<g>
	<g>
		<path d="M61.069,142.06c-1.859-1.87-4.439-2.93-7.069-2.93s-5.21,1.06-7.07,2.93c-1.86,1.86-2.93,4.431-2.93,7.07
			c0,2.63,1.069,5.21,2.93,7.07c1.86,1.86,4.44,2.93,7.07,2.93s5.21-1.07,7.069-2.93c1.86-1.87,2.931-4.44,2.931-7.07
			S62.93,143.92,61.069,142.06z"/>
	</g>
</g>
<g>
	<g>
		<path d="M477.965,443.084v-161.75c0-55.984-43.217-102.064-98.043-106.627c-4.45-20.323-22.593-35.58-44.231-35.58h-9.214
			c-5.522,0-10,4.478-10,10v43.552l-73.473,95.795c-3.052,3.979-2.686,9.602,0.857,13.15l33.292,33.354
			c3.327,3.334,8.53,3.894,12.488,1.345l25.951-16.699h19.203v24.691c0,19.958-9.88,38.535-26.428,49.692
			c-2.758,1.858-4.41,4.966-4.41,8.291v39.933c-21.882,2.541-38.926,21.177-38.926,43.729V492H64c-20.823,0-38.314-14.539-42.854-34
			h215.637c5.522,0,10-4.478,10-10c0-5.522-4.478-10-10-10H64V184.333c0-5.522-4.478-10-10-10s-10,4.478-10,10V438H10
			c-5.522,0-10,4.478-10,10c0,35.29,28.71,64,64,64h438c5.522,0,10-4.478,10-10v-16.04C512,465.119,497.442,447.626,477.965,443.084
			z M323.958,407.395c19.403-15.089,30.838-38.287,30.838-63.081v-26.163c3.749-0.96,7.379-2.379,10.788-4.236
			c15.086-8.214,24.457-23.987,24.457-41.165v-5.087c0-5.522-4.478-10-10-10c-5.522,0-10,4.478-10,10v5.087
			c0,9.848-5.373,18.891-14.021,23.601c-3.931,2.141-8.374,3.271-12.851,3.271h-30.516c-1.919,0-3.798,0.552-5.411,1.591
			l-21.636,13.923l-21.402-21.442l70.207-91.536c1.34-1.746,2.065-3.886,2.065-6.086v-36.934c13.575,0.417,24.49,11.59,24.49,25.265
			c0,5.522,4.478,10,10,10c0.374,0,0.742-0.021,1.105-0.061c47.464,0.594,85.893,39.39,85.893,86.991v160.591H438V386
			c0-5.522-4.478-10-10-10c-5.522,0-10,4.478-10,10v55.925h-94.042V407.395z M324,492h-38.968v-6.04
			c0-13.253,10.782-24.035,24.035-24.035h158.897c13.253,0,24.035,10.782,24.035,24.035V492H324z"/>
	</g>
</g>
<g>
	<g>
		<path d="M351.87,235.62c-1.86-1.86-4.44-2.931-7.07-2.931c-2.64,0-5.22,1.07-7.07,2.931c-1.859,1.859-2.93,4.439-2.93,7.069
			c0,2.641,1.07,5.21,2.93,7.07c1.86,1.86,4.431,2.93,7.07,2.93c2.63,0,5.21-1.069,7.07-2.93c1.859-1.86,2.93-4.44,2.93-7.07
			S353.73,237.479,351.87,235.62z"/>
	</g>
</g>
<g>
	<g>
		<path d="M150,54h-48c-5.522,0-10,4.478-10,10v48c0,5.522,4.478,10,10,10h48c5.522,0,10-4.478,10-10V64
			C160,58.478,155.522,54,150,54z M140,102h-28V74h28V102z"/>
	</g>
</g>
<g>
	<g>
		<path d="M272.333,78h-82c-5.522,0-10,4.478-10,10c0,5.522,4.478,10,10,10h82c5.522,0,10-4.478,10-10
			C282.333,82.478,277.855,78,272.333,78z"/>
	</g>
</g>
<g>
	<g>
		<path d="M150,150h-48c-5.522,0-10,4.478-10,10v48c0,5.522,4.478,10,10,10h48c5.522,0,10-4.478,10-10v-48
			C160,154.478,155.522,150,150,150z M140,198h-28v-28h28V198z"/>
	</g>
</g>
<g>
	<g>
		<path d="M272.333,174h-82c-5.522,0-10,4.478-10,10c0,5.522,4.478,10,10,10h82c5.522,0,10-4.478,10-10
			C282.333,178.478,277.855,174,272.333,174z"/>
	</g>
</g>
<g>
	<g>
		<path d="M150,246h-48c-5.522,0-10,4.478-10,10v48c0,5.522,4.478,10,10,10h48c5.522,0,10-4.478,10-10v-48
			C160,250.478,155.522,246,150,246z M140,294h-28v-28h28V294z"/>
	</g>
</g>
<g>
	<g>
		<path d="M207.667,270h-17.334c-5.522,0-10,4.478-10,10c0,5.522,4.478,10,10,10h17.334c5.522,0,10-4.478,10-10
			C217.667,274.478,213.189,270,207.667,270z"/>
	</g>
</g>
<g>
	<g>
		<path d="M150,341.913h-48c-5.522,0-10,4.478-10,10v48c0,5.522,4.478,10,10,10h48c5.522,0,10-4.478,10-10v-48
			C160,346.391,155.522,341.913,150,341.913z M140,389.913h-28v-28h28V389.913z"/>
	</g>
</g>
<g>
	<g>
		<path d="M256.127,365.913h-65.794c-5.522,0-10,4.478-10,10c0,5.522,4.478,10,10,10h65.794c5.522,0,10-4.478,10-10
			C266.127,370.391,261.649,365.913,256.127,365.913z"/>
	</g>
</g>
<g>
	<g>
		<path d="M435.069,340.93C433.21,339.07,430.63,338,428,338s-5.21,1.069-7.07,2.93c-1.86,1.861-2.93,4.44-2.93,7.07
			s1.069,5.21,2.93,7.069c1.86,1.861,4.44,2.931,7.07,2.931s5.21-1.07,7.069-2.931C436.93,353.21,438,350.63,438,348
			S436.93,342.79,435.069,340.93z"/>
	</g>
</g>
<g>
</g>
<g>
</g>
<g>
</g>
<g>
</g>
<g>
</g>
<g>
</g>
<g>
</g>
<g>
</g>
<g>
</g>
<g>
</g>
<g>
</g>
<g>
</g>
<g>
</g>
<g>
</g>
<g>
</g>
</svg>
