<?xml version="1.0" encoding="iso-8859-1"?>
<!-- Generator: Adobe Illustrator 19.0.0, SVG Export Plug-In . SVG Version: 6.00 Build 0)  -->
<svg version="1.1" id="Capa_1" xmlns="http://www.w3.org/2000/svg" xmlns:xlink="http://www.w3.org/1999/xlink" x="0px" y="0px"
	 viewBox="0 0 512 512" style="enable-background:new 0 0 512 512;" xml:space="preserve">
<g>
	<g>
		<path d="M394,438H294v-44h153.468c5.522,0,10-4.478,10-10V248c0-5.522-4.478-10-10-10H412.5c-5.522,0-10,4.478-10,10
			c0,5.522,4.478,10,10,10h24.968v116h-47.325l-67.87-67.871c-1.876-1.875-4.419-2.929-7.071-2.929
			c-2.652,0-5.195,1.054-7.071,2.929l-22.199,22.199l-33.919-33.92c4.758-0.769,8.396-4.885,8.396-9.859c0-5.522-4.478-10-10-10H228
			c-5.522,0-10,4.478-10,10v22.407c0,5.522,4.478,10,10,10c4.981,0,9.1-3.646,9.862-8.412l40.997,40.998
			c1.875,1.875,4.419,2.929,7.071,2.929c2.652,0,5.195-1.054,7.071-2.929l22.199-22.199L361.857,374H147.581L89.34,316l58.241-58
			H228h56h46.502c5.522,0,10-4.478,10-10c0-5.522-4.478-10-10-10H294v-28h74.017c2.645,0,5.183-1.048,7.057-2.914l68.283-68
			c1.884-1.877,2.943-4.427,2.943-7.086s-1.06-5.209-2.943-7.086l-68.283-68C373.2,55.048,370.662,54,368.017,54H294V38
			c0-20.953-17.047-38-38-38s-38,17.047-38,38v16h-44.019c-5.522,0-10,4.478-10,10s4.478,10,10,10h189.905l58.241,58l-58.241,58
			H149.448l46.733-46.733l22.198,22.199c1.875,1.875,4.419,2.929,7.071,2.929s5.195-1.054,7.071-2.929l40.998-40.997
			c0.763,4.766,4.881,8.411,9.862,8.411c5.522,0,10-4.478,10-10v-22.406c0-5.522-4.478-10-10-10h-22.406c-5.522,0-10,4.478-10,10
			c0,4.975,3.638,9.09,8.395,9.859l-33.919,33.919l-22.198-22.199c-1.875-1.875-4.419-2.929-7.071-2.929
			c-2.652,0-5.196,1.054-7.071,2.929L121.163,190H74V74h21c5.522,0,10-4.478,10-10c0-5.522-4.478-10-10-10H64
			c-5.522,0-10,4.478-10,10v136c0,5.522,4.478,10,10,10h154v28h-74.549c-2.645,0-5.183,1.048-7.057,2.914l-68.283,68
			c-1.884,1.877-2.943,4.427-2.943,7.086s1.06,5.209,2.943,7.086l68.283,68c1.874,1.866,4.412,2.914,7.057,2.914H218v44H118
			c-35.29,0-64,28.71-64,64c0,5.522,4.478,10,10,10h384c5.522,0,10-4.478,10-10C458,466.71,429.29,438,394,438z M274,54h-36V38
			c0-9.925,8.075-18,18-18s18,8.075,18,18V54z M238,210h36v28h-36V210z M238,394h36v44h-36V394z M75.146,492
			c4.539-19.461,22.03-34,42.854-34h276c20.823,0,38.314,14.539,42.854,34H75.146z"/>
	</g>
</g>
<g>
	<g>
		<path d="M141.069,56.93C139.21,55.069,136.63,54,134,54c-2.641,0-5.21,1.069-7.07,2.93S124,61.37,124,64s1.069,5.21,2.93,7.069
			C128.79,72.93,131.359,74,134,74c2.63,0,5.21-1.07,7.069-2.931C142.93,69.21,144,66.63,144,64S142.93,58.79,141.069,56.93z"/>
	</g>
</g>
<g>
	<g>
		<path d="M380.069,240.93C378.21,239.07,375.63,238,373,238s-5.21,1.069-7.07,2.93c-1.86,1.86-2.93,4.44-2.93,7.07
			s1.069,5.21,2.93,7.069c1.86,1.86,4.44,2.931,7.07,2.931s5.21-1.07,7.069-2.931C381.93,253.21,383,250.63,383,248
			S381.93,242.79,380.069,240.93z"/>
	</g>
</g>
<g>
</g>
<g>
</g>
<g>
</g>
<g>
</g>
<g>
</g>
<g>
</g>
<g>
</g>
<g>
</g>
<g>
</g>
<g>
</g>
<g>
</g>
<g>
</g>
<g>
</g>
<g>
</g>
<g>
</g>
</svg>
