<?xml version="1.0" encoding="iso-8859-1"?>
<!-- Generator: Adobe Illustrator 19.0.0, SVG Export Plug-In . SVG Version: 6.00 Build 0)  -->
<svg version="1.1" id="Capa_1" xmlns="http://www.w3.org/2000/svg" xmlns:xlink="http://www.w3.org/1999/xlink" x="0px" y="0px"
	 viewBox="0 0 512 512" style="enable-background:new 0 0 512 512;" xml:space="preserve">
<g>
	<g>
		<path d="M243.078,156.95c-1.859-1.861-4.439-2.93-7.069-2.93c-2.63,0-5.21,1.069-7.07,2.93c-1.86,1.861-2.93,4.44-2.93,7.07
			c0,2.64,1.069,5.21,2.93,7.069c1.86,1.87,4.44,2.931,7.07,2.931c2.63,0,5.21-1.061,7.069-2.931c1.86-1.859,2.931-4.43,2.931-7.069
			C246.01,161.391,244.94,158.811,243.078,156.95z"/>
	</g>
</g>
<g>
	<g>
		<path d="M476.204,376.678c-3.862-3.947-10.194-4.018-14.143-0.156l-0.288,0.288c-3.862,3.948-3.792,10.279,0.155,14.143
			c1.946,1.903,4.47,2.852,6.992,2.852c2.591,0,5.181-1.001,7.138-2.996C479.996,386.946,480.062,380.622,476.204,376.678z"/>
	</g>
</g>
<g>
	<g>
		<path d="M510.757,286.273c-2.306-16.007-7.641-31.104-15.681-44.736c-0.169-0.349-0.355-0.693-0.569-1.028l-1.548-2.422
			c-0.464-0.73-0.917-1.465-1.397-2.185l-59.174-92.559c-12.432-19.447-33.634-31.057-56.715-31.057h-83.681
			c-4.38-15.682-18.796-27.219-35.855-27.219c-17.06,0-31.475,11.537-35.855,27.219h-83.915c-23.081,0-44.283,11.609-56.715,31.056
			l-62.119,97.167c-0.292,0.457-0.53,0.932-0.74,1.414C6.125,260.133,0,281.311,0,303.897c0,67.825,55.18,123.005,123.005,123.005
			c47.088,0,88.072-26.6,108.738-65.56c6.175,6.299,14.771,10.217,24.267,10.217c9.484,0,18.069-3.907,24.242-10.19
			c5.602,10.617,12.862,20.583,21.785,29.506c23.631,23.63,55.112,36.057,87.042,36.057c18.386,0,36.926-4.124,54.187-12.605
			c4.957-2.436,7-8.428,4.564-13.386c-2.436-4.957-8.427-7.003-13.386-4.564c-39.553,19.435-87.08,11.54-118.266-19.645
			c-0.574-0.574-1.138-1.156-1.696-1.74l51.388-51.388l20.597,20.597c1.876,1.875,4.419,2.929,7.071,2.929
			c2.652,0,5.196-1.054,7.071-2.929l30.127-30.127c1.146,4.26,5.024,7.401,9.646,7.401c5.522,0,10-4.478,10-10v-21.182
			c0-5.522-4.478-10-10-10h-21.182c-5.522,0-10,4.478-10,10c0,4.616,3.133,8.492,7.386,9.643l-23.05,23.051l-20.597-20.597
			c-3.906-3.904-10.236-3.904-14.144,0l-56.736,56.736c-25.299-39.819-20.598-93.35,14.117-128.064
			c40.161-40.161,105.509-40.161,145.67,0c4.933,4.933,9.276,10.256,13.029,15.876l2.224,3.479
			c18.6,30.424,20.323,68.709,3.114,101.418c-2.57,4.889-0.693,10.935,4.194,13.507c4.89,2.573,10.935,0.693,13.507-4.194
			C509.878,338.414,514.438,311.823,510.757,286.273z M123.005,406.901c-28.672,0-54.641-11.78-73.334-30.75l52.546-52.547
			l20.597,20.597c3.906,3.904,10.236,3.904,14.144,0l30.127-30.127c1.146,4.26,5.025,7.4,9.646,7.4c5.522,0,10-4.478,10-10v-21.182
			c0-5.522-4.478-10-10-10H155.55c-5.522,0-10,4.478-10,10c0,4.616,3.133,8.492,7.385,9.643l-23.051,23.051l-20.597-20.597
			c-1.876-1.875-4.419-2.929-7.071-2.929s-5.195,1.054-7.071,2.929l-58.136,58.137c-10.742-16.26-17.008-35.725-17.008-56.629
			c0-56.796,46.208-103.004,103.004-103.004s103.004,46.208,103.004,103.004S179.801,406.901,123.005,406.901z M256.01,351.559
			c-7.72,0-14.001-6.28-14.001-14.001c0-7.72,6.28-14.001,14.001-14.001s14.001,6.28,14.001,14.001
			C270.011,345.279,263.73,351.559,256.01,351.559z M302.037,216.919c-6.126,6.126-11.464,12.745-16.026,19.729v-72.623
			c0-5.522-4.478-10-10-10s-10,4.478-10,10v139.872c0,0.39,0.028,0.773,0.071,1.151c0,0.011,0,0.021,0,0.032
			c-3.184-0.989-6.567-1.523-10.072-1.523c-3.484,0-6.847,0.529-10.015,1.507c0.004-0.389,0.015-0.777,0.015-1.167V197.982
			c0-5.522-4.478-10-10-10s-10,4.478-10,10v38.762c-21.982-33.601-59.94-55.851-103.004-55.851
			c-18.018,0-35.143,3.894-50.579,10.885l24.079-37.664c8.737-13.668,23.64-21.828,39.863-21.828h92.552c5.522,0,10-4.478,10-10
			c0-9.494,7.724-17.219,17.219-17.219c9.494,0,17.219,7.724,17.219,17.219c0,5.522,4.478,10,10,10h92.317
			c16.224,0,31.125,8.16,39.863,21.829l24.085,37.673C394.344,171.411,339.176,179.782,302.037,216.919z"/>
	</g>
</g>
<g>
</g>
<g>
</g>
<g>
</g>
<g>
</g>
<g>
</g>
<g>
</g>
<g>
</g>
<g>
</g>
<g>
</g>
<g>
</g>
<g>
</g>
<g>
</g>
<g>
</g>
<g>
</g>
<g>
</g>
</svg>
