<?xml version="1.0" encoding="iso-8859-1"?>
<!-- Generator: Adobe Illustrator 19.0.0, SVG Export Plug-In . SVG Version: 6.00 Build 0)  -->
<svg version="1.1" id="Capa_1" xmlns="http://www.w3.org/2000/svg" xmlns:xlink="http://www.w3.org/1999/xlink" x="0px" y="0px"
	 viewBox="0 0 512 512" style="enable-background:new 0 0 512 512;" xml:space="preserve">
<g>
	<g>
		<path d="M145.649,185.302c-3.905-3.904-10.234-3.904-14.14,0l-0.104,0.104c-3.905,3.905-3.905,10.236,0,14.141
			c1.953,1.952,4.511,2.929,7.07,2.929s5.117-0.977,7.07-2.929l0.104-0.104C149.553,195.539,149.553,189.207,145.649,185.302z"/>
	</g>
</g>
<g>
	<g>
		<path d="M439.049,233.811h-25.445c-1.365-5.148-2.962-10.286-4.75-15.284c-1.86-5.199-7.584-7.905-12.783-6.045
			s-7.906,7.583-6.045,12.783c1.69,4.724,3.189,9.589,4.456,14.458c2.157,8.294,9.671,14.086,18.273,14.086h25.197v58.336h-25.256
			c-8.591,0-16.102,5.782-18.268,14.063c-3.952,15.125-9.976,29.635-17.904,43.125c-4.348,7.395-3.133,16.811,2.952,22.895
			l17.893,17.892l-41.249,41.249l-17.954-17.955c-6.074-6.071-15.477-7.291-22.866-2.967c-13.481,7.891-27.972,13.882-43.068,17.808
			c-8.294,2.156-14.087,9.671-14.087,18.273v25.424h-58.336v-25.481c0-8.592-5.783-16.103-14.064-18.269
			c-15.073-3.939-29.539-9.937-42.993-17.829c-7.392-4.336-16.803-3.121-22.883,2.96l-18.035,18.036l-41.249-41.249l18.036-18.035
			c6.079-6.079,7.296-15.489,2.96-22.883c-7.892-13.453-13.891-27.919-17.829-42.991c-2.163-8.282-9.676-14.066-18.269-14.066
			H19.998v-58.336h25.424c8.603,0,16.117-5.793,18.273-14.087c3.926-15.097,9.917-29.588,17.808-43.068
			c4.326-7.389,3.105-16.792-2.968-22.867l-17.954-17.953l41.249-41.249l17.892,17.893c6.084,6.084,15.5,7.299,22.896,2.952
			c13.489-7.929,27.999-13.952,43.125-17.904c8.28-2.165,14.062-9.677,14.062-18.268V74h58.336v25.197
			c0,8.603,5.792,16.116,14.086,18.273c4.759,1.238,9.513,2.698,14.129,4.339c5.201,1.852,10.921-0.87,12.77-6.073
			c1.849-5.203-0.87-10.921-6.073-12.77c-4.876-1.733-9.89-3.285-14.914-4.617V72.902c0-10.422-8.478-18.9-18.9-18.9h-60.53
			c-10.422,0-18.9,8.478-18.9,18.9v25.505c-16.3,4.343-31.952,10.841-46.548,19.326l-18.066-18.067
			c-7.37-7.368-19.359-7.368-26.729,0l-42.802,42.802c-7.369,7.369-7.369,19.36,0,26.729l18.13,18.128
			c-8.445,14.586-14.908,30.215-19.222,46.486H18.9c-10.422,0-18.9,8.478-18.9,18.9v60.53c0,10.422,8.478,18.9,18.9,18.9h25.73
			c4.329,16.246,10.799,31.848,19.245,46.404l-18.211,18.211c-7.369,7.369-7.369,19.36,0,26.729l42.802,42.802
			c7.37,7.368,19.359,7.368,26.729,0l18.21-18.212c14.557,8.446,30.16,14.917,46.404,19.244v25.731c0,10.422,8.478,18.9,18.9,18.9
			h60.53c10.422,0,18.9-8.479,18.9-18.9v-25.672c16.271-4.313,31.899-10.776,46.486-19.222l18.128,18.13
			c7.37,7.368,19.359,7.368,26.729,0l42.802-42.802c7.369-7.369,7.369-19.36,0-26.729l-18.067-18.066
			c8.485-14.595,14.983-30.249,19.326-46.548h25.505c10.422,0,18.9-8.478,18.9-18.9v-60.53
			C457.949,242.29,449.471,233.811,439.049,233.811z"/>
	</g>
</g>
<g>
	<g>
		<path d="M509.561,78.397c-4.89-11.828-15.879-19.196-28.678-19.229l-27.931-0.073l-0.073-27.931
			c-0.033-12.799-7.401-23.787-19.229-28.678c-11.832-4.887-24.806-2.313-33.868,6.727l-66.797,66.631
			c-1.881,1.876-2.938,4.424-2.938,7.079v84.935l-10.79,10.79c-22.893-19.832-51.16-31.177-80.286-33.306v-11.681
			c0-5.521-4.478-9.999-9.999-9.999s-9.999,4.477-9.999,9.999v11.663c-17.399,1.258-34.734,5.821-51.055,13.873
			c-4.951,2.443-6.985,8.438-4.542,13.391c2.442,4.951,8.438,6.985,13.391,4.543c13.503-6.661,27.817-10.519,42.207-11.738v8.93
			c0,5.521,4.478,9.999,9.999,9.999s9.999-4.477,9.999-9.999v-8.939c23.93,2.046,47.113,11.386,66.109,27.442l-28.466,28.466
			c-13.188-10.209-29.711-16.306-47.641-16.306c-43.005,0-77.991,34.986-77.991,77.991s34.986,77.991,77.991,77.991
			c43.005,0,77.991-34.986,77.991-77.991c0-17.881-6.062-34.363-16.221-47.533l28.471-28.471
			c16.18,19.183,25.267,42.346,27.262,66.005h-8.848c-5.521,0-9.999,4.477-9.999,9.999c0,5.521,4.478,9.999,9.999,9.999h8.848
			c-2.26,26.799-13.612,52.969-34.073,73.43c-20.461,20.462-46.631,31.813-73.43,34.073v-8.847c0-5.521-4.477-9.999-9.999-9.999
			c-5.521,0-9.999,4.477-9.999,9.999v8.847c-26.799-2.26-52.969-13.612-73.43-34.073c-20.106-20.105-31.752-46.293-34.088-73.43
			h8.862c5.521,0,9.999-4.477,9.999-9.999c0-5.521-4.477-9.999-9.999-9.999h-8.889c1.156-13.841,4.749-27.605,10.93-40.623
			c2.369-4.988,0.245-10.953-4.744-13.32c-4.988-2.371-10.953-0.246-13.32,4.743c-7.479,15.754-11.717,32.443-12.909,49.2H79.66
			c-5.521,0-9.999,4.477-9.999,9.999c0,5.521,4.477,9.999,9.999,9.999h11.755c2.383,32.34,16.062,63.641,39.992,87.571
			c23.691,23.69,54.48,37.703,87.571,40.057v11.69c0,5.521,4.477,9.999,9.999,9.999c5.521,0,9.999-4.477,9.999-9.999v-11.69
			c33.091-2.354,63.88-16.366,87.571-40.057c23.69-23.691,37.703-54.48,40.057-87.571h11.69c5.521,0,9.999-4.477,9.999-9.999
			c0-5.521-4.477-9.999-9.999-9.999h-11.69c-2.117-29.757-13.662-57.65-33.194-80.196l10.783-10.783h84.935
			c2.656,0,5.203-1.057,7.079-2.938l66.631-66.797C511.874,103.203,514.452,90.225,509.561,78.397z M228.974,340.971
			c-31.977,0-57.994-26.016-57.994-57.994s26.016-57.994,57.994-57.994c12.41,0,23.912,3.931,33.354,10.595l-17.712,17.712
			c-3.905,3.905-3.905,10.236,0,14.141c1.953,1.952,4.511,2.929,7.07,2.929s5.117-0.977,7.07-2.929l17.696-17.696
			c6.615,9.421,10.515,20.881,10.515,33.241C286.968,314.954,260.952,340.971,228.974,340.971z M350.046,87.072L350.046,87.072
			l63.86-63.7c4.871-4.86,10.496-3.069,12.104-2.404c1.607,0.664,6.854,3.368,6.872,10.249l0.088,33.72l-54.681,54.681
			l-28.243,28.243V87.072z M488.676,98.142L424.976,162h-60.788l28.243-28.243l54.681-54.681l33.72,0.088
			c6.881,0.018,9.585,5.265,10.249,6.872C491.745,87.646,493.536,93.27,488.676,98.142z"/>
	</g>
</g>
<g>
	<g>
		<path d="M234.804,277.238c-1.851-1.861-4.43-2.93-7.069-2.93c-2.63,0-5.209,1.069-7.069,2.93c-1.859,1.86-2.93,4.44-2.93,7.069
			c0,2.64,1.07,5.209,2.93,7.068c1.86,1.87,4.44,2.931,7.069,2.931c2.64,0,5.209-1.061,7.069-2.931
			c1.87-1.859,2.93-4.438,2.93-7.068C237.734,281.677,236.674,279.097,234.804,277.238z"/>
	</g>
</g>
<g>
</g>
<g>
</g>
<g>
</g>
<g>
</g>
<g>
</g>
<g>
</g>
<g>
</g>
<g>
</g>
<g>
</g>
<g>
</g>
<g>
</g>
<g>
</g>
<g>
</g>
<g>
</g>
<g>
</g>
</svg>
