<?xml version="1.0" encoding="iso-8859-1"?>
<!-- Generator: Adobe Illustrator 19.0.0, SVG Export Plug-In . SVG Version: 6.00 Build 0)  -->
<svg version="1.1" id="Capa_1" xmlns="http://www.w3.org/2000/svg" xmlns:xlink="http://www.w3.org/1999/xlink" x="0px" y="0px"
	 viewBox="0 0 512.001 512.001" style="enable-background:new 0 0 512.001 512.001;" xml:space="preserve">
<g>
	<g>
		<path d="M50,0C22.43,0,0,22.43,0,50s22.43,50,50,50s50-22.43,50-50S77.57,0,50,0z M50,80c-16.542,0-30-13.458-30-30
			s13.458-30,30-30s30,13.458,30,30S66.542,80,50,80z"/>
	</g>
</g>
<g>
	<g>
		<path d="M462.001,0c-27.57,0-50,22.43-50,50s22.43,50,50,50s50-22.43,50-50S489.571,0,462.001,0z M462.001,80
			c-16.542,0-30-13.458-30-30s13.458-30,30-30s30,13.458,30,30S478.543,80,462.001,80z"/>
	</g>
</g>
<g>
	<g>
		<path d="M462.001,412.001c-27.57,0-50,22.43-50,50s22.43,50,50,50s50-22.43,50-50S489.571,412.001,462.001,412.001z
			 M462.001,492.001c-16.542,0-30-13.458-30-30s13.458-30,30-30s30,13.458,30,30S478.543,492.001,462.001,492.001z"/>
	</g>
</g>
<g>
	<g>
		<path d="M401.542,342.471c-0.814-3.544-3.489-6.367-6.985-7.371c-3.494-1.004-7.26-0.03-9.832,2.54l-2.328,2.329l-20.628-20.628
			c-3.906-3.904-10.236-3.904-14.143,0c-3.905,3.905-3.905,10.237,0,14.143l27.699,27.698c2.847,2.846,6.983,3.616,10.528,2.314
			l6.672,29.028l-29.028-6.672c1.304-3.546,0.532-7.682-2.314-10.528L310.85,324.99c20.264-16.136,33.278-41.007,33.278-68.864
			c0-13.318-2.979-25.95-8.297-37.276l46.567-46.567l2.328,2.329c2.572,2.571,6.336,3.546,9.832,2.54
			c3.496-1.004,6.17-3.827,6.985-7.371l14.053-61.137c0.771-3.357-0.239-6.875-2.675-9.312c-2.437-2.436-5.955-3.444-9.312-2.675
			l-61.137,14.053c-3.544,0.814-6.367,3.489-7.371,6.985c-1.004,3.495-0.031,7.26,2.54,9.832l2.329,2.328l-20.468,20.468
			c-3.905,3.905-3.905,10.237,0,14.143c3.906,3.904,10.236,3.904,14.143,0l27.538-27.539c2.847-2.847,3.618-6.982,2.314-10.528
			l29.028-6.672l-6.672,29.028c-3.548-1.306-7.681-0.532-10.528,2.314l-50.334,50.333c-16.136-20.264-41.007-33.278-68.864-33.278
			c-13.317,0-25.95,2.979-37.276,8.297l-46.567-46.567l2.329-2.328c2.571-2.572,3.544-6.337,2.54-9.832
			c-1.004-3.496-3.827-6.17-7.371-6.985l-61.137-14.053c-3.354-0.77-6.875,0.239-9.312,2.675c-2.436,2.437-3.446,5.954-2.675,9.312
			l14.053,61.137c0.814,3.544,3.489,6.367,6.985,7.371c3.496,1.005,7.26,0.031,9.832-2.54l2.328-2.329l20.269,20.269
			c3.906,3.904,10.236,3.904,14.143,0c3.905-3.905,3.905-10.237,0-14.143l-27.34-27.339c-2.849-2.847-6.984-3.618-10.528-2.314
			l-6.672-29.028l29.028,6.672c-1.304,3.546-0.532,7.682,2.314,10.528l50.333,50.334c-20.264,16.136-33.278,41.007-33.278,68.864
			c0,13.318,2.979,25.95,8.297,37.276l-46.567,46.567l-2.328-2.329c-2.572-2.571-6.337-3.545-9.832-2.54
			c-3.496,1.004-6.171,3.827-6.985,7.371l-14.053,61.137c-0.771,3.357,0.239,6.875,2.675,9.312c1.896,1.896,4.449,2.929,7.071,2.929
			c0.746,0,1.497-0.083,2.24-0.254l61.137-14.053c3.544-0.814,6.367-3.489,7.371-6.985c1.004-3.495,0.031-7.26-2.54-9.832
			l-2.329-2.328l20.478-20.478c3.905-3.905,3.905-10.237,0-14.143c-3.906-3.904-10.236-3.904-14.143,0l-27.548,27.549
			c-2.847,2.847-3.618,6.982-2.314,10.528l-29.028,6.672l6.672-29.028c3.547,1.307,7.681,0.532,10.528-2.314l50.334-50.333
			c16.136,20.264,41.007,33.278,68.864,33.278c13.317,0,25.95-2.979,37.276-8.297l46.567,46.567l-2.329,2.328
			c-2.571,2.572-3.544,6.337-2.54,9.832c1.004,3.496,3.827,6.17,7.371,6.985l61.137,14.053c0.743,0.171,1.494,0.254,2.24,0.254
			c2.622,0,5.175-1.032,7.071-2.929c2.437-2.437,3.448-5.954,2.677-9.312L401.542,342.471z M256.127,324.127
			c-37.495,0-68-30.505-68-68s30.505-68,68-68s68,30.505,68,68S293.622,324.127,256.127,324.127z"/>
	</g>
</g>
<g>
	<g>
		<path d="M50,412.001c-27.57,0-50,22.43-50,50s22.43,50,50,50s50-22.43,50-50S77.57,412.001,50,412.001z M50,492.001
			c-16.542,0-30-13.458-30-30s13.458-30,30-30s30,13.458,30,30S66.542,492.001,50,492.001z"/>
	</g>
</g>
<g>
	<g>
		<path d="M256.127,207.127c-5.522,0-10,4.478-10,10c0,5.522,4.478,10,10,10c15.99,0,29,13.01,29,29c0,5.522,4.478,10,10,10
			c5.522,0,10-4.478,10-10C305.127,229.108,283.146,207.127,256.127,207.127z"/>
	</g>
</g>
<g>
	<g>
		<path d="M226.833,219.882c-5.523,0-10,4.526-10,10.049l-0.001,0.196c0,5.522,4.478,9.952,10,9.952c5.523,0,10-4.525,10-10.049
			l0.001-0.197C236.833,224.311,232.355,219.882,226.833,219.882z"/>
	</g>
</g>
<g>
</g>
<g>
</g>
<g>
</g>
<g>
</g>
<g>
</g>
<g>
</g>
<g>
</g>
<g>
</g>
<g>
</g>
<g>
</g>
<g>
</g>
<g>
</g>
<g>
</g>
<g>
</g>
<g>
</g>
</svg>
