<?xml version="1.0" encoding="iso-8859-1"?>
<!-- Generator: Adobe Illustrator 19.0.0, SVG Export Plug-In . SVG Version: 6.00 Build 0)  -->
<svg version="1.1" id="Capa_1" xmlns="http://www.w3.org/2000/svg" xmlns:xlink="http://www.w3.org/1999/xlink" x="0px" y="0px"
	 viewBox="0 0 512 512" style="enable-background:new 0 0 512 512;" xml:space="preserve">
<g>
	<g>
		<path d="M378.5,428.951V236.5c0-79.693-62.261-145.118-140.698-150.185C235.249,60.905,213.738,41,187.667,41
			c-5.523,0-10,4.478-10,10v56.606L83.189,230.788c-3.051,3.979-2.685,9.602,0.857,13.15l42.549,42.63
			c3.327,3.333,8.527,3.895,12.489,1.345l33.854-21.786H209c2.342,0,4.68-0.149,6.999-0.437v21.826
			c0,32.951-19.126,63.597-48.727,78.072c-3.431,1.678-5.607,5.164-5.607,8.983v53.574c-27.755,1.933-49.75,25.116-49.75,53.354V502
			c0,5.522,4.477,10,10,10H412c5.523,0,10-4.478,10-10v-20.5C422,455.418,403.235,433.649,378.5,428.951z M181.667,380.605
			c15.536-8.77,28.631-21.283,38.118-36.484C230.393,327.125,236,307.552,236,287.517v-28.185c0.105-0.056,0.215-0.104,0.319-0.161
			c18.386-10.01,29.808-29.233,29.808-50.169V202.5c0-5.522-4.477-10-10-10s-10,4.478-10,10v6.502
			c0,13.605-7.423,26.099-19.371,32.605c-5.431,2.957-11.57,4.52-17.754,4.52H170c-1.919,0-3.798,0.552-5.412,1.591l-29.539,19.009
			l-30.66-30.717l91.212-118.924c1.339-1.746,2.065-3.886,2.065-6.086V62.69c11.859,4.144,20.389,15.443,20.389,28.698v3.552
			c-0.24,2.256,0.29,4.566,1.572,6.529l0.056,0.086c2.12,3.243,5.884,4.931,9.633,4.451C300.672,106.715,358.5,164.981,358.5,236.5
			V428h-28v-75c0-5.522-4.477-10-10-10s-10,4.478-10,10v75H181.667V380.605z M402,492H131.917v-10.5c0-18.472,15.028-33.5,33.5-33.5
			H368.5c18.472,0,33.5,15.028,33.5,33.5V492z"/>
	</g>
</g>
<g>
	<g>
		<path d="M218.15,163.51c-1.86-1.86-4.44-2.93-7.07-2.93s-5.21,1.069-7.07,2.93c-1.86,1.861-2.93,4.44-2.93,7.07
			c0,2.64,1.07,5.21,2.93,7.069c1.86,1.86,4.44,2.931,7.07,2.931c2.64,0,5.21-1.07,7.07-2.931c1.86-1.859,2.93-4.43,2.93-7.069
			C221.08,167.95,220.01,165.37,218.15,163.51z"/>
	</g>
</g>
<g>
	<g>
		<path d="M414.392,65.608C372.084,23.3,315.833,0,256,0S139.916,23.3,97.608,65.608C55.3,107.916,32,164.168,32,224
			c0,35.906,8.242,70.21,24.498,101.957c4.143,8.091,8.834,16.017,13.944,23.557c3.099,4.572,9.316,5.769,13.888,2.669
			c4.572-3.099,5.767-9.316,2.668-13.888c-4.654-6.868-8.926-14.086-12.699-21.453C59.503,287.943,52,256.706,52,224
			c0-112.486,91.514-204,204-204s204,91.514,204,204c0,32.029-7.209,62.686-21.427,91.117c-6.896,13.788-15.387,26.824-25.24,38.746
			c-3.518,4.257-2.919,10.561,1.338,14.078c1.865,1.541,4.121,2.292,6.365,2.292c2.879,0,5.736-1.237,7.714-3.63
			c10.815-13.088,20.139-27.4,27.71-42.541C472.081,292.828,480,259.162,480,224C480,164.168,456.7,107.916,414.392,65.608z"/>
	</g>
</g>
<g>
	<g>
		<path d="M107.324,363.685l-0.075-0.081c-3.759-4.048-10.085-4.281-14.133-0.523c-4.047,3.758-4.281,10.086-0.523,14.133
			c0.005,0.005,0.07,0.074,0.078,0.083c1.97,2.121,4.645,3.193,7.328,3.193c2.435,0,4.877-0.885,6.802-2.672
			C110.848,374.06,111.082,367.732,107.324,363.685z"/>
	</g>
</g>
<g>
	<g>
		<path d="M327.57,312.499c-1.86-1.86-4.44-2.931-7.07-2.931s-5.21,1.07-7.07,2.931c-1.86,1.859-2.93,4.439-2.93,7.08
			c0,2.63,1.07,5.2,2.93,7.06c1.86,1.871,4.44,2.93,7.07,2.93s5.21-1.06,7.07-2.93c1.86-1.859,2.93-4.43,2.93-7.06
			C330.5,316.938,329.43,314.369,327.57,312.499z"/>
	</g>
</g>
<g>
</g>
<g>
</g>
<g>
</g>
<g>
</g>
<g>
</g>
<g>
</g>
<g>
</g>
<g>
</g>
<g>
</g>
<g>
</g>
<g>
</g>
<g>
</g>
<g>
</g>
<g>
</g>
<g>
</g>
</svg>
