<?xml version="1.0" encoding="iso-8859-1"?>
<!-- Generator: Adobe Illustrator 19.0.0, SVG Export Plug-In . SVG Version: 6.00 Build 0)  -->
<svg version="1.1" id="Capa_1" xmlns="http://www.w3.org/2000/svg" xmlns:xlink="http://www.w3.org/1999/xlink" x="0px" y="0px"
	 viewBox="0 0 512 512" style="enable-background:new 0 0 512 512;" xml:space="preserve">
<g>
	<g>
		<path d="M443.686,80.314C399.632,36.262,341.061,12,278.76,12c-5.523,0-10,4.478-10,10v223.24c0,2.652,1.054,5.195,2.929,7.071
			l157.854,157.854c1.953,1.952,4.512,2.929,7.071,2.929s5.119-0.977,7.071-2.929C487.739,366.111,512,307.54,512,245.24
			C512,182.939,487.739,124.368,443.686,80.314z M288.76,32.231c17.989,0.835,35.398,3.917,51.963,8.957L288.76,93.151V32.231z
			 M288.76,121.398c0.134-0.12,0.272-0.234,0.401-0.363l72.321-72.321c10.372,4.382,20.328,9.558,29.79,15.458L288.76,166.685
			V121.398z M288.76,241.098V194.97L407.99,75.74c8.506,6.5,16.51,13.623,23.944,21.304l-92.645,92.646
			c-3.905,3.905-3.905,10.237,0,14.143c1.953,1.952,4.512,2.929,7.071,2.929s5.119-0.977,7.071-2.929l91.754-91.755
			c6.78,8.456,12.926,17.439,18.374,26.875L325.087,277.425L288.76,241.098z M339.23,291.567l133.923-133.924
			c4.838,10.694,8.818,21.855,11.853,33.396L361.854,314.191L339.23,291.567z M436.453,388.79l-23.702-23.702l74.419-74.419
			C479.306,327.094,461.998,360.791,436.453,388.79z M491.276,258.276l-92.668,92.669l-22.611-22.611l113.791-113.791
			C491.24,224.569,492,234.817,492,245.24c0,4.265-0.138,8.508-0.385,12.73C491.502,258.073,491.385,258.168,491.276,258.276z"/>
	</g>
</g>
<g>
	<g>
		<path d="M398.166,417.543L243.24,262.617V43.521c0-5.522-4.477-10-10-10c-62.301,0-120.872,24.261-164.925,68.314
			C24.261,145.888,0,204.459,0,266.76s24.261,120.872,68.314,164.926C112.368,475.738,170.939,500,233.24,500
			c62.3,0,120.872-24.262,164.926-68.314C402.071,427.781,402.071,421.449,398.166,417.543z M233.24,480
			C115.659,480,20,384.341,20,266.76c0-114.23,90.283-207.769,203.24-213.008V266.76c0,0.777,0.101,1.541,0.276,2.285
			c-0.004,0-0.007,0-0.011,0l48.692,207.421C259.476,478.801,246.45,480,233.24,480z M291.677,471.936l-40.676-173.273
			l125.79,125.789C352.155,446.929,323.111,463.034,291.677,471.936z"/>
	</g>
</g>
<g>
	<g>
		<path d="M326.84,216.281c-1.86-1.86-4.44-2.931-7.07-2.931s-5.21,1.07-7.07,2.931c-1.86,1.859-2.93,4.439-2.93,7.069
			s1.07,5.21,2.93,7.07s4.44,2.93,7.07,2.93s5.21-1.07,7.07-2.93s2.93-4.44,2.93-7.07S328.7,218.14,326.84,216.281z"/>
	</g>
</g>
<g>
	<g>
		<path d="M57.546,256.438c-0.016,0-0.031,0-0.046,0c-5.501,0-9.974,4.447-9.999,9.954v0.368c0,5.522,4.477,10,10,10
			c5.523,0,10-4.478,10-10v-0.276C67.525,260.96,63.069,256.463,57.546,256.438z"/>
	</g>
</g>
<g>
	<g>
		<path d="M155.058,109.007c-2.734-4.8-8.84-6.474-13.639-3.738c-43.929,25.027-76.137,67.396-88.366,116.242
			c-1.341,5.357,1.915,10.788,7.272,12.129c0.815,0.204,1.632,0.302,2.436,0.302c4.479,0,8.556-3.031,9.693-7.573
			c10.91-43.577,39.655-81.383,78.865-103.723C156.118,119.913,157.792,113.806,155.058,109.007z"/>
	</g>
</g>
<g>
</g>
<g>
</g>
<g>
</g>
<g>
</g>
<g>
</g>
<g>
</g>
<g>
</g>
<g>
</g>
<g>
</g>
<g>
</g>
<g>
</g>
<g>
</g>
<g>
</g>
<g>
</g>
<g>
</g>
</svg>
