<?xml version="1.0" encoding="iso-8859-1"?>
<!-- Generator: Adobe Illustrator 19.0.0, SVG Export Plug-In . SVG Version: 6.00 Build 0)  -->
<svg version="1.1" id="Capa_1" xmlns="http://www.w3.org/2000/svg" xmlns:xlink="http://www.w3.org/1999/xlink" x="0px" y="0px"
	 viewBox="0 0 512.001 512.001" style="enable-background:new 0 0 512.001 512.001;" xml:space="preserve">
<g>
	<g>
		<path d="M454.034,149.112c6.533-8.008,10.459-18.223,10.459-29.34v-9.123c0-25.637-20.856-46.493-46.493-46.493
			s-46.493,20.856-46.493,46.493v9.123c0,11.121,3.929,21.34,10.467,29.349c-7.967,2.2-15.548,5.64-22.458,10.186v-7.252
			c0-30.174-24.548-54.723-54.722-54.723h-6.457c7.745-9.428,12.402-21.485,12.402-34.61v-8.111C310.738,24.5,286.24,0,256.127,0
			S201.516,24.5,201.516,54.612v8.111c0,13.125,4.657,25.182,12.402,34.61h-6.457c-30.174,0-54.722,24.549-54.722,54.723v7.425
			c-6.978-4.63-14.647-8.132-22.712-10.359c6.537-8.01,10.467-18.228,10.467-29.349v-9.123c0-25.637-20.856-46.493-46.493-46.493
			c-25.637,0-46.493,20.856-46.493,46.493v9.123c0,11.117,3.926,21.331,10.459,29.34C24.591,158.318,0,188.926,0,225.188v81.846
			c0,17.391,14.148,31.539,31.539,31.539h8.389V502c0,5.522,4.477,10,10,10h43.938c0.021,0,0.041-0.003,0.062-0.003
			S93.969,512,93.99,512h43.938c5.523,0,10-4.478,10-10V338.573h8.534c17.333,0,31.442-14.056,31.534-31.369
			c3.242,1.238,6.63,2.173,10.131,2.777V502c0,5.522,4.477,10,10,10h96c5.523,0,10-4.478,10-10v-96.948c0-5.522-4.477-10-10-10
			s-10,4.478-10,10V492h-28V323.306c0-5.522-4.477-10-10-10s-10,4.478-10,10V492h-28V279.556h76v48.163c0,5.522,4.477,10,10,10
			s10-4.478,10-10v-17.737c3.41-0.589,6.715-1.487,9.88-2.678c0.146,17.266,14.232,31.269,31.532,31.269h8.534V502
			c0,5.522,4.477,10,10,10h43.938c0.021,0,0.041-0.003,0.062-0.003s0.041,0.003,0.062,0.003h43.938c5.523,0,10-4.478,10-10V338.573
			h8.389c17.391,0,31.539-14.148,31.539-31.539v-81.846C512,188.926,487.409,158.318,454.034,149.112z M67.507,110.649
			c0-14.608,11.885-26.493,26.493-26.493s26.493,11.885,26.493,26.493v9.123c0,14.608-11.885,26.493-26.493,26.493
			s-26.493-11.885-26.493-26.493V110.649z M127.928,492H103.99V338c0-5.522-4.477-10-10-10s-10,4.478-10,10v10.5
			c-0.074,0.49-0.125,0.989-0.125,1.5v142H59.928V298.994h68V492z M167.999,307.033c0.001,6.363-5.175,11.54-11.538,11.54h-8.534
			v-53.226c0-5.522-4.477-10-10-10s-10,4.478-10,10v13.646h-68v-45.477c0-5.522-4.477-10-10-10s-10,4.478-10,10v85.056h-8.389
			c-6.362,0-11.539-5.177-11.539-11.539v-81.846c0-32.49,26.433-58.923,58.923-58.923h30.154c16.585,0,32.494,7.049,43.647,19.34
			c0.004,0.005,0.009,0.009,0.014,0.014v70.453c0,14.679,5.821,28.016,15.262,37.854V307.033z M256.127,20
			c19.085,0,34.611,15.526,34.611,34.611v8.111c0,19.084-15.526,34.61-34.611,34.61c-19.085,0-34.611-15.526-34.611-34.61v-8.111h0
			C221.516,35.526,237.042,20,256.127,20z M339.515,256.073c0,15.913-10.763,29.35-25.389,33.438V152.056
			c0.001-5.523-4.476-10-9.999-10s-10,4.478-10,10v107.5h-76v-107.5c0-5.522-4.477-10-10-10s-10,4.478-10,10V289.51
			c-14.626-4.088-25.389-17.525-25.389-33.438V152.056c0-19.146,15.576-34.723,34.722-34.723h38.333v27.327c0,5.522,4.477,10,10,10
			c5.523,0,10-4.478,10-10v-27.327h39c19.146,0,34.722,15.576,34.722,34.723V256.073z M391.507,110.649
			c0-14.608,11.885-26.493,26.493-26.493c14.608,0,26.493,11.885,26.493,26.493v9.123c0,14.608-11.885,26.493-26.493,26.493
			c-14.608,0-26.493-11.885-26.493-26.493V110.649z M452.072,492h-23.937V350c0-0.511-0.051-1.009-0.125-1.5V338
			c0-5.522-4.477-10-10-10s-10,4.478-10,10v154h-23.938V298.994h68V492z M480.461,318.573h-8.389v-85.056c0-5.522-4.477-10-10-10
			s-10,4.478-10,10v45.477h-68v-13.646c0-5.522-4.477-10-10-10s-10,4.478-10,10v53.226h-8.534c-6.362,0-11.539-5.177-11.539-11.539
			v-12.842c9.592-9.862,15.516-23.309,15.516-38.12v-70.718c11.142-12.132,26.938-19.089,43.407-19.089h30.154
			c32.49,0,58.923,26.433,58.923,58.923v81.845H492C492,313.396,486.824,318.573,480.461,318.573z"/>
	</g>
</g>
<g>
	<g>
		<path d="M311.2,358.65c-1.86-1.87-4.44-2.93-7.07-2.93s-5.21,1.061-7.07,2.93c-1.87,1.86-2.93,4.44-2.93,7.07s1.06,5.21,2.93,7.07
			c1.86,1.859,4.44,2.93,7.07,2.93s5.2-1.07,7.07-2.93c1.86-1.86,2.93-4.44,2.93-7.07S313.06,360.51,311.2,358.65z"/>
	</g>
</g>
<g>
	<g>
		<path d="M262.86,174.96c-1.86-1.86-4.43-2.93-7.07-2.93c-2.63,0-5.21,1.069-7.07,2.93c-1.86,1.859-2.93,4.439-2.93,7.07
			c0,2.63,1.07,5.21,2.93,7.069c1.86,1.86,4.44,2.931,7.07,2.931c2.64,0,5.21-1.07,7.07-2.931c1.87-1.859,2.93-4.439,2.93-7.069
			C265.79,179.399,264.73,176.819,262.86,174.96z"/>
	</g>
</g>
<g>
</g>
<g>
</g>
<g>
</g>
<g>
</g>
<g>
</g>
<g>
</g>
<g>
</g>
<g>
</g>
<g>
</g>
<g>
</g>
<g>
</g>
<g>
</g>
<g>
</g>
<g>
</g>
<g>
</g>
</svg>
