<?xml version="1.0" encoding="iso-8859-1"?>
<!-- Generator: Adobe Illustrator 19.0.0, SVG Export Plug-In . SVG Version: 6.00 Build 0)  -->
<svg version="1.1" id="Capa_1" xmlns="http://www.w3.org/2000/svg" xmlns:xlink="http://www.w3.org/1999/xlink" x="0px" y="0px"
	 viewBox="0 0 512.001 512.001" style="enable-background:new 0 0 512.001 512.001;" xml:space="preserve">
<g>
	<g>
		<path d="M304.442,321.03h-0.139c-5.523,0-10,4.478-10,10c0,5.522,4.477,10,10,10h0.139c5.523,0,10-4.478,10-10
			C314.442,325.508,309.965,321.03,304.442,321.03z"/>
	</g>
</g>
<g>
	<g>
		<path d="M510.783,477.188l-246-451.938c-1.751-3.217-5.121-5.219-8.783-5.219c-3.663,0-7.032,2.002-8.783,5.219l-246,451.938
			c-1.687,3.099-1.616,6.856,0.187,9.89c1.803,3.034,5.069,4.892,8.597,4.892h492c3.528,0,6.794-1.858,8.597-4.892
			C512.399,484.044,512.47,480.286,510.783,477.188z M256,50.948l65.908,121.083H190.092L256,50.948z M26.829,471.969
			l71.272-130.938H267c5.523,0,10-4.478,10-10c0-5.522-4.477-10-10-10H108.988l70.218-129h153.59l70.218,129h-59.346
			c-5.523,0-10,4.478-10,10c0,5.522,4.477,10,10,10h70.233l71.272,130.938H26.829z"/>
	</g>
</g>
<g>
	<g>
		<path d="M510.476,77.891l-33.294-53.167c-1.829-2.919-5.031-4.692-8.476-4.692s-6.647,1.773-8.476,4.692l-33.294,53.167
			c-1.93,3.083-2.035,6.97-0.273,10.151c1.762,3.181,5.113,5.156,8.749,5.156h3.294v204.333c0,5.522,4.477,10,10,10s10-4.478,10-10
			V83.198c0-4.025-2.379-7.496-5.808-9.082l15.808-25.243l15.808,25.243c-3.429,1.586-5.808,5.057-5.808,9.082v214.333
			c0,5.522,4.477,10,10,10s10-4.478,10-10V93.198H502c3.637,0,6.987-1.975,8.749-5.156C512.511,84.86,512.406,80.974,510.476,77.891
			z"/>
	</g>
</g>
<g>
	<g>
		<path d="M70.37,290.46c-1.87-1.86-4.45-2.93-7.08-2.93c-2.63,0-5.2,1.07-7.07,2.93c-1.86,1.859-2.93,4.439-2.93,7.07
			c0,2.63,1.07,5.21,2.93,7.069c1.87,1.86,4.44,2.931,7.07,2.931c2.63,0,5.21-1.07,7.08-2.931c1.86-1.859,2.92-4.439,2.92-7.069
			C73.29,294.899,72.23,292.319,70.37,290.46z"/>
	</g>
</g>
<g>
	<g>
		<path d="M85.064,77.891L51.77,24.724c-1.829-2.919-5.031-4.692-8.476-4.692s-6.647,1.773-8.476,4.692L1.525,77.891
			c-1.93,3.083-2.035,6.97-0.273,10.151c1.762,3.181,5.111,5.156,8.748,5.156h3.294v204.333c0,5.522,4.477,10,10,10s10-4.478,10-10
			V83.198c0-4.025-2.379-7.496-5.808-9.082l15.808-25.243l15.808,25.243c-3.429,1.586-5.808,5.057-5.808,9.082V258
			c0,5.522,4.477,10,10,10s10-4.478,10-10V93.198h3.294c3.637,0,6.987-1.975,8.749-5.156C87.099,84.861,86.994,80.974,85.064,77.891
			z"/>
	</g>
</g>
<g>
</g>
<g>
</g>
<g>
</g>
<g>
</g>
<g>
</g>
<g>
</g>
<g>
</g>
<g>
</g>
<g>
</g>
<g>
</g>
<g>
</g>
<g>
</g>
<g>
</g>
<g>
</g>
<g>
</g>
</svg>
