<?xml version="1.0" encoding="iso-8859-1"?>
<!-- Generator: Adobe Illustrator 19.0.0, SVG Export Plug-In . SVG Version: 6.00 Build 0)  -->
<svg version="1.1" id="Capa_1" xmlns="http://www.w3.org/2000/svg" xmlns:xlink="http://www.w3.org/1999/xlink" x="0px" y="0px"
	 viewBox="0 0 511.999 511.999" style="enable-background:new 0 0 511.999 511.999;" xml:space="preserve">
<g>
	<g>
		<path d="M400.667,71.557c-23.633-30.915-57.141-53.825-94.348-64.509c-5.309-1.524-10.849,1.543-12.371,6.852
			c-1.524,5.308,1.543,10.847,6.852,12.372c69.004,19.813,117.197,83.849,117.197,155.725c0,44.708-17.82,86.335-50.177,117.213
			c-27.769,26.496-43.694,64.171-43.694,103.362v0.239c0,5.068-4.123,9.191-9.191,9.191h-1.436h-10.155V290.247h6.72
			c15.794,0,28.642-12.849,28.642-28.642v-70.842c0-31.578-21.13-58.3-49.988-66.811c4.478-6.44,7.111-14.254,7.111-22.674v-7.458
			c0-21.961-17.867-39.828-39.828-39.828s-39.828,17.867-39.828,39.828v7.458c0,8.421,2.634,16.234,7.111,22.674
			c-28.858,8.511-49.988,35.231-49.988,66.811v70.842c0,15.794,12.849,28.642,28.642,28.642h6.943v121.755h-10.379h-1.182
			c-5.068,0-9.191-4.123-9.191-9.191c0-39.18-16.027-76.95-43.972-103.628c-31.573-30.141-49.377-70.745-50.13-114.332
			C92.784,112.766,140.441,47.769,209.92,26.792c5.287-1.596,8.279-7.176,6.683-12.463c-1.597-5.288-7.174-8.281-12.464-6.683
			C126.136,31.195,72.633,104.207,74.03,185.195c0.845,48.974,20.846,94.593,56.315,128.453
			c24.012,22.922,37.782,55.42,37.782,89.161c0,13.024,8.574,24.08,20.373,27.826v47.838c0,18.486,15.039,33.524,33.524,33.524
			h67.948c18.486,0,33.524-15.039,33.524-33.524v-47.758c11.93-3.668,20.627-14.79,20.627-27.906v-0.239
			c0-33.751,13.669-66.152,37.501-88.894c36.351-34.687,56.37-81.453,56.37-131.681C437.994,141.688,425.086,103.499,400.667,71.557
			z M236.171,93.822c0-10.934,8.896-19.829,19.829-19.829s19.829,8.895,19.829,19.829v7.458c0,10.934-8.896,19.829-19.829,19.829
			s-19.829-8.895-19.829-19.829V93.822z M208.877,194.492v75.755h-6.942c-4.766,0-8.643-3.877-8.643-8.643v-70.842
			c0-27.38,22.276-49.656,49.656-49.656h26.099c27.38,0,49.656,22.276,49.656,49.656v70.842c0,4.766-3.877,8.643-8.643,8.643h-6.72
			v-38.59c0-5.523-4.478-10-10-10c-5.522,0-10,4.477-10,10v7.161h-54.465v-44.326c0-5.523-4.478-10-10-10
			C213.355,184.492,208.877,188.969,208.877,194.492z M256.112,275.99c-5.522,0-10,4.478-10,10v22.258v103.755H228.88V258.818
			h54.464v153.184h-17.232V308.247v-22.258C266.112,280.468,261.634,275.99,256.112,275.99z M303.499,478.475
			c0,7.458-6.067,13.525-13.525,13.525h-67.949c-7.458,0-13.525-6.067-13.525-13.525V472h52.499c5.522,0,10-4.478,10-10
			c0-5.522-4.478-10-10-10H208.5v-20h94.998V478.475z"/>
	</g>
</g>
<g>
	<g>
		<path d="M256.804,0.001L255.651,0c-5.522,0.007-9.994,4.491-9.986,10.014c0.008,5.518,4.482,9.986,10,9.986c0,0,0.009,0,0.014,0
			l1.016,0.001c0.018,0,0.036,0,0.055,0c5.497,0,9.969-4.441,9.999-9.946C266.778,4.532,262.326,0.031,256.804,0.001z"/>
	</g>
</g>
<g>
	<g>
		<path d="M300.419,187.421c-1.87-1.86-4.44-2.93-7.08-2.93c-2.63,0-5.21,1.07-7.07,2.93c-1.859,1.86-2.92,4.44-2.92,7.07
			s1.061,5.21,2.92,7.07c1.86,1.86,4.44,2.93,7.07,2.93c2.64,0,5.21-1.07,7.08-2.93c1.859-1.86,2.93-4.44,2.93-7.07
			S302.279,189.281,300.419,187.421z"/>
	</g>
</g>
<g>
	<g>
		<path d="M501.995,172.222h-20.771c-5.522,0-10,4.477-10,10s4.478,10,10,10h20.771c5.522,0,10-4.477,10-10
			S507.517,172.222,501.995,172.222z"/>
	</g>
</g>
<g>
	<g>
		<path d="M494.387,261.454l-19.52-19.521c-3.906-3.905-10.236-3.905-14.143,0c-3.905,3.905-3.905,10.237,0,14.143l19.521,19.521
			c1.953,1.952,4.512,2.929,7.071,2.929c2.559,0,5.118-0.977,7.071-2.929C498.292,271.692,498.292,265.36,494.387,261.454z"/>
	</g>
</g>
<g>
	<g>
		<path d="M494.441,88.395c-3.906-3.905-10.238-3.905-14.143,0l-19.708,19.709c-3.905,3.905-3.905,10.237,0,14.142
			c1.954,1.953,4.512,2.929,7.072,2.929s5.119-0.977,7.071-2.929l19.708-19.709C498.346,98.632,498.346,92.3,494.441,88.395z"/>
	</g>
</g>
<g>
	<g>
		<path d="M30.775,171.771H10.004c-5.522,0-10,4.477-10,10s4.478,10,10,10h20.771c5.523,0,10-4.477,10-10
			S36.297,171.771,30.775,171.771z"/>
	</g>
</g>
<g>
	<g>
		<path d="M51.273,107.917L31.753,88.395c-3.905-3.905-10.235-3.905-14.143,0c-3.905,3.905-3.905,10.237,0,14.142l19.522,19.522
			c1.953,1.953,4.512,2.929,7.071,2.929s5.118-0.977,7.071-2.929C55.178,118.154,55.178,111.822,51.273,107.917z"/>
	</g>
</g>
<g>
	<g>
		<path d="M51.408,241.747c-3.906-3.906-10.236-3.905-14.142,0l-19.708,19.708c-3.905,3.905-3.905,10.237,0,14.143
			c1.953,1.952,4.512,2.929,7.071,2.929s5.118-0.977,7.071-2.929l19.708-19.709C55.312,251.984,55.312,245.652,51.408,241.747z"/>
	</g>
</g>
<g>
</g>
<g>
</g>
<g>
</g>
<g>
</g>
<g>
</g>
<g>
</g>
<g>
</g>
<g>
</g>
<g>
</g>
<g>
</g>
<g>
</g>
<g>
</g>
<g>
</g>
<g>
</g>
<g>
</g>
</svg>
