<?xml version="1.0" encoding="iso-8859-1"?>
<!-- Generator: Adobe Illustrator 19.0.0, SVG Export Plug-In . SVG Version: 6.00 Build 0)  -->
<svg version="1.1" id="Capa_1" xmlns="http://www.w3.org/2000/svg" xmlns:xlink="http://www.w3.org/1999/xlink" x="0px" y="0px"
	 viewBox="0 0 512 512" style="enable-background:new 0 0 512 512;" xml:space="preserve">
<g>
	<g>
		<path d="M402.182,59.473c-7.977-5.613-18.22-6.997-27.394-3.704l-130.709,46.884c-5.199,1.864-7.901,7.59-6.037,12.789
			c1.865,5.199,7.594,7.901,12.789,6.036L381.54,74.593c3.107-1.112,6.434-0.663,9.132,1.235s4.245,4.879,4.245,8.178v288.421
			c0,3.299-1.547,6.279-4.245,8.178c-2.698,1.899-6.025,2.35-9.132,1.235l-7.207-2.585V276.553c0-5.522-4.478-10-10-10
			c-5.522,0-10,4.478-10,10v95.528L139.937,295.18V161.255l43.313-15.537c5.199-1.864,7.901-7.59,6.037-12.789
			c-1.865-5.199-7.594-7.9-12.789-6.036l-48.3,17.325H50c-27.57,0-50,22.43-50,50v67.999c0,27.57,22.43,50,50,50h0.983
			l48.886,132.003c3.051,8.236,11.001,13.771,19.784,13.771h50.11c6.9,0,13.374-3.382,17.315-9.045
			c3.941-5.664,4.864-12.908,2.468-19.378l-40.719-109.949l225.96,81.05c3.287,1.179,6.709,1.758,10.116,1.758
			c6.105,0,12.159-1.861,17.277-5.463c7.975-5.611,12.735-14.783,12.735-24.534V84.007
			C414.917,74.255,410.156,65.085,402.182,59.473z M50,292.217c-16.542,0-30-13.458-30-30v-67.999c0-16.542,13.458-30,30-30h69.937
			v127.999H57.943H50z M170.792,436.513c0.049,0.132,0.198,0.537-0.129,1.006c-0.327,0.47-0.758,0.47-0.899,0.47h-50.11
			c-0.457,0-0.87-0.288-1.028-0.716L72.311,312.217h52.449L170.792,436.513z"/>
	</g>
</g>
<g>
	<g>
		<path d="M219.7,117.489c-1.86-1.87-4.44-2.93-7.07-2.93s-5.21,1.06-7.07,2.93c-1.859,1.86-2.93,4.43-2.93,7.07
			c0,2.63,1.07,5.2,2.93,7.07c1.86,1.86,4.44,2.93,7.07,2.93s5.21-1.07,7.07-2.93c1.859-1.87,2.93-4.44,2.93-7.07
			C222.63,121.919,221.56,119.349,219.7,117.489z"/>
	</g>
</g>
<g>
	<g>
		<path d="M453.947,184.598c-3.906-3.905-10.236-3.905-14.143,0c-3.905,3.905-3.905,10.237,0,14.142
			c7.874,7.874,12.211,18.342,12.211,29.477s-4.337,21.604-12.211,29.478c-3.905,3.905-3.905,10.237,0,14.143
			c1.953,1.952,4.512,2.929,7.071,2.929s5.118-0.977,7.071-2.929c11.651-11.651,18.068-27.143,18.068-43.62
			C472.016,211.74,465.599,196.248,453.947,184.598z"/>
	</g>
</g>
<g>
	<g>
		<path d="M482.221,156.323c-3.906-3.905-10.236-3.905-14.143,0c-3.905,3.905-3.905,10.237,0,14.142
			C483.505,185.891,492,206.401,492,228.218c0,21.815-8.495,42.326-23.922,57.751c-3.905,3.905-3.905,10.237,0,14.143
			c1.953,1.952,4.512,2.929,7.071,2.929s5.118-0.977,7.071-2.929c19.204-19.204,29.78-44.736,29.78-71.894
			C512,201.059,501.424,175.528,482.221,156.323z"/>
	</g>
</g>
<g>
	<g>
		<path d="M364.953,136.274h-22.407c-5.522,0-10,4.477-10,10c0,4.975,3.638,9.09,8.396,9.859l-71.063,71.064l-34.321-34.321
			c-3.906-3.905-10.236-3.905-14.143,0l-58.212,58.211c-3.905,3.905-3.905,10.237,0,14.143c1.953,1.952,4.512,2.929,7.071,2.929
			c2.559,0,5.118-0.977,7.071-2.929l51.14-51.14l34.321,34.321c3.906,3.905,10.236,3.904,14.143,0l78.142-78.142
			c0.762,4.767,4.881,8.412,9.862,8.412c5.522,0,10-4.477,10-10v-22.407C374.953,140.752,370.475,136.274,364.953,136.274z"/>
	</g>
</g>
<g>
	<g>
		<path d="M371.399,228.059c-1.859-1.86-4.429-2.93-7.069-2.93c-2.63,0-5.21,1.07-7.07,2.93c-1.86,1.86-2.93,4.44-2.93,7.07
			c0,2.64,1.069,5.21,2.93,7.07c1.86,1.86,4.44,2.93,7.07,2.93s5.21-1.07,7.069-2.93c1.86-1.86,2.931-4.44,2.931-7.07
			S373.26,229.919,371.399,228.059z"/>
	</g>
</g>
<g>
</g>
<g>
</g>
<g>
</g>
<g>
</g>
<g>
</g>
<g>
</g>
<g>
</g>
<g>
</g>
<g>
</g>
<g>
</g>
<g>
</g>
<g>
</g>
<g>
</g>
<g>
</g>
<g>
</g>
</svg>
