<?xml version="1.0" encoding="iso-8859-1"?>
<!-- Generator: Adobe Illustrator 19.0.0, SVG Export Plug-In . SVG Version: 6.00 Build 0)  -->
<svg version="1.1" id="Capa_1" xmlns="http://www.w3.org/2000/svg" xmlns:xlink="http://www.w3.org/1999/xlink" x="0px" y="0px"
	 viewBox="0 0 512 512" style="enable-background:new 0 0 512 512;" xml:space="preserve">
<g>
	<g>
		<path d="M458.119,409.169c5.24-7.519,8.325-16.647,8.325-26.487v-9.111c0-25.609-20.835-46.444-46.444-46.444
			s-46.444,20.835-46.444,46.444v9.111c0,9.84,3.085,18.968,8.325,26.487c-18.147,0.541-34.13,9.819-43.881,23.772
			c-9.751-13.953-25.733-23.23-43.881-23.772c5.24-7.519,8.325-16.647,8.325-26.487v-9.111c0-25.609-20.835-46.444-46.444-46.444
			s-46.444,20.835-46.444,46.444v9.111c0,9.84,3.085,18.968,8.325,26.487c-18.147,0.541-34.13,9.819-43.881,23.772
			c-9.751-13.953-25.733-23.23-43.881-23.772c5.24-7.519,8.325-16.647,8.325-26.487v-9.111c0-25.609-20.835-46.444-46.444-46.444
			s-46.444,20.835-46.444,46.444v9.111c0,9.84,3.085,18.968,8.325,26.487C24.021,410.06,0,434.61,0,464.683V502
			c0,5.522,4.478,10,10,10h164h164h164c5.522,0,10-4.478,10-10v-37.317C512,434.61,487.979,410.06,458.119,409.169z M65.556,373.571
			c0-14.581,11.863-26.444,26.444-26.444s26.444,11.863,26.444,26.444v9.111c0,14.581-11.863,26.444-26.444,26.444
			s-26.444-11.863-26.444-26.444V373.571z M164,492H20v-27.317c0-19.605,15.95-35.556,35.556-35.556H82v39.959
			c0,5.522,4.478,10,10,10c5.522,0,10-4.478,10-10v-39.959h26.444c19.605,0,35.556,15.95,35.556,35.556V492z M229.556,373.571
			c0-14.581,11.863-26.444,26.444-26.444s26.444,11.863,26.444,26.444v9.111c0,14.581-11.863,26.444-26.444,26.444
			s-26.444-11.863-26.444-26.444V373.571z M328,492H184v-27.317c0-19.605,15.95-35.556,35.556-35.556h26.571v39.959
			c0,5.522,4.478,10,10,10s10-4.478,10-10v-39.959h26.317c19.605,0,35.556,15.95,35.556,35.556V492z M393.556,373.571
			c0-14.581,11.863-26.444,26.444-26.444s26.444,11.863,26.444,26.444v9.111c0,14.581-11.863,26.444-26.444,26.444
			s-26.444-11.863-26.444-26.444V373.571z M492,492H348v-27.317c0-19.605,15.95-35.556,35.556-35.556h26.698v39.959
			c0,5.522,4.478,10,10,10c5.522,0,10-4.478,10-10v-39.959h26.19c19.605,0,35.556,15.95,35.556,35.556V492z"/>
	</g>
</g>
<g>
	<g>
		<path d="M263.069,193.93C261.21,192.07,258.63,191,256,191s-5.21,1.07-7.07,2.93S246,198.37,246,201s1.069,5.21,2.93,7.07
			c1.861,1.86,4.44,2.93,7.07,2.93s5.21-1.07,7.069-2.93c1.86-1.86,2.931-4.44,2.931-7.07S264.93,195.79,263.069,193.93z"/>
	</g>
</g>
<g>
	<g>
		<path d="M304.576,132.03h-4.116c9.367-10.522,15.073-24.371,15.073-39.534V61.724v-2.19C315.533,26.707,288.827,0,256,0
			c-32.827,0-59.533,26.707-59.533,59.534v32.963c0,15.162,5.706,29.011,15.073,39.534h-4.116c-40.804,0-74,33.196-74,74V236
			c0,5.523,4.478,10,10,10H246v24H92c-5.522,0-10,4.478-10,10v23.063c0,5.523,4.478,10,10,10c5.522,0,10-4.478,10-10V290h144v13.063
			c0,5.522,4.478,10,10,10c5.522,0,10-4.478,10-10V290h34.076c5.522,0,10-4.478,10-10c0-5.522-4.478-10-10-10H266v-24h102.576
			c5.522,0,10-4.477,10-10v-29.97C378.576,165.226,345.38,132.03,304.576,132.03z M256,20c19.829,0,36.296,14.675,39.109,33.735
			l-17.646-10.367c-4.211-2.474-9.593-1.544-12.73,2.199c-8.462,10.099-20.871,15.89-34.047,15.89h-14.219v-1.923h0
			C216.467,37.735,234.201,20,256,20z M216.467,81.458h14.219c16.225,0,31.648-6.056,43.447-16.85l21.4,12.573v15.316
			c0,21.799-17.734,39.534-39.533,39.534s-39.533-17.736-39.533-39.534V81.458z M358.576,226H153.424v-19.97
			c0-29.776,24.225-54,54-54H246V163c0,5.523,4.478,10,10,10c5.522,0,10-4.477,10-10v-10.97h38.576c29.775,0,54,24.224,54,54V226z"
			/>
	</g>
</g>
<g>
	<g>
		<path d="M343.15,272.93c-1.859-1.86-4.439-2.93-7.08-2.93c-2.631,0-5.211,1.069-7.06,2.93c-1.87,1.86-2.93,4.44-2.93,7.07
			s1.06,5.21,2.93,7.069c1.86,1.86,4.43,2.931,7.06,2.931c2.641,0,5.211-1.07,7.08-2.931c1.86-1.859,2.931-4.439,2.931-7.069
			S345.011,274.79,343.15,272.93z"/>
	</g>
</g>
<g>
	<g>
		<path d="M420.254,270h-51.678c-5.522,0-10,4.478-10,10c0,5.522,4.478,10,10,10h41.678v13.063c0,5.522,4.478,10,10,10
			c5.522,0,10-4.478,10-10V280C430.254,274.478,425.776,270,420.254,270z"/>
	</g>
</g>
<g>
</g>
<g>
</g>
<g>
</g>
<g>
</g>
<g>
</g>
<g>
</g>
<g>
</g>
<g>
</g>
<g>
</g>
<g>
</g>
<g>
</g>
<g>
</g>
<g>
</g>
<g>
</g>
<g>
</g>
</svg>
