<?xml version="1.0" encoding="iso-8859-1"?>
<!-- Generator: Adobe Illustrator 19.0.0, SVG Export Plug-In . SVG Version: 6.00 Build 0)  -->
<svg version="1.1" id="Capa_1" xmlns="http://www.w3.org/2000/svg" xmlns:xlink="http://www.w3.org/1999/xlink" x="0px" y="0px"
	 viewBox="0 0 512 512" style="enable-background:new 0 0 512 512;" xml:space="preserve">
<g>
	<g>
		<path d="M441.983,224.562c-0.004-4.917-3.581-9.104-8.438-9.873l-24.837-3.935l-12.791-30.847l14.765-20.356
			c2.888-3.98,2.452-9.469-1.026-12.945l-44.375-44.344c-3.479-3.477-8.97-3.907-12.945-1.017l-20.337,14.773l-30.87-12.773
			l-3.952-24.824c-0.773-4.854-4.96-8.427-9.876-8.427H256c-5.522,0-10,4.477-10,10c0,5.523,4.478,10,10,10h22.768l3.49,21.924
			c0.547,3.435,2.839,6.338,6.053,7.668l41.214,17.053c3.214,1.329,6.888,0.894,9.7-1.15l17.959-13.045l32.297,32.275
			l-13.039,17.977c-2.042,2.815-2.475,6.489-1.143,9.702l17.08,41.188c1.332,3.212,4.237,5.502,7.673,6.046l21.934,3.475
			l0.019,45.66l-21.92,3.49c-3.435,0.547-6.338,2.839-7.668,6.053l-17.054,41.214c-1.33,3.213-0.895,6.887,1.149,9.7l13.046,17.958
			l-32.274,32.297l-17.978-13.038c-2.815-2.042-6.489-2.475-9.701-1.143l-41.188,17.079c-3.213,1.332-5.503,4.238-6.047,7.673
			l-3.476,21.943H256c-5.522,0-10,4.478-10,10c0,5.522,4.478,10,10,10h31.435c4.919,0,9.107-3.577,9.877-8.436l3.936-24.851
			l30.848-12.791l20.356,14.765c3.979,2.887,9.469,2.453,12.944-1.026l44.344-44.374c3.477-3.479,3.907-8.968,1.018-12.945
			l-14.774-20.337l12.774-30.87l24.823-3.952c4.856-0.773,8.43-4.963,8.428-9.88L441.983,224.562z"/>
	</g>
</g>
<g>
	<g>
		<path d="M255.908,321.432c-5.481,0.048-9.909,4.507-9.909,10c0,5.522,4.478,10,10,10c0.128,0,0.334-0.004,0.463-0.009
			c5.519-0.212,9.82-4.857,9.607-10.377C265.86,325.6,261.318,321.369,255.908,321.432z"/>
	</g>
</g>
<g>
	<g>
		<path d="M255.999,170.569c-5.522,0-10,4.477-10,10c0,5.523,4.478,10,10,10c36.079,0,65.432,29.353,65.432,65.432
			c0,24.352-13.395,46.545-34.957,57.918c-4.885,2.576-6.757,8.625-4.18,13.51c1.791,3.397,5.262,5.337,8.854,5.337
			c1.572,0,3.169-0.372,4.656-1.157c28.144-14.844,45.627-43.815,45.627-75.608C341.431,208.894,303.107,170.569,255.999,170.569z"
			/>
	</g>
</g>
<g>
	<g>
		<path d="M58,444H10c-5.522,0-10,4.478-10,10v48c0,5.522,4.478,10,10,10h48c5.522,0,10-4.478,10-10v-48
			C68,448.478,63.522,444,58,444z M48,492H20v-28h28V492z"/>
	</g>
</g>
<g>
	<g>
		<path d="M502,444h-48c-5.522,0-10,4.478-10,10v48c0,5.522,4.478,10,10,10h48c5.522,0,10-4.478,10-10v-48
			C512,448.478,507.522,444,502,444z M492,492h-28v-28h28V492z"/>
	</g>
</g>
<g>
	<g>
		<path d="M58,0H10C4.478,0,0,4.477,0,10v48c0,5.523,4.478,10,10,10h48c5.522,0,10-4.477,10-10V10C68,4.477,63.522,0,58,0z M48,48
			H20V20h28V48z"/>
	</g>
</g>
<g>
	<g>
		<path d="M502,0h-48c-5.522,0-10,4.477-10,10v48c0,5.523,4.478,10,10,10h48c5.522,0,10-4.477,10-10V10C512,4.477,507.522,0,502,0z
			 M492,48h-28V20h28V48z"/>
	</g>
</g>
<g>
	<g>
		<path d="M478,387.571c-5.522,0-10,4.478-10,10v10c0,5.522,4.478,10,10,10c5.522,0,10-4.478,10-10v-10
			C488,392.049,483.522,387.571,478,387.571z"/>
	</g>
</g>
<g>
	<g>
		<path d="M478,337.571c-5.522,0-10,4.478-10,10v10c0,5.522,4.478,10,10,10c5.522,0,10-4.478,10-10v-10
			C488,342.049,483.522,337.571,478,337.571z"/>
	</g>
</g>
<g>
	<g>
		<path d="M478,96.025c-5.522,0-10,4.477-10,10v1.546c0,5.523,4.478,10,10,10c5.522,0,10-4.477,10-10v-1.546
			C488,100.502,483.522,96.025,478,96.025z"/>
	</g>
</g>
<g>
	<g>
		<path d="M478,287.571c-5.522,0-10,4.478-10,10v10c0,5.522,4.478,10,10,10c5.522,0,10-4.478,10-10v-10
			C488,292.049,483.522,287.571,478,287.571z"/>
	</g>
</g>
<g>
	<g>
		<path d="M478,137.571c-5.522,0-10,4.477-10,10v10c0,5.523,4.478,10,10,10c5.522,0,10-4.477,10-10v-10
			C488,142.048,483.522,137.571,478,137.571z"/>
	</g>
</g>
<g>
	<g>
		<path d="M478,237.571c-5.522,0-10,4.477-10,10v10c0,5.522,4.478,10,10,10c5.522,0,10-4.478,10-10v-10
			C488,242.048,483.522,237.571,478,237.571z"/>
	</g>
</g>
<g>
	<g>
		<path d="M478,187.571c-5.522,0-10,4.477-10,10v10c0,5.523,4.478,10,10,10c5.522,0,10-4.477,10-10v-10
			C488,192.048,483.522,187.571,478,187.571z"/>
	</g>
</g>
<g>
	<g>
		<path d="M34,237.571c-5.522,0-10,4.477-10,10v10c0,5.522,4.478,10,10,10s10-4.478,10-10v-10C44,242.048,39.522,237.571,34,237.571
			z"/>
	</g>
</g>
<g>
	<g>
		<path d="M34,287.571c-5.522,0-10,4.478-10,10v10c0,5.522,4.478,10,10,10s10-4.478,10-10v-10C44,292.049,39.522,287.571,34,287.571
			z"/>
	</g>
</g>
<g>
	<g>
		<path d="M34,96.025c-5.522,0-10,4.477-10,10v1.546c0,5.523,4.478,10,10,10s10-4.477,10-10v-1.546
			C44,100.502,39.522,96.025,34,96.025z"/>
	</g>
</g>
<g>
	<g>
		<path d="M34,187.571c-5.522,0-10,4.477-10,10v10c0,5.523,4.478,10,10,10s10-4.477,10-10v-10C44,192.048,39.522,187.571,34,187.571
			z"/>
	</g>
</g>
<g>
	<g>
		<path d="M34,337.571c-5.522,0-10,4.478-10,10v10c0,5.522,4.478,10,10,10s10-4.478,10-10v-10C44,342.049,39.522,337.571,34,337.571
			z"/>
	</g>
</g>
<g>
	<g>
		<path d="M34,137.571c-5.522,0-10,4.477-10,10v10c0,5.523,4.478,10,10,10s10-4.477,10-10v-10C44,142.048,39.522,137.571,34,137.571
			z"/>
	</g>
</g>
<g>
	<g>
		<path d="M34,387.571c-5.522,0-10,4.478-10,10v10c0,5.522,4.478,10,10,10s10-4.478,10-10v-10C44,392.049,39.522,387.571,34,387.571
			z"/>
	</g>
</g>
<g>
	<g>
		<path d="M315.228,468.798h-10c-5.522,0-10,4.478-10,10c0,5.522,4.478,10,10,10h10c5.522,0,10-4.478,10-10
			C325.228,473.276,320.75,468.798,315.228,468.798z"/>
	</g>
</g>
<g>
	<g>
		<path d="M215.228,468.798h-10c-5.522,0-10,4.478-10,10c0,5.522,4.478,10,10,10h10c5.522,0,10-4.478,10-10
			C225.228,473.276,220.75,468.798,215.228,468.798z"/>
	</g>
</g>
<g>
	<g>
		<path d="M265.228,468.798h-10c-5.522,0-10,4.478-10,10c0,5.522,4.478,10,10,10h10c5.522,0,10-4.478,10-10
			C275.228,473.276,270.75,468.798,265.228,468.798z"/>
	</g>
</g>
<g>
	<g>
		<path d="M165.228,468.798h-10c-5.522,0-10,4.478-10,10c0,5.522,4.478,10,10,10h10c5.522,0,10-4.478,10-10
			C175.228,473.276,170.75,468.798,165.228,468.798z"/>
	</g>
</g>
<g>
	<g>
		<path d="M365.228,468.798h-10c-5.522,0-10,4.478-10,10c0,5.522,4.478,10,10,10h10c5.522,0,10-4.478,10-10
			C375.228,473.276,370.75,468.798,365.228,468.798z"/>
	</g>
</g>
<g>
	<g>
		<path d="M115.228,468.798h-10c-5.522,0-10,4.478-10,10c0,5.522,4.478,10,10,10h10c5.522,0,10-4.478,10-10
			C125.228,473.276,120.75,468.798,115.228,468.798z"/>
	</g>
</g>
<g>
	<g>
		<path d="M406.772,468.798h-1.545c-5.522,0-10,4.478-10,10c0,5.522,4.478,10,10,10h1.545c5.522,0,10-4.478,10-10
			C416.772,473.276,412.295,468.798,406.772,468.798z"/>
	</g>
</g>
<g>
	<g>
		<path d="M315.228,24.798h-10c-5.522,0-10,4.477-10,10c0,5.523,4.477,10,10,10h10c5.522,0,10-4.477,10-10
			C325.228,29.275,320.75,24.798,315.228,24.798z"/>
	</g>
</g>
<g>
	<g>
		<path d="M265.228,24.798h-10c-5.522,0-10,4.477-10,10c0,5.523,4.477,10,10,10h10c5.522,0,10-4.477,10-10
			C275.228,29.275,270.75,24.798,265.228,24.798z"/>
	</g>
</g>
<g>
	<g>
		<path d="M406.773,24.798h-1.545c-5.522,0-10,4.477-10,10c0,5.523,4.477,10,10,10h1.545c5.522,0,10-4.477,10-10
			C416.773,29.275,412.295,24.798,406.773,24.798z"/>
	</g>
</g>
<g>
	<g>
		<path d="M365.228,24.798h-10c-5.522,0-10,4.477-10,10c0,5.523,4.477,10,10,10h10c5.522,0,10-4.477,10-10
			C375.228,29.275,370.75,24.798,365.228,24.798z"/>
	</g>
</g>
<g>
	<g>
		<path d="M215.228,24.798h-10c-5.522,0-10,4.477-10,10c0,5.523,4.477,10,10,10h10c5.522,0,10-4.477,10-10
			C225.228,29.275,220.75,24.798,215.228,24.798z"/>
	</g>
</g>
<g>
	<g>
		<path d="M165.228,24.798h-10c-5.522,0-10,4.477-10,10c0,5.523,4.477,10,10,10h10c5.522,0,10-4.477,10-10
			C175.228,29.275,170.75,24.798,165.228,24.798z"/>
	</g>
</g>
<g>
	<g>
		<path d="M115.228,24.798h-10c-5.522,0-10,4.477-10,10c0,5.523,4.478,10,10,10h10c5.522,0,10-4.477,10-10
			C125.228,29.275,120.75,24.798,115.228,24.798z"/>
	</g>
</g>
<g>
	<g>
		<path d="M159.2,217.93c-1.86-1.86-4.44-2.93-7.07-2.93c-2.64,0-5.21,1.07-7.07,2.93c-1.87,1.86-2.93,4.43-2.93,7.07
			c0,2.63,1.06,5.21,2.93,7.07c1.86,1.86,4.43,2.93,7.07,2.93c2.63,0,5.21-1.07,7.07-2.93c1.859-1.86,2.93-4.44,2.93-7.07
			S161.06,219.79,159.2,217.93z"/>
	</g>
</g>
<g>
	<g>
		<path d="M204.698,65.168h-41.143c-11.815,0-21.429,9.613-21.429,21.429v103.737c0,5.523,4.478,10,10,10c5.522,0,10-4.477,10-10
			v-43.451h44v201.968h-44V264c0-5.522-4.478-10-10-10c-5.522,0-10,4.478-10,10v94.851c0,1.38,0.285,2.744,0.839,4.008l32,73.143
			c1.592,3.641,5.188,5.992,9.161,5.992c3.973,0,7.569-2.352,9.161-5.992l32-73.143c0.554-1.264,0.839-2.628,0.839-4.008V86.597
			C226.127,74.781,216.514,65.168,204.698,65.168z M184.127,407.044l-16.71-38.193h33.419L184.127,407.044z M206.128,126.883
			h-44.001v-0.001V86.597c0-0.788,0.641-1.429,1.429-1.429h41.143c0.788,0,1.429,0.641,1.429,1.429V126.883z"/>
	</g>
</g>
<g>
</g>
<g>
</g>
<g>
</g>
<g>
</g>
<g>
</g>
<g>
</g>
<g>
</g>
<g>
</g>
<g>
</g>
<g>
</g>
<g>
</g>
<g>
</g>
<g>
</g>
<g>
</g>
<g>
</g>
</svg>
