<?xml version="1.0" encoding="iso-8859-1"?>
<!-- Generator: Adobe Illustrator 19.0.0, SVG Export Plug-In . SVG Version: 6.00 Build 0)  -->
<svg version="1.1" id="Capa_1" xmlns="http://www.w3.org/2000/svg" xmlns:xlink="http://www.w3.org/1999/xlink" x="0px" y="0px"
	 viewBox="0 0 512 512" style="enable-background:new 0 0 512 512;" xml:space="preserve">
<g>
	<g>
		<path d="M418.5,438H410v-18c0-12.843-8.114-23.822-19.483-28.093l-6.545-49.515c-0.724-5.475-5.754-9.329-11.224-8.604
			c-5.475,0.724-9.327,5.749-8.603,11.225L370.091,390H141.909l26.967-204H266c5.523,0,10-4.477,10-10s-4.477-10-10-10h-94.48
			l3.701-28h161.558l17.58,132.985c0.724,5.475,5.749,9.325,11.224,8.604c5.475-0.724,9.327-5.749,8.603-11.225L356.953,138H376
			c27.57,0,50-22.43,50-50V10c0-5.523-4.477-10-10-10h-72c-5.523,0-10,4.477-10,10v40h-32V10c0-5.523-4.477-10-10-10h-72
			c-5.523,0-10,4.477-10,10v40h-32V10c0-5.523-4.477-10-10-10H96c-5.523,0-10,4.477-10,10v78c0,27.57,22.43,50,50,50h19.047
			l-33.564,253.907C110.114,396.178,102,407.157,102,420v18h-8.5C78.336,438,66,450.337,66,465.5V502c0,5.522,4.477,10,10,10h360
			c5.523,0,10-4.478,10-10v-36.5C446,450.337,433.664,438,418.5,438z M136,118c-16.542,0-30-13.458-30-30V20h52v40
			c0,5.523,4.477,10,10,10h52c5.523,0,10-4.477,10-10V20h52v40c0,5.523,4.477,10,10,10h52c5.523,0,10-4.477,10-10V20h52v68
			c0,16.542-13.458,30-30,30H136z M122,420c0-5.514,4.486-10,10-10h248c5.514,0,10,4.486,10,10v18H122V420z M426,492H86v-26.5
			c0-4.136,3.364-7.5,7.5-7.5h325c4.136,0,7.5,3.364,7.5,7.5V492z"/>
	</g>
</g>
<g>
	<g>
		<path d="M376.03,298.06c-1.86-1.859-4.44-2.92-7.07-2.92c-2.63,0-5.21,1.06-7.07,2.92c-1.86,1.87-2.93,4.44-2.93,7.08
			c0,2.63,1.07,5.21,2.93,7.07c1.86,1.859,4.44,2.93,7.07,2.93s5.21-1.07,7.07-2.93s2.93-4.44,2.93-7.07
			C378.96,302.5,377.89,299.93,376.03,298.06z"/>
	</g>
</g>
<g>
	<g>
		<path d="M306.07,168.93c-1.86-1.86-4.44-2.93-7.07-2.93s-5.21,1.07-7.07,2.93c-1.86,1.86-2.93,4.44-2.93,7.07s1.07,5.21,2.93,7.07
			S296.37,186,299,186s5.21-1.07,7.07-2.93c1.86-1.86,2.93-4.44,2.93-7.07S307.93,170.79,306.07,168.93z"/>
	</g>
</g>
<g>
</g>
<g>
</g>
<g>
</g>
<g>
</g>
<g>
</g>
<g>
</g>
<g>
</g>
<g>
</g>
<g>
</g>
<g>
</g>
<g>
</g>
<g>
</g>
<g>
</g>
<g>
</g>
<g>
</g>
</svg>
