<?xml version="1.0" encoding="iso-8859-1"?>
<!-- Generator: Adobe Illustrator 19.0.0, SVG Export Plug-In . SVG Version: 6.00 Build 0)  -->
<svg version="1.1" id="Capa_1" xmlns="http://www.w3.org/2000/svg" xmlns:xlink="http://www.w3.org/1999/xlink" x="0px" y="0px"
	 viewBox="0 0 512 512" style="enable-background:new 0 0 512 512;" xml:space="preserve">
<g>
	<g>
		<path d="M454,54H58C26.019,54,0,80.019,0,112v288c0,31.981,26.019,58,58,58h205c5.523,0,10-4.478,10-10c0-5.522-4.477-10-10-10H58
			c-20.953,0-38-17.047-38-38V112c0-20.953,17.047-38,38-38h396c20.953,0,38,17.047,38,38v288c0,20.953-17.047,38-38,38H335.5
			c-5.523,0-10,4.478-10,10c0,5.522,4.477,10,10,10H454c31.981,0,58-26.019,58-58V112C512,80.019,485.981,54,454,54z"/>
	</g>
</g>
<g>
	<g>
		<path d="M306.07,440.93c-1.86-1.86-4.44-2.93-7.07-2.93s-5.21,1.069-7.07,2.93c-1.86,1.86-2.93,4.44-2.93,7.07
			s1.07,5.21,2.93,7.069c1.86,1.86,4.44,2.931,7.07,2.931s5.21-1.07,7.07-2.931c1.86-1.859,2.93-4.439,2.93-7.069
			S307.93,442.79,306.07,440.93z"/>
	</g>
</g>
<g>
	<g>
		<path d="M181.07,104.93c-1.86-1.86-4.44-2.93-7.07-2.93s-5.21,1.07-7.07,2.93S164,109.37,164,112s1.07,5.21,2.93,7.07
			S171.37,122,174,122s5.21-1.07,7.07-2.93S184,114.63,184,112S182.93,106.79,181.07,104.93z"/>
	</g>
</g>
<g>
	<g>
		<path d="M454,102H218c-5.523,0-10,4.477-10,10s4.477,10,10,10h226v268H68V122h59c5.523,0,10-4.477,10-10s-4.477-10-10-10H58
			c-5.523,0-10,4.477-10,10v288c0,5.522,4.477,10,10,10h396c5.523,0,10-4.478,10-10V112C464,106.477,459.523,102,454,102z"/>
	</g>
</g>
<g>
	<g>
		<path d="M384,146h-57c-3.52,0-6.78,1.851-8.585,4.872c-1.805,3.022-1.889,6.77-0.22,9.869L329.643,182l-11.447,21.259
			c-1.67,3.099-1.586,6.847,0.219,9.869C320.22,216.149,323.48,218,327,218h47v38c0,5.522,4.477,10,10,10s10-4.478,10-10v-48v-32
			v-20C394,150.477,389.523,146,384,146z M374,176v22h-30.258l6.063-11.259c1.593-2.96,1.593-6.522,0-9.482L343.742,166H374V176z"/>
	</g>
</g>
<g>
	<g>
		<path d="M350,246h-10c-5.523,0-10,4.477-10,10c0,5.522,4.477,10,10,10h10c5.523,0,10-4.478,10-10C360,250.477,355.523,246,350,246
			z"/>
	</g>
</g>
<g>
	<g>
		<path d="M182,246h-10c-5.523,0-10,4.477-10,10c0,5.522,4.477,10,10,10h10c5.523,0,10-4.478,10-10C192,250.477,187.523,246,182,246
			z"/>
	</g>
</g>
<g>
	<g>
		<path d="M308,246h-10c-5.523,0-10,4.477-10,10c0,5.522,4.477,10,10,10h10c5.523,0,10-4.478,10-10C318,250.477,313.523,246,308,246
			z"/>
	</g>
</g>
<g>
	<g>
		<path d="M128.631,322.681c-1.959-1.619-3.727-3.472-5.253-5.507c-3.313-4.419-9.582-5.315-14-2.002
			c-4.419,3.313-5.315,9.581-2.001,14c2.473,3.299,5.338,6.302,8.515,8.927c1.864,1.541,4.121,2.291,6.364,2.291
			c2.879,0,5.737-1.237,7.715-3.631C133.489,332.501,132.888,326.198,128.631,322.681z"/>
	</g>
</g>
<g>
	<g>
		<path d="M149.844,254.834c-1.17-5.398-6.491-8.823-11.89-7.656c-4.037,0.875-7.969,2.235-11.687,4.044
			c-4.966,2.417-7.033,8.401-4.617,13.367c1.731,3.558,5.292,5.627,9,5.627c1.468,0,2.959-0.324,4.368-1.01
			c2.281-1.11,4.694-1.945,7.17-2.481C147.586,265.555,151.014,260.232,149.844,254.834z"/>
	</g>
</g>
<g>
	<g>
		<path d="M162.003,330h-10c-5.523,0-10,4.478-10,10c0,5.522,4.477,10,10,10h10c5.523,0,10-4.478,10-10
			C172.003,334.478,167.526,330,162.003,330z"/>
	</g>
</g>
<g>
	<g>
		<path d="M113.131,273.953c-5.173-1.931-10.934,0.7-12.864,5.874c-1.442,3.866-2.42,7.908-2.905,12.016
			c-0.648,5.484,3.272,10.456,8.756,11.104c0.399,0.047,0.794,0.07,1.187,0.07c4.998,0.001,9.317-3.741,9.918-8.827
			c0.298-2.521,0.898-5.002,1.782-7.373C120.936,281.642,118.306,275.883,113.131,273.953z"/>
	</g>
</g>
<g>
	<g>
		<path d="M204.003,330h-10c-5.523,0-10,4.478-10,10c0,5.522,4.477,10,10,10h10c5.523,0,10-4.478,10-10
			C214.003,334.478,209.526,330,204.003,330z"/>
	</g>
</g>
<g>
	<g>
		<path d="M266,246h-10c-5.523,0-10,4.477-10,10c0,5.522,4.477,10,10,10h10c5.523,0,10-4.478,10-10C276,250.477,271.523,246,266,246
			z"/>
	</g>
</g>
<g>
	<g>
		<path d="M283.5,330h-5.497c-5.523,0-10,4.478-10,10c0,5.522,4.477,10,10,10h5.497c5.523,0,10-4.478,10-10
			C293.5,334.478,289.023,330,283.5,330z"/>
	</g>
</g>
<g>
	<g>
		<path d="M224,246h-10c-5.523,0-10,4.477-10,10c0,5.522,4.477,10,10,10h10c5.523,0,10-4.478,10-10C234,250.477,229.523,246,224,246
			z"/>
	</g>
</g>
<g>
	<g>
		<path d="M246.003,330h-10c-5.523,0-10,4.478-10,10c0,5.522,4.477,10,10,10h10c5.523,0,10-4.478,10-10
			C256.003,334.478,251.526,330,246.003,330z"/>
	</g>
</g>
<g>
	<g>
		<path d="M335.5,310c-16.542,0-30,13.458-30,30s13.458,30,30,30s30-13.458,30-30S352.042,310,335.5,310z M335.5,350
			c-5.514,0-10-4.486-10-10c0-5.514,4.486-10,10-10c5.514,0,10,4.486,10,10C345.5,345.514,341.014,350,335.5,350z"/>
	</g>
</g>
<g>
</g>
<g>
</g>
<g>
</g>
<g>
</g>
<g>
</g>
<g>
</g>
<g>
</g>
<g>
</g>
<g>
</g>
<g>
</g>
<g>
</g>
<g>
</g>
<g>
</g>
<g>
</g>
<g>
</g>
</svg>
