<?xml version="1.0" encoding="iso-8859-1"?>
<!-- Generator: Adobe Illustrator 19.0.0, SVG Export Plug-In . SVG Version: 6.00 Build 0)  -->
<svg version="1.1" id="Capa_1" xmlns="http://www.w3.org/2000/svg" xmlns:xlink="http://www.w3.org/1999/xlink" x="0px" y="0px"
	 viewBox="0 0 512 512" style="enable-background:new 0 0 512 512;" xml:space="preserve">
<g>
	<g>
		<path d="M509.07,93.915l-91-90.987C416.195,1.053,413.652,0,411,0H114C97.458,0,84,13.458,84,30v90c0,5.523,4.477,10,10,10
			s10-4.477,10-10V30c0-5.514,4.486-10,10-10h287v61c0,16.542,13.458,30,30,30h61v333h-88.192c-5.523,0-10,4.478-10,10
			c0,5.522,4.477,10,10,10H492v18c0,5.514-4.486,10-10,10H114c-5.523,0-10,4.478-10,10c0,5.522,4.477,10,10,10h368
			c16.542,0,30-13.458,30-30V100.987C512,98.334,510.946,95.791,509.07,93.915z M431,91c-5.514,0-10-4.486-10-10V34.14L477.869,91
			H431z"/>
	</g>
</g>
<g>
	<g>
		<path d="M377.07,446.93c-1.86-1.86-4.44-2.93-7.07-2.93s-5.21,1.069-7.07,2.93c-1.86,1.86-2.93,4.44-2.93,7.07
			s1.07,5.21,2.93,7.069c1.86,1.86,4.44,2.931,7.07,2.931s5.21-1.07,7.07-2.931c1.86-1.859,2.93-4.439,2.93-7.069
			S378.93,448.79,377.07,446.93z"/>
	</g>
</g>
<g>
	<g>
		<path d="M425.923,276.713V229c0-5.523-4.477-10-10-10H308v-24.418h29.791c5.523,0,10-4.477,10-10v-80c0-5.523-4.477-10-10-10h-80
			c-5.523,0-10,4.477-10,10v80c0,5.523,4.477,10,10,10H288V219H180.077c-5.523,0-10,4.477-10,10v47.713
			c-18.344,4.5-31.998,21.075-31.998,40.787c0,23.159,18.841,42,42,42s42-18.841,42-42c0-19.714-13.656-36.29-32.002-40.788V239
			h98.05v37.683C269.718,281.137,256,297.742,256,317.5c0,23.159,18.841,42,42,42s42-18.841,42-42
			c0-19.668-13.591-36.214-31.873-40.758V239h97.796v37.713c-18.345,4.499-32,21.074-32,40.787c0,23.159,18.841,42,42,42
			s42-18.841,42-42C457.923,297.787,444.268,281.211,425.923,276.713z M202.079,317.5c0,12.131-9.869,22-22,22
			c-12.131,0-22-9.869-22-22c0-12.131,9.869-22,22-22C192.21,295.5,202.079,305.369,202.079,317.5z M267.791,174.582v-60h60v60
			H267.791z M320,317.5c0,12.131-9.869,22-22,22c-12.131,0-22-9.869-22-22c0-12.131,9.869-22,22-22
			C310.131,295.5,320,305.369,320,317.5z M415.923,339.5c-12.131,0-22-9.869-22-22c0-12.131,9.869-22,22-22c12.131,0,22,9.869,22,22
			C437.923,329.631,428.054,339.5,415.923,339.5z"/>
	</g>
</g>
<g>
	<g>
		<path d="M81.07,274.93C79.21,273.07,76.63,272,74,272s-5.21,1.069-7.07,2.93C65.07,276.79,64,279.36,64,282
			c0,2.63,1.07,5.21,2.93,7.069C68.79,290.93,71.37,292,74,292s5.21-1.07,7.07-2.931C82.93,287.21,84,284.63,84,282
			S82.93,276.79,81.07,274.93z"/>
	</g>
</g>
<g>
	<g>
		<path d="M114,359c-5.523,0-10,4.478-10,10v84.333c0,3.676-2.991,6.667-6.667,6.667H84V324c0-5.522-4.477-10-10-10s-10,4.478-10,10
			v114H20V187h44v51c0,5.523,4.477,10,10,10s10-4.477,10-10v-61c0-1.485-0.331-2.951-0.968-4.292L52,107.411V77
			c0-5.523-4.477-10-10-10s-10,4.477-10,10v30.411L0.968,172.708C0.331,174.049,0,175.515,0,177v315c0,11.028,8.972,20,20,20h44
			c11.028,0,20-8.972,20-20v-12h13.333C112.038,480,124,468.037,124,453.333V369C124,363.478,119.523,359,114,359z M42,132.963
			L58.176,167H25.824L42,132.963z M64,492H20v-34h44V492z"/>
	</g>
</g>
<g>
</g>
<g>
</g>
<g>
</g>
<g>
</g>
<g>
</g>
<g>
</g>
<g>
</g>
<g>
</g>
<g>
</g>
<g>
</g>
<g>
</g>
<g>
</g>
<g>
</g>
<g>
</g>
<g>
</g>
</svg>
