<?xml version="1.0" encoding="iso-8859-1"?>
<!-- Generator: Adobe Illustrator 19.0.0, SVG Export Plug-In . SVG Version: 6.00 Build 0)  -->
<svg version="1.1" id="Capa_1" xmlns="http://www.w3.org/2000/svg" xmlns:xlink="http://www.w3.org/1999/xlink" x="0px" y="0px"
	 viewBox="0 0 511.999 511.999" style="enable-background:new 0 0 511.999 511.999;" xml:space="preserve">
<g>
	<g>
		<path d="M289.909,74.743C294.99,67.798,298,59.245,298,50v-8c0-23.159-18.841-42-42-42s-42,18.841-42,42v8
			c0,9.245,3.01,17.798,8.091,24.743C190.93,83.461,168,112.094,168,146v76c0,16.542,13.458,30,30,30h8.063v132
			c0,5.522,4.477,10,10,10h80c5.523,0,10-4.478,10-10V252H314c16.542,0,30-13.458,30-30v-76
			C344,112.094,321.07,83.461,289.909,74.743z M234,42c0-12.131,9.869-22,22-22s22,9.869,22,22v8c0,12.131-9.869,22-22,22
			c-12.131,0-22-9.869-22-22V42z M286.064,374H266.12V266.5c0-0.486-0.046-0.959-0.113-1.426V236c0-5.523-4.477-10-10-10
			s-10,4.477-10,10v138h-19.943V209.5h60V374z M324,222c0,5.514-4.486,10-10,10h-7.937v-44.5c0-5.523-4.477-10-10-10
			s-10,4.477-10,10v2h-60V150c0-5.523-4.477-10-10-10s-10,4.477-10,10v82H198c-5.514,0-10-4.486-10-10v-76c0-29.776,24.224-54,54-54
			h28c29.776,0,54,24.224,54,54V222z"/>
	</g>
</g>
<g>
	<g>
		<path d="M507.308,419.524l-53.167-33.294c-3.083-1.931-6.97-2.033-10.151-0.273c-3.182,1.762-5.156,5.112-5.156,8.749V398h-83
			c-5.523,0-10,4.478-10,10c0,5.522,4.477,10,10,10h93c4.026,0,7.496-2.379,9.082-5.808L483.159,428l-25.244,15.808
			c-1.585-3.429-5.056-5.808-9.082-5.808h-93c-5.523,0-10,4.478-10,10c0,5.522,4.477,10,10,10h83v3.294
			c0,3.637,1.975,6.987,5.156,8.749c1.509,0.835,3.178,1.251,4.843,1.251c1.846,0,3.688-0.51,5.308-1.524l53.167-33.294
			c2.919-1.828,4.692-5.031,4.692-8.476S510.227,421.353,507.308,419.524z"/>
	</g>
</g>
<g>
	<g>
		<path d="M298.043,443.989c-1.762-3.181-5.112-5.156-8.749-5.156H286v-12.5c0-5.522-4.477-10-10-10s-10,4.478-10,10v22.5
			c0,4.025,2.379,7.496,5.808,9.082L256,483.158l-15.808-25.243c3.429-1.586,5.808-5.057,5.808-9.082v-22.5c0-5.522-4.477-10-10-10
			s-10,4.478-10,10v12.5h-3.294c-3.637,0-6.987,1.975-8.749,5.156c-1.762,3.181-1.657,7.068,0.273,10.151l33.294,53.167
			c1.829,2.919,5.031,4.692,8.476,4.692s6.647-1.773,8.476-4.692l33.294-53.167C299.7,451.057,299.805,447.17,298.043,443.989z"/>
	</g>
</g>
<g>
	<g>
		<path d="M163.24,440.93c-1.87-1.861-4.44-2.93-7.07-2.93s-5.21,1.069-7.07,2.93c-1.87,1.86-2.93,4.44-2.93,7.07
			s1.06,5.21,2.93,7.069c1.86,1.86,4.44,2.931,7.07,2.931s5.2-1.07,7.07-2.931c1.86-1.859,2.93-4.439,2.93-7.069
			S165.1,442.79,163.24,440.93z"/>
	</g>
</g>
<g>
	<g>
		<path d="M156.167,398h-83v-3.294c0-3.637-1.975-6.987-5.156-8.749c-3.182-1.76-7.069-1.656-10.151,0.273L4.692,419.524
			C1.773,421.353,0,424.556,0,428c0,3.444,1.773,6.647,4.692,8.476l53.167,33.294c1.621,1.015,3.462,1.524,5.308,1.524
			c1.666,0,3.334-0.416,4.843-1.251c3.182-1.762,5.156-5.112,5.156-8.749V458h40.5c5.523,0,10-4.478,10-10
			c0-5.522-4.476-10-9.999-10h-50.5c-4.026,0-7.496,2.379-9.082,5.808L28.841,428l25.244-15.808
			c1.585,3.429,5.056,5.808,9.082,5.808h93c5.523,0,10-4.478,10-10C166.167,402.478,161.69,398,156.167,398z"/>
	</g>
</g>
<g>
	<g>
		<path d="M303.13,142.93c-1.86-1.86-4.43-2.93-7.07-2.93c-2.63,0-5.21,1.07-7.07,2.93c-1.86,1.86-2.93,4.44-2.93,7.07
			s1.07,5.21,2.93,7.07c1.87,1.86,4.44,2.93,7.07,2.93c2.64,0,5.21-1.07,7.07-2.93c1.87-1.86,2.93-4.44,2.93-7.07
			S305,144.79,303.13,142.93z"/>
	</g>
</g>
<g>
</g>
<g>
</g>
<g>
</g>
<g>
</g>
<g>
</g>
<g>
</g>
<g>
</g>
<g>
</g>
<g>
</g>
<g>
</g>
<g>
</g>
<g>
</g>
<g>
</g>
<g>
</g>
<g>
</g>
</svg>
