<?xml version="1.0" encoding="iso-8859-1"?>
<!-- Generator: Adobe Illustrator 19.0.0, SVG Export Plug-In . SVG Version: 6.00 Build 0)  -->
<svg version="1.1" id="Capa_1" xmlns="http://www.w3.org/2000/svg" xmlns:xlink="http://www.w3.org/1999/xlink" x="0px" y="0px"
	 viewBox="0 0 512 512" style="enable-background:new 0 0 512 512;" xml:space="preserve">
<g>
	<g>
		<path d="M207.19,262.93c-1.86-1.86-4.44-2.93-7.07-2.93s-5.21,1.069-7.07,2.93c-1.86,1.861-2.93,4.44-2.93,7.07
			s1.07,5.21,2.93,7.069c1.86,1.86,4.44,2.931,7.07,2.931s5.21-1.07,7.07-2.931c1.86-1.859,2.93-4.439,2.93-7.069
			S209.05,264.79,207.19,262.93z"/>
	</g>
</g>
<g>
	<g>
		<path d="M462,0H183.111c-5.523,0-10,4.477-10,10s4.477,10,10,10H462c16.542,0,30,13.458,30,30v180c0,16.542-13.458,30-30,30
			H240.333c-5.523,0-10,4.478-10,10c0,5.522,4.477,10,10,10H462c27.57,0,50-22.43,50-50V50C512,22.43,489.57,0,462,0z"/>
	</g>
</g>
<g>
	<g>
		<path d="M462,40H182c-5.523,0-10,4.477-10,10v19c0,5.523,4.477,10,10,10s10-4.477,10-10v-9h260v160H286.475l43.025-43.024
			l20.095,20.096c3.905,3.904,10.237,3.904,14.143,0l44.616-44.616c0.211,5.336,4.592,9.6,9.98,9.6c5.523,0,10-4.477,10-10v-24.111
			c0-5.523-4.477-10-10-10h-24.111c-5.523,0-10,4.477-10,10s4.477,10,10,10h0.358l-37.913,37.914l-20.095-20.096
			c-3.905-3.904-10.236-3.904-14.143,0L258.19,220h-54.524c-5.523,0-10,4.477-10,10s4.477,10,10,10H462c5.523,0,10-4.477,10-10V50
			C472,44.477,467.523,40,462,40z"/>
	</g>
</g>
<g>
	<g>
		<path d="M252.128,97.334H141.431c7.745-9.428,12.402-21.486,12.402-34.611v-8.111C153.833,24.499,129.335,0,99.222,0
			C69.11,0,44.611,24.499,44.611,54.611v8.111c0,13.126,4.657,25.183,12.402,34.611h-2.292C24.548,97.333,0,121.882,0,152.056
			v104.017c0,26.991,19.648,49.465,45.389,53.91V502c0,5.522,4.477,10,10,10h96c5.523,0,10-4.478,10-10v-96.948
			c0-5.523-4.477-10-10-10c-5.523,0-10,4.478-10,10V492h-28V323.306c0-5.522-4.477-10-10-10c-5.523,0-10,4.478-10,10V492h-28
			V279.553c0.018,0,0.036,0.003,0.054,0.003h75.892c0.018,0,0.036-0.003,0.054-0.003v48.166c0,5.522,4.477,10,10,10
			c5.523,0,10-4.478,10-10V162.056H296.85c5.523,0,10-4.477,10-10C306.85,121.882,282.302,97.334,252.128,97.334z M64.611,54.611
			C64.611,35.526,80.138,20,99.222,20c19.085,0,34.611,15.526,34.611,34.611v8.111c0,19.085-15.526,34.611-34.611,34.611
			c-19.084,0-34.611-15.526-34.611-34.611V54.611z M152.056,142.055c-0.113,0-0.222,0.013-0.333,0.017
			c-0.112-0.004-0.221-0.017-0.333-0.017c-5.523,0-10,4.477-10,10v107.503c-0.018,0-0.036-0.003-0.054-0.003H65.443
			c-0.018,0-0.036,0.003-0.054,0.003V152.056c0-5.523-4.477-10-10-10c-5.523,0-10,4.477-10,10V289.51
			C30.763,285.422,20,271.985,20,256.072V152.056c0-19.146,15.576-34.722,34.722-34.722h34.5V140c0,5.523,4.477,10,10,10
			s10-4.477,10-10v-22.667h142.906c15.67,0,28.95,10.436,33.255,24.722H152.056z"/>
	</g>
</g>
<g>
	<g>
		<path d="M158.46,358.65c-1.86-1.86-4.44-2.93-7.07-2.93s-5.21,1.07-7.07,2.93s-2.93,4.44-2.93,7.07s1.07,5.21,2.93,7.07
			c1.86,1.859,4.44,2.93,7.07,2.93s5.21-1.07,7.07-2.93s2.93-4.44,2.93-7.07S160.32,360.51,158.46,358.65z"/>
	</g>
</g>
<g>
</g>
<g>
</g>
<g>
</g>
<g>
</g>
<g>
</g>
<g>
</g>
<g>
</g>
<g>
</g>
<g>
</g>
<g>
</g>
<g>
</g>
<g>
</g>
<g>
</g>
<g>
</g>
<g>
</g>
</svg>
