<?xml version="1.0" encoding="iso-8859-1"?>
<!-- Generator: Adobe Illustrator 19.0.0, SVG Export Plug-In . SVG Version: 6.00 Build 0)  -->
<svg version="1.1" id="Capa_1" xmlns="http://www.w3.org/2000/svg" xmlns:xlink="http://www.w3.org/1999/xlink" x="0px" y="0px"
	 viewBox="0 0 512 512" style="enable-background:new 0 0 512 512;" xml:space="preserve">
<g>
	<g>
		<path d="M446.073,93.915l-91-90.987C353.198,1.053,350.655,0,348.003,0h-297c-16.542,0-30,13.458-30,30v452
			c0,16.542,13.458,30,30,30h312c5.522,0,10-4.477,10-10s-4.478-10-10-10h-312c-5.514,0-10-4.486-10-10V68h69.667
			c5.522,0,10-4.477,10-10s-4.478-10-10-10H41.003V30c0-5.514,4.486-10,10-10h287v61c0,16.542,13.458,30,30,30h61v192
			c0,5.523,4.478,10,10,10c5.522,0,10-4.477,10-10V100.987C449.003,98.335,447.949,95.791,446.073,93.915z M368.003,91
			c-5.514,0-10-4.486-10-10V34.14L414.872,91H368.003z"/>
	</g>
</g>
<g>
	<g>
		<path d="M446.072,333.43c-1.859-1.86-4.439-2.93-7.069-2.93s-5.21,1.07-7.07,2.93c-1.86,1.86-2.93,4.44-2.93,7.07
			s1.069,5.21,2.93,7.07c1.861,1.86,4.44,2.93,7.07,2.93s5.21-1.07,7.069-2.93c1.86-1.86,2.931-4.44,2.931-7.07
			S447.933,335.29,446.072,333.43z"/>
	</g>
</g>
<g>
	<g>
		<path d="M484.931,425.406l-45.816-45.816c-1.873-1.873-4.412-2.926-7.061-2.929l-62.313-0.066l-12.213-12.213
			c24.259-26.41,39.801-60.673,42.152-98.382h9.049c5.522,0,10-4.477,10-10s-4.478-10-10-10h-9.049
			c-5.077-81.438-71.706-146.799-154.676-151.694V82.275c0-5.523-4.478-10-10-10c-5.522,0-10,4.477-10,10v12.031
			C142.032,99.201,75.404,164.562,70.327,246h-9.049c-5.522,0-10,4.477-10,10s4.478,10,10,10h9.049
			c5.077,81.438,71.706,146.799,154.676,151.694v12.031c0,5.523,4.478,10,10,10c5.522,0,10-4.477,10-10v-12.031
			c37.411-2.207,71.502-16.699,98.126-39.425l12.469,12.469l0.066,62.313c0.003,2.648,1.057,5.188,2.929,7.061l45.815,45.815
			c3.966,3.966,9.229,6.067,14.6,6.067c2.671,0,5.368-0.52,7.945-1.589c7.757-3.218,12.764-10.723,12.755-19.121l-0.032-30.611
			l30.61,0.033c0.008,0,0.015,0,0.022,0c8.389,0,15.885-5.005,19.1-12.755C492.626,440.193,490.868,431.344,484.931,425.406z
			 M245.003,114.344c71.93,4.822,129.608,61.242,134.635,131.656h-29.034c-4.886-54.956-49.631-98.857-105.601-103.572V114.344z
			 M225.003,114.344v28.084c-55.97,4.715-100.715,48.616-105.601,103.572H90.368C95.395,175.586,153.073,119.166,225.003,114.344z
			 M225.003,397.656C153.073,392.834,95.395,336.414,90.368,266h29.034c4.886,54.956,49.631,98.857,105.601,103.572V397.656z
			 M235.003,350c-52.964,0-96.053-42.168-96.053-94c0-51.832,43.089-94,96.053-94s96.053,42.168,96.053,94
			c0,22.725-8.284,43.591-22.049,59.861l-20.314-20.314c8.42-11.029,13.416-24.725,13.416-39.547c0-36.393-30.104-66-67.105-66
			c-37.001,0-67.105,29.607-67.105,66s30.104,66,67.105,66c14.671,0,28.248-4.668,39.303-12.554l20.252,20.252
			C278.177,342.403,257.48,350,235.003,350z M228.058,263.199l31.832,31.832c-7.228,4.411-15.755,6.97-24.888,6.97
			c-25.974,0-47.105-20.636-47.105-46s21.132-46,47.105-46c25.973,0,47.105,20.636,47.105,46c0,9.308-2.854,17.974-7.741,25.222
			l-32.165-32.167c-3.906-3.904-10.236-3.904-14.143,0C224.153,252.961,224.153,259.293,228.058,263.199z M245.003,397.656v-28.084
			c24.105-2.031,46.131-11.322,63.786-25.643l20.15,20.15C305.994,383.234,276.901,395.518,245.003,397.656z M343.376,350.23
			l-20.197-20.197c15.296-17.554,25.263-39.711,27.425-64.033h29.034C377.339,298.203,364.027,327.476,343.376,350.23z
			 M419.29,491.932c-0.419,0.177-0.575,0.018-0.739-0.147l-42.892-42.891l-0.04-38.135l1.46,1.46l0.001,0.001l42.588,42.588
			l0.039,36.497C419.708,491.538,419.708,491.758,419.29,491.932z M470.935,440.287c-0.173,0.418-0.403,0.44-0.627,0.418
			l-36.496-0.039l-44.05-44.05l38.135,0.041l42.892,42.892C470.953,439.713,471.108,439.868,470.935,440.287z"/>
	</g>
</g>
<g>
	<g>
		<path d="M153.402,50.93c-1.859-1.86-4.43-2.93-7.069-2.93c-2.63,0-5.21,1.07-7.07,2.93s-2.93,4.44-2.93,7.07s1.069,5.21,2.93,7.07
			c1.861,1.86,4.44,2.93,7.07,2.93c2.64,0,5.21-1.07,7.069-2.93c1.87-1.86,2.931-4.44,2.931-7.07S155.272,52.79,153.402,50.93z"/>
	</g>
</g>
<g>
</g>
<g>
</g>
<g>
</g>
<g>
</g>
<g>
</g>
<g>
</g>
<g>
</g>
<g>
</g>
<g>
</g>
<g>
</g>
<g>
</g>
<g>
</g>
<g>
</g>
<g>
</g>
<g>
</g>
</svg>
