<?xml version="1.0" encoding="iso-8859-1"?>
<!-- Generator: Adobe Illustrator 19.0.0, SVG Export Plug-In . SVG Version: 6.00 Build 0)  -->
<svg version="1.1" id="Capa_1" xmlns="http://www.w3.org/2000/svg" xmlns:xlink="http://www.w3.org/1999/xlink" x="0px" y="0px"
	 viewBox="0 0 512 512" style="enable-background:new 0 0 512 512;" xml:space="preserve">
<g>
	<g>
		<path d="M492,0H20C8.972,0,0,8.972,0,20v34c0,11.028,8.972,20,20,20v282c0,16.542,13.458,30,30,30h133.426l-60.271,104.392
			c-2.564,4.443-2.563,9.963,0.002,14.406c2.565,4.442,7.346,7.202,12.476,7.202h45.824c5.13,0,9.91-2.76,12.476-7.203L218,463.11
			v34.484c0,7.944,6.463,14.406,14.406,14.406h47.188c7.943,0,14.406-6.462,14.406-14.406V463.11l24.068,41.687
			c2.565,4.443,7.346,7.203,12.476,7.203h45.824c5.13,0,9.91-2.76,12.476-7.202c2.565-4.443,2.566-9.963,0.001-14.407L328.574,386
			H462c16.542,0,30-13.458,30-30V148c0-5.523-4.478-10-10-10c-5.522,0-10,4.477-10,10v208c0,5.514-4.486,10-10,10H284h-56H50
			c-5.514,0-10-4.486-10-10V74h167c5.522,0,10-4.477,10-10s-4.478-10-10-10H20V20h472v34H296c-5.522,0-10,4.477-10,10
			s4.478,10,10,10h196c11.028,0,20-8.972,20-20V20C512,8.972,503.028,0,492,0z M294,386h11.48l61.2,106h-32.905L294,423.11V386z
			 M238,386h36v106h-36V386z M218,386v37.11L178.226,492H145.32l61.199-106H218z"/>
	</g>
</g>
<g>
	<g>
		<path d="M263.069,56.93C261.21,55.07,258.63,54,256,54s-5.21,1.07-7.07,2.93S246,61.37,246,64s1.069,5.21,2.93,7.07
			c1.861,1.86,4.44,2.93,7.07,2.93s5.21-1.07,7.069-2.93C264.93,69.21,266,66.63,266,64S264.93,58.79,263.069,56.93z"/>
	</g>
</g>
<g>
	<g>
		<path d="M489.069,99.93C487.21,98.07,484.63,97,482,97s-5.21,1.07-7.07,2.93c-1.86,1.86-2.93,4.44-2.93,7.07s1.069,5.21,2.93,7.07
			c1.861,1.86,4.44,2.93,7.07,2.93s5.21-1.07,7.069-2.93c1.86-1.86,2.931-4.44,2.931-7.07S490.93,101.79,489.069,99.93z"/>
	</g>
</g>
<g>
	<g>
		<path d="M411.071,152.242l-18.477-18.477c-3.906-3.905-10.236-3.905-14.143,0c-3.905,3.905-3.905,10.237,0,14.143l1.405,1.405
			h-86.98c-71.156,0-136.479,40.603-168.15,103.958c-1.345-0.145-2.71-0.224-4.093-0.224c-20.953,0-38,17.047-38,38s17.047,38,38,38
			s38-17.047,38-38c0-12.412-5.983-23.452-15.216-30.391c28.591-55.717,86.462-91.342,149.46-91.342h86.98l-1.405,1.405
			c-3.905,3.905-3.905,10.237,0,14.143c1.953,1.953,4.512,2.929,7.071,2.929s5.118-0.976,7.071-2.929l18.477-18.477
			C414.976,162.48,414.976,156.148,411.071,152.242z M120.634,309.048c-9.925,0-18-8.075-18-18s8.075-18,18-18
			c9.925,0,18,8.075,18,18S130.559,309.048,120.634,309.048z"/>
	</g>
</g>
<g>
	<g>
		<path d="M114.989,90.951c-20.953,0-38,17.047-38,38s17.047,38,38,38s38-17.047,38-38S135.942,90.951,114.989,90.951z
			 M114.989,146.951c-9.925,0-18-8.075-18-18s8.075-18,18-18s18,8.075,18,18S124.914,146.951,114.989,146.951z"/>
	</g>
</g>
<g>
	<g>
		<path d="M409.728,276l13.716-13.716c3.906-3.906,3.906-10.238,0-14.143c-3.906-3.905-10.236-3.905-14.143,0l-13.716,13.716
			l-13.716-13.716c-3.906-3.905-10.236-3.905-14.143,0c-3.905,3.905-3.905,10.237,0,14.143L381.443,276l-13.716,13.716
			c-3.905,3.905-3.905,10.237,0,14.143c1.953,1.953,4.512,2.929,7.071,2.929s5.118-0.976,7.071-2.929l13.716-13.716l13.716,13.716
			c1.953,1.953,4.512,2.929,7.071,2.929s5.118-0.976,7.071-2.929c3.905-3.905,3.905-10.237,0-14.143L409.728,276z"/>
	</g>
</g>
<g>
</g>
<g>
</g>
<g>
</g>
<g>
</g>
<g>
</g>
<g>
</g>
<g>
</g>
<g>
</g>
<g>
</g>
<g>
</g>
<g>
</g>
<g>
</g>
<g>
</g>
<g>
</g>
<g>
</g>
</svg>
