<?xml version="1.0" encoding="iso-8859-1"?>
<!-- Generator: Adobe Illustrator 19.0.0, SVG Export Plug-In . SVG Version: 6.00 Build 0)  -->
<svg version="1.1" id="Capa_1" xmlns="http://www.w3.org/2000/svg" xmlns:xlink="http://www.w3.org/1999/xlink" x="0px" y="0px"
	 viewBox="0 0 512 512" style="enable-background:new 0 0 512 512;" xml:space="preserve">
<g>
	<g>
		<path d="M492,202l-29.52,0.065c-4.918-18.915-12.429-37.06-22.299-53.879l20.88-20.879c7.798-7.798,7.798-20.486,0-28.285
			l-48.084-48.083c-7.798-7.796-20.486-7.798-28.284,0l-20.828,20.904C346.993,61.947,328.849,54.437,310,49.54V20
			c0-11.028-8.972-20-20-20h-68c-11.028,0-20,8.972-20,20l0.065,29.584c-18.883,4.934-36.997,12.454-53.786,22.327l-20.973-20.972
			c-7.798-7.796-20.486-7.798-28.284,0L50.938,99.022c-7.798,7.798-7.798,20.486,0,28.284l21.066,20.991
			c-9.851,16.829-17.33,34.919-22.21,53.703H20c-11.028,0-20,8.972-20,20v68c0,11.028,8.972,20,20,20l29.839-0.064
			c4.917,18.818,12.406,36.876,22.233,53.624l-21.134,21.133c-7.798,7.798-7.798,20.486,0,28.285l48.084,48.083
			c7.798,7.797,20.484,7.798,28.284,0l21.084-21.157c16.796,9.851,34.854,17.339,53.609,22.237V492c0,11.028,8.972,20,20,20h68
			c11.028,0,20-8.972,20-20l-0.063-29.773c18.848-4.9,36.937-12.38,53.716-22.207l21.041,21.041c7.798,7.796,20.486,7.798,28.284,0
			l48.084-48.083c7.798-7.798,7.798-20.486,0-28.285l-20.997-20.922c9.896-16.839,17.416-34.953,22.33-53.771H492
			c11.028,0,20-8.972,20-20v-68C512,210.972,503.028,202,492,202z M492,290h-29.605c-9.092,0-17.041,6.119-19.329,14.878
			c-4.47,17.103-11.28,33.508-20.243,48.759c-4.6,7.825-3.315,17.787,3.124,24.226l20.973,20.972l-48.083,48.083l-21.042-21.042
			c-6.429-6.427-16.378-7.719-24.194-3.142c-15.243,8.922-31.627,15.697-48.695,20.135C296.129,445.151,290,453.102,290,462.206V492
			h-68v-29.859c0-9.092-6.119-17.041-14.88-19.33c-17.043-4.454-33.397-11.236-48.611-20.159c-3.132-1.837-6.604-2.731-10.058-2.731
			c-5.171,0-10.296,2.008-14.153,5.864l-21.133,21.134l-48.084-48.083l21.134-21.134c6.432-6.433,7.721-16.388,3.134-24.211
			c-8.924-15.214-15.706-31.569-20.16-48.611C66.9,296.119,58.951,290,49.859,290H20v-68h29.794c9.104,0,17.055-6.128,19.337-14.903
			c4.437-17.069,11.211-33.453,20.135-48.696c4.576-7.82,3.283-17.77-3.144-24.194l-21.041-21.042l48.083-48.083l20.973,20.972
			c6.438,6.438,16.4,7.724,24.225,3.125c15.253-8.964,31.658-15.775,48.761-20.243c8.76-2.29,14.878-10.238,14.878-19.33V20h68
			v29.54c0,9.103,6.128,17.054,14.902,19.336c17.129,4.453,33.563,11.256,48.845,20.219c7.821,4.588,17.777,3.298,24.209-3.134
			l20.879-20.879l48.084,48.083l-20.879,20.879c-6.434,6.433-7.724,16.389-3.136,24.21c8.963,15.28,15.766,31.713,20.22,48.842
			c2.28,8.775,10.231,14.904,19.336,14.904H492V290z"/>
	</g>
</g>
<g>
	<g>
		<path d="M392.819,168.267c-3.005-4.633-9.197-5.953-13.832-2.946c-4.633,3.006-5.951,9.199-2.945,13.832
			c13.507,20.816,21.4,44.602,23.079,69.323H263.524V112.871c19.212,1.281,37.654,6.27,54.946,14.878
			c4.946,2.461,10.948,0.449,13.409-4.496c2.461-4.944,0.448-10.947-4.495-13.409c-23.067-11.483-47.917-17.306-73.86-17.306
			c-5.522,0-10,4.477-10,10v16.773C171.241,124.457,114,184.904,114,258.476C114,335.41,176.591,398,253.524,398
			c73.571,0,134.018-57.24,139.163-129.524h16.773c5.522,0,10-4.477,10-10C419.46,226.32,410.248,195.126,392.819,168.267z
			 M243.524,139.372v94.961l-67.106-67.107C194.858,151.62,218.069,141.491,243.524,139.372z M253.524,378
			C187.618,378,134,324.381,134,258.476c0-29.361,10.648-56.277,28.276-77.106l84.177,84.178c0.001,0.001,0.002,0.002,0.003,0.003
			c1.81,1.808,4.308,2.926,7.068,2.926h119.103C367.529,329.719,316.063,378,253.524,378z"/>
	</g>
</g>
<g>
	<g>
		<path d="M365.534,136.046c-0.039-0.036-0.121-0.11-0.161-0.145c-4.133-3.664-10.489-3.315-14.153,0.817
			c-3.664,4.133-3.321,10.42,0.812,14.083c0.008,0.007,0.036,0.033,0.044,0.04c1.913,1.739,4.315,2.597,6.71,2.597
			c2.715,0,5.42-1.101,7.396-3.267C369.899,146.095,369.604,139.77,365.534,136.046z"/>
	</g>
</g>
<g>
	<g>
		<path d="M335.94,288.094c-4.95-2.452-10.948-0.431-13.401,4.518c-8.652,17.454-23.422,30.883-41.589,37.813
			c-5.16,1.968-7.747,7.747-5.779,12.907c1.52,3.988,5.316,6.439,9.345,6.439c1.185,0,2.39-0.212,3.563-0.66
			c22.883-8.729,41.485-25.639,52.38-47.616C342.911,296.547,340.889,290.547,335.94,288.094z"/>
	</g>
</g>
<g>
	<g>
		<path d="M253.708,335.451h-0.184c-5.522,0-10,4.477-10,10s4.478,10,10,10h0.184c5.522,0,10-4.477,10-10
			S259.23,335.451,253.708,335.451z"/>
	</g>
</g>
<g>
</g>
<g>
</g>
<g>
</g>
<g>
</g>
<g>
</g>
<g>
</g>
<g>
</g>
<g>
</g>
<g>
</g>
<g>
</g>
<g>
</g>
<g>
</g>
<g>
</g>
<g>
</g>
<g>
</g>
</svg>
