<?xml version="1.0" encoding="iso-8859-1"?>
<!-- Generator: Adobe Illustrator 19.0.0, SVG Export Plug-In . SVG Version: 6.00 Build 0)  -->
<svg version="1.1" id="Capa_1" xmlns="http://www.w3.org/2000/svg" xmlns:xlink="http://www.w3.org/1999/xlink" x="0px" y="0px"
	 viewBox="0 0 512 512" style="enable-background:new 0 0 512 512;" xml:space="preserve">
<g>
	<g>
		<path d="M448,258.102c5.522,0,10-4.477,10-10V90c0-27.57-22.43-50-50-50h-67.78c-4.992-6.384-12.757-10.5-21.47-10.5h-16.267
			C294.525,11.806,276.742,0,256.877,0h-1.754c-19.865,0-37.648,11.806-45.606,29.5H193.25c-8.713,0-16.479,4.116-21.47,10.5H104
			c-27.57,0-50,22.43-50,50v372c0,27.57,22.43,50,50,50h304c27.57,0,50-22.43,50-50V331.937c0-5.523-4.478-10-10-10
			c-5.522,0-10,4.477-10,10V462c0,16.542-13.458,30-30,30H104c-16.542,0-30-13.458-30-30V90c0-16.542,13.458-30,30-30h62v20h-52
			c-11.028,0-20,8.972-20,20v352c0,11.028,8.972,20,20,20h284c11.028,0,20-8.972,20-20V100c0-11.028-8.972-20-20-20h-52V60h62
			c16.542,0,30,13.458,30,30v158.102C438,253.625,442.478,258.102,448,258.102z M186,56.75c0-3.998,3.252-7.25,7.25-7.25h23.275
			c4.515,0,8.469-3.024,9.651-7.381C229.711,29.096,241.614,20,255.123,20h1.754c13.509,0,25.412,9.096,28.946,22.119
			c1.183,4.356,5.137,7.381,9.651,7.381h23.275c3.998,0,7.25,3.252,7.25,7.25V80H186V56.75z M398,100l0.013,352c0,0-0.004,0-0.013,0
			H114V100h20v62c0,5.523,4.478,10,10,10c5.522,0,10-4.477,10-10v-62H398z"/>
	</g>
</g>
<g>
	<g>
		<path d="M340,282.117v-24.309c0-5.523-4.478-10-10-10h-64v-19.474c21.683-4.614,38-23.906,38-46.945c0-26.467-21.532-48-48-48
			c-26.468,0-48,21.533-48,48c0,23.038,16.317,42.331,38,46.945v19.474h-64c-5.522,0-10,4.477-10,10v24.309
			c-18.345,4.499-32,21.075-32,40.787c0,23.159,18.841,42,42,42s42-18.841,42-42c0-19.713-13.655-36.288-32-40.787v-14.309h128
			v14.309c-18.345,4.499-32,21.075-32,40.787c0,23.159,18.841,42,42,42s42-18.841,42-42C372,303.191,358.345,286.616,340,282.117z
			 M204,322.904c0,12.131-9.869,22-22,22s-22-9.869-22-22c0-12.131,9.869-22,22-22S204,310.773,204,322.904z M228,181.389
			c0-15.439,12.561-28,28-28c15.439,0,28,12.561,28,28c0,15.439-12.561,28-28,28C240.561,209.389,228,196.829,228,181.389z
			 M330,344.904c-12.131,0-22-9.869-22-22c0-12.131,9.869-22,22-22c12.131,0,22,9.869,22,22S342.131,344.904,330,344.904z"/>
	</g>
</g>
<g>
	<g>
		<path d="M310.74,400.93c-1.86-1.86-4.44-2.93-7.07-2.93c-2.64,0-5.21,1.07-7.07,2.93c-1.87,1.86-2.93,4.44-2.93,7.07
			s1.06,5.21,2.93,7.07c1.86,1.86,4.431,2.93,7.07,2.93c2.63,0,5.21-1.07,7.07-2.93c1.859-1.86,2.93-4.44,2.93-7.07
			S312.6,402.79,310.74,400.93z"/>
	</g>
</g>
<g>
	<g>
		<path d="M264.71,400.93c-1.86-1.86-4.44-2.93-7.07-2.93c-2.64,0-5.21,1.07-7.07,2.93c-1.859,1.86-2.93,4.44-2.93,7.07
			s1.07,5.21,2.93,7.07c1.86,1.86,4.44,2.93,7.07,2.93s5.21-1.07,7.07-2.93c1.859-1.86,2.93-4.44,2.93-7.07
			S266.57,402.79,264.71,400.93z"/>
	</g>
</g>
<g>
	<g>
		<path d="M218.24,400.93c-1.86-1.86-4.44-2.93-7.07-2.93c-2.64,0-5.22,1.07-7.07,2.93c-1.87,1.86-2.93,4.44-2.93,7.07
			s1.06,5.21,2.93,7.07c1.86,1.86,4.431,2.93,7.07,2.93c2.63,0,5.21-1.07,7.07-2.93c1.859-1.86,2.93-4.44,2.93-7.07
			S220.1,402.79,218.24,400.93z"/>
	</g>
</g>
<g>
	<g>
		<path d="M455.069,283.83c-1.859-1.86-4.439-2.93-7.069-2.93s-5.21,1.07-7.07,2.93c-1.86,1.86-2.93,4.44-2.93,7.07
			c0,2.64,1.069,5.21,2.93,7.08c1.86,1.86,4.44,2.92,7.07,2.92s5.21-1.06,7.069-2.92c1.86-1.87,2.931-4.45,2.931-7.08
			C458,288.27,456.93,285.7,455.069,283.83z"/>
	</g>
</g>
<g>
	<g>
		<path d="M151.069,195.93C149.21,194.07,146.63,193,144,193s-5.21,1.07-7.07,2.93S134,200.37,134,203s1.069,5.21,2.93,7.07
			c1.861,1.86,4.44,2.93,7.07,2.93s5.21-1.07,7.069-2.93c1.86-1.86,2.931-4.44,2.931-7.07S152.93,197.79,151.069,195.93z"/>
	</g>
</g>
<g>
</g>
<g>
</g>
<g>
</g>
<g>
</g>
<g>
</g>
<g>
</g>
<g>
</g>
<g>
</g>
<g>
</g>
<g>
</g>
<g>
</g>
<g>
</g>
<g>
</g>
<g>
</g>
<g>
</g>
</svg>
