<?xml version="1.0" encoding="iso-8859-1"?>
<!-- Generator: Adobe Illustrator 19.0.0, SVG Export Plug-In . SVG Version: 6.00 Build 0)  -->
<svg version="1.1" id="Capa_1" xmlns="http://www.w3.org/2000/svg" xmlns:xlink="http://www.w3.org/1999/xlink" x="0px" y="0px"
	 viewBox="0 0 512 512" style="enable-background:new 0 0 512 512;" xml:space="preserve">
<g>
	<g>
		<path d="M458.119,369.169c5.241-7.519,8.325-16.647,8.325-26.487v-9.111c0-25.609-20.835-46.444-46.444-46.444
			s-46.444,20.835-46.444,46.444v9.111c0,9.84,3.085,18.968,8.325,26.487c-18.147,0.541-34.13,9.819-43.881,23.772
			c-9.751-13.953-25.734-23.231-43.881-23.772c5.241-7.519,8.325-16.647,8.325-26.487v-9.111c0-25.609-20.835-46.444-46.444-46.444
			s-46.444,20.835-46.444,46.444v9.111c0,9.84,3.085,18.968,8.325,26.487c-18.147,0.541-34.13,9.819-43.881,23.772
			c-9.751-13.953-25.734-23.231-43.881-23.772c5.241-7.519,8.325-16.647,8.325-26.487v-9.111c0-25.609-20.835-46.444-46.444-46.444
			s-46.444,20.835-46.444,46.444v9.111c0,9.84,3.085,18.968,8.325,26.487C24.021,370.06,0,394.611,0,424.683V502
			c0,5.523,4.477,10,10,10h492c5.523,0,10-4.477,10-10v-77.317C512,394.611,487.979,370.06,458.119,369.169z M65.556,333.571
			c0-14.582,11.863-26.444,26.444-26.444s26.444,11.863,26.444,26.444v9.111c0,14.582-11.863,26.444-26.444,26.444
			s-26.444-11.863-26.444-26.444V333.571z M164,492H20v-67.317c0-19.605,15.95-35.556,35.556-35.556H82v27.54
			c0,5.523,4.477,10,10,10s10-4.477,10-10v-27.54h26.444c19.605,0,35.556,15.95,35.556,35.556V492z M229.556,333.571
			c0-14.582,11.863-26.444,26.444-26.444s26.444,11.863,26.444,26.444v9.111c0,14.582-11.863,26.444-26.444,26.444
			s-26.444-11.863-26.444-26.444V333.571z M328,492H184v-67.317c0-19.605,15.95-35.556,35.556-35.556h26.571v47.959
			c0,5.523,4.477,10,10,10s10-4.477,10-10v-47.959h26.317c19.605,0,35.556,15.95,35.556,35.556V492z M393.556,333.571
			c0-14.582,11.863-26.444,26.444-26.444s26.444,11.863,26.444,26.444v9.111c0,14.582-11.863,26.444-26.444,26.444
			s-26.444-11.863-26.444-26.444V333.571z M492,492H348v-67.317c0-19.605,15.95-35.556,35.556-35.556h26.698v47.959
			c0,5.523,4.477,10,10,10s10-4.477,10-10v-47.959h26.19c19.605,0,35.556,15.95,35.556,35.556V492z"/>
	</g>
</g>
<g>
	<g>
		<path d="M99.07,443.93C97.21,442.07,94.63,441,92,441s-5.21,1.07-7.07,2.93S82,448.37,82,451s1.07,5.21,2.93,7.07
			c1.86,1.86,4.44,2.93,7.07,2.93s5.21-1.07,7.07-2.93S102,453.63,102,451S100.93,445.79,99.07,443.93z"/>
	</g>
</g>
<g>
	<g>
		<path d="M448,0h-36.424c-5.523,0-10,4.477-10,10s4.477,10,10,10h12.295l-38.086,38.086c-3.905,3.905-3.905,10.237,0,14.142
			c1.953,1.953,4.512,2.929,7.071,2.929c2.559,0,5.119-0.977,7.071-2.929L438,34.155v12.269c0,5.523,4.477,10,10,10s10-4.477,10-10
			V10C458,4.477,453.523,0,448,0z"/>
	</g>
</g>
<g>
	<g>
		<path d="M374.68,83.33c-1.86-1.86-4.44-2.92-7.07-2.92c-2.64,0-5.21,1.06-7.07,2.92c-1.87,1.87-2.93,4.44-2.93,7.08
			c0,2.63,1.06,5.21,2.93,7.07c1.86,1.86,4.43,2.93,7.07,2.93c2.63,0,5.21-1.07,7.07-2.93c1.86-1.86,2.93-4.44,2.93-7.07
			C377.61,87.77,376.54,85.2,374.68,83.33z"/>
	</g>
</g>
<g>
	<g>
		<path d="M350.618,107.395c-3.905-3.904-10.238-3.904-14.142,0l-58.823,58.823l-75.116-75.115c-3.905-3.905-10.237-3.905-14.142,0
			L40.437,239.062c-3.905,3.905-3.905,10.237,0,14.143c1.952,1.952,4.512,2.928,7.071,2.928s5.119-0.976,7.071-2.929
			l140.887-140.887l75.115,75.115c3.905,3.905,10.237,3.905,14.143,0l65.894-65.894
			C354.523,117.633,354.523,111.301,350.618,107.395z"/>
	</g>
</g>
<g>
	<g>
		<path d="M85.953,40c-23.159,0-42,18.841-42,42s18.841,42,42,42s42-18.841,42-42S109.112,40,85.953,40z M85.953,104
			c-12.131,0-22-9.869-22-22s9.869-22,22-22s22,9.869,22,22S98.084,104,85.953,104z"/>
	</g>
</g>
<g>
	<g>
		<path d="M434.142,201.64l20.929-20.929c3.905-3.905,3.905-10.237,0-14.143c-3.905-3.905-10.237-3.905-14.143,0L420,187.498
			l-20.929-20.929c-3.905-3.905-10.237-3.905-14.143,0c-3.905,3.905-3.905,10.237,0,14.143l20.929,20.929l-20.929,20.929
			c-3.904,3.905-3.904,10.237,0.001,14.142c1.953,1.953,4.512,2.929,7.071,2.929s5.119-0.976,7.071-2.929L420,215.783l20.929,20.929
			c1.953,1.953,4.512,2.929,7.071,2.929s5.119-0.976,7.071-2.929c3.905-3.905,3.905-10.237,0-14.143L434.142,201.64z"/>
	</g>
</g>
<g>
</g>
<g>
</g>
<g>
</g>
<g>
</g>
<g>
</g>
<g>
</g>
<g>
</g>
<g>
</g>
<g>
</g>
<g>
</g>
<g>
</g>
<g>
</g>
<g>
</g>
<g>
</g>
<g>
</g>
</svg>
