<?xml version="1.0" encoding="iso-8859-1"?>
<!-- Generator: Adobe Illustrator 19.0.0, SVG Export Plug-In . SVG Version: 6.00 Build 0)  -->
<svg version="1.1" id="Capa_1" xmlns="http://www.w3.org/2000/svg" xmlns:xlink="http://www.w3.org/1999/xlink" x="0px" y="0px"
	 viewBox="0 0 512 512" style="enable-background:new 0 0 512 512;" xml:space="preserve">
<g>
	<g>
		<path d="M59.07,290.06c-1.86-1.87-4.44-2.93-7.07-2.93s-5.21,1.06-7.07,2.93c-1.86,1.85-2.93,4.43-2.93,7.07
			c0,2.63,1.07,5.21,2.93,7.07c1.86,1.86,4.44,2.93,7.07,2.93s5.21-1.07,7.07-2.93s2.93-4.44,2.93-7.07
			C62,294.49,60.93,291.92,59.07,290.06z"/>
	</g>
</g>
<g>
	<g>
		<path d="M467.07,93.915l-91-90.987C374.195,1.053,371.652,0,369,0H72C55.458,0,42,13.458,42,30v226c0,5.523,4.477,10,10,10
			s10-4.477,10-10V30c0-5.514,4.486-10,10-10h287v61c0,16.542,13.458,30,30,30h61v371c0,5.514-4.486,10-10,10h-10V342.063
			c0-5.523-4.477-10-10-10h-52c-5.523,0-10,4.477-10,10V492h-20V374.063c0-5.523-4.477-10-10-10h-52c-5.523,0-10,4.477-10,10V492
			h-20v-78.938c0-5.523-4.477-10-10-10h-52c-5.523,0-10,4.477-10,10V492h-20v-42c0-5.523-4.477-10-10-10H92c-5.523,0-10,4.477-10,10
			v42H72c-5.514,0-10-4.486-10-10V335.063c0-5.523-4.477-10-10-10s-10,4.477-10,10V482c0,16.542,13.458,30,30,30h368
			c16.542,0,30-13.458,30-30V100.987C470,98.334,468.946,95.791,467.07,93.915z M389,91c-5.514,0-10-4.486-10-10V34.14L435.869,91
			H389z M134,492h-32v-32h32V492z M226,492h-32v-68.938h32V492z M318,492h-32V384.063h32V492z M410,492h-32V352.063h32V492z"/>
	</g>
</g>
<g>
	<g>
		<path d="M199.663,112.149C203.674,105.714,206,98.125,206,90v-8c0-23.159-18.841-42-42-42s-42,18.841-42,42v8
			c0,8.125,2.326,15.714,6.337,22.149C102.472,114.032,82,135.663,82,162v40c0,5.523,4.477,10,10,10h144c5.523,0,10-4.477,10-10v-40
			C246,135.663,225.528,114.032,199.663,112.149z M142,82c0-12.131,9.869-22,22-22s22,9.869,22,22v8c0,12.131-9.869,22-22,22
			s-22-9.869-22-22V82z M226,192H102v-30c0-16.542,13.458-30,30-30h22v30c0,5.523,4.477,10,10,10s10-4.477,10-10v-30h22
			c16.542,0,30,13.458,30,30V192z"/>
	</g>
</g>
<g>
	<g>
		<path d="M396,144H276c-5.523,0-10,4.477-10,10s4.477,10,10,10h120c5.523,0,10-4.477,10-10S401.523,144,396,144z"/>
	</g>
</g>
<g>
	<g>
		<path d="M403.07,194.93c-1.86-1.86-4.44-2.93-7.07-2.93s-5.21,1.07-7.07,2.93c-1.86,1.86-2.93,4.44-2.93,7.07s1.07,5.21,2.93,7.07
			S393.37,212,396,212s5.21-1.07,7.07-2.93c1.86-1.86,2.93-4.44,2.93-7.07S404.93,196.79,403.07,194.93z"/>
	</g>
</g>
<g>
	<g>
		<path d="M353,192h-77c-5.523,0-10,4.477-10,10s4.477,10,10,10h77c5.523,0,10-4.477,10-10S358.523,192,353,192z"/>
	</g>
</g>
<g>
	<g>
		<path d="M304.372,96H276c-5.523,0-10,4.477-10,10s4.477,10,10,10h28.372c5.523,0,10-4.477,10-10S309.895,96,304.372,96z"/>
	</g>
</g>
<g>
	<g>
		<path d="M404.517,250.76c-1.82-2.958-5.044-4.759-8.517-4.759h-25.333c-5.523,0-10,4.477-10,10c0,3.181,1.49,6.01,3.806,7.841
			L235.43,329.69l-22.859-22.859c-3.061-3.061-7.744-3.803-11.604-1.842l-87.5,44.5c-4.923,2.503-6.884,8.524-4.38,13.447
			c1.765,3.471,5.277,5.469,8.921,5.469c1.525,0,3.073-0.35,4.525-1.088l81.029-41.209l22.866,22.867
			c3.065,3.064,7.756,3.806,11.617,1.836l137.057-69.939c0.713,2.652,2.497,5.004,5.141,6.338c1.445,0.729,2.983,1.075,4.499,1.075
			c3.654,0,7.175-2.01,8.935-5.495l9.003-17.832c0.182-0.32,0.351-0.647,0.497-0.984l1.75-3.466
			C406.492,257.408,406.337,253.718,404.517,250.76z"/>
	</g>
</g>
<g>
</g>
<g>
</g>
<g>
</g>
<g>
</g>
<g>
</g>
<g>
</g>
<g>
</g>
<g>
</g>
<g>
</g>
<g>
</g>
<g>
</g>
<g>
</g>
<g>
</g>
<g>
</g>
<g>
</g>
</svg>
