<?xml version="1.0" encoding="iso-8859-1"?>
<!-- Generator: Adobe Illustrator 19.0.0, SVG Export Plug-In . SVG Version: 6.00 Build 0)  -->
<svg version="1.1" id="Capa_1" xmlns="http://www.w3.org/2000/svg" xmlns:xlink="http://www.w3.org/1999/xlink" x="0px" y="0px"
	 viewBox="0 0 512 512" style="enable-background:new 0 0 512 512;" xml:space="preserve">
<g>
	<g>
		<path d="M304.576,132.03h-4.116c9.367-10.522,15.073-24.371,15.073-39.534V71.458v-9.733v-2.19C315.533,26.707,288.827,0,256,0
			c-32.827,0-59.533,26.707-59.533,59.534v2.19v9.733v21.039c0,15.162,5.706,29.011,15.073,39.534h-4.116c-40.804,0-74,33.196-74,74
			V256c0,5.523,4.477,10,10,10h225.152c5.522,0,10-4.477,10-10v-49.97C378.576,165.226,345.38,132.03,304.576,132.03z M256,20
			c19.829,0,36.296,14.675,39.109,33.735l-17.646-10.367c-4.211-2.475-9.593-1.543-12.73,2.199
			c-8.462,10.099-20.871,15.89-34.047,15.89h-14.219v-1.923h0C216.467,37.735,234.201,20,256,20z M216.467,81.458h14.219
			c16.225,0,31.648-6.056,43.447-16.85l21.4,12.573v15.316c0,21.799-17.734,39.534-39.533,39.534s-39.533-17.736-39.533-39.534
			V81.458z M358.576,246H153.424v-39.97c0-29.776,24.225-54,54-54H246V172c0,5.523,4.478,10,10,10c5.522,0,10-4.477,10-10v-19.97
			h38.576c29.775,0,54,24.224,54,54V246z"/>
	</g>
</g>
<g>
	<g>
		<path d="M154,398.861h-13.795c5.254-7.537,8.347-16.688,8.347-26.552v-9.138c0-25.669-20.883-46.552-46.552-46.552
			s-46.552,20.883-46.552,46.552v9.138c0,9.864,3.093,19.015,8.347,26.552H50c-27.57,0-50,22.43-50,50V502c0,5.523,4.478,10,10,10
			h184c5.522,0,10-4.477,10-10v-53.139C204,421.291,181.57,398.861,154,398.861z M75.448,363.171
			c0-14.641,11.911-26.552,26.552-26.552s26.552,11.911,26.552,26.552v9.138c0,14.641-11.911,26.552-26.552,26.552
			s-26.552-11.911-26.552-26.552V363.171z M184,492H20v-43.139c0-16.542,13.458-30,30-30h42V439c0,5.523,4.478,10,10,10
			c5.522,0,10-4.477,10-10v-20.139h42c16.542,0,30,13.458,30,30V492z"/>
	</g>
</g>
<g>
	<g>
		<path d="M462,398.861h-13.795c5.254-7.537,8.347-16.688,8.347-26.552v-9.138c0-25.669-20.883-46.552-46.552-46.552
			s-46.552,20.883-46.552,46.552v9.138c0,9.864,3.093,19.015,8.347,26.552H358c-27.57,0-50,22.43-50,50V502c0,5.523,4.478,10,10,10
			h184c5.522,0,10-4.477,10-10v-53.139C512,421.291,489.57,398.861,462,398.861z M383.448,363.171
			c0-14.641,11.911-26.552,26.552-26.552s26.552,11.911,26.552,26.552v9.138c0,14.641-11.911,26.552-26.552,26.552
			s-26.552-11.911-26.552-26.552V363.171z M492,492H328v-43.139c0-16.542,13.458-30,30-30h42V439c0,5.523,4.478,10,10,10
			c5.522,0,10-4.477,10-10v-20.139h42c16.542,0,30,13.458,30,30V492z"/>
	</g>
</g>
<g>
	<g>
		<path d="M318.372,389.928L266,337.557V295.5c0-5.523-4.478-10-10-10c-5.522,0-10,4.477-10,10v42.057l-52.372,52.372
			c-3.905,3.905-3.905,10.237,0,14.143c3.906,3.905,10.236,3.905,14.143,0L256,355.841l48.229,48.23
			c1.953,1.953,4.512,2.929,7.071,2.929s5.119-0.976,7.072-2.929C322.277,400.166,322.277,393.834,318.372,389.928z"/>
	</g>
</g>
<g>
	<g>
		<path d="M263.069,203.43c-1.859-1.86-4.439-2.93-7.069-2.93s-5.21,1.07-7.07,2.93s-2.93,4.44-2.93,7.07s1.069,5.21,2.93,7.07
			c1.861,1.86,4.44,2.93,7.07,2.93s5.21-1.07,7.069-2.93c1.86-1.86,2.931-4.44,2.931-7.07S264.93,205.29,263.069,203.43z"/>
	</g>
</g>
<g>
</g>
<g>
</g>
<g>
</g>
<g>
</g>
<g>
</g>
<g>
</g>
<g>
</g>
<g>
</g>
<g>
</g>
<g>
</g>
<g>
</g>
<g>
</g>
<g>
</g>
<g>
</g>
<g>
</g>
</svg>
