<?xml version="1.0" encoding="iso-8859-1"?>
<!-- Generator: Adobe Illustrator 19.0.0, SVG Export Plug-In . SVG Version: 6.00 Build 0)  -->
<svg version="1.1" id="Capa_1" xmlns="http://www.w3.org/2000/svg" xmlns:xlink="http://www.w3.org/1999/xlink" x="0px" y="0px"
	 viewBox="0 0 512 512" style="enable-background:new 0 0 512 512;" xml:space="preserve">
<g>
	<g>
		<path d="M251.069,58.93C249.21,57.07,246.64,56,244,56c-2.63,0-5.21,1.07-7.07,2.93S234,63.37,234,66s1.069,5.21,2.93,7.07
			C238.8,74.93,241.37,76,244,76s5.21-1.07,7.069-2.93C252.939,71.21,254,68.63,254,66S252.939,60.79,251.069,58.93z"/>
	</g>
</g>
<g>
	<g>
		<path d="M502,382h-16V110c0-29.776-24.225-54-54-54H286c-5.522,0-10,4.477-10,10s4.478,10,10,10h146c18.748,0,34,15.252,34,34
			v38.532L213.599,308.484l-82.058-82.058c-1.876-1.875-4.419-2.929-7.071-2.929c-2.652,0-5.195,1.054-7.071,2.929L46,297.824
			v-59.749l78.47-78.47l80.647,80.648c3.31,3.31,8.473,3.879,12.424,1.376l156.531-99.197c0.508,4.274,3.753,7.892,8.211,8.669
			c0.581,0.101,1.158,0.15,1.729,0.15c4.77,0,8.993-3.425,9.84-8.285l4.021-23.082c0.507-2.909-0.298-5.892-2.197-8.152
			c-1.9-2.26-4.702-3.564-7.654-3.564h-22.336c-5.522,0-10,4.477-10,10c0,3.843,2.17,7.175,5.35,8.849l-147.437,93.434
			l-82.058-82.058c-1.876-1.875-4.419-2.929-7.071-2.929c-2.652,0-5.195,1.054-7.071,2.929L46,209.791V110c0-18.748,15.252-34,34-34
			h119c5.522,0,10-4.477,10-10s-4.478-10-10-10H80c-29.775,0-54,24.224-54,54v123.928c0,0.003,0,0.007,0,0.01v88.023
			c0,0.003,0,0.007,0,0.01V382H10c-5.522,0-10,4.477-10,10v13c0,28.122,22.879,51,51,51h410c28.121,0,51-22.878,51-51v-13
			C512,386.477,507.522,382,502,382z M398,215.302l68-43.093V382h-68V215.302z M310,271.07l68-43.093V382h-68V271.07z M222,326.838
			l68-43.093V382h-68V326.838z M134,257.17l68,68V382h-68V257.17z M46,326.109l68-68V382H46V326.109z M492,405
			c0,17.093-13.906,31-31,31H51c-17.094,0-31-13.907-31-31v-3h16h440h16V405z"/>
	</g>
</g>
<g>
</g>
<g>
</g>
<g>
</g>
<g>
</g>
<g>
</g>
<g>
</g>
<g>
</g>
<g>
</g>
<g>
</g>
<g>
</g>
<g>
</g>
<g>
</g>
<g>
</g>
<g>
</g>
<g>
</g>
</svg>
