<?xml version="1.0" encoding="iso-8859-1"?>
<!-- Generator: Adobe Illustrator 19.0.0, SVG Export Plug-In . SVG Version: 6.00 Build 0)  -->
<svg version="1.1" id="Capa_1" xmlns="http://www.w3.org/2000/svg" xmlns:xlink="http://www.w3.org/1999/xlink" x="0px" y="0px"
	 viewBox="0 0 512 512" style="enable-background:new 0 0 512 512;" xml:space="preserve">
<g>
	<g>
		<path d="M501.997,284.014h-34.829c-5.522,0-9.999,4.477-9.999,9.999s4.478,9.999,9.999,9.999h10.517L320.729,460.971
			l-22.744-22.744V318.435c25.095-6.693,48.882-19.502,68.981-38.421c0.002-0.002,0.005-0.005,0.007-0.007
			c1.198-1.128,2.388-2.271,3.559-3.442c24.865-24.865,40.683-56.35,45.742-91.053c4.891-33.537-1.005-68.475-16.601-98.378
			c-2.553-4.897-8.592-6.797-13.489-4.243s-6.797,8.593-4.242,13.49c27.033,51.838,19.646,113.805-17.817,157.673
			c-12.69-28.008-37.673-48.521-67.364-55.707c10.086-10.302,16.321-24.389,16.321-39.912v-20.004v-9.254v-2.083
			c0-31.482-25.612-57.095-57.095-57.095s-57.095,25.612-57.095,57.095v2.083v9.254v20.004c0,15.522,6.235,29.61,16.321,39.912
			c-29.688,7.186-54.667,27.695-67.36,55.698C100.36,198.32,102.934,114.27,155.583,61.62
			C201.248,15.955,272.008,6.82,327.662,39.407c4.767,2.792,10.89,1.188,13.682-3.577c2.79-4.766,1.188-10.891-3.577-13.681
			c-63.499-37.181-144.23-26.765-196.325,25.328c-63.159,63.16-63.159,165.928,0,229.089c20.823,20.823,45.952,34.776,72.547,41.868
			v35.797l-28.109-28.109c-3.906-3.905-10.235-3.905-14.142,0l-49.288,49.288c-3.905,3.905-3.905,10.236,0,14.141
			c1.953,1.953,4.512,2.929,7.071,2.929c2.559,0,5.118-0.977,7.071-2.929l42.217-42.217l35.181,35.181v87.487
			c0,23.158,18.84,41.997,41.997,41.997c23.158,0,41.997-18.84,41.997-41.997v-3.492l15.673,15.673
			c1.953,1.953,4.512,2.929,7.071,2.929c2.559,0,5.118-0.977,7.071-2.929l164.198-164.199v10.859c0,5.523,4.478,9.999,9.999,9.999
			c5.522,0,9.999-4.477,9.999-9.999v-34.829C511.996,288.491,507.52,284.014,501.997,284.014z M255.988,89.999
			c18.25,0,33.465,13.246,36.532,30.63l-15.876-9.327c-4.211-2.475-9.591-1.544-12.729,2.199
			c-7.951,9.489-19.614,14.932-31.995,14.932h-13.027v-1.337h-0.001C218.891,106.641,235.533,89.999,255.988,89.999z
			 M218.89,148.431L218.89,148.431h13.028c15.427,0,30.1-5.714,41.372-15.905l19.793,11.628v14.281
			c0,20.455-16.642,37.097-37.097,37.097c-20.455,0-37.097-16.642-37.097-37.097V148.431z M277.986,470.002
			c0,12.131-9.868,22-21.999,22c-12.13,0-21.999-9.868-21.999-21.999V322.437c7.297,0.992,14.647,1.498,21.999,1.498
			c7.352,0,14.702-0.506,21.999-1.498V470.002z M255.988,303.946c-33.102-0.003-66.212-11.482-92.766-34.427
			c10.912-32.066,41.146-53.989,75.497-53.989h7.27v36.986c0,5.523,4.478,9.999,9.999,9.999c5.522,0,9.999-4.477,9.999-9.999
			v-36.986h7.27c34.352,0,64.585,21.923,75.497,53.989C322.197,292.471,289.099,303.949,255.988,303.946z"/>
	</g>
</g>
<g>
	<g>
		<path d="M83.07,428.933c-3.906-3.905-10.235-3.905-14.141,0L2.933,494.929c-3.905,3.905-3.905,10.236,0,14.142
			C4.886,511.024,7.445,512,10.004,512s5.118-0.976,7.071-2.929l65.996-65.996C86.975,439.171,86.975,432.839,83.07,428.933z"/>
	</g>
</g>
<g>
	<g>
		<path d="M111.066,400.937c-1.859-1.86-4.439-2.93-7.069-2.93s-5.21,1.07-7.07,2.93s-2.93,4.44-2.93,7.07
			c0,2.63,1.069,5.21,2.93,7.07c1.861,1.86,4.44,2.93,7.07,2.93s5.21-1.07,7.069-2.93c1.86-1.86,2.931-4.44,2.931-7.07
			C113.997,405.377,112.927,402.797,111.066,400.937z"/>
	</g>
</g>
<g>
	<g>
		<circle cx="363.467" cy="54.546" r="9.999"/>
	</g>
</g>
<g>
</g>
<g>
</g>
<g>
</g>
<g>
</g>
<g>
</g>
<g>
</g>
<g>
</g>
<g>
</g>
<g>
</g>
<g>
</g>
<g>
</g>
<g>
</g>
<g>
</g>
<g>
</g>
<g>
</g>
</svg>
