<?xml version="1.0" encoding="iso-8859-1"?>
<!-- Generator: Adobe Illustrator 19.0.0, SVG Export Plug-In . SVG Version: 6.00 Build 0)  -->
<svg version="1.1" id="Capa_1" xmlns="http://www.w3.org/2000/svg" xmlns:xlink="http://www.w3.org/1999/xlink" x="0px" y="0px"
	 viewBox="0 0 512 512" style="enable-background:new 0 0 512 512;" xml:space="preserve">
<g>
	<g>
		<path d="M405.729,303.119L273.151,75.663c-0.08-0.137-0.171-0.261-0.256-0.393l16.276-48.961c2.021-6.081,0.99-12.813-2.758-18.01
			S276.6,0,270.193,0H169.917c-6.408,0-12.472,3.103-16.22,8.299s-4.78,11.93-2.758,18.01l18.715,56.296l-64.537,312.203
			c-0.682,3.296,0.341,6.714,2.721,9.095L212.983,509.07c1.875,1.876,4.419,2.93,7.072,2.93c2.653,0,5.196-1.054,7.072-2.93
			l105.146-105.167c2.38-2.38,3.403-5.798,2.721-9.095l-55.52-268.583l106.554,182.808l-39.699,102.694
			c-1.992,5.151,0.57,10.941,5.722,12.933c1.186,0.458,2.404,0.676,3.603,0.676c4.011,0,7.797-2.432,9.33-6.397l41.433-107.178
			C407.513,308.925,407.26,305.745,405.729,303.119z M270.193,20l-17.287,52h-65.702l-17.287-52H270.193z M248.239,92
			l-75.768,75.767L188.134,92H248.239z M165.147,203.202c0.397-0.293,0.783-0.608,1.142-0.968l89.892-89.892l7.751,37.498
			L153.311,260.462L165.147,203.202z M314.316,393.576l-94.261,94.28l-22.625-22.629L306.567,356.09L314.316,393.576z
			 M289.151,271.835c-0.359,0.273-0.709,0.563-1.037,0.89l-88.5,88.5c-3.905,3.905-3.905,10.237,0,14.143
			c1.953,1.953,4.512,2.929,7.071,2.929c2.559,0,5.119-0.976,7.071-2.929l80.215-80.215l7.751,37.497L183.289,451.083
			l-57.495-57.507l0.985-4.763L230.592,285c3.905-3.905,3.905-10.237,0-14.143c-3.905-3.905-10.237-3.905-14.143,0l-82.3,82.3
			l11.802-57.093c0.147-0.131,0.297-0.255,0.438-0.396L268.778,173.28L289.151,271.835z"/>
	</g>
</g>
<g>
	<g>
		<path d="M189.205,385.78c-1.86-1.86-4.44-2.93-7.07-2.93s-5.21,1.07-7.07,2.93s-2.93,4.44-2.93,7.07s1.07,5.21,2.93,7.07
			c1.86,1.86,4.44,2.93,7.07,2.93s5.21-1.07,7.07-2.93s2.93-4.44,2.93-7.07S191.065,387.64,189.205,385.78z"/>
	</g>
</g>
<g>
	<g>
		<path d="M257.325,244.13c-1.86-1.87-4.44-2.93-7.07-2.93c-2.64,0-5.21,1.06-7.07,2.93c-1.87,1.86-2.93,4.44-2.93,7.07
			s1.06,5.21,2.93,7.07c1.86,1.86,4.43,2.93,7.07,2.93c2.63,0,5.21-1.07,7.07-2.93s2.93-4.44,2.93-7.07
			S259.185,245.99,257.325,244.13z"/>
	</g>
</g>
<g>
</g>
<g>
</g>
<g>
</g>
<g>
</g>
<g>
</g>
<g>
</g>
<g>
</g>
<g>
</g>
<g>
</g>
<g>
</g>
<g>
</g>
<g>
</g>
<g>
</g>
<g>
</g>
<g>
</g>
</svg>
