<?xml version="1.0" encoding="iso-8859-1"?>
<!-- Generator: Adobe Illustrator 19.0.0, SVG Export Plug-In . SVG Version: 6.00 Build 0)  -->
<svg version="1.1" id="Capa_1" xmlns="http://www.w3.org/2000/svg" xmlns:xlink="http://www.w3.org/1999/xlink" x="0px" y="0px"
	 viewBox="0 0 511.999 511.999" style="enable-background:new 0 0 511.999 511.999;" xml:space="preserve">
<g>
	<g>
		<path d="M286.069,386.93c-1.86-1.86-4.44-2.93-7.07-2.93s-5.21,1.07-7.07,2.93c-1.86,1.86-2.93,4.44-2.93,7.07
			s1.07,5.21,2.93,7.07c1.86,1.86,4.44,2.93,7.07,2.93s5.21-1.07,7.07-2.93c1.86-1.86,2.93-4.44,2.93-7.07
			S287.929,388.79,286.069,386.93z"/>
	</g>
</g>
<g>
	<g>
		<path d="M330.999,109.327h-0.133c-5.523,0-10,4.477-10,10c0,5.523,4.477,10,10,10h0.133c5.523,0,10-4.477,10-10
			C340.999,113.804,336.522,109.327,330.999,109.327z"/>
	</g>
</g>
<g>
	<g>
		<path d="M450.126,109.326h-79.873c-5.523,0-10,4.477-10,10s4.477,10,10,10h79.873c5.523,0,10-4.477,10-10
			S455.649,109.326,450.126,109.326z"/>
	</g>
</g>
<g>
	<g>
		<path d="M501.999,64H381.04V23.187C381.04,10.402,370.638,0,357.853,0H216.145c-12.785,0-23.187,10.402-23.187,23.187V64H71.999
			c-5.523,0-10,4.477-10,10v94.196c0,13.953,5.751,26.583,15,35.662v45.134c0,5.523,4.477,10,10,10s10-4.477,10-10v-33.098
			c4.738,1.493,9.776,2.302,15,2.302h38v0.028c0,22.607,18.393,41,41,41s41-18.393,41-41V218.1h110v0.124c0,22.607,18.393,41,41,41
			s41-18.393,41-41v-0.122l37.968,0.069c0.011,0,0.021,0,0.033,0c5.165,0,10.207-0.786,14.999-2.287V374c0,5.514-4.486,10-10,10
			H321.666c-5.523,0-10,4.477-10,10s4.477,10,10,10h145.333c16.542,0,30-13.458,30-30V203.864c0.113-0.111,0.232-0.215,0.344-0.328
			c9.451-9.444,14.656-22.004,14.656-35.366V74C511.999,68.477,507.522,64,501.999,64z M212.958,23.187
			c0-1.757,1.43-3.187,3.187-3.187h141.707c1.757,0,3.187,1.43,3.187,3.187V64H212.958V23.187z M211.999,218.224
			c0,11.58-9.42,21-21,21s-21-9.42-21-21v-33.05h42V218.224z M403.999,218.224c0,11.58-9.42,21-21,21c-11.58,0-21-9.42-21-21v-33.05
			h42V218.224z M491.999,168.17c0,8.017-3.123,15.553-8.793,21.22c-5.666,5.662-13.196,8.78-21.194,8.78c-0.007,0-0.014,0-0.02,0
			l-37.993-0.069v-19.927c0-7.168-5.832-13-13-13h-56c-7.168,0-13,5.832-13,13V198.1h-110v-19.926c0-7.168-5.832-13-13-13h-56
			c-7.168,0-13,5.832-13,13v20.022h-38c-16.542,0-30-13.458-30-30V84h410V168.17z"/>
	</g>
</g>
<g>
	<g>
		<path d="M286.999,287.655c-6.533,0-11.848-4.409-11.848-9.828s5.315-9.828,11.848-9.828c6.533,0,11.848,4.409,11.848,9.828
			c0,5.523,4.477,10,10,10s10-4.477,10-10c0-13.175-9.172-24.376-21.848-28.313v-0.522c0-5.523-4.477-10-10-10s-10,4.477-10,10
			v0.522c-12.676,3.937-21.848,15.138-21.848,28.313c0,16.447,14.287,29.828,31.848,29.828c6.533,0,11.848,4.409,11.848,9.828
			s-5.315,9.828-11.848,9.828c-6.533,0-11.848-4.409-11.848-9.828c0-5.523-4.477-10-10-10s-10,4.477-10,10
			c0,13.18,9.178,24.383,21.86,28.317c0.129,5.41,4.546,9.759,9.988,9.759s9.859-4.349,9.988-9.759
			c12.682-3.934,21.86-15.137,21.86-28.317C318.847,301.036,304.56,287.655,286.999,287.655z"/>
	</g>
</g>
<g>
	<g>
		<path d="M121.999,332c-31.981,0-58,26.019-58,58c0,31.981,26.019,58,58,58s58-26.019,58-58
			C179.999,358.019,153.98,332,121.999,332z M121.999,428c-20.953,0-38-17.047-38-38s17.047-38,38-38s38,17.047,38,38
			S142.952,428,121.999,428z"/>
	</g>
</g>
<g>
	<g>
		<path d="M243.98,369.994c0-4.918-3.576-9.104-8.433-9.873l-13.794-2.186l-6.58-15.869l8.2-11.306
			c2.887-3.98,2.452-9.469-1.026-12.944l-28.237-28.218c-3.479-3.477-8.969-3.908-12.946-1.017l-11.294,8.205l-15.882-6.571
			l-2.195-13.786c-0.773-4.855-4.959-8.428-9.875-8.428c0,0-0.003,0-0.004,0l-39.919,0.017c-4.917,0.002-9.104,3.579-9.873,8.435
			l-2.186,13.794l-15.869,6.58l-11.306-8.2c-3.979-2.886-9.469-2.452-12.944,1.026l-28.22,28.237
			c-3.476,3.479-3.907,8.968-1.017,12.946l8.205,11.294l-6.571,15.882l-13.786,2.195c-4.856,0.773-8.43,4.962-8.428,9.88
			l0.017,39.919c0.002,4.917,3.579,9.104,8.435,9.873l13.794,2.186l6.58,15.869l-8.2,11.306c-2.887,3.98-2.452,9.469,1.026,12.944
			l28.237,28.218c3.478,3.477,8.969,3.908,12.946,1.017l11.294-8.205l15.882,6.571l2.195,13.786
			c0.773,4.855,4.959,8.428,9.875,8.428c0,0,0.003,0,0.004,0l39.919-0.017c4.917-0.002,9.104-3.579,9.873-8.435l2.186-13.794
			l15.869-6.58l11.306,8.2c3.98,2.887,9.469,2.453,12.944-1.026L222.4,462.11c3.476-3.479,3.907-8.968,1.017-12.946l-8.205-11.294
			l6.571-15.882l13.786-2.195c4.856-0.773,8.43-4.962,8.428-9.88L243.98,369.994z M213.113,403.117
			c-3.435,0.547-6.338,2.839-7.668,6.052l-10.852,26.226c-1.33,3.213-0.895,6.887,1.15,9.701l6.477,8.916l-16.149,16.16
			l-8.927-6.475c-2.815-2.041-6.488-2.473-9.702-1.142l-26.21,10.868c-3.212,1.332-5.502,4.237-6.046,7.672l-1.726,10.891
			l-22.846,0.01l-1.733-10.883c-0.547-3.435-2.839-6.338-6.052-7.668l-26.226-10.852c-1.231-0.509-2.53-0.76-3.822-0.76
			c-2.08,0-4.143,0.649-5.878,1.91l-8.916,6.477l-16.16-16.149l6.474-8.926c2.042-2.815,2.475-6.489,1.143-9.701l-10.868-26.21
			c-1.332-3.213-4.237-5.502-7.672-6.047l-10.891-1.726l-0.01-22.846l10.883-1.733c3.435-0.547,6.338-2.839,7.668-6.052
			l10.852-26.226c1.33-3.213,0.895-6.887-1.15-9.701l-6.477-8.916l16.149-16.16l8.926,6.474c2.815,2.042,6.489,2.475,9.701,1.143
			l26.21-10.868c3.213-1.332,5.502-4.237,6.047-7.672l1.726-10.891l22.846-0.01l1.733,10.883c0.547,3.435,2.839,6.338,6.052,7.668
			l26.226,10.852c3.213,1.33,6.888,0.894,9.701-1.15l8.916-6.477l16.16,16.149l-6.475,8.927c-2.042,2.815-2.474,6.489-1.142,9.702
			l10.868,26.21c1.332,3.212,4.237,5.502,7.672,6.046l10.891,1.726l0.01,22.846L213.113,403.117z"/>
	</g>
</g>
<g>
</g>
<g>
</g>
<g>
</g>
<g>
</g>
<g>
</g>
<g>
</g>
<g>
</g>
<g>
</g>
<g>
</g>
<g>
</g>
<g>
</g>
<g>
</g>
<g>
</g>
<g>
</g>
<g>
</g>
</svg>
