<?xml version="1.0" encoding="iso-8859-1"?>
<!-- Generator: Adobe Illustrator 19.0.0, SVG Export Plug-In . SVG Version: 6.00 Build 0)  -->
<svg version="1.1" id="Capa_1" xmlns="http://www.w3.org/2000/svg" xmlns:xlink="http://www.w3.org/1999/xlink" x="0px" y="0px"
	 viewBox="0 0 512.001 512.001" style="enable-background:new 0 0 512.001 512.001;" xml:space="preserve">
<g>
	<g>
		<path d="M222.459,423.051h-33.854c-21.647,0-39.258-17.611-39.258-39.258V326.62c0-5.523-4.477-10-10-10H91.223l30.216-108.845
			c0.242-0.871,0.364-1.771,0.364-2.675c0-37.337,11.062-73.317,31.99-104.05c3.108-4.565,1.928-10.786-2.637-13.894
			c-4.563-3.108-10.785-1.929-13.894,2.637c-22.94,33.687-35.185,73.052-35.455,113.928L68.433,323.945
			c-0.835,3.011-0.216,6.239,1.675,8.727s4.836,3.948,7.961,3.948h51.278v47.172c0,32.675,26.583,59.258,59.258,59.258h33.854
			c10.476,0,18.999,8.522,18.999,18.998V502c0,5.523,4.477,10,10,10c5.523,0,10-4.477,10-10v-39.952
			C261.458,440.545,243.963,423.051,222.459,423.051z"/>
	</g>
</g>
<g>
	<g>
		<path d="M369.576,9.678c-21.251-6.768-43.469-10.019-66.048-9.65c-40.071,0.647-78.722,12.862-111.773,35.324
			c-4.567,3.104-5.754,9.324-2.65,13.892c1.934,2.847,5.078,4.38,8.28,4.38c1.935,0,3.891-0.561,5.612-1.73
			c29.817-20.265,64.692-31.285,100.854-31.869c20.403-0.325,40.475,2.602,59.656,8.71c5.262,1.679,10.887-1.231,12.563-6.494
			C377.746,16.978,374.839,11.354,369.576,9.678z"/>
	</g>
</g>
<g>
	<g>
		<path d="M498.957,242.97c-5.413-1.11-10.697,2.37-11.811,7.779c-6.545,31.804-19.195,62.328-35.617,85.948
			c-11.645,16.748-17.799,36.408-17.799,56.856V502c0,5.523,4.477,10,10,10s10-4.477,10-10V393.554
			c0-16.347,4.917-32.06,14.22-45.439c17.933-25.792,31.707-58.938,38.786-93.333C507.85,249.371,504.367,244.084,498.957,242.97z"
			/>
	</g>
</g>
<g>
	<g>
		<path d="M469.732,104.278c-4.849-15.887-14.41-30.18-27.387-40.77c-14.975-12.22-33.885-18.95-53.246-18.95
			c-37.109,0-69.386,24.146-80.336,58.722c-2.504-0.347-5.036-0.521-7.583-0.521c-30.426,0-55.18,24.754-55.18,55.18
			c0,30.426,24.754,55.18,55.18,55.18h22.486c5.523,0,10-4.477,10-10c0-5.523-4.477-10-10-10H301.18
			c-19.398,0-35.18-15.782-35.18-35.18c0-19.398,15.782-35.18,35.18-35.18c3.954,0,7.852,0.66,11.584,1.961
			c2.756,0.96,5.794,0.671,8.317-0.796c2.523-1.466,4.28-3.961,4.81-6.832c5.616-30.44,32.199-52.534,63.208-52.534
			c30.041,0,56.458,21.274,62.814,50.584c0.914,4.212,4.423,7.365,8.708,7.824c17.89,1.916,31.38,16.951,31.38,34.973
			c0,19.398-15.782,35.18-35.18,35.18h-27.629c-5.523,0-10,4.477-10,10c0,5.523,4.477,10,10,10h27.629
			c30.426,0,55.18-24.754,55.18-55.18C512.001,132.068,494.264,110.119,469.732,104.278z"/>
	</g>
</g>
<g>
	<g>
		<path d="M412.282,221.065c-1.873-2.66-4.924-4.243-8.177-4.243h-26.177l16.903-48.975c1.802-5.221-0.969-10.914-6.19-12.715
			c-5.22-1.802-10.914,0.97-12.715,6.19l-21.48,62.238c-1.055,3.057-0.567,6.434,1.31,9.067c1.876,2.633,4.91,4.196,8.143,4.196
			h26.008l-15.32,42.81c-1.86,5.2,0.846,10.924,6.046,12.785c1.113,0.398,2.25,0.587,3.369,0.587c4.105,0,7.954-2.547,9.416-6.634
			l20.104-56.179C414.618,227.129,414.155,223.725,412.282,221.065z"/>
	</g>
</g>
<g>
	<g>
		<path d="M177.071,196.05c-1.86-1.86-4.44-2.93-7.07-2.93s-5.21,1.07-7.07,2.93s-2.93,4.44-2.93,7.07s1.07,5.21,2.93,7.07
			s4.44,2.93,7.07,2.93s5.21-1.07,7.07-2.93s2.93-4.44,2.93-7.07S178.931,197.91,177.071,196.05z"/>
	</g>
</g>
<g>
	<g>
		<path d="M73.251,193.119h-39.12c3.779-3.914,3.744-10.148-0.119-14.011c-3.905-3.905-10.237-3.905-14.143,0l-16.94,16.94
			c-3.905,3.905-3.905,10.237,0,14.143l16.94,16.94c1.953,1.953,4.512,2.929,7.071,2.929c2.559,0,5.119-0.976,7.071-2.929
			c3.863-3.863,3.898-10.097,0.119-14.011h39.121v-0.001c5.523,0,10-4.477,10-10C83.251,197.596,78.774,193.119,73.251,193.119z"/>
	</g>
</g>
<g>
	<g>
		<path d="M403.071,386.481c-1.86-1.861-4.44-2.93-7.07-2.93s-5.21,1.07-7.07,2.93c-1.86,1.86-2.93,4.44-2.93,7.07
			c0,2.64,1.07,5.21,2.93,7.07c1.86,1.87,4.44,2.93,7.07,2.93s5.21-1.06,7.07-2.93c1.86-1.86,2.93-4.43,2.93-7.07
			C406.001,390.921,404.931,388.341,403.071,386.481z"/>
	</g>
</g>
<g>
	<g>
		<path d="M396.001,419.001c-5.523,0-10,4.477-10,10v73c0,5.523,4.477,10,10,10s10-4.477,10-10v-73
			C406.001,423.478,401.524,419.001,396.001,419.001z"/>
	</g>
</g>
<g>
	<g>
		<circle cx="170.001" cy="66.1" r="10"/>
	</g>
</g>
<g>
</g>
<g>
</g>
<g>
</g>
<g>
</g>
<g>
</g>
<g>
</g>
<g>
</g>
<g>
</g>
<g>
</g>
<g>
</g>
<g>
</g>
<g>
</g>
<g>
</g>
<g>
</g>
<g>
</g>
</svg>
