<?xml version="1.0" encoding="iso-8859-1"?>
<!-- Generator: Adobe Illustrator 19.0.0, SVG Export Plug-In . SVG Version: 6.00 Build 0)  -->
<svg version="1.1" id="Capa_1" xmlns="http://www.w3.org/2000/svg" xmlns:xlink="http://www.w3.org/1999/xlink" x="0px" y="0px"
	 viewBox="0 0 512 512" style="enable-background:new 0 0 512 512;" xml:space="preserve">
<g>
	<g>
		<path d="M410.143,335.236l-24.194-36.292c-3.424-5.136-9.155-8.203-15.33-8.203c-6.174,0-11.905,3.067-15.329,8.204
			l-11.814,17.721c-3.064,4.595-1.822,10.804,2.773,13.867c4.596,3.065,10.804,1.823,13.867-2.773l10.503-15.754l22.883,34.324
			c1.927,2.891,5.098,4.454,8.33,4.454c1.906,0,3.833-0.544,5.538-1.681C411.965,346.04,413.207,339.831,410.143,335.236z"/>
	</g>
</g>
<g>
	<g>
		<path d="M430.179,365.63c-1.86-1.86-4.44-2.92-7.07-2.92c-2.641,0-5.21,1.06-7.07,2.92c-1.87,1.86-2.93,4.44-2.93,7.08
			c0,2.63,1.06,5.21,2.93,7.07c1.86,1.86,4.44,2.93,7.07,2.93s5.21-1.07,7.07-2.93c1.86-1.87,2.93-4.44,2.93-7.07
			C433.109,370.07,432.039,367.5,430.179,365.63z"/>
	</g>
</g>
<g>
	<g>
		<path d="M508.892,483.358l-56.418-84.672c-3.062-4.595-9.27-5.84-13.867-2.777c-4.596,3.063-5.839,9.271-2.777,13.867L490.617,492
			h-67.935l-196.71-295.066c-2.024-3.035-4.792-5.398-7.973-6.927c0-0.002,0-0.004,0-0.006v-26h220c3.251,0,6.299-1.58,8.172-4.237
			c1.874-2.657,2.339-6.058,1.247-9.121L422.948,82l24.47-68.642c1.092-3.063,0.626-6.464-1.247-9.121S441.25,0,437.999,0h-230
			c-5.523,0-10,4.477-10,10v180c0,0.5,0.049,0.989,0.12,1.469c-2.114,1.432-3.967,3.271-5.429,5.465L3.375,480.906
			c-4.099,6.149-4.479,14.016-0.992,20.531C5.869,507.953,12.626,512,20.015,512H493.56c6.807,0,13.032-3.729,16.244-9.73
			C513.017,496.268,512.667,489.021,508.892,483.358z M359.13,144h-84.005v-2.537c0-16.635,13.533-30.168,30.168-30.168h23.669
			c16.635,0,30.168,13.533,30.168,30.168V144z M305.128,79.295v-4c0-6.617,5.383-12,12-12s12,5.383,12,12v4c0,6.617-5.383,12-12,12
			S305.128,85.912,305.128,79.295z M218,20h205.819l-20.906,58.642c-0.774,2.172-0.774,4.544,0,6.716L423.818,144H379.13v-2.537
			c0-21.876-14.08-40.514-33.648-47.36c2.324-4.431,3.646-9.467,3.646-14.808v-4c0-17.645-14.355-32-32-32
			c-17.645,0-32,14.355-32,32v4c0,5.341,1.322,10.376,3.646,14.808c-19.569,6.846-33.648,25.485-33.648,47.36V144H218V20z
			 M19.985,492.053c0,0,0.008-0.018,0.031-0.053l189.315-283.972l189.316,283.975L19.985,492.053z"/>
	</g>
</g>
<g>
	<g>
		<path d="M181.399,314.93c-1.86-1.86-4.44-2.93-7.07-2.93s-5.21,1.07-7.07,2.93c-1.86,1.86-2.93,4.44-2.93,7.07
			s1.07,5.21,2.93,7.07c1.86,1.86,4.44,2.93,7.07,2.93s5.21-1.07,7.07-2.93c1.86-1.86,2.93-4.44,2.93-7.07
			S183.259,316.79,181.399,314.93z"/>
	</g>
</g>
<g>
	<g>
		<path d="M160.374,341.693c-4.595-3.063-10.803-1.822-13.867,2.773l-49.171,73.757c-3.063,4.595-1.822,10.804,2.773,13.867
			c1.705,1.137,3.631,1.681,5.538,1.681c3.231,0,6.403-1.563,8.33-4.454l49.171-73.757
			C166.211,350.965,164.969,344.757,160.374,341.693z"/>
	</g>
</g>
<g>
</g>
<g>
</g>
<g>
</g>
<g>
</g>
<g>
</g>
<g>
</g>
<g>
</g>
<g>
</g>
<g>
</g>
<g>
</g>
<g>
</g>
<g>
</g>
<g>
</g>
<g>
</g>
<g>
</g>
</svg>
